<svg width="119" height="34" viewBox="0 0 119 34" fill="none" xmlns="http://www.w3.org/2000/svg">
<g id="logo">
<g id="emblem">
<path id="Vector" d="M7.52539 7.59223V19.4849C7.52539 20.1817 7.98995 21.7612 8.73324 23.2943C9.44001 24.9967 10.4295 26.5673 11.6599 27.9398C12.9519 29.2796 14.4211 30.4363 16.0268 31.3776C17.1664 32.0582 18.1865 32.9214 19.0464 33.9326C19.9277 32.925 20.9625 32.0627 22.1125 31.3776C23.7097 30.424 25.1775 29.2686 26.4793 27.9398C27.873 26.4997 28.895 24.4092 29.406 23.2943C29.917 22.1793 30.6139 20.1817 30.6139 19.4849V7.59223L19.0464 0.0664062L7.52539 7.59223Z" fill="#001A60"/>
<path id="Vector_2" d="M30.0097 7.96542H30.1026L19.0461 0.671875L8.03613 7.87251V19.4864C8.03613 20.6478 9.75499 25.2469 12.0313 27.6162C13.3071 28.8961 14.7437 30.0049 16.3052 30.9145C17.3211 31.5411 18.2437 32.3073 19.0461 33.1909C19.8777 32.32 20.814 31.5554 21.8335 30.9145C23.395 30.0049 24.8317 28.8961 26.1074 27.6162C28.3837 25.2469 30.1026 20.6478 30.1026 19.4864V7.91897H30.0097V7.96542Z" fill="url(#paint0_radial_2451_111079)"/>
<path id="Vector_3" d="M8.82617 8.38103V19.5769C9.00741 20.7255 9.36797 21.8385 9.89465 22.8752C10.5653 24.4312 11.4743 25.8731 12.5891 27.1491C13.8295 28.3843 15.2183 29.461 16.7236 30.3546C17.5614 30.8544 18.3406 31.4465 19.0464 32.1199C19.7788 31.4581 20.572 30.867 21.4157 30.3546C22.921 29.461 24.3098 28.3843 25.5502 27.1491C26.665 25.8731 27.574 24.4312 28.2447 22.8752C28.748 21.829 29.1074 20.7195 29.3131 19.5769V8.38103L19.0464 1.69141L8.82617 8.38103Z" fill="url(#paint1_linear_2451_111079)"/>
<path id="Vector_4" d="M8.03613 7.87251H8.12904L19.0461 0.857699V0.671875L8.03613 7.87251Z" fill="#FEDA5D"/>
<path id="Vector_5" d="M30.0094 7.96542H30.1024L19.0459 0.671875V0.857699L30.0094 7.96542Z" fill="#DFB840"/>
<path id="Vector_6" d="M29.3591 8.38242L29.5449 8.28951L19.0459 1.41406V1.6928L29.3591 8.38242Z" fill="#D39428"/>
<path id="Vector_7" d="M8.59375 8.24305L8.77957 8.33596L19.0463 1.6928V1.41406L8.59375 8.24305Z" fill="#D39428"/>
<path id="Vector_8" d="M16.677 30.402C15.1674 29.5354 13.7906 28.4558 12.5889 27.1965C10.452 25.0131 8.77957 20.6463 8.77957 19.6243V8.38197L8.59375 8.28906V19.5778C8.59375 20.0888 8.9654 21.3896 9.70869 23.0155C10.3807 24.5814 11.3068 26.0255 12.4496 27.2894C13.6762 28.5534 15.0668 29.6471 16.5841 30.5413C17.4744 31.0988 18.3002 31.7531 19.0463 32.4925V32.2602C18.3334 31.5486 17.538 30.9247 16.677 30.402Z" fill="#FEDA5D"/>
<path id="Vector_9" d="M16.677 30.402C15.1674 29.5354 13.7906 28.4558 12.5889 27.1965C10.452 25.0131 8.77957 20.6463 8.77957 19.6243V8.38197L8.59375 8.28906V19.5778C8.59375 20.0888 8.9654 21.3896 9.70869 23.0155C10.3807 24.5814 11.3068 26.0255 12.4496 27.2894C13.6762 28.5534 15.0668 29.6471 16.5841 30.5413C17.4744 31.0988 18.3002 31.7531 19.0463 32.4925V32.2602C18.3334 31.5486 17.538 30.9247 16.677 30.402Z" fill="url(#paint2_linear_2451_111079)"/>
<path id="Vector_10" d="M29.3591 19.6243C29.3591 20.6463 27.6867 25.0131 25.5497 27.1965C24.3285 28.4342 22.9548 29.5113 21.4616 30.402C20.5937 30.9353 19.784 31.5581 19.0459 32.2602V32.4925C19.8177 31.7633 20.6578 31.1099 21.5545 30.5413C23.0719 29.6471 24.4625 28.5534 25.6891 27.2894C26.8161 26.0135 27.7405 24.5721 28.4299 23.0155C29.1732 21.3896 29.5449 20.0888 29.5449 19.5778V8.28906L29.3591 8.38197V19.6243Z" fill="#FEDA5D"/>
<path id="Vector_11" d="M15.2832 5.45556H15.7478C15.9082 5.44362 16.0688 5.47575 16.2123 5.54847C16.3015 5.58702 16.3764 5.65258 16.4264 5.73591C16.4764 5.81925 16.499 5.91617 16.4911 6.01303C16.4824 6.1182 16.4482 6.21967 16.3916 6.3087C16.3349 6.39773 16.2575 6.47164 16.1659 6.52404H15.6548V7.17442H15.2832V5.45556ZM15.6548 5.7343V6.29176H15.8407C15.884 6.29545 15.9275 6.28896 15.9678 6.27283C16.0081 6.2567 16.0441 6.23137 16.073 6.19885V6.01303C16.073 5.82721 16.0265 5.7343 15.8407 5.7343H15.6548Z" fill="white"/>
<path id="Vector_12" d="M17.3736 5.45312C17.8382 5.45312 18.1169 5.77832 18.1169 6.33578C18.1287 6.48834 18.1007 6.64136 18.0355 6.77981C17.9704 6.91826 17.8703 7.0374 17.7453 7.12553C17.6362 7.19943 17.5046 7.23235 17.3736 7.21844C17.2685 7.23206 17.1616 7.21776 17.0638 7.17699C16.9659 7.13622 16.8805 7.0704 16.8161 6.98616C16.6854 6.79521 16.6202 6.56698 16.6303 6.33578C16.6192 6.17664 16.6472 6.01719 16.712 5.87141C16.7768 5.72562 16.8764 5.59795 17.002 5.49958L17.3736 5.45312ZM17.3736 5.6854C17.3147 5.68817 17.2576 5.70693 17.2085 5.73966C17.1594 5.7724 17.1201 5.81788 17.0949 5.87123C17.0279 6.01666 16.9961 6.17579 17.002 6.33578C17.002 6.61452 17.0484 6.80034 17.1878 6.89325H17.3736C17.6059 6.89325 17.6988 6.70743 17.6988 6.28933C17.7125 6.14825 17.6967 6.00586 17.6523 5.87123C17.6323 5.81423 17.5943 5.76528 17.544 5.73177C17.4937 5.69825 17.4339 5.68198 17.3736 5.6854Z" fill="white"/>
<path id="Vector_13" d="M18.3486 5.45312H18.7203V6.89325H19.3242V7.21844H18.3951L18.3486 5.45312Z" fill="white"/>
<path id="Vector_14" d="M19.5566 5.45312H19.9283V7.21844H19.5566V5.45312Z" fill="white"/>
<path id="Vector_15" d="M21.4149 5.54929L21.2291 5.78157L20.9503 5.68866L20.6716 5.82803C20.5908 5.9686 20.5582 6.13174 20.5787 6.29258C20.5626 6.44898 20.5784 6.60703 20.6252 6.75714C20.6581 6.81413 20.7055 6.86136 20.7626 6.89401C20.8198 6.92666 20.8845 6.94355 20.9503 6.94296H21.2291C21.2291 6.93064 21.234 6.91883 21.2427 6.91011C21.2514 6.9014 21.2632 6.89651 21.2755 6.89651L21.4149 7.12879C21.2785 7.22282 21.116 7.27157 20.9503 7.26815C20.8452 7.28177 20.7383 7.26747 20.6405 7.2267C20.5426 7.18593 20.4572 7.12011 20.3929 7.03587C20.2418 6.87123 20.1588 6.6554 20.1606 6.43195C20.15 6.23635 20.1986 6.0421 20.3 5.87448C20.347 5.77513 20.4155 5.68745 20.5005 5.61775C20.5855 5.54805 20.6849 5.49807 20.7915 5.47141C20.8981 5.44475 21.0094 5.44208 21.1172 5.46358C21.225 5.48508 21.3267 5.53022 21.4149 5.59575V5.54929Z" fill="white"/>
<path id="Vector_16" d="M21.6475 5.45312H22.6695V5.73186H22.0191V6.14996H22.4837V6.4287H22.0191V6.89325H22.6695V7.21844H21.6475V5.45312Z" fill="white"/>
<path id="Vector_17" d="M20.3926 11.8683C20.3982 11.9885 20.4284 12.1062 20.4812 12.2144C20.5341 12.3225 20.6085 12.4187 20.6998 12.497C20.7912 12.5753 20.8976 12.6341 21.0126 12.6698C21.1275 12.7055 21.2485 12.7173 21.3681 12.7045C21.4841 12.7107 21.6001 12.694 21.7096 12.6554C21.8191 12.6167 21.9199 12.5568 22.0062 12.4792C22.0925 12.4015 22.1627 12.3075 22.2126 12.2027C22.2626 12.0979 22.2913 11.9842 22.2973 11.8683C22.2853 11.63 22.1822 11.4054 22.0092 11.2411C21.8363 11.0768 21.6067 10.9853 21.3681 10.9856C21.2461 10.9793 21.124 10.9972 21.0089 11.0382C20.8938 11.0792 20.7879 11.1425 20.6972 11.2245C20.6066 11.3065 20.5331 11.4056 20.4808 11.516C20.4285 11.6265 20.3985 11.7462 20.3926 11.8683ZM20.95 11.8683C20.9281 11.8052 20.9216 11.7379 20.931 11.6719C20.9404 11.6058 20.9655 11.543 21.0041 11.4886C21.0428 11.4342 21.0939 11.3899 21.1532 11.3593C21.2125 11.3287 21.2782 11.3127 21.3449 11.3127C21.4116 11.3127 21.4774 11.3287 21.5367 11.3593C21.5959 11.3899 21.647 11.4342 21.6857 11.4886C21.7244 11.543 21.7494 11.6058 21.7588 11.6719C21.7683 11.7379 21.7617 11.8052 21.7398 11.8683C21.7617 11.9313 21.7683 11.9986 21.7588 12.0646C21.7494 12.1307 21.7244 12.1935 21.6857 12.2479C21.647 12.3023 21.5959 12.3466 21.5367 12.3772C21.4774 12.4078 21.4116 12.4238 21.3449 12.4238C21.2782 12.4238 21.2125 12.4078 21.1532 12.3772C21.0939 12.3466 21.0428 12.3023 21.0041 12.2479C20.9655 12.1935 20.9404 12.1307 20.931 12.0646C20.9216 11.9986 20.9281 11.9313 20.95 11.8683Z" fill="white"/>
<path id="Vector_18" d="M21.88 8.89453V9.452H21.1831V9.08035H19.6037V9.452H20.6257V9.54491C20.6276 9.67807 20.5993 9.80993 20.543 9.9306C20.4866 10.0513 20.4037 10.1577 20.3005 10.2417C20.0838 10.447 19.807 10.5773 19.5107 10.6134L19.7895 10.9386C20.163 10.8833 20.5069 10.7032 20.765 10.4276C20.9256 10.2513 21.0517 10.0464 21.1367 9.82365H21.88V10.1024H21.1367V10.474H21.88V10.8921H22.4375V8.89453H21.88Z" fill="white"/>
<path id="Vector_19" d="M12.171 8.84766V9.40512H11.4277V9.77677H11.7065C11.6534 9.91029 11.622 10.0514 11.6136 10.1949C11.6136 10.4166 11.7017 10.6293 11.8585 10.7862C12.0153 10.943 12.228 11.0311 12.4498 11.0311C12.6715 11.0311 12.8842 10.943 13.041 10.7862C13.1979 10.6293 13.286 10.4166 13.286 10.1949C13.2828 10.0446 13.2342 9.89884 13.1466 9.77677H13.4253V9.40512H12.7285V8.84766H12.171ZM12.171 10.2413C12.171 9.96259 12.3104 9.77677 12.4498 9.77677C12.5891 9.77677 12.7285 9.96259 12.7285 10.2413C12.7285 10.5201 12.5891 10.6594 12.4498 10.6594C12.3104 10.6594 12.171 10.4736 12.171 10.2413Z" fill="white"/>
<path id="Vector_20" d="M14.3542 8.89453V10.0095H14.0755V8.89453H13.5645V12.611H14.0755V10.4276H14.3542V12.611H14.8188V8.89453H14.3542Z" fill="white"/>
<path id="Vector_21" d="M17.791 8.89453V10.8921H18.3485V10.474H18.8595V10.0559H18.3485V9.73073H18.8595V9.35909H18.3485V8.89453H17.791Z" fill="white"/>
<path id="Vector_22" d="M16.3052 11.868C16.2865 12.0639 16.3274 12.2608 16.4226 12.4329C16.5178 12.6051 16.6628 12.7445 16.8386 12.8328C17.0144 12.921 17.2128 12.9541 17.4077 12.9276C17.6026 12.9011 17.785 12.8163 17.9309 12.6844C18.0768 12.5524 18.1793 12.3794 18.2251 12.188C18.2709 11.9967 18.2578 11.796 18.1875 11.6123C18.1172 11.4286 17.993 11.2704 17.8312 11.1585C17.6694 11.0466 17.4775 10.9863 17.2808 10.9854C17.1573 10.9723 17.0325 10.9854 16.9144 11.0239C16.7964 11.0624 16.6877 11.1253 16.5957 11.2086C16.5036 11.2919 16.4301 11.3937 16.3801 11.5073C16.33 11.621 16.3045 11.7439 16.3052 11.868ZM16.8627 11.868C16.8627 11.8131 16.8735 11.7588 16.8945 11.708C16.9155 11.6573 16.9463 11.6112 16.9851 11.5724C17.024 11.5336 17.0701 11.5028 17.1208 11.4818C17.1715 11.4607 17.2259 11.4499 17.2808 11.4499C17.3357 11.4499 17.3901 11.4607 17.4408 11.4818C17.4915 11.5028 17.5376 11.5336 17.5764 11.5724C17.6153 11.6112 17.646 11.6573 17.6671 11.708C17.6881 11.7588 17.6989 11.8131 17.6989 11.868C17.6989 11.9229 17.6881 11.9773 17.6671 12.028C17.646 12.0788 17.6153 12.1249 17.5764 12.1637C17.5376 12.2025 17.4915 12.2333 17.4408 12.2543C17.3901 12.2753 17.3357 12.2861 17.2808 12.2861C17.2259 12.2861 17.1715 12.2753 17.1208 12.2543C17.0701 12.2333 17.024 12.2025 16.9851 12.1637C16.9463 12.1249 16.9155 12.0788 16.8945 12.028C16.8735 11.9773 16.8627 11.9229 16.8627 11.868Z" fill="white"/>
<path id="Vector_23" d="M15.5156 9.87052C15.5156 10.1169 15.6135 10.3533 15.7878 10.5275C15.962 10.7017 16.1983 10.7996 16.4447 10.7996C16.6912 10.7996 16.9275 10.7017 17.1017 10.5275C17.276 10.3533 17.3739 10.1169 17.3739 9.87052C17.3739 9.6241 17.276 9.38778 17.1017 9.21354C16.9275 9.0393 16.6912 8.94141 16.4447 8.94141C16.1983 8.94141 15.962 9.0393 15.7878 9.21354C15.6135 9.38778 15.5156 9.6241 15.5156 9.87052ZM16.0731 9.87052C16.0731 9.77195 16.1122 9.67742 16.1819 9.60773C16.2516 9.53803 16.3462 9.49888 16.4447 9.49888C16.5433 9.49888 16.6378 9.53803 16.7075 9.60773C16.7772 9.67742 16.8164 9.77195 16.8164 9.87052C16.8164 9.96909 16.7772 10.0636 16.7075 10.1333C16.6378 10.203 16.5433 10.2422 16.4447 10.2422C16.3462 10.2422 16.2516 10.203 16.1819 10.1333C16.1122 10.0636 16.0731 9.96909 16.0731 9.87052Z" fill="white"/>
<path id="Vector_24" d="M25.5957 8.89453V10.8921H26.1532V10.0559H26.6642V9.63782H26.1532V8.89453H25.5957Z" fill="white"/>
<path id="Vector_25" d="M23.924 8.84724V9.26534H23.2736V9.68344H23.924C23.9177 9.79041 23.8898 9.895 23.8419 9.99083C23.794 10.0867 23.7271 10.1718 23.6452 10.2409C23.5879 10.3095 23.5171 10.3655 23.4371 10.4054C23.3572 10.4454 23.2699 10.4685 23.1807 10.4732L23.32 10.659L23.4594 10.7984C23.7694 10.7146 24.0354 10.515 24.2027 10.2409C24.2027 10.1945 24.2027 10.1945 24.2491 10.1945H24.2956C24.4723 10.4598 24.7347 10.6566 25.0389 10.7519C25.1199 10.6338 25.2133 10.5248 25.3176 10.4267C25.1319 10.3889 24.9572 10.3095 24.8066 10.1945C24.6604 10.0405 24.5633 9.84638 24.5279 9.63698H25.1783V9.21888H24.5279V8.80078L23.924 8.84724Z" fill="white"/>
<path id="Vector_26" d="M23.7842 11.0781V11.4033H25.596V11.682H23.7842V12.286C23.7842 12.5183 23.8771 12.6112 24.1094 12.6112H26.1999V12.286H24.3881V12.0537H26.107C26.1534 12.0537 26.1534 12.0537 26.1534 12.0072V11.1246H23.7842V11.0781Z" fill="white"/>
<path id="Vector_27" d="M19.0461 33.0509L18.9068 32.8651C18.1283 32.1105 17.2718 31.4409 16.3517 30.8675C14.786 29.985 13.3611 28.8732 12.1242 27.5691C10.777 26.2219 9.80145 24.2243 9.29044 23.1559C8.77942 22.0874 8.12904 20.1827 8.12904 19.5323V7.96484H8.03613V19.4859C8.03613 20.6473 9.75499 25.2464 12.0313 27.6156C13.3071 28.8956 14.7437 30.0043 16.3052 30.914C17.3211 31.5405 18.2437 32.3068 19.0461 33.1903V33.0509Z" fill="url(#paint3_linear_2451_111079)"/>
<path id="Vector_28" d="M19.0459 33.0509L19.2317 32.8651C20.0102 32.1105 20.8667 31.4409 21.7868 30.8675C23.3444 29.9729 24.7677 28.8624 26.0143 27.5691C27.1717 26.2461 28.1267 24.7589 28.8481 23.1559C29.4984 21.6228 30.0094 20.1827 30.0094 19.5323V7.96484H30.1024V19.4859C30.1024 20.6473 28.3835 25.2464 26.1072 27.6156C24.8314 28.8956 23.3947 30.0043 21.8332 30.914C20.8137 31.5548 19.8775 32.3194 19.0459 33.1903V33.0509Z" fill="#D39428"/>
<path id="Vector_29" d="M19.046 1.69141L8.7793 8.38103V19.6233C8.7793 20.6453 10.4517 25.0122 12.5887 27.1956C13.7903 28.4549 15.1672 29.5345 16.6768 30.401C17.5378 30.9238 18.3331 31.5476 19.046 32.2593C19.7841 31.5572 20.5938 30.9344 21.4617 30.401C22.9549 29.5104 24.3286 28.4332 25.5498 27.1956C27.6868 25.0122 29.3592 20.6453 29.3592 19.6233V8.38103L19.046 1.69141ZM29.2198 19.6233C29.2198 20.6453 27.5474 24.9657 25.4569 27.1027C24.2552 28.362 22.8784 29.4416 21.3688 30.3081C20.5323 30.8098 19.7534 31.4018 19.046 32.0734C18.3547 31.4028 17.5913 30.8108 16.7697 30.3081C15.2601 29.4416 13.8832 28.362 12.6816 27.1027C10.5446 24.9657 8.91866 20.6453 8.91866 19.6233V8.47394L19.046 1.83077L29.2198 8.47394V19.6233Z" fill="#000044"/>
<path id="Vector_30" d="M19.0453 18.3242C18.2827 18.3242 17.5372 18.5504 16.9031 18.974C16.269 19.3977 15.7748 19.9999 15.483 20.7045C15.1911 21.409 15.1148 22.1843 15.2635 22.9323C15.4123 23.6802 15.7796 24.3673 16.3188 24.9065C16.858 25.4458 17.5451 25.813 18.293 25.9618C19.041 26.1106 19.8163 26.0342 20.5208 25.7424C21.2254 25.4505 21.8276 24.9563 22.2513 24.3222C22.675 23.6881 22.9011 22.9426 22.9011 22.18C22.9011 21.1574 22.4949 20.1767 21.7718 19.4536C21.0487 18.7305 20.0679 18.3242 19.0453 18.3242Z" fill="#FFD900"/>
<path id="Vector_31" d="M13.1455 22.0399C13.3956 22.2248 13.6846 22.3503 13.9906 22.4066C14.2965 22.463 14.6112 22.4488 14.9108 22.3651V22.1792C14.9163 21.7207 14.9947 21.2659 15.1431 20.832C14.5717 21.3734 13.8904 21.7854 13.1455 22.0399Z" fill="url(#paint4_linear_2451_111079)"/>
<path id="Vector_32" d="M12.9141 22.5995C13.0316 23.6289 13.3139 24.6328 13.7503 25.5726C13.7695 25.6172 13.8023 25.6547 13.844 25.6797C13.8857 25.7047 13.9341 25.716 13.9825 25.712C14.682 25.5985 15.3303 25.2743 15.8408 24.7829C15.328 24.1772 15.0049 23.434 14.9117 22.6459C14.234 22.7968 13.5246 22.6978 12.9141 22.3672V22.553V22.5995Z" fill="#FFD900"/>
<path id="Vector_33" d="M16.1194 28.5458C16.8627 27.9419 17.2808 26.4089 17.4201 25.9908C16.8751 25.7762 16.395 25.4241 16.0265 24.9688C15.4794 25.5295 14.7593 25.8896 13.9824 25.9908C14.4514 26.9423 15.0799 27.8065 15.8406 28.5458C15.8581 28.5656 15.8795 28.5814 15.9036 28.5923C15.9276 28.6031 15.9537 28.6088 15.98 28.6088C16.0064 28.6088 16.0324 28.6031 16.0565 28.5923C16.0805 28.5814 16.1019 28.5656 16.1194 28.5458Z" fill="#FFD900"/>
<path id="Vector_34" d="M15.8399 19.5297C15.9636 19.3861 16.0725 19.2305 16.1651 19.0651L15.5147 18.9258H15.3754C14.4927 19.6691 13.099 20.8305 11.5195 21.2021C11.7508 21.4801 12.066 21.6756 12.4177 21.7593C12.7695 21.8431 13.1389 21.8106 13.4707 21.6667C14.3032 21.2411 15.0326 20.6386 15.6076 19.9014L15.8399 19.5297Z" fill="url(#paint5_linear_2451_111079)"/>
<path id="Vector_35" d="M22.0195 28.5458C22.0322 28.565 22.0495 28.5807 22.0697 28.5916C22.09 28.6025 22.1127 28.6082 22.1356 28.6082C22.1586 28.6082 22.1813 28.6025 22.2016 28.5916C22.2218 28.5807 22.2391 28.565 22.2518 28.5458C23.0412 27.8211 23.6874 26.9543 24.1565 25.9908C23.3739 25.9086 22.6477 25.5455 22.1124 24.9688C21.7301 25.4093 21.2539 25.7585 20.7188 25.9908C20.8117 26.4089 21.2762 27.9419 22.0195 28.5458Z" fill="#FFD900"/>
<path id="Vector_36" d="M19.418 26.3143V26.6395C19.4644 27.5222 19.4644 29.9843 19.6038 30.4024C20.4248 30.0095 21.1903 29.5096 21.8801 28.9158C21.5549 28.6371 20.951 27.9867 20.3935 26.082C20.0836 26.2133 19.7538 26.2918 19.418 26.3143Z" fill="#FFD900"/>
<path id="Vector_37" d="M24.3884 25.5691C24.8037 24.6217 25.0851 23.621 25.2246 22.596V22.4102C24.5959 22.7364 23.8736 22.8349 23.1805 22.6889C23.0836 23.4676 22.7787 24.2058 22.2979 24.8259C22.801 25.3276 23.4528 25.6535 24.1561 25.755L24.3884 25.5691Z" fill="#FFD900"/>
<path id="Vector_38" d="M18.5351 30.4028C18.6745 29.9847 18.6745 27.5226 18.6745 26.6399V26.3147L17.7454 26.1289C17.1879 27.9871 16.584 28.684 16.2588 28.9162C16.9486 29.5101 17.7141 30.0099 18.5351 30.4028Z" fill="#FFD900"/>
<path id="Vector_39" d="M12.31 17.4392L12.0312 17.2534C11.0557 16.5566 10.4517 16.0456 10.4517 16.0456C7.75446 15.2816 5.10229 14.3666 2.50781 13.3047C2.50781 13.3047 2.50781 16.7889 5.62034 17.3463C7.84723 17.49 10.08 17.521 12.31 17.4392Z" fill="url(#paint6_linear_2451_111079)"/>
<path id="Vector_40" d="M10.5914 15.8133C10.5914 15.8133 13.1465 18.3219 16.3519 18.833L17.0487 17.8574C14.3079 17.5787 12.589 16.0456 11.4276 14.8842C11.053 14.4746 10.6135 14.1293 10.1268 13.8622L0.417606 7.68359C0.417606 7.68359 -0.093407 11.6788 2.50811 12.9331L2.74039 13.026C5.29564 14.1206 7.91794 15.0516 10.5914 15.8133Z" fill="url(#paint7_linear_2451_111079)"/>
<path id="Vector_41" d="M12.6818 17.6719C11.0559 17.7648 8.87244 17.7648 5.99219 17.6719C6.2186 18.2949 6.64982 18.8227 7.21527 19.1687C7.78072 19.5147 8.44689 19.6585 9.10472 19.5766C10.7443 19.3524 12.3509 18.9312 13.8897 18.3223C13.4643 18.1506 13.0592 17.9325 12.6818 17.6719Z" fill="url(#paint8_linear_2451_111079)"/>
<path id="Vector_42" d="M15.0967 18.7861L14.1676 18.4609C12.5495 19.1132 10.8681 19.5958 9.15039 19.9011C9.2978 20.25 9.55352 20.5422 9.87977 20.7346C10.206 20.927 10.5855 21.0094 10.9622 20.9695C12.3094 20.9231 13.8424 19.9011 15.0967 18.7861Z" fill="url(#paint9_linear_2451_111079)"/>
<path id="Vector_43" d="M24.9917 22.0399C24.7416 22.2248 24.4526 22.3503 24.1467 22.4066C23.8408 22.463 23.526 22.4488 23.2264 22.3651V22.1792C23.221 21.7207 23.1426 21.2659 22.9941 20.832C23.5656 21.3734 24.2469 21.7854 24.9917 22.0399Z" fill="url(#paint10_linear_2451_111079)"/>
<path id="Vector_44" d="M22.2978 19.5297C22.1742 19.3861 22.0652 19.2305 21.9727 19.0651L22.623 18.9258H22.7159C23.6451 19.6691 25.0387 20.8305 26.6182 21.2021C26.3869 21.4801 26.0718 21.6756 25.72 21.7593C25.3683 21.8431 24.9988 21.8106 24.6671 21.6667C23.8266 21.2533 23.0947 20.6487 22.5301 19.9014L22.2978 19.5297Z" fill="url(#paint11_linear_2451_111079)"/>
<path id="Vector_45" d="M25.7822 17.4392L26.1074 17.2534C27.083 16.5566 27.6869 16.0456 27.6869 16.0456C30.3842 15.2816 33.0364 14.3666 35.6308 13.3047C35.6308 13.3047 35.6308 16.7889 32.4718 17.3463C30.245 17.4902 28.0122 17.5212 25.7822 17.4392Z" fill="url(#paint12_linear_2451_111079)"/>
<path id="Vector_46" d="M27.5472 15.8133C27.5472 15.8133 24.9921 18.3219 21.7867 18.833C21.538 18.5198 21.3054 18.1942 21.0898 17.8574C23.8307 17.5787 25.5496 16.0456 26.6645 14.8842C27.0613 14.4796 27.5152 14.1353 28.0117 13.8622L37.721 7.68359H37.6745C37.6745 7.68359 38.232 11.6788 35.6305 12.9331L35.3517 13.026C32.8125 14.1211 30.2057 15.0522 27.5472 15.8133Z" fill="url(#paint13_linear_2451_111079)"/>
<path id="Vector_47" d="M25.4569 17.6719C27.0828 17.7648 29.2662 17.7648 32.1465 17.6719H32.1C31.881 18.2999 31.4512 18.8328 30.8839 19.18C30.3165 19.5272 29.6465 19.6673 28.9875 19.5766C27.3641 19.3466 25.7736 18.9255 24.249 18.3223C24.6744 18.1506 25.0794 17.9325 25.4569 17.6719Z" fill="url(#paint14_linear_2451_111079)"/>
<path id="Vector_48" d="M23.041 18.7861L23.9701 18.4609C25.5882 19.1132 27.2696 19.5958 28.9873 19.9011C28.8399 20.25 28.5842 20.5422 28.258 20.7346C27.9317 20.927 27.5522 21.0094 27.1756 20.9695C25.8284 20.9231 24.2953 19.9011 23.041 18.7861Z" fill="url(#paint15_linear_2451_111079)"/>
<path id="Vector_49" d="M22.9011 22.18C22.9011 22.9426 22.675 23.6881 22.2513 24.3222C21.8276 24.9563 21.2254 25.4505 20.5208 25.7424C19.8163 26.0342 19.041 26.1106 18.293 25.9618C17.5451 25.813 16.858 25.4458 16.3188 24.9065C15.7796 24.3673 15.4123 23.6802 15.2635 22.9323C15.1148 22.1843 15.1911 21.409 15.483 20.7045C15.7748 19.9999 16.269 19.3977 16.9031 18.974C17.5372 18.5504 18.2827 18.3242 19.0453 18.3242C19.5516 18.3242 20.053 18.424 20.5208 18.6177C20.9886 18.8115 21.4137 19.0955 21.7718 19.4536C22.1298 19.8116 22.4138 20.2367 22.6076 20.7045C22.8014 21.1723 22.9011 21.6737 22.9011 22.18Z" fill="url(#paint16_linear_2451_111079)"/>
<path id="Vector_50" d="M19.0458 19.2532C18.9802 19.2421 18.9207 19.208 18.8781 19.1568C18.8355 19.1057 18.8126 19.041 18.8135 18.9745C18.8135 18.9129 18.838 18.8538 18.8815 18.8102C18.9251 18.7667 18.9842 18.7422 19.0458 18.7422C19.1123 18.7413 19.177 18.7642 19.2281 18.8068C19.2792 18.8494 19.3134 18.9089 19.3245 18.9745C19.3245 19.0484 19.2951 19.1193 19.2429 19.1716C19.1906 19.2239 19.1197 19.2532 19.0458 19.2532Z" fill="#001A60"/>
<path id="Vector_51" d="M21.3227 20.1829C21.2488 20.1829 21.1779 20.1536 21.1256 20.1013C21.0733 20.049 21.0439 19.9781 21.0439 19.9042C21.055 19.8386 21.0892 19.7791 21.1403 19.7365C21.1915 19.6939 21.2561 19.671 21.3227 19.6719C21.3843 19.6719 21.4434 19.6964 21.4869 19.7399C21.5305 19.7835 21.555 19.8426 21.555 19.9042C21.5559 19.9707 21.533 20.0354 21.4904 20.0865C21.4478 20.1376 21.3883 20.1718 21.3227 20.1829Z" fill="#001A60"/>
<path id="Vector_52" d="M22.2514 22.4134C22.1849 22.4143 22.1202 22.3914 22.0691 22.3488C22.0179 22.3062 21.9837 22.2467 21.9727 22.1811C21.9727 22.1072 22.002 22.0363 22.0543 21.984C22.1066 21.9317 22.1775 21.9023 22.2514 21.9023C22.317 21.9134 22.3765 21.9476 22.4191 21.9987C22.4617 22.0499 22.4846 22.1145 22.4837 22.1811C22.4837 22.2427 22.4592 22.3018 22.4156 22.3453C22.3721 22.3889 22.313 22.4134 22.2514 22.4134Z" fill="#001A60"/>
<path id="Vector_53" d="M21.3227 24.6868C21.2488 24.6868 21.1779 24.6575 21.1256 24.6052C21.0733 24.5529 21.0439 24.482 21.0439 24.4081C21.055 24.3425 21.0892 24.283 21.1403 24.2404C21.1915 24.1978 21.2561 24.1749 21.3227 24.1758C21.3843 24.1758 21.4434 24.2003 21.4869 24.2438C21.5305 24.2874 21.555 24.3465 21.555 24.4081C21.5559 24.4746 21.533 24.5393 21.4904 24.5904C21.4478 24.6415 21.3883 24.6757 21.3227 24.6868Z" fill="#001A60"/>
<path id="Vector_54" d="M19.0458 25.6165C18.9802 25.6054 18.9207 25.5712 18.8781 25.5201C18.8355 25.469 18.8126 25.4043 18.8135 25.3378C18.8135 25.2762 18.838 25.2171 18.8815 25.1735C18.9251 25.13 18.9842 25.1055 19.0458 25.1055C19.1123 25.1046 19.177 25.1275 19.2281 25.1701C19.2792 25.2127 19.3134 25.2722 19.3245 25.3378C19.3245 25.4117 19.2951 25.4826 19.2429 25.5349C19.1906 25.5871 19.1197 25.6165 19.0458 25.6165Z" fill="#001A60"/>
<path id="Vector_55" d="M16.8158 24.6868C16.7419 24.6868 16.671 24.6575 16.6187 24.6052C16.5665 24.5529 16.5371 24.482 16.5371 24.4081C16.5482 24.3425 16.5824 24.283 16.6335 24.2404C16.6846 24.1978 16.7493 24.1749 16.8158 24.1758C16.8774 24.1758 16.9365 24.2003 16.9801 24.2438C17.0236 24.2874 17.0481 24.3465 17.0481 24.4081C17.0491 24.4746 17.0261 24.5393 16.9835 24.5904C16.9409 24.6415 16.8815 24.6757 16.8158 24.6868Z" fill="#001A60"/>
<path id="Vector_56" d="M15.8871 22.4134C15.8206 22.4143 15.7559 22.3914 15.7048 22.3488C15.6537 22.3062 15.6195 22.2467 15.6084 22.1811C15.6084 22.1072 15.6378 22.0363 15.69 21.984C15.7423 21.9317 15.8132 21.9023 15.8871 21.9023C15.9527 21.9134 16.0122 21.9476 16.0548 21.9987C16.0974 22.0499 16.1203 22.1145 16.1194 22.1811C16.1194 22.2427 16.0949 22.3018 16.0514 22.3453C16.0078 22.3889 15.9487 22.4134 15.8871 22.4134Z" fill="#001A60"/>
<path id="Vector_57" d="M16.8158 20.1829C16.7419 20.1829 16.671 20.1536 16.6187 20.1013C16.5665 20.049 16.5371 19.9781 16.5371 19.9042C16.5482 19.8386 16.5824 19.7791 16.6335 19.7365C16.6846 19.6939 16.7493 19.671 16.8158 19.6719C16.8774 19.6719 16.9365 19.6964 16.9801 19.7399C17.0236 19.7835 17.0481 19.8426 17.0481 19.9042C17.0491 19.9707 17.0261 20.0354 16.9835 20.0865C16.9409 20.1376 16.8815 20.1718 16.8158 20.1829Z" fill="#001A60"/>
<path id="Vector_58" d="M21.6008 22.2265C21.5885 22.9042 21.3075 23.5492 20.8196 24.0196C20.3317 24.4901 19.6769 24.7474 18.9993 24.7351C18.3216 24.7228 17.6766 24.4418 17.2062 23.9539C16.7357 23.466 16.4783 22.8113 16.4907 22.1336C16.5147 21.4599 16.7994 20.8218 17.2847 20.3538C17.77 19.8859 18.418 19.6246 19.0922 19.625C19.4296 19.6248 19.7636 19.6926 20.0741 19.8244C20.3847 19.9563 20.6655 20.1494 20.8997 20.3923C21.1339 20.6352 21.3167 20.9228 21.4372 21.238C21.5576 21.5531 21.6133 21.8893 21.6008 22.2265Z" fill="url(#paint17_radial_2451_111079)"/>
<path id="Vector_59" d="M21.0438 22.4575C21.0438 21.2961 20.3005 20.6457 19.6501 20.6457C19.528 20.6329 19.4046 20.6444 19.2869 20.6796C19.1693 20.7147 19.0598 20.7729 18.9647 20.8506C18.8697 20.9284 18.791 21.0242 18.7332 21.1326C18.6755 21.2409 18.6397 21.3597 18.6281 21.4819C18.6328 21.624 18.6737 21.7626 18.7468 21.8845C18.82 22.0065 18.923 22.1077 19.0462 22.1787C19.1677 22.1137 19.3033 22.0796 19.4411 22.0796C19.5789 22.0796 19.7145 22.1137 19.836 22.1787C20.0275 22.3187 20.1582 22.5265 20.2014 22.7597C20.2446 22.9929 20.1969 23.2338 20.0682 23.4331C19.6966 23.9905 18.7675 24.3157 17.7455 23.7118C17.4636 23.5397 17.2276 23.3019 17.0577 23.0188C16.8878 22.7356 16.7891 22.4155 16.7699 22.0858C16.7509 22.3963 16.7956 22.7073 16.9015 22.9998C17.0073 23.2923 17.172 23.56 17.3853 23.7863C17.5986 24.0127 17.856 24.1929 18.1417 24.3159C18.4273 24.439 18.7352 24.5021 19.0462 24.5015C19.4067 24.5098 19.7618 24.4129 20.0682 24.2228C20.3762 24.0453 20.6299 23.7871 20.8018 23.476C20.9738 23.1649 21.0574 22.8127 21.0438 22.4575Z" fill="url(#paint18_linear_2451_111079)"/>
<path id="Vector_60" d="M17.7911 23.7591C18.8132 24.3166 19.7887 23.9914 20.1139 23.3875C20.2273 23.1801 20.2615 22.9387 20.2102 22.708C20.159 22.4773 20.0257 22.273 19.8352 22.1332C19.7111 22.0708 19.5727 22.0422 19.4341 22.0504C19.2954 22.0586 19.1614 22.1031 19.0454 22.1796C19.0421 22.316 19.0014 22.4488 18.9276 22.5635C18.8539 22.6782 18.75 22.7704 18.6273 22.83C18.4108 22.9281 18.1648 22.9394 17.9401 22.8617C17.7154 22.7839 17.5291 22.6229 17.4195 22.4119C17.0943 21.808 17.2801 20.8324 18.3486 20.275C18.6332 20.1019 18.9565 20.0028 19.2891 19.9866C19.6218 19.9703 19.9532 20.0375 20.2533 20.182C19.9868 20.0164 19.6895 19.9065 19.3793 19.8589C19.0691 19.8113 18.7526 19.8271 18.4486 19.9052C18.1447 19.9834 17.8598 20.1223 17.6111 20.3136C17.3623 20.5049 17.1549 20.7446 17.0014 21.0182C16.8182 21.3276 16.7219 21.6807 16.7227 22.0403C16.7448 22.3928 16.8541 22.7343 17.0405 23.0342C17.227 23.3342 17.4849 23.5832 17.7911 23.7591Z" fill="url(#paint19_radial_2451_111079)"/>
<path id="Vector_61" d="M18.3022 20.2763C17.2801 20.8802 17.0943 21.8558 17.4195 22.4132C17.5378 22.6285 17.7298 22.7939 17.9601 22.8792C18.1904 22.9645 18.4438 22.964 18.6738 22.8778C18.7856 22.7985 18.8774 22.6942 18.9419 22.5733C19.0064 22.4523 19.0419 22.318 19.0454 22.181C18.9309 22.1044 18.837 22.0008 18.7722 21.8792C18.7073 21.7576 18.6735 21.6219 18.6738 21.4841C18.6795 21.3639 18.7096 21.2461 18.7625 21.138C18.8153 21.0299 18.8897 20.9337 18.9811 20.8554C19.0724 20.7771 19.1788 20.7183 19.2938 20.6826C19.4087 20.6469 19.5297 20.6351 19.6494 20.6479C20.2997 20.6479 21.0895 21.3448 21.043 22.5062C21.0377 22.8347 20.955 23.1573 20.8016 23.4479C20.6483 23.7384 20.4286 23.9888 20.1604 24.1786C20.7068 23.8749 21.1111 23.3676 21.2851 22.7672C21.4591 22.1668 21.3888 21.5219 21.0895 20.9731C20.9031 20.6708 20.6486 20.4162 20.3462 20.2298C20.0288 20.0661 19.6753 19.9846 19.3183 19.9927C18.9612 20.0009 18.6118 20.0983 18.3022 20.2763Z" fill="url(#paint20_radial_2451_111079)"/>
<path id="Vector_62" d="M23.2266 22.3634C23.5262 22.4471 23.8409 22.4613 24.1468 22.405C24.4527 22.3486 24.7418 22.2232 24.9919 22.0382L24.7596 21.9453C24.5323 22.0844 24.2778 22.173 24.0133 22.205C23.7488 22.2371 23.4805 22.2119 23.2266 22.1311V22.3634Z" fill="#E49D00"/>
<path id="Vector_63" d="M35.6302 12.933C36.0647 12.7064 36.4466 12.3906 36.7508 12.0064C37.0549 11.6221 37.2746 11.1781 37.3955 10.7031C37.0687 11.405 36.5334 11.9891 35.8625 12.3755C35.8625 12.3755 34.0972 13.5369 27.5469 15.4881C27.5469 15.4881 24.4808 18.4148 21.6006 18.6006L21.7864 18.8329C24.9919 18.3219 27.5469 15.8133 27.5469 15.8133C30.2054 15.0521 32.8123 14.1211 35.3515 13.0259L35.6302 12.933Z" fill="#E49D00"/>
<path id="Vector_64" d="M32.4718 17.069C30.3813 17.2084 27.8727 17.2549 26.2003 17.2084H26.1074L25.7822 17.3942C28.0122 17.4762 30.245 17.4452 32.4718 17.3013C32.9896 17.2315 33.4846 17.0446 33.9193 16.7548C34.354 16.465 34.7169 16.08 34.9805 15.6289C34.3661 16.4201 33.4649 16.9375 32.4718 17.069Z" fill="#E49D00"/>
<path id="Vector_65" d="M29.1269 19.2985C27.5649 19.0586 26.0262 18.6856 24.5278 18.1836L24.249 18.323C25.7736 18.9263 27.3641 19.3473 28.9875 19.5773C29.4848 19.6708 29.9986 19.6199 30.4679 19.4305C30.9371 19.2412 31.3423 18.9213 31.6355 18.5088C31.3079 18.827 30.9105 19.0642 30.4749 19.2013C30.0393 19.3384 29.5776 19.3717 29.1269 19.2985Z" fill="#E49D00"/>
<path id="Vector_66" d="M27.2685 20.7394C25.6425 20.6 23.9701 19.2992 23.2733 18.6953L23.041 18.7882C24.2953 19.9032 25.8284 20.9252 27.1756 20.9716C27.4867 20.9903 27.7977 20.9322 28.0812 20.8026C28.3647 20.673 28.612 20.4758 28.8015 20.2284C28.603 20.4264 28.3612 20.5756 28.0951 20.6642C27.8291 20.7529 27.5461 20.7786 27.2685 20.7394Z" fill="#E49D00"/>
<path id="Vector_67" d="M24.8994 21.4352C23.8309 21.0636 22.8553 19.9951 22.2049 19.0195H21.9727L22.3443 19.577C22.3908 19.6235 22.3908 19.6699 22.4372 19.6699C23.0068 20.4837 23.7742 21.1392 24.6671 21.5746C24.9303 21.6901 25.2195 21.7338 25.5051 21.7012C25.7908 21.6685 26.0626 21.5607 26.293 21.3888H26.3395C25.8841 21.5922 25.367 21.6089 24.8994 21.4352Z" fill="#E49D00"/>
<path id="Vector_68" d="M26.8039 15.1165C27.1785 14.7068 27.618 14.3615 28.1047 14.0945C32.1463 11.4 34.6085 10.0993 37.721 8.00878C37.7285 7.89833 37.7126 7.78754 37.6745 7.68359H37.721L32.4715 11.0284L28.0117 13.8622C27.5152 14.1353 27.0613 14.4796 26.6645 14.8842C25.5496 16.0456 23.8307 17.5787 21.0898 17.8574L21.2292 18.0432C22.1583 17.9968 24.3882 17.5787 26.8039 15.1165Z" fill="#FFF4CD"/>
<path id="Vector_69" d="M27.6865 16.0456L27.3613 16.3243C30.1684 15.6228 32.9174 14.7065 35.584 13.5834C35.6096 13.4925 35.6251 13.399 35.6304 13.3047C33.036 14.3666 30.3838 15.2816 27.6865 16.0456Z" fill="#FFF4CD"/>
<path id="Vector_70" d="M32.146 17.6719C29.2657 17.7648 27.0823 17.7648 25.4563 17.6719L25.2705 17.7648C27.5282 17.9218 29.7934 17.9373 32.053 17.8112V17.6719H32.146Z" fill="#FFF4CD"/>
<path id="Vector_71" d="M23.97 18.4609H23.7842C25.4244 19.2065 27.1596 19.7224 28.9408 19.994V19.8546C27.2405 19.5613 25.5749 19.0943 23.97 18.4609Z" fill="#FFF4CD"/>
<path id="Vector_72" d="M26.6178 21.1591C25.0383 20.7875 23.6447 19.6261 22.7155 18.8828H22.5762C24.1557 20.3694 25.5029 21.0198 26.4785 21.2056L26.6178 21.1591Z" fill="#FFF4CD"/>
<path id="Vector_73" d="M14.9108 22.3634C14.6112 22.4471 14.2965 22.4613 13.9906 22.405C13.6846 22.3486 13.3956 22.2232 13.1455 22.0382L13.3778 21.9453C13.6051 22.0844 13.8596 22.173 14.1241 22.205C14.3886 22.2371 14.6569 22.2119 14.9108 22.1311V22.3634Z" fill="#E49D00"/>
<path id="Vector_74" d="M2.50708 12.933C2.07222 12.7002 1.68806 12.3831 1.377 12.0002C1.06594 11.6174 0.834209 11.1764 0.695312 10.7031C1.05508 11.3973 1.60229 11.9767 2.27481 12.3755C2.27481 12.3755 4.04012 13.5369 10.5904 15.4881C10.5904 15.4881 13.6565 18.4148 16.5367 18.6006L16.3509 18.8329C13.1454 18.3219 10.5904 15.8133 10.5904 15.8133C7.91692 15.0516 5.29462 14.1206 2.73936 13.0259L2.50708 12.933Z" fill="#E49D00"/>
<path id="Vector_75" d="M5.62036 17.069C7.71086 17.2084 10.2659 17.2549 11.9383 17.2084H12.0312L12.31 17.3942C10.08 17.4759 7.84724 17.4449 5.62036 17.3013C5.11087 17.2249 4.62507 17.0349 4.1989 16.7454C3.77272 16.4559 3.41706 16.0743 3.1582 15.6289C3.76144 16.4097 4.6441 16.926 5.62036 17.069Z" fill="#E49D00"/>
<path id="Vector_76" d="M9.01154 19.2985C10.5725 19.0533 12.1107 18.6804 13.6107 18.1836L13.8894 18.323C12.3506 18.9319 10.7441 19.3531 9.10445 19.5773C8.61402 19.6672 8.10808 19.6143 7.64686 19.4249C7.18564 19.2354 6.78857 18.9175 6.50293 18.5088C6.82612 18.8334 7.22317 19.0748 7.66007 19.2123C8.09697 19.3498 8.5607 19.3794 9.01154 19.2985Z" fill="#E49D00"/>
<path id="Vector_77" d="M10.8695 20.7394C12.4955 20.6 14.1679 19.2992 14.8647 18.6953L15.097 18.7882C13.8427 19.9032 12.3097 20.9252 10.9624 20.9716C10.6513 20.9903 10.3403 20.9322 10.0568 20.8026C9.77335 20.673 9.526 20.4758 9.33649 20.2284H9.29004C9.49954 20.4244 9.74971 20.5719 10.0227 20.6602C10.2957 20.7485 10.5849 20.7756 10.8695 20.7394Z" fill="#E49D00"/>
<path id="Vector_78" d="M13.239 21.4352C14.261 21.0636 15.283 19.9951 15.9334 19.0195H16.1657L15.794 19.577C15.7476 19.6235 15.7476 19.6699 15.7011 19.6699C15.1214 20.4746 14.3566 21.1279 13.4712 21.5746C13.208 21.6901 12.9188 21.7338 12.6332 21.7012C12.3475 21.6685 12.0757 21.5607 11.8453 21.3888H11.7988C12.2543 21.5922 12.7713 21.6089 13.239 21.4352Z" fill="#E49D00"/>
<path id="Vector_79" d="M11.3341 15.1165C10.949 14.7182 10.5114 14.3744 10.0333 14.0945C5.99168 11.4 3.52952 10.0993 0.416992 8.00878V7.68359L5.66649 11.0284L10.1262 13.8622C10.6129 14.1293 11.0524 14.4746 11.427 14.8842C12.5884 16.0456 14.3072 17.5787 17.0481 17.8574L16.9088 18.0432C15.9797 17.9968 13.7498 17.5787 11.3341 15.1165Z" fill="#FFF4CD"/>
<path id="Vector_80" d="M10.4517 16.0456L10.7769 16.3243C7.95649 15.6167 5.19252 14.7005 2.50781 13.5834V13.3047C5.10229 14.3666 7.75446 15.2816 10.4517 16.0456Z" fill="#FFF4CD"/>
<path id="Vector_81" d="M5.99219 17.6719C8.87244 17.7648 11.0559 17.7648 12.6818 17.6719L12.8676 17.7648C10.61 17.9218 8.3447 17.9373 6.0851 17.8112L5.99219 17.6719Z" fill="#FFF4CD"/>
<path id="Vector_82" d="M14.168 18.4609H14.3538C12.7114 19.2005 10.977 19.7162 9.19727 19.994V19.8546C10.8975 19.5613 12.5631 19.0943 14.168 18.4609Z" fill="#FFF4CD"/>
<path id="Vector_83" d="M11.5195 21.1591C13.099 20.7875 14.4927 19.6261 15.3754 18.8828H15.5612C13.9817 20.3694 12.6345 21.0198 11.6124 21.2056L11.5195 21.1591Z" fill="#FFF4CD"/>
<path id="Vector_84" d="M24.0627 26.2231L24.1557 25.9908C23.3731 25.9086 22.6469 25.5455 22.1116 24.9688C22.0744 25.0513 22.0083 25.1173 21.9258 25.1546C22.4795 25.7653 23.2419 26.1465 24.0627 26.2231Z" fill="#FFF4CD"/>
<path id="Vector_85" d="M22.1589 28.2173C21.5842 27.5385 21.157 26.7474 20.9046 25.8945L20.7188 25.9874C20.8117 26.4055 21.2762 27.9386 22.0195 28.5425C22.0322 28.5617 22.0495 28.5774 22.0697 28.5883C22.09 28.5991 22.1127 28.6048 22.1356 28.6048C22.1586 28.6048 22.1813 28.5991 22.2016 28.5883C22.2218 28.5774 22.2391 28.5617 22.2518 28.5425L22.4376 28.3567L22.1589 28.2173Z" fill="#E49D00"/>
<path id="Vector_86" d="M23.1338 22.8287C23.8144 23.0243 24.5436 22.958 25.1778 22.6429H25.2243V22.457C24.8694 22.6583 24.4707 22.7699 24.0629 22.7822H23.1802C23.1666 22.7995 23.1511 22.8151 23.1338 22.8287Z" fill="#FFF4CD"/>
<path id="Vector_87" d="M24.249 25.43C23.5678 25.3646 22.9289 25.0697 22.4372 24.5938L22.2979 24.7796C22.801 25.2814 23.4528 25.6072 24.1561 25.7087L24.3884 25.5693C24.4348 25.5229 24.4348 25.43 24.4813 25.3835L24.249 25.43Z" fill="#E49D00"/>
<path id="Vector_88" d="M21.88 28.9158C21.5548 28.6371 20.9509 27.9867 20.3934 26.082L20.1611 26.1749C20.858 28.8229 21.88 28.9158 21.88 28.9158Z" fill="#FFF4CD"/>
<path id="Vector_89" d="M19.8361 29.7033C19.7432 28.9601 19.6502 27.1018 19.6502 26.2656H19.418C19.418 26.5444 19.4644 29.4246 19.5573 30.2144H19.6038C20.3748 29.8468 21.0935 29.3781 21.7408 28.8207C21.2556 29.2791 20.6882 29.6416 20.0683 29.8892C20.0219 29.8892 19.8361 29.9356 19.8361 29.7033Z" fill="#E49D00"/>
<path id="Vector_90" d="M14.0753 26.2231C14.0184 26.1587 13.9856 26.0766 13.9824 25.9908C14.7593 25.8896 15.4794 25.5295 16.0265 24.9688L16.1658 25.1546C15.6352 25.77 14.8849 26.1534 14.0753 26.2231Z" fill="#FFF4CD"/>
<path id="Vector_91" d="M15.9795 28.2173C16.5422 27.5374 16.9539 26.7457 17.1873 25.8945L17.4196 25.9874C17.2802 26.4055 16.8621 27.9386 16.1189 28.5425C16.1061 28.5617 16.0889 28.5774 16.0686 28.5883C16.0484 28.5991 16.0257 28.6048 16.0027 28.6048C15.9797 28.6048 15.9571 28.5991 15.9368 28.5883C15.9165 28.5774 15.8993 28.5617 15.8866 28.5425L15.6543 28.3567L15.9795 28.2173Z" fill="#E49D00"/>
<path id="Vector_92" d="M14.9581 22.8287C14.2767 23.0155 13.5506 22.9495 12.9141 22.6429V22.457C13.2545 22.6528 13.6367 22.7643 14.029 22.7822H14.9581V22.8287Z" fill="#FFF4CD"/>
<path id="Vector_93" d="M13.8895 25.43C14.5707 25.3646 15.2096 25.0697 15.7013 24.5938L15.8406 24.7796C15.3375 25.2814 14.6857 25.6072 13.9824 25.7087C13.934 25.7127 13.8855 25.7014 13.8439 25.6764C13.8022 25.6514 13.7694 25.6139 13.7501 25.5693C13.7037 25.5229 13.7037 25.43 13.6572 25.3835L13.8895 25.43Z" fill="#E49D00"/>
<path id="Vector_94" d="M16.2588 28.9158C16.584 28.6371 17.1879 27.9867 17.7454 26.082L17.9312 26.1749C17.2808 28.8229 16.2588 28.9158 16.2588 28.9158Z" fill="#FFF4CD"/>
<path id="Vector_95" d="M18.3021 29.7033C18.3951 28.9601 18.4415 27.1018 18.488 26.2656H18.6738C18.6738 26.5444 18.6738 29.4246 18.5809 30.2144C18.5686 30.2144 18.5567 30.2193 18.548 30.228C18.5393 30.2367 18.5344 30.2485 18.5344 30.2608C17.7564 29.9058 17.0361 29.436 16.3975 28.8671C16.8975 29.2593 17.464 29.5583 18.0699 29.7498C18.1163 29.8892 18.3021 29.9356 18.3021 29.7033Z" fill="#E49D00"/>
<path id="Vector_96" d="M17.745 17.3007C18.0207 16.7724 18.1338 16.1743 18.0702 15.5818C18.0238 15.5818 17.0947 15.1637 17.1411 15.6283C17.1876 16.0928 16.8159 15.0244 17.234 14.8385C17.4349 14.7861 17.6475 14.8025 17.838 14.885L18.3025 14.9779C18.5136 14.807 18.7744 14.7092 19.0458 14.6992C18.673 14.5631 18.2669 14.5468 17.8844 14.6527C18.0702 14.0952 18.5813 14.0952 19.0458 14.1882C19.3169 14.291 19.5968 14.3688 19.882 14.4204C20.103 14.4656 20.3329 14.4328 20.5324 14.3275C20.5739 14.3993 20.5954 14.4809 20.5948 14.5638C20.5941 14.6467 20.5712 14.728 20.5286 14.7991C20.4859 14.8702 20.425 14.9286 20.3521 14.9682C20.2793 15.0078 20.1972 15.0272 20.1143 15.0244C20.1143 15.0244 20.0214 16.6968 20.4859 17.533C20.7297 17.9587 21.0094 18.3628 21.3221 18.7408C20.6582 18.2874 19.873 18.0449 19.069 18.0449C18.2651 18.0449 17.4798 18.2874 16.8159 18.7408C17.0482 18.3692 17.6057 17.5794 17.745 17.3007ZM38.0927 7.40562C38.0927 6.89461 37.7675 7.12689 37.7675 7.12689C34.1439 9.58904 29.1267 12.748 27.6401 13.6771C27.057 14.0915 26.5128 14.5579 26.0142 15.0708C23.4591 17.6259 20.9505 17.533 20.904 17.533C20.8576 17.533 20.4395 15.2102 20.4395 15.2102C21.2292 14.9314 20.7182 13.8165 20.7182 13.8165C20.5876 13.9485 20.4221 14.0404 20.241 14.0816C20.06 14.1227 19.871 14.1113 19.6962 14.0488C19.4938 13.9444 19.2728 13.8812 19.0458 13.863C17.6986 13.6771 17.5592 14.5598 17.5592 14.5598C17.3928 14.5134 17.2151 14.5306 17.0606 14.6078C16.9061 14.6851 16.7858 14.817 16.723 14.9779C16.5372 15.6283 17.234 15.9535 17.234 15.9535L17.7915 15.8141C17.7885 16.431 17.5937 17.0317 17.234 17.533C17.0947 17.533 14.6325 17.5794 12.0775 15.0708C11.5899 14.5463 11.0444 14.0788 10.4515 13.6771C9.01138 12.748 3.99416 9.58904 0.324159 7.12689C0.324159 7.12689 0.0454249 6.89461 0.0454249 7.40562C-0.140398 9.6355 0.184792 11.9583 2.13593 13.1661C2.13593 13.1661 1.90365 16.929 5.62011 17.6723C5.62011 17.6723 6.40986 19.9951 8.82555 19.9022C8.96138 20.2239 9.17088 20.5092 9.43715 20.7352C9.70343 20.9611 10.0191 21.1213 10.3586 21.203C10.6504 21.2561 10.9494 21.2561 11.2413 21.203C11.3606 21.4386 11.5388 21.6394 11.7585 21.7859C11.9783 21.9324 12.2322 22.0196 12.4956 22.0392C12.6309 24.0164 13.3158 25.9165 14.4732 27.5252C15.6305 29.134 17.2142 30.3875 19.0458 31.1445C25.5961 28.2642 25.6425 22.0392 25.6425 22.0392C25.9004 22.021 26.1486 21.9338 26.3611 21.7867C26.5736 21.6395 26.7426 21.4379 26.8504 21.203C27.1577 21.2568 27.4721 21.2568 27.7795 21.203C28.119 21.1213 28.4346 20.9611 28.7009 20.7352C28.9672 20.5092 29.1767 20.2239 29.3125 19.9022C31.7282 19.9951 32.518 17.6723 32.518 17.6723C36.2344 16.929 36.0021 13.1661 36.0021 13.1661C37.9533 11.9583 38.2785 9.6355 38.0927 7.40562ZM0.417071 7.68436L10.1263 13.863C10.613 14.13 11.0524 14.4753 11.4271 14.885C12.5885 16.0464 14.3073 17.5794 17.0482 17.8582L16.3514 18.8337C13.1459 18.3227 10.5909 15.8141 10.5909 15.8141C7.91741 15.0524 5.29511 14.1214 2.73986 13.0268L2.50758 12.9339C-0.093942 11.6795 0.417071 7.68436 0.417071 7.68436ZM2.50758 13.3055C5.10206 14.3674 7.75422 15.2824 10.4515 16.0464C10.4515 16.0464 11.0554 16.5574 12.031 17.2542L12.3097 17.4401C10.0797 17.5218 7.847 17.4908 5.62011 17.3471C2.50758 16.7897 2.50758 13.3055 2.50758 13.3055ZM5.99176 17.6723C8.87201 17.7652 11.0554 17.7652 12.6814 17.6723C13.0588 17.933 13.4639 18.1511 13.8892 18.3227C12.3505 18.9317 10.7439 19.3528 9.10429 19.577C8.44645 19.659 7.78029 19.5152 7.21484 19.1691C6.64939 18.8231 6.21817 18.2954 5.99176 17.6723ZM10.9625 20.9707C10.5859 21.0105 10.2064 20.9281 9.88012 20.7357C9.55387 20.5433 9.29815 20.2511 9.15074 19.9022C10.8684 19.597 12.5499 19.1143 14.168 18.4621L15.0971 18.7873C13.8428 19.9022 12.3097 20.9242 10.9625 20.9707ZM11.52 21.1565C13.0995 20.7849 14.4931 19.6235 15.3758 18.8802H15.5152L16.1656 19.0196C16.073 19.1849 15.964 19.3405 15.8404 19.4841L15.6081 19.8093C15.033 20.5465 14.3037 21.149 13.4711 21.5746C13.1441 21.7238 12.7778 21.7637 12.4264 21.6884C12.0749 21.6131 11.7571 21.4266 11.52 21.1565ZM14.9113 22.3644C14.6117 22.4481 14.2969 22.4623 13.991 22.4059C13.6851 22.3496 13.396 22.2241 13.1459 22.0392C13.8908 21.7846 14.5721 21.3727 15.1435 20.8313C14.9951 21.2652 14.9167 21.72 14.9113 22.1785V22.3644ZM13.7499 25.5698C13.3135 24.63 13.0312 23.6261 12.9137 22.5966V22.4108C13.5242 22.7415 14.2336 22.8404 14.9113 22.6895C15.0044 23.4776 15.3276 24.2209 15.8404 24.8265C15.3299 25.318 14.6816 25.6421 13.9821 25.7556C13.9278 25.7567 13.8748 25.7387 13.8323 25.7048C13.7899 25.6708 13.7607 25.6231 13.7499 25.5698ZM16.1191 28.543C16.1017 28.5627 16.0802 28.5786 16.0562 28.5894C16.0322 28.6003 16.0061 28.6059 15.9797 28.6059C15.9534 28.6059 15.9273 28.6003 15.9033 28.5894C15.8792 28.5786 15.8578 28.5627 15.8404 28.543C15.0796 27.8036 14.4511 26.9394 13.9821 25.9879C14.759 25.8867 15.4791 25.5267 16.0262 24.9659C16.3947 25.4212 16.8748 25.7733 17.4199 25.9879C17.2805 26.406 16.8624 27.939 16.1191 28.543ZM18.6742 26.6383C18.6742 27.5209 18.6742 29.9831 18.5348 30.4012C17.7137 30.0083 16.9483 29.5084 16.2585 28.9146C16.5837 28.6823 17.1876 27.9855 17.745 26.1273L18.6742 26.3131V26.6383ZM19.0458 26.0344C18.2832 26.0344 17.5377 25.8082 16.9036 25.3845C16.2695 24.9609 15.7753 24.3587 15.4835 23.6541C15.1917 22.9495 15.1153 22.1743 15.2641 21.4263C15.4129 20.6783 15.7801 19.9913 16.3193 19.4521C16.8586 18.9128 17.5456 18.5456 18.2936 18.3968C19.0415 18.248 19.8168 18.3244 20.5214 18.6162C21.2259 18.9081 21.8281 19.4023 22.2518 20.0364C22.6755 20.6704 22.9016 21.4159 22.9016 22.1785C22.9016 23.2012 22.4954 24.1819 21.7723 24.905C21.0492 25.6281 20.0684 26.0344 19.0458 26.0344ZM19.6033 30.4012C19.4639 29.9831 19.4639 27.5209 19.4175 26.6383V26.3131C19.7533 26.2906 20.0831 26.2121 20.393 26.0808C20.9505 27.9855 21.5544 28.6359 21.8796 28.9146C21.1898 29.5084 20.4243 30.0083 19.6033 30.4012ZM22.2513 28.543C22.2385 28.5621 22.2213 28.5779 22.201 28.5887C22.1808 28.5996 22.1581 28.6053 22.1351 28.6053C22.1121 28.6053 22.0895 28.5996 22.0692 28.5887C22.0489 28.5779 22.0317 28.5621 22.019 28.543C21.2757 27.939 20.8111 26.406 20.7182 25.9879C21.2533 25.7557 21.7296 25.4064 22.1119 24.9659C22.6471 25.5426 23.3734 25.9058 24.1559 25.9879C23.6868 26.9515 23.0407 27.8182 22.2513 28.543ZM25.2244 22.5502C25.085 23.5752 24.8035 24.5759 24.3882 25.5233L24.1559 25.6627C23.4526 25.5613 22.8009 25.2354 22.2977 24.7336C22.7786 24.1135 23.0835 23.3753 23.1804 22.5966C23.8735 22.7426 24.5957 22.6441 25.2244 22.3179V22.5502ZM22.9945 20.8313C23.5517 21.3912 24.2376 21.8059 24.9921 22.0392C24.742 22.2241 24.453 22.3496 24.1471 22.4059C23.8412 22.4623 23.5264 22.4481 23.2268 22.3644V22.1785C23.2214 21.72 23.143 21.2652 22.9945 20.8313ZM24.6669 21.6211C23.7741 21.1857 23.0067 20.5302 22.4371 19.7164C22.3906 19.7164 22.3906 19.6699 22.3442 19.6235L21.9725 19.066L22.6229 18.9266H22.7158C23.6449 19.6699 25.0386 20.8313 26.6181 21.203C26.381 21.4731 26.0631 21.6596 25.7117 21.7349C25.3603 21.8102 24.9939 21.7703 24.6669 21.6211ZM27.1756 20.9707C25.8283 20.9242 24.2953 19.9022 23.041 18.7873L23.9701 18.4621C25.5882 19.1143 27.2696 19.597 28.9873 19.9022C28.8399 20.2511 28.5842 20.5433 28.258 20.7357C27.9317 20.9281 27.5522 21.0105 27.1756 20.9707ZM32.0999 17.6723C31.8808 18.3004 31.4511 18.8333 30.8837 19.1805C30.3163 19.5277 29.6463 19.6678 28.9873 19.577C27.3639 19.347 25.7734 18.926 24.2488 18.3227C24.6742 18.1511 25.0793 17.933 25.4567 17.6723C27.0826 17.7652 29.2661 17.7652 32.1463 17.6723H32.0999ZM32.4715 17.3471C30.2446 17.491 28.0119 17.522 25.7819 17.4401L26.1071 17.2542C27.0826 16.5574 27.6866 16.0464 27.6866 16.0464C30.3838 15.2824 33.036 14.3674 35.6305 13.3055C35.6305 13.3055 35.6305 16.7897 32.4715 17.3471ZM35.6305 12.9339L35.3518 13.0268C32.8126 14.1219 30.2057 15.0529 27.5472 15.8141C27.5472 15.8141 24.9921 18.3227 21.7867 18.8337C21.538 18.5206 21.3055 18.1949 21.0899 17.8582C23.8307 17.5794 25.5496 16.0464 26.6645 14.885C27.0613 14.4804 27.5152 14.1361 28.0118 13.863L37.721 7.68436H37.6745C37.6745 7.68436 38.232 11.6795 35.6305 12.9339Z" fill="#001A60"/>
<path id="Vector_97" d="M19.0463 17.9995C19.8561 18.009 20.6463 18.2508 21.3226 18.6964C21.0099 18.3184 20.7302 17.9143 20.4864 17.4885C20.0219 16.6523 20.1148 14.9799 20.1148 14.9799C20.1976 14.9828 20.2798 14.9634 20.3526 14.9238C20.4255 14.8841 20.4864 14.8258 20.5291 14.7547C20.5717 14.6835 20.5946 14.6023 20.5952 14.5194C20.5959 14.4365 20.5744 14.3549 20.5329 14.2831C20.3333 14.3883 20.1035 14.4212 19.8825 14.376C19.5972 14.3243 19.3173 14.2466 19.0463 14.1437C18.5817 14.0508 18.0707 14.0508 17.8849 14.6083C18.2674 14.5024 18.6734 14.5186 19.0463 14.6547C18.7749 14.6647 18.514 14.7625 18.303 14.9335L17.8384 14.8406C17.648 14.758 17.4354 14.7417 17.2345 14.7941C16.8164 14.9799 17.0022 15.4445 17.1416 15.5838C17.281 15.7232 18.0243 15.5374 18.0707 15.5374C18.1343 16.1299 18.0211 16.7279 17.7455 17.2562C17.6062 17.535 17.0487 18.3247 16.8164 18.6499C17.4844 18.2292 18.2568 18.0039 19.0463 17.9995Z" fill="url(#paint21_linear_2451_111079)"/>
<path id="Vector_98" d="M19.0462 14.4689L19.8824 14.7012C20.1154 14.7323 20.3523 14.7165 20.5792 14.6547C20.5905 14.529 20.5746 14.4022 20.5327 14.2831C20.3332 14.3883 20.1034 14.4212 19.8824 14.376C19.5971 14.3243 19.3172 14.2466 19.0462 14.1437C18.5816 14.0508 18.0706 14.0508 17.8848 14.6083H18.1635C18.2889 14.5164 18.4344 14.4558 18.5879 14.4316C18.7415 14.4073 18.8986 14.4201 19.0462 14.4689Z" fill="#FFF4CD"/>
<path id="Vector_99" d="M17.2338 15.1638C17.4504 15.1141 17.6768 15.1303 17.8842 15.2102L18.3487 15.3496C18.5205 15.0759 18.7607 14.8518 19.0456 14.6992C18.851 14.6983 18.6593 14.7462 18.4881 14.8386L18.3023 14.978L17.9771 14.8851C17.744 14.7766 17.4786 14.76 17.2338 14.8386C17.1828 14.8537 17.1356 14.8796 17.0954 14.9146C17.0553 14.9495 17.0231 14.9927 17.0011 15.0411C16.9791 15.0896 16.9677 15.1422 16.9678 15.1954C16.9678 15.2486 16.9793 15.3012 17.0015 15.3496C17.0588 15.266 17.1396 15.2013 17.2338 15.1638Z" fill="#FFF4CD"/>
</g>
<g id="letter">
<path id="Vector_100" d="M43.3886 9.54297V11.7728H40.4619V13.3988H41.7162L41.6233 13.5382C41.3937 13.9847 41.2675 14.4772 41.2542 14.9792C41.2409 15.4811 41.3408 15.9796 41.5464 16.4377C41.7521 16.8958 42.0582 17.3017 42.4422 17.6253C42.8261 17.9489 43.2779 18.1819 43.7642 18.3071C44.2505 18.4322 44.7587 18.4463 45.2512 18.3482C45.7436 18.2501 46.2077 18.0424 46.6089 17.7405C47.0101 17.4386 47.3382 17.0503 47.5689 16.6043C47.7995 16.1582 47.9268 15.666 47.9413 15.1641C47.9304 14.591 47.7702 14.0306 47.4767 13.5382V13.3988H48.5452V11.7728H45.8043V9.54297H43.3886ZM43.4815 15.1641C43.4815 14.1421 43.9461 13.3988 44.5965 13.3988C45.2469 13.3988 45.665 14.1885 45.665 15.1641C45.665 16.1397 45.2004 16.9294 44.5965 16.9294C43.9925 16.9294 43.4815 16.1397 43.4815 15.1641Z" fill="white"/>
<path id="Vector_101" d="M52.1686 9.82031V14.3265H51.1001V9.82031H49.1025V24.779H51.1001V16.0454H52.1686V24.779H54.1662V9.82031H52.1686Z" fill="white"/>
<path id="Vector_102" d="M66.6631 9.82031V17.7642H68.9859V16.0918H71.1228V14.5123H68.9859V13.1187H71.1228V11.5856H68.9859V9.82031H66.6631Z" fill="white"/>
<path id="Vector_103" d="M60.7627 21.7142C60.7627 23.6189 62.528 25.1984 64.665 25.1984C66.8019 25.1984 68.6137 23.6189 68.6137 21.7142C68.6137 19.8095 66.8484 18.1836 64.665 18.1836C62.4816 18.1836 60.7627 19.7631 60.7627 21.7142ZM63.039 21.7142C63.0838 21.3952 63.2198 21.096 63.4306 20.8524C63.6414 20.6088 63.918 20.4313 64.2273 20.3412C64.5366 20.251 64.8653 20.2521 65.1739 20.3444C65.4826 20.4366 65.758 20.616 65.9672 20.8609C66.1763 21.1059 66.3102 21.4061 66.3529 21.7254C66.3955 22.0447 66.345 22.3695 66.2075 22.6608C66.07 22.9521 65.8512 23.1975 65.5776 23.3674C65.3039 23.5374 64.987 23.6247 64.665 23.6189C64.4329 23.6013 64.2066 23.538 63.999 23.4326C63.7915 23.3272 63.6069 23.1818 63.4558 23.0048C63.3047 22.8278 63.1901 22.6226 63.1185 22.4011C63.047 22.1796 63.02 21.9462 63.039 21.7142Z" fill="white"/>
<path id="Vector_104" d="M57.5576 13.7706C57.5576 15.6753 59.23 17.2548 61.3205 17.2548C62.2738 17.2799 63.1986 16.9282 63.8944 16.276C64.5901 15.6238 65.0006 14.7235 65.037 13.7706C65.0006 12.8176 64.5901 11.9174 63.8944 11.2652C63.1986 10.613 62.2738 10.2613 61.3205 10.2864C59.23 10.2864 57.5576 11.8659 57.5576 13.7706ZM59.7875 13.7706C59.7875 12.7486 60.4843 11.9124 61.3205 11.9124C62.1567 11.9124 62.8536 12.7486 62.8536 13.7706C62.8536 14.7926 62.1103 15.6288 61.3205 15.6288C60.5308 15.6288 59.7875 14.7462 59.7875 13.7706Z" fill="white"/>
<path id="Vector_105" d="M77.5332 21.7151C77.5332 23.6662 79.2521 25.1992 81.389 25.1992C83.526 25.1992 85.1984 23.6662 85.1984 21.7151C85.1984 19.7639 83.4795 18.2773 81.389 18.2773C79.2985 18.2773 77.5332 19.8104 77.5332 21.7151ZM79.8095 21.7151C79.8095 20.693 80.4599 19.9033 81.389 19.9033C81.613 19.9149 81.8323 19.9715 82.0339 20.0696C82.2355 20.1678 82.4154 20.3054 82.5627 20.4744C82.7101 20.6435 82.822 20.8404 82.8917 21.0535C82.9614 21.2667 82.9875 21.4916 82.9685 21.7151C82.9685 22.7835 82.2717 23.5733 81.389 23.5733C80.5064 23.5733 79.8095 22.7835 79.8095 21.7151Z" fill="white"/>
<path id="Vector_106" d="M83.4329 9.82031V12.0037H80.7849V10.5171H74.4205V12.0966H78.3692V12.3754C78.3927 12.8857 78.3052 13.395 78.1127 13.8683C77.9202 14.3415 77.6273 14.7673 77.2543 15.1163C76.3841 15.9746 75.2597 16.5287 74.0488 16.6958L75.1173 17.9965C76.324 17.7956 77.4553 17.2764 78.3944 16.4925C79.3336 15.7085 80.0465 14.6882 80.4597 13.5368H83.4329V14.6982H80.5526V16.2312H83.4329V17.8572H85.7092V9.82031H83.4329Z" fill="white"/>
<path id="Vector_107" d="M109.355 21.6209C109.355 23.5256 111.074 25.0586 113.165 25.0586C115.255 25.0586 117.021 23.5256 117.021 21.6209C117.021 19.7162 115.302 18.1367 113.165 18.1367C111.028 18.1367 109.355 19.7162 109.355 21.6209ZM111.632 21.6209C111.632 20.5524 112.282 19.7627 113.165 19.7627C113.395 19.7743 113.62 19.8321 113.827 19.9326C114.035 20.033 114.22 20.1741 114.371 20.3474C114.523 20.5208 114.638 20.7228 114.71 20.9416C114.782 21.1603 114.81 21.3914 114.791 21.6209C114.81 21.8481 114.782 22.0768 114.71 22.2929C114.637 22.5091 114.521 22.7081 114.369 22.8778C114.217 23.0475 114.031 23.1842 113.824 23.2796C113.617 23.3751 113.393 23.4271 113.165 23.4327C112.282 23.4327 111.632 22.6429 111.632 21.6209Z" fill="white"/>
<path id="Vector_108" d="M115.581 9.82031V12.9328H113.908V14.6052H115.581V17.8107H117.857V9.82031H115.581Z" fill="white"/>
<path id="Vector_109" d="M108.845 9.54297V11.3547H106.29V12.9807H108.799V13.0736C108.799 14.2814 107.591 16.1861 105.872 16.372L106.801 17.4869L106.987 17.7656C108.229 17.373 109.264 16.5044 109.867 15.3499C109.867 15.3035 109.914 15.2106 110.053 15.2106C110.09 15.2106 110.125 15.2252 110.152 15.2514C110.178 15.2775 110.192 15.313 110.192 15.3499C110.703 16.4649 112.237 17.5333 112.887 17.5798C112.887 17.5333 113.909 16.3255 113.909 16.3255C113.909 16.3255 113.073 16.0932 112.283 15.3499C111.969 15.0581 111.717 14.7063 111.541 14.3153C111.366 13.9243 111.27 13.5021 111.261 13.0736V12.9807H113.584V11.3547H111.214V9.54297H108.845Z" fill="white"/>
<path id="Vector_110" d="M98.9961 9.82031V17.8107H101.272V14.4659H103.177V12.7935H101.272V9.82031H98.9961Z" fill="white"/>
<path id="Vector_111" d="M92.3069 9.54297V11.3547H89.6124V12.9807H92.2604V13.0736C92.2047 13.8915 91.8697 14.6654 91.3116 15.2658C90.7534 15.8662 90.006 16.2567 89.1943 16.372C89.4242 16.608 89.6413 16.8561 89.8447 17.1152L90.3093 17.6263C90.9419 17.4745 91.5365 17.194 92.056 16.8024C92.5755 16.4107 93.0088 15.9163 93.3289 15.3499C93.3753 15.3035 93.4218 15.2106 93.5147 15.2106L93.6541 15.3499C94.3509 16.6042 95.9304 17.5333 96.6272 17.5798L97.7886 16.3255C97.0113 16.2599 96.2845 15.913 95.7446 15.3499C95.4264 15.0615 95.1714 14.7104 94.9955 14.3187C94.8196 13.9269 94.7267 13.503 94.7226 13.0736V12.9807H97.3705V11.3547H94.6761V9.54297H92.3069Z" fill="white"/>
<path id="Vector_112" d="M91.7021 18.6484V19.9492H98.9492V21.0177H91.7021V23.4798C91.7021 24.4554 91.9809 24.7806 92.91 24.7806H101.458V23.4334H94.2572C94.1956 23.4334 94.1365 23.4089 94.093 23.3653C94.0494 23.3218 94.0249 23.2627 94.0249 23.2011V22.3184H101.04C101.101 22.3184 101.16 22.294 101.204 22.2504C101.248 22.2068 101.272 22.1478 101.272 22.0862V18.7413C101.272 18.6484 101.226 18.6484 101.179 18.6484H91.7021Z" fill="white"/>
<path id="Vector_113" d="M40.6475 27.9375H41.8553V30.539L43.4813 27.9375H44.8749L43.0632 30.5855L45.1072 33.6516H43.5742L41.8553 30.6784V33.6516H40.6475V27.9375Z" fill="white"/>
<path id="Vector_114" d="M47.5235 27.8447C49.0101 27.8447 49.9857 28.9596 49.9857 30.7714C49.9857 32.5832 49.5211 33.0013 48.6849 33.4658C48.3321 33.6672 47.9293 33.7639 47.5235 33.7446C47.1731 33.7722 46.8211 33.7149 46.4976 33.5774C46.1741 33.4399 45.8886 33.2263 45.6653 32.9548C45.2229 32.3317 44.9947 31.5818 45.0149 30.8179C45.0149 29.5636 45.4795 28.588 46.3157 28.1234C46.6879 27.929 47.1037 27.8331 47.5235 27.8447ZM47.4771 28.7273C47.2981 28.7278 47.1223 28.7752 46.9674 28.8649C46.8125 28.9546 46.6839 29.0834 46.5944 29.2384C46.3831 29.737 46.2878 30.277 46.3157 30.8179C46.3157 31.7934 46.5015 32.3973 46.8267 32.6761C47.032 32.8135 47.2771 32.8789 47.5235 32.8619C48.3133 32.8619 48.6385 32.258 48.6385 30.8179C48.6537 30.3645 48.6068 29.9113 48.4991 29.4706C48.4239 29.2579 48.286 29.0729 48.1036 28.9402C47.9211 28.8075 47.7026 28.7333 47.4771 28.7273Z" fill="white"/>
<path id="Vector_115" d="M50.7285 27.9404H52.8655C53.0886 27.9268 53.3121 27.9608 53.5212 28.0401C53.7302 28.1193 53.9201 28.242 54.0782 28.4001C54.2363 28.5582 54.359 28.7481 54.4382 28.9571C54.5175 29.1662 54.5514 29.3897 54.5379 29.6128C54.5379 30.449 53.9804 31.1923 53.2836 31.1923L53.5159 31.4246C53.841 31.8427 54.9095 33.6545 54.9095 33.6545H53.5159L53.0048 32.7253C52.4474 31.7033 52.2616 31.4246 52.0293 31.3317H51.8899V33.7009H50.7285V27.9404ZM51.8899 28.8695V30.4026H52.2616C52.7726 30.4026 52.9584 30.3561 53.0978 30.2167C53.246 30.069 53.3295 29.8685 53.33 29.6593C53.3451 29.5074 53.313 29.3547 53.2382 29.2217C53.1634 29.0887 53.0495 28.982 52.9119 28.916H51.8899V28.8695Z" fill="white"/>
<path id="Vector_116" d="M55.5137 27.9375H58.7656L58.6262 28.8666H56.6286V30.2138H58.301V31.1429H56.6751V32.676H58.812V33.6516H55.5137V27.9375Z" fill="white"/>
<path id="Vector_117" d="M60.9955 27.8945H62.2498L64.0151 33.655H62.8073L62.3892 32.3078H60.7168L60.2987 33.655H59.0908L60.9955 27.8945ZM60.9955 31.3323H62.1104C62.1104 31.3323 61.9246 30.7283 61.7853 30.1709L61.553 29.1953L61.3207 30.2638C61.1813 30.6819 61.1349 30.9606 60.9955 31.3323Z" fill="white"/>
<path id="Vector_118" d="M70.9365 28.2641L70.4255 29.0538C70.1822 28.8391 69.8673 28.7231 69.5429 28.7286C69.3499 28.7221 69.1586 28.7657 68.9876 28.8553C68.8166 28.9449 68.6717 29.0773 68.5673 29.2397C68.3141 29.6751 68.2006 30.1778 68.2421 30.6798C68.1869 31.2023 68.2669 31.7302 68.4744 32.2128C68.5797 32.4156 68.7403 32.5843 68.9377 32.6994C69.135 32.8146 69.361 32.8713 69.5893 32.8632C69.8898 32.857 70.1814 32.7598 70.4255 32.5845L70.5649 32.4916L71.0759 33.2349C70.6303 33.5939 70.0679 33.7759 69.4964 33.7459C69.1464 33.7697 68.7957 33.7106 68.4728 33.5734C68.1499 33.4361 67.8639 33.2247 67.6382 32.9561C67.1538 32.3885 66.9045 31.6573 66.9413 30.9121C66.9059 30.301 67.0342 29.6916 67.313 29.1467C67.5179 28.7432 67.8302 28.4039 68.2153 28.1663C68.6005 27.9286 69.0438 27.8017 69.4964 27.7995C70.017 27.7736 70.5292 27.9388 70.9365 28.2641Z" fill="white"/>
<path id="Vector_119" d="M73.771 27.8481C75.304 27.8481 76.2332 28.963 76.2332 30.7748C76.2332 32.5866 75.8151 33.0047 74.9788 33.4692C74.6219 33.6598 74.222 33.7558 73.8175 33.748C73.4666 33.7797 73.1134 33.7242 72.7892 33.5864C72.465 33.4486 72.1799 33.2328 71.9592 32.9582C71.5169 32.3351 71.2887 31.5852 71.3089 30.8213C71.3089 29.567 71.7734 28.5914 72.6096 28.1268C72.9666 27.9363 73.3664 27.8403 73.771 27.8481ZM73.771 28.7308C73.592 28.7312 73.4163 28.7786 73.2614 28.8683C73.1065 28.958 72.9778 29.0868 72.8883 29.2418C72.6547 29.7335 72.5584 30.2793 72.6096 30.8213C72.6096 31.7968 72.749 32.4008 73.1206 32.6795C73.3064 32.8209 73.5386 32.8873 73.771 32.8653C74.5608 32.8653 74.9324 32.2614 74.9324 30.8213C74.9476 30.3679 74.9007 29.9147 74.793 29.474C74.7179 29.2613 74.58 29.0763 74.3975 28.9436C74.215 28.8109 73.9966 28.7367 73.771 28.7308Z" fill="white"/>
<path id="Vector_120" d="M78.1844 27.8945H79.4387L81.2505 33.655H79.9962L79.6245 32.3078H77.9057L77.534 33.655H76.3262L78.1844 27.8945ZM78.1844 31.3323H79.3458C79.3458 31.3323 79.16 30.7283 79.0206 30.1709L78.7883 29.1953C78.7883 29.1953 78.6025 29.8457 78.5096 30.2638C78.429 30.6278 78.3203 30.985 78.1844 31.3323Z" fill="white"/>
<path id="Vector_121" d="M85.7099 28.3578L85.1524 29.1476C84.7466 28.895 84.2827 28.751 83.8052 28.7295C83.71 28.7165 83.6132 28.7234 83.5207 28.7496C83.4283 28.7759 83.3423 28.8209 83.2682 28.882C83.194 28.9431 83.1333 29.0189 83.0898 29.1045C83.0463 29.1902 83.021 29.2839 83.0155 29.3799C83.0155 29.6586 83.1548 29.8444 83.6658 29.9373L84.3162 30.1696C85.2918 30.4019 85.8028 31.0058 85.8028 31.842C85.8028 32.6782 84.8272 33.7931 83.4336 33.7931C82.7507 33.7884 82.0799 33.6128 81.4824 33.2821L81.9005 32.353C82.3758 32.6468 82.9214 32.8073 83.48 32.8176C84.1304 32.8176 84.4556 32.5388 84.4556 32.0278C84.4556 31.5168 84.2233 31.4239 83.7123 31.2845L83.1084 31.1452C82.6468 31.0394 82.2363 30.7767 81.947 30.4019C81.7935 30.1331 81.7134 29.8287 81.7147 29.5192C81.7147 28.4972 82.5509 27.7539 83.7588 27.7539C84.4549 27.7558 85.1344 27.9661 85.7099 28.3578Z" fill="white"/>
<path id="Vector_122" d="M86.1748 27.9375H90.3094L90.1235 28.8666H88.7299V33.6516H87.5685V28.8666H86.1748V27.9375Z" fill="white"/>
<path id="Vector_123" d="M97.9742 28.4986L97.3703 29.2419C97.0436 28.9356 96.6102 28.7689 96.1624 28.7773C95.873 28.7641 95.5897 28.8641 95.3727 29.0561C94.9546 29.4277 94.8617 30.0316 94.8617 30.9143C94.8617 31.797 95.0011 32.2615 95.3262 32.5403C95.5671 32.759 95.8836 32.8757 96.2089 32.8654C96.4334 32.8687 96.6558 32.8211 96.8593 32.7261V31.4253H95.9766L95.8373 30.4962H98.0671V33.1906C97.4927 33.5361 96.8327 33.7131 96.1624 33.7016C95.7942 33.7273 95.4251 33.6649 95.0858 33.5195C94.7464 33.374 94.4467 33.1498 94.2113 32.8654C93.7696 32.2951 93.5397 31.589 93.5609 30.8679C93.5609 29.66 93.979 28.7773 94.7688 28.2663C95.178 27.9842 95.6655 27.838 96.1624 27.8482C96.8259 27.8345 97.471 28.0661 97.9742 28.4986Z" fill="white"/>
<path id="Vector_124" d="M98.9957 27.9375H100.157V31.7004C100.123 31.9368 100.156 32.1779 100.25 32.3972C100.338 32.5223 100.457 32.6224 100.596 32.6875C100.734 32.7527 100.887 32.7807 101.04 32.7689C101.551 32.7689 101.876 32.5366 101.922 32.1185V27.9375H103.084V31.7933C103.121 32.0908 103.089 32.3928 102.991 32.676C102.851 33.1405 102.294 33.7445 101.04 33.7445C99.7854 33.7445 99.5531 33.5122 99.228 33.0012C99.0363 32.6798 98.9547 32.3046 98.9957 31.9327V27.9375Z" fill="white"/>
<path id="Vector_125" d="M105.453 27.8945H106.707L108.519 33.655H107.265L106.847 32.3078H105.174L104.756 33.655H103.595L105.453 27.8945ZM105.453 31.3323H106.568C106.453 30.9508 106.36 30.563 106.289 30.1709C106.193 29.8503 106.116 29.5246 106.057 29.1953C106.057 29.1953 105.871 29.8457 105.778 30.2638C105.685 30.6819 105.592 30.9606 105.453 31.3323Z" fill="white"/>
<path id="Vector_126" d="M109.03 27.94H111.167C111.394 27.9195 111.623 27.9483 111.837 28.0244C112.052 28.1005 112.248 28.2222 112.411 28.381C112.574 28.5399 112.701 28.7322 112.783 28.9448C112.865 29.1573 112.9 29.3851 112.886 29.6124C112.886 30.4486 112.282 31.1919 111.585 31.1919C111.684 31.2443 111.765 31.3252 111.818 31.4242C112.143 31.8423 113.211 33.6541 113.211 33.6541H111.864L111.307 32.725C110.749 31.7029 110.563 31.4242 110.377 31.3313H110.192V33.7005H109.03V27.94ZM110.192 28.8691V30.4022H110.563C110.87 30.4475 111.183 30.3816 111.446 30.2164C111.513 30.141 111.564 30.0526 111.596 29.9568C111.628 29.8609 111.64 29.7596 111.632 29.6589C111.645 29.5127 111.617 29.3657 111.552 29.2344C111.486 29.1031 111.385 28.9927 111.26 28.9156H110.192V28.8691Z" fill="white"/>
<path id="Vector_127" d="M113.955 27.9844H116.092C116.331 27.9974 116.564 28.0574 116.78 28.1611C116.995 28.2647 117.187 28.4099 117.346 28.5883C117.904 29.0993 118.136 29.7961 118.136 30.8646C118.151 31.5563 117.957 32.2363 117.579 32.8158C117.411 33.0345 117.202 33.2171 116.962 33.3529C116.723 33.4886 116.458 33.5745 116.185 33.6055H113.955V27.9844ZM115.116 28.867V32.7229H115.767C116.51 32.7229 116.835 32.1654 116.835 30.9575C116.882 30.4007 116.786 29.8412 116.557 29.3316C116.465 29.1819 116.334 29.0597 116.179 28.978C116.024 28.8962 115.849 28.8579 115.674 28.867H115.116Z" fill="white"/>
</g>
</g>
<defs>
<radialGradient id="paint0_radial_2451_111079" cx="0" cy="0" r="1" gradientUnits="userSpaceOnUse" gradientTransform="translate(13.2596 7.18868) scale(19.8607 19.8607)">
<stop stop-color="#FEE7A9"/>
<stop offset="0.46" stop-color="#FFD900"/>
<stop offset="1" stop-color="#E49D00"/>
</radialGradient>
<linearGradient id="paint1_linear_2451_111079" x1="14.006" y1="9.06393" x2="20.3518" y2="17.0218" gradientUnits="userSpaceOnUse">
<stop stop-color="#002F82"/>
<stop offset="1" stop-color="#001A60"/>
</linearGradient>
<linearGradient id="paint2_linear_2451_111079" x1="13.2254" y1="22.2629" x2="11.4229" y2="10.9835" gradientUnits="userSpaceOnUse">
<stop stop-color="#CA8200"/>
<stop offset="0.3" stop-color="#E1A504"/>
<stop offset="1" stop-color="#CA8200"/>
</linearGradient>
<linearGradient id="paint3_linear_2451_111079" x1="15.8964" y1="32.2658" x2="-1.45477" y2="-8.4526" gradientUnits="userSpaceOnUse">
<stop stop-color="#FEDA5D"/>
<stop offset="1" stop-color="#996100"/>
</linearGradient>
<linearGradient id="paint4_linear_2451_111079" x1="13.1316" y1="21.6264" x2="15.1338" y2="21.6264" gradientUnits="userSpaceOnUse">
<stop stop-color="#FEE7A9"/>
<stop offset="0.46" stop-color="#FFD900"/>
<stop offset="1" stop-color="#E49D00"/>
</linearGradient>
<linearGradient id="paint5_linear_2451_111079" x1="11.5288" y1="20.3102" x2="16.1558" y2="20.3102" gradientUnits="userSpaceOnUse">
<stop stop-color="#FEE7A9"/>
<stop offset="0.46" stop-color="#FFD900"/>
<stop offset="1" stop-color="#E49D00"/>
</linearGradient>
<linearGradient id="paint6_linear_2451_111079" x1="2.5171" y1="15.4045" x2="12.3285" y2="15.4045" gradientUnits="userSpaceOnUse">
<stop stop-color="#FEE7A9"/>
<stop offset="0.46" stop-color="#FFD900"/>
<stop offset="1" stop-color="#E49D00"/>
</linearGradient>
<linearGradient id="paint7_linear_2451_111079" x1="0.65453" y1="9.86237" x2="18.9581" y2="19.6738" gradientUnits="userSpaceOnUse">
<stop stop-color="#FEE7A9"/>
<stop offset="0.46" stop-color="#FFD900"/>
<stop offset="1" stop-color="#E49D00"/>
</linearGradient>
<linearGradient id="paint8_linear_2451_111079" x1="6.00612" y1="18.6428" x2="13.8989" y2="18.6428" gradientUnits="userSpaceOnUse">
<stop stop-color="#FEE7A9"/>
<stop offset="0.46" stop-color="#FFD900"/>
<stop offset="1" stop-color="#E49D00"/>
</linearGradient>
<linearGradient id="paint9_linear_2451_111079" x1="9.13181" y1="19.7152" x2="15.1107" y2="19.7152" gradientUnits="userSpaceOnUse">
<stop stop-color="#FEE7A9"/>
<stop offset="0.46" stop-color="#FFD900"/>
<stop offset="1" stop-color="#E49D00"/>
</linearGradient>
<linearGradient id="paint10_linear_2451_111079" x1="24.9964" y1="21.6264" x2="22.9941" y2="21.6264" gradientUnits="userSpaceOnUse">
<stop stop-color="#FEE7A9"/>
<stop offset="0.46" stop-color="#FFD900"/>
<stop offset="1" stop-color="#E49D00"/>
</linearGradient>
<linearGradient id="paint11_linear_2451_111079" x1="26.5996" y1="20.3102" x2="21.9727" y2="20.3102" gradientUnits="userSpaceOnUse">
<stop stop-color="#FEE7A9"/>
<stop offset="0.46" stop-color="#FFD900"/>
<stop offset="1" stop-color="#E49D00"/>
</linearGradient>
<linearGradient id="paint12_linear_2451_111079" x1="35.6123" y1="15.4045" x2="25.8008" y2="15.4045" gradientUnits="userSpaceOnUse">
<stop stop-color="#FEE7A9"/>
<stop offset="0.46" stop-color="#FFD900"/>
<stop offset="1" stop-color="#E49D00"/>
</linearGradient>
<linearGradient id="paint13_linear_2451_111079" x1="37.4701" y1="9.86237" x2="19.1712" y2="19.6738" gradientUnits="userSpaceOnUse">
<stop stop-color="#FEE7A9"/>
<stop offset="0.46" stop-color="#FFD900"/>
<stop offset="1" stop-color="#E49D00"/>
</linearGradient>
<linearGradient id="paint14_linear_2451_111079" x1="32.1233" y1="18.6428" x2="24.2304" y2="18.6428" gradientUnits="userSpaceOnUse">
<stop stop-color="#FEE7A9"/>
<stop offset="0.46" stop-color="#FFD900"/>
<stop offset="1" stop-color="#E49D00"/>
</linearGradient>
<linearGradient id="paint15_linear_2451_111079" x1="28.9966" y1="19.7152" x2="23.0178" y2="19.7152" gradientUnits="userSpaceOnUse">
<stop stop-color="#FEE7A9"/>
<stop offset="0.46" stop-color="#FFD900"/>
<stop offset="1" stop-color="#E49D00"/>
</linearGradient>
<linearGradient id="paint16_linear_2451_111079" x1="19.0546" y1="18.157" x2="19.0546" y2="26.0266" gradientUnits="userSpaceOnUse">
<stop stop-color="#FEE7A9"/>
<stop offset="0.46" stop-color="#FFD900"/>
<stop offset="1" stop-color="#E49D00"/>
</linearGradient>
<radialGradient id="paint17_radial_2451_111079" cx="0" cy="0" r="1" gradientUnits="userSpaceOnUse" gradientTransform="translate(19.0457 22.1578) scale(2.55692)">
<stop stop-color="#036EB8"/>
<stop offset="0.57" stop-color="#003894"/>
</radialGradient>
<linearGradient id="paint18_linear_2451_111079" x1="18.6188" y1="22.4017" x2="21.1553" y2="23.0893" gradientUnits="userSpaceOnUse">
<stop stop-color="#FEE7A9"/>
<stop offset="0.46" stop-color="#FFD900"/>
<stop offset="1" stop-color="#E49D00"/>
</linearGradient>
<radialGradient id="paint19_radial_2451_111079" cx="0" cy="0" r="1" gradientUnits="userSpaceOnUse" gradientTransform="translate(19.3911 22.529) scale(3.53063 3.53063)">
<stop stop-color="#036EB8"/>
<stop offset="0.57" stop-color="#003894"/>
</radialGradient>
<radialGradient id="paint20_radial_2451_111079" cx="0" cy="0" r="1" gradientUnits="userSpaceOnUse" gradientTransform="translate(19.0046 22.2702) scale(2.24474)">
<stop stop-color="#E6002D"/>
<stop offset="0.22" stop-color="#DB032B"/>
<stop offset="0.6" stop-color="#BE0C24"/>
<stop offset="1" stop-color="#99161C"/>
</radialGradient>
<linearGradient id="paint21_linear_2451_111079" x1="19.0695" y1="14.3714" x2="19.0695" y2="18.7614" gradientUnits="userSpaceOnUse">
<stop stop-color="#FEE7A9"/>
<stop offset="0.46" stop-color="#FFD900"/>
<stop offset="1" stop-color="#E49D00"/>
</linearGradient>
</defs>
</svg>
