<svg width="32" height="32" viewBox="0 0 32 32" fill="none" xmlns="http://www.w3.org/2000/svg">
<g id="&#236;&#130;&#172;&#234;&#179;&#160;&#236;&#160;&#149;&#235;&#179;&#180;">
<g id="state-machine">
<path id="Vector" d="M10.27 21.05C10.72 21.58 11 22.25 11 23C11 24.66 9.66 26 8 26C6.34 26 5 24.66 5 23C5 21.34 6.34 20 8 20C8.18 20 8.36 20 8.53 20.05L11.6 14.69L9.86 13.7L13.95 12.58L15.07 16.67L13.33 15.68L10.27 21.05ZM24 20C22.7 20 21.6 20.84 21.18 22H15V20L12 23L15 26V24H21.18C21.6 25.16 22.7 26 24 26C25.66 26 27 24.66 27 23C27 21.34 25.66 20 24 20ZM16 12C16.18 12 16.36 12 16.53 11.95L19.6 17.31L17.86 18.3L21.95 19.42L23.07 15.33L21.33 16.32L18.27 10.95C18.72 10.42 19 9.75 19 9C19 7.34 17.66 6 16 6C14.34 6 13 7.34 13 9C13 10.66 14.34 12 16 12Z" fill="white" fill-opacity="0.8"/>
</g>
</g>
</svg>
