<svg width="32" height="32" viewBox="0 0 32 32" fill="none" xmlns="http://www.w3.org/2000/svg">
<g id="&#234;&#180;&#128;&#235;&#166;&#172;&#236;&#158;&#144;">
<path id="Vector" d="M15.7293 19.5C14.8011 19.5 13.9108 19.1313 13.2545 18.4749C12.5981 17.8185 12.2293 16.9283 12.2293 16C12.2293 15.0717 12.5981 14.1815 13.2545 13.5251C13.9108 12.8687 14.8011 12.5 15.7293 12.5C16.6576 12.5 17.5478 12.8687 18.2042 13.5251C18.8606 14.1815 19.2293 15.0717 19.2293 16C19.2293 16.9283 18.8606 17.8185 18.2042 18.4749C17.5478 19.1313 16.6576 19.5 15.7293 19.5ZM23.1593 16.97C23.1993 16.65 23.2293 16.33 23.2293 16C23.2293 15.67 23.1993 15.34 23.1593 15L25.2693 13.37C25.4593 13.22 25.5093 12.95 25.3893 12.73L23.3893 9.27C23.2693 9.05 22.9993 8.96 22.7793 9.05L20.2893 10.05C19.7693 9.66 19.2293 9.32 18.5993 9.07L18.2293 6.42C18.1893 6.18 17.9793 6 17.7293 6H13.7293C13.4793 6 13.2693 6.18 13.2293 6.42L12.8593 9.07C12.2293 9.32 11.6893 9.66 11.1693 10.05L8.67933 9.05C8.45933 8.96 8.18933 9.05 8.06933 9.27L6.06933 12.73C5.93933 12.95 5.99933 13.22 6.18933 13.37L8.29933 15C8.25933 15.34 8.22933 15.67 8.22933 16C8.22933 16.33 8.25933 16.65 8.29933 16.97L6.18933 18.63C5.99933 18.78 5.93933 19.05 6.06933 19.27L8.06933 22.73C8.18933 22.95 8.45933 23.03 8.67933 22.95L11.1693 21.94C11.6893 22.34 12.2293 22.68 12.8593 22.93L13.2293 25.58C13.2693 25.82 13.4793 26 13.7293 26H17.7293C17.9793 26 18.1893 25.82 18.2293 25.58L18.5993 22.93C19.2293 22.67 19.7693 22.34 20.2893 21.94L22.7793 22.95C22.9993 23.03 23.2693 22.95 23.3893 22.73L25.3893 19.27C25.5093 19.05 25.4593 18.78 25.2693 18.63L23.1593 16.97Z" fill="white" fill-opacity="0.8"/>
</g>
</svg>
