<svg width="32" height="32" viewBox="0 0 32 32" fill="none" xmlns="http://www.w3.org/2000/svg">
<g id="AI">
<path id="robot (Stroke)" fill-rule="evenodd" clip-rule="evenodd" d="M13.7774 8.2223C13.7774 6.98913 14.7784 6 16 6C17.2216 6 18.2226 6.98913 18.2226 8.2223C18.2226 9.22433 17.5617 10.0652 16.6585 10.3453V11.1984H20.1707C21.6804 11.1984 22.9146 12.4202 22.9146 13.9405V17.0595C22.9146 18.5798 21.6804 19.8016 20.1707 19.8016H16.6585V20.5554H22.2561C23.7657 20.5554 25 21.7773 25 23.2975V25H7V23.2975C7 21.7772 8.2343 20.5554 9.7439 20.5554H15.3415V19.8016H11.8293C10.3197 19.8016 9.08537 18.5798 9.08537 17.0595V13.9405C9.08537 12.4202 10.3197 11.1984 11.8293 11.1984H15.3415V10.3453C14.4383 10.0652 13.7774 9.22433 13.7774 8.2223ZM16 7.32558C15.4941 7.32558 15.0945 7.73288 15.0945 8.2223C15.0945 8.71172 15.4941 9.11901 16 9.11901C16.5059 9.11901 16.9055 8.71172 16.9055 8.2223C16.9055 7.73288 16.5059 7.32558 16 7.32558ZM11.8293 12.5239C11.0354 12.5239 10.4024 13.164 10.4024 13.9405V17.0595C10.4024 17.8361 11.0354 18.4761 11.8293 18.4761H20.1707C20.9646 18.4761 21.5976 17.8361 21.5976 17.0595V13.9405C21.5976 13.164 20.9646 12.5239 20.1707 12.5239H11.8293ZM13.9146 15.1231C13.6967 15.1231 13.5305 15.2977 13.5305 15.5C13.5305 15.7023 13.6967 15.8769 13.9146 15.8769C14.1326 15.8769 14.2988 15.7023 14.2988 15.5C14.2988 15.2977 14.1326 15.1231 13.9146 15.1231ZM12.2134 15.5C12.2134 14.5539 12.9809 13.7975 13.9146 13.7975C14.8484 13.7975 15.6159 14.5539 15.6159 15.5C15.6159 16.4461 14.8484 17.2025 13.9146 17.2025C12.9809 17.2025 12.2134 16.4461 12.2134 15.5ZM18.0854 15.1231C17.8674 15.1231 17.7012 15.2977 17.7012 15.5C17.7012 15.7023 17.8674 15.8769 18.0854 15.8769C18.3033 15.8769 18.4695 15.7023 18.4695 15.5C18.4695 15.2977 18.3033 15.1231 18.0854 15.1231ZM16.3841 15.5C16.3841 14.5539 17.1516 13.7975 18.0854 13.7975C19.0191 13.7975 19.7866 14.5539 19.7866 15.5C19.7866 16.4461 19.0191 17.2025 18.0854 17.2025C17.1516 17.2025 16.3841 16.4461 16.3841 15.5ZM9.7439 21.881C8.95007 21.881 8.31707 22.521 8.31707 23.2975V23.6744H23.6829V23.2975C23.6829 22.521 23.05 21.881 22.2561 21.881H9.7439Z" fill="white" fill-opacity="0.5"/>
</g>
</svg>
