<svg width="32" height="32" viewBox="0 0 32 32" fill="none" xmlns="http://www.w3.org/2000/svg">
<g id="&#236;&#149;&#140;&#235;&#158;&#140;">
<path id="Vector" d="M24 21.5714V22.4286H9V21.5714L10.6667 19.8571V14.7143C10.6667 12.0571 12.3583 9.71714 14.8333 8.96286C14.8333 8.87714 14.8333 8.8 14.8333 8.71429C14.8333 8.25963 15.0089 7.82359 15.3215 7.5021C15.634 7.18061 16.058 7 16.5 7C16.942 7 17.366 7.18061 17.6785 7.5021C17.9911 7.82359 18.1667 8.25963 18.1667 8.71429C18.1667 8.8 18.1667 8.87714 18.1667 8.96286C20.6417 9.71714 22.3333 12.0571 22.3333 14.7143V19.8571L24 21.5714ZM18.1667 23.2857C18.1667 23.7404 17.9911 24.1764 17.6785 24.4979C17.366 24.8194 16.942 25 16.5 25C16.058 25 15.634 24.8194 15.3215 24.4979C15.0089 24.1764 14.8333 23.7404 14.8333 23.2857" fill="white" fill-opacity="0.6"/>
</g>
</svg>
