<svg width="32" height="32" viewBox="0 0 32 32" fill="none" xmlns="http://www.w3.org/2000/svg">
<g id="&#234;&#181;&#172;&#236;&#151;&#173;&#236;&#132;&#164;&#236;&#160;&#149;">
<g id="Group 1261160050">
<path id="Vector" d="M7.66699 7.6665H12.667V9.33317H19.3337V7.6665H24.3337V12.6665H22.667V19.3332H24.3337V24.3332H19.3337V22.6665H12.667V24.3332H7.66699V19.3332H9.33366V12.6665H7.66699V7.6665ZM19.3337 12.6665V10.9998H12.667V12.6665H11.0003V19.3332H12.667V20.9998H19.3337V19.3332H21.0003V12.6665H19.3337ZM9.33366 9.33317V10.9998H11.0003V9.33317H9.33366ZM21.0003 9.33317V10.9998H22.667V9.33317H21.0003ZM9.33366 20.9998V22.6665H11.0003V20.9998H9.33366ZM21.0003 20.9998V22.6665H22.667V20.9998H21.0003Z" fill="black" fill-opacity="0.7"/>
</g>
</g>
</svg>
