<svg width="32" height="32" viewBox="0 0 32 32" fill="none" xmlns="http://www.w3.org/2000/svg">
<g id="&#236;&#186;&#161;&#236;&#179;&#144;">
<g id="Group 1261160056">
<path id="Vector" d="M15.9997 18.6668C17.4724 18.6668 18.6663 17.4729 18.6663 16.0002C18.6663 14.5274 17.4724 13.3335 15.9997 13.3335C14.5269 13.3335 13.333 14.5274 13.333 16.0002C13.333 17.4729 14.5269 18.6668 15.9997 18.6668Z" fill="black" fill-opacity="0.7"/>
<path id="Vector_2" d="M13.5003 7.6665L11.9753 9.33317H9.33366C8.41699 9.33317 7.66699 10.0832 7.66699 10.9998V20.9998C7.66699 21.9165 8.41699 22.6665 9.33366 22.6665H22.667C23.5837 22.6665 24.3337 21.9165 24.3337 20.9998V10.9998C24.3337 10.0832 23.5837 9.33317 22.667 9.33317H20.0253L18.5003 7.6665H13.5003ZM16.0003 20.1665C13.7003 20.1665 11.8337 18.2998 11.8337 15.9998C11.8337 13.6998 13.7003 11.8332 16.0003 11.8332C18.3003 11.8332 20.167 13.6998 20.167 15.9998C20.167 18.2998 18.3003 20.1665 16.0003 20.1665Z" fill="black" fill-opacity="0.7"/>
</g>
</g>
</svg>
