<svg width="32" height="32" viewBox="0 0 32 32" fill="none" xmlns="http://www.w3.org/2000/svg">
<g id="&#234;&#177;&#176;&#235;&#166;&#172;">
<g id="Group 1261160051">
<path id="Vector" d="M22.6663 15.9998L19.333 12.6665V15.1665H12.6663V12.6665L9.33301 15.9998L12.6663 19.3332V16.8332H19.333V19.3332L22.6663 15.9998Z" fill="black" fill-opacity="0.7"/>
<path id="Vector_2" d="M8.50033 23.5C8.26421 23.5 8.0663 23.4201 7.90658 23.2604C7.74685 23.1007 7.66699 22.9028 7.66699 22.6667V9.33333C7.66699 9.09722 7.74685 8.89931 7.90658 8.73958C8.0663 8.57986 8.26421 8.5 8.50033 8.5C8.73644 8.5 8.93435 8.57986 9.09408 8.73958C9.2538 8.89931 9.33366 9.09722 9.33366 9.33333V22.6667C9.33366 22.9028 9.2538 23.1007 9.09408 23.2604C8.93435 23.4201 8.73644 23.5 8.50033 23.5ZM23.5003 23.5C23.2642 23.5 23.0663 23.4201 22.9066 23.2604C22.7469 23.1007 22.667 22.9028 22.667 22.6667V9.33333C22.667 9.09722 22.7469 8.89931 22.9066 8.73958C23.0663 8.57986 23.2642 8.5 23.5003 8.5C23.7364 8.5 23.9344 8.57986 24.0941 8.73958C24.2538 8.89931 24.3337 9.09722 24.3337 9.33333V22.6667C24.3337 22.9028 24.2538 23.1007 24.0941 23.2604C23.9344 23.4201 23.7364 23.5 23.5003 23.5Z" fill="black" fill-opacity="0.7"/>
</g>
</g>
</svg>
