<svg width="32" height="32" viewBox="0 0 32 32" fill="none" xmlns="http://www.w3.org/2000/svg">
<g id="&#234;&#177;&#176;&#235;&#166;&#172;&#237;&#153;&#152;">
<g id="Group 1261160053">
<path id="Vector" d="M16.0003 7.6665C14.906 7.6665 13.8223 7.88205 12.8113 8.30084C11.8003 8.71963 10.8816 9.33346 10.1078 10.1073C8.54497 11.6701 7.66699 13.7897 7.66699 15.9998C7.66699 18.21 8.54497 20.3296 10.1078 21.8924C10.8816 22.6662 11.8003 23.28 12.8113 23.6988C13.8223 24.1176 14.906 24.3332 16.0003 24.3332C18.2105 24.3332 20.3301 23.4552 21.8929 21.8924C23.4557 20.3296 24.3337 18.21 24.3337 15.9998C24.3337 14.9055 24.1181 13.8219 23.6993 12.8108C23.2805 11.7998 22.6667 10.8811 21.8929 10.1073C21.1191 9.33346 20.2004 8.71963 19.1894 8.30084C18.1783 7.88205 17.0947 7.6665 16.0003 7.6665ZM16.0003 22.6665C14.2322 22.6665 12.5365 21.9641 11.2863 20.7139C10.036 19.4636 9.33366 17.7679 9.33366 15.9998C9.33366 14.2317 10.036 12.536 11.2863 11.2858C12.5365 10.0355 14.2322 9.33317 16.0003 9.33317C17.7684 9.33317 19.4641 10.0355 20.7144 11.2858C21.9646 12.536 22.667 14.2317 22.667 15.9998C22.667 17.7679 21.9646 19.4636 20.7144 20.7139C19.4641 21.9641 17.7684 22.6665 16.0003 22.6665ZM19.3337 18.4998V16.8332H17.4337C17.1337 17.3498 16.592 17.6665 16.0003 17.6665C15.5583 17.6665 15.1344 17.4909 14.8218 17.1783C14.5093 16.8658 14.3337 16.4419 14.3337 15.9998C14.3337 15.5578 14.5093 15.1339 14.8218 14.8213C15.1344 14.5088 15.5583 14.3332 16.0003 14.3332C16.592 14.3332 17.1337 14.6498 17.4337 15.1665H19.3337V13.4998L21.8337 15.9998L19.3337 18.4998Z" fill="black" fill-opacity="0.7"/>
</g>
</g>
</svg>
