<svg width="32" height="32" viewBox="0 0 32 32" fill="none" xmlns="http://www.w3.org/2000/svg">
<g id="&#235;&#139;&#164;&#236;&#154;&#180;&#235;&#161;&#156;&#235;&#147;&#156;">
<g id="Group 1261160054">
<path id="Vector" d="M15.9997 18.9793C15.8886 18.9793 15.7844 18.9618 15.6872 18.9268C15.59 18.8924 15.4997 18.8335 15.4163 18.7502L12.4163 15.7502C12.2636 15.5974 12.1872 15.4029 12.1872 15.1668C12.1872 14.9307 12.2636 14.7363 12.4163 14.5835C12.5691 14.4307 12.7669 14.3507 13.0097 14.3435C13.253 14.3368 13.4511 14.4099 13.6038 14.5627L15.1663 16.1252V10.1668C15.1663 9.93072 15.2463 9.73266 15.4063 9.57266C15.5658 9.41322 15.7636 9.3335 15.9997 9.3335C16.2358 9.3335 16.4338 9.41322 16.5938 9.57266C16.7533 9.73266 16.833 9.93072 16.833 10.1668V16.1252L18.3955 14.5627C18.5483 14.4099 18.7463 14.3368 18.9897 14.3435C19.2325 14.3507 19.4302 14.4307 19.583 14.5835C19.7358 14.7363 19.8122 14.9307 19.8122 15.1668C19.8122 15.4029 19.7358 15.5974 19.583 15.7502L16.583 18.7502C16.4997 18.8335 16.4094 18.8924 16.3122 18.9268C16.215 18.9618 16.1108 18.9793 15.9997 18.9793ZM10.9997 22.6668C10.5413 22.6668 10.1491 22.5038 9.82301 22.1777C9.49634 21.851 9.33301 21.4585 9.33301 21.0002V19.3335C9.33301 19.0974 9.41273 18.8993 9.57217 18.7393C9.73217 18.5799 9.93023 18.5002 10.1663 18.5002C10.4025 18.5002 10.6005 18.5799 10.7605 18.7393C10.92 18.8993 10.9997 19.0974 10.9997 19.3335V21.0002H20.9997V19.3335C20.9997 19.0974 21.0797 18.8993 21.2397 18.7393C21.3991 18.5799 21.5969 18.5002 21.833 18.5002C22.0691 18.5002 22.2669 18.5799 22.4263 18.7393C22.5863 18.8993 22.6663 19.0974 22.6663 19.3335V21.0002C22.6663 21.4585 22.5033 21.851 22.1772 22.1777C21.8505 22.5038 21.458 22.6668 20.9997 22.6668H10.9997Z" fill="black" fill-opacity="0.7"/>
</g>
</g>
</svg>
