<svg width="22" height="17" viewBox="0 0 22 17" fill="none" xmlns="http://www.w3.org/2000/svg">
<g id="flag">
<rect id="Rectangle 34624218" x="0.5" y="1" width="21" height="16" fill="white"/>
<g id="Clip path group">
<mask id="mask0_700_27408" style="mask-type:luminance" maskUnits="userSpaceOnUse" x="0" y="0" width="22" height="17">
<g id="a">
<path id="Vector" d="M0.611328 0.833008H21.6124V16.833H0.611328V0.833008Z" fill="white"/>
</g>
</mask>
<g mask="url(#mask0_700_27408)">
<g id="Group">
<path id="Vector_2" fill-rule="evenodd" clip-rule="evenodd" d="M0.611328 0.833008H21.6154V16.833H0.611328V0.833008Z" fill="white"/>
<g id="Group_2">
<g id="c">
<path id="b" fill-rule="evenodd" clip-rule="evenodd" d="M2.91211 5.68555L5.08989 2.36423L5.63759 2.73575L3.45981 6.05707L2.91211 5.68555ZM3.73366 6.24283L5.91144 2.92151L6.45914 3.29303L4.28136 6.61435L3.73366 6.24283ZM4.55521 6.80011L6.73299 3.47879L7.28069 3.85031L5.10291 7.17163L4.55521 6.80011Z" fill="#000001"/>
<path id="b_2" fill-rule="evenodd" clip-rule="evenodd" d="M14.9238 13.8232L17.1016 10.5019L17.6493 10.8734L15.4715 14.1948L14.9238 13.8232ZM15.7454 14.3805L17.9232 11.0592L18.4709 11.4307L16.2931 14.752L15.7454 14.3805ZM16.5669 14.9378L18.7447 11.6165L19.2924 11.988L17.1146 15.3093L16.5669 14.9378Z" fill="#000001"/>
</g>
<g id="Vector_3">
<path fill-rule="evenodd" clip-rule="evenodd" d="M15.7432 11.981L18.473 13.8304L15.7432 11.981Z" fill="black"/>
<path d="M15.7432 11.981L18.473 13.8304" stroke="white" stroke-width="1.25"/>
</g>
<path id="Vector_4" fill-rule="evenodd" clip-rule="evenodd" d="M7.82617 6.60596C8.40297 5.72642 9.30179 5.11733 10.3249 4.9127C11.348 4.70806 12.4116 4.92463 13.2817 5.51477C14.1519 6.10492 14.7572 7.02028 14.9646 8.05951C15.172 9.09873 14.9645 10.1767 14.3877 11.0562L7.82617 6.60596Z" fill="#CD2E3A"/>
<path id="Vector_5" fill-rule="evenodd" clip-rule="evenodd" d="M7.8175 6.61282C7.24041 7.49289 7.03279 8.5715 7.24031 9.61136C7.44782 10.6512 8.05347 11.5671 8.92403 12.1576C9.79458 12.7481 10.8587 12.9648 11.8824 12.7601C12.906 12.5553 13.8053 11.9459 14.3823 11.0658C14.6709 10.6258 14.7747 10.0864 14.6709 9.56652C14.5672 9.04659 14.2644 8.58863 13.8291 8.29338C13.3938 7.99813 12.8617 7.88978 12.3499 7.99216C11.8381 8.09454 11.3885 8.39927 11.0999 8.8393L7.8175 6.61282Z" fill="#0047A0"/>
<path id="Vector_6" d="M11.1065 8.841C11.7076 7.92428 11.4598 6.68249 10.553 6.0674C9.64624 5.45231 8.42386 5.69683 7.82276 6.61356C7.22166 7.53028 7.46947 8.77207 8.37625 9.38716C9.28303 10.0022 10.5054 9.75773 11.1065 8.841Z" fill="#CD2E3A"/>
</g>
<g id="Group_3">
<g id="c_2">
<path id="b_3" fill-rule="evenodd" clip-rule="evenodd" d="M5.09863 15.311L2.92085 11.9897L3.46856 11.6182L5.64633 14.9395L5.09863 15.311ZM5.92018 14.7538L3.74241 11.4324L4.29011 11.0609L6.46788 14.3822L5.92018 14.7538ZM6.74174 14.1965L4.56396 10.8752L5.11166 10.5036L7.28944 13.8249L6.74174 14.1965Z" fill="#000001"/>
<path id="b_4" fill-rule="evenodd" clip-rule="evenodd" d="M17.1104 7.17334L14.9326 3.85202L15.4803 3.4805L17.6581 6.80182L17.1104 7.17334ZM17.9319 6.61606L15.7541 3.29474L16.3018 2.92322L18.4796 6.24454L17.9319 6.61606ZM18.7535 6.05878L16.5757 2.73746L17.1234 2.36594L19.3012 5.68725L18.7535 6.05878Z" fill="#000001"/>
</g>
<g id="Vector_7">
<path fill-rule="evenodd" clip-rule="evenodd" d="M4.69629 13.1851L5.51524 12.6302L4.69629 13.1851ZM15.7522 5.69466L16.7076 5.04734L15.7522 5.69466ZM17.5266 4.49249L18.3455 3.93765L17.5266 4.49249Z" fill="black"/>
<path d="M4.69629 13.1851L5.51524 12.6302M15.7522 5.69466L16.7076 5.04734M17.5266 4.49249L18.3455 3.93765" stroke="white" stroke-width="1.25"/>
</g>
</g>
</g>
</g>
</g>
</g>
</svg>
