<svg width="32" height="32" viewBox="0 0 32 32" fill="none" xmlns="http://www.w3.org/2000/svg">
<g id="&#235;&#160;&#136;&#236;&#157;&#180;&#236;&#150;&#180;">
<path id="Vector" d="M16.1667 11.75C15.5036 11.75 14.8677 12.0134 14.3989 12.4822C13.9301 12.9511 13.6667 13.587 13.6667 14.25C13.6667 14.913 13.9301 15.5489 14.3989 16.0178C14.8677 16.4866 15.5036 16.75 16.1667 16.75C16.8297 16.75 17.4656 16.4866 17.9344 16.0178C18.4033 15.5489 18.6667 14.913 18.6667 14.25C18.6667 13.587 18.4033 12.9511 17.9344 12.4822C17.4656 12.0134 16.8297 11.75 16.1667 11.75ZM16.1667 18.4167C15.0616 18.4167 14.0018 17.9777 13.2204 17.1963C12.439 16.4149 12 15.3551 12 14.25C12 13.1449 12.439 12.0851 13.2204 11.3037C14.0018 10.5223 15.0616 10.0833 16.1667 10.0833C17.2717 10.0833 18.3315 10.5223 19.1129 11.3037C19.8943 12.0851 20.3333 13.1449 20.3333 14.25C20.3333 15.3551 19.8943 16.4149 19.1129 17.1963C18.3315 17.9777 17.2717 18.4167 16.1667 18.4167ZM16.1667 8C12.1167 8 8.48333 10.5 7 14.25C8.99167 19.3167 14.7083 21.8 19.775 19.8083C22.3167 18.8083 24.3333 16.8 25.3333 14.25C23.85 10.5 20.2167 8 16.1667 8ZM12 22.5833H13.6667V24.25H12V22.5833ZM15.3333 22.5833H17V24.25H15.3333V22.5833ZM18.6667 22.5833H20.3333V24.25H18.6667V22.5833Z" fill="black" fill-opacity="0.7"/>
</g>
</svg>
