<svg width="32" height="32" viewBox="0 0 32 32" fill="none" xmlns="http://www.w3.org/2000/svg">
<g id="&#235;&#157;&#188;&#236;&#157;&#180;&#235;&#184;&#140;&#235;&#167;&#181;">
<g id="map-legend">
<path id="Vector" d="M13 7L7.36 8.9C7.15 8.97 7 9.15 7 9.38V24.5C7 24.6326 7.05268 24.7598 7.14645 24.8536C7.24021 24.9473 7.36739 25 7.5 25L7.66 24.97L13 22.9L19 25L24.64 23.1C24.85 23.03 25 22.85 25 22.62V7.5C25 7.36739 24.9473 7.24021 24.8536 7.14645C24.7598 7.05268 24.6326 7 24.5 7L24.34 7.03L19 9.1L13 7ZM12 9.45V21.15L9 22.31V10.46L12 9.45ZM14 9.47L18 10.87V22.53L14 21.13V9.47ZM23 9.7V21.54L20 22.55V10.86L23 9.7ZM11.46 10.3L9.57 10.97V13.12L11.46 12.45V10.3ZM11.46 13.05L9.57 13.72V15.87L11.46 15.2V13.05ZM11.46 15.8L9.57 16.47V18.62L11.46 17.95V15.8ZM11.46 18.55L9.57 19.22V21.37L11.46 20.7V18.55Z" fill="white" fill-opacity="0.8"/>
</g>
</g>
</svg>
