<svg width="32" height="32" viewBox="0 0 32 32" fill="none" xmlns="http://www.w3.org/2000/svg">
<g id="&#236;&#130;&#172;&#236;&#154;&#169;&#236;&#158;&#144;">
<g id="account">
<path id="Vector" d="M16 7C17.1935 7 18.3381 7.47411 19.182 8.31802C20.0259 9.16193 20.5 10.3065 20.5 11.5C20.5 12.6935 20.0259 13.8381 19.182 14.682C18.3381 15.5259 17.1935 16 16 16C14.8065 16 13.6619 15.5259 12.818 14.682C11.9741 13.8381 11.5 12.6935 11.5 11.5C11.5 10.3065 11.9741 9.16193 12.818 8.31802C13.6619 7.47411 14.8065 7 16 7ZM16 18.25C20.9725 18.25 25 20.2638 25 22.75V25H7V22.75C7 20.2638 11.0275 18.25 16 18.25Z" fill="white" fill-opacity="0.5"/>
</g>
</g>
</svg>
