<svg width="32" height="32" viewBox="0 0 32 32" fill="none" xmlns="http://www.w3.org/2000/svg">
<g id="&#236;&#180;&#136;&#234;&#184;&#176;&#237;&#153;&#148;">
<g id="Group 1261160057">
<path id="Vector" d="M16.833 8.5C14.8439 8.5 12.9362 9.29018 11.5297 10.6967C10.1232 12.1032 9.33301 14.0109 9.33301 16H6.83301L10.0747 19.2417L10.133 19.3583L13.4997 16H10.9997C10.9997 14.4529 11.6143 12.9692 12.7082 11.8752C13.8022 10.7812 15.2859 10.1667 16.833 10.1667C18.3801 10.1667 19.8638 10.7812 20.9578 11.8752C22.0518 12.9692 22.6663 14.4529 22.6663 16C22.6663 17.5471 22.0518 19.0308 20.9578 20.1248C19.8638 21.2188 18.3801 21.8333 16.833 21.8333C15.2247 21.8333 13.7663 21.175 12.7163 20.1167L11.533 21.3C12.8913 22.6667 14.7497 23.5 16.833 23.5C18.8221 23.5 20.7298 22.7098 22.1363 21.3033C23.5428 19.8968 24.333 17.9891 24.333 16C24.333 14.0109 23.5428 12.1032 22.1363 10.6967C20.7298 9.29018 18.8221 8.5 16.833 8.5Z" fill="black" fill-opacity="0.7"/>
</g>
</g>
</svg>
