<svg width="32" height="32" viewBox="0 0 32 32" fill="none" xmlns="http://www.w3.org/2000/svg">
<g id="&#236;&#139;&#172;&#235;&#179;&#188;">
<g id="emblem">
<path id="Vector" d="M7.33398 9.33333V17.7613C7.33398 18.2551 7.6632 19.3745 8.18995 20.4609C8.69082 21.6674 9.39206 22.7804 10.264 23.7531C11.1796 24.7026 12.2208 25.5222 13.3587 26.1893C14.1663 26.6717 14.8892 27.2834 15.4986 28C16.1232 27.2859 16.8564 26.6749 17.6714 26.1893C18.8034 25.5136 19.8435 24.6947 20.7661 23.7531C21.7537 22.7325 22.478 21.251 22.8402 20.4609C23.2023 19.6708 23.6961 18.2551 23.6961 17.7613V9.33333L15.4986 4L7.33398 9.33333Z" fill="#001A60"/>
<path id="Vector_2" d="M23.2673 9.59695H23.3332L15.4978 4.42822L7.69531 9.5311V17.7616C7.69531 18.5846 8.91342 21.8439 10.5266 23.5229C11.4307 24.4299 12.4488 25.2157 13.5554 25.8603C14.2753 26.3043 14.9291 26.8474 15.4978 27.4735C16.0871 26.8563 16.7506 26.3145 17.4731 25.8603C18.5797 25.2157 19.5978 24.4299 20.5019 23.5229C22.1151 21.8439 23.3332 18.5846 23.3332 17.7616V9.56403H23.2673V9.59695Z" fill="url(#paint0_radial_7996_211552)"/>
<path id="Vector_3" d="M8.25488 9.89308V17.8272C8.38332 18.6412 8.63884 19.43 9.01208 20.1647C9.48735 21.2674 10.1316 22.2892 10.9216 23.1935C11.8006 24.0689 12.7848 24.8319 13.8516 25.4651C14.4453 25.8193 14.9975 26.2389 15.4977 26.7161C16.0167 26.2471 16.5788 25.8282 17.1767 25.4651C18.2435 24.8319 19.2277 24.0689 20.1067 23.1935C20.8967 22.2892 21.5409 21.2674 22.0162 20.1647C22.3729 19.4233 22.6276 18.637 22.7734 17.8272V9.89308L15.4977 5.15234L8.25488 9.89308Z" fill="url(#paint1_linear_7996_211552)"/>
<path id="Vector_4" d="M7.69531 9.5311H7.76116L15.4978 4.55991V4.42822L7.69531 9.5311Z" fill="#FEDA5D"/>
<path id="Vector_5" d="M23.2666 9.59695H23.3325L15.4971 4.42822V4.55991L23.2666 9.59695Z" fill="#DFB840"/>
<path id="Vector_6" d="M22.8057 9.89286L22.9374 9.82702L15.4971 4.95459V5.15212L22.8057 9.89286Z" fill="#D39428"/>
<path id="Vector_7" d="M8.08984 9.7941L8.22153 9.85994L15.4973 5.15212V4.95459L8.08984 9.7941Z" fill="#D39428"/>
<path id="Vector_8" d="M13.8182 25.4979C12.7484 24.8838 11.7727 24.1188 10.9211 23.2263C9.40672 21.679 8.22153 18.5843 8.22153 17.8601V9.89299L8.08984 9.82715V17.8271C8.08984 18.1893 8.35322 19.1111 8.87997 20.2634C9.3562 21.373 10.0125 22.3964 10.8224 23.2922C11.6916 24.1879 12.6771 24.963 13.7524 25.5967C14.3833 25.9917 14.9685 26.4555 15.4973 26.9794V26.8148C14.9921 26.3105 14.4284 25.8684 13.8182 25.4979Z" fill="#FEDA5D"/>
<path id="Vector_9" d="M13.8182 25.4979C12.7484 24.8838 11.7727 24.1188 10.9211 23.2263C9.40672 21.679 8.22153 18.5843 8.22153 17.8601V9.89299L8.08984 9.82715V17.8271C8.08984 18.1893 8.35322 19.1111 8.87997 20.2634C9.3562 21.373 10.0125 22.3964 10.8224 23.2922C11.6916 24.1879 12.6771 24.963 13.7524 25.5967C14.3833 25.9917 14.9685 26.4555 15.4973 26.9794V26.8148C14.9921 26.3105 14.4284 25.8684 13.8182 25.4979Z" fill="url(#paint2_linear_7996_211552)"/>
<path id="Vector_10" d="M22.8057 17.8601C22.8057 18.5843 21.6205 21.679 20.1061 23.2263C19.2407 24.1034 18.2672 24.8667 17.209 25.4979C16.5939 25.8759 16.0202 26.3173 15.4971 26.8148V26.9794C16.044 26.4627 16.6394 25.9996 17.2748 25.5967C18.3502 24.963 19.3356 24.1879 20.2049 23.2922C21.0036 22.3879 21.6586 21.3664 22.1473 20.2634C22.674 19.1111 22.9374 18.1893 22.9374 17.8271V9.82715L22.8057 9.89299V17.8601Z" fill="#FEDA5D"/>
<path id="Vector_11" d="M12.8311 7.81911H13.1603C13.274 7.81065 13.3878 7.83341 13.4895 7.88495C13.5527 7.91227 13.6058 7.95873 13.6412 8.01779C13.6767 8.07685 13.6927 8.14553 13.687 8.21417C13.6809 8.2887 13.6567 8.36061 13.6165 8.42371C13.5764 8.4868 13.5215 8.53917 13.4566 8.57631H13.0944V9.03722H12.8311V7.81911ZM13.0944 8.01664V8.4117H13.2261C13.2568 8.41431 13.2876 8.40972 13.3162 8.39828C13.3448 8.38685 13.3703 8.3689 13.3907 8.34586V8.21417C13.3907 8.08248 13.3578 8.01664 13.2261 8.01664H13.0944Z" fill="white"/>
<path id="Vector_12" d="M14.3116 7.81885C14.6409 7.81885 14.8384 8.0493 14.8384 8.44436C14.8468 8.55248 14.8269 8.66091 14.7807 8.75903C14.7346 8.85715 14.6637 8.94158 14.575 9.00403C14.4978 9.0564 14.4045 9.07973 14.3116 9.06988C14.2371 9.07953 14.1614 9.0694 14.0921 9.0405C14.0227 9.01161 13.9622 8.96497 13.9166 8.90527C13.8239 8.76995 13.7777 8.6082 13.7849 8.44436C13.777 8.33158 13.7969 8.21858 13.8428 8.11527C13.8887 8.01196 13.9593 7.92148 14.0483 7.85177L14.3116 7.81885ZM14.3116 7.98346C14.2699 7.98542 14.2294 7.99871 14.1946 8.02191C14.1598 8.04511 14.132 8.07734 14.1141 8.11514C14.0667 8.21821 14.0441 8.33098 14.0483 8.44436C14.0483 8.64189 14.0812 8.77358 14.18 8.83942H14.3116C14.4763 8.83942 14.5421 8.70774 14.5421 8.41144C14.5518 8.31146 14.5406 8.21056 14.5092 8.11514C14.495 8.07475 14.468 8.04007 14.4324 8.01632C14.3968 7.99256 14.3544 7.98103 14.3116 7.98346Z" fill="white"/>
<path id="Vector_13" d="M15.0039 7.81885H15.2673V8.83942H15.6953V9.06988H15.0368L15.0039 7.81885Z" fill="white"/>
<path id="Vector_14" d="M15.8594 7.81885H16.1227V9.06988H15.8594V7.81885Z" fill="white"/>
<path id="Vector_15" d="M17.177 7.88488L17.0453 8.04949L16.8478 7.98365L16.6503 8.08241C16.593 8.18203 16.5699 8.29765 16.5844 8.41163C16.573 8.52247 16.5842 8.63447 16.6173 8.74085C16.6406 8.78124 16.6743 8.81471 16.7148 8.83785C16.7552 8.86098 16.8012 8.87295 16.8478 8.87254H17.0453C17.0453 8.86381 17.0488 8.85543 17.055 8.84926C17.0611 8.84308 17.0695 8.83962 17.0782 8.83962L17.177 9.00422C17.0803 9.07086 16.9652 9.10541 16.8478 9.10299C16.7733 9.11264 16.6976 9.10251 16.6282 9.07361C16.5589 9.04472 16.4983 8.99808 16.4527 8.93838C16.3457 8.8217 16.2868 8.66875 16.2881 8.5104C16.2806 8.37178 16.315 8.23412 16.3869 8.11534C16.4202 8.04493 16.4687 7.98279 16.529 7.9334C16.5892 7.884 16.6597 7.84859 16.7352 7.82969C16.8108 7.8108 16.8896 7.8089 16.966 7.82414C17.0424 7.83938 17.1145 7.87137 17.177 7.91781V7.88488Z" fill="white"/>
<path id="Vector_16" d="M17.3418 7.81885H18.0661V8.01638H17.6052V8.31267H17.9344V8.51021H17.6052V8.83942H18.0661V9.06988H17.3418V7.81885Z" fill="white"/>
<path id="Vector_17" d="M16.4521 12.3622C16.4562 12.4474 16.4775 12.5309 16.515 12.6075C16.5524 12.6841 16.6051 12.7523 16.6699 12.8078C16.7346 12.8633 16.8101 12.9049 16.8915 12.9302C16.973 12.9555 17.0587 12.9639 17.1435 12.9548C17.2257 12.9592 17.3079 12.9474 17.3855 12.92C17.4631 12.8926 17.5345 12.8502 17.5957 12.7951C17.6569 12.7401 17.7066 12.6735 17.742 12.5992C17.7773 12.5249 17.7977 12.4444 17.8019 12.3622C17.7935 12.1934 17.7204 12.0342 17.5978 11.9178C17.4753 11.8013 17.3126 11.7365 17.1435 11.7367C17.057 11.7323 16.9705 11.7449 16.8889 11.774C16.8073 11.8031 16.7323 11.8479 16.668 11.906C16.6038 11.9641 16.5517 12.0343 16.5147 12.1126C16.4776 12.1909 16.4564 12.2757 16.4521 12.3622ZM16.8472 12.3622C16.8317 12.3176 16.827 12.2698 16.8337 12.223C16.8404 12.1762 16.8582 12.1317 16.8855 12.0932C16.9129 12.0546 16.9491 12.0232 16.9912 12.0015C17.0332 11.9799 17.0798 11.9685 17.127 11.9685C17.1743 11.9685 17.2209 11.9799 17.2629 12.0015C17.3049 12.0232 17.3412 12.0546 17.3685 12.0932C17.3959 12.1317 17.4137 12.1762 17.4204 12.223C17.427 12.2698 17.4224 12.3176 17.4069 12.3622C17.4224 12.4069 17.427 12.4546 17.4204 12.5014C17.4137 12.5482 17.3959 12.5927 17.3685 12.6313C17.3412 12.6698 17.3049 12.7012 17.2629 12.7229C17.2209 12.7446 17.1743 12.7559 17.127 12.7559C17.0798 12.7559 17.0332 12.7446 16.9912 12.7229C16.9491 12.7012 16.9129 12.6698 16.8855 12.6313C16.8582 12.5927 16.8404 12.5482 16.8337 12.5014C16.827 12.4546 16.8317 12.4069 16.8472 12.3622Z" fill="white"/>
<path id="Vector_18" d="M17.5062 10.2554V10.6504H17.0123V10.3871H15.893V10.6504H16.6173V10.7163C16.6186 10.8106 16.5986 10.9041 16.5586 10.9896C16.5187 11.0751 16.46 11.1505 16.3868 11.2101C16.2333 11.3556 16.0371 11.4479 15.8271 11.4735L16.0247 11.7039C16.2894 11.6647 16.5331 11.5371 16.716 11.3418C16.8298 11.2169 16.9192 11.0717 16.9794 10.9138H17.5062V11.1113H16.9794V11.3747H17.5062V11.671H17.9012V10.2554H17.5062Z" fill="white"/>
<path id="Vector_19" d="M10.6244 10.2222V10.6172H10.0977V10.8806H10.2952C10.2576 10.9752 10.2354 11.0753 10.2293 11.1769C10.2293 11.3341 10.2918 11.4848 10.4029 11.5959C10.514 11.7071 10.6648 11.7695 10.8219 11.7695C10.9791 11.7695 11.1298 11.7071 11.241 11.5959C11.3521 11.4848 11.4145 11.3341 11.4145 11.1769C11.4123 11.0704 11.3779 10.9671 11.3158 10.8806H11.5133V10.6172H11.0195V10.2222H10.6244ZM10.6244 11.2098C10.6244 11.0123 10.7232 10.8806 10.8219 10.8806C10.9207 10.8806 11.0195 11.0123 11.0195 11.2098C11.0195 11.4074 10.9207 11.5061 10.8219 11.5061C10.7232 11.5061 10.6244 11.3744 10.6244 11.2098Z" fill="white"/>
<path id="Vector_20" d="M12.172 10.2554V11.0455H11.9744V10.2554H11.6123V12.8891H11.9744V11.3418H12.172V12.8891H12.5012V10.2554H12.172Z" fill="white"/>
<path id="Vector_21" d="M14.6084 10.2554V11.671H15.0035V11.3747H15.3656V11.0784H15.0035V10.848H15.3656V10.5846H15.0035V10.2554H14.6084Z" fill="white"/>
<path id="Vector_22" d="M13.5549 12.3619C13.5416 12.5007 13.5706 12.6402 13.6381 12.7622C13.7055 12.8842 13.8083 12.983 13.9329 13.0456C14.0575 13.1081 14.198 13.1316 14.3362 13.1128C14.4743 13.094 14.6036 13.0339 14.707 12.9404C14.8103 12.8469 14.883 12.7243 14.9155 12.5887C14.9479 12.4531 14.9386 12.3109 14.8888 12.1807C14.839 12.0505 14.751 11.9384 14.6363 11.8591C14.5216 11.7798 14.3857 11.737 14.2463 11.7364C14.1588 11.7271 14.0703 11.7364 13.9866 11.7637C13.903 11.7909 13.826 11.8355 13.7607 11.8946C13.6955 11.9536 13.6434 12.0258 13.608 12.1063C13.5725 12.1868 13.5544 12.2739 13.5549 12.3619ZM13.95 12.3619C13.95 12.323 13.9576 12.2845 13.9725 12.2485C13.9874 12.2126 14.0092 12.1799 14.0367 12.1524C14.0643 12.1249 14.0969 12.103 14.1329 12.0882C14.1688 12.0733 14.2073 12.0656 14.2463 12.0656C14.2852 12.0656 14.3237 12.0733 14.3596 12.0882C14.3956 12.103 14.4283 12.1249 14.4558 12.1524C14.4833 12.1799 14.5051 12.2126 14.52 12.2485C14.5349 12.2845 14.5426 12.323 14.5426 12.3619C14.5426 12.4008 14.5349 12.4393 14.52 12.4753C14.5051 12.5112 14.4833 12.5439 14.4558 12.5714C14.4283 12.5989 14.3956 12.6208 14.3596 12.6356C14.3237 12.6505 14.2852 12.6582 14.2463 12.6582C14.2073 12.6582 14.1688 12.6505 14.1329 12.6356C14.0969 12.6208 14.0643 12.5989 14.0367 12.5714C14.0092 12.5439 13.9874 12.5112 13.9725 12.4753C13.9576 12.4393 13.95 12.4008 13.95 12.3619Z" fill="white"/>
<path id="Vector_23" d="M12.9951 10.9465C12.9951 11.1212 13.0645 11.2886 13.188 11.4121C13.3114 11.5356 13.4789 11.605 13.6536 11.605C13.8282 11.605 13.9957 11.5356 14.1191 11.4121C14.2426 11.2886 14.312 11.1212 14.312 10.9465C14.312 10.7719 14.2426 10.6044 14.1191 10.4809C13.9957 10.3575 13.8282 10.2881 13.6536 10.2881C13.4789 10.2881 13.3114 10.3575 13.188 10.4809C13.0645 10.6044 12.9951 10.7719 12.9951 10.9465ZM13.3902 10.9465C13.3902 10.8767 13.4179 10.8097 13.4673 10.7603C13.5167 10.7109 13.5837 10.6831 13.6536 10.6831C13.7234 10.6831 13.7904 10.7109 13.8398 10.7603C13.8892 10.8097 13.9169 10.8767 13.9169 10.9465C13.9169 11.0164 13.8892 11.0834 13.8398 11.1328C13.7904 11.1821 13.7234 11.2099 13.6536 11.2099C13.5837 11.2099 13.5167 11.1821 13.4673 11.1328C13.4179 11.0834 13.3902 11.0164 13.3902 10.9465Z" fill="white"/>
<path id="Vector_24" d="M20.1396 10.2554V11.671H20.5347V11.0784H20.8968V10.7821H20.5347V10.2554H20.1396Z" fill="white"/>
<path id="Vector_25" d="M18.9555 10.2224V10.5187H18.4946V10.815H18.9555C18.9511 10.8908 18.9313 10.9649 18.8973 11.0328C18.8634 11.1007 18.8159 11.161 18.7579 11.21C18.7173 11.2586 18.6671 11.2983 18.6105 11.3266C18.5538 11.3549 18.492 11.3713 18.4287 11.3746L18.5275 11.5063L18.6262 11.6051C18.8459 11.5457 19.0345 11.4043 19.153 11.21C19.153 11.1771 19.153 11.1771 19.1859 11.1771H19.2188C19.3441 11.3652 19.53 11.5046 19.7456 11.5722C19.803 11.4885 19.8692 11.4112 19.9431 11.3417C19.8115 11.3149 19.6877 11.2586 19.581 11.1771C19.4773 11.068 19.4086 10.9304 19.3834 10.782H19.8443V10.4857H19.3834V10.1895L18.9555 10.2224Z" fill="white"/>
<path id="Vector_26" d="M18.8545 11.8022V12.0327H20.1384V12.2302H18.8545V12.6582C18.8545 12.8228 18.9203 12.8887 19.0849 12.8887H20.5664V12.6582H19.2825V12.4936H20.5006C20.5335 12.4936 20.5335 12.4936 20.5335 12.4607V11.8352H18.8545V11.8022Z" fill="white"/>
<path id="Vector_27" d="M15.4978 27.3745L15.399 27.2428C14.8474 26.708 14.2404 26.2335 13.5883 25.8271C12.4787 25.2017 11.4689 24.4138 10.5924 23.4897C9.6377 22.535 8.94634 21.1193 8.5842 20.3621C8.22206 19.6049 7.76116 18.2551 7.76116 17.7942V9.59668H7.69531V17.7613C7.69531 18.5843 8.91342 21.8436 10.5266 23.5226C11.4307 24.4297 12.4488 25.2154 13.5554 25.8601C14.2753 26.3041 14.9292 26.8471 15.4978 27.4732V27.3745Z" fill="url(#paint3_linear_7996_211552)"/>
<path id="Vector_28" d="M15.4971 27.3745L15.6288 27.2428C16.1804 26.708 16.7874 26.2335 17.4395 25.8271C18.5433 25.1931 19.5519 24.4062 20.4353 23.4897C21.2556 22.5521 21.9323 21.4981 22.4436 20.3621C22.9045 19.2757 23.2666 18.2551 23.2666 17.7942V9.59668H23.3325V17.7613C23.3325 18.5843 22.1144 21.8436 20.5012 23.5226C19.5971 24.4297 18.579 25.2154 17.4724 25.8601C16.7499 26.3142 16.0864 26.856 15.4971 27.4732V27.3745Z" fill="#D39428"/>
<path id="Vector_29" d="M15.4974 5.15234L8.22168 9.89308V17.8602C8.22168 18.5844 9.40687 21.6791 10.9213 23.2264C11.7728 24.1189 12.7486 24.8839 13.8184 25.498C14.4285 25.8685 14.9922 26.3106 15.4974 26.8149C16.0205 26.3174 16.5943 25.876 17.2093 25.498C18.2675 24.8668 19.2411 24.1035 20.1065 23.2264C21.6209 21.6791 22.806 18.5844 22.806 17.8602V9.89308L15.4974 5.15234ZM22.7073 17.8602C22.7073 18.5844 21.5221 21.6462 20.0406 23.1606C19.189 24.053 18.2133 24.8181 17.1435 25.4322C16.5507 25.7877 15.9987 26.2072 15.4974 26.6832C15.0075 26.208 14.4665 25.7884 13.8842 25.4322C12.8144 24.8181 11.8387 24.053 10.9871 23.1606C9.47271 21.6462 8.32044 18.5844 8.32044 17.8602V9.95893L15.4974 5.25111L22.7073 9.95893V17.8602Z" fill="#000044"/>
<path id="Vector_30" d="M15.4981 16.9385C14.9577 16.9385 14.4294 17.0987 13.98 17.399C13.5307 17.6992 13.1804 18.126 12.9736 18.6253C12.7668 19.1246 12.7127 19.674 12.8181 20.2041C12.9236 20.7341 13.1838 21.221 13.566 21.6032C13.9481 21.9853 14.435 22.2456 14.9651 22.351C15.4951 22.4564 16.0445 22.4023 16.5438 22.1955C17.0431 21.9887 17.4699 21.6384 17.7701 21.1891C18.0704 20.7397 18.2306 20.2114 18.2306 19.671C18.2306 18.9463 17.9428 18.2513 17.4303 17.7388C16.9179 17.2264 16.2228 16.9385 15.4981 16.9385Z" fill="#FFD900"/>
<path id="Vector_31" d="M11.3164 19.5718C11.4937 19.7029 11.6985 19.7917 11.9153 19.8317C12.1321 19.8716 12.3551 19.8616 12.5674 19.8022V19.6706C12.5713 19.3456 12.6269 19.0233 12.732 18.7158C12.3271 19.0995 11.8443 19.3914 11.3164 19.5718Z" fill="url(#paint4_linear_7996_211552)"/>
<path id="Vector_32" d="M11.1514 19.9669C11.2347 20.6964 11.4347 21.4078 11.744 22.0739C11.7576 22.1055 11.7808 22.132 11.8104 22.1497C11.8399 22.1674 11.8742 22.1754 11.9086 22.1726C12.4043 22.0922 12.8637 21.8625 13.2254 21.5142C12.862 21.085 12.633 20.5583 12.567 19.9998C12.0867 20.1067 11.584 20.0366 11.1514 19.8022V19.9339V19.9669Z" fill="#FFD900"/>
<path id="Vector_33" d="M13.4226 24.181C13.9494 23.753 14.2457 22.6666 14.3444 22.3703C13.9582 22.2182 13.6179 21.9687 13.3568 21.646C12.9691 22.0434 12.4588 22.2986 11.9082 22.3703C12.2406 23.0446 12.686 23.657 13.2251 24.181C13.2374 24.195 13.2526 24.2062 13.2697 24.2139C13.2867 24.2216 13.3052 24.2256 13.3238 24.2256C13.3425 24.2256 13.361 24.2216 13.378 24.2139C13.3951 24.2062 13.4102 24.195 13.4226 24.181Z" fill="#FFD900"/>
<path id="Vector_34" d="M13.2258 17.7942C13.3134 17.6924 13.3906 17.5821 13.4562 17.465L12.9953 17.3662H12.8966C12.2711 17.893 11.2834 18.716 10.1641 18.9794C10.328 19.1764 10.5513 19.3149 10.8006 19.3743C11.0499 19.4336 11.3117 19.4106 11.5468 19.3086C12.1368 19.007 12.6536 18.58 13.0612 18.0576L13.2258 17.7942Z" fill="url(#paint5_linear_7996_211552)"/>
<path id="Vector_35" d="M17.6044 24.181C17.6134 24.1946 17.6257 24.2057 17.64 24.2134C17.6544 24.2211 17.6704 24.2251 17.6867 24.2251C17.703 24.2251 17.7191 24.2211 17.7334 24.2134C17.7478 24.2057 17.76 24.1946 17.769 24.181C18.3285 23.6674 18.7864 23.0531 19.1188 22.3703C18.5643 22.3121 18.0496 22.0547 17.6703 21.646C17.3993 21.9582 17.0618 22.2057 16.6826 22.3703C16.7485 22.6666 17.0777 23.753 17.6044 24.181Z" fill="#FFD900"/>
<path id="Vector_36" d="M15.7607 22.6006V22.8311C15.7937 23.4566 15.7937 25.2015 15.8924 25.4978C16.4743 25.2193 17.0167 24.8651 17.5056 24.4443C17.2751 24.2467 16.8472 23.7858 16.4521 22.436C16.2324 22.5291 15.9988 22.5847 15.7607 22.6006Z" fill="#FFD900"/>
<path id="Vector_37" d="M19.2832 22.0741C19.5776 21.4027 19.777 20.6936 19.8758 19.9671V19.8354C19.4303 20.0666 18.9184 20.1364 18.4273 20.033C18.3586 20.5848 18.1425 21.108 17.8018 21.5474C18.1583 21.903 18.6202 22.1339 19.1186 22.2058L19.2832 22.0741Z" fill="#FFD900"/>
<path id="Vector_38" d="M15.1356 25.498C15.2344 25.2018 15.2344 23.4569 15.2344 22.8314V22.6009L14.576 22.4692C14.1809 23.7861 13.7529 24.2799 13.5225 24.4445C14.0113 24.8654 14.5538 25.2196 15.1356 25.498Z" fill="#FFD900"/>
<path id="Vector_39" d="M10.7238 16.3129L10.5263 16.1812C9.83496 15.6873 9.40697 15.3252 9.40697 15.3252C7.49549 14.7838 5.61598 14.1353 3.77734 13.3828C3.77734 13.3828 3.77734 15.8519 5.98311 16.247C7.56124 16.3488 9.1435 16.3708 10.7238 16.3129Z" fill="url(#paint6_linear_7996_211552)"/>
<path id="Vector_40" d="M9.50529 15.1607C9.50529 15.1607 11.316 16.9385 13.5876 17.3006L14.0814 16.6093C12.139 16.4118 10.9209 15.3253 10.0979 14.5023C9.83239 14.212 9.52097 13.9673 9.17607 13.778L2.29541 9.39941C2.29541 9.39941 1.93327 12.2307 3.77689 13.1196L3.9415 13.1854C5.75234 13.9612 7.61068 14.6209 9.50529 15.1607Z" fill="url(#paint7_linear_7996_211552)"/>
<path id="Vector_41" d="M10.9859 16.4775C9.83359 16.5434 8.28627 16.5434 6.24512 16.4775C6.40557 16.9191 6.71116 17.2931 7.11188 17.5383C7.5126 17.7835 7.98469 17.8854 8.45088 17.8273C9.61282 17.6685 10.7514 17.37 11.8418 16.9384C11.5404 16.8168 11.2533 16.6622 10.9859 16.4775Z" fill="url(#paint8_linear_7996_211552)"/>
<path id="Vector_42" d="M12.6993 17.2676L12.0409 17.0371C10.8942 17.4993 9.70264 17.8414 8.48535 18.0577C8.58982 18.3049 8.77104 18.512 9.00224 18.6484C9.23345 18.7847 9.50238 18.8431 9.7693 18.8149C10.724 18.782 11.8105 18.0577 12.6993 17.2676Z" fill="url(#paint9_linear_7996_211552)"/>
<path id="Vector_43" d="M19.7125 19.5718C19.5353 19.7029 19.3304 19.7917 19.1136 19.8317C18.8969 19.8716 18.6738 19.8616 18.4615 19.8022V19.6706C18.4576 19.3456 18.4021 19.0233 18.2969 18.7158C18.7018 19.0995 19.1847 19.3914 19.7125 19.5718Z" fill="url(#paint10_linear_7996_211552)"/>
<path id="Vector_44" d="M17.8017 17.7942C17.7141 17.6924 17.6369 17.5821 17.5713 17.465L18.0322 17.3662H18.098C18.7565 17.893 19.7441 18.716 20.8635 18.9794C20.6996 19.1764 20.4762 19.3149 20.2269 19.3743C19.9777 19.4336 19.7158 19.4106 19.4808 19.3086C18.8851 19.0157 18.3665 18.5872 17.9664 18.0576L17.8017 17.7942Z" fill="url(#paint11_linear_7996_211552)"/>
<path id="Vector_45" d="M20.2715 16.3129L20.5019 16.1812C21.1933 15.6873 21.6213 15.3252 21.6213 15.3252C23.5328 14.7838 25.4123 14.1353 27.2509 13.3828C27.2509 13.3828 27.2509 15.8519 25.0122 16.247C23.4341 16.349 21.8518 16.3709 20.2715 16.3129Z" fill="url(#paint12_linear_7996_211552)"/>
<path id="Vector_46" d="M21.5224 15.1607C21.5224 15.1607 19.7117 16.9385 17.4401 17.3006C17.2639 17.0787 17.0991 16.848 16.9463 16.6093C18.8887 16.4118 20.1068 15.3253 20.8969 14.5023C21.1781 14.2156 21.4998 13.9716 21.8516 13.778L28.7323 9.39941H28.6994C28.6994 9.39941 29.0944 12.2307 27.2508 13.1196L27.0533 13.1854C25.2538 13.9615 23.4064 14.6213 21.5224 15.1607Z" fill="url(#paint13_linear_7996_211552)"/>
<path id="Vector_47" d="M20.0415 16.4775C21.1938 16.5434 22.7411 16.5434 24.7823 16.4775H24.7493C24.5941 16.9226 24.2896 17.3003 23.8875 17.5463C23.4854 17.7924 23.0106 17.8916 22.5436 17.8273C21.3931 17.6643 20.266 17.366 19.1855 16.9384C19.487 16.8168 19.774 16.6622 20.0415 16.4775Z" fill="url(#paint14_linear_7996_211552)"/>
<path id="Vector_48" d="M18.3291 17.2676L18.9875 17.0371C20.1342 17.4993 21.3258 17.8414 22.5431 18.0577C22.4386 18.3049 22.2574 18.512 22.0262 18.6484C21.795 18.7847 21.5261 18.8431 21.2591 18.8149C20.3044 18.782 19.218 18.0577 18.3291 17.2676Z" fill="url(#paint15_linear_7996_211552)"/>
<path id="Vector_49" d="M18.2306 19.671C18.2306 20.2114 18.0704 20.7397 17.7701 21.1891C17.4699 21.6384 17.0431 21.9887 16.5438 22.1955C16.0445 22.4023 15.4951 22.4564 14.9651 22.351C14.435 22.2456 13.9481 21.9853 13.566 21.6032C13.1838 21.221 12.9236 20.7341 12.8181 20.2041C12.7127 19.674 12.7668 19.1246 12.9736 18.6253C13.1804 18.126 13.5307 17.6992 13.98 17.399C14.4294 17.0987 14.9577 16.9385 15.4981 16.9385C15.857 16.9385 16.2123 17.0092 16.5438 17.1465C16.8753 17.2838 17.1766 17.4851 17.4303 17.7388C17.6841 17.9925 17.8853 18.2938 18.0226 18.6253C18.16 18.9568 18.2306 19.3121 18.2306 19.671Z" fill="url(#paint16_linear_7996_211552)"/>
<path id="Vector_50" d="M15.4976 17.5965C15.4511 17.5887 15.409 17.5644 15.3788 17.5282C15.3486 17.492 15.3324 17.4462 15.333 17.399C15.333 17.3553 15.3504 17.3135 15.3812 17.2826C15.4121 17.2517 15.454 17.2344 15.4976 17.2344C15.5448 17.2337 15.5906 17.25 15.6269 17.2802C15.6631 17.3104 15.6873 17.3525 15.6952 17.399C15.6952 17.4514 15.6744 17.5016 15.6373 17.5387C15.6003 17.5757 15.55 17.5965 15.4976 17.5965Z" fill="#001A60"/>
<path id="Vector_51" d="M17.1096 18.2552C17.0573 18.2552 17.007 18.2344 16.97 18.1974C16.9329 18.1603 16.9121 18.1101 16.9121 18.0577C16.92 18.0112 16.9442 17.969 16.9804 17.9389C17.0167 17.9087 17.0625 17.8924 17.1096 17.8931C17.1533 17.8931 17.1952 17.9104 17.226 17.9413C17.2569 17.9722 17.2743 18.014 17.2743 18.0577C17.2749 18.1048 17.2587 18.1507 17.2285 18.1869C17.1983 18.2231 17.1561 18.2474 17.1096 18.2552Z" fill="#001A60"/>
<path id="Vector_52" d="M17.7688 19.8353C17.7217 19.8359 17.6758 19.8197 17.6396 19.7895C17.6034 19.7593 17.5791 19.7172 17.5713 19.6707C17.5713 19.6183 17.5921 19.568 17.6291 19.531C17.6662 19.494 17.7164 19.4731 17.7688 19.4731C17.8153 19.481 17.8575 19.5052 17.8877 19.5415C17.9179 19.5777 17.9341 19.6235 17.9334 19.6707C17.9334 19.7143 17.9161 19.7562 17.8852 19.7871C17.8543 19.8179 17.8125 19.8353 17.7688 19.8353Z" fill="#001A60"/>
<path id="Vector_53" d="M17.1096 21.4486C17.0573 21.4486 17.007 21.4278 16.97 21.3907C16.9329 21.3537 16.9121 21.3034 16.9121 21.2511C16.92 21.2046 16.9442 21.1624 16.9804 21.1322C17.0167 21.102 17.0625 21.0858 17.1096 21.0864C17.1533 21.0864 17.1952 21.1038 17.226 21.1347C17.2569 21.1655 17.2743 21.2074 17.2743 21.2511C17.2749 21.2982 17.2587 21.344 17.2285 21.3803C17.1983 21.4165 17.1561 21.4407 17.1096 21.4486Z" fill="#001A60"/>
<path id="Vector_54" d="M15.4976 22.1068C15.4511 22.0989 15.409 22.0747 15.3788 22.0385C15.3486 22.0022 15.3324 21.9564 15.333 21.9093C15.333 21.8656 15.3504 21.8237 15.3812 21.7929C15.4121 21.762 15.454 21.7446 15.4976 21.7446C15.5448 21.744 15.5906 21.7602 15.6269 21.7904C15.6631 21.8206 15.6873 21.8628 15.6952 21.9093C15.6952 21.9616 15.6744 22.0119 15.6373 22.0489C15.6003 22.086 15.55 22.1068 15.4976 22.1068Z" fill="#001A60"/>
<path id="Vector_55" d="M13.9163 21.4486C13.8639 21.4486 13.8136 21.4278 13.7766 21.3907C13.7396 21.3537 13.7188 21.3034 13.7188 21.2511C13.7266 21.2046 13.7508 21.1624 13.7871 21.1322C13.8233 21.102 13.8691 21.0858 13.9163 21.0864C13.9599 21.0864 14.0018 21.1038 14.0327 21.1347C14.0635 21.1655 14.0809 21.2074 14.0809 21.2511C14.0815 21.2982 14.0653 21.344 14.0351 21.3803C14.0049 21.4165 13.9628 21.4407 13.9163 21.4486Z" fill="#001A60"/>
<path id="Vector_56" d="M13.2591 19.8353C13.2119 19.8359 13.1661 19.8197 13.1298 19.7895C13.0936 19.7593 13.0694 19.7172 13.0615 19.6707C13.0615 19.6183 13.0823 19.568 13.1194 19.531C13.1564 19.494 13.2067 19.4731 13.2591 19.4731C13.3056 19.481 13.3477 19.5052 13.3779 19.5415C13.4081 19.5777 13.4243 19.6235 13.4237 19.6707C13.4237 19.7143 13.4063 19.7562 13.3755 19.7871C13.3446 19.8179 13.3027 19.8353 13.2591 19.8353Z" fill="#001A60"/>
<path id="Vector_57" d="M13.9163 18.2552C13.8639 18.2552 13.8136 18.2344 13.7766 18.1974C13.7396 18.1603 13.7188 18.1101 13.7188 18.0577C13.7266 18.0112 13.7508 17.969 13.7871 17.9389C13.8233 17.9087 13.8691 17.8924 13.9163 17.8931C13.9599 17.8931 14.0018 17.9104 14.0327 17.9413C14.0635 17.9722 14.0809 18.014 14.0809 18.0577C14.0815 18.1048 14.0653 18.1507 14.0351 18.1869C14.0049 18.2231 13.9628 18.2474 13.9163 18.2552Z" fill="#001A60"/>
<path id="Vector_58" d="M17.3082 19.7035C17.2995 20.1837 17.1003 20.6408 16.7546 20.9742C16.4089 21.3076 15.9448 21.49 15.4646 21.4813C14.9844 21.4725 14.5273 21.2734 14.1939 20.9276C13.8605 20.5819 13.6781 20.1179 13.6868 19.6376C13.7039 19.1602 13.9056 18.708 14.2495 18.3764C14.5935 18.0447 15.0527 17.8596 15.5304 17.8599C15.7696 17.8597 16.0062 17.9078 16.2263 18.0012C16.4464 18.0946 16.6454 18.2315 16.8114 18.4036C16.9774 18.5757 17.1069 18.7796 17.1923 19.0029C17.2776 19.2263 17.3171 19.4645 17.3082 19.7035Z" fill="url(#paint17_radial_7996_211552)"/>
<path id="Vector_59" d="M16.9137 19.8681C16.9137 19.0451 16.3869 18.5842 15.926 18.5842C15.8395 18.5751 15.752 18.5832 15.6686 18.6082C15.5852 18.6331 15.5076 18.6743 15.4403 18.7294C15.3729 18.7845 15.3172 18.8524 15.2762 18.9292C15.2353 19.006 15.21 19.0901 15.2017 19.1768C15.2051 19.2775 15.234 19.3757 15.2859 19.4621C15.3377 19.5485 15.4107 19.6203 15.498 19.6706C15.5841 19.6245 15.6802 19.6004 15.7779 19.6004C15.8755 19.6004 15.9716 19.6245 16.0577 19.6706C16.1934 19.7698 16.2861 19.9171 16.3167 20.0823C16.3473 20.2476 16.3135 20.4183 16.2223 20.5595C15.9589 20.9545 15.3005 21.185 14.5762 20.757C14.3765 20.6351 14.2092 20.4666 14.0888 20.2659C13.9684 20.0652 13.8985 19.8384 13.8849 19.6047C13.8714 19.8248 13.9031 20.0452 13.9781 20.2524C14.0531 20.4597 14.1698 20.6494 14.321 20.8098C14.4721 20.9702 14.6546 21.098 14.857 21.1852C15.0594 21.2723 15.2776 21.3171 15.498 21.3167C15.7535 21.3225 16.0052 21.2539 16.2223 21.1191C16.4406 20.9934 16.6203 20.8104 16.7422 20.5899C16.864 20.3694 16.9233 20.1198 16.9137 19.8681Z" fill="url(#paint18_linear_7996_211552)"/>
<path id="Vector_60" d="M14.6078 20.7903C15.3321 21.1854 16.0234 20.955 16.2539 20.527C16.3342 20.38 16.3585 20.2089 16.3221 20.0454C16.2858 19.8819 16.1914 19.7372 16.0564 19.6381C15.9684 19.5939 15.8704 19.5736 15.7721 19.5794C15.6738 19.5852 15.5788 19.6168 15.4967 19.671C15.4943 19.7676 15.4654 19.8617 15.4132 19.943C15.3609 20.0243 15.2873 20.0897 15.2004 20.1319C15.0469 20.2014 14.8726 20.2095 14.7134 20.1543C14.5541 20.0992 14.4221 19.9852 14.3444 19.8356C14.114 19.4076 14.2457 18.7163 15.0029 18.3212C15.2045 18.1986 15.4336 18.1283 15.6694 18.1168C15.9051 18.1053 16.14 18.153 16.3526 18.2554C16.1638 18.138 15.9531 18.0601 15.7333 18.0264C15.5135 17.9926 15.2891 18.0038 15.0737 18.0592C14.8584 18.1146 14.6565 18.213 14.4802 18.3486C14.3039 18.4841 14.1569 18.654 14.0481 18.848C13.9183 19.0672 13.8501 19.3174 13.8506 19.5722C13.8663 19.822 13.9437 20.0641 14.0758 20.2766C14.208 20.4892 14.3907 20.6657 14.6078 20.7903Z" fill="url(#paint19_radial_7996_211552)"/>
<path id="Vector_61" d="M14.9712 18.321C14.2469 18.7489 14.1152 19.4403 14.3457 19.8354C14.4296 19.9879 14.5656 20.1051 14.7288 20.1656C14.892 20.226 15.0716 20.2257 15.2346 20.1646C15.3138 20.1084 15.3789 20.0345 15.4246 19.9488C15.4703 19.8631 15.4954 19.7679 15.498 19.6708C15.4168 19.6165 15.3502 19.543 15.3043 19.4569C15.2584 19.3707 15.2344 19.2746 15.2346 19.1769C15.2386 19.0917 15.26 19.0083 15.2974 18.9317C15.3349 18.855 15.3876 18.7869 15.4523 18.7314C15.5171 18.6759 15.5925 18.6342 15.6739 18.6089C15.7554 18.5836 15.8411 18.5753 15.9259 18.5843C16.3868 18.5843 16.9465 19.0782 16.9136 19.9012C16.9098 20.134 16.8512 20.3627 16.7425 20.5686C16.6338 20.7745 16.4781 20.9519 16.2881 21.0864C16.6753 20.8712 16.9618 20.5117 17.0851 20.0862C17.2085 19.6607 17.1586 19.2037 16.9465 18.8148C16.8144 18.6005 16.634 18.4201 16.4198 18.288C16.1948 18.172 15.9443 18.1143 15.6913 18.12C15.4382 18.1258 15.1907 18.1949 14.9712 18.321Z" fill="url(#paint20_radial_7996_211552)"/>
<path id="Vector_62" d="M18.4609 19.8026C18.6733 19.862 18.8963 19.872 19.1131 19.8321C19.3299 19.7922 19.5347 19.7033 19.712 19.5722L19.5474 19.5063C19.3863 19.6049 19.2059 19.6677 19.0185 19.6904C18.831 19.7131 18.6409 19.6953 18.4609 19.638V19.8026Z" fill="#E49D00"/>
<path id="Vector_63" d="M27.252 13.1193C27.5599 12.9587 27.8305 12.7349 28.0461 12.4626C28.2616 12.1903 28.4173 11.8756 28.503 11.5391C28.2714 12.0365 27.892 12.4504 27.4166 12.7242C27.4166 12.7242 26.1655 13.5473 21.5236 14.93C21.5236 14.93 19.3507 17.0041 17.3096 17.1358L17.4413 17.3004C19.7129 16.9382 21.5236 15.1605 21.5236 15.1605C23.4076 14.621 25.255 13.9613 27.0544 13.1852L27.252 13.1193Z" fill="#E49D00"/>
<path id="Vector_64" d="M25.0122 16.0494C23.5307 16.1481 21.753 16.1811 20.5678 16.1482H20.5019L20.2715 16.2798C21.8518 16.3379 23.4341 16.3159 25.0122 16.214C25.3791 16.1645 25.7299 16.0321 26.038 15.8267C26.346 15.6213 26.6032 15.3485 26.79 15.0288C26.3546 15.5895 25.716 15.9562 25.0122 16.0494Z" fill="#E49D00"/>
<path id="Vector_65" d="M22.6423 17.6295C21.5354 17.4594 20.445 17.1951 19.3831 16.8394L19.1855 16.9381C20.266 17.3657 21.3931 17.664 22.5436 17.827C22.896 17.8933 23.2601 17.8572 23.5927 17.723C23.9252 17.5888 24.2124 17.3621 24.4201 17.0698C24.188 17.2953 23.9063 17.4634 23.5976 17.5606C23.2889 17.6578 22.9618 17.6814 22.6423 17.6295Z" fill="#E49D00"/>
<path id="Vector_66" d="M21.325 18.6502C20.1727 18.5515 18.9875 17.6296 18.4937 17.2017L18.3291 17.2675C19.218 18.0576 20.3044 18.7819 21.2591 18.8148C21.4796 18.828 21.7 18.7869 21.9009 18.695C22.1018 18.6032 22.2771 18.4635 22.4114 18.2881C22.2707 18.4284 22.0993 18.5341 21.9108 18.597C21.7223 18.6598 21.5217 18.678 21.325 18.6502Z" fill="#E49D00"/>
<path id="Vector_67" d="M19.6454 19.1441C18.8882 18.8807 18.1968 18.1235 17.7359 17.4321H17.5713L17.8347 17.8272C17.8676 17.8601 17.8676 17.893 17.9005 17.893C18.3042 18.4698 18.848 18.9343 19.4808 19.2428C19.6673 19.3247 19.8722 19.3557 20.0747 19.3325C20.2771 19.3094 20.4697 19.233 20.633 19.1111H20.6659C20.3432 19.2553 19.9767 19.2672 19.6454 19.1441Z" fill="#E49D00"/>
<path id="Vector_68" d="M20.9957 14.6669C21.2612 14.3766 21.5726 14.1319 21.9175 13.9426C24.7817 12.0332 26.5265 11.1113 28.7323 9.62987C28.7376 9.55159 28.7264 9.47308 28.6994 9.39941H28.7323L25.0121 11.7698L21.8516 13.778C21.4998 13.9716 21.1781 14.2156 20.8969 14.5023C20.1068 15.3253 18.8887 16.4118 16.9463 16.6093L17.0451 16.741C17.7035 16.7081 19.2837 16.4118 20.9957 14.6669Z" fill="#FFF4CD"/>
<path id="Vector_69" d="M21.6211 15.3252L21.3906 15.5227C23.3799 15.0256 25.3281 14.3762 27.2178 13.5803C27.2359 13.5159 27.2469 13.4497 27.2507 13.3828C25.4121 14.1353 23.5326 14.7838 21.6211 15.3252Z" fill="#FFF4CD"/>
<path id="Vector_70" d="M24.7806 16.4775C22.7395 16.5434 21.1922 16.5434 20.0399 16.4775L19.9082 16.5434C21.5081 16.6547 23.1135 16.6657 24.7148 16.5763V16.4775H24.7806Z" fill="#FFF4CD"/>
<path id="Vector_71" d="M18.9862 17.0371H18.8545C20.0169 17.5655 21.2466 17.931 22.5088 18.1235V18.0248C21.3039 17.8169 20.1235 17.4859 18.9862 17.0371Z" fill="#FFF4CD"/>
<path id="Vector_72" d="M20.8632 18.9467C19.7439 18.6833 18.7562 17.8602 18.0978 17.3335H17.999C19.1184 18.387 20.0731 18.8479 20.7645 18.9796L20.8632 18.9467Z" fill="#FFF4CD"/>
<path id="Vector_73" d="M12.5674 19.8026C12.3551 19.862 12.1321 19.872 11.9153 19.8321C11.6985 19.7922 11.4937 19.7033 11.3164 19.5722L11.481 19.5063C11.6421 19.6049 11.8224 19.6677 12.0099 19.6904C12.1973 19.7131 12.3875 19.6953 12.5674 19.638V19.8026Z" fill="#E49D00"/>
<path id="Vector_74" d="M3.77809 13.1193C3.46992 12.9543 3.19767 12.7296 2.97723 12.4583C2.7568 12.187 2.59257 11.8745 2.49414 11.5391C2.7491 12.031 3.13689 12.4416 3.61348 12.7242C3.61348 12.7242 4.86451 13.5473 9.50649 14.93C9.50649 14.93 11.6793 17.0041 13.7205 17.1358L13.5888 17.3004C11.3172 16.9382 9.50649 15.1605 9.50649 15.1605C7.61188 14.6207 5.75353 13.9609 3.9427 13.1852L3.77809 13.1193Z" fill="#E49D00"/>
<path id="Vector_75" d="M5.98216 16.0494C7.46364 16.1481 9.27434 16.1811 10.4595 16.1482H10.5254L10.7229 16.2798C9.14255 16.3378 7.56029 16.3158 5.98216 16.214C5.6211 16.1598 5.27683 16.0252 4.97481 15.82C4.6728 15.6149 4.42075 15.3445 4.2373 15.0288C4.6648 15.5821 5.29032 15.948 5.98216 16.0494Z" fill="#E49D00"/>
<path id="Vector_76" d="M8.38618 17.6295C9.49237 17.4557 10.5824 17.1914 11.6454 16.8394L11.843 16.9381C10.7525 17.3697 9.61396 17.6681 8.45202 17.827C8.10447 17.8907 7.74592 17.8533 7.41907 17.719C7.09222 17.5848 6.81083 17.3594 6.6084 17.0698C6.83743 17.2998 7.11881 17.4709 7.42843 17.5684C7.73805 17.6658 8.06668 17.6868 8.38618 17.6295Z" fill="#E49D00"/>
<path id="Vector_77" d="M9.7043 18.6502C10.8566 18.5515 12.0418 17.6296 12.5356 17.2017L12.7002 17.2675C11.8113 18.0576 10.7249 18.7819 9.77015 18.8148C9.54964 18.828 9.32927 18.7869 9.12837 18.695C8.92747 18.6032 8.75218 18.4635 8.61788 18.2881H8.58496C8.73343 18.427 8.91072 18.5315 9.1042 18.5941C9.29767 18.6567 9.50258 18.6759 9.7043 18.6502Z" fill="#E49D00"/>
<path id="Vector_78" d="M11.3819 19.1441C12.1062 18.8807 12.8305 18.1235 13.2914 17.4321H13.456L13.1926 17.8272C13.1597 17.8601 13.1597 17.893 13.1268 17.893C12.716 18.4633 12.174 18.9262 11.5465 19.2428C11.36 19.3247 11.155 19.3557 10.9526 19.3325C10.7502 19.3094 10.5575 19.233 10.3942 19.1111H10.3613C10.6841 19.2553 11.0505 19.2672 11.3819 19.1441Z" fill="#E49D00"/>
<path id="Vector_79" d="M10.0315 14.6669C9.75868 14.3846 9.44854 14.141 9.10974 13.9426C6.24554 12.0332 4.50068 11.1113 2.29492 9.62987V9.39941L6.01509 11.7698L9.17558 13.778C9.52048 13.9673 9.8319 14.212 10.0974 14.5023C10.9204 15.3253 12.1385 16.4118 14.0809 16.6093L13.9822 16.741C13.3237 16.7081 11.7435 16.4118 10.0315 14.6669Z" fill="#FFF4CD"/>
<path id="Vector_80" d="M9.40697 15.3252L9.63743 15.5227C7.63867 15.0213 5.67992 14.372 3.77734 13.5803V13.3828C5.61598 14.1353 7.49549 14.7838 9.40697 15.3252Z" fill="#FFF4CD"/>
<path id="Vector_81" d="M6.24512 16.4775C8.28627 16.5434 9.83359 16.5434 10.9859 16.4775L11.1175 16.5434C9.51761 16.6547 7.91227 16.6657 6.31096 16.5763L6.24512 16.4775Z" fill="#FFF4CD"/>
<path id="Vector_82" d="M12.0412 17.0371H12.1729C11.0089 17.5612 9.77981 17.9266 8.51855 18.1235V18.0248C9.72345 17.8169 10.9038 17.4859 12.0412 17.0371Z" fill="#FFF4CD"/>
<path id="Vector_83" d="M10.1641 18.9467C11.2834 18.6833 12.2711 17.8602 12.8966 17.3335H13.0283C11.9089 18.387 10.9542 18.8479 10.2299 18.9796L10.1641 18.9467Z" fill="#FFF4CD"/>
<path id="Vector_84" d="M19.0535 22.5349L19.1193 22.3703C18.5647 22.3121 18.0501 22.0547 17.6708 21.646C17.6444 21.7045 17.5975 21.7513 17.5391 21.7777C17.9315 22.2105 18.4718 22.4806 19.0535 22.5349Z" fill="#FFF4CD"/>
<path id="Vector_85" d="M17.7032 23.9508C17.2959 23.4697 16.9932 22.9091 16.8143 22.3047L16.6826 22.3705C16.7485 22.6668 17.0777 23.7532 17.6044 24.1812C17.6134 24.1948 17.6257 24.206 17.64 24.2137C17.6544 24.2214 17.6704 24.2254 17.6867 24.2254C17.703 24.2254 17.7191 24.2214 17.7334 24.2137C17.7478 24.206 17.76 24.1948 17.769 24.1812L17.9007 24.0495L17.7032 23.9508Z" fill="#E49D00"/>
<path id="Vector_86" d="M18.3945 20.1315C18.8769 20.2702 19.3937 20.2232 19.8431 19.9999H19.876V19.8682C19.6245 20.0108 19.342 20.0899 19.053 20.0986H18.4275C18.4178 20.1109 18.4068 20.1219 18.3945 20.1315Z" fill="#FFF4CD"/>
<path id="Vector_87" d="M19.1845 21.9754C18.7017 21.9291 18.249 21.7201 17.9005 21.3828L17.8018 21.5145C18.1583 21.8701 18.6202 22.101 19.1186 22.1729L19.2832 22.0742C19.3162 22.0412 19.3162 21.9754 19.3491 21.9425L19.1845 21.9754Z" fill="#E49D00"/>
<path id="Vector_88" d="M17.5062 24.4443C17.2757 24.2467 16.8478 23.7858 16.4527 22.436L16.2881 22.5019C16.7819 24.3784 17.5062 24.4443 17.5062 24.4443Z" fill="#FFF4CD"/>
<path id="Vector_89" d="M16.057 25.0041C15.9912 24.4773 15.9254 23.1605 15.9254 22.5679H15.7607C15.7607 22.7654 15.7937 24.8066 15.8595 25.3662H15.8924C16.4389 25.1057 16.9481 24.7736 17.4068 24.3786C17.063 24.7034 16.6609 24.9603 16.2216 25.1358C16.1887 25.1358 16.057 25.1687 16.057 25.0041Z" fill="#E49D00"/>
<path id="Vector_90" d="M11.974 22.5349C11.9337 22.4893 11.9105 22.4311 11.9082 22.3703C12.4588 22.2986 12.9691 22.0434 13.3568 21.646L13.4555 21.7777C13.0795 22.2138 12.5478 22.4855 11.974 22.5349Z" fill="#FFF4CD"/>
<path id="Vector_91" d="M13.3242 23.9508C13.723 23.469 14.0148 22.9079 14.1802 22.3047L14.3448 22.3705C14.246 22.6668 13.9497 23.7532 13.423 24.1812C13.414 24.1948 13.4017 24.206 13.3874 24.2137C13.373 24.2214 13.357 24.2254 13.3407 24.2254C13.3244 24.2254 13.3083 24.2214 13.294 24.2137C13.2796 24.206 13.2674 24.1948 13.2584 24.1812L13.0938 24.0495L13.3242 23.9508Z" fill="#E49D00"/>
<path id="Vector_92" d="M12.5999 20.1315C12.117 20.2639 11.6025 20.2172 11.1514 19.9999V19.8682C11.3926 20.0069 11.6635 20.0859 11.9415 20.0986H12.5999V20.1315Z" fill="#FFF4CD"/>
<path id="Vector_93" d="M11.8433 21.9754C12.3261 21.9291 12.7788 21.7201 13.1273 21.3828L13.226 21.5145C12.8695 21.8701 12.4076 22.101 11.9092 22.1729C11.8748 22.1758 11.8405 22.1677 11.811 22.15C11.7814 22.1323 11.7582 22.1058 11.7446 22.0742C11.7116 22.0412 11.7116 21.9754 11.6787 21.9425L11.8433 21.9754Z" fill="#E49D00"/>
<path id="Vector_94" d="M13.5225 24.4443C13.7529 24.2467 14.1809 23.7858 14.576 22.436L14.7076 22.5019C14.2467 24.3784 13.5225 24.4443 13.5225 24.4443Z" fill="#FFF4CD"/>
<path id="Vector_95" d="M14.9709 25.0041C15.0367 24.4773 15.0697 23.1605 15.1026 22.5679H15.2343C15.2343 22.7654 15.2343 24.8066 15.1684 25.3662C15.1597 25.3662 15.1513 25.3697 15.1451 25.3759C15.139 25.382 15.1355 25.3904 15.1355 25.3991C14.5841 25.1475 14.0736 24.8146 13.6211 24.4115C13.9754 24.6894 14.3769 24.9013 14.8063 25.037C14.8392 25.1358 14.9709 25.1687 14.9709 25.0041Z" fill="#E49D00"/>
<path id="Vector_96" d="M14.5754 16.214C14.7707 15.8396 14.8509 15.4158 14.8059 14.9959C14.7729 14.9959 14.1145 14.6996 14.1474 15.0288C14.1803 15.358 13.917 14.6008 14.2133 14.4691C14.3556 14.432 14.5063 14.4436 14.6412 14.5021L14.9705 14.5679C15.12 14.4468 15.3049 14.3775 15.4972 14.3704C15.233 14.2739 14.9452 14.2624 14.6742 14.3375C14.8059 13.9424 15.168 13.9424 15.4972 14.0082C15.6893 14.0811 15.8877 14.1362 16.0898 14.1728C16.2464 14.2048 16.4093 14.1816 16.5507 14.107C16.5801 14.1579 16.5954 14.2157 16.5949 14.2745C16.5944 14.3332 16.5782 14.3908 16.548 14.4412C16.5178 14.4916 16.4746 14.533 16.423 14.561C16.3713 14.5891 16.3131 14.6028 16.2544 14.6008C16.2544 14.6008 16.1886 15.786 16.5178 16.3786C16.6905 16.6803 16.8888 16.9667 17.1104 17.2346C16.6399 16.9133 16.0834 16.7414 15.5137 16.7414C14.9439 16.7414 14.3875 16.9133 13.917 17.2346C14.0816 16.9712 14.4766 16.4115 14.5754 16.214ZM28.9952 9.20165C28.9952 8.83951 28.7647 9.00412 28.7647 9.00412C26.1968 10.749 22.6412 12.9877 21.5877 13.6461C21.1745 13.9397 20.7888 14.2703 20.4355 14.6338C18.6248 16.4445 16.847 16.3786 16.8141 16.3786C16.7812 16.3786 16.4849 14.7325 16.4849 14.7325C17.0445 14.535 16.6824 13.7449 16.6824 13.7449C16.5898 13.8384 16.4725 13.9035 16.3442 13.9327C16.2159 13.9619 16.082 13.9538 15.9581 13.9095C15.8147 13.8355 15.6581 13.7907 15.4972 13.7778C14.5425 13.6461 14.4437 14.2716 14.4437 14.2716C14.3258 14.2388 14.1999 14.2509 14.0904 14.3056C13.9809 14.3604 13.8956 14.4539 13.8511 14.5679C13.7194 15.0288 14.2133 15.2593 14.2133 15.2593L14.6083 15.1605C14.6062 15.5977 14.4681 16.0234 14.2133 16.3786C14.1145 16.3786 12.3696 16.4115 10.5589 14.6338C10.2134 14.2621 9.82685 13.9307 9.40668 13.6461C8.3861 12.9877 4.83055 10.749 2.22972 9.00412C2.22972 9.00412 2.03219 8.83951 2.03219 9.20165C1.9005 10.7819 2.13096 12.428 3.51367 13.284C3.51367 13.284 3.34906 15.9506 5.98281 16.4774C5.98281 16.4774 6.54248 18.1235 8.25441 18.0576C8.35067 18.2856 8.49913 18.4878 8.68784 18.6479C8.87654 18.808 9.10021 18.9216 9.34083 18.9794C9.54764 19.0171 9.75955 19.0171 9.96635 18.9794C10.0509 19.1464 10.1772 19.2887 10.3329 19.3925C10.4887 19.4964 10.6686 19.5582 10.8552 19.572C10.9511 20.9732 11.4365 22.3197 12.2567 23.4598C13.0769 24.5999 14.1992 25.4883 15.4972 26.0247C20.1392 23.9835 20.1721 19.572 20.1721 19.572C20.3548 19.5592 20.5307 19.4973 20.6813 19.3931C20.8319 19.2888 20.9517 19.1459 21.0281 18.9794C21.2459 19.0176 21.4687 19.0176 21.6865 18.9794C21.9271 18.9216 22.1508 18.808 22.3395 18.6479C22.5282 18.4878 22.6767 18.2856 22.7729 18.0576C24.4849 18.1235 25.0445 16.4774 25.0445 16.4774C27.6783 15.9506 27.5137 13.284 27.5137 13.284C28.8964 12.428 29.1268 10.7819 28.9952 9.20165ZM2.29557 9.39919L9.17623 13.7778C9.52112 13.9671 9.83255 14.2117 10.098 14.5021C10.9211 15.3251 12.1392 16.4115 14.0816 16.6091L13.5877 17.3004C11.3161 16.9383 9.50544 15.1605 9.50544 15.1605C7.61084 14.6207 5.75249 13.9609 3.94166 13.1852L3.77705 13.1193C1.93343 12.2305 2.29557 9.39919 2.29557 9.39919ZM3.77705 13.3827C5.61568 14.1352 7.49519 14.7837 9.40668 15.3251C9.40668 15.3251 9.83466 15.6873 10.526 16.1811L10.7235 16.3128C9.1432 16.3707 7.56094 16.3487 5.98281 16.2469C3.77705 15.8519 3.77705 13.3827 3.77705 13.3827ZM6.24618 16.4774C8.28734 16.5432 9.83466 16.5432 10.9869 16.4774C11.2544 16.6621 11.5415 16.8166 11.8429 16.9383C10.7524 17.3698 9.61389 17.6683 8.45194 17.8272C7.98576 17.8852 7.51366 17.7833 7.11295 17.5381C6.71223 17.2929 6.40663 16.9189 6.24618 16.4774ZM9.76882 18.8148C9.50189 18.843 9.23296 18.7847 9.00176 18.6483C8.77055 18.512 8.58933 18.3049 8.48487 18.0576C9.70216 17.8413 10.8937 17.4993 12.0404 17.037L12.6989 17.2675C11.81 18.0576 10.7236 18.7819 9.76882 18.8148ZM10.1639 18.9465C11.2832 18.6831 12.2709 17.8601 12.8964 17.3333H12.9952L13.4561 17.4321C13.3904 17.5493 13.3132 17.6596 13.2256 17.7613L13.061 17.9918C12.6535 18.5142 12.1366 18.9412 11.5466 19.2428C11.3149 19.3486 11.0553 19.3768 10.8062 19.3235C10.5572 19.2701 10.3319 19.1379 10.1639 18.9465ZM12.5672 19.8025C12.3549 19.8618 12.1318 19.8719 11.915 19.8319C11.6982 19.792 11.4934 19.7031 11.3161 19.572C11.844 19.3917 12.3268 19.0997 12.7318 18.7161C12.6266 19.0235 12.571 19.3458 12.5672 19.6708V19.8025ZM11.7441 22.0741C11.4349 21.4081 11.2348 20.6966 11.1515 19.9671V19.8354C11.5842 20.0697 12.0869 20.1399 12.5672 20.0329C12.6332 20.5914 12.8622 21.1181 13.2256 21.5473C12.8638 21.8956 12.4044 22.1253 11.9087 22.2058C11.8702 22.2065 11.8327 22.1938 11.8026 22.1697C11.7725 22.1457 11.7518 22.1118 11.7441 22.0741ZM13.4231 24.1811C13.4108 24.1951 13.3956 24.2063 13.3786 24.214C13.3615 24.2217 13.3431 24.2257 13.3244 24.2257C13.3057 24.2257 13.2872 24.2217 13.2702 24.214C13.2532 24.2063 13.238 24.1951 13.2256 24.1811C12.6865 23.6571 12.2411 23.0447 11.9087 22.3704C12.4593 22.2987 12.9696 22.0435 13.3573 21.6461C13.6184 21.9688 13.9587 22.2183 14.3449 22.3704C14.2462 22.6667 13.9499 23.7531 13.4231 24.1811ZM15.2338 22.8313C15.2338 23.4568 15.2338 25.2017 15.1351 25.498C14.5532 25.2195 14.0108 24.8653 13.5219 24.4445C13.7524 24.2798 14.1803 23.786 14.5754 22.4691L15.2338 22.6008V22.8313ZM15.4972 22.4033C14.9568 22.4033 14.4285 22.243 13.9791 21.9428C13.5298 21.6425 13.1795 21.2158 12.9727 20.7165C12.7659 20.2172 12.7118 19.6678 12.8172 19.1377C12.9226 18.6076 13.1829 18.1208 13.565 17.7386C13.9472 17.3565 14.4341 17.0962 14.9641 16.9908C15.4942 16.8853 16.0436 16.9395 16.5429 17.1463C17.0422 17.3531 17.469 17.7033 17.7692 18.1527C18.0695 18.602 18.2297 19.1304 18.2297 19.6708C18.2297 20.3955 17.9418 21.0905 17.4294 21.603C16.9169 22.1154 16.2219 22.4033 15.4972 22.4033ZM15.8923 25.498C15.7935 25.2017 15.7935 23.4568 15.7606 22.8313V22.6008C15.9986 22.5849 16.2323 22.5292 16.4519 22.4362C16.847 23.786 17.275 24.2469 17.5054 24.4445C17.0166 24.8653 16.4741 25.2195 15.8923 25.498ZM17.7688 24.1811C17.7598 24.1947 17.7476 24.2058 17.7332 24.2135C17.7189 24.2212 17.7028 24.2252 17.6865 24.2252C17.6702 24.2252 17.6542 24.2212 17.6398 24.2135C17.6254 24.2058 17.6132 24.1947 17.6042 24.1811C17.0775 23.7531 16.7482 22.6667 16.6824 22.3704C17.0616 22.2058 17.3991 21.9583 17.6701 21.6461C18.0494 22.0548 18.564 22.3122 19.1186 22.3704C18.7862 23.0532 18.3283 23.6675 17.7688 24.1811ZM19.8758 19.9342C19.777 20.6606 19.5775 21.3697 19.2832 22.0412L19.1186 22.1399C18.6202 22.068 18.1583 21.8371 17.8017 21.4815C18.1425 21.0421 18.3586 20.5189 18.4273 19.9671C18.9184 20.0705 19.4303 20.0007 19.8758 19.7696V19.9342ZM18.2956 18.7161C18.6904 19.1128 19.1765 19.4067 19.7112 19.572C19.534 19.7031 19.3291 19.792 19.1123 19.8319C18.8955 19.8719 18.6725 19.8618 18.4602 19.8025V19.6708C18.4563 19.3458 18.4008 19.0235 18.2956 18.7161ZM19.4808 19.2757C18.848 18.9672 18.3042 18.5027 17.9005 17.9259C17.8676 17.9259 17.8676 17.893 17.8347 17.8601L17.5713 17.465L18.0322 17.3663H18.098C18.7565 17.893 19.7441 18.7161 20.8635 18.9794C20.6954 19.1708 20.4702 19.303 20.2211 19.3564C19.9721 19.4098 19.7125 19.3815 19.4808 19.2757ZM21.2585 18.8148C20.3038 18.7819 19.2174 18.0576 18.3285 17.2675L18.9869 17.037C20.1336 17.4993 21.3252 17.8413 22.5425 18.0576C22.438 18.3049 22.2568 18.512 22.0256 18.6483C21.7944 18.7847 21.5255 18.843 21.2585 18.8148ZM24.7482 16.4774C24.593 16.9225 24.2885 17.3001 23.8864 17.5461C23.4843 17.7922 23.0095 17.8915 22.5425 17.8272C21.392 17.6642 20.2649 17.3658 19.1845 16.9383C19.4859 16.8166 19.773 16.6621 20.0404 16.4774C21.1927 16.5432 22.74 16.5432 24.7812 16.4774H24.7482ZM25.0116 16.2469C23.4335 16.3489 21.8512 16.3708 20.2709 16.3128L20.5013 16.1811C21.1927 15.6873 21.6207 15.3251 21.6207 15.3251C23.5322 14.7837 25.4117 14.1352 27.2503 13.3827C27.2503 13.3827 27.2503 15.8519 25.0116 16.2469ZM27.2503 13.1193L27.0528 13.1852C25.2533 13.9613 23.4059 14.6211 21.5219 15.1605C21.5219 15.1605 19.7112 16.9383 17.4396 17.3004C17.2634 17.0785 17.0986 16.8477 16.9458 16.6091C18.8882 16.4115 20.1063 15.3251 20.8964 14.5021C21.1776 14.2153 21.4992 13.9713 21.8511 13.7778L28.7318 9.39919H28.6989C28.6989 9.39919 29.0939 12.2305 27.2503 13.1193Z" fill="#001A60"/>
<path id="Vector_97" d="M15.4972 16.708C16.0712 16.7147 16.6311 16.8861 17.1104 17.2019C16.8888 16.934 16.6906 16.6476 16.5178 16.3459C16.1886 15.7533 16.2544 14.5681 16.2544 14.5681C16.3132 14.5701 16.3714 14.5564 16.423 14.5283C16.4746 14.5002 16.5178 14.4589 16.548 14.4085C16.5783 14.3581 16.5945 14.3005 16.5949 14.2417C16.5954 14.183 16.5802 14.1252 16.5507 14.0743C16.4093 14.1489 16.2465 14.1721 16.0898 14.1401C15.8877 14.1035 15.6893 14.0484 15.4972 13.9755C15.168 13.9097 14.8059 13.9097 14.6742 14.3047C14.9453 14.2297 15.233 14.2412 15.4972 14.3377C15.3049 14.3447 15.1201 14.414 14.9705 14.5352L14.6413 14.4693C14.5063 14.4109 14.3556 14.3993 14.2133 14.4364C13.917 14.5681 14.0487 14.8973 14.1474 14.9961C14.2462 15.0949 14.773 14.9632 14.8059 14.9632C14.8509 15.383 14.7708 15.8069 14.5754 16.1813C14.4767 16.3788 14.0816 16.9385 13.917 17.1689C14.3904 16.8708 14.9378 16.7111 15.4972 16.708Z" fill="url(#paint21_linear_7996_211552)"/>
<path id="Vector_98" d="M15.4969 14.206L16.0895 14.3706C16.2546 14.3926 16.4225 14.3814 16.5833 14.3377C16.5913 14.2485 16.5801 14.1587 16.5504 14.0743C16.409 14.1489 16.2461 14.1721 16.0895 14.1401C15.8873 14.1035 15.689 14.0484 15.4969 13.9755C15.1677 13.9097 14.8055 13.9097 14.6738 14.3047H14.8714C14.9602 14.2396 15.0633 14.1967 15.1721 14.1795C15.2809 14.1623 15.3923 14.1714 15.4969 14.206Z" fill="#FFF4CD"/>
<path id="Vector_99" d="M14.2139 14.6993C14.3674 14.6641 14.5279 14.6756 14.6748 14.7323L15.004 14.831C15.1258 14.6371 15.296 14.4782 15.4979 14.3701C15.36 14.3694 15.2241 14.4034 15.1028 14.4689L14.9711 14.5677L14.7407 14.5018C14.5755 14.425 14.3874 14.4132 14.2139 14.4689C14.1777 14.4796 14.1443 14.498 14.1159 14.5227C14.0874 14.5475 14.0646 14.5781 14.049 14.6124C14.0334 14.6468 14.0253 14.684 14.0254 14.7218C14.0254 14.7595 14.0336 14.7967 14.0493 14.831C14.0899 14.7718 14.1472 14.7259 14.2139 14.6993Z" fill="#FFF4CD"/>
</g>
</g>
<defs>
<radialGradient id="paint0_radial_7996_211552" cx="0" cy="0" r="1" gradientUnits="userSpaceOnUse" gradientTransform="translate(11.397 9.04649) scale(14.0747)">
<stop stop-color="#FEE7A9"/>
<stop offset="0.46" stop-color="#FFD900"/>
<stop offset="1" stop-color="#E49D00"/>
</radialGradient>
<linearGradient id="paint1_linear_7996_211552" x1="11.9257" y1="10.377" x2="16.4228" y2="16.0165" gradientUnits="userSpaceOnUse">
<stop stop-color="#002F82"/>
<stop offset="1" stop-color="#001A60"/>
</linearGradient>
<linearGradient id="paint2_linear_7996_211552" x1="11.3721" y1="19.73" x2="10.0948" y2="11.7366" gradientUnits="userSpaceOnUse">
<stop stop-color="#CA8200"/>
<stop offset="0.3" stop-color="#E1A504"/>
<stop offset="1" stop-color="#CA8200"/>
</linearGradient>
<linearGradient id="paint3_linear_7996_211552" x1="13.2657" y1="26.8181" x2="0.969386" y2="-2.03789" gradientUnits="userSpaceOnUse">
<stop stop-color="#FEDA5D"/>
<stop offset="1" stop-color="#996100"/>
</linearGradient>
<linearGradient id="paint4_linear_7996_211552" x1="11.3065" y1="19.2788" x2="12.7255" y2="19.2788" gradientUnits="userSpaceOnUse">
<stop stop-color="#FEE7A9"/>
<stop offset="0.46" stop-color="#FFD900"/>
<stop offset="1" stop-color="#E49D00"/>
</linearGradient>
<linearGradient id="paint5_linear_7996_211552" x1="10.1706" y1="18.3473" x2="13.4497" y2="18.3473" gradientUnits="userSpaceOnUse">
<stop stop-color="#FEE7A9"/>
<stop offset="0.46" stop-color="#FFD900"/>
<stop offset="1" stop-color="#E49D00"/>
</linearGradient>
<linearGradient id="paint6_linear_7996_211552" x1="3.78393" y1="14.8709" x2="10.737" y2="14.8709" gradientUnits="userSpaceOnUse">
<stop stop-color="#FEE7A9"/>
<stop offset="0.46" stop-color="#FFD900"/>
<stop offset="1" stop-color="#E49D00"/>
</linearGradient>
<linearGradient id="paint7_linear_7996_211552" x1="2.46331" y1="10.9434" x2="15.4345" y2="17.8965" gradientUnits="userSpaceOnUse">
<stop stop-color="#FEE7A9"/>
<stop offset="0.46" stop-color="#FFD900"/>
<stop offset="1" stop-color="#E49D00"/>
</linearGradient>
<linearGradient id="paint8_linear_7996_211552" x1="6.25499" y1="17.1656" x2="11.8484" y2="17.1656" gradientUnits="userSpaceOnUse">
<stop stop-color="#FEE7A9"/>
<stop offset="0.46" stop-color="#FFD900"/>
<stop offset="1" stop-color="#E49D00"/>
</linearGradient>
<linearGradient id="paint9_linear_7996_211552" x1="8.47218" y1="17.926" x2="12.7092" y2="17.926" gradientUnits="userSpaceOnUse">
<stop stop-color="#FEE7A9"/>
<stop offset="0.46" stop-color="#FFD900"/>
<stop offset="1" stop-color="#E49D00"/>
</linearGradient>
<linearGradient id="paint10_linear_7996_211552" x1="19.7158" y1="19.2788" x2="18.2969" y2="19.2788" gradientUnits="userSpaceOnUse">
<stop stop-color="#FEE7A9"/>
<stop offset="0.46" stop-color="#FFD900"/>
<stop offset="1" stop-color="#E49D00"/>
</linearGradient>
<linearGradient id="paint11_linear_7996_211552" x1="20.8503" y1="18.3473" x2="17.5713" y2="18.3473" gradientUnits="userSpaceOnUse">
<stop stop-color="#FEE7A9"/>
<stop offset="0.46" stop-color="#FFD900"/>
<stop offset="1" stop-color="#E49D00"/>
</linearGradient>
<linearGradient id="paint12_linear_7996_211552" x1="27.2377" y1="14.8709" x2="20.2847" y2="14.8709" gradientUnits="userSpaceOnUse">
<stop stop-color="#FEE7A9"/>
<stop offset="0.46" stop-color="#FFD900"/>
<stop offset="1" stop-color="#E49D00"/>
</linearGradient>
<linearGradient id="paint13_linear_7996_211552" x1="28.5545" y1="10.9434" x2="15.5866" y2="17.8965" gradientUnits="userSpaceOnUse">
<stop stop-color="#FEE7A9"/>
<stop offset="0.46" stop-color="#FFD900"/>
<stop offset="1" stop-color="#E49D00"/>
</linearGradient>
<linearGradient id="paint14_linear_7996_211552" x1="24.7658" y1="17.1656" x2="19.1724" y2="17.1656" gradientUnits="userSpaceOnUse">
<stop stop-color="#FEE7A9"/>
<stop offset="0.46" stop-color="#FFD900"/>
<stop offset="1" stop-color="#E49D00"/>
</linearGradient>
<linearGradient id="paint15_linear_7996_211552" x1="22.5497" y1="17.926" x2="18.3126" y2="17.926" gradientUnits="userSpaceOnUse">
<stop stop-color="#FEE7A9"/>
<stop offset="0.46" stop-color="#FFD900"/>
<stop offset="1" stop-color="#E49D00"/>
</linearGradient>
<linearGradient id="paint16_linear_7996_211552" x1="15.5047" y1="16.82" x2="15.5047" y2="22.3969" gradientUnits="userSpaceOnUse">
<stop stop-color="#FEE7A9"/>
<stop offset="0.46" stop-color="#FFD900"/>
<stop offset="1" stop-color="#E49D00"/>
</linearGradient>
<radialGradient id="paint17_radial_7996_211552" cx="0" cy="0" r="1" gradientUnits="userSpaceOnUse" gradientTransform="translate(15.4975 19.6548) scale(1.81202)">
<stop stop-color="#036EB8"/>
<stop offset="0.57" stop-color="#003894"/>
</radialGradient>
<linearGradient id="paint18_linear_7996_211552" x1="15.1952" y1="19.8286" x2="16.9927" y2="20.3159" gradientUnits="userSpaceOnUse">
<stop stop-color="#FEE7A9"/>
<stop offset="0.46" stop-color="#FFD900"/>
<stop offset="1" stop-color="#E49D00"/>
</linearGradient>
<radialGradient id="paint19_radial_7996_211552" cx="0" cy="0" r="1" gradientUnits="userSpaceOnUse" gradientTransform="translate(15.7416 19.9186) scale(2.50206 2.50206)">
<stop stop-color="#036EB8"/>
<stop offset="0.57" stop-color="#003894"/>
</radialGradient>
<radialGradient id="paint20_radial_7996_211552" cx="0" cy="0" r="1" gradientUnits="userSpaceOnUse" gradientTransform="translate(15.469 19.734) scale(1.59078)">
<stop stop-color="#E6002D"/>
<stop offset="0.22" stop-color="#DB032B"/>
<stop offset="0.6" stop-color="#BE0C24"/>
<stop offset="1" stop-color="#99161C"/>
</radialGradient>
<linearGradient id="paint21_linear_7996_211552" x1="15.5137" y1="14.1368" x2="15.5137" y2="17.2479" gradientUnits="userSpaceOnUse">
<stop stop-color="#FEE7A9"/>
<stop offset="0.46" stop-color="#FFD900"/>
<stop offset="1" stop-color="#E49D00"/>
</linearGradient>
</defs>
</svg>
