<svg width="30" height="30" viewBox="0 0 30 30" fill="none" xmlns="http://www.w3.org/2000/svg">
<g id="&#236;&#164;&#145;&#234;&#181;&#173;">
<rect id="&#237;&#131;&#156;&#234;&#183;&#185;&#234;&#184;&#176;" y="3" width="30" height="23" fill="#DE2910"/>
<g id="icon">
<path id="Vector" d="M4.66631 12.0374L5.29575 10.1133H7.33262L5.68474 8.92414L6.31414 7.00006L4.66631 8.1892L3.01843 7.00006L3.64788 8.92414L2 10.1133H4.03687L4.66631 12.0374Z" fill="#FFDE00"/>
<g id="Group 1222">
<path id="Vector_2" d="M9.13095 12.9993L9.06692 12.3568L9.6623 12.0978L9.02738 11.9597L8.96334 11.3173L8.63497 11.8744L8 11.7364L8.43196 12.2188L8.10358 12.7759L8.69899 12.5169L9.13095 12.9993Z" fill="#FFDE00"/>
<path id="Vector_3" d="M11.2426 10.9859L10.9403 10.4145L11.394 9.95225L10.7534 10.0613L10.451 9.48981L10.3574 10.1287L9.7168 10.2377L10.2996 10.5235L10.206 11.1624L10.6598 10.7001L11.2426 10.9859Z" fill="#FFDE00"/>
<path id="Vector_4" d="M10.5787 8.54419L10.8005 7.93518L11.4522 7.95654L10.9376 7.55884L11.1594 6.94985L10.6196 7.31304L10.105 6.91536L10.2859 7.53752L9.74609 7.90071L10.3977 7.92201L10.5787 8.54419Z" fill="#FFDE00"/>
<path id="Vector_5" d="M9.09432 6.69263L9.05897 6.04595L9.66722 5.81274L9.03711 5.64632L9.00176 4.99966L8.64767 5.54347L8.01758 5.37703L8.42886 5.87952L8.07479 6.42331L8.68303 6.19011L9.09432 6.69263Z" fill="#FFDE00"/>
</g>
</g>
</g>
</svg>
