<svg width="30" height="30" viewBox="0 0 30 30" fill="none" xmlns="http://www.w3.org/2000/svg">
<g id="&#235;&#175;&#184;&#236;&#167;&#128;&#236;&#160;&#149;">
<g id="Group 1224">
<rect id="Rectangle 34624218" x="0.25" y="3.25" width="29.5" height="22.5" fill="white" stroke="#D9D9D9" stroke-width="1"/>
<g id="Group 1235">
<path id="Vector" d="M14.6672 7.55835C14.6672 7.55835 6.98899 14.2317 14.6449 21.4903" stroke="#333333"/>
<path id="Vector_2" d="M15.1895 7.55835C15.1895 7.55835 22.8676 14.2317 15.2117 21.4903" stroke="#333333"/>
<path id="Vector_3" d="M15 21.5C18.866 21.5 22 18.366 22 14.5C22 10.634 18.866 7.5 15 7.5C11.134 7.5 8 10.634 8 14.5C8 18.366 11.134 21.5 15 21.5Z" stroke="#333333"/>
<path id="Vector_4" d="M15 7.50098V21.499" stroke="#333333"/>
<path id="Vector_5" d="M21.94 14.5H8.06055" stroke="#333333"/>
<path id="Vector_6" d="M21.1382 11.1321H8.64746" stroke="#333333"/>
<path id="Vector_7" d="M21.1737 17.8669H8.8291" stroke="#333333"/>
</g>
</g>
</g>
</svg>
