<svg width="30" height="30" viewBox="0 0 30 30" fill="none" xmlns="http://www.w3.org/2000/svg">
<g id="&#235;&#182;&#129;&#237;&#149;&#156;">
<g id="Group 1224">
<rect id="Rectangle 34624218" y="5" width="30" height="19" fill="#2C4CA4"/>
<g id="Group 1223">
<rect id="Rectangle 34624217" y="10" width="30" height="9" fill="#DE0D2D"/>
<rect id="Rectangle 34624215" y="19" width="30" height="1" fill="white"/>
<rect id="Rectangle 34624216" y="9" width="30" height="1" fill="white"/>
</g>
<g id="icon">
<path id="Vector" d="M9.5 18.0469C11.433 18.0469 13 16.4799 13 14.5469C13 12.6139 11.433 11.0469 9.5 11.0469C7.567 11.0469 6 12.6139 6 14.5469C6 16.4799 7.567 18.0469 9.5 18.0469Z" fill="white"/>
<path id="Vector_2" d="M9.49985 11.105L10.2732 13.485H12.7747L10.7509 14.9556L11.5237 17.3357L9.49985 15.8647L7.47631 17.3357L8.24941 14.9556L6.22559 13.485H8.72704L9.49985 11.105Z" fill="#DE0D2D"/>
</g>
</g>
</g>
</svg>
