<svg width="15" height="12" viewBox="0 0 15 12" fill="none" xmlns="http://www.w3.org/2000/svg">
<path id="wind" d="M0.535714 4.36374C0.393634 4.36374 0.257373 4.30628 0.156907 4.20399C0.0564411 4.10171 0 3.96298 0 3.81833C0 3.67367 0.0564411 3.53494 0.156907 3.43266C0.257373 3.33037 0.393634 3.27291 0.535714 3.27291H6.96429C7.16003 3.27282 7.35202 3.21814 7.51939 3.1148C7.68677 3.01147 7.82314 2.86342 7.9137 2.68673C8.00426 2.51005 8.04555 2.31149 8.03309 2.1126C8.02062 1.91371 7.95487 1.7221 7.84299 1.55857C7.7311 1.39504 7.57735 1.26584 7.39843 1.185C7.21951 1.10416 7.02226 1.07477 6.82808 1.10002C6.63391 1.12527 6.45025 1.2042 6.29703 1.32823C6.14381 1.45226 6.02689 1.61665 5.95897 1.80357C5.93456 1.87074 5.89738 1.93236 5.84958 1.98491C5.80177 2.03746 5.74427 2.07991 5.68035 2.10983C5.61643 2.13975 5.54735 2.15657 5.47705 2.15931C5.40675 2.16205 5.33661 2.15067 5.27063 2.12581C5.20465 2.10095 5.14412 2.06311 5.09251 2.01444C5.04089 1.96576 4.9992 1.90722 4.96981 1.84214C4.94042 1.77706 4.9239 1.70673 4.92121 1.63516C4.91852 1.56358 4.9297 1.49217 4.95411 1.425C5.08995 1.05109 5.32381 0.722216 5.63029 0.474094C5.93678 0.225973 6.30418 0.0680867 6.6926 0.0175811C7.08101 -0.0329245 7.47559 0.025881 7.83349 0.187612C8.19139 0.349343 8.49893 0.607817 8.72271 0.934965C8.94648 1.26211 9.07794 1.64543 9.10282 2.04329C9.12769 2.44114 9.04502 2.83834 8.86378 3.19173C8.68255 3.54512 8.40968 3.8412 8.07481 4.04782C7.73993 4.25445 7.35586 4.36371 6.96429 4.36374H0.535714ZM9.10714 7.63626H1.60714C1.46506 7.63626 1.3288 7.69372 1.22834 7.796C1.12787 7.89829 1.07143 8.03702 1.07143 8.18167C1.07143 8.32633 1.12787 8.46506 1.22834 8.56734C1.3288 8.66963 1.46506 8.72709 1.60714 8.72709H9.10714C9.30289 8.72718 9.49487 8.78186 9.66225 8.8852C9.82963 8.98853 9.966 9.13658 10.0566 9.31327C10.1471 9.48995 10.1884 9.68851 10.1759 9.8874C10.1635 10.0863 10.0977 10.2779 9.98584 10.4414C9.87396 10.605 9.72021 10.7342 9.54129 10.815C9.36237 10.8958 9.16511 10.9252 8.97094 10.9C8.77677 10.8747 8.59311 10.7958 8.43989 10.6718C8.28667 10.5477 8.16975 10.3833 8.10183 10.1964C8.07741 10.1293 8.04024 10.0676 7.99244 10.0151C7.94463 9.96254 7.88713 9.92009 7.82321 9.89017C7.75929 9.86025 7.69021 9.84343 7.61991 9.84069C7.5496 9.83795 7.47946 9.84933 7.41348 9.87419C7.3475 9.89905 7.28698 9.93689 7.23536 9.98556C7.18375 10.0342 7.14206 10.0928 7.11267 10.1579C7.08328 10.2229 7.06676 10.2933 7.06407 10.3648C7.06138 10.4364 7.07256 10.5078 7.09697 10.575C7.23281 10.9489 7.46666 11.2778 7.77315 11.5259C8.07964 11.774 8.44704 11.9319 8.83545 11.9824C9.22387 12.0329 9.61845 11.9741 9.97635 11.8124C10.3342 11.6507 10.6418 11.3922 10.8656 11.065C11.0893 10.7379 11.2208 10.3546 11.2457 9.95671C11.2705 9.55886 11.1879 9.16166 11.0066 8.80827C10.8254 8.45488 10.5525 8.1588 10.2177 7.95217C9.88279 7.74555 9.49871 7.63629 9.10714 7.63626ZM12.8571 2.18207C12.4195 2.18324 11.9927 2.32023 11.6335 2.57476C11.2744 2.82929 11 3.18927 10.847 3.60667C10.8226 3.67384 10.8114 3.74526 10.8141 3.81683C10.8168 3.88841 10.8333 3.95874 10.8627 4.02382C10.8921 4.08889 10.9337 4.14744 10.9854 4.19611C11.037 4.24478 11.0975 4.28263 11.1635 4.30748C11.2295 4.33234 11.2996 4.34372 11.3699 4.34098C11.4402 4.33824 11.5093 4.32143 11.5732 4.2915C11.6371 4.26158 11.6946 4.21913 11.7424 4.16658C11.7902 4.11404 11.8274 4.05241 11.8518 3.98524C11.9197 3.79826 12.0366 3.63379 12.1899 3.50969C12.3431 3.3856 12.5268 3.30662 12.7211 3.28134C12.9153 3.25605 13.1126 3.28543 13.2916 3.36629C13.4705 3.44714 13.6243 3.57637 13.7363 3.73994C13.8482 3.90352 13.9139 4.09519 13.9264 4.29414C13.9389 4.49308 13.8975 4.6917 13.8069 4.86843C13.7163 5.04515 13.5799 5.19322 13.4124 5.29656C13.245 5.39989 13.0529 5.45455 12.8571 5.45458H1.07143C0.929348 5.45458 0.793087 5.51204 0.692621 5.61433C0.592155 5.71662 0.535714 5.85535 0.535714 6C0.535714 6.14465 0.592155 6.28338 0.692621 6.38567C0.793087 6.48795 0.929348 6.54542 1.07143 6.54542H12.8571C13.4255 6.54542 13.9705 6.31556 14.3724 5.90642C14.7742 5.49728 15 4.94236 15 4.36374C15 3.78513 14.7742 3.23021 14.3724 2.82107C13.9705 2.41192 13.4255 2.18207 12.8571 2.18207Z" fill="white"/>
</svg>
