<svg width="22" height="23" viewBox="0 0 22 23" fill="none" xmlns="http://www.w3.org/2000/svg">
<g id="Group 1025">
<g id="ship">
<path id="Vector" d="M3.28906 14.1492V10.3132H13.1038V13.9584" stroke="white" stroke-width="1.2"/>
<path id="Vector_2" d="M8.19727 6V7.75853" stroke="white" stroke-width="1.2"/>
<path id="Vector_3" d="M4.72852 10.3131V7.75854H11.6654V10.3131" stroke="white" stroke-width="1.2"/>
<path id="Vector_4" d="M3.28948 22.0778L1 15.1092L8.19686 11.9758L15.4497 14.9428L13.1042 22.0778" stroke="white" stroke-width="1.2"/>
<path id="Vector_5" d="M1.64746 17.0275L8.19629 14.1489L14.6177 17.0275" stroke="white" stroke-width="1.2"/>
<path id="Vector_6" d="M8.22559 11.9436V18.5933" stroke="white" stroke-width="1.2"/>
<path id="Vector_7" d="M1.12695 22.0779H15.2894" stroke="white" stroke-width="1.2"/>
</g>
<path id="Vector_8" d="M14.3795 0.399518L12.9149 3.3691L9.638 3.84684C9.05036 3.93207 8.81486 4.65652 9.24101 5.07145L11.6117 7.38162L11.051 10.645C10.9501 11.2349 11.5714 11.6768 12.0917 11.4009L15.0232 9.86001L17.9546 11.4009C18.475 11.6745 19.0963 11.2349 18.9953 10.645L18.4346 7.38162L20.8053 5.07145C21.2315 4.65652 20.996 3.93207 20.4083 3.84684L17.1315 3.3691L15.6669 0.399518C15.4045 -0.129803 14.6441 -0.136532 14.3795 0.399518Z" fill="white"/>
</g>
</svg>
