<svg width="18" height="18" viewBox="0 0 18 18" fill="none" xmlns="http://www.w3.org/2000/svg">
<g id="icon">
<path id="Vector" d="M1 10.4473L4.15654 16.9953H14.1354L17.2542 10.4473L9.12709 7.28906L1 10.4473Z" stroke="white"/>
<path id="Vector_2" d="M9.12695 7.44727V17.0018" stroke="white"/>
<path id="Vector_3" d="M3.22168 9.591V4.48242H15.0308V9.33982" stroke="white"/>
<path id="Vector_4" d="M5.42383 4.24722V2.14258H12.8299V4.24722" stroke="white"/>
<path id="Vector_5" d="M9.12695 0V2.14322" stroke="white"/>
<g id="Vector_6">
<mask id="path-6-inside-1_2120_93486" fill="white">
<path d="M5.40153 5.76758H4.49023V6.67973H5.40153V5.76758Z"/>
</mask>
<path d="M5.40153 5.76758H4.49023V6.67973H5.40153V5.76758Z" fill="white"/>
<path d="M4.49023 5.76758V4.76758H3.49023V5.76758H4.49023ZM5.40153 5.76758H6.40153V4.76758H5.40153V5.76758ZM5.40153 6.67973V7.67973H6.40153V6.67973H5.40153ZM4.49023 6.67973H3.49023V7.67973H4.49023V6.67973ZM4.49023 6.76758H5.40153V4.76758H4.49023V6.76758ZM4.40153 5.76758V6.67973H6.40153V5.76758H4.40153ZM5.40153 5.67973H4.49023V7.67973H5.40153V5.67973ZM5.49023 6.67973V5.76758H3.49023V6.67973H5.49023Z" fill="white" mask="url(#path-6-inside-1_2120_93486)"/>
</g>
<g id="Vector_7">
<mask id="path-8-inside-2_2120_93486" fill="white">
<path d="M7.27263 5.76758H6.36133V6.67973H7.27263V5.76758Z"/>
</mask>
<path d="M7.27263 5.76758H6.36133V6.67973H7.27263V5.76758Z" fill="white"/>
<path d="M6.36133 5.76758V4.76758H5.36133V5.76758H6.36133ZM7.27263 5.76758H8.27263V4.76758H7.27263V5.76758ZM7.27263 6.67973V7.67973H8.27263V6.67973H7.27263ZM6.36133 6.67973H5.36133V7.67973H6.36133V6.67973ZM6.36133 6.76758H7.27263V4.76758H6.36133V6.76758ZM6.27263 5.76758V6.67973H8.27263V5.76758H6.27263ZM7.27263 5.67973H6.36133V7.67973H7.27263V5.67973ZM7.36133 6.67973V5.76758H5.36133V6.67973H7.36133Z" fill="white" mask="url(#path-8-inside-2_2120_93486)"/>
</g>
<g id="Vector_8">
<mask id="path-10-inside-3_2120_93486" fill="white">
<path d="M11.8713 5.76758H10.96V6.67973H11.8713V5.76758Z"/>
</mask>
<path d="M11.8713 5.76758H10.96V6.67973H11.8713V5.76758Z" fill="white"/>
<path d="M10.96 5.76758V4.76758H9.95996V5.76758H10.96ZM11.8713 5.76758H12.8713V4.76758H11.8713V5.76758ZM11.8713 6.67973V7.67973H12.8713V6.67973H11.8713ZM10.96 6.67973H9.95996V7.67973H10.96V6.67973ZM10.96 6.76758H11.8713V4.76758H10.96V6.76758ZM10.8713 5.76758V6.67973H12.8713V5.76758H10.8713ZM11.8713 5.67973H10.96V7.67973H11.8713V5.67973ZM11.96 6.67973V5.76758H9.95996V6.67973H11.96Z" fill="white" mask="url(#path-10-inside-3_2120_93486)"/>
</g>
<g id="Vector_9">
<mask id="path-12-inside-4_2120_93486" fill="white">
<path d="M13.7433 5.76758H12.832V6.67973H13.7433V5.76758Z"/>
</mask>
<path d="M13.7433 5.76758H12.832V6.67973H13.7433V5.76758Z" fill="white"/>
<path d="M12.832 5.76758V4.76758H11.832V5.76758H12.832ZM13.7433 5.76758H14.7433V4.76758H13.7433V5.76758ZM13.7433 6.67973V7.67973H14.7433V6.67973H13.7433ZM12.832 6.67973H11.832V7.67973H12.832V6.67973ZM12.832 6.76758H13.7433V4.76758H12.832V6.76758ZM12.7433 5.76758V6.67973H14.7433V5.76758H12.7433ZM13.7433 5.67973H12.832V7.67973H13.7433V5.67973ZM13.832 6.67973V5.76758H11.832V6.67973H13.832Z" fill="white" mask="url(#path-12-inside-4_2120_93486)"/>
</g>
</g>
</svg>
