<svg width="19" height="17" viewBox="0 0 19 17" fill="none" xmlns="http://www.w3.org/2000/svg">
<path d="M1 3.655H5.454L7.372 1H11.725L13.493 3.655H18.188V15.588H1V3.655Z" stroke="white" stroke-width="1.2"/>
<path d="M9.4179 12.579C11.2112 12.579 12.6649 11.1252 12.6649 9.33196C12.6649 7.53869 11.2112 6.08496 9.4179 6.08496C7.62463 6.08496 6.1709 7.53869 6.1709 9.33196C6.1709 11.1252 7.62463 12.579 9.4179 12.579Z" stroke="white" stroke-width="1.2"/>
<path d="M15.7891 6.54988C16.1812 6.54988 16.4991 6.23201 16.4991 5.83988C16.4991 5.44776 16.1812 5.12988 15.7891 5.12988C15.397 5.12988 15.0791 5.44776 15.0791 5.83988C15.0791 6.23201 15.397 6.54988 15.7891 6.54988Z" fill="white"/>
</svg>
