<svg width="15" height="12" viewBox="0 0 15 12" fill="none" xmlns="http://www.w3.org/2000/svg">
<path id="weather" d="M0 7.76261C0 7.57745 0.061955 7.42789 0.185865 7.32107C0.28224 7.21424 0.426801 7.15727 0.612666 7.15727H2.04452C2.20973 7.15727 2.35429 7.21424 2.45755 7.32819C2.56769 7.44214 2.62276 7.58457 2.62276 7.75549C2.62276 7.92641 2.56769 8.06884 2.45755 8.18991C2.34741 8.31098 2.20973 8.36795 2.04452 8.36795H0.612666C0.447453 8.36795 0.302891 8.31098 0.178981 8.18991C0.055071 8.07596 0 7.93353 0 7.76261ZM0.633318 11.3804C0.633318 11.2166 0.695273 11.0742 0.812299 10.946C0.922441 10.832 1.067 10.7822 1.23222 10.7822H13.7678C13.933 10.7822 14.0776 10.8392 14.1946 10.9531C14.3116 11.0671 14.3667 11.2095 14.3667 11.3804C14.3667 11.5513 14.3047 11.6938 14.1877 11.8148C14.0707 11.9359 13.9261 12 13.7678 12H1.2391C1.07389 12 0.936209 11.9359 0.819183 11.8148C0.702157 11.6938 0.633318 11.5513 0.633318 11.3804ZM2.04452 2.71335C2.04452 2.52819 2.09959 2.39288 2.20285 2.29318C2.31987 2.16499 2.46443 2.10089 2.62965 2.10089C2.79486 2.10089 2.93254 2.16499 3.04956 2.29318L4.04084 3.33294C4.16475 3.44688 4.21983 3.58932 4.21983 3.76024C4.21983 3.93828 4.16475 4.08071 4.05461 4.19466C3.94447 4.30861 3.80679 4.36558 3.64158 4.36558C3.49013 4.36558 3.35246 4.30861 3.22855 4.19466L2.20285 3.14777C2.09959 3.04807 2.04452 2.90564 2.04452 2.71335ZM3.83433 7.76261C3.83433 8.3822 3.95824 8.93769 4.19917 9.42196C4.21983 9.48605 4.2749 9.52166 4.36439 9.52166H5.514C5.56219 9.52166 5.5966 9.50742 5.61037 9.47893C5.62414 9.45045 5.60349 9.40771 5.56219 9.36498C5.19734 8.90208 5.01147 8.36795 5.01147 7.76261C5.01147 7.05757 5.25929 6.45223 5.74805 5.95371C6.23681 5.45519 6.82194 5.20593 7.50344 5.20593C8.18495 5.20593 8.77008 5.45519 9.25883 5.95371C9.74759 6.45223 9.98164 7.05757 9.98164 7.76261C9.98164 8.37507 9.79578 8.9092 9.43093 9.36498C9.4034 9.40771 9.38963 9.4362 9.38963 9.45045C9.38274 9.47181 9.38963 9.49317 9.41028 9.5003C9.42405 9.51454 9.45158 9.52166 9.47912 9.52166H10.6494C10.7113 9.52166 10.7595 9.48605 10.7939 9.42196C11.0555 8.91632 11.1794 8.36795 11.1794 7.76261C11.1794 7.07893 11.0142 6.4451 10.6838 5.86113C10.3534 5.27715 9.90592 4.81424 9.34144 4.4724C8.77696 4.13056 8.1643 3.95964 7.50344 3.95964C6.84259 3.95964 6.22992 4.13056 5.66544 4.4724C5.10096 4.81424 4.65351 5.27715 4.32308 5.86113C3.99266 6.4451 3.83433 7.07893 3.83433 7.76261ZM6.91143 2.11513V0.626706C6.91143 0.455786 6.9665 0.313353 7.08352 0.185163C7.20055 0.0569734 7.33823 0 7.50344 0C7.66866 0 7.80633 0.0640951 7.93024 0.185163C8.04727 0.306232 8.10923 0.455786 8.10923 0.626706V2.11513C8.10923 2.28605 8.04727 2.42849 7.93024 2.55668C7.80633 2.68487 7.66866 2.74184 7.50344 2.74184C7.33823 2.74184 7.20055 2.67774 7.08352 2.55668C6.9665 2.42849 6.91143 2.28605 6.91143 2.11513ZM10.7802 3.76024C10.7802 3.58932 10.8352 3.44688 10.9454 3.33294L11.9367 2.29318C12.0537 2.16499 12.1983 2.10089 12.3635 2.10089C12.5356 2.10089 12.6801 2.15786 12.7903 2.27893C12.9073 2.4 12.9624 2.54243 12.9624 2.71335C12.9624 2.89852 12.9073 3.04095 12.804 3.14777L11.7646 4.19466C11.6544 4.30148 11.5168 4.35134 11.3584 4.35134C11.1863 4.35846 11.0486 4.30148 10.9385 4.19466C10.8352 4.08783 10.7802 3.93828 10.7802 3.76024ZM12.3841 7.76261C12.3841 7.57033 12.4392 7.42789 12.5493 7.32107C12.6457 7.21424 12.7834 7.15727 12.9555 7.15727H14.3942C14.5594 7.15727 14.704 7.21424 14.821 7.32819C14.938 7.44214 15 7.58457 15 7.75549C15 7.92641 14.938 8.06884 14.821 8.18991C14.6971 8.31098 14.5594 8.36795 14.3942 8.36795H12.9555C12.7972 8.36795 12.6595 8.31098 12.5493 8.18991C12.4392 8.07596 12.3841 7.93353 12.3841 7.76261Z" fill="white"/>
</svg>
