<svg width="22" height="16" viewBox="0 0 22 16" fill="none" xmlns="http://www.w3.org/2000/svg">
<g id="Group 1028">
<path id="Vector" d="M4.02487 14.9999C4.02487 14.9999 1.00369 14.485 1 11.4767C0.99908 10.4285 1.58305 8.75306 4.02487 8.57529C4.02487 8.57529 4.28462 5.05764 8.21861 4.94895C9.5413 4.91394 11.915 5.32752 12.2383 8.57529C12.2383 8.57529 16.1511 8.42976 16.2588 11.7144C16.2975 12.8722 15.9125 14.7844 12.9954 14.9999H4.02487Z" stroke="white" stroke-width="1.2"/>
<path id="Vector_2" d="M10.5371 5.53017C11.1616 4.60171 12.2218 3.99194 13.4257 3.99194C15.348 3.99194 16.9055 5.54859 16.9055 7.47183C16.9055 8.49517 16.4634 9.41534 15.7597 10.0527" stroke="white" stroke-width="1.2"/>
<path id="Vector_3" d="M7.35449 1.72974L9.1322 3.35731" stroke="white" stroke-width="1.2"/>
<path id="Vector_4" d="M17.2871 3.60704L19.1496 1.9021" stroke="white" stroke-width="1.2"/>
<path id="Vector_5" d="M19.2801 13.4435L17.5752 11.897" stroke="white" stroke-width="1.2"/>
<path id="Vector_6" d="M13.3633 2.39945V0" stroke="white" stroke-width="1.2"/>
<path id="Vector_7" d="M18.8994 7.56494H21.181" stroke="white" stroke-width="1.2"/>
</g>
</svg>
