<svg width="18" height="18" viewBox="0 0 18 18" fill="none" xmlns="http://www.w3.org/2000/svg">
<g id="Group 1261159940">
<path id="Vector" d="M3.51959 11.8725C3.67018 11.5437 4.21461 10.2758 4.96756 11.8725C5.52002 13.0443 6.7577 15.2728 7.28787 16.4392C7.40549 16.6967 7.64697 17.6778 6.42889 17.251C5.99762 17.0995 5.23933 16.7101 4.81875 16.531C4.57906 16.4294 4.37322 16.2895 3.77889 16.4945C3.36365 16.637 2.54121 17.0068 2.12686 17.1529C1.85777 17.2474 0.52296 17.7526 1.17967 16.5123C1.78826 15.3655 2.96535 13.0799 3.51959 11.8725Z" stroke="white"/>
<path id="Vector_2" d="M4.19478 8.98365V5.34012C4.19478 5.34012 4.09676 2.92802 6.8234 2.83357C7.73941 2.80238 9.56162 3.23276 9.534 5.30269V15.0491C9.534 15.0491 9.59013 17.3596 12.1145 17.2393C12.9316 17.2001 14.4348 17.2455 14.5649 15.0669V10.3149" stroke="white"/>
<path id="Vector_3" d="M17.0298 3.46467C17.1172 5.1657 14.607 8.03134 14.5661 8.03134C14.5224 8.03134 11.9873 4.9964 12.1014 3.46467C12.2021 2.10759 13.2045 1 14.5652 1C15.9258 1 16.9603 2.10491 17.0298 3.46467Z" stroke="white"/>
<path id="Vector_4" d="M14.5444 4.56337C15.0365 4.56337 15.4354 4.16443 15.4354 3.67231C15.4354 3.18019 15.0365 2.78125 14.5444 2.78125C14.0523 2.78125 13.6533 3.18019 13.6533 3.67231C13.6533 4.16443 14.0523 4.56337 14.5444 4.56337Z" fill="white"/>
</g>
</svg>
