<svg width="14" height="13" viewBox="0 0 14 13" fill="none" xmlns="http://www.w3.org/2000/svg">
<path id="AI" d="M11.101 12.442H9.333L8.041 8.838H3.349L2.057 12.442H0.34L4.896 0.184999H6.528L11.101 12.442ZM3.859 7.393H7.531L6.511 4.52C6.42033 4.27067 6.341 4.05533 6.273 3.874C6.205 3.68133 6.14267 3.5 6.086 3.33C6.02933 3.14867 5.967 2.96167 5.899 2.769C5.84233 2.57633 5.77433 2.33833 5.695 2.055C5.60433 2.33833 5.53067 2.582 5.474 2.786C5.41733 2.97867 5.36067 3.16 5.304 3.33C5.24733 3.5 5.185 3.68133 5.117 3.874C5.06033 4.05533 4.98667 4.27067 4.896 4.52L3.859 7.393ZM14.0055 0.184999V12.442H12.3225V0.184999H14.0055Z" fill="white"/>
</svg>
