<svg width="22" height="21" viewBox="0 0 22 21" fill="none" xmlns="http://www.w3.org/2000/svg">
<g id="Group 1076">
<g id="ship">
<path id="Vector" d="M10.9004 13.8172V10.6316H19.0512V13.6588" stroke="white" stroke-width="1.2"/>
<path id="Vector_2" d="M14.9771 7.04968V8.51008" stroke="white" stroke-width="1.2"/>
<path id="Vector_3" d="M12.0962 10.6316V8.51009H17.8571V10.6316" stroke="white" stroke-width="1.2"/>
<path id="Vector_4" d="M10.9013 20.4019L9 14.6147L14.9768 12.0125L21 14.4765L19.0522 20.4019" stroke="white" stroke-width="1.2"/>
<path id="Vector_5" d="M15.0005 11.9856V17.5079" stroke="white" stroke-width="1.2"/>
<path id="Vector_6" d="M9.10547 20.4018H20.867" stroke="white" stroke-width="1.2"/>
</g>
<path id="Vector_7" d="M11.7526 5.9153L2.55647 8.33333L0.833496 5.38251L1.79878 5.12636L3.10658 6.14071L5.58725 5.48497L3.0962 1.22268L4.54931 0.833332L8.71144 4.6653L11.244 3.99932C11.7734 3.85587 12.3235 4.1735 12.4688 4.69604C12.6037 5.21858 12.2923 5.76161 11.7526 5.9153Z" stroke="white"/>
</g>
</svg>
