<svg width="32" height="42" viewBox="0 0 32 42" fill="none" xmlns="http://www.w3.org/2000/svg">
<g id="Group 809">
<path id="Vector" d="M10.984 41C13.1026 40.9998 15.1662 40.332 16.8765 39.0931C18.5867 37.8542 19.8548 36.1084 20.4975 34.1083C21.1402 32.1082 21.1241 29.9573 20.4516 27.9669C19.7791 25.9764 18.485 24.2494 16.7564 23.0358V6.69013C16.7486 5.17835 16.137 3.73112 15.0553 2.66485C13.9736 1.59857 12.5098 1 10.9839 1C9.45804 1 7.99423 1.59857 6.91252 2.66485C5.83082 3.73112 5.21922 5.17835 5.21145 6.69013V23.0358C3.48295 24.2495 2.18888 25.9764 1.51639 27.9669C0.843899 29.9573 0.827847 32.1081 1.47056 34.1082C2.11326 36.1083 3.38142 37.8541 5.09162 39.0929C6.80182 40.3318 8.86542 40.9998 10.984 41ZM6.33707 24.0178C6.43782 23.9522 6.52049 23.8628 6.57764 23.7576C6.63479 23.6524 6.66461 23.5347 6.66443 23.4153V6.69013C6.67115 5.55947 7.1292 4.47739 7.93853 3.68023C8.74786 2.88308 9.84271 2.43563 10.9839 2.43563C12.1251 2.43563 13.22 2.88308 14.0293 3.68023C14.8386 4.47739 15.2967 5.55947 15.3034 6.69013V23.4153C15.3032 23.5348 15.3331 23.6524 15.3903 23.7576C15.4474 23.8628 15.5301 23.9522 15.6309 24.0178C17.1737 25.0107 18.3511 26.471 18.9877 28.181C19.6243 29.8911 19.6859 31.7592 19.1633 33.5067C18.6408 35.2543 17.562 36.7876 16.088 37.8781C14.614 38.9686 12.8236 39.5578 10.984 39.5578C9.14438 39.5578 7.35404 38.9686 5.88001 37.8781C4.40598 36.7876 3.32723 35.2543 2.80466 33.5067C2.28209 31.7592 2.34369 29.8911 2.98028 28.181C3.61687 26.471 4.79434 25.0107 6.33707 24.0178Z" fill="#A8ABC9" stroke="#A8ABC9" stroke-width="0.5"/>
<path id="Vector_2" d="M10.9841 36.0166C12.2597 36.0196 13.4887 35.542 14.4221 34.6806C15.3555 33.8192 15.9235 32.6385 16.0109 31.3776C16.0984 30.1168 15.6987 28.8702 14.893 27.8904C14.0873 26.9106 12.9358 26.271 11.6718 26.101C11.6936 26.0402 11.7066 25.9766 11.7105 25.9121V5.86529C11.7078 5.67618 11.63 5.49573 11.4941 5.36296C11.3581 5.23019 11.1749 5.15576 10.984 5.15576C10.7931 5.15576 10.6099 5.23019 10.474 5.36296C10.338 5.49573 10.2603 5.67618 10.2575 5.86529V25.9128C10.2615 25.9773 10.2745 26.0409 10.2963 26.1018C9.03223 26.2717 7.88063 26.9114 7.07491 27.8913C6.26919 28.8712 5.86962 30.1179 5.95718 31.3788C6.04473 32.6397 6.61287 33.8205 7.54645 34.6818C8.48002 35.5431 9.70845 36.0198 10.9841 36.0166ZM10.9841 27.4719C11.6931 27.4721 12.3861 27.6805 12.9755 28.0708C13.5649 28.4612 14.0243 29.0159 14.2955 29.6649C14.5668 30.3139 14.6377 31.028 14.4994 31.7169C14.361 32.4058 14.0196 33.0386 13.5183 33.5353C13.017 34.032 12.3783 34.3702 11.6829 34.5073C10.9876 34.6444 10.2668 34.5741 9.61182 34.3054C8.95679 34.0366 8.3969 33.5815 8.00292 32.9975C7.60895 32.4135 7.39859 31.7269 7.39844 31.0245C7.39967 30.0827 7.77784 29.1798 8.45002 28.5138C9.1222 27.8478 10.0335 27.4732 10.9841 27.4719Z" fill="#A8ABC9" stroke="#A8ABC9" stroke-width="0.5"/>
<path id="Vector_3" d="M21.9486 8.06554H30.2777C30.4686 8.06283 30.6507 7.9858 30.7847 7.85111C30.9187 7.71642 30.9938 7.53489 30.9938 7.34576C30.9938 7.15663 30.9187 6.9751 30.7847 6.84041C30.6507 6.70572 30.4686 6.62869 30.2777 6.62598H21.9486C21.7577 6.62869 21.5756 6.70572 21.4416 6.84041C21.3075 6.9751 21.2324 7.15663 21.2324 7.34576C21.2324 7.53489 21.3075 7.71642 21.4416 7.85111C21.5756 7.9858 21.7577 8.06283 21.9486 8.06554Z" fill="#A8ABC9" stroke="#A8ABC9" stroke-width="0.5"/>
<path id="Vector_4" d="M21.9437 13.985H30.2728C30.4656 13.985 30.6505 13.9091 30.7868 13.7741C30.9231 13.639 30.9997 13.4558 30.9997 13.2648C30.9997 13.0738 30.9231 12.8907 30.7868 12.7556C30.6505 12.6206 30.4656 12.5447 30.2728 12.5447H21.9437C21.7509 12.5447 21.566 12.6206 21.4297 12.7556C21.2934 12.8907 21.2168 13.0738 21.2168 13.2648C21.2168 13.4558 21.2934 13.639 21.4297 13.7741C21.566 13.9091 21.7509 13.985 21.9437 13.985Z" fill="#A8ABC9" stroke="#A8ABC9" stroke-width="0.5"/>
<path id="Vector_5" d="M21.9437 19.9049H30.2728C30.4656 19.9049 30.6505 19.829 30.7868 19.694C30.9231 19.5589 30.9997 19.3757 30.9997 19.1848C30.9997 18.9938 30.9231 18.8106 30.7868 18.6755C30.6505 18.5405 30.4656 18.4646 30.2728 18.4646H21.9437C21.7509 18.4646 21.566 18.5405 21.4297 18.6755C21.2934 18.8106 21.2168 18.9938 21.2168 19.1848C21.2168 19.3757 21.2934 19.5589 21.4297 19.694C21.566 19.829 21.7509 19.9049 21.9437 19.9049Z" fill="#A8ABC9" stroke="#A8ABC9" stroke-width="0.5"/>
</g>
</svg>
