<svg width="17" height="17" viewBox="0 0 17 17" fill="none" xmlns="http://www.w3.org/2000/svg">
<g id="Group 1261159941">
<path id="Vector" d="M6.10458 13.8858H13.6877C13.6877 13.8858 16.2254 13.9889 16.3248 11.1203C16.3576 10.1566 15.9048 8.24042 13.7271 8.26948H3.47312C3.47312 8.26948 1.04228 8.21042 1.16884 5.55459C1.21009 4.69493 1.16228 3.11343 3.45437 2.97656H12.2037" stroke="white" stroke-dasharray="2 1"/>
<path id="Vector_2" d="M12.7324 1L16.5995 4.87547" stroke="white"/>
<path id="Vector_3" d="M16.5995 1L12.7324 4.87547" stroke="white"/>
<path id="Vector_4" d="M2.88149 15.9915C3.92061 15.9915 4.76298 15.1491 4.76298 14.11C4.76298 13.0709 3.92061 12.2285 2.88149 12.2285C1.84237 12.2285 1 13.0709 1 14.11C1 15.1491 1.84237 15.9915 2.88149 15.9915Z" stroke="white"/>
</g>
</svg>
