<svg width="14" height="14" viewBox="0 0 14 14" fill="none" xmlns="http://www.w3.org/2000/svg">
<g id="Weather_Icons" clip-path="url(#clip0_4464_198330)">
<path id="Vector" d="M9.59027 13.9996C9.50875 13.9996 9.42352 13.9811 9.34199 13.9403C9.06777 13.8032 8.9566 13.4697 9.09371 13.1955L9.27158 12.8398C9.66439 12.0467 9.96825 11.2167 10.1795 10.3681C9.3494 11.1537 8.23029 11.6354 7.00001 11.6354C4.44681 11.6354 2.36793 9.55654 2.36793 7.00334C2.36793 6.95146 2.36793 6.89958 2.36793 6.844C2.30864 4.70583 2.77556 2.58619 3.73162 0.666653L3.90949 0.310909C4.0466 0.0366899 4.38011 -0.07448 4.65433 0.0626296C4.92855 0.199739 5.03972 0.533249 4.90261 0.807468L4.72473 1.16321C4.33193 1.95622 4.02807 2.78629 3.81685 3.63489C4.64692 2.84929 5.76603 2.36755 6.99631 2.36755C9.54951 2.36755 11.6284 4.44643 11.6284 6.99963C11.6284 7.05151 11.6284 7.10339 11.6284 7.15898C11.6877 9.29715 11.2208 11.4168 10.2647 13.3363L10.0868 13.6921C9.99048 13.8885 9.79408 13.9996 9.59027 13.9996ZM3.52039 7.53325C3.77979 9.22303 5.23982 10.52 7.00001 10.52C8.8899 10.52 10.4352 9.02293 10.5167 7.15157C10.5093 6.94405 10.4982 6.73653 10.4796 6.52901C10.4796 6.50678 10.4796 6.48455 10.4796 6.46602C10.2202 4.77624 8.7602 3.47925 7.00001 3.47925C5.11012 3.47925 3.56486 4.97634 3.48334 6.8477C3.49075 7.05522 3.50187 7.26274 3.52039 7.47025C3.52039 7.49249 3.52039 7.51472 3.52039 7.53325Z" fill="white"/>
<path id="Vector_2" d="M0 9.59064C0 9.50911 0.0185283 9.42388 0.0592906 9.34236C0.1964 9.06814 0.52991 8.95697 0.804129 9.09408L1.15987 9.27195C1.95289 9.66475 2.78295 9.96862 3.63155 10.1798C2.84595 9.34977 2.36421 8.23066 2.36421 7.00038C2.36421 4.44718 4.44309 2.3683 6.99629 2.3683C7.04817 2.3683 7.10005 2.3683 7.15564 2.3683C9.29381 2.30901 11.4134 2.77592 13.333 3.73198L13.6887 3.90985C13.9629 4.04696 14.0741 4.38047 13.937 4.65469C13.7999 4.92891 13.4664 5.04008 13.1922 4.90297L12.8364 4.7251C12.0434 4.3323 11.2133 4.02844 10.3647 3.81721C11.1503 4.64728 11.6321 5.76639 11.6321 6.99667C11.6321 9.54988 9.5532 11.6288 7 11.6288C6.94812 11.6288 6.89624 11.6288 6.84066 11.6288C4.70249 11.688 2.58285 11.2211 0.663314 10.2651L0.30757 10.0872C0.11117 9.99085 0 9.79445 0 9.59064ZM6.46638 3.52076C4.7766 3.78016 3.47962 5.24019 3.47962 7.00038C3.47962 8.89027 4.97671 10.4355 6.84807 10.5171C7.05559 10.5096 7.2631 10.4985 7.47062 10.48C7.49285 10.48 7.51509 10.48 7.53362 10.48C9.2234 10.2206 10.5204 8.76057 10.5204 7.00038C10.5204 5.11049 9.02329 3.56523 7.15193 3.4837C6.94442 3.49111 6.7369 3.50223 6.52938 3.52076C6.50715 3.52076 6.48491 3.52076 6.46638 3.52076Z" fill="white"/>
</g>
<defs>
<clipPath id="clip0_4464_198330">
<rect width="14" height="14" fill="white"/>
</clipPath>
</defs>
</svg>
