<svg width="16" height="20" viewBox="0 0 16 20" fill="none" xmlns="http://www.w3.org/2000/svg">
<g id="Group 1248">
<path id="Vector" d="M0.5 16.5667V14.3667H15.5V16.5667H0.5Z" stroke="white"/>
<g id="Vector_2">
<mask id="path-2-inside-1_2718_89975" fill="white">
<path d="M1 14C1 14 2.42947 13.3227 2.56151 10.9647C2.65528 9.29436 3.00738 5.42649 3.42838 4.33865C3.97854 2.91842 4.54975 1.02095 8.18275 1.00011C9.47731 0.992816 11.5402 1.34188 12.6233 4.35428C13.2175 6.0048 13.4509 10.7031 13.5504 11.3711C13.6595 12.0994 14.2374 13.3967 15 13.999"/>
</mask>
<path d="M2.56151 10.9647L1.3634 10.8974L1.36339 10.8976L2.56151 10.9647ZM3.42838 4.33865L2.3094 3.90519L2.30926 3.90555L3.42838 4.33865ZM8.18275 1.00011L8.17599 -0.199871L8.17587 -0.199871L8.18275 1.00011ZM12.6233 4.35428L11.4941 4.76029L11.4942 4.76074L12.6233 4.35428ZM13.5504 11.3711L12.3635 11.5479L12.3637 11.5488L13.5504 11.3711ZM1 14C1.51381 15.0844 1.51451 15.0841 1.51522 15.0838C1.51546 15.0837 1.51618 15.0833 1.51666 15.0831C1.51763 15.0826 1.51863 15.0821 1.51965 15.0816C1.52169 15.0807 1.52382 15.0796 1.52605 15.0786C1.53049 15.0764 1.53531 15.074 1.54048 15.0714C1.55082 15.0663 1.56259 15.0603 1.57569 15.0533C1.60189 15.0395 1.6335 15.0221 1.66974 15.0008C1.74215 14.9583 1.83354 14.8999 1.9376 14.8231C2.14567 14.6697 2.40612 14.4417 2.66571 14.1194C3.19542 13.4619 3.67944 12.4638 3.75963 11.0318L1.36339 10.8976C1.31153 11.8236 1.0148 12.3431 0.796767 12.6138C0.682482 12.7556 0.577319 12.8443 0.513238 12.8915C0.481216 12.9151 0.459902 12.9281 0.453623 12.9318C0.450518 12.9336 0.451282 12.933 0.456479 12.9303C0.459083 12.9289 0.46281 12.927 0.467732 12.9245C0.470193 12.9233 0.472956 12.9219 0.476028 12.9204C0.477564 12.9197 0.479178 12.9189 0.48087 12.9181C0.481717 12.9177 0.482583 12.9173 0.483469 12.9169C0.483911 12.9166 0.484591 12.9163 0.484813 12.9162C0.485497 12.9159 0.486186 12.9156 1 14ZM3.75962 11.0319C3.80519 10.2203 3.91463 8.85947 4.06422 7.5717C4.13901 6.92785 4.22247 6.31415 4.31096 5.8025C4.40405 5.26421 4.48917 4.92247 4.54749 4.77175L2.30926 3.90555C2.15709 4.29876 2.04032 4.84844 1.94606 5.39353C1.84719 5.96525 1.75783 6.62689 1.68025 7.29478C1.52509 8.63048 1.4116 10.0388 1.3634 10.8974L3.75962 11.0319ZM4.54735 4.77212C4.85214 3.98531 5.04774 3.43591 5.4908 3.0003C5.8751 2.62247 6.59221 2.20925 8.18963 2.20009L8.17587 -0.199871C6.1403 -0.188194 4.7553 0.357744 3.8082 1.28891C2.91987 2.16231 2.55477 3.27176 2.3094 3.90519L4.54735 4.77212ZM8.18951 2.20009C8.73246 2.19703 9.33279 2.27115 9.88852 2.5876C10.4195 2.88996 11.0356 3.4851 11.4941 4.76029L13.7525 3.94827C13.1279 2.21107 12.171 1.12547 11.0761 0.502023C10.006 -0.107339 8.9276 -0.204106 8.17599 -0.199871L8.18951 2.20009ZM11.4942 4.76074C11.7312 5.41904 11.9294 6.84759 12.0782 8.34945C12.1496 9.06958 12.2059 9.76127 12.251 10.3214C12.2935 10.8478 12.3309 11.3285 12.3635 11.5479L14.7373 11.1942C14.7203 11.0796 14.6912 10.7226 14.6433 10.1286C14.5981 9.56839 14.5403 8.8571 14.4665 8.11284C14.3252 6.68592 14.1095 4.94003 13.7524 3.94782L11.4942 4.76074ZM12.3637 11.5488C12.4428 12.0772 12.6684 12.7108 12.964 13.283C13.2572 13.8506 13.6876 14.4916 14.2562 14.9407L15.7438 13.0572C15.5498 12.9041 15.31 12.5953 15.0963 12.1816C14.885 11.7725 14.7671 11.3932 14.7372 11.1933L12.3637 11.5488Z" fill="white" mask="url(#path-2-inside-1_2718_89975)"/>
</g>
<g id="Vector_3">
<mask id="path-4-inside-2_2718_89975" fill="white">
<path d="M10.6663 17.0667C10.4599 18.2754 9.34461 19.2 7.99918 19.2C6.65473 19.2 5.53947 18.2754 5.33301 17.0667"/>
</mask>
<path d="M9.48347 16.8646C9.38276 17.4542 8.80419 18 7.99918 18V20.4C9.88504 20.4 11.537 19.0965 11.8492 17.2687L9.48347 16.8646ZM7.99918 18C7.19544 18 6.61663 17.4545 6.51588 16.8646L4.15014 17.2687C4.4623 19.0962 6.11403 20.4 7.99918 20.4V18Z" fill="white" mask="url(#path-4-inside-2_2718_89975)"/>
</g>
<g id="Vector_4">
<mask id="path-6-inside-3_2718_89975" fill="white">
<path d="M6.40039 2.13333C6.40039 0.955823 7.11726 0 8.00039 0C8.88352 0 9.60039 0.955823 9.60039 2.13333"/>
</mask>
<path d="M7.60039 2.13333C7.60039 1.77944 7.70964 1.50454 7.82922 1.3451C7.88743 1.26748 7.93851 1.22922 7.96757 1.21283C7.98164 1.20489 7.99055 1.20198 7.99423 1.20098C7.99758 1.20006 7.99911 1.2 8.00039 1.2V-1.2C7.096 -1.2 6.36899 -0.707928 5.90922 -0.0948993C5.44958 0.517951 5.20039 1.30972 5.20039 2.13333H7.60039ZM8.00039 1.2C8.00167 1.2 8.0032 1.20006 8.00655 1.20098C8.01023 1.20198 8.01914 1.20489 8.03321 1.21283C8.06227 1.22922 8.11335 1.26748 8.17157 1.3451C8.29114 1.50454 8.40039 1.77944 8.40039 2.13333H10.8004C10.8004 1.30972 10.5512 0.517951 10.0916 -0.0948998C9.63179 -0.707929 8.90478 -1.2 8.00039 -1.2V1.2Z" fill="white" mask="url(#path-6-inside-3_2718_89975)"/>
</g>
</g>
</svg>
