<svg width="20" height="20" viewBox="0 0 20 20" fill="none" xmlns="http://www.w3.org/2000/svg">
<g id="Group">
<path id="Vector" d="M11.3496 9.3C10.963 9.3 10.6496 9.6134 10.6496 10C10.6496 10.3866 10.963 10.7 11.3496 10.7V9.3ZM11.3496 10.7H16.2996V9.3H11.3496V10.7Z" fill="white"/>
<path id="Vector 317" d="M14 7.5L16.5 10L14 12.5" stroke="white"/>
<path id="Vector_2" d="M10.0004 11.3499C9.25483 11.3499 8.65039 10.7455 8.65039 9.9999C8.65039 9.25434 9.25483 8.6499 10.0004 8.6499C10.746 8.6499 11.3504 9.25434 11.3504 9.9999C11.3504 10.7455 10.746 11.3499 10.0004 11.3499Z" stroke="white" stroke-width="1.4"/>
<path id="Vector_3" d="M10 19C5.02943 19 1 14.9705 1 10C1 5.02943 5.02943 1 10 1C14.9705 1 19 5.02943 19 10C19 14.9705 14.9705 19 10 19Z" stroke="white" stroke-width="1.4"/>
</g>
</svg>
