<svg width="21" height="21" viewBox="0 0 21 21" fill="none" xmlns="http://www.w3.org/2000/svg">
<g id="Group 1081">
<path id="Vector" d="M18 3H3V18H18V3Z" stroke="white" stroke-width="1.2" stroke-linecap="round"/>
<path id="Vector_2" d="M2.37931 3.75862C3.14108 3.75862 3.75862 3.14108 3.75862 2.37931C3.75862 1.61755 3.14108 1 2.37931 1C1.61755 1 1 1.61755 1 2.37931C1 3.14108 1.61755 3.75862 2.37931 3.75862Z" fill="white" stroke="white" stroke-width="1.4" stroke-linecap="round" stroke-linejoin="round"/>
<path id="Vector_3" d="M18.3793 19.7586C19.1411 19.7586 19.7586 19.1411 19.7586 18.3793C19.7586 17.6175 19.1411 17 18.3793 17C17.6175 17 17 17.6175 17 18.3793C17 19.1411 17.6175 19.7586 18.3793 19.7586Z" fill="white" stroke="white" stroke-width="1.4" stroke-linecap="round" stroke-linejoin="round"/>
</g>
</svg>
