<svg width="27" height="26" viewBox="0 0 27 26" fill="none" xmlns="http://www.w3.org/2000/svg">
<g id="Group 1261160016">
<path id="Vector 172" d="M5.50039 7.6V21.7132M10.8337 7.6V18.4679M16.1671 7.6V22M21.5004 7.6V20.9132M1.90039 6.4C4.30039 7.6 5.90039 7.6 13.9004 7.6C21.9004 7.6 23.9004 6.8 24.7004 6" stroke="white" stroke-width="1.2" stroke-linecap="round" stroke-linejoin="round"/>
<circle id="Ellipse 193" cx="5.50039" cy="22.7992" r="1.6" fill="white"/>
<circle id="Ellipse 194" cx="11.1" cy="18.7992" r="1.6" fill="white"/>
<circle id="Ellipse 195" cx="16.2998" cy="24" r="2" fill="white"/>
<circle id="Ellipse 196" cx="21.9004" cy="21.5996" r="2" fill="white"/>
<path id="Vector 174" d="M15.9004 4.39922V1.19922M20.5122 4.39922L21.5004 1.99922" stroke="white" stroke-width="1.2" stroke-linecap="round" stroke-linejoin="round"/>
<path id="Vector 175" d="M11.0996 4.39922V1.19922M6.48784 4.39922L5.49961 1.99922" stroke="white" stroke-width="1.2" stroke-linecap="round" stroke-linejoin="round"/>
<path id="Subtract" fill-rule="evenodd" clip-rule="evenodd" d="M2.86987 14.9932C3.30518 13.8244 4.31123 12.244 5.94058 11.5418C8.42996 10.4688 11.4223 11.859 11.6658 12.4241C11.9094 12.9891 10.8654 16.1191 8.37597 17.192C6.74663 17.8943 4.90673 17.5406 3.75823 17.0547L2.67938 18.9027C2.52949 19.1593 2.12717 19.1281 2.0763 18.8557L1.67896 16.7286L0.405727 14.9793C0.242581 14.7552 0.496118 14.4412 0.785656 14.5086L2.86987 14.9932ZM8.66292 14.2407C9.11359 14.2407 9.47893 13.8754 9.47893 13.4247C9.47893 12.974 9.11359 12.6087 8.66292 12.6087C8.21225 12.6087 7.84691 12.974 7.84691 13.4247C7.84691 13.8754 8.21225 14.2407 8.66292 14.2407Z" fill="white"/>
<path id="Subtract_2" fill-rule="evenodd" clip-rule="evenodd" d="M24.1176 15.4625C23.7322 14.4277 22.8414 13.0284 21.3988 12.4066C19.1946 11.4566 16.5452 12.6875 16.3296 13.1878C16.1139 13.6881 17.0383 16.4594 19.2424 17.4094C20.6851 18.0312 22.3141 17.7181 23.331 17.2879L24.2863 18.924C24.419 19.1512 24.7752 19.1237 24.8202 18.8824L25.172 16.9991L26.2994 15.4503C26.4438 15.2519 26.2193 14.9738 25.963 15.0335L24.1176 15.4625ZM18.9891 14.7959C18.59 14.7959 18.2666 14.4724 18.2666 14.0734C18.2666 13.6744 18.59 13.3509 18.9891 13.3509C19.3881 13.3509 19.7116 13.6744 19.7116 14.0734C19.7116 14.4724 19.3881 14.7959 18.9891 14.7959Z" fill="white"/>
</g>
</svg>
