<svg width="28" height="18" viewBox="0 0 28 18" fill="none" xmlns="http://www.w3.org/2000/svg">
<g id="ship">
<path id="Vector 9" d="M16.1142 3.66847C16.3304 6.2582 18.7126 10.8411 26.5119 8.45477C23.8415 9.36133 18.0566 12.313 16.2799 16.8673" stroke="white" stroke-width="1.2" stroke-linecap="round"/>
<path id="Vector" d="M8.9639 3.25781H5.6486C5.54535 3.25781 5.4438 3.28615 5.35349 3.34015C5.26318 3.39416 5.18709 3.47205 5.13237 3.56652L3.02849 7.19881H0.345078C0.292222 7.19877 0.240266 7.21358 0.194325 7.24179C0.148385 7.26999 0.110044 7.31062 0.0830755 7.35967C0.0561075 7.40872 0.041441 7.4645 0.0405216 7.52152C0.0396023 7.57854 0.0524616 7.63484 0.0778332 7.68487L2.47452 12.4252C3.01061 12.5028 3.55616 12.4245 4.05485 12.1985C4.55354 11.9726 4.9873 11.6071 5.31134 11.1398C5.5946 11.548 5.96219 11.8793 6.3849 12.1073C6.80761 12.3354 7.27378 12.4539 7.74638 12.4535C8.21899 12.4539 8.68516 12.3354 9.10787 12.1073C9.53058 11.8793 9.89817 11.548 10.1814 11.1398C10.4987 11.5971 10.9211 11.9571 11.4069 12.1841C11.8928 12.411 12.4251 12.4971 12.9513 12.4338L13.7037 7.97322C13.7197 7.87855 13.7162 7.78125 13.6934 7.68821C13.6707 7.59517 13.6293 7.50865 13.5722 7.43477C13.515 7.3609 13.4435 7.30147 13.3627 7.2607C13.282 7.21993 13.1939 7.1988 13.1047 7.19881H12.6165V3.91465C12.6165 3.74044 12.5523 3.57337 12.4382 3.45019C12.324 3.32701 12.1692 3.25781 12.0077 3.25781H11.3989H8.9639ZM11.3989 7.19881H4.46395L5.98585 4.57148H11.3989V7.19881ZM12.6165 13.7671C11.7178 13.7685 10.8504 13.411 10.1814 12.7635C9.51244 13.411 8.64507 13.7685 7.74638 13.7671C6.84769 13.7685 5.98033 13.411 5.31134 12.7635C4.64236 13.411 3.77499 13.7685 2.8763 13.7671H1.65878V15.0808H2.8763C3.73122 15.0823 4.5713 14.8399 5.31134 14.378C6.05138 14.8399 6.89147 15.0823 7.74638 15.0808C8.6013 15.0823 9.44138 14.8399 10.1814 14.378C10.9215 14.8399 11.7615 15.0823 12.6165 15.0808H13.834V13.7671H12.6165Z" fill="white"/>
</g>
</svg>
