<svg width="25" height="22" viewBox="0 0 25 22" fill="none" xmlns="http://www.w3.org/2000/svg">
<g id="ship">
<path id="Vector 9" d="M17.9692 9.60156C17.1576 11.7117 17.2874 16.2033 24.2996 17.2885C21.8648 16.9871 16.2161 17.1076 13.0996 20.0016" stroke="white" stroke-width="1.2" stroke-linecap="round"/>
<path id="Vector" d="M8.06296 11.2012H5.17873C5.0889 11.2012 5.00055 11.2258 4.92199 11.2728C4.84343 11.3198 4.77723 11.3876 4.72962 11.4697L2.8993 14.6297H0.5648C0.518816 14.6297 0.473617 14.6426 0.433649 14.6671C0.393682 14.6917 0.360326 14.727 0.336864 14.7697C0.313402 14.8124 0.300643 14.8609 0.299844 14.9105C0.299044 14.9601 0.310231 15.0091 0.332303 15.0526L2.41736 19.1766C2.88374 19.244 3.35836 19.1759 3.79221 18.9794C4.22605 18.7828 4.60341 18.4648 4.88532 18.0583C5.13175 18.4134 5.45154 18.7016 5.81929 18.9C6.18703 19.0984 6.5926 19.2015 7.00375 19.2012C7.4149 19.2015 7.82046 19.0984 8.18821 18.9C8.55595 18.7016 8.87574 18.4134 9.12217 18.0583C9.39815 18.4562 9.76567 18.7693 10.1883 18.9668C10.611 19.1642 11.0741 19.2391 11.5319 19.184L12.1865 15.3035C12.2004 15.2211 12.1973 15.1365 12.1775 15.0555C12.1577 14.9746 12.1217 14.8993 12.072 14.835C12.0223 14.7708 11.9601 14.7191 11.8898 14.6836C11.8196 14.6481 11.7429 14.6297 11.6653 14.6297H11.2406V11.7726C11.2406 11.621 11.1848 11.4757 11.0855 11.3685C10.9862 11.2614 10.8514 11.2012 10.711 11.2012H10.1814H8.06296ZM10.1814 14.6297H4.14811L5.47213 12.344H10.1814V14.6297ZM11.2406 20.344C10.4588 20.3452 9.70417 20.0342 9.12217 19.4709C8.54017 20.0342 7.78559 20.3452 7.00375 20.344C6.22191 20.3452 5.46732 20.0342 4.88532 19.4709C4.30333 20.0342 3.54874 20.3452 2.7669 20.344H1.70769V21.4869H2.7669C3.51066 21.4882 4.24151 21.2773 4.88532 20.8755C5.52914 21.2773 6.25999 21.4882 7.00375 21.4869C7.7475 21.4882 8.47835 21.2773 9.12217 20.8755C9.76599 21.2773 10.4968 21.4882 11.2406 21.4869H12.2998V20.344H11.2406Z" fill="white"/>
<path id="Vector_2" d="M12.0632 1.71428H9.17902C9.08919 1.71428 9.00084 1.73893 8.92228 1.78592C8.84372 1.8329 8.77752 1.90067 8.72991 1.98286L6.89959 5.14286H4.56509C4.51911 5.14282 4.47391 5.1557 4.43394 5.18024C4.39397 5.20478 4.36062 5.24012 4.33715 5.28279C4.31369 5.32546 4.30093 5.37399 4.30013 5.4236C4.29933 5.47321 4.31052 5.52219 4.33259 5.56571L6.41765 9.68971C6.88403 9.75715 7.35865 9.68906 7.7925 9.49248C8.22634 9.29589 8.6037 8.97793 8.88561 8.57143C9.13204 8.92653 9.45183 9.21474 9.81958 9.41313C10.1873 9.61152 10.5929 9.71464 11.004 9.71428C11.4152 9.71464 11.8208 9.61152 12.1885 9.41313C12.5562 9.21474 12.876 8.92653 13.1225 8.57143C13.3984 8.96928 13.766 9.28244 14.1886 9.47989C14.6113 9.67734 15.0744 9.75223 15.5322 9.69714L16.1868 5.81657C16.2006 5.73421 16.1976 5.64956 16.1778 5.56862C16.158 5.48767 16.122 5.4124 16.0723 5.34813C16.0226 5.28387 15.9604 5.23217 15.8901 5.19669C15.8199 5.16122 15.7432 5.14284 15.6656 5.14286H15.2409V2.28571C15.2409 2.13416 15.1851 1.98882 15.0858 1.88165C14.9864 1.77449 14.8517 1.71428 14.7113 1.71428H14.1817V0H12.0632V1.71428ZM14.1817 5.14286H8.1484L9.47242 2.85714H14.1817V5.14286Z" fill="white"/>
</g>
</svg>
