<svg width="25" height="26" viewBox="0 0 25 26" fill="none" xmlns="http://www.w3.org/2000/svg">
<g id="Group 1261160015">
<g id="Group 625">
<g id="Group 622">
<path id="Vector 145" d="M11.0538 15.1299L9.28355 15.4137M11.4374 16.9732L9.77419 17.358M11.8076 18.997L9.94866 19.2786" stroke="white" stroke-width="1.2" stroke-linecap="round" stroke-linejoin="round"/>
<path id="Vector 143" d="M14.6582 20.9775L13 10.9994L11.5003 14.9987L13.5 24.5L14.6582 20.9775Z" stroke="white" stroke-width="1.2" stroke-linecap="round" stroke-linejoin="round"/>
<path id="Vector 144" d="M12.7465 10.8287C16.0793 10.4123 23.4114 12.3004 24.1311 15.6932C24.1976 16.0067 24.2211 16.3111 24.2063 16.6062M14.6597 20.9792C17.7627 20.3708 24.0201 20.3029 24.2063 16.6062M14.0365 25.0658C17.5273 23.8143 24.74 22.1627 24.2063 16.6062" stroke="white" stroke-width="1.2" stroke-linecap="round" stroke-linejoin="round"/>
<path id="Vector 146" d="M12.555 11.0553L6.20825 14.9429L6.88257 22.9409M6.88257 22.9409L14.6593 20.9783M6.88257 22.9409L14.0362 25.0648" stroke="white" stroke-width="1.2" stroke-linecap="round" stroke-linejoin="round"/>
</g>
<path id="Vector 153" d="M13.5752 14.2188L23.3763 14.9508" stroke="white" stroke-width="1.2" stroke-linecap="round" stroke-linejoin="round"/>
<path id="Vector 154" d="M14.5792 17.7937L23.8661 16.8977" stroke="white" stroke-width="1.2" stroke-linecap="round" stroke-linejoin="round"/>
<path id="Vector 155" d="M15.0527 11.4688L16.9208 20.5103" stroke="white" stroke-width="1.2" stroke-linecap="round" stroke-linejoin="round"/>
<path id="Vector 156" d="M18.5303 11.7285L20.4692 19.8216" stroke="white" stroke-width="1.2" stroke-linecap="round" stroke-linejoin="round"/>
<path id="Vector 157" d="M16.9197 20.5119L16.3201 24.2823" stroke="white" stroke-width="1.2" stroke-linecap="round" stroke-linejoin="round"/>
<path id="Vector 158" d="M20.4449 20.1391L20 22.5" stroke="white" stroke-width="1.2" stroke-linecap="round" stroke-linejoin="round"/>
</g>
<path id="Vector" d="M10.9573 1.87011H13.091C13.1574 1.8701 13.2228 1.88837 13.2809 1.92319C13.3391 1.95801 13.388 2.00824 13.4232 2.06915L14.7773 4.4111H16.5043C16.5384 4.41107 16.5718 4.42062 16.6014 4.4388C16.6309 4.45699 16.6556 4.48318 16.673 4.51481C16.6903 4.54643 16.6998 4.5824 16.7004 4.61916C16.701 4.65593 16.6927 4.69223 16.6763 4.72449L15.1338 7.78088C14.7888 7.83086 14.4377 7.78039 14.1167 7.6347C13.7958 7.48901 13.5166 7.25336 13.3081 6.95209C13.1257 7.21527 12.8892 7.42886 12.6171 7.57589C12.3451 7.72293 12.045 7.79935 11.7409 7.79909C11.4367 7.79935 11.1367 7.72293 10.8646 7.57589C10.5926 7.42886 10.356 7.21527 10.1737 6.95209C9.9695 7.24695 9.69761 7.47904 9.38492 7.62537C9.07224 7.77171 8.72961 7.82721 8.39098 7.78638L7.90672 4.9104C7.89644 4.84936 7.8987 4.78663 7.91333 4.72664C7.92797 4.66665 7.95461 4.61087 7.99139 4.56323C8.02817 4.5156 8.07418 4.47729 8.12617 4.451C8.17815 4.42471 8.23485 4.41109 8.29225 4.4111H8.60647V2.2936C8.60647 2.18128 8.64775 2.07357 8.72123 1.99414C8.7947 1.91472 8.89436 1.87011 8.99827 1.87011H9.39007V0.599609H10.9573V1.87011ZM9.39007 4.4111H13.8534L12.8739 2.7171H9.39007V4.4111Z" fill="white"/>
<path id="Vector 164" d="M5.8889 18.6004C3.8889 19.2671 0.696246 19.4481 0.700195 15.4004C0.703317 12.2004 3.49066 8.60039 7.89066 5.40039" stroke="white" stroke-width="1.2" stroke-linecap="round" stroke-linejoin="round"/>
</g>
</svg>
