<svg width="23" height="22" viewBox="0 0 23 22" fill="none" xmlns="http://www.w3.org/2000/svg">
<g id="Group 628">
<g id="Group 627">
<path id="Vector 165" d="M5.55675 14.3977L1.09961 6.59766L2.2139 12.5405L6.29961 21.0834M5.55675 14.3977L6.29961 21.0834M5.55675 14.3977L21.8996 8.08337L21.5282 14.7691L6.29961 21.0834" stroke="white" stroke-width="1.2" stroke-linecap="round" stroke-linejoin="round"/>
<path id="Vector 166" d="M1.09961 6.22701L15.9568 1.39844L21.8996 8.08415" stroke="white" stroke-width="1.2" stroke-linecap="round" stroke-linejoin="round"/>
<path id="Vector 167" d="M5.18555 5.11172L10.3855 12.9117V18.8546M9.27126 3.626L14.4713 11.0546L14.0998 17.7403M13.357 2.51172L18.9284 9.19743L18.557 15.5117" stroke="white" stroke-width="1.2" stroke-linecap="round" stroke-linejoin="round"/>
<path id="Vector 168" d="M4.81445 8.0841L17.443 3.62695" stroke="white" stroke-width="1.2" stroke-linecap="round" stroke-linejoin="round"/>
<path id="Vector 169" d="M4.07129 11.798L19.6713 6.22656" stroke="white" stroke-width="1.2" stroke-linecap="round" stroke-linejoin="round"/>
<path id="Vector 170" d="M5.92773 17.7417L21.5277 11.7988" stroke="white" stroke-width="1.2" stroke-linecap="round" stroke-linejoin="round"/>
</g>
<path id="Vector 171" d="M2.58594 9.19844L3.70022 1.39844L5.55737 3.25558L4.07165 11.7984V16.2556" stroke="white" stroke-width="1.2" stroke-linecap="round" stroke-linejoin="round"/>
</g>
</svg>
