<svg width="23" height="22" viewBox="0 0 23 22" fill="none" xmlns="http://www.w3.org/2000/svg">
<g id="ship">
<path id="Vector 10" d="M9.90039 1.20137C13.5004 0.668039 21.9004 2.61524 21.9004 10.4012C21.9004 18.8013 15.3671 20.1348 11.1004 20.8014V15.6014" stroke="white" stroke-width="1.2" stroke-linecap="round"/>
<path id="Vector" d="M8.06325 5.31389H5.17902C5.08919 5.31389 5.00084 5.33854 4.92228 5.38553C4.84372 5.43251 4.77752 5.50028 4.72991 5.58247L2.89959 8.74246H0.56509C0.519106 8.74243 0.473907 8.75531 0.433939 8.77985C0.393972 8.80439 0.360616 8.83973 0.337154 8.8824C0.313692 8.92507 0.300933 8.9736 0.300134 9.02321C0.299334 9.07282 0.310521 9.1218 0.332593 9.16532L2.41765 13.2893C2.88403 13.3568 3.35865 13.2887 3.7925 13.0921C4.22634 12.8955 4.6037 12.5775 4.88561 12.171C5.13204 12.5261 5.45183 12.8143 5.81958 13.0127C6.18732 13.2111 6.59289 13.3142 7.00404 13.3139C7.41519 13.3142 7.82075 13.2111 8.1885 13.0127C8.55624 12.8143 8.87603 12.5261 9.12246 12.171C9.39844 12.5689 9.76596 12.8821 10.1886 13.0795C10.6113 13.277 11.0744 13.3518 11.5322 13.2967L12.1868 9.41618C12.2006 9.33382 12.1976 9.24917 12.1778 9.16823C12.158 9.08728 12.122 9.01201 12.0723 8.94774C12.0226 8.88348 11.9604 8.83178 11.8901 8.7963C11.8199 8.76083 11.7432 8.74245 11.6656 8.74246H11.2409V5.88532C11.2409 5.73377 11.1851 5.58843 11.0858 5.48126C10.9864 5.3741 10.8517 5.31389 10.7113 5.31389H10.1817V3.59961H8.06325V5.31389ZM10.1817 8.74246H4.1484L5.47242 6.45675H10.1817V8.74246Z" fill="white"/>
</g>
</svg>
