<svg width="26" height="24" viewBox="0 0 26 24" fill="none" xmlns="http://www.w3.org/2000/svg">
<g id="Group 626">
<g id="Group 623">
<path id="Vector 149" d="M3.04136 16.2896L6.29941 12.6012L15.9721 11.3004" stroke="white" stroke-width="1.2" stroke-linecap="round" stroke-linejoin="round"/>
<path id="Vector 148" d="M2.89357 16.4891L3.55092 19.6374C4.50637 19.9734 5.42684 20.2545 6.31129 20.4892M2.89357 16.4891L15.9077 11.3027C16.2306 11.4661 16.6289 11.9676 17.0582 12.6098M2.89357 16.4891C4.82944 17.2937 9.34585 18.9492 11.9245 19.1353C15.1478 19.3679 20.031 20.965 20.5797 21.301M20.4221 21.8428C20.4776 21.4835 20.797 20.6854 21.63 20.3675M20.4221 21.8428C20.4845 21.8687 20.545 21.8942 20.6036 21.9192M20.4221 21.8428C18.7335 21.1412 13.8202 22.4823 6.31129 20.4892M21.63 20.3675C21.4975 20.2745 21.3685 20.1626 21.2447 20.0252C20.3119 18.9898 18.9328 15.6502 17.9793 14.0799C17.6673 13.566 17.3554 13.0542 17.0582 12.6098M21.63 20.3675C21.6854 20.4064 21.7414 20.4419 21.7978 20.4746M20.6036 21.9192C22.7642 22.8424 22.4622 23.1925 23.3301 23.159C24.2217 23.1246 24.9074 22.3838 24.1597 21.5198C23.5526 20.8183 22.6247 20.9532 21.7978 20.4746M20.6036 21.9192C21.0714 21.83 21.9652 21.4162 21.7978 20.4746M17.0582 12.6098L5.85286 17.5622L6.31129 20.4892" stroke="white" stroke-width="1.2" stroke-linecap="round" stroke-linejoin="round"/>
</g>
<path id="Vector 159" d="M6.79318 15.109L12.7487 17.2964L20.4818 20.7965M11.8992 13.1849L20.8266 20.7832" stroke="white" stroke-width="1.2" stroke-linecap="round" stroke-linejoin="round"/>
<path id="Vector 160" d="M8.99616 18.4768C11.1713 18.1626 17.8554 15.3717 18.1603 14.3239" stroke="white" stroke-width="1.2" stroke-linecap="round" stroke-linejoin="round"/>
<path id="Vector 161" d="M9.34082 18.4648L9.4474 21.2236" stroke="white" stroke-width="1.2" stroke-linecap="round" stroke-linejoin="round"/>
<path id="Vector 162" d="M14.3025 21.726L14.2225 19.6569C15.7035 19.2544 18.5302 18.5235 19.3152 17.3881" stroke="white" stroke-width="1.2" stroke-linecap="round" stroke-linejoin="round"/>
<path id="Vector 163" d="M5.89872 13.002C3.89872 12.8686 0.29872 11.882 1.89872 9.00195C3.49872 6.12195 6.83186 5.13529 8.29844 5.00195" stroke="white" stroke-width="1.2" stroke-linecap="round" stroke-linejoin="round"/>
<path id="Vector" d="M11.6301 1.91546H14.5143C14.6042 1.91546 14.6925 1.94011 14.7711 1.98709C14.8496 2.03407 14.9158 2.10184 14.9634 2.18403L16.7938 5.34403H19.1283C19.1743 5.34399 19.2195 5.35688 19.2594 5.38141C19.2994 5.40595 19.3327 5.44129 19.3562 5.48396C19.3797 5.52664 19.3924 5.57516 19.3932 5.62477C19.394 5.67438 19.3828 5.72336 19.3608 5.76688L17.2757 9.89088C16.8093 9.95832 16.3347 9.89023 15.9009 9.69365C15.467 9.49706 15.0897 9.1791 14.8077 8.7726C14.5613 9.12771 14.2415 9.41591 13.8738 9.6143C13.506 9.81269 13.1005 9.91581 12.6893 9.91545C12.2782 9.91581 11.8726 9.81269 11.5049 9.6143C11.1371 9.41591 10.8173 9.12771 10.5709 8.7726C10.2949 9.17045 9.9274 9.48361 9.50473 9.68106C9.08207 9.87852 8.61893 9.9534 8.16119 9.89831L7.5066 6.01774C7.49271 5.93538 7.49577 5.85074 7.51554 5.76979C7.53532 5.68884 7.57134 5.61357 7.62105 5.54931C7.67077 5.48504 7.73296 5.43334 7.80323 5.39787C7.87351 5.36239 7.95015 5.34401 8.02773 5.34403H8.45248V2.48689C8.45248 2.33533 8.50827 2.18999 8.60759 2.08282C8.70691 1.97566 8.84162 1.91546 8.98208 1.91546H9.51169V0.201172H11.6301V1.91546ZM9.51169 5.34403H15.545L14.2209 3.05831H9.51169V5.34403Z" fill="white"/>
</g>
</svg>
