<svg width="65" height="58" viewBox="0 0 65 58" fill="none" xmlns="http://www.w3.org/2000/svg">
<g id="emblem">
<path id="Vector" d="M12.7393 12.7409V32.8746C12.7393 34.0543 13.5257 36.7283 14.7841 39.3237C15.9806 42.2058 17.6558 44.8649 19.7389 47.1885C21.9261 49.4567 24.4134 51.4148 27.1317 53.0084C29.0611 54.1607 30.7881 55.622 32.2438 57.334C33.7358 55.6281 35.4876 54.1683 37.4346 53.0084C40.1387 51.3941 42.6234 49.438 44.8274 47.1885C47.1868 44.7504 48.9171 41.2113 49.7822 39.3237C50.6473 37.4362 51.827 34.0543 51.827 32.8746V12.7409L32.2438 0L12.7393 12.7409Z" fill="#001A60"/>
<path id="Vector_2" d="M50.8045 13.3701H50.9618L32.2437 1.02246L13.6042 13.2128V32.8747C13.6042 34.8409 16.5142 42.627 20.3679 46.638C22.5277 48.8049 24.9599 50.6819 27.6035 52.2219C29.3232 53.2826 30.8853 54.5799 32.2437 56.0757C33.6515 54.6012 35.2365 53.3068 36.9625 52.2219C39.6061 50.6819 42.0383 48.8049 44.1981 46.638C48.0518 42.627 50.9618 34.8409 50.9618 32.8747V13.2915H50.8045V13.3701Z" fill="url(#paint0_radial_904_23561)"/>
<path id="Vector_3" d="M14.9414 14.0779V33.0319C15.2482 34.9765 15.8586 36.8608 16.7503 38.6159C17.8857 41.2501 19.4246 43.6913 21.3118 45.8515C23.4119 47.9426 25.763 49.7654 28.3115 51.2781C29.7298 52.1243 31.0488 53.1267 32.2438 54.2668C33.4836 53.1463 34.8266 52.1457 36.2549 51.2781C38.8033 49.7654 41.1545 47.9426 43.2545 45.8515C45.1417 43.6913 46.6807 41.2501 47.816 38.6159C48.6681 36.8447 49.2766 34.9663 49.6249 33.0319V14.0779L32.2438 2.75269L14.9414 14.0779Z" fill="url(#paint1_linear_904_23561)"/>
<path id="Vector_4" d="M13.6042 13.2128H13.7615L32.2437 1.33705V1.02246L13.6042 13.2128Z" fill="#FEDA5D"/>
<path id="Vector_5" d="M50.8044 13.3701H50.9617L32.2437 1.02246V1.33705L50.8044 13.3701Z" fill="#DFB840"/>
<path id="Vector_6" d="M49.7034 14.0779L50.018 13.9206L32.2437 2.28076V2.75265L49.7034 14.0779Z" fill="#D39428"/>
<path id="Vector_7" d="M14.5481 13.8419L14.8627 13.9992L32.2438 2.75265V2.28076L14.5481 13.8419Z" fill="#D39428"/>
<path id="Vector_8" d="M28.2328 51.3568C25.6771 49.8898 23.3461 48.0621 21.3118 45.9302C17.694 42.2337 14.8627 34.8409 14.8627 33.1106V14.0779L14.5481 13.9207V33.032C14.5481 33.8971 15.1773 36.0992 16.4356 38.8519C17.5733 41.5028 19.1412 43.9476 21.0758 46.0875C23.1524 48.2273 25.5066 50.0789 28.0755 51.5928C29.5827 52.5365 30.9806 53.6443 32.2438 54.896V54.5027C31.0369 53.298 29.6904 52.2419 28.2328 51.3568Z" fill="#FEDA5D"/>
<path id="Vector_9" d="M28.2328 51.3568C25.6771 49.8898 23.3461 48.0621 21.3118 45.9302C17.694 42.2337 14.8627 34.8409 14.8627 33.1106V14.0779L14.5481 13.9207V33.032C14.5481 33.8971 15.1773 36.0992 16.4356 38.8519C17.5733 41.5028 19.1412 43.9476 21.0758 46.0875C23.1524 48.2273 25.5066 50.0789 28.0755 51.5928C29.5827 52.5365 30.9806 53.6443 32.2438 54.896V54.5027C31.0369 53.298 29.6904 52.2419 28.2328 51.3568Z" fill="url(#paint2_linear_904_23561)"/>
<path id="Vector_10" d="M49.7034 33.1106C49.7034 34.8409 46.8721 42.2337 43.2543 45.9302C41.1869 48.0254 38.8612 49.849 36.3333 51.3568C34.864 52.2598 33.4933 53.3142 32.2437 54.5027V54.896C33.5503 53.6615 34.9725 52.5553 36.4906 51.5928C39.0595 50.0789 41.4137 48.2273 43.4902 46.0875C45.3982 43.9273 46.9631 41.487 48.1304 38.8519C49.3888 36.0992 50.018 33.8971 50.018 33.032V13.9207L49.7034 14.0779V33.1106Z" fill="#FEDA5D"/>
<path id="Vector_11" d="M25.8733 9.12302H26.6598C26.9314 9.1028 27.2033 9.15719 27.4462 9.28032C27.5973 9.34557 27.724 9.45656 27.8087 9.59765C27.8933 9.73873 27.9316 9.90281 27.9181 10.0668C27.9034 10.2448 27.8456 10.4166 27.7497 10.5674C27.6538 10.7181 27.5227 10.8432 27.3676 10.9319H26.5025V12.033H25.8733V9.12302ZM26.5025 9.59491V10.5387H26.8171C26.8903 10.5449 26.964 10.5339 27.0323 10.5066C27.1006 10.4793 27.1615 10.4364 27.2103 10.3814V10.0668C27.2103 9.7522 27.1317 9.59491 26.8171 9.59491H26.5025Z" fill="white"/>
<path id="Vector_12" d="M29.4123 9.12305C30.1988 9.12305 30.6707 9.67358 30.6707 10.6173C30.6907 10.8756 30.6432 11.1347 30.5329 11.3691C30.4226 11.6035 30.2532 11.8052 30.0415 11.9544C29.8569 12.0795 29.634 12.1352 29.4123 12.1117C29.2343 12.1347 29.0534 12.1105 28.8877 12.0415C28.7221 11.9724 28.5775 11.861 28.4685 11.7184C28.2472 11.3951 28.1368 11.0088 28.1539 10.6173C28.1351 10.3479 28.1826 10.078 28.2923 9.83118C28.4019 9.58437 28.5705 9.36823 28.7831 9.2017L29.4123 9.12305ZM29.4123 9.51628C29.3125 9.52097 29.2159 9.55272 29.1327 9.60814C29.0496 9.66356 28.9831 9.74056 28.9404 9.83087C28.8271 10.0771 28.7732 10.3465 28.7831 10.6173C28.7831 11.0892 28.8618 11.4038 29.0977 11.5611H29.4123C29.8055 11.5611 29.9628 11.2465 29.9628 10.5387C29.986 10.2999 29.9592 10.0588 29.8842 9.83087C29.8503 9.73438 29.7859 9.65152 29.7008 9.59478C29.6157 9.53804 29.5144 9.51049 29.4123 9.51628Z" fill="white"/>
<path id="Vector_13" d="M31.064 9.12305H31.6931V11.5611H32.7156V12.1117H31.1426L31.064 9.12305Z" fill="white"/>
<path id="Vector_14" d="M33.1089 9.12305H33.7381V12.1117H33.1089V9.12305Z" fill="white"/>
<path id="Vector_15" d="M36.2548 9.2805L35.9402 9.67374L35.4683 9.51644L34.9964 9.75239C34.8596 9.99037 34.8044 10.2666 34.8391 10.5389C34.8118 10.8036 34.8386 11.0712 34.9178 11.3253C34.9735 11.4218 35.0538 11.5018 35.1505 11.5571C35.2472 11.6123 35.3569 11.6409 35.4683 11.6399H35.9402C35.9402 11.6191 35.9485 11.5991 35.9632 11.5843C35.978 11.5696 35.998 11.5613 36.0188 11.5613L36.2548 11.9545C36.0239 12.1137 35.7487 12.1962 35.4683 12.1905C35.2903 12.2135 35.1094 12.1893 34.9437 12.1203C34.7781 12.0513 34.6335 11.9398 34.5245 11.7972C34.2688 11.5185 34.1282 11.1531 34.1313 10.7748C34.1134 10.4437 34.1956 10.1148 34.3673 9.83103C34.4469 9.66284 34.5628 9.51439 34.7067 9.3964C34.8506 9.2784 35.0189 9.19379 35.1994 9.14866C35.3799 9.10352 35.5682 9.09899 35.7507 9.13539C35.9332 9.17179 36.1054 9.24821 36.2548 9.35915V9.2805Z" fill="white"/>
<path id="Vector_16" d="M36.6479 9.12305H38.3782V9.59493H37.2771V10.3028H38.0636V10.7746H37.2771V11.5611H38.3782V12.1117H36.6479V9.12305Z" fill="white"/>
<path id="Vector_17" d="M34.5244 19.9763C34.534 20.1798 34.5851 20.3792 34.6745 20.5623C34.764 20.7453 34.8899 20.9081 35.0446 21.0407C35.1993 21.1733 35.3794 21.2729 35.574 21.3333C35.7686 21.3937 35.9734 21.4137 36.176 21.392C36.3723 21.4026 36.5688 21.3744 36.7541 21.3089C36.9395 21.2435 37.1101 21.1421 37.2562 21.0106C37.4024 20.8791 37.5211 20.72 37.6057 20.5426C37.6902 20.3651 37.7389 20.1727 37.749 19.9763C37.7288 19.573 37.5542 19.1928 37.2613 18.9146C36.9685 18.6364 36.5799 18.4815 36.176 18.482C35.9694 18.4715 35.7627 18.5017 35.5678 18.5711C35.3729 18.6405 35.1936 18.7477 35.0402 18.8865C34.8868 19.0253 34.7622 19.193 34.6737 19.3801C34.5852 19.5671 34.5345 19.7697 34.5244 19.9763ZM35.4682 19.9763C35.4311 19.8697 35.42 19.7557 35.4359 19.6439C35.4519 19.532 35.4943 19.4257 35.5598 19.3336C35.6252 19.2416 35.7117 19.1665 35.8121 19.1147C35.9124 19.0629 36.0237 19.0359 36.1367 19.0359C36.2496 19.0359 36.3609 19.0629 36.4613 19.1147C36.5617 19.1665 36.6482 19.2416 36.7136 19.3336C36.779 19.4257 36.8215 19.532 36.8374 19.6439C36.8534 19.7557 36.8423 19.8697 36.8052 19.9763C36.8423 20.083 36.8534 20.197 36.8374 20.3088C36.8215 20.4206 36.779 20.527 36.7136 20.6191C36.6482 20.7111 36.5617 20.7862 36.4613 20.838C36.3609 20.8898 36.2496 20.9168 36.1367 20.9168C36.0237 20.9168 35.9124 20.8898 35.8121 20.838C35.7117 20.7862 35.6252 20.7111 35.5598 20.6191C35.4943 20.527 35.4519 20.4206 35.4359 20.3088C35.42 20.197 35.4311 20.083 35.4682 19.9763Z" fill="white"/>
<path id="Vector_18" d="M37.0413 14.9431V15.8869H35.8616V15.2577H33.1876V15.8869H34.9178V16.0442C34.921 16.2696 34.8731 16.4928 34.7778 16.6971C34.6824 16.9014 34.5421 17.0815 34.3673 17.2239C34.0005 17.5714 33.5318 17.7919 33.0303 17.8531L33.5022 18.4036C34.1346 18.31 34.7167 18.005 35.1538 17.5385C35.4256 17.2401 35.6391 16.8932 35.7829 16.5161H37.0413V16.9879H35.7829V17.6171H37.0413V18.325H37.9851V14.9431H37.0413Z" fill="white"/>
<path id="Vector_19" d="M20.6038 14.8643V15.808H19.3455V16.4372H19.8173C19.7275 16.6633 19.6744 16.9022 19.66 17.145C19.66 17.5205 19.8092 17.8806 20.0747 18.1461C20.3402 18.4115 20.7002 18.5607 21.0757 18.5607C21.4512 18.5607 21.8112 18.4115 22.0767 18.1461C22.3422 17.8806 22.4914 17.5205 22.4914 17.145C22.4861 16.8907 22.4038 16.6439 22.2554 16.4372H22.7273V15.808H21.5476V14.8643H20.6038ZM20.6038 17.2237C20.6038 16.7518 20.8398 16.4372 21.0757 16.4372C21.3116 16.4372 21.5476 16.7518 21.5476 17.2237C21.5476 17.6956 21.3116 17.9315 21.0757 17.9315C20.8398 17.9315 20.6038 17.6169 20.6038 17.2237Z" fill="white"/>
<path id="Vector_20" d="M24.3004 14.9431V16.8307H23.8285V14.9431H22.9634V21.2349H23.8285V17.5385H24.3004V21.2349H25.0869V14.9431H24.3004Z" fill="white"/>
<path id="Vector_21" d="M30.1201 14.9431V18.325H31.0639V17.6171H31.929V16.9093H31.0639V16.3588H31.929V15.7296H31.0639V14.9431H30.1201Z" fill="white"/>
<path id="Vector_22" d="M27.6035 19.9765C27.5717 20.308 27.641 20.6414 27.8021 20.9329C27.9633 21.2243 28.2088 21.4603 28.5064 21.6097C28.804 21.7592 29.1399 21.8152 29.4699 21.7703C29.7999 21.7255 30.1087 21.5819 30.3556 21.3585C30.6026 21.135 30.7762 20.8421 30.8538 20.5182C30.9313 20.1944 30.9091 19.8546 30.7901 19.5435C30.6711 19.2325 30.4608 18.9647 30.1868 18.7753C29.9129 18.5859 29.5881 18.4837 29.255 18.4822C29.046 18.4601 28.8347 18.4823 28.6348 18.5474C28.4349 18.6125 28.2511 18.7191 28.0952 18.8601C27.9393 19.0011 27.8149 19.1735 27.7302 19.3658C27.6455 19.5582 27.6023 19.7663 27.6035 19.9765ZM28.5472 19.9765C28.5472 19.8835 28.5655 19.7915 28.6011 19.7056C28.6367 19.6197 28.6888 19.5417 28.7545 19.476C28.8203 19.4102 28.8983 19.3581 28.9842 19.3225C29.0701 19.287 29.1621 19.2687 29.255 19.2687C29.348 19.2687 29.44 19.287 29.5259 19.3225C29.6118 19.3581 29.6898 19.4102 29.7556 19.476C29.8213 19.5417 29.8734 19.6197 29.909 19.7056C29.9446 19.7915 29.9629 19.8835 29.9629 19.9765C29.9629 20.0694 29.9446 20.1615 29.909 20.2474C29.8734 20.3332 29.8213 20.4113 29.7556 20.477C29.6898 20.5427 29.6118 20.5949 29.5259 20.6304C29.44 20.666 29.348 20.6843 29.255 20.6843C29.1621 20.6843 29.0701 20.666 28.9842 20.6304C28.8983 20.5949 28.8203 20.5427 28.7545 20.477C28.6888 20.4113 28.6367 20.3332 28.6011 20.2474C28.5655 20.1615 28.5472 20.0694 28.5472 19.9765Z" fill="white"/>
<path id="Vector_23" d="M26.2666 16.5947C26.2666 17.0118 26.4323 17.4119 26.7273 17.7069C27.0223 18.0019 27.4224 18.1676 27.8396 18.1676C28.2567 18.1676 28.6568 18.0019 28.9518 17.7069C29.2468 17.4119 29.4125 17.0118 29.4125 16.5947C29.4125 16.1775 29.2468 15.7774 28.9518 15.4824C28.6568 15.1875 28.2567 15.0217 27.8396 15.0217C27.4224 15.0217 27.0223 15.1875 26.7273 15.4824C26.4323 15.7774 26.2666 16.1775 26.2666 16.5947ZM27.2104 16.5947C27.2104 16.4278 27.2767 16.2678 27.3947 16.1498C27.5126 16.0318 27.6727 15.9655 27.8396 15.9655C28.0064 15.9655 28.1665 16.0318 28.2844 16.1498C28.4024 16.2678 28.4687 16.4278 28.4687 16.5947C28.4687 16.7615 28.4024 16.9216 28.2844 17.0396C28.1665 17.1576 28.0064 17.2239 27.8396 17.2239C27.6727 17.2239 27.5126 17.1576 27.3947 17.0396C27.2767 16.9216 27.2104 16.7615 27.2104 16.5947Z" fill="white"/>
<path id="Vector_24" d="M43.333 14.9431V18.325H44.2768V16.9093H45.1419V16.2015H44.2768V14.9431H43.333Z" fill="white"/>
<path id="Vector_25" d="M40.5018 14.8643V15.5721H39.4007V16.2799H40.5018C40.4912 16.461 40.444 16.6381 40.3629 16.8004C40.2817 16.9626 40.1684 17.1066 40.0299 17.2237C39.9328 17.3398 39.8129 17.4346 39.6776 17.5023C39.5423 17.5699 39.3945 17.609 39.2434 17.617L39.4793 17.9315L39.7153 18.1675C40.2401 18.0256 40.6905 17.6878 40.9737 17.2237C40.9737 17.1451 40.9737 17.1451 41.0523 17.1451H41.1309C41.4301 17.5943 41.8742 17.9274 42.3893 18.0888C42.5264 17.8889 42.6846 17.7044 42.8612 17.5383C42.5468 17.4743 42.251 17.3398 41.9961 17.1451C41.7485 16.8844 41.5842 16.5558 41.5242 16.2013H42.6252V15.4935H41.5242V14.7856L40.5018 14.8643Z" fill="white"/>
<path id="Vector_26" d="M40.2659 18.6394V19.1899H43.3331V19.6618H40.2659V20.6842C40.2659 21.0775 40.4232 21.2348 40.8164 21.2348H44.3555V20.6842H41.2883V20.291H44.1982C44.2769 20.291 44.2769 20.291 44.2769 20.2124V18.7181H40.2659V18.6394Z" fill="white"/>
<path id="Vector_27" d="M32.2437 55.8397L32.0077 55.5251C30.6899 54.2476 29.2399 53.114 27.6821 52.1433C25.0314 50.6492 22.6191 48.7671 20.5252 46.5593C18.2444 44.2786 16.5928 40.8967 15.7277 39.0878C14.8626 37.2789 13.7615 34.0544 13.7615 32.9533V13.3701H13.6042V32.8747C13.6042 34.8409 16.5142 42.627 20.3679 46.638C22.5277 48.8049 24.9599 50.6819 27.6035 52.2219C29.3232 53.2826 30.8853 54.5799 32.2437 56.0757V55.8397Z" fill="url(#paint3_linear_904_23561)"/>
<path id="Vector_28" d="M32.2437 55.8397L32.5582 55.5251C33.8761 54.2476 35.3261 53.114 36.8839 52.1433C39.5209 50.6288 41.9304 48.7488 44.0408 46.5593C46.0002 44.3195 47.617 41.8016 48.8383 39.0878C49.9393 36.4925 50.8044 34.0544 50.8044 32.9533V13.3701H50.9617V32.8747C50.9617 34.8409 48.0518 42.627 44.1981 46.638C42.0383 48.8049 39.6061 50.6819 36.9625 52.2219C35.2365 53.3068 33.6515 54.6012 32.2437 56.0757V55.8397Z" fill="#D39428"/>
<path id="Vector_29" d="M32.2436 2.75269L14.8625 14.0779V33.1106C14.8625 34.8408 17.6939 42.2337 21.3116 45.9301C23.346 48.0621 25.6769 49.8898 28.2326 51.3568C29.6902 52.2418 31.0368 53.2979 32.2436 54.5027C33.4933 53.3141 34.864 52.2598 36.3333 51.3568C38.8612 49.8489 41.1869 48.0254 43.2543 45.9301C46.8721 42.2337 49.7034 34.8408 49.7034 33.1106V14.0779L32.2436 2.75269ZM49.4674 33.1106C49.4674 34.8408 46.6361 42.155 43.097 45.7728C41.0626 47.9048 38.7317 49.7325 36.176 51.1995C34.7598 52.0489 33.4412 53.0511 32.2436 54.1881C31.0732 53.0528 29.7808 52.0505 28.3899 51.1995C25.8342 49.7325 23.5033 47.9048 21.4689 45.7728C17.8511 42.155 15.0985 34.8408 15.0985 33.1106V14.2352L32.2436 2.98863L49.4674 14.2352V33.1106Z" fill="#000044"/>
<path id="Vector_30" d="M32.2438 30.9084C30.9527 30.9084 29.6907 31.2913 28.6172 32.0086C27.5437 32.7258 26.707 33.7453 26.213 34.9381C25.7189 36.1309 25.5896 37.4434 25.8415 38.7097C26.0934 39.9759 26.7151 41.1391 27.628 42.052C28.5409 42.9649 29.7041 43.5866 30.9703 43.8385C32.2366 44.0904 33.5491 43.9611 34.7419 43.467C35.9346 42.973 36.9541 42.1363 37.6714 41.0628C38.3887 39.9893 38.7715 38.7272 38.7715 37.4362C38.7715 35.7049 38.0838 34.0446 36.8596 32.8204C35.6354 31.5962 33.9751 30.9084 32.2438 30.9084Z" fill="#FFD900"/>
<path id="Vector_31" d="M22.2554 37.2004C22.6788 37.5135 23.1681 37.7258 23.686 37.8212C24.2039 37.9166 24.7368 37.8926 25.244 37.7509V37.4363C25.2532 36.66 25.3859 35.8901 25.6372 35.1555C24.6698 36.072 23.5164 36.7695 22.2554 37.2004Z" fill="url(#paint4_linear_904_23561)"/>
<path id="Vector_32" d="M21.8623 38.144C22.0613 39.8868 22.5393 41.5863 23.278 43.1774C23.3106 43.2529 23.3661 43.3163 23.4366 43.3586C23.5072 43.401 23.5892 43.4201 23.6712 43.4133C24.8554 43.2211 25.9528 42.6724 26.8171 41.8404C25.949 40.815 25.4019 39.5568 25.2441 38.2226C24.0968 38.4781 22.8959 38.3105 21.8623 37.7507V38.0653V38.144Z" fill="#FFD900"/>
<path id="Vector_33" d="M27.2889 48.2109C28.5473 47.1885 29.2551 44.5931 29.4911 43.8853C28.5683 43.522 27.7555 42.9259 27.1316 42.155C26.2055 43.1044 24.9864 43.714 23.6711 43.8853C24.4651 45.4962 25.5292 46.9592 26.817 48.2109C26.8466 48.2444 26.8829 48.2712 26.9235 48.2895C26.9642 48.3079 27.0083 48.3174 27.053 48.3174C27.0976 48.3174 27.1417 48.3079 27.1824 48.2895C27.2231 48.2712 27.2594 48.2444 27.2889 48.2109Z" fill="#FFD900"/>
<path id="Vector_34" d="M26.8171 32.9533C27.0265 32.7102 27.2109 32.4468 27.3677 32.1669L26.2666 31.9309H26.0307C24.5364 33.1893 22.1769 35.1555 19.5029 35.7846C19.8945 36.2552 20.428 36.5862 21.0235 36.728C21.6191 36.8698 22.2445 36.8147 22.8061 36.5711C24.2156 35.8506 25.4503 34.8306 26.4239 33.5825L26.8171 32.9533Z" fill="url(#paint5_linear_904_23561)"/>
<path id="Vector_35" d="M37.2771 48.2109C37.2986 48.2433 37.3278 48.2699 37.3621 48.2884C37.3964 48.3068 37.4348 48.3164 37.4737 48.3164C37.5126 48.3164 37.551 48.3068 37.5853 48.2884C37.6196 48.2699 37.6488 48.2433 37.6703 48.2109C39.0068 46.9839 40.1007 45.5165 40.8949 43.8853C39.57 43.7462 38.3405 43.1314 37.4344 42.155C36.7871 42.9009 35.9809 43.4921 35.075 43.8853C35.2322 44.5931 36.0187 47.1885 37.2771 48.2109Z" fill="#FFD900"/>
<path id="Vector_36" d="M32.8728 44.4357V44.9862C32.9515 46.4805 32.9515 50.6489 33.1874 51.3567C34.5774 50.6915 35.8732 49.8453 37.0411 48.84C36.4906 48.3681 35.4682 47.267 34.5244 44.0425C33.9996 44.2647 33.4414 44.3976 32.8728 44.4357Z" fill="#FFD900"/>
<path id="Vector_37" d="M41.2882 43.1774C41.9913 41.5734 42.4677 39.8793 42.7038 38.1439V37.8293C41.6394 38.3816 40.4167 38.5484 39.2433 38.3012C39.0793 39.6195 38.5631 40.8692 37.749 41.919C38.6008 42.7685 39.7042 43.3202 40.8949 43.492L41.2882 43.1774Z" fill="#FFD900"/>
<path id="Vector_38" d="M31.3786 51.3567C31.6146 50.6488 31.6146 46.4805 31.6146 44.9862V44.4357L30.0416 44.1211C29.0979 47.267 28.0754 48.4467 27.5249 48.8399C28.6928 49.8452 29.9886 50.6915 31.3786 51.3567Z" fill="#FFD900"/>
<path id="Vector_39" d="M20.84 29.4142L20.3681 29.0996C18.7165 27.9199 17.6941 27.0548 17.6941 27.0548C13.1277 25.7614 8.6377 24.2123 4.24536 22.4146C4.24536 22.4146 4.24536 28.3131 9.51474 29.2569C13.2848 29.5 17.0647 29.5525 20.84 29.4142Z" fill="url(#paint6_linear_904_23561)"/>
<path id="Vector_40" d="M17.9298 26.6615C17.9298 26.6615 22.2554 30.9085 27.6821 31.7736L28.8618 30.122C24.2216 29.6501 21.3117 27.0547 19.3455 25.0885C18.7112 24.395 17.9673 23.8104 17.1433 23.3583L0.70603 12.8982C0.70603 12.8982 -0.159092 19.6619 4.24516 21.7854L4.6384 21.9426C8.96433 23.7958 13.4038 25.372 17.9298 26.6615Z" fill="url(#paint7_linear_904_23561)"/>
<path id="Vector_41" d="M21.469 29.8074C18.7164 29.9647 15.0199 29.9647 10.1438 29.8074C10.5271 30.8622 11.2571 31.7556 12.2144 32.3414C13.1717 32.9272 14.2995 33.1707 15.4132 33.0319C18.189 32.6524 20.9088 31.9394 23.5139 30.9084C22.7938 30.6179 22.108 30.2486 21.469 29.8074Z" fill="url(#paint8_linear_904_23561)"/>
<path id="Vector_42" d="M25.5588 31.6948L23.9859 31.1443C21.2465 32.2485 18.3999 33.0656 15.4919 33.5824C15.7415 34.173 16.1744 34.6678 16.7267 34.9935C17.2791 35.3192 17.9215 35.4587 18.5592 35.3912C20.84 35.3126 23.4353 33.5824 25.5588 31.6948Z" fill="url(#paint9_linear_904_23561)"/>
<path id="Vector_43" d="M42.3105 37.2004C41.8871 37.5135 41.3978 37.7258 40.8799 37.8212C40.362 37.9166 39.8292 37.8926 39.3219 37.7509V37.4363C39.3127 36.66 39.18 35.8901 38.9287 35.1555C39.8961 36.072 41.0495 36.7695 42.3105 37.2004Z" fill="url(#paint10_linear_904_23561)"/>
<path id="Vector_44" d="M37.749 32.9533C37.5397 32.7102 37.3552 32.4468 37.1985 32.1669L38.2996 31.9309H38.4568C40.0298 33.1893 42.3892 35.1555 45.0632 35.7846C44.6717 36.2552 44.1381 36.5862 43.5426 36.728C42.9471 36.8698 42.3216 36.8147 41.76 36.5711C40.3371 35.8713 39.0981 34.8477 38.1423 33.5825L37.749 32.9533Z" fill="url(#paint11_linear_904_23561)"/>
<path id="Vector_45" d="M43.6477 29.4142L44.1982 29.0996C45.8498 27.9199 46.8722 27.0547 46.8722 27.0547C51.4386 25.7614 55.9286 24.2123 60.321 22.4146C60.321 22.4146 60.321 28.3131 54.9729 29.2569C51.2029 29.5004 47.423 29.5529 43.6477 29.4142Z" fill="url(#paint12_linear_904_23561)"/>
<path id="Vector_46" d="M46.6361 26.6615C46.6361 26.6615 42.3105 30.9085 36.8838 31.7736C36.4628 31.2434 36.0691 30.6921 35.7041 30.122C40.3443 29.6501 43.2543 27.0547 45.1418 25.0885C45.8135 24.4036 46.582 23.8207 47.4226 23.3583L63.8599 12.8982H63.7812C63.7812 12.8982 64.725 19.6619 60.3207 21.7854L59.8489 21.9426C55.5501 23.7967 51.1368 25.3729 46.6361 26.6615Z" fill="url(#paint13_linear_904_23561)"/>
<path id="Vector_47" d="M43.0971 29.8074C45.8497 29.9647 49.5462 29.9647 54.4223 29.8074H54.3437C53.9728 30.8706 53.2453 31.7728 52.2848 32.3606C51.3242 32.9484 50.1899 33.1856 49.0743 33.0319C46.326 32.6426 43.6333 31.9298 41.0522 30.9084C41.7723 30.6179 42.4581 30.2486 43.0971 29.8074Z" fill="url(#paint14_linear_904_23561)"/>
<path id="Vector_48" d="M39.0073 31.6948L40.5803 31.1443C43.3197 32.2485 46.1662 33.0656 49.0742 33.5824C48.8246 34.173 48.3917 34.6678 47.8394 34.9935C47.2871 35.3192 46.6446 35.4587 46.0069 35.3912C43.7262 35.3126 41.1308 33.5824 39.0073 31.6948Z" fill="url(#paint15_linear_904_23561)"/>
<path id="Vector_49" d="M38.7715 37.4362C38.7715 38.7272 38.3887 39.9893 37.6714 41.0628C36.9541 42.1363 35.9346 42.973 34.7419 43.467C33.5491 43.9611 32.2366 44.0904 30.9703 43.8385C29.7041 43.5866 28.5409 42.9649 27.628 42.052C26.7151 41.1391 26.0934 39.9759 25.8415 38.7097C25.5896 37.4434 25.7189 36.1309 26.213 34.9381C26.707 33.7453 27.5437 32.7258 28.6172 32.0086C29.6907 31.2913 30.9527 30.9084 32.2438 30.9084C33.101 30.9084 33.9499 31.0773 34.7419 31.4053C35.5338 31.7334 36.2535 32.2142 36.8596 32.8204C37.4658 33.4265 37.9466 34.1461 38.2746 34.9381C38.6027 35.7301 38.7715 36.5789 38.7715 37.4362Z" fill="url(#paint16_linear_904_23561)"/>
<path id="Vector_50" d="M32.2436 32.4814C32.1325 32.4626 32.0318 32.4047 31.9597 32.3182C31.8876 32.2316 31.8488 32.1221 31.8504 32.0095C31.8504 31.9052 31.8918 31.8052 31.9656 31.7314C32.0393 31.6577 32.1393 31.6163 32.2436 31.6163C32.3563 31.6147 32.4658 31.6535 32.5523 31.7256C32.6389 31.7977 32.6967 31.8984 32.7155 32.0095C32.7155 32.1346 32.6658 32.2547 32.5773 32.3432C32.4888 32.4317 32.3688 32.4814 32.2436 32.4814Z" fill="#001A60"/>
<path id="Vector_51" d="M36.0974 34.0544C35.9722 34.0544 35.8522 34.0047 35.7637 33.9162C35.6752 33.8277 35.6255 33.7076 35.6255 33.5825C35.6443 33.4714 35.7021 33.3707 35.7887 33.2986C35.8752 33.2265 35.9847 33.1877 36.0974 33.1893C36.2017 33.1893 36.3017 33.2307 36.3754 33.3044C36.4492 33.3782 36.4906 33.4782 36.4906 33.5825C36.4922 33.6951 36.4534 33.8046 36.3813 33.8912C36.3092 33.9777 36.2085 34.0356 36.0974 34.0544Z" fill="#001A60"/>
<path id="Vector_52" d="M37.6704 37.8295C37.5577 37.831 37.4482 37.7923 37.3617 37.7202C37.2751 37.648 37.2173 37.5473 37.1985 37.4362C37.1985 37.3111 37.2482 37.1911 37.3367 37.1026C37.4252 37.0141 37.5452 36.9644 37.6704 36.9644C37.7815 36.9831 37.8822 37.041 37.9543 37.1276C38.0264 37.2141 38.0652 37.3236 38.0636 37.4362C38.0636 37.5405 38.0222 37.6406 37.9484 37.7143C37.8747 37.788 37.7747 37.8295 37.6704 37.8295Z" fill="#001A60"/>
<path id="Vector_53" d="M36.0974 41.683C35.9722 41.683 35.8522 41.6333 35.7637 41.5448C35.6752 41.4563 35.6255 41.3363 35.6255 41.2112C35.6443 41.1001 35.7021 40.9994 35.7887 40.9272C35.8752 40.8551 35.9847 40.8163 36.0974 40.8179C36.2017 40.8179 36.3017 40.8593 36.3754 40.9331C36.4492 41.0068 36.4906 41.1069 36.4906 41.2112C36.4922 41.3238 36.4534 41.4333 36.3813 41.5198C36.3092 41.6064 36.2085 41.6643 36.0974 41.683Z" fill="#001A60"/>
<path id="Vector_54" d="M32.2436 43.256C32.1325 43.2373 32.0318 43.1794 31.9597 43.0928C31.8876 43.0063 31.8488 42.8968 31.8504 42.7842C31.8504 42.6799 31.8918 42.5798 31.9656 42.5061C32.0393 42.4323 32.1393 42.3909 32.2436 42.3909C32.3563 42.3893 32.4658 42.4281 32.5523 42.5002C32.6389 42.5724 32.6967 42.6731 32.7155 42.7842C32.7155 42.9093 32.6658 43.0293 32.5773 43.1178C32.4888 43.2063 32.3688 43.256 32.2436 43.256Z" fill="#001A60"/>
<path id="Vector_55" d="M28.4687 41.683C28.3436 41.683 28.2235 41.6333 28.135 41.5448C28.0465 41.4563 27.9968 41.3363 27.9968 41.2112C28.0156 41.1001 28.0735 40.9994 28.16 40.9272C28.2466 40.8551 28.3561 40.8163 28.4687 40.8179C28.573 40.8179 28.673 40.8593 28.7468 40.9331C28.8205 41.0068 28.8619 41.1069 28.8619 41.2112C28.8635 41.3238 28.8247 41.4333 28.7526 41.5198C28.6805 41.6064 28.5798 41.6643 28.4687 41.683Z" fill="#001A60"/>
<path id="Vector_56" d="M26.8957 37.8295C26.7831 37.831 26.6736 37.7923 26.587 37.7202C26.5005 37.648 26.4426 37.5473 26.4238 37.4362C26.4238 37.3111 26.4735 37.1911 26.562 37.1026C26.6505 37.0141 26.7706 36.9644 26.8957 36.9644C27.0068 36.9831 27.1075 37.041 27.1796 37.1276C27.2517 37.2141 27.2905 37.3236 27.2889 37.4362C27.2889 37.5405 27.2475 37.6406 27.1738 37.7143C27.1 37.788 27 37.8295 26.8957 37.8295Z" fill="#001A60"/>
<path id="Vector_57" d="M28.4687 34.0544C28.3436 34.0544 28.2235 34.0047 28.135 33.9162C28.0465 33.8277 27.9968 33.7076 27.9968 33.5825C28.0156 33.4714 28.0735 33.3707 28.16 33.2986C28.2466 33.2265 28.3561 33.1877 28.4687 33.1893C28.573 33.1893 28.673 33.2307 28.7468 33.3044C28.8205 33.3782 28.8619 33.4782 28.8619 33.5825C28.8635 33.6951 28.8247 33.8046 28.7526 33.8912C28.6805 33.9777 28.5798 34.0356 28.4687 34.0544Z" fill="#001A60"/>
<path id="Vector_58" d="M36.5694 37.5149C36.5486 38.6621 36.0728 39.754 35.2469 40.5505C34.4209 41.3469 33.3124 41.7827 32.1652 41.7618C31.0179 41.741 29.926 41.2652 29.1295 40.4393C28.3331 39.6133 27.8973 38.5048 27.9182 37.3576C27.959 36.217 28.4409 35.1367 29.2625 34.3445C30.0841 33.5522 31.1811 33.1099 32.3225 33.1106C32.8937 33.1102 33.4591 33.225 33.9849 33.4482C34.5107 33.6714 34.986 33.9984 35.3825 34.4096C35.779 34.8208 36.0885 35.3077 36.2924 35.8413C36.4964 36.3748 36.5906 36.944 36.5694 37.5149Z" fill="url(#paint17_radial_904_23561)"/>
<path id="Vector_59" d="M35.6256 37.9081C35.6256 35.9419 34.3672 34.8409 33.2662 34.8409C33.0594 34.8192 32.8504 34.8386 32.6513 34.8982C32.4521 34.9577 32.2667 35.0562 32.1058 35.1878C31.9449 35.3195 31.8117 35.4817 31.7139 35.6651C31.6161 35.8486 31.5556 36.0496 31.5359 36.2565C31.5439 36.4971 31.6131 36.7317 31.7369 36.9382C31.8608 37.1446 32.0352 37.316 32.2438 37.4362C32.4494 37.3261 32.679 37.2685 32.9123 37.2685C33.1455 37.2685 33.3752 37.3261 33.5808 37.4362C33.905 37.6731 34.1263 38.025 34.1994 38.4198C34.2725 38.8146 34.1919 39.2225 33.974 39.5597C33.3448 40.5035 31.7719 41.054 30.0416 40.0316C29.5645 39.7403 29.165 39.3378 28.8773 38.8584C28.5897 38.379 28.4225 37.8371 28.39 37.279C28.3578 37.8045 28.4336 38.3311 28.6128 38.8263C28.792 39.3214 29.0707 39.7746 29.4318 40.1578C29.793 40.541 30.2288 40.8462 30.7124 41.0544C31.196 41.2627 31.7172 41.3696 32.2438 41.3686C32.8541 41.3825 33.4553 41.2186 33.974 40.8967C34.4954 40.5963 34.9249 40.1591 35.2159 39.6324C35.507 39.1057 35.6487 38.5095 35.6256 37.9081Z" fill="url(#paint18_linear_904_23561)"/>
<path id="Vector_60" d="M30.1202 40.1103C31.8504 41.0541 33.502 40.5036 34.0525 39.4811C34.2444 39.1301 34.3024 38.7213 34.2156 38.3308C34.1288 37.9402 33.9032 37.5944 33.5807 37.3577C33.3706 37.252 33.1363 37.2037 32.9016 37.2175C32.6669 37.2313 32.4399 37.3068 32.2437 37.4363C32.238 37.6671 32.169 37.8919 32.0442 38.0861C31.9193 38.2803 31.7435 38.4364 31.5358 38.5374C31.1692 38.7035 30.7528 38.7226 30.3724 38.5909C29.992 38.4593 29.6765 38.1868 29.491 37.8296C28.9405 36.8071 29.2551 35.1555 31.0639 34.2118C31.5457 33.9188 32.0931 33.751 32.6562 33.7235C33.2194 33.696 33.7805 33.8098 34.2885 34.0545C33.8373 33.774 33.334 33.5879 32.8089 33.5074C32.2838 33.4268 31.7478 33.4535 31.2333 33.5858C30.7188 33.7181 30.2364 33.9533 29.8153 34.2771C29.3942 34.601 29.0431 35.0068 28.7832 35.4701C28.473 35.9939 28.31 36.5917 28.3113 37.2004C28.3488 37.7971 28.5337 38.3753 28.8494 38.8831C29.1651 39.3909 29.6017 39.8125 30.1202 40.1103Z" fill="url(#paint19_radial_904_23561)"/>
<path id="Vector_61" d="M30.9855 34.2117C29.2552 35.2341 28.9406 36.8857 29.4912 37.8295C29.6915 38.1938 30.0164 38.4739 30.4064 38.6183C30.7963 38.7627 31.2253 38.7619 31.6146 38.6159C31.8039 38.4817 31.9593 38.3051 32.0685 38.1004C32.1777 37.8956 32.2378 37.6682 32.2438 37.4362C32.0499 37.3066 31.891 37.1311 31.7812 36.9253C31.6714 36.7195 31.6142 36.4898 31.6146 36.2565C31.6242 36.053 31.6753 35.8536 31.7647 35.6706C31.8542 35.4875 31.9801 35.3247 32.1348 35.1921C32.2895 35.0595 32.4697 34.96 32.6642 34.8996C32.8588 34.8392 33.0637 34.8192 33.2662 34.8409C34.3673 34.8409 35.7043 36.0206 35.6257 37.9868C35.6166 38.5429 35.4766 39.0891 35.217 39.581C34.9573 40.073 34.5854 40.4968 34.1314 40.8181C35.0564 40.304 35.7409 39.4452 36.0355 38.4287C36.3301 37.4122 36.2111 36.3205 35.7043 35.3914C35.3888 34.8795 34.9578 34.4486 34.446 34.133C33.9085 33.8559 33.3102 33.7179 32.7057 33.7316C32.1012 33.7454 31.5098 33.9104 30.9855 34.2117Z" fill="url(#paint20_radial_904_23561)"/>
<path id="Vector_62" d="M39.322 37.7508C39.8292 37.8925 40.3621 37.9165 40.88 37.8211C41.3979 37.7257 41.8872 37.5134 42.3106 37.2003L41.9174 37.043C41.5326 37.2784 41.1017 37.4284 40.6539 37.4826C40.2061 37.5369 39.7519 37.4943 39.322 37.3576V37.7508Z" fill="#E49D00"/>
<path id="Vector_63" d="M60.3209 21.7853C61.0565 21.4017 61.7029 20.8671 62.2179 20.2166C62.7329 19.5661 63.1048 18.8143 63.3095 18.0103C62.7562 19.1986 61.8499 20.1873 60.7141 20.8416C60.7141 20.8416 57.7255 22.8077 46.6362 26.1109C46.6362 26.1109 41.4455 31.0657 36.5693 31.3803L36.8839 31.7736C42.3106 30.9084 46.6362 26.6615 46.6362 26.6615C51.1369 25.3729 55.5502 23.7967 59.849 21.9426L60.3209 21.7853Z" fill="#E49D00"/>
<path id="Vector_64" d="M54.9729 28.785C51.4338 29.0209 47.1868 29.0996 44.3555 29.0209H44.1982L43.6477 29.3355C47.423 29.4743 51.2029 29.4218 54.9729 29.1782C55.8494 29.06 56.6875 28.7436 57.4234 28.253C58.1593 27.7624 58.7737 27.1105 59.2199 26.3469C58.1799 27.6864 56.6541 28.5623 54.9729 28.785Z" fill="#E49D00"/>
<path id="Vector_65" d="M49.3102 32.5601C46.6658 32.1539 44.061 31.5225 41.5241 30.6726L41.0522 30.9086C43.6333 31.9299 46.326 32.6427 49.0743 33.032C49.9162 33.1904 50.786 33.1042 51.5804 32.7836C52.3749 32.463 53.0609 31.9215 53.5572 31.2231C53.0027 31.7619 52.3298 32.1634 51.5923 32.3956C50.8549 32.6277 50.0734 32.6841 49.3102 32.5601Z" fill="#E49D00"/>
<path id="Vector_66" d="M46.1642 34.9981C43.4116 34.7621 40.5803 32.56 39.4006 31.5376L39.0073 31.6949C41.1308 33.5824 43.7262 35.3127 46.0069 35.3913C46.5337 35.4228 47.0602 35.3246 47.5401 35.1052C48.02 34.8858 48.4388 34.5519 48.7596 34.133C48.4235 34.4682 48.0141 34.7208 47.5637 34.8709C47.1134 35.021 46.6343 35.0646 46.1642 34.9981Z" fill="#E49D00"/>
<path id="Vector_67" d="M42.1533 36.1778C40.3444 35.5486 38.6928 33.7397 37.5917 32.0881H37.1985L37.8277 33.0319C37.9063 33.1105 37.9063 33.1892 37.985 33.1892C38.9493 34.567 40.2485 35.6766 41.76 36.4137C42.2057 36.6093 42.6953 36.6833 43.1788 36.628C43.6624 36.5727 44.1227 36.3903 44.5127 36.0992H44.5913C43.8203 36.4436 42.9449 36.4718 42.1533 36.1778Z" fill="#E49D00"/>
<path id="Vector_68" d="M45.3777 25.4818C46.012 24.7882 46.7559 24.2037 47.5799 23.7515C54.4222 19.19 58.5905 16.9879 63.8599 13.4487C63.8725 13.2617 63.8457 13.0742 63.7812 12.8982H63.8599L54.9727 18.5608L47.4226 23.3583C46.582 23.8207 45.8136 24.4036 45.1418 25.0885C43.2543 27.0547 40.3443 29.6501 35.7041 30.122L35.94 30.4366C37.513 30.3579 41.2881 29.6501 45.3777 25.4818Z" fill="#FFF4CD"/>
<path id="Vector_69" d="M46.8721 27.0548L46.3215 27.5266C51.0738 26.339 55.7277 24.7877 60.2421 22.8864C60.2854 22.7325 60.3118 22.5742 60.3208 22.4146C55.9284 24.2123 51.4384 25.7614 46.8721 27.0548Z" fill="#FFF4CD"/>
<path id="Vector_70" d="M54.4223 29.8074C49.5462 29.9647 45.8497 29.9647 43.0971 29.8074L42.7825 29.9647C46.6046 30.2305 50.4396 30.2568 54.265 30.0433V29.8074H54.4223Z" fill="#FFF4CD"/>
<path id="Vector_71" d="M40.5805 31.1443H40.2659C43.0427 32.4065 45.9803 33.2798 48.9957 33.7397V33.5037C46.1173 33.0071 43.2975 32.2165 40.5805 31.1443Z" fill="#FFF4CD"/>
<path id="Vector_72" d="M45.0633 35.706C42.3893 35.0768 40.0298 33.1107 38.4569 31.8523H38.2209C40.895 34.369 43.1757 35.4701 44.8273 35.7847L45.0633 35.706Z" fill="#FFF4CD"/>
<path id="Vector_73" d="M25.244 37.7508C24.7368 37.8925 24.2039 37.9165 23.686 37.8211C23.1681 37.7257 22.6788 37.5134 22.2554 37.2003L22.6486 37.043C23.0334 37.2784 23.4643 37.4284 23.9121 37.4826C24.3599 37.5369 24.8141 37.4943 25.244 37.3576V37.7508Z" fill="#E49D00"/>
<path id="Vector_74" d="M4.24523 21.7853C3.50902 21.3911 2.85866 20.8543 2.33205 20.2062C1.80544 19.558 1.41312 18.8116 1.17798 18.0103C1.78705 19.1855 2.71345 20.1664 3.85199 20.8416C3.85199 20.8416 6.84059 22.8077 17.9299 26.1109C17.9299 26.1109 23.1206 31.0657 27.9968 31.3803L27.6822 31.7736C22.2555 30.9084 17.9299 26.6615 17.9299 26.6615C13.4038 25.372 8.96439 23.7958 4.63847 21.9426L4.24523 21.7853Z" fill="#E49D00"/>
<path id="Vector_75" d="M9.5145 28.785C13.0536 29.0209 17.3792 29.0996 20.2106 29.0209H20.3679L20.8397 29.3355C17.0644 29.4739 13.2845 29.4214 9.5145 29.1782C8.65196 29.0488 7.82954 28.7272 7.10804 28.2371C6.38654 27.747 5.78442 27.101 5.34619 26.3469C6.36745 27.6688 7.86175 28.5428 9.5145 28.785Z" fill="#E49D00"/>
<path id="Vector_76" d="M15.256 32.5601C17.8986 32.1449 20.5027 31.5136 23.0421 30.6726L23.514 30.9086C20.9089 31.9395 18.1891 32.6525 15.4133 33.032C14.583 33.1843 13.7265 33.0947 12.9457 32.774C12.1648 32.4533 11.4926 31.915 11.009 31.2231C11.5562 31.7726 12.2284 32.1813 12.968 32.4142C13.7077 32.647 14.4927 32.6971 15.256 32.5601Z" fill="#E49D00"/>
<path id="Vector_77" d="M18.4018 34.9981C21.1545 34.7621 23.9858 32.56 25.1655 31.5376L25.5587 31.6949C23.4352 33.5824 20.8399 35.3127 18.5591 35.3913C18.0323 35.4228 17.5059 35.3246 17.0259 35.1052C16.546 34.8858 16.1273 34.5519 15.8064 34.133H15.7278C16.0825 34.4649 16.506 34.7146 16.9682 34.8641C17.4304 35.0136 17.9199 35.0594 18.4018 34.9981Z" fill="#E49D00"/>
<path id="Vector_78" d="M22.4129 36.1778C24.1432 35.5486 25.8734 33.7397 26.9745 32.0881H27.3677L26.7385 33.0319C26.6599 33.1105 26.6599 33.1892 26.5812 33.1892C25.5999 34.5514 24.3051 35.6574 22.8062 36.4137C22.3605 36.6093 21.8709 36.6833 21.3874 36.628C20.9038 36.5727 20.4435 36.3903 20.0535 36.0992H19.9749C20.7459 36.4436 21.6213 36.4718 22.4129 36.1778Z" fill="#E49D00"/>
<path id="Vector_79" d="M19.1882 25.4818C18.5363 24.8075 17.7954 24.2254 16.9861 23.7515C10.1437 19.19 5.97543 16.9879 0.706055 13.4487V12.8982L9.59321 18.5608L17.1434 23.3583C17.9673 23.8104 18.7113 24.395 19.3455 25.0885C21.3117 27.0547 24.2216 29.6501 28.8618 30.122L28.6259 30.4366C27.0529 30.3579 23.2779 29.6501 19.1882 25.4818Z" fill="#FFF4CD"/>
<path id="Vector_80" d="M17.6941 27.0548L18.2446 27.5266C13.4697 26.3287 8.79045 24.7777 4.24536 22.8864V22.4146C8.6377 24.2123 13.1277 25.7614 17.6941 27.0548Z" fill="#FFF4CD"/>
<path id="Vector_81" d="M10.1438 29.8074C15.0199 29.9647 18.7164 29.9647 21.469 29.8074L21.7836 29.9647C17.9615 30.2305 14.1265 30.2568 10.3011 30.0433L10.1438 29.8074Z" fill="#FFF4CD"/>
<path id="Vector_82" d="M23.9858 31.1443H24.3004C21.5198 32.3964 18.5836 33.2693 15.5706 33.7397V33.5037C18.449 33.0071 21.2688 32.2165 23.9858 31.1443Z" fill="#FFF4CD"/>
<path id="Vector_83" d="M19.5029 35.706C22.1769 35.0768 24.5364 33.1107 26.0307 31.8523H26.3453C23.6712 34.369 21.3905 35.4701 19.6602 35.7847L19.5029 35.706Z" fill="#FFF4CD"/>
<path id="Vector_84" d="M40.7377 44.2785L40.8949 43.8853C39.5701 43.7462 38.3406 43.1314 37.4345 42.155C37.3714 42.2947 37.2595 42.4066 37.1199 42.4696C38.0574 43.5035 39.348 44.1488 40.7377 44.2785Z" fill="#FFF4CD"/>
<path id="Vector_85" d="M37.513 47.6604C36.5401 46.5111 35.8169 45.1719 35.3895 43.728L35.075 43.8853C35.2322 44.5932 36.0187 47.1885 37.2771 48.2109C37.2986 48.2434 37.3278 48.27 37.3621 48.2884C37.3964 48.3068 37.4348 48.3165 37.4737 48.3165C37.5126 48.3165 37.551 48.3068 37.5853 48.2884C37.6196 48.27 37.6488 48.2434 37.6703 48.2109L37.9849 47.8963L37.513 47.6604Z" fill="#E49D00"/>
<path id="Vector_86" d="M39.1648 38.5374C40.3171 38.8686 41.5516 38.7564 42.6253 38.2228H42.7039V37.9082C42.1031 38.2489 41.4282 38.4378 40.7377 38.4587H39.2434C39.2204 38.488 39.194 38.5144 39.1648 38.5374Z" fill="#FFF4CD"/>
<path id="Vector_87" d="M41.0522 42.9415C39.8989 42.8309 38.8174 42.3317 37.985 41.5259L37.749 41.8405C38.6008 42.69 39.7042 43.2417 40.8949 43.4134L41.2882 43.1775C41.3668 43.0988 41.3668 42.9415 41.4455 42.8629L41.0522 42.9415Z" fill="#E49D00"/>
<path id="Vector_88" d="M37.0413 48.84C36.4908 48.3681 35.4684 47.267 34.5246 44.0425L34.1313 44.1998C35.3111 48.6827 37.0413 48.84 37.0413 48.84Z" fill="#FFF4CD"/>
<path id="Vector_89" d="M33.5806 50.1771C33.4233 48.9187 33.266 45.7728 33.266 44.3572H32.8728C32.8728 44.8291 32.9515 49.7052 33.1087 51.0422H33.1874C34.4928 50.4199 35.7094 49.6264 36.8052 48.6828C35.9838 49.4588 35.0232 50.0725 33.9739 50.4917C33.8952 50.4917 33.5806 50.5703 33.5806 50.1771Z" fill="#E49D00"/>
<path id="Vector_90" d="M23.8284 44.2785C23.7321 44.1696 23.6766 44.0306 23.6711 43.8853C24.9864 43.714 26.2055 43.1044 27.1316 42.155L27.3676 42.4696C26.4692 43.5114 25.199 44.1606 23.8284 44.2785Z" fill="#FFF4CD"/>
<path id="Vector_91" d="M27.053 47.6604C28.0056 46.5094 28.7027 45.1689 29.0978 43.728L29.491 43.8853C29.2551 44.5932 28.5473 47.1885 27.2889 48.2109C27.2674 48.2434 27.2382 48.27 27.2039 48.2884C27.1696 48.3068 27.1312 48.3165 27.0923 48.3165C27.0534 48.3165 27.015 48.3068 26.9807 48.2884C26.9464 48.27 26.9172 48.2434 26.8957 48.2109L26.5024 47.8963L27.053 47.6604Z" fill="#E49D00"/>
<path id="Vector_92" d="M25.3228 38.5374C24.1691 38.8537 22.94 38.7419 21.8623 38.2228V37.9082C22.4386 38.2396 23.0858 38.4284 23.7498 38.4587H25.3228V38.5374Z" fill="#FFF4CD"/>
<path id="Vector_93" d="M23.5138 42.9415C24.6671 42.8309 25.7486 42.3317 26.5811 41.5259L26.817 41.8405C25.9652 42.69 24.8618 43.2417 23.6711 43.4134C23.5891 43.4202 23.5071 43.401 23.4366 43.3587C23.366 43.3164 23.3105 43.253 23.2779 43.1775C23.1993 43.0988 23.1993 42.9415 23.1206 42.8629L23.5138 42.9415Z" fill="#E49D00"/>
<path id="Vector_94" d="M27.5249 48.84C28.0754 48.3681 29.0979 47.267 30.0416 44.0425L30.3562 44.1998C29.2551 48.6827 27.5249 48.84 27.5249 48.84Z" fill="#FFF4CD"/>
<path id="Vector_95" d="M30.9853 50.1771C31.1426 48.9187 31.2212 45.7728 31.2999 44.3572H31.6145C31.6145 44.8291 31.6145 49.7052 31.4572 51.0422C31.4363 51.0422 31.4163 51.0505 31.4016 51.0652C31.3868 51.08 31.3785 51.1 31.3785 51.1209C30.0614 50.5198 28.8418 49.7245 27.7607 48.7614C28.6072 49.4254 29.5663 49.9315 30.5921 50.2557C30.6707 50.4917 30.9853 50.5703 30.9853 50.1771Z" fill="#E49D00"/>
<path id="Vector_96" d="M30.0416 29.1782C30.5082 28.2838 30.6997 27.2713 30.5921 26.2682C30.5135 26.2682 28.9405 25.5604 29.0192 26.3469C29.0978 27.1334 28.4686 25.3245 29.1765 25.0099C29.5165 24.9211 29.8764 24.9488 30.1989 25.0885L30.9853 25.2458C31.3426 24.9564 31.7842 24.7908 32.2437 24.7739C31.6125 24.5435 30.9251 24.516 30.2775 24.6953C30.5921 23.7515 31.4572 23.7515 32.2437 23.9088C32.7026 24.0829 33.1764 24.2146 33.6594 24.3021C34.0335 24.3785 34.4226 24.3229 34.7604 24.1448C34.8307 24.2663 34.8672 24.4044 34.866 24.5448C34.8649 24.6852 34.8262 24.8227 34.754 24.9431C34.6817 25.0635 34.5786 25.1623 34.4553 25.2294C34.3319 25.2965 34.1929 25.3293 34.0526 25.3245C34.0526 25.3245 33.8953 28.1558 34.6818 29.5714C35.0944 30.2922 35.568 30.9763 36.0974 31.6163C34.9735 30.8487 33.6441 30.4381 32.283 30.4381C30.922 30.4381 29.5926 30.8487 28.4686 31.6163C28.8619 30.9871 29.8056 29.6501 30.0416 29.1782ZM64.4892 12.4263C64.4892 11.5612 63.9386 11.9544 63.9386 11.9544C57.8041 16.1227 49.3102 21.4707 46.7935 23.0437C45.8063 23.7451 44.885 24.5348 44.0408 25.4031C39.7152 29.7287 35.4682 29.5714 35.3896 29.5714C35.311 29.5714 34.6031 25.6391 34.6031 25.6391C35.9401 25.1672 35.075 23.2796 35.075 23.2796C34.8539 23.503 34.5737 23.6587 34.2672 23.7283C33.9607 23.798 33.6407 23.7788 33.3448 23.6729C33.0022 23.4961 32.6279 23.3892 32.2437 23.3583C29.9629 23.0437 29.727 24.538 29.727 24.538C29.4453 24.4595 29.1444 24.4885 28.8828 24.6193C28.6213 24.7501 28.4176 24.9733 28.3113 25.2458C27.9967 26.3469 29.1765 26.8974 29.1765 26.8974L30.1202 26.6615C30.1152 27.7059 29.7853 28.7228 29.1765 29.5714C28.9405 29.5714 24.7722 29.6501 20.4466 25.4031C19.6211 24.5152 18.6977 23.7236 17.6939 23.0437C15.2559 21.4707 6.76193 16.1227 0.548787 11.9544C0.548787 11.9544 0.0769023 11.5612 0.0769023 12.4263C-0.237687 16.2014 0.312845 20.1337 3.61604 22.1786C3.61604 22.1786 3.2228 28.549 9.5146 29.8074C9.5146 29.8074 10.8516 33.7397 14.9413 33.5824C15.1712 34.1271 15.5259 34.6101 15.9767 34.9926C16.4275 35.3751 16.9618 35.6464 17.5366 35.7846C18.0307 35.8746 18.5369 35.8746 19.0309 35.7846C19.233 36.1835 19.5346 36.5234 19.9066 36.7714C20.2787 37.0195 20.7085 37.1672 21.1544 37.2002C21.3835 40.5475 22.5431 43.7643 24.5024 46.4879C26.4618 49.2115 29.1429 51.3336 32.2437 52.6151C43.333 47.739 43.4116 37.2002 43.4116 37.2002C43.8482 37.1695 44.2683 37.0218 44.6281 36.7727C44.9879 36.5237 45.274 36.1823 45.4565 35.7846C45.9768 35.8757 46.5091 35.8757 47.0294 35.7846C47.6042 35.6464 48.1386 35.3751 48.5894 34.9926C49.0402 34.6101 49.3948 34.1271 49.6248 33.5824C53.7145 33.7397 55.0515 29.8074 55.0515 29.8074C61.3433 28.549 60.95 22.1786 60.95 22.1786C64.2532 20.1337 64.8037 16.2014 64.4892 12.4263ZM0.706082 12.8982L17.1434 23.3583C17.9673 23.8104 18.7113 24.395 19.3455 25.0885C21.3117 27.0547 24.2217 29.6501 28.8619 30.122L27.6822 31.7736C22.2555 30.9084 17.9299 26.6615 17.9299 26.6615C13.4038 25.372 8.96438 23.7958 4.63845 21.9426L4.24522 21.7853C-0.15904 19.6619 0.706082 12.8982 0.706082 12.8982ZM4.24522 22.4145C8.63756 24.2122 13.1276 25.7614 17.6939 27.0547C17.6939 27.0547 18.7163 27.9198 20.3679 29.0995L20.8398 29.4141C17.0645 29.5525 13.2846 29.5 9.5146 29.2568C4.24522 28.3131 4.24522 22.4145 4.24522 22.4145ZM10.1438 29.8074C15.0199 29.9647 18.7163 29.9647 21.469 29.8074C22.108 30.2486 22.7937 30.6179 23.5138 30.9084C20.9088 31.9394 18.1889 32.6524 15.4132 33.0319C14.2995 33.1707 13.1717 32.9272 12.2144 32.3414C11.2571 31.7556 10.5271 30.8622 10.1438 29.8074ZM18.559 35.3913C17.9214 35.4588 17.2789 35.3193 16.7266 34.9936C16.1743 34.6679 15.7414 34.1731 15.4918 33.5824C18.3998 33.0657 21.2463 32.2486 23.9857 31.1444L25.5587 31.6949C23.4352 33.5824 20.8398 35.3127 18.559 35.3913ZM19.5028 35.7059C22.1768 35.0767 24.5363 33.1106 26.0306 31.8522H26.2665L27.3676 32.0881C27.2108 32.3681 27.0264 32.6315 26.817 32.8746L26.4238 33.4252C25.4502 34.6733 24.2154 35.6933 22.806 36.4138C22.2525 36.6664 21.6322 36.7339 21.0373 36.6065C20.4423 36.479 19.9043 36.1632 19.5028 35.7059ZM25.2441 37.7508C24.7369 37.8925 24.204 37.9165 23.6861 37.8211C23.1682 37.7257 22.6789 37.5134 22.2555 37.2002C23.5165 36.7693 24.6699 36.0719 25.6373 35.1554C25.386 35.89 25.2533 36.6599 25.2441 37.4362V37.7508ZM23.2779 43.1774C22.5392 41.5864 22.0612 39.8869 21.8622 38.144V37.8294C22.8958 38.3892 24.0968 38.5567 25.2441 38.3013C25.4019 39.6355 25.9489 40.8937 26.817 41.9191C25.9528 42.7511 24.8553 43.2998 23.6711 43.492C23.5791 43.4939 23.4894 43.4634 23.4176 43.4059C23.3457 43.3485 23.2963 43.2676 23.2779 43.1774ZM27.2889 48.2109C27.2594 48.2443 27.2231 48.2712 27.1824 48.2895C27.1417 48.3079 27.0976 48.3174 27.053 48.3174C27.0083 48.3174 26.9642 48.3079 26.9235 48.2895C26.8829 48.2712 26.8466 48.2443 26.817 48.2109C25.5291 46.9592 24.4651 45.4962 23.6711 43.8853C24.9864 43.714 26.2055 43.1044 27.1316 42.155C27.7555 42.9258 28.5683 43.522 29.491 43.8853C29.2551 44.5931 28.5473 47.1885 27.2889 48.2109ZM31.6145 44.9863C31.6145 46.4806 31.6145 50.6489 31.3786 51.3568C29.9886 50.6916 28.6927 49.8453 27.5249 48.84C28.0754 48.4468 29.0978 47.2671 30.0416 44.1212L31.6145 44.4358V44.9863ZM32.2437 43.9639C30.9526 43.9639 29.6906 43.5811 28.6171 42.8638C27.5436 42.1465 26.7069 41.127 26.2129 39.9342C25.7188 38.7414 25.5895 37.4289 25.8414 36.1627C26.0933 34.8964 26.715 33.7333 27.6279 32.8204C28.5408 31.9074 29.7039 31.2857 30.9702 31.0339C32.2365 30.782 33.549 30.9113 34.7418 31.4053C35.9345 31.8994 36.954 32.7361 37.6713 33.8096C38.3886 34.883 38.7714 36.1451 38.7714 37.4362C38.7714 39.1674 38.0837 40.8278 36.8595 42.052C35.6353 43.2762 33.975 43.9639 32.2437 43.9639ZM33.1875 51.3568C32.9515 50.6489 32.9515 46.4806 32.8729 44.9863V44.4358C33.4415 44.3977 33.9997 44.2648 34.5245 44.0426C35.4682 47.2671 36.4907 48.3682 37.0412 48.84C35.8733 49.8453 34.5775 50.6916 33.1875 51.3568ZM37.6704 48.2109C37.6489 48.2433 37.6196 48.2699 37.5853 48.2883C37.551 48.3068 37.5127 48.3164 37.4738 48.3164C37.4348 48.3164 37.3965 48.3068 37.3622 48.2883C37.3279 48.2699 37.2987 48.2433 37.2771 48.2109C36.0188 47.1885 35.2323 44.5931 35.075 43.8853C35.9809 43.4921 36.7872 42.9009 37.4344 42.155C38.3406 43.1314 39.5701 43.7462 40.8949 43.8853C40.1007 45.5165 39.0069 46.9839 37.6704 48.2109ZM42.7038 38.0654C42.4677 39.8007 41.9913 41.4948 41.2882 43.0988L40.8949 43.3347C39.7042 43.163 38.6008 42.6113 37.749 41.7618C38.5631 40.712 39.0793 39.4623 39.2433 38.144C40.4167 38.3911 41.6394 38.2244 42.7038 37.6721V38.0654ZM38.9287 35.1554C39.8719 36.1032 41.0331 36.8053 42.3106 37.2002C41.8871 37.5134 41.3978 37.7257 40.8799 37.8211C40.362 37.9165 39.8292 37.8925 39.322 37.7508V37.4362C39.3128 36.6599 39.18 35.89 38.9287 35.1554ZM41.76 36.4924C40.2485 35.7553 38.9493 34.6456 37.985 33.2679C37.9063 33.2679 37.9063 33.1892 37.8277 33.1106L37.1985 32.1668L38.2996 31.9308H38.4569C40.0298 33.1892 42.3892 35.1554 45.0632 35.7846C44.6618 36.2418 44.1237 36.5576 43.5288 36.6851C42.9338 36.8126 42.3136 36.745 41.76 36.4924ZM46.007 35.3913C43.7262 35.3127 41.1309 33.5824 39.0074 31.6949L40.5803 31.1444C43.3197 32.2486 46.1663 33.0657 49.0743 33.5824C48.8247 34.1731 48.3918 34.6679 47.8395 34.9936C47.2871 35.3193 46.6447 35.4588 46.007 35.3913ZM54.3436 29.8074C53.9727 30.8706 53.2453 31.7728 52.2847 32.3606C51.3242 32.9483 50.1898 33.1856 49.0743 33.0319C46.3259 32.6425 43.6332 31.9298 41.0522 30.9084C41.7723 30.6179 42.4581 30.2486 43.097 29.8074C45.8497 29.9647 49.5461 29.9647 54.4223 29.8074H54.3436ZM54.9728 29.2568C51.2028 29.5004 47.4229 29.5529 43.6476 29.4141L44.1981 29.0995C45.8497 27.9198 46.8721 27.0547 46.8721 27.0547C51.4385 25.7614 55.9285 24.2122 60.3208 22.4145C60.3208 22.4145 60.3208 28.3131 54.9728 29.2568ZM60.3208 21.7853L59.849 21.9426C55.5502 23.7967 51.1369 25.3729 46.6362 26.6615C46.6362 26.6615 42.3106 30.9084 36.8839 31.7736C36.4629 31.2434 36.0692 30.6921 35.7042 30.122C40.3444 29.6501 43.2543 27.0547 45.1419 25.0885C45.8136 24.4036 46.582 23.8207 47.4227 23.3583L63.86 12.8982H63.7813C63.7813 12.8982 64.7251 19.6619 60.3208 21.7853Z" fill="#001A60"/>
<path id="Vector_97" d="M32.2438 30.3579C33.6149 30.3739 34.9525 30.7833 36.0976 31.5376C35.5682 30.8977 35.0946 30.2136 34.6819 29.4928C33.8954 28.0771 34.0527 25.2458 34.0527 25.2458C34.193 25.2506 34.3321 25.2178 34.4554 25.1508C34.5787 25.0837 34.6819 24.9848 34.7541 24.8645C34.8263 24.7441 34.865 24.6066 34.8662 24.4662C34.8673 24.3258 34.8308 24.1877 34.7605 24.0661C34.4227 24.2443 34.0336 24.2999 33.6595 24.2234C33.1766 24.1359 32.7027 24.0043 32.2438 23.8302C31.4574 23.6729 30.5922 23.6729 30.2776 24.6167C30.9252 24.4374 31.6126 24.4649 32.2438 24.6953C31.7843 24.7122 31.3428 24.8778 30.9855 25.1672L30.199 25.0099C29.8765 24.8702 29.5166 24.8425 29.1766 24.9312C28.4688 25.2458 28.7833 26.0323 29.0193 26.2682C29.2552 26.5042 30.5136 26.1896 30.5922 26.1896C30.6999 27.1927 30.5083 28.2051 30.0417 29.0996C29.8058 29.5714 28.862 30.9084 28.4688 31.459C29.5996 30.7467 30.9073 30.3653 32.2438 30.3579Z" fill="url(#paint21_linear_904_23561)"/>
<path id="Vector_98" d="M32.2438 24.3807L33.6594 24.7739C34.054 24.8266 34.4551 24.7998 34.8391 24.6953C34.8582 24.4824 34.8314 24.2678 34.7605 24.0661C34.4227 24.2443 34.0336 24.2999 33.6594 24.2234C33.1765 24.1359 32.7026 24.0043 32.2438 23.8302C31.4573 23.6729 30.5922 23.6729 30.2776 24.6167H30.7495C30.9617 24.4611 31.2081 24.3586 31.468 24.3175C31.7279 24.2765 31.9939 24.2982 32.2438 24.3807Z" fill="#FFF4CD"/>
<path id="Vector_99" d="M29.1764 25.5604C29.5431 25.4763 29.9265 25.5037 30.2775 25.6391L31.0639 25.875C31.3548 25.4117 31.7614 25.0322 32.2437 24.774C31.9143 24.7723 31.5897 24.8534 31.2999 25.0099L30.9853 25.2458L30.4348 25.0885C30.0401 24.905 29.5908 24.8769 29.1764 25.0099C29.09 25.0355 29.0101 25.0794 28.9422 25.1385C28.8742 25.1977 28.8198 25.2707 28.7825 25.3528C28.7452 25.4348 28.726 25.5239 28.7261 25.614C28.7262 25.7041 28.7457 25.7931 28.7832 25.875C28.8802 25.7335 29.017 25.624 29.1764 25.5604Z" fill="#FFF4CD"/>
</g>
<defs>
<radialGradient id="paint0_radial_904_23561" cx="0" cy="0" r="1" gradientUnits="userSpaceOnUse" gradientTransform="translate(22.4474 12.0551) scale(33.6233 33.6234)">
<stop stop-color="#FEE7A9"/>
<stop offset="0.46" stop-color="#FFD900"/>
<stop offset="1" stop-color="#E49D00"/>
</radialGradient>
<linearGradient id="paint1_linear_904_23561" x1="23.7106" y1="15.234" x2="34.4538" y2="28.7063" gradientUnits="userSpaceOnUse">
<stop stop-color="#002F82"/>
<stop offset="1" stop-color="#001A60"/>
</linearGradient>
<linearGradient id="paint2_linear_904_23561" x1="22.3892" y1="37.5778" x2="19.3377" y2="18.4822" gradientUnits="userSpaceOnUse">
<stop stop-color="#CA8200"/>
<stop offset="0.3" stop-color="#E1A504"/>
<stop offset="1" stop-color="#CA8200"/>
</linearGradient>
<linearGradient id="paint3_linear_904_23561" x1="26.9114" y1="54.5106" x2="-2.46342" y2="-14.4239" gradientUnits="userSpaceOnUse">
<stop stop-color="#FEDA5D"/>
<stop offset="1" stop-color="#996100"/>
</linearGradient>
<linearGradient id="paint4_linear_904_23561" x1="22.2318" y1="36.5004" x2="25.6215" y2="36.5004" gradientUnits="userSpaceOnUse">
<stop stop-color="#FEE7A9"/>
<stop offset="0.46" stop-color="#FFD900"/>
<stop offset="1" stop-color="#E49D00"/>
</linearGradient>
<linearGradient id="paint5_linear_904_23561" x1="19.5187" y1="34.2746" x2="27.3519" y2="34.2746" gradientUnits="userSpaceOnUse">
<stop stop-color="#FEE7A9"/>
<stop offset="0.46" stop-color="#FFD900"/>
<stop offset="1" stop-color="#E49D00"/>
</linearGradient>
<linearGradient id="paint6_linear_904_23561" x1="4.26109" y1="25.9694" x2="20.8714" y2="25.9694" gradientUnits="userSpaceOnUse">
<stop stop-color="#FEE7A9"/>
<stop offset="0.46" stop-color="#FFD900"/>
<stop offset="1" stop-color="#E49D00"/>
</linearGradient>
<linearGradient id="paint7_linear_904_23561" x1="1.10713" y1="16.5868" x2="32.0942" y2="33.1971" gradientUnits="userSpaceOnUse">
<stop stop-color="#FEE7A9"/>
<stop offset="0.46" stop-color="#FFD900"/>
<stop offset="1" stop-color="#E49D00"/>
</linearGradient>
<linearGradient id="paint8_linear_904_23561" x1="10.1674" y1="31.4511" x2="23.5296" y2="31.4511" gradientUnits="userSpaceOnUse">
<stop stop-color="#FEE7A9"/>
<stop offset="0.46" stop-color="#FFD900"/>
<stop offset="1" stop-color="#E49D00"/>
</linearGradient>
<linearGradient id="paint9_linear_904_23561" x1="15.4605" y1="33.2678" x2="25.5824" y2="33.2678" gradientUnits="userSpaceOnUse">
<stop stop-color="#FEE7A9"/>
<stop offset="0.46" stop-color="#FFD900"/>
<stop offset="1" stop-color="#E49D00"/>
</linearGradient>
<linearGradient id="paint10_linear_904_23561" x1="42.3184" y1="36.5004" x2="38.9287" y2="36.5004" gradientUnits="userSpaceOnUse">
<stop stop-color="#FEE7A9"/>
<stop offset="0.46" stop-color="#FFD900"/>
<stop offset="1" stop-color="#E49D00"/>
</linearGradient>
<linearGradient id="paint11_linear_904_23561" x1="45.0318" y1="34.2746" x2="37.1985" y2="34.2746" gradientUnits="userSpaceOnUse">
<stop stop-color="#FEE7A9"/>
<stop offset="0.46" stop-color="#FFD900"/>
<stop offset="1" stop-color="#E49D00"/>
</linearGradient>
<linearGradient id="paint12_linear_904_23561" x1="60.2895" y1="25.9694" x2="43.6792" y2="25.9694" gradientUnits="userSpaceOnUse">
<stop stop-color="#FEE7A9"/>
<stop offset="0.46" stop-color="#FFD900"/>
<stop offset="1" stop-color="#E49D00"/>
</linearGradient>
<linearGradient id="paint13_linear_904_23561" x1="63.4352" y1="16.5868" x2="32.456" y2="33.1971" gradientUnits="userSpaceOnUse">
<stop stop-color="#FEE7A9"/>
<stop offset="0.46" stop-color="#FFD900"/>
<stop offset="1" stop-color="#E49D00"/>
</linearGradient>
<linearGradient id="paint14_linear_904_23561" x1="54.383" y1="31.4511" x2="41.0208" y2="31.4511" gradientUnits="userSpaceOnUse">
<stop stop-color="#FEE7A9"/>
<stop offset="0.46" stop-color="#FFD900"/>
<stop offset="1" stop-color="#E49D00"/>
</linearGradient>
<linearGradient id="paint15_linear_904_23561" x1="49.0899" y1="33.2678" x2="38.968" y2="33.2678" gradientUnits="userSpaceOnUse">
<stop stop-color="#FEE7A9"/>
<stop offset="0.46" stop-color="#FFD900"/>
<stop offset="1" stop-color="#E49D00"/>
</linearGradient>
<linearGradient id="paint16_linear_904_23561" x1="32.2595" y1="30.6253" x2="32.2595" y2="43.9482" gradientUnits="userSpaceOnUse">
<stop stop-color="#FEE7A9"/>
<stop offset="0.46" stop-color="#FFD900"/>
<stop offset="1" stop-color="#E49D00"/>
</linearGradient>
<radialGradient id="paint17_radial_904_23561" cx="0" cy="0" r="1" gradientUnits="userSpaceOnUse" gradientTransform="translate(32.2438 37.3985) scale(4.32875)">
<stop stop-color="#036EB8"/>
<stop offset="0.57" stop-color="#003894"/>
</radialGradient>
<linearGradient id="paint18_linear_904_23561" x1="31.5202" y1="37.8138" x2="35.8144" y2="38.9777" gradientUnits="userSpaceOnUse">
<stop stop-color="#FEE7A9"/>
<stop offset="0.46" stop-color="#FFD900"/>
<stop offset="1" stop-color="#E49D00"/>
</linearGradient>
<radialGradient id="paint19_radial_904_23561" cx="0" cy="0" r="1" gradientUnits="userSpaceOnUse" gradientTransform="translate(32.8288 38.0277) scale(5.97721 5.9772)">
<stop stop-color="#036EB8"/>
<stop offset="0.57" stop-color="#003894"/>
</radialGradient>
<radialGradient id="paint20_radial_904_23561" cx="0" cy="0" r="1" gradientUnits="userSpaceOnUse" gradientTransform="translate(32.1746 37.5872) scale(3.80024)">
<stop stop-color="#E6002D"/>
<stop offset="0.22" stop-color="#DB032B"/>
<stop offset="0.6" stop-color="#BE0C24"/>
<stop offset="1" stop-color="#99161C"/>
</radialGradient>
<linearGradient id="paint21_linear_904_23561" x1="32.2832" y1="24.2155" x2="32.2832" y2="31.6477" gradientUnits="userSpaceOnUse">
<stop stop-color="#FEE7A9"/>
<stop offset="0.46" stop-color="#FFD900"/>
<stop offset="1" stop-color="#E49D00"/>
</linearGradient>
</defs>
</svg>
