<svg width="19" height="20" viewBox="0 0 19 20" fill="none" xmlns="http://www.w3.org/2000/svg">
<g id="Group 1121">
<path id="icon" d="M5.23331 5.69908L6.262 7.89049C6.35402 8.08651 6.53762 8.22384 6.75166 8.25674L9.11839 8.6205L7.38488 10.3959C7.2407 10.5436 7.17522 10.751 7.20844 10.9547L7.61045 13.4194L5.54786 12.2788C5.35212 12.1705 5.11449 12.1705 4.91876 12.2788L2.85617 13.4194L3.25818 10.9547C3.2914 10.751 3.22591 10.5436 3.08173 10.3959L1.34823 8.6205L3.71496 8.25674C3.92899 8.22384 4.11259 8.08651 4.20461 7.89049L5.23331 5.69908Z" stroke="white" stroke-width="1.3" stroke-linecap="round" stroke-linejoin="round"/>
<g id="Group 1122">
<path id="icon_2" d="M14.4256 1.59797L14.3237 3.15806L15.5143 4.07553L14.0413 4.52039L13.5122 6.00488L12.7036 4.71978L11.1853 4.72142L12.1587 3.48199L11.7492 1.99873L13.1603 2.51633L14.4256 1.59797Z" fill="white"/>
<path id="icon_3" d="M14.4256 14.2244L14.3237 15.7845L15.5143 16.702L14.0413 17.1469L13.5122 18.6313L12.7036 17.3462L11.1853 17.3479L12.1587 16.1085L11.7492 14.6252L13.1603 15.1428L14.4256 14.2244Z" fill="white"/>
<path id="icon_4" d="M15.6146 5.24764L16.6879 6.38442L18.1705 6.13711L17.4933 7.51887L18.2203 8.91712L16.7286 8.63434L15.696 9.74746L15.451 8.19067L14.0858 7.48071L15.4257 6.79959L15.6146 5.24764Z" fill="white"/>
<path id="icon_5" d="M16.6263 10.4856L17.2682 11.9111L18.7501 12.1628L17.6579 13.2467L17.887 14.8059L16.5701 14.0503L15.23 14.764L15.5081 13.2128L14.4507 12.095L15.9397 11.8901L16.6263 10.4856Z" fill="white"/>
</g>
</g>
</svg>
