<svg width="17" height="16" viewBox="0 0 17 16" fill="none" xmlns="http://www.w3.org/2000/svg">
<path id="warn" d="M7.84398 9.17382V5.63769C7.84398 5.48139 7.90595 5.33148 8.01624 5.22096C8.12653 5.11043 8.27612 5.04834 8.4321 5.04834C8.58808 5.04834 8.73767 5.11043 8.84796 5.22096C8.95826 5.33148 9.02022 5.48139 9.02022 5.63769V9.17382C9.02022 9.33013 8.95826 9.48003 8.84796 9.59056C8.73767 9.70108 8.58808 9.76318 8.4321 9.76318C8.27612 9.76318 8.12653 9.70108 8.01624 9.59056C7.90595 9.48003 7.84398 9.33013 7.84398 9.17382ZM16.4281 14.1819C16.2747 14.4522 16.0523 14.6766 15.7837 14.8321C15.515 14.9877 15.2099 15.0687 14.8997 15.0668H1.96454C1.65467 15.0668 1.35026 14.985 1.08195 14.8297C0.813638 14.6743 0.590881 14.4509 0.436093 14.1819C0.281304 13.9129 0.199943 13.6078 0.200196 13.2973C0.200449 12.9868 0.282306 12.6818 0.437533 12.413L6.90509 1.21584C7.06008 0.947518 7.28275 0.724751 7.55076 0.569884C7.81878 0.415018 8.12272 0.333496 8.4321 0.333496C8.74148 0.333496 9.04542 0.415018 9.31344 0.569884C9.58146 0.724751 9.80412 0.947518 9.95911 1.21584L16.4267 12.413C16.5837 12.6811 16.6666 12.9864 16.6669 13.2973C16.6671 13.6082 16.5847 13.9135 16.4281 14.1819ZM15.4087 13.0035L8.9411 1.80631C8.88944 1.71687 8.81522 1.64262 8.72588 1.591C8.63654 1.53938 8.53523 1.51221 8.4321 1.51221C8.32898 1.51221 8.22766 1.53938 8.13832 1.591C8.04899 1.64262 7.97476 1.71687 7.9231 1.80631L1.45553 13.0035C1.40381 13.0931 1.37653 13.1947 1.37645 13.2982C1.37637 13.4017 1.4035 13.5034 1.45509 13.5931C1.50668 13.6828 1.58093 13.7572 1.67036 13.809C1.75979 13.8608 1.86125 13.8881 1.96454 13.8881H14.8997C15.003 13.8881 15.1044 13.8608 15.1938 13.809C15.2833 13.7572 15.3575 13.6828 15.4091 13.5931C15.4607 13.5034 15.4878 13.4017 15.4877 13.2982C15.4877 13.1947 15.4604 13.0931 15.4087 13.0035ZM8.4321 10.9419C8.25762 10.9419 8.08706 10.9937 7.94199 11.0909C7.79692 11.188 7.68385 11.3261 7.61708 11.4876C7.55031 11.6491 7.53284 11.8269 7.56688 11.9984C7.60091 12.1699 7.68493 12.3274 7.80831 12.451C7.93168 12.5747 8.08887 12.6589 8.26 12.693C8.43112 12.7271 8.6085 12.7096 8.76969 12.6427C8.93089 12.5757 9.06867 12.4624 9.1656 12.3171C9.26254 12.1717 9.31428 12.0008 9.31428 11.8259C9.31401 11.5915 9.22099 11.3668 9.0556 11.2011C8.89022 11.0354 8.66599 10.9421 8.4321 10.9419Z" fill="white" stroke="white" stroke-width="0.2"/>
</svg>
