<svg width="14" height="17" viewBox="0 0 14 17" fill="none" xmlns="http://www.w3.org/2000/svg">
<g id="Group 965">
<path id="Vector (Stroke)" fill-rule="evenodd" clip-rule="evenodd" d="M6.68917 0.176549C6.94755 -0.0587951 7.34371 -0.0588511 7.60216 0.17639C8.35417 0.809631 9.20623 1.30082 10.117 1.63427L10.1172 1.63436C11.0321 1.96972 12.0067 2.14443 12.9979 2.14443C13.3727 2.14443 13.6765 2.44826 13.6765 2.82305V8.45065C13.6765 12.3856 11.0946 15.8439 7.34226 16.9713C7.21506 17.0095 7.07943 17.0096 6.9522 16.9714C3.19802 15.8465 0.616211 12.3867 0.616211 8.45188V2.82429C0.616211 2.44949 0.920039 2.14567 1.29483 2.14567C3.2689 2.14567 5.18047 1.44811 6.68917 0.176549ZM7.14592 1.54737C5.64433 2.67779 3.84667 3.3483 1.97345 3.47922V8.45188C1.97345 11.7183 4.07257 14.5976 7.14672 15.61C10.2203 14.5954 12.3193 11.7169 12.3193 8.45065V3.4781C11.4029 3.41435 10.5046 3.22189 9.65035 2.90877C8.75748 2.58186 7.91301 2.12442 7.14592 1.54737Z" fill="white"/>
<path id="Vector (Stroke)_2" fill-rule="evenodd" clip-rule="evenodd" d="M9.46807 5.8494C9.71704 5.56926 10.146 5.54399 10.4261 5.79296C10.7063 6.04193 10.7315 6.47087 10.4826 6.75101L9.97531 6.30021L9.46807 5.8494ZM6.77328 11.0153C6.79274 10.9897 6.82191 10.9526 6.86207 10.9031C6.96051 10.7816 7.1046 10.61 7.28194 10.4021C7.63554 9.98773 8.10862 9.44435 8.58364 8.90246C9.05822 8.36108 9.53298 7.82318 9.88922 7.42049C10.0673 7.21918 10.2157 7.05174 10.3195 6.93466C10.3715 6.87612 10.4123 6.83017 10.44 6.79888L10.4826 6.75101C10.4826 6.75098 10.4826 6.75101 9.97531 6.30021C9.46807 5.8494 9.4681 5.84937 9.46807 5.8494L9.42514 5.89773C9.39721 5.92919 9.35626 5.97532 9.30417 6.03405C9.19999 6.1515 9.0512 6.31939 8.87267 6.5212C8.51566 6.92476 8.03944 7.46432 7.56302 8.00779C7.08705 8.55077 6.60914 9.09965 6.2495 9.52113C6.21835 9.55762 6.188 9.59328 6.15853 9.62799C6.04118 9.47595 5.91304 9.30794 5.78384 9.13735C5.55315 8.83278 5.32216 8.52413 5.14864 8.29135C5.06193 8.17503 4.98969 8.07781 4.93916 8.00971C4.9139 7.97567 4.89406 7.94891 4.88057 7.93069L4.86009 7.90302C4.86008 7.90301 4.86002 7.90293 4.3144 8.30645L4.86009 7.90302C4.63723 7.60169 4.21222 7.53798 3.91089 7.76083C3.60955 7.98369 3.54593 8.40863 3.76879 8.70996L4.3144 8.30645C3.76879 8.70996 3.76877 8.70994 3.76879 8.70996L3.78994 8.73854C3.80365 8.75705 3.82372 8.78412 3.84923 8.8185C3.90025 8.88726 3.97308 8.98527 4.06046 9.1025C4.23512 9.33681 4.46836 9.64847 4.70192 9.95682C4.93464 10.2641 5.17082 10.5722 5.35022 10.7976C5.43836 10.9084 5.52022 11.0085 5.58358 11.0801C5.61029 11.1102 5.65494 11.1597 5.70398 11.2026C5.70409 11.2027 5.70431 11.2029 5.70464 11.2032C5.71349 11.2112 5.80263 11.2924 5.93421 11.3402C5.98645 11.3592 6.26141 11.4545 6.54269 11.2697C6.65641 11.1949 6.72811 11.1035 6.77328 11.0153ZM6.84997 10.6989C6.84997 10.7637 6.84047 10.8182 6.83124 10.8564C6.84841 10.7829 6.84997 10.7244 6.84997 10.6989Z" fill="white"/>
</g>
</svg>
