<svg width="27" height="28" viewBox="0 0 27 28" fill="none" xmlns="http://www.w3.org/2000/svg">
<g id="Group 1261159966">
<path id="Vector" d="M13.25 26.5C20.1536 26.5 25.75 20.9036 25.75 14C25.75 7.09644 20.1536 1.5 13.25 1.5C6.34644 1.5 0.75 7.09644 0.75 14C0.75 20.9036 6.34644 26.5 13.25 26.5Z" stroke="#23B0FF" stroke-width="1.2"/>
<path id="Vector_2" d="M8.77246 4.8287L12.1541 10.7368C12.1541 10.7368 13.249 10.2171 14.325 10.7368L17.7267 4.8287C17.7267 4.8287 13.4899 2.19948 8.77246 4.8287Z" stroke="#23B0FF" stroke-width="1.2"/>
<path id="Vector_3" d="M23.5355 14.625L16.7286 14.6321C16.7286 14.6321 16.6742 15.6833 15.6514 16.5184L19.0944 22.4028C19.0944 22.4028 23.4811 20.0275 23.5355 14.625Z" stroke="#23B0FF" stroke-width="1.2"/>
<path id="Vector_4" d="M3.06152 14.625L9.86843 14.6321C9.86843 14.6321 10.1047 15.9786 10.9456 16.5184L7.50261 22.4028C7.50261 22.4028 3.11586 20.0275 3.06152 14.625Z" stroke="#23B0FF" stroke-width="1.2"/>
<path id="Vector_5" d="M13.2501 15.9708C14.3401 15.9708 15.2237 15.0872 15.2237 13.9971C15.2237 12.9071 14.3401 12.0234 13.2501 12.0234C12.16 12.0234 11.2764 12.9071 11.2764 13.9971C11.2764 15.0872 12.16 15.9708 13.2501 15.9708Z" fill="#23B0FF"/>
</g>
</svg>
