<svg width="28" height="28" viewBox="0 0 28 28" fill="none" xmlns="http://www.w3.org/2000/svg">
<g id="Group 1261159937">
<path id="Vector" d="M23.4466 14.0011C23.4466 19.3561 19.1063 23.6952 13.7501 23.6952C8.39396 23.6952 4.05371 19.3561 4.05371 14.0011C4.05371 8.64377 8.39396 4.30469 13.7501 4.30469C19.1063 4.30469 23.4466 8.64377 23.4466 14.0011Z" stroke="#23B0FF" stroke-width="1.2"/>
<path id="Vector_2" d="M13.7497 15.431C14.5418 15.431 15.1839 14.7889 15.1839 13.9968C15.1839 13.2046 14.5418 12.5625 13.7497 12.5625C12.9576 12.5625 12.3154 13.2046 12.3154 13.9968C12.3154 14.7889 12.9576 15.431 13.7497 15.431Z" stroke="#23B0FF" stroke-width="1.2"/>
<path id="Vector_3" d="M15.4131 13.9961H27.2503" stroke="#23B0FF" stroke-width="1.2"/>
<path id="Vector_4" d="M0.25 13.9961H11.9701" stroke="#23B0FF" stroke-width="1.2"/>
<path id="Vector_5" d="M13.75 15.3594V27.5001" stroke="#23B0FF" stroke-width="1.2"/>
<path id="Vector_6" d="M13.75 0.5V12.4099" stroke="#23B0FF" stroke-width="1.2"/>
<path id="Vector_7" d="M15.0332 15.2773L23.2954 23.5407" stroke="#23B0FF" stroke-width="1.2"/>
<path id="Vector_8" d="M4.2041 4.44531L12.6045 12.8481" stroke="#23B0FF" stroke-width="1.2"/>
<path id="Vector_9" d="M12.5917 15.1562L4.2041 23.545" stroke="#23B0FF" stroke-width="1.2"/>
<path id="Vector_10" d="M23.2952 4.44531L14.9639 12.7766" stroke="#23B0FF" stroke-width="1.2"/>
</g>
</svg>
