<svg width="22" height="22" viewBox="0 0 22 22" fill="none" xmlns="http://www.w3.org/2000/svg">
<g id="Group 1261159945">
<circle id="Ellipse 2579" cx="10.9091" cy="10.9091" r="10.3091" stroke="#23B0FF" stroke-width="1.2"/>
<path id="Vector 405" d="M18.0001 2.72656L4.90918 19.0902" stroke="#23B0FF" stroke-width="1.2"/>
<path id="Vector" d="M15.505 7.48488C15.5061 7.28137 15.4574 7.0809 15.3634 6.90235C15.2693 6.7238 15.133 6.57304 14.9674 6.46428C14.8018 6.35551 14.6122 6.29232 14.4165 6.28065C14.2209 6.26897 14.0256 6.3092 13.849 6.39755C13.8374 6.1926 13.7765 5.99394 13.672 5.81969C13.5674 5.64544 13.4225 5.50114 13.2505 5.39994C13.0785 5.29874 12.8848 5.24386 12.6872 5.24031C12.4895 5.23677 12.2941 5.28466 12.1189 5.37962C12.0991 5.0849 11.9809 4.80658 11.7846 4.59269C11.5884 4.3788 11.3264 4.24275 11.0439 4.20802C10.7614 4.17329 10.476 4.24205 10.2371 4.40244C9.99819 4.56283 9.82068 4.8048 9.73519 5.08659C9.54899 4.97061 9.33597 4.90931 9.11885 4.90922C8.9591 4.90972 8.80102 4.94296 8.65366 5.00704C8.5063 5.07111 8.37256 5.16475 8.26012 5.2826C8.14767 5.40044 8.05873 5.54018 7.99839 5.69379C7.93804 5.8474 7.90748 6.01187 7.90846 6.17777V11.0592C7.43321 10.4423 6.9691 9.83305 6.89856 9.72894C6.79118 9.55188 6.64208 9.40619 6.46537 9.30566C6.28865 9.20513 6.09015 9.15308 5.88866 9.15443C5.71775 9.14907 5.5476 9.18013 5.38871 9.24572C5.22981 9.3113 5.08555 9.41001 4.96482 9.53575C4.84409 9.66149 4.74945 9.81159 4.68676 9.97679C4.62406 10.142 4.59464 10.3188 4.60029 10.4962C4.63371 11.1903 5.92579 13.6426 6.7946 14.9767C8.10896 16.9971 9.3639 17.2901 9.4196 17.2901H9.48643H13.3255C13.3994 17.2893 13.4711 17.2636 13.5297 17.2169C14.1965 16.5788 14.6786 15.7603 14.9221 14.8533C15.2934 13.6618 15.4901 11.9499 15.5087 9.62484L15.505 7.48488ZM14.2872 14.6374C14.0787 15.3712 13.7044 16.0428 13.1956 16.5961H9.51613C9.34163 16.5421 8.37628 16.172 7.33668 14.5718C6.29708 12.9717 5.28718 10.8394 5.26861 10.4615C5.26562 10.3808 5.27894 10.3004 5.30772 10.2253C5.33649 10.1503 5.38009 10.0823 5.43569 10.0258C5.49046 9.9673 5.5564 9.92128 5.62929 9.89074C5.70217 9.86019 5.7804 9.8458 5.85896 9.84847C5.95704 9.84255 6.05478 9.865 6.14131 9.91333C6.22784 9.96166 6.29975 10.034 6.34906 10.1222C6.45673 10.288 7.22529 11.279 7.67455 11.8689L8.57678 11.2366V6.17777C8.57054 6.09915 8.58006 6.02004 8.60475 5.94543C8.62944 5.87082 8.66876 5.80234 8.72022 5.74431C8.77169 5.68629 8.83418 5.63997 8.90375 5.60829C8.97332 5.5766 9.04846 5.56025 9.12442 5.56025C9.20039 5.56025 9.27553 5.5766 9.3451 5.60829C9.41467 5.63997 9.47716 5.68629 9.52862 5.74431C9.58009 5.80234 9.6194 5.87082 9.64409 5.94543C9.66879 6.02004 9.67831 6.09915 9.67207 6.17777V10.4731H10.3404V5.4606C10.3562 5.31871 10.4217 5.18781 10.5244 5.09279C10.627 4.99777 10.7598 4.94527 10.8973 4.94527C11.0349 4.94527 11.1676 4.99777 11.2703 5.09279C11.373 5.18781 11.4384 5.31871 11.4542 5.4606V10.5232H12.1226V6.49395C12.1164 6.41792 12.1255 6.3414 12.1494 6.26923C12.1732 6.19705 12.2111 6.13079 12.2608 6.07464C12.3106 6.01848 12.371 5.97366 12.4383 5.94299C12.5055 5.91233 12.5782 5.8965 12.6516 5.8965C12.7251 5.8965 12.7978 5.91233 12.865 5.94299C12.9323 5.97366 12.9927 6.01848 13.0424 6.07464C13.0922 6.13079 13.1301 6.19705 13.1539 6.26923C13.1777 6.3414 13.1869 6.41792 13.1807 6.49395V10.905H13.849V7.47331C13.8598 7.34548 13.9162 7.22646 14.0073 7.13974C14.0984 7.05303 14.2174 7.00492 14.341 7.00492C14.4646 7.00492 14.5836 7.05303 14.6747 7.13974C14.7658 7.22646 14.8223 7.34548 14.833 7.47331V9.61327C14.8218 11.892 14.6436 13.5153 14.2872 14.6374Z" fill="#23B0FF" stroke="#23B0FF" stroke-width="0.4"/>
</g>
</svg>
