<svg width="27" height="28" viewBox="0 0 27 28" fill="none" xmlns="http://www.w3.org/2000/svg">
<g id="Group 1261159934">
<path id="Vector" d="M13.5 26.5C20.4036 26.5 26 20.9036 26 14C26 7.09644 20.4036 1.5 13.5 1.5C6.59644 1.5 1 7.09644 1 14C1 20.9036 6.59644 26.5 13.5 26.5Z" stroke="#23B0FF" stroke-width="1.2"/>
<path id="Vector_2" d="M13.5 1.89453V2.71838V4.22702" stroke="#23B0FF" stroke-width="1.2"/>
<path id="Vector_3" d="M13.5 23.8867V26.2192" stroke="#23B0FF" stroke-width="1.2"/>
<path id="Vector_4" d="M25.6635 14.0586H24.8397H23.3311" stroke="#23B0FF" stroke-width="1.2"/>
<path id="Vector_5" d="M3.67038 14.0586H1.33789" stroke="#23B0FF" stroke-width="1.2"/>
<path id="Vector_6" d="M11.939 12.9417L7.13281 20.5471L14.8035 15.7725L19.873 7.9375L11.939 12.9417Z" stroke="#23B0FF" stroke-width="1.2" stroke-linecap="round" stroke-linejoin="round"/>
<path id="Vector_7" d="M12.043 12.872L14.8032 15.7692L19.7579 8.11328L12.043 12.872Z" fill="#23B0FF"/>
</g>
</svg>
