<svg width="18" height="28" viewBox="0 0 18 28" fill="none" xmlns="http://www.w3.org/2000/svg">
<g id="Group 1261159936">
<path id="Rectangle 34624255" d="M0.85 4.5C0.85 2.62223 2.37223 1.1 4.25 1.1H13.25C15.1278 1.1 16.65 2.62223 16.65 4.5V23.5C16.65 25.3778 15.1278 26.9 13.25 26.9H4.25C2.37223 26.9 0.85 25.3778 0.85 23.5V4.5Z" stroke="#23B0FF" stroke-width="1.2"/>
<path id="Vector" d="M8.8998 24.7C9.64539 24.7 10.2498 24.0956 10.2498 23.35C10.2498 22.6044 9.64539 22 8.8998 22C8.15422 22 7.5498 22.6044 7.5498 23.35C7.5498 24.0956 8.15422 24.7 8.8998 24.7Z" fill="#23B0FF"/>
<path id="V" d="M8.82425 17.104L11.6323 8.944H13.2523L9.84425 18.736H7.80425L4.38425 8.944H6.00425L8.82425 17.104Z" fill="#23B0FF"/>
<g id="Group 1261159939">
<path id="Vector 385" d="M10.043 4L6.25 4" stroke="#23B0FF" stroke-width="1.2"/>
<path id="Vector_2" d="M11.5 4.75C11.9142 4.75 12.25 4.41421 12.25 4C12.25 3.58579 11.9142 3.25 11.5 3.25C11.0858 3.25 10.75 3.58579 10.75 4C10.75 4.41421 11.0858 4.75 11.5 4.75Z" fill="#23B0FF"/>
</g>
</g>
</svg>
