<svg width="31" height="26" viewBox="0 0 31 26" fill="none" xmlns="http://www.w3.org/2000/svg">
<g id="Group 1261159938">
<path id="Vector" d="M1.5 15.8086L3.38631 25.1068H23.2543L29.0002 15.8086H1.5Z" stroke="#23B0FF" stroke-width="1.2"/>
<path id="Vector_2" d="M3.25391 15.5045V8.55859H18.2096V15.5045" stroke="#23B0FF" stroke-width="1.2"/>
<path id="Vector_3" d="M6.71973 8.13099V0.894531H11.0608V8.13099" stroke="#23B0FF" stroke-width="1.2"/>
<path id="Vector_4" d="M7.57444 11.2031H5.5127V13.2649H7.57444V11.2031Z" fill="#23B0FF"/>
<path id="Vector_5" d="M11.7854 11.2031H9.72363V13.2649H11.7854V11.2031Z" fill="#23B0FF"/>
<path id="Vector_6" d="M15.9953 11.2031H13.9336V13.2649H15.9953V11.2031Z" fill="#23B0FF"/>
<path id="Vector_7" d="M7.57444 19.4258H5.5127V21.4875H7.57444V19.4258Z" fill="#23B0FF"/>
<path id="Vector_8" d="M12.716 19.4258H10.6543V21.4875H12.716V19.4258Z" fill="#23B0FF"/>
<path id="Vector_9" d="M17.8576 19.4258H15.7959V21.4875H17.8576V19.4258Z" fill="#23B0FF"/>
<path id="Vector_10" d="M22.9992 19.4258H20.9375V21.4875H22.9992V19.4258Z" fill="#23B0FF"/>
</g>
</svg>
