<svg width="26" height="26" viewBox="0 0 26 26" fill="none" xmlns="http://www.w3.org/2000/svg">
<g id="Group 1261159935">
<path id="Vector" d="M8.24872 20.0716L9.72078 15.5717L9.83349 15.2272H10.196H14.9501L11.1068 12.4538L10.8106 12.2401L10.9242 11.8929L12.3939 7.39996L8.54132 10.1802L8.24873 10.3913L7.95614 10.1802L4.1034 7.39997L5.57324 11.8929L5.68682 12.2401L5.39061 12.4538L1.54734 15.2272H6.30145H6.66395L6.77667 15.5717L8.24872 20.0716Z" stroke="#23B0FF"/>
<g id="Group 1222">
<path id="Vector_2" d="M18.8191 25.3711L18.621 23.3836L20.4629 22.5823L18.4987 22.1551L18.3006 20.1676L17.2847 21.8912L15.3203 21.4641L16.6567 22.9564L15.6408 24.68L17.4828 23.8788L18.8191 25.3711Z" fill="#23B0FF"/>
<path id="Vector_3" d="M25.3522 19.1456L24.4168 17.3777L25.8206 15.9477L23.8386 16.285L22.9032 14.5171L22.6138 16.4935L20.6318 16.8309L22.4348 17.715L22.1454 19.6914L23.5491 18.2615L25.3522 19.1456Z" fill="#23B0FF"/>
<path id="Vector_4" d="M23.2985 11.5938L23.9846 9.70967L26.0007 9.77573L24.4087 8.54539L25.0949 6.66136L23.4249 7.78495L21.8328 6.55466L22.3927 8.47942L20.7227 9.60302L22.7386 9.66893L23.2985 11.5938Z" fill="#23B0FF"/>
<path id="Vector_5" d="M18.7061 5.86719L18.5967 3.86658L20.4785 3.14508L18.5291 2.63023L18.4197 0.629674L17.3243 2.31205L15.375 1.79714L16.6474 3.35168L15.552 5.034L17.4337 4.31255L18.7061 5.86719Z" fill="#23B0FF"/>
</g>
</g>
</svg>
