<svg width="16" height="16" viewBox="0 0 16 16" fill="none" xmlns="http://www.w3.org/2000/svg">
<g id="Group 1257">
<path id="Vector" d="M8 15C11.866 15 15 11.866 15 8C15 4.13401 11.866 1 8 1C4.13401 1 1 4.13401 1 8C1 11.866 4.13401 15 8 15Z" fill="#EFF6FF" stroke="#9EB7D2"/>
<path id="i" d="M7.2033 12.1211V6.66655H8.71609V12.1211H7.2033ZM7.96325 5.96342C7.73834 5.96342 7.5454 5.88885 7.38441 5.7397C7.22579 5.58819 7.14648 5.40708 7.14648 5.19638C7.14648 4.98804 7.22579 4.8093 7.38441 4.66016C7.5454 4.50864 7.73834 4.43288 7.96325 4.43288C8.18815 4.43288 8.37991 4.50864 8.53853 4.66016C8.69951 4.8093 8.78001 4.98804 8.78001 5.19638C8.78001 5.40708 8.69951 5.58819 8.53853 5.7397C8.37991 5.88885 8.18815 5.96342 7.96325 5.96342Z" fill="#9EB7D2"/>
</g>
</svg>
