<svg width="26" height="26" viewBox="0 0 26 26" fill="none" xmlns="http://www.w3.org/2000/svg">
<path id="icon" d="M15.741 1.5L16.4525 1.26283L16.2816 0.75H15.741V1.5ZM10.5188 1.5V0.75H9.9782L9.80725 1.26283L10.5188 1.5ZM16.8782 4.9117L16.1667 5.14887L16.2707 5.46072L16.5704 5.59563L16.8782 4.9117ZM18.4754 5.83524L18.0363 6.44331L18.3032 6.63601L18.6257 6.57001L18.4754 5.83524ZM21.9998 5.11402L22.6493 4.73902L22.379 4.27087L21.8494 4.37925L21.9998 5.11402ZM24.6109 9.6366L25.172 10.1342L25.5307 9.72974L25.2604 9.2616L24.6109 9.6366ZM22.2244 12.3278L21.6633 11.8302L21.4454 12.0759L21.4782 12.4026L22.2244 12.3278ZM22.2242 14.1741L21.4779 14.0992L21.4451 14.426L21.663 14.6717L22.2242 14.1741ZM24.6092 16.8637L25.2587 17.2387L25.529 16.7706L25.1703 16.3661L24.6092 16.8637ZM21.9981 21.3863L21.8477 22.1211L22.3773 22.2294L22.6476 21.7613L21.9981 21.3863ZM18.474 20.6651L18.6244 19.9304L18.302 19.8644L18.0351 20.057L18.474 20.6651ZM16.8785 21.5876L16.5706 20.9037L16.2709 21.0386L16.1669 21.3504L16.8785 21.5876ZM15.741 25V25.75H16.2816L16.4525 25.2372L15.741 25ZM10.5188 25L9.80725 25.2372L9.9782 25.75H10.5188V25ZM9.38074 21.5859L10.0923 21.3488L9.98837 21.0371L9.68888 20.9021L9.38074 21.5859ZM7.78802 20.6645L8.22701 20.0564L7.96013 19.8637L7.63766 19.9297L7.78802 20.6645ZM4.25929 21.3866L3.60977 21.7616L3.88006 22.2297L4.40965 22.1214L4.25929 21.3866ZM1.64818 16.864L1.08703 16.3664L0.728376 16.7709L0.998661 17.239L1.64818 16.864ZM4.03822 14.1687L4.59937 14.6664L4.81712 14.4208L4.78451 14.0942L4.03822 14.1687ZM4.03797 12.3332L4.78427 12.4075L4.81678 12.0811L4.59912 11.8356L4.03797 12.3332ZM1.64648 9.63629L0.996965 9.26129L0.726681 9.72944L1.08533 10.1339L1.64648 9.63629ZM4.2576 5.11372L4.40796 4.37894L3.87836 4.27057L3.60808 4.73872L4.2576 5.11372ZM7.78667 5.83589L7.63631 6.57066L7.95886 6.63667L8.22578 6.44391L7.78667 5.83589ZM9.38097 4.91338L9.68909 5.59717L9.9886 5.46221L10.0925 5.15055L9.38097 4.91338ZM15.741 0.75H10.5188V2.25H15.741V0.75ZM17.5897 4.67453L16.4525 1.26283L15.0295 1.73717L16.1667 5.14887L17.5897 4.67453ZM18.9144 5.22717C18.3766 4.83885 17.7979 4.50316 17.186 4.22777L16.5704 5.59563C17.089 5.82903 17.5798 6.11371 18.0363 6.44331L18.9144 5.22717ZM21.8494 4.37925L18.325 5.10047L18.6257 6.57001L22.1501 5.84879L21.8494 4.37925ZM25.2604 9.2616L22.6493 4.73902L21.3503 5.48902L23.9614 10.0116L25.2604 9.2616ZM22.7856 12.8254L25.172 10.1342L24.0497 9.13899L21.6633 11.8302L22.7856 12.8254ZM23.0204 13.2497C23.0204 12.9135 23.0036 12.581 22.9707 12.2531L21.4782 12.4026C21.5061 12.681 21.5204 12.9635 21.5204 13.2497H23.0204ZM22.9704 14.2491C23.0035 13.9202 23.0204 13.5868 23.0204 13.2497H21.5204C21.5204 13.5367 21.506 13.82 21.4779 14.0992L22.9704 14.2491ZM25.1703 16.3661L22.7853 13.6765L21.663 14.6717L24.048 17.3613L25.1703 16.3661ZM22.6476 21.7613L25.2587 17.2387L23.9597 16.4887L21.3486 21.0113L22.6476 21.7613ZM18.3237 21.3999L21.8477 22.1211L22.1484 20.6515L18.6244 19.9304L18.3237 21.3999ZM17.1863 22.2715C17.7975 21.9964 18.3756 21.6611 18.9129 21.2733L18.0351 20.057C17.579 20.3862 17.0887 20.6705 16.5706 20.9037L17.1863 22.2715ZM16.4525 25.2372L17.59 21.8248L16.1669 21.3504L15.0295 24.7628L16.4525 25.2372ZM10.5188 25.75H15.741V24.25H10.5188V25.75ZM8.66923 21.8231L9.80725 25.2372L11.2303 24.7628L10.0923 21.3488L8.66923 21.8231ZM7.34902 21.2726C7.88546 21.6599 8.46249 21.9948 9.07261 22.2697L9.68888 20.9021C9.17177 20.6691 8.68234 20.3851 8.22701 20.0564L7.34902 21.2726ZM4.40965 22.1214L7.93838 21.3993L7.63766 19.9297L4.10893 20.6518L4.40965 22.1214ZM0.998661 17.239L3.60977 21.7616L4.90881 21.0116L2.2977 16.489L0.998661 17.239ZM3.47707 13.6711L1.08703 16.3664L2.20933 17.3616L4.59937 14.6664L3.47707 13.6711ZM3.24258 13.2497C3.24258 13.5848 3.25928 13.9163 3.29193 14.2433L4.78451 14.0942C4.75679 13.8167 4.74258 13.535 4.74258 13.2497H3.24258ZM3.29166 12.2589C3.25919 12.585 3.24258 12.9155 3.24258 13.2497H4.74258C4.74258 12.9652 4.75671 12.6843 4.78427 12.4075L3.29166 12.2589ZM1.08533 10.1339L3.47681 12.8308L4.59912 11.8356L2.20764 9.13869L1.08533 10.1339ZM3.60808 4.73872L0.996965 9.26129L2.296 10.0113L4.90711 5.48872L3.60808 4.73872ZM7.93703 5.10111L4.40796 4.37894L4.10723 5.84849L7.63631 6.57066L7.93703 5.10111ZM9.07286 4.2296C8.46209 4.50481 7.88449 4.84011 7.34757 5.22787L8.22578 6.44391C8.68151 6.11478 9.17143 5.83042 9.68909 5.59717L9.07286 4.2296ZM9.80725 1.26283L8.66946 4.67621L10.0925 5.15055L11.2303 1.73717L9.80725 1.26283ZM13.3975 17.2046C15.5815 17.2046 17.352 15.4341 17.352 13.25H15.852C15.852 14.6056 14.7531 15.7046 13.3975 15.7046V17.2046ZM9.44296 13.25C9.44296 15.4341 11.2135 17.2046 13.3975 17.2046V15.7046C12.0419 15.7046 10.943 14.6056 10.943 13.25H9.44296ZM13.3975 9.29548C11.2135 9.29548 9.44296 11.066 9.44296 13.25H10.943C10.943 11.8944 12.0419 10.7955 13.3975 10.7955V9.29548ZM17.352 13.25C17.352 11.066 15.5815 9.29548 13.3975 9.29548V10.7955C14.7531 10.7955 15.852 11.8944 15.852 13.25H17.352Z" fill="white"/>
</svg>
