<svg width="16" height="16" viewBox="0 0 16 16" fill="none" xmlns="http://www.w3.org/2000/svg">
<path id="Subtract" d="M9.59261 1L10.067 0.841886L9.95299 0.5H9.59261V1ZM6.40871 1V0.5H6.04833L5.93436 0.841886L6.40871 1ZM10.2856 3.07885L9.81122 3.23697L9.8805 3.44481L10.0803 3.53477L10.2856 3.07885ZM11.2562 3.63991L10.9637 4.04543L11.1416 4.17373L11.3564 4.12976L11.2562 3.63991ZM13.408 3.19956L13.8411 2.94956L13.6609 2.63747L13.3078 2.70971L13.408 3.19956ZM15 5.95691L15.3741 6.28864L15.6132 6.01901L15.433 5.70691L15 5.95691ZM13.544 7.59882L13.1699 7.26708L13.0247 7.4309L13.0465 7.64875L13.544 7.59882ZM13.544 8.72569L13.0465 8.67571L13.0246 8.89359L13.1699 9.05743L13.544 8.72569ZM15.0002 10.3679L15.4332 10.6179L15.6134 10.3058L15.3743 10.0362L15.0002 10.3679ZM13.4082 13.1252L13.308 13.6151L13.6611 13.6873L13.8413 13.3752L13.4082 13.1252ZM11.2554 12.6847L11.3556 12.1948L11.1408 12.1509L10.9629 12.2791L11.2554 12.6847ZM10.287 13.2445L10.0816 12.7886L9.88189 12.8786L9.81263 13.0864L10.287 13.2445ZM9.59261 15.3276V15.8276H9.95299L10.067 15.4857L9.59261 15.3276ZM6.40871 15.3276L5.93436 15.4857L6.04833 15.8276H6.40871V15.3276ZM5.71447 13.2449L6.18881 13.0868L6.11954 12.8789L5.91981 12.789L5.71447 13.2449ZM4.74028 12.6811L5.03314 12.2758L4.85516 12.1472L4.64004 12.1912L4.74028 12.6811ZM2.59195 13.1207L2.15894 13.3707L2.33913 13.6828L2.69219 13.6105L2.59195 13.1207ZM1 10.3634L0.625898 10.0316L0.386797 10.3013L0.566987 10.6134L1 10.3634ZM2.45618 8.7212L2.83029 9.05293L2.97541 8.88927L2.95372 8.67161L2.45618 8.7212ZM2.45613 7.60332L2.95367 7.65285L2.97534 7.43522L2.83023 7.27158L2.45613 7.60332ZM1.0002 5.96144L0.567185 5.71144L0.386995 6.02354L0.626096 6.29318L1.0002 5.96144ZM2.59215 3.2041L2.69239 2.71425L2.33933 2.642L2.15914 2.9541L2.59215 3.2041ZM4.73945 3.64351L4.63921 4.13336L4.85439 4.17739L5.03238 4.04871L4.73945 3.64351ZM5.71588 3.07848L5.92109 3.53443L6.12092 3.44449L6.19022 3.2366L5.71588 3.07848ZM9.59261 0.5H6.40871V1.5H9.59261V0.5ZM10.7599 2.92074L10.067 0.841886L9.11827 1.15811L9.81122 3.23697L10.7599 2.92074ZM11.5487 3.23439C11.2194 2.99691 10.8653 2.79154 10.4908 2.62294L10.0803 3.53477C10.3927 3.67546 10.6885 3.84695 10.9637 4.04543L11.5487 3.23439ZM13.3078 2.70971L11.1559 3.15006L11.3564 4.12976L13.5083 3.68941L13.3078 2.70971ZM15.433 5.70691L13.8411 2.94956L12.975 3.44956L14.567 6.20691L15.433 5.70691ZM13.9181 7.93055L15.3741 6.28864L14.6259 5.62517L13.1699 7.26708L13.9181 7.93055ZM14.0721 8.16199C14.0721 7.95519 14.0618 7.75065 14.0415 7.54888L13.0465 7.64875C13.0635 7.81739 13.0721 7.9886 13.0721 8.16199H14.0721ZM14.0415 8.77568C14.0618 8.57372 14.0721 8.36899 14.0721 8.16199H13.0721C13.0721 8.33555 13.0634 8.50692 13.0465 8.67571L14.0415 8.77568ZM15.3743 10.0362L13.9181 8.39396L13.1699 9.05743L14.6261 10.6996L15.3743 10.0362ZM13.8413 13.3752L15.4332 10.6179L14.5672 10.1179L12.9752 12.8752L13.8413 13.3752ZM11.1551 13.1745L13.308 13.6151L13.5085 12.6354L11.3556 12.1948L11.1551 13.1745ZM10.4924 13.7004C10.8659 13.532 11.2192 13.3271 11.5478 13.0903L10.9629 12.2791C10.6883 12.4771 10.3933 12.6482 10.0816 12.7886L10.4924 13.7004ZM10.067 15.4857L10.7613 13.4026L9.81263 13.0864L9.11827 15.1695L10.067 15.4857ZM6.40871 15.8276H9.59261V14.8276H6.40871V15.8276ZM5.24013 13.403L5.93436 15.4857L6.88305 15.1695L6.18881 13.0868L5.24013 13.403ZM4.44742 13.0863C4.77776 13.3251 5.13321 13.5314 5.50913 13.7008L5.91981 12.789C5.60611 12.6477 5.30925 12.4753 5.03314 12.2758L4.44742 13.0863ZM2.69219 13.6105L4.84052 13.1709L4.64004 12.1912L2.49171 12.6308L2.69219 13.6105ZM0.566987 10.6134L2.15894 13.3707L3.02497 12.8707L1.43301 10.1134L0.566987 10.6134ZM2.08208 8.38946L0.625898 10.0316L1.3741 10.6951L2.83029 9.05293L2.08208 8.38946ZM1.92847 8.16199C1.92847 8.36732 1.93868 8.57041 1.95865 8.77078L2.95372 8.67161C2.93703 8.50415 2.92847 8.33415 2.92847 8.16199H1.92847ZM1.95859 7.55378C1.93866 7.75396 1.92847 7.95686 1.92847 8.16199H2.92847C2.92847 7.99 2.93702 7.82016 2.95367 7.65285L1.95859 7.55378ZM0.626096 6.29318L2.08203 7.93505L2.83023 7.27158L1.3743 5.62971L0.626096 6.29318ZM2.15914 2.9541L0.567185 5.71144L1.43321 6.21144L3.02516 3.4541L2.15914 2.9541ZM4.83969 3.15366L2.69239 2.71425L2.49191 3.69395L4.63921 4.13336L4.83969 3.15366ZM5.51067 2.62253C5.13384 2.79214 4.77756 2.99898 4.44651 3.23831L5.03238 4.04871C5.30908 3.84868 5.60664 3.67596 5.92109 3.53443L5.51067 2.62253ZM5.93436 0.841886L5.24154 2.92037L6.19022 3.2366L6.88305 1.15811L5.93436 0.841886ZM8.16385 10.6197C9.51902 10.6197 10.6176 9.52111 10.6176 8.16594H9.61761C9.61761 8.96883 8.96674 9.6197 8.16385 9.6197V10.6197ZM5.71009 8.16594C5.71009 9.52111 6.80868 10.6197 8.16385 10.6197V9.6197C7.36096 9.6197 6.71009 8.96883 6.71009 8.16594H5.71009ZM8.16385 5.71218C6.80867 5.71218 5.71009 6.81076 5.71009 8.16594H6.71009C6.71009 7.36305 7.36096 6.71218 8.16385 6.71218V5.71218ZM10.6176 8.16594C10.6176 6.81076 9.51902 5.71218 8.16385 5.71218V6.71218C8.96674 6.71218 9.61761 7.36305 9.61761 8.16594H10.6176Z" fill="white"/>
</svg>
