<svg width="19" height="16" viewBox="0 0 19 16" fill="none" xmlns="http://www.w3.org/2000/svg">
<g id="Group 1261159930">
<path id="Vector" d="M1 8.11468C1 8.11468 3.03149 8.16971 4.87628 5.17652C6.1046 3.18303 7.52422 0.975314 10.936 1.00021C12.4015 1.01135 14.5935 1.35528 15.1045 5.12215C15.1045 5.12215 12.9538 1.98287 10.0896 3.67567C9.10828 4.2561 8.32346 5.14966 9.05259 8.11468" stroke="#23B0FF" stroke-linecap="round"/>
<path id="Vector_2" d="M18.3325 6.49271C18.3325 6.49271 14.3933 10.2439 11.9727 6.89691C11.6235 6.4141 11.1014 5.20411 12.2184 4.52477C12.8473 4.14153 14.1837 3.97644 15.1041 5.12288" stroke="#23B0FF" stroke-linecap="round"/>
<path id="Vector_3" d="M1 11.8249C1.08189 11.9199 2.88344 12.4656 3.89361 10.7734C3.89361 10.7734 5.69123 13.4758 7.69979 10.7734C7.69979 10.7734 9.09321 13.215 11.6252 11.0112C11.6252 11.0112 13.5886 13.2144 15.4674 10.8828C15.4674 10.8828 16.699 12.3857 18.3335 11.8249" stroke="#23B0FF" stroke-linecap="round"/>
<path id="Vector_4" d="M1 15.0983C1.08189 15.1933 2.88344 15.739 3.89361 14.0469C3.89361 14.0469 5.69123 16.7492 7.69979 14.0469C7.69979 14.0469 9.09321 16.4885 11.6252 14.2847C11.6252 14.2847 13.5886 16.4878 15.4674 14.1563C15.4674 14.1563 16.699 15.6591 18.3335 15.0983" stroke="#23B0FF" stroke-linecap="round"/>
</g>
</svg>
