<svg width="20" height="16" viewBox="0 0 20 16" fill="none" xmlns="http://www.w3.org/2000/svg">
<g id="Group 1261159931">
<path id="Vector" d="M9.83364 7.09652C9.49707 6.52694 9.30424 5.86274 9.30424 5.15389C9.30424 3.04343 11.0156 1.33203 13.1261 1.33203C15.2366 1.33203 16.948 3.04343 16.948 5.15389C16.948 7.26435 15.2366 8.97575 13.1261 8.97575H0" stroke="#23B0FF"/>
<path id="Vector_2" d="M3.89328 6.1656C3.83347 5.99954 3.80044 5.81832 3.80044 5.63173C3.80044 4.76934 4.49946 4.07031 5.36185 4.07031C6.22425 4.07031 6.92327 4.76934 6.92327 5.63173C6.92327 6.49413 6.22514 7.19404 5.36185 7.19404H0" stroke="#23B0FF"/>
<path id="Vector_3" d="M14.0662 11.8989C13.9233 12.2069 13.8439 12.5498 13.8439 12.9113C13.8439 14.2433 14.9232 15.3226 16.2552 15.3226C17.5872 15.3226 18.6665 14.2433 18.6665 12.9113C18.6665 11.5793 17.5872 10.5 16.2552 10.5H0" stroke="#23B0FF"/>
<path id="Vector_4" d="M6.33317 12.1562H0" stroke="#23B0FF"/>
</g>
</svg>
