<svg width="136" height="50" viewBox="0 0 136 50" fill="none" xmlns="http://www.w3.org/2000/svg">
<g id="&#236;&#164;&#145;&#234;&#181;&#173; &#237;&#151;&#136;&#234;&#176;&#128; &#236;&#132;&#160;&#235;&#176;&#149; &#235;&#157;&#188;&#235;&#178;&#168;">
<path id="Rectangle 782" d="M0 19.7576C0 8.84577 8.84577 0 19.7576 0H116.242C127.154 0 136 8.84577 136 19.7576V19.7576C136 30.6694 127.154 39.5152 116.242 39.5152H77.9174C77.3221 39.5152 76.7578 39.7803 76.3778 40.2385L68.2833 50L60.1888 40.2385C59.8089 39.7803 59.2445 39.5152 58.6493 39.5152H19.7576C8.84576 39.5152 0 30.6694 0 19.7576V19.7576Z" fill="#30385F" fill-opacity="0.9"/>
<g id="Frame 1073">
<g id="Frame 1139">
<g id="icon">
<circle id="Ellipse 8" cx="22.0664" cy="20" r="13" fill="#8B98C5"/>
<g id="Group 1121">
<path id="icon_2" d="M17.2997 15.6993L18.3284 17.8907C18.4204 18.0868 18.604 18.2241 18.8181 18.257L21.1848 18.6207L19.4513 20.3962C19.3071 20.5438 19.2416 20.7512 19.2748 20.9549L19.6769 23.4196L17.6143 22.279C17.4185 22.1708 17.1809 22.1708 16.9852 22.279L14.9226 23.4196L15.3246 20.9549C15.3578 20.7512 15.2923 20.5438 15.1481 20.3962L13.4146 18.6207L15.7814 18.257C15.9954 18.2241 16.179 18.0868 16.271 17.8907L17.2997 15.6993Z" stroke="white" stroke-width="1.3" stroke-linecap="round" stroke-linejoin="round"/>
<g id="Group 1122">
<path id="icon_3" d="M26.492 11.598L26.3902 13.1581L27.5807 14.0755L26.1077 14.5204L25.5786 16.0049L24.77 14.7198L23.2517 14.7214L24.2251 13.482L23.8156 11.9987L25.2267 12.5163L26.492 11.598Z" fill="white"/>
<path id="icon_4" d="M26.492 24.2244L26.3902 25.7845L27.5807 26.702L26.1077 27.1469L25.5786 28.6313L24.77 27.3462L23.2517 27.3479L24.2251 26.1085L23.8156 24.6252L25.2267 25.1428L26.492 24.2244Z" fill="white"/>
<path id="icon_5" d="M27.681 15.2479L28.7543 16.3847L30.2369 16.1374L29.5597 17.5191L30.2868 18.9174L28.795 18.6346L27.7624 19.7477L27.5174 18.1909L26.1522 17.481L27.4921 16.7998L27.681 15.2479Z" fill="white"/>
<path id="icon_6" d="M28.6927 20.4856L29.3346 21.9111L30.8165 22.1628L29.7243 23.2467L29.9534 24.8059L28.6365 24.0503L27.2964 24.764L27.5746 23.2128L26.5171 22.095L28.0061 21.8901L28.6927 20.4856Z" fill="white"/>
</g>
</g>
</g>
<path id="&#236;&#164;&#145;&#234;&#181;&#173; &#237;&#151;&#136;&#234;&#176;&#128;&#236;&#132;&#160;&#235;&#176;&#149;" d="M42.9984 18.956L42.6344 17.808C45.5184 17.122 46.9464 16.184 47.1004 15.148H43.2924V13.944H52.1124V15.148H48.4724C48.4584 15.512 48.3604 15.862 48.1924 16.184L52.7704 17.808L52.3084 18.956L47.3524 17.192C46.4704 17.92 45.0424 18.508 42.9984 18.956ZM53.8064 19.558V20.776H48.4024V22.078H49.1864C51.2864 22.078 52.4484 23.072 52.4484 24.43C52.4484 25.802 51.2864 26.796 49.1864 26.796H46.2184C44.1184 26.796 42.9564 25.802 42.9564 24.43C42.9564 23.072 44.1184 22.078 46.2184 22.078H47.0164V20.776H41.5984V19.558H53.8064ZM51.0624 24.416C51.0624 23.73 50.3904 23.282 48.9204 23.282H46.4984C45.0284 23.282 44.3564 23.73 44.3564 24.416C44.3564 25.13 45.0284 25.578 46.4984 25.578H48.9204C50.3904 25.578 51.0624 25.13 51.0624 24.416ZM67.0818 18.844V20.076H61.6778V21.938H65.5978V26.796H64.1978V23.17H56.3718V21.938H60.2918V20.076H54.8738V18.844H63.5678C63.7918 17.486 63.9318 16.114 63.9318 15.344H56.3718V14.084H65.3178V14.938C65.3178 16.058 65.1918 17.472 64.9678 18.844H67.0818ZM81.3108 19.908V13.664H82.7108V26.656H81.3108V21.182H78.9448V21.812C78.9448 23.688 77.5448 24.892 75.7528 24.892C73.9468 24.892 72.5468 23.688 72.5468 21.812V21.056C72.5468 19.18 73.9468 17.99 75.7528 17.99C77.1388 17.99 78.3008 18.704 78.7488 19.908H81.3108ZM76.4388 15.582H79.5328V16.828H71.9448V15.582H75.0248V13.678H76.4388V15.582ZM77.5448 21.756V21.112C77.5448 19.95 76.7608 19.25 75.7528 19.25C74.7308 19.25 73.9328 19.95 73.9328 21.112V21.756C73.9328 22.932 74.7308 23.646 75.7528 23.646C76.7608 23.646 77.5448 22.932 77.5448 21.756ZM95.2582 18.55H97.2742V19.824H95.2582V26.656H93.8582V13.664H95.2582V18.55ZM90.0782 15.96H85.3322V14.686H91.4782V15.834C91.4782 19.516 89.4062 22.708 85.9062 25.102L85.0382 23.996C88.3282 21.84 90.0782 18.858 90.0782 16.114V15.96ZM109.262 23.394H107.876V17.766H105.062V16.52H107.876V13.664H109.262V23.394ZM105.44 21.294L102.038 18.564C101.394 19.642 100.414 20.594 99.0556 21.49L98.2716 20.412C100.554 18.886 101.59 17.234 101.59 15.148V14.154H102.962V15.148C102.962 15.932 102.85 16.66 102.612 17.346L106.238 20.244L105.44 21.294ZM102.066 22.582V25.382H109.808V26.656H100.68V22.582H102.066ZM121.809 16.506H123.825V17.794H121.809V21.028H120.409V13.664H121.809V16.506ZM116.615 14.224H117.959V20.384H111.645V14.224H112.989V16.072H116.615V14.224ZM112.989 17.304V19.166H116.615V17.304H112.989ZM120.409 23.114H113.353V21.84H121.809V26.796H120.409V23.114Z" fill="white"/>
</g>
</g>
</g>
</svg>
