<svg width="119" height="50" viewBox="0 0 119 50" fill="none" xmlns="http://www.w3.org/2000/svg">
<g id="&#235;&#185;&#132;&#236;&#160;&#149;&#236;&#131;&#129; &#236;&#160;&#145;&#236;&#180;&#137; &#235;&#157;&#188;&#235;&#178;&#168;">
<path id="Rectangle 782" d="M0 19.7576C0 8.84577 8.84577 0 19.7576 0H99.2424C110.154 0 119 8.84577 119 19.7576V19.7576C119 30.6694 110.154 39.5152 99.2424 39.5152H68.3558C67.758 39.5152 67.1915 39.7826 66.8116 40.2441L58.7812 50L50.7509 40.2441C50.3709 39.7826 49.8045 39.5152 49.2067 39.5152H19.7576C8.84575 39.5152 0 30.6694 0 19.7576V19.7576Z" fill="#30385F" fill-opacity="0.9"/>
<g id="Group 1073">
<g id="Frame 1135">
<g id="icon">
<circle id="Ellipse 8" cx="22" cy="20" r="13" fill="#8B98C5"/>
<path id="warn" d="M21.843 20.1738V16.6377C21.843 16.4814 21.905 16.3315 22.0153 16.221C22.1256 16.1104 22.2751 16.0483 22.4311 16.0483C22.5871 16.0483 22.7367 16.1104 22.847 16.221C22.9573 16.3315 23.0192 16.4814 23.0192 16.6377V20.1738C23.0192 20.3301 22.9573 20.48 22.847 20.5906C22.7367 20.7011 22.5871 20.7632 22.4311 20.7632C22.2751 20.7632 22.1256 20.7011 22.0153 20.5906C21.905 20.48 21.843 20.3301 21.843 20.1738ZM30.4271 25.1819C30.2738 25.4522 30.0513 25.6766 29.7827 25.8321C29.5141 25.9877 29.2089 26.0687 28.8987 26.0668H15.9636C15.6537 26.0668 15.3493 25.985 15.081 25.8297C14.8127 25.6743 14.5899 25.4509 14.4351 25.1819C14.2803 24.9129 14.199 24.6078 14.1992 24.2973C14.1995 23.9868 14.2813 23.6818 14.4366 23.413L20.9041 12.2158C21.0591 11.9475 21.2818 11.7248 21.5498 11.5699C21.8178 11.415 22.1217 11.3335 22.4311 11.3335C22.7405 11.3335 23.0444 11.415 23.3125 11.5699C23.5805 11.7248 23.8031 11.9475 23.9581 12.2158L30.4257 23.413C30.5827 23.6811 30.6656 23.9864 30.6659 24.2973C30.6661 24.6082 30.5837 24.9135 30.4271 25.1819ZM29.4077 24.0035L22.9401 12.8063C22.8885 12.7169 22.8142 12.6426 22.7249 12.591C22.6356 12.5394 22.5342 12.5122 22.4311 12.5122C22.328 12.5122 22.2267 12.5394 22.1373 12.591C22.048 12.6426 21.9738 12.7169 21.9221 12.8063L15.4546 24.0035C15.4028 24.0931 15.3756 24.1947 15.3755 24.2982C15.3754 24.4017 15.4025 24.5034 15.4541 24.5931C15.5057 24.6828 15.58 24.7572 15.6694 24.809C15.7588 24.8608 15.8603 24.8881 15.9636 24.8881H28.8987C29.002 24.8881 29.1034 24.8608 29.1929 24.809C29.2823 24.7572 29.3565 24.6828 29.4081 24.5931C29.4597 24.5034 29.4868 24.4017 29.4868 24.2982C29.4867 24.1947 29.4594 24.0931 29.4077 24.0035ZM22.4311 21.9419C22.2566 21.9419 22.0861 21.9937 21.941 22.0909C21.7959 22.188 21.6829 22.3261 21.6161 22.4876C21.5493 22.6492 21.5319 22.8269 21.5659 22.9984C21.5999 23.1699 21.684 23.3274 21.8073 23.451C21.9307 23.5747 22.0879 23.6589 22.259 23.693C22.4301 23.7271 22.6075 23.7096 22.7687 23.6427C22.9299 23.5757 23.0677 23.4624 23.1646 23.3171C23.2616 23.1717 23.3133 23.0008 23.3133 22.8259C23.313 22.5915 23.22 22.3668 23.0546 22.2011C22.8892 22.0354 22.665 21.9421 22.4311 21.9419Z" fill="white" stroke="white" stroke-width="0.2"/>
</g>
<path id="&#235;&#185;&#132;&#236;&#160;&#149;&#236;&#131;&#129;&#236;&#160;&#145;&#236;&#180;&#137;" d="M51.276 26.656V13.664H52.662V26.656H51.276ZM43.548 18.13H47.23V14.49H48.602V24.556H42.162V14.49H43.548V18.13ZM43.548 19.39V23.282H47.23V19.39H43.548ZM62.0034 17.682V16.478H64.5374V13.664H65.9374V20.748H64.5374V17.682H62.0034ZM62.2694 20.678L58.7414 18.354C58.0834 19.292 57.0334 20.118 55.6054 20.888L54.9474 19.768C57.1874 18.508 58.2654 17.248 58.2654 15.526H55.4654V14.28H62.4654V15.526H59.6234C59.6234 16.142 59.5254 16.702 59.3294 17.234L62.9694 19.53L62.2694 20.678ZM60.1694 21.434H62.9974C64.9014 21.434 66.1054 22.554 66.1054 24.108C66.1054 25.676 64.9014 26.796 62.9974 26.796H60.1694C58.2794 26.796 57.0754 25.676 57.0754 24.108C57.0754 22.554 58.2794 21.434 60.1694 21.434ZM60.3934 25.536H62.7874C64.0754 25.536 64.7054 24.934 64.7054 24.108C64.7054 23.282 64.0754 22.68 62.7874 22.68H60.3934C59.1054 22.68 58.4614 23.282 58.4614 24.108C58.4614 24.934 59.1054 25.536 60.3934 25.536ZM78.4848 13.664V16.38H80.5008V17.654H78.4848V20.748H77.0848V13.664H78.4848ZM75.0408 20.44L71.5828 18.074C70.9388 19.054 69.9308 19.922 68.5588 20.72L67.8168 19.6C70.1128 18.256 71.1488 16.772 71.1488 14.938V14.084H72.5068V14.938C72.5068 15.638 72.3948 16.296 72.1848 16.898L75.7968 19.348L75.0408 20.44ZM72.9548 21.434H75.6988C77.5888 21.434 78.7788 22.554 78.7788 24.108C78.7788 25.676 77.5888 26.796 75.6988 26.796H72.9548C71.0928 26.796 69.8888 25.676 69.8888 24.108C69.8888 22.554 71.0928 21.434 72.9548 21.434ZM73.1928 25.536H75.4748C76.7488 25.536 77.3788 24.934 77.3788 24.108C77.3788 23.282 76.7488 22.68 75.4748 22.68H73.1928C71.9188 22.68 71.2748 23.282 71.2748 24.108C71.2748 24.934 71.9188 25.536 73.1928 25.536ZM91.0882 16.282V13.664H92.4882V20.426H91.0882V17.472H88.5402V16.282H91.0882ZM88.8482 20.468L85.2922 18.242C84.6342 19.152 83.5842 19.95 82.1422 20.678L81.4982 19.544C83.7382 18.368 84.8022 17.15 84.8162 15.512H82.0162V14.28H89.0162V15.512H86.1742C86.1742 16.086 86.0762 16.632 85.8942 17.122L89.5202 19.32L88.8482 20.468ZM85.2782 22.596H91.0882V21.098H92.4882V26.656H83.8922V21.098H85.2782V22.596ZM85.2782 23.828V25.41H91.0882V23.828H85.2782ZM95.9776 19.67L95.5716 18.494C98.5536 17.808 99.9536 16.926 100.122 15.89H96.2576V14.644H100.108V13.454H101.48V14.644H105.218V15.89H101.452C101.424 16.212 101.354 16.52 101.228 16.8L105.89 18.522L105.414 19.67L100.458 17.822C99.6036 18.578 98.1476 19.166 95.9776 19.67ZM101.438 19.236V20.636H106.842V21.798H94.6336V20.636H100.052V19.236H101.438ZM103.958 24.22H96.1316V23.016H105.358V26.796H103.958V24.22Z" fill="white"/>
</g>
</g>
</g>
</svg>
