<svg width="96" height="50" viewBox="0 0 96 50" fill="none" xmlns="http://www.w3.org/2000/svg">
<g id="&#234;&#180;&#128;&#234;&#179;&#181;&#236;&#132;&#160; &#235;&#157;&#188;&#235;&#178;&#168;">
<path id="Rectangle 782" d="M0 19.7576C0 8.84577 8.84577 0 19.7576 0H76.2424C87.1542 0 96 8.84577 96 19.7576V19.7576C96 30.6694 87.1542 39.5152 76.2424 39.5152H57.9433C57.3491 39.5152 56.7857 39.7794 56.4057 40.2362L48.2842 50L40.1627 40.2362C39.7827 39.7794 39.2193 39.5152 38.6251 39.5152H19.7576C8.84576 39.5152 0 30.6694 0 19.7576V19.7576Z" fill="#30385F" fill-opacity="0.9"/>
<g id="Frame 1073">
<g id="icon">
<circle id="Ellipse 8" cx="22.0957" cy="20" r="13" fill="#8B98C5"/>
<g id="Group 965">
<path id="Vector (Stroke)" fill-rule="evenodd" clip-rule="evenodd" d="M21.7839 12.1765C22.0423 11.9412 22.4384 11.9411 22.6969 12.1764C23.4489 12.8096 24.301 13.3008 25.2117 13.6343L25.212 13.6344C26.1268 13.9697 27.1014 14.1444 28.0926 14.1444C28.4674 14.1444 28.7713 14.4483 28.7713 14.8231V20.4506C28.7713 24.3856 26.1894 27.8439 22.437 28.9713C22.3098 29.0095 22.1742 29.0096 22.0469 28.9714C18.2927 27.8465 15.7109 24.3867 15.7109 20.4519V14.8243C15.7109 14.4495 16.0148 14.1457 16.3896 14.1457C18.3636 14.1457 20.2752 13.4481 21.7839 12.1765ZM22.2406 13.5474C20.7391 14.6778 18.9414 15.3483 17.0682 15.4792V20.4519C17.0682 23.7183 19.1673 26.5976 22.2415 27.61C25.315 26.5954 27.414 23.7169 27.414 20.4506V15.4781C26.4977 15.4143 25.5993 15.2219 24.7451 14.9088C23.8522 14.5819 23.0077 14.1244 22.2406 13.5474Z" fill="white"/>
<path id="Vector (Stroke)_2" fill-rule="evenodd" clip-rule="evenodd" d="M24.5628 17.8494C24.8118 17.5693 25.2407 17.544 25.5208 17.793C25.801 18.0419 25.8263 18.4709 25.5773 18.751L25.07 18.3002L24.5628 17.8494ZM21.868 23.0153C21.8875 22.9897 21.9166 22.9526 21.9568 22.9031C22.0552 22.7816 22.1993 22.61 22.3767 22.4021C22.7303 21.9877 23.2033 21.4444 23.6784 20.9025C24.1529 20.3611 24.6277 19.8232 24.9839 19.4205C25.162 19.2192 25.3104 19.0517 25.4143 18.9347C25.4662 18.8761 25.507 18.8302 25.5348 18.7989L25.5773 18.751C25.5773 18.751 25.5773 18.751 25.07 18.3002C24.5628 17.8494 24.5628 17.8494 24.5628 17.8494L24.5199 17.8977C24.4919 17.9292 24.451 17.9753 24.3989 18.034C24.2947 18.1515 24.1459 18.3194 23.9674 18.5212C23.6104 18.9248 23.1342 19.4643 22.6578 20.0078C22.1818 20.5508 21.7039 21.0997 21.3442 21.5211C21.3131 21.5576 21.2827 21.5933 21.2533 21.628C21.1359 21.4759 21.0078 21.3079 20.8786 21.1373C20.6479 20.8328 20.4169 20.5241 20.2434 20.2914C20.1567 20.175 20.0844 20.0778 20.0339 20.0097C20.0086 19.9757 19.9888 19.9489 19.9753 19.9307L19.9548 19.903C19.9548 19.903 19.9547 19.9029 19.4091 20.3064L19.9548 19.903C19.732 19.6017 19.307 19.538 19.0056 19.7608C18.7043 19.9837 18.6407 20.4086 18.8635 20.71L19.4091 20.3064C18.8635 20.71 18.8635 20.7099 18.8635 20.71L18.8847 20.7385C18.8984 20.7571 18.9184 20.7841 18.944 20.8185C18.995 20.8873 19.0678 20.9853 19.1552 21.1025C19.3298 21.3368 19.5631 21.6485 19.7966 21.9568C20.0294 22.2641 20.2655 22.5722 20.4449 22.7976C20.5331 22.9084 20.6149 23.0085 20.6783 23.0801C20.705 23.1102 20.7497 23.1597 20.7987 23.2026C20.7988 23.2027 20.799 23.2029 20.7994 23.2032C20.8082 23.2112 20.8974 23.2924 21.0289 23.3402C21.0812 23.3592 21.3561 23.4545 21.6374 23.2697C21.7511 23.1949 21.8228 23.1035 21.868 23.0153ZM21.9447 22.6989C21.9447 22.7637 21.9352 22.8182 21.926 22.8564C21.9431 22.7829 21.9447 22.7244 21.9447 22.6989Z" fill="white"/>
</g>
</g>
<path id="&#234;&#180;&#128;&#234;&#179;&#181;&#236;&#132;&#160;" d="M52.1557 13.664V17.598H54.0457V18.872H52.1557V23.674H50.7557V13.664H52.1557ZM48.3617 19.32L47.0317 19.152C47.2697 17.808 47.4237 16.422 47.4237 15.526H42.2717V14.322H48.7817V14.994C48.7817 16.422 48.6137 17.934 48.3617 19.32ZM49.6777 20.118L49.8317 21.35C47.8857 21.63 45.4077 21.784 43.5597 21.784H41.5017L41.4317 20.51H43.6717H44.0917V17.43H45.4917V20.468C46.8217 20.398 48.3617 20.286 49.6777 20.118ZM43.6997 23.128H45.0997V25.382H52.8417V26.656H43.6997V23.128ZM65.0391 18.536L63.6671 18.382C63.8911 17.234 64.0171 16.016 64.0311 15.344H56.4711V14.084H65.4171V14.798C65.4171 15.862 65.2911 17.248 65.0391 18.536ZM61.1611 16.828V19.278H67.1111V20.51H54.9031V19.278H59.7751V16.828H61.1611ZM59.5511 21.812H62.4771C64.5771 21.812 65.7531 22.89 65.7531 24.29C65.7531 25.718 64.5771 26.796 62.4771 26.796H59.5511C57.4371 26.796 56.2611 25.718 56.2611 24.29C56.2611 22.89 57.4371 21.812 59.5511 21.812ZM59.8591 25.592H62.1691C63.6671 25.592 64.3671 25.074 64.3671 24.29C64.3671 23.52 63.6671 23.002 62.1691 23.002H59.8591C58.3611 23.002 57.6611 23.52 57.6611 24.29C57.6611 25.074 58.3611 25.592 59.8591 25.592ZM79.3085 23.394H77.9225V17.766H75.1085V16.52H77.9225V13.664H79.3085V23.394ZM75.4865 21.294L72.0845 18.564C71.4405 19.642 70.4605 20.594 69.1025 21.49L68.3185 20.412C70.6005 18.886 71.6365 17.234 71.6365 15.148V14.154H73.0085V15.148C73.0085 15.932 72.8965 16.66 72.6585 17.346L76.2845 20.244L75.4865 21.294ZM72.1125 22.582V25.382H79.8545V26.656H70.7265V22.582H72.1125Z" fill="white"/>
</g>
</g>
</svg>
