<svg width="106" height="50" viewBox="0 0 106 50" fill="none" xmlns="http://www.w3.org/2000/svg">
<g id="&#236;&#139;&#160;&#237;&#152;&#184;&#236;&#134;&#140;&#236;&#139;&#164; &#235;&#157;&#188;&#235;&#178;&#168;">
<path id="Rectangle 782" d="M0 19.7576C0 8.84577 8.84577 0 19.7576 0H86.2424C97.1542 0 106 8.84577 106 19.7576V19.7576C106 30.6694 97.1542 39.5152 86.2424 39.5152H62.935C62.3405 39.5152 61.7767 39.7797 61.3968 40.2369L53.2839 50L45.1711 40.2369C44.7911 39.7797 44.2274 39.5152 43.6329 39.5152H19.7576C8.84577 39.5152 0 30.6694 0 19.7576V19.7576Z" fill="#30385F" fill-opacity="0.9"/>
<g id="Group 1073">
<g id="Frame 1137">
<g id="icon">
<circle id="Ellipse 8" cx="22.0859" cy="20" r="13" fill="#8B98C5"/>
<g id="Group 1131">
<path id="Vector" d="M13.0859 18.3759C13.0859 18.3759 21.7424 9.43321 31.0859 18.3759" stroke="white" stroke-width="1.3"/>
<path id="Vector_2" d="M16.2539 21.5567C16.2539 21.5567 21.6709 15.7096 27.9197 21.5567" stroke="white" stroke-width="1.3"/>
<path id="Vector_3" d="M19.0762 24.4229C19.0762 24.4229 22.2295 21.6998 25.0957 24.4229" stroke="white" stroke-width="1.3"/>
<path id="Vector_4" d="M22.087 27.6332C22.5697 27.6332 22.9611 27.2418 22.9611 26.7591C22.9611 26.2764 22.5697 25.885 22.087 25.885C21.6042 25.885 21.2129 26.2764 21.2129 26.7591C21.2129 27.2418 21.6042 27.6332 22.087 27.6332Z" fill="white"/>
<path id="Vector_5" d="M14.9785 13.6321L27.0736 26.5728" stroke="white" stroke-width="1.3"/>
</g>
</g>
<path id="&#236;&#139;&#160;&#237;&#152;&#184;&#236;&#134;&#140;&#236;&#139;&#164;" d="M52.1803 13.664H53.5663V23.394H52.1803V13.664ZM50.0383 21.224L46.4543 18.55C45.7823 19.628 44.7603 20.58 43.3463 21.49L42.5763 20.398C44.9563 18.872 46.0203 17.234 46.0203 15.162V14.154H47.3923V15.162C47.3923 15.932 47.2803 16.66 47.0423 17.332L50.8223 20.16L50.0383 21.224ZM46.3703 22.582V25.382H54.1123V26.656H44.9843V22.582H46.3703ZM62.5297 15.274H66.9537V16.478H56.6497V15.274H61.1437V13.79H62.5297V15.274ZM62.5157 22.498V24.388H67.9197V25.662H55.7117V24.388H61.1297V22.498H60.2757C58.4417 22.498 57.2797 21.448 57.2797 20.006C57.2797 18.55 58.4417 17.514 60.2757 17.514H63.3417C65.1757 17.514 66.3377 18.55 66.3377 20.006C66.3377 21.448 65.1757 22.498 63.3417 22.498H62.5157ZM58.6797 20.006C58.6797 20.734 59.2957 21.294 60.5557 21.294H63.0477C64.3077 21.294 64.9237 20.734 64.9237 20.006C64.9237 19.278 64.3077 18.718 63.0477 18.718H60.5557C59.2957 18.718 58.6797 19.278 58.6797 20.006ZM79.8091 21.63L74.8251 18.34C73.9431 19.53 72.4591 20.636 70.2471 21.63L69.6171 20.426C73.0471 18.844 74.4611 17.178 74.4611 15.316V14.336H75.8611V15.316C75.8611 15.96 75.7491 16.576 75.4971 17.178L80.5651 20.468L79.8091 21.63ZM75.7911 21.224V24.402H81.1951V25.676H68.9871V24.402H74.4051V21.224H75.7911ZM92.0065 13.664H93.3925V20.006H92.0065V13.664ZM89.9485 19.866L86.2665 17.71C85.5805 18.62 84.5165 19.404 83.0885 20.132L82.4025 18.984C84.7825 17.78 85.8465 16.45 85.8465 14.784V14.042H87.2325V14.784C87.2325 15.428 87.1205 16.016 86.9105 16.562L90.6345 18.732L89.9485 19.866ZM86.1965 24.304V25.536H93.8685V26.726H84.7965V23.156H92.0065V21.98H84.7405V20.818H93.3925V24.304H86.1965Z" fill="white"/>
</g>
</g>
</g>
</svg>
