<svg width="124" height="50" viewBox="0 0 124 50" fill="none" xmlns="http://www.w3.org/2000/svg">
<g id="MMSI &#235;&#179;&#128;&#236;&#161;&#176; &#235;&#157;&#188;&#235;&#178;&#168;">
<path id="Rectangle 782" d="M0 19.7576C0 8.84577 8.84577 0 19.7576 0H104.242C115.154 0 124 8.84577 124 19.7576V19.7576C124 30.6694 115.154 39.5152 104.242 39.5152H70.9153C70.3203 39.5152 69.7561 39.7801 69.3762 40.238L61.2754 50L53.1746 40.238C52.7947 39.7801 52.2306 39.5152 51.6355 39.5152H19.7576C8.84576 39.5152 0 30.6694 0 19.7576V19.7576Z" fill="#30385F" fill-opacity="0.9"/>
<g id="Group 1073">
<g id="Frame 1138">
<g id="icon">
<circle id="Ellipse 8" cx="22.0742" cy="20" r="13" fill="#8B98C5"/>
<path id="Vector" d="M12.0742 20.2836C12.0742 20.2836 14.4729 11.0976 17.0469 20.4213C17.3826 21.6365 19.5188 30.0866 22.0742 20.4213C22.3933 19.2164 24.3671 11.0641 27.0469 20.4902C27.0469 20.4902 29.2572 30.0642 32.0742 20.6158" stroke="white" stroke-width="1.3"/>
</g>
<path id="MMSI &#235;&#179;&#128;&#236;&#161;&#176;" d="M44.3201 25.9H42.9341V14.56H44.7541L48.8141 24.332L52.8601 14.56H54.6801V25.9H53.2941V16.842L49.5281 25.9H48.0721L44.3201 16.856V25.9ZM58.1014 25.9H56.7154V14.56H58.5354L62.5954 24.332L66.6414 14.56H68.4614V25.9H67.0754V16.842L63.3094 25.9H61.8534L58.1014 16.856V25.9ZM69.9366 23.17L71.1406 22.61C71.7146 24.038 72.9466 24.836 74.5566 24.836C76.1526 24.836 77.2306 24.178 77.2306 23.016C77.2306 21.882 76.4326 21.392 75.2846 21.07L73.5906 20.594C72.0926 20.16 70.5526 19.32 70.5526 17.43C70.5526 15.526 72.2186 14.35 74.3606 14.35C76.4746 14.35 77.9446 15.54 78.5466 17.08L77.3426 17.654C76.8246 16.436 75.8166 15.624 74.3606 15.624C72.9046 15.624 71.9526 16.31 71.9526 17.43C71.9526 18.564 72.8346 19.026 73.8986 19.334L75.5646 19.81C77.0766 20.23 78.6166 21.084 78.6166 23.016C78.6166 24.948 76.8386 26.11 74.5566 26.11C72.3026 26.11 70.6226 25.032 69.9366 23.17ZM81.7147 25.9H80.3147V14.56H81.7147V25.9ZM96.5123 19.418H93.7823V21.056H87.4123V14.28H88.7563V16.422H92.4383V14.28H93.7823V15.498H96.5123V13.664H97.9123V23.394H96.5123V19.418ZM96.5123 18.284V16.632H93.7823V18.284H96.5123ZM88.7563 17.64V19.824H92.4383V17.64H88.7563ZM90.7163 22.652V25.382H98.4583V26.656H89.3163V22.652H90.7163ZM101.416 21.84L100.8 20.622C104.076 19.166 105.532 17.64 105.532 15.96V15.806H101.542V14.532H110.768V15.806H106.918V15.96C106.918 16.534 106.82 17.08 106.596 17.612L111.496 20.664L110.768 21.84L105.91 18.774C105.042 19.894 103.572 20.916 101.416 21.84ZM106.848 21.49V24.402H112.252V25.69H100.044V24.402H105.462V21.49H106.848Z" fill="white"/>
</g>
</g>
</g>
</svg>
