<svg width="120" height="50" viewBox="0 0 120 50" fill="none" xmlns="http://www.w3.org/2000/svg">
<g id="&#235;&#185;&#132;&#237;&#151;&#136;&#234;&#176;&#128;&#236;&#132;&#160;&#235;&#176;&#149; &#235;&#157;&#188;&#235;&#178;&#168;">
<path id="Rectangle 782" d="M0 19.7576C0 8.84577 8.84576 0 19.7576 0H100.242C111.154 0 120 8.84577 120 19.7576V19.7576C120 30.6694 111.154 39.5152 100.242 39.5152H68.9173C68.3223 39.5152 67.7583 39.78 67.3783 40.2378L59.2752 50L51.1721 40.2378C50.7921 39.78 50.2281 39.5152 49.6332 39.5152H19.7576C8.84577 39.5152 0 30.6694 0 19.7576V19.7576Z" fill="#30385F" fill-opacity="0.9"/>
<g id="Group 1073">
<g id="Frame 1136">
<g id="icon">
<circle id="Ellipse 8" cx="22.0742" cy="20" r="13" fill="#8B98C5"/>
<g id="Group 1130">
<g id="Group 1090">
<path id="Vector 327" d="M27.0742 15L17.0742 25" stroke="white" stroke-width="1.3"/>
<circle id="Ellipse 256" cx="22.0742" cy="20" r="7.35" stroke="white" stroke-width="1.3"/>
</g>
</g>
</g>
<path id="&#235;&#185;&#132;&#237;&#151;&#136;&#234;&#176;&#128;&#236;&#132;&#160;&#235;&#176;&#149;" d="M52.1823 26.656V13.664H53.5683V26.656H52.1823ZM44.4543 18.13H48.1363V14.49H49.5083V24.556H43.0683V14.49H44.4543V18.13ZM44.4543 19.39V23.282H48.1363V19.39H44.4543ZM65.4436 19.908V13.664H66.8436V26.656H65.4436V21.182H63.0776V21.812C63.0776 23.688 61.6776 24.892 59.8856 24.892C58.0796 24.892 56.6796 23.688 56.6796 21.812V21.056C56.6796 19.18 58.0796 17.99 59.8856 17.99C61.2716 17.99 62.4336 18.704 62.8816 19.908H65.4436ZM60.5716 15.582H63.6656V16.828H56.0776V15.582H59.1576V13.678H60.5716V15.582ZM61.6776 21.756V21.112C61.6776 19.95 60.8936 19.25 59.8856 19.25C58.8636 19.25 58.0656 19.95 58.0656 21.112V21.756C58.0656 22.932 58.8636 23.646 59.8856 23.646C60.8936 23.646 61.6776 22.932 61.6776 21.756ZM79.391 18.55H81.407V19.824H79.391V26.656H77.991V13.664H79.391V18.55ZM74.211 15.96H69.465V14.686H75.611V15.834C75.611 19.516 73.539 22.708 70.039 25.102L69.171 23.996C72.461 21.84 74.211 18.858 74.211 16.114V15.96ZM93.3944 23.394H92.0084V17.766H89.1944V16.52H92.0084V13.664H93.3944V23.394ZM89.5724 21.294L86.1704 18.564C85.5264 19.642 84.5464 20.594 83.1884 21.49L82.4044 20.412C84.6864 18.886 85.7224 17.234 85.7224 15.148V14.154H87.0944V15.148C87.0944 15.932 86.9824 16.66 86.7444 17.346L90.3704 20.244L89.5724 21.294ZM86.1984 22.582V25.382H93.9404V26.656H84.8124V22.582H86.1984ZM105.942 16.506H107.958V17.794H105.942V21.028H104.542V13.664H105.942V16.506ZM100.748 14.224H102.092V20.384H95.7778V14.224H97.1218V16.072H100.748V14.224ZM97.1218 17.304V19.166H100.748V17.304H97.1218ZM104.542 23.114H97.4858V21.84H105.942V26.796H104.542V23.114Z" fill="white"/>
</g>
</g>
</g>
</svg>
