<svg width="75" height="58" viewBox="0 0 75 58" fill="none" xmlns="http://www.w3.org/2000/svg">
<g id="icon">
<path id="Vector" d="M12.2519 56.1809C12.2519 56.1809 1.01612 54.2653 1 43.0725C0.997316 39.1795 3.16817 32.9436 12.2519 32.2827C12.2519 32.2827 13.2164 19.2012 27.8482 18.8009C32.7649 18.6638 41.5934 20.2006 42.7943 32.2827C42.7943 32.2827 57.3482 31.7427 57.7485 43.9537C57.8936 48.2632 56.4616 55.3776 45.61 56.1809H12.2519Z" stroke="#23B0FF" stroke-width="2"/>
<path id="Vector_2" d="M35.6582 19.5853C38.1192 15.9287 42.9929 13.1211 47.7403 13.1211C55.3141 13.1211 61.4559 19.2602 61.4559 26.8367C61.4559 30.8775 59.4704 34.9693 56.6978 37.4787" stroke="#23B0FF" stroke-width="2"/>
<path id="Vector_3" d="M27.8828 8.49219L34.0783 13.9032" stroke="#23B0FF" stroke-width="2"/>
<path id="Vector_4" d="M61.459 13.1212L68.0763 7.09766" stroke="#23B0FF" stroke-width="2"/>
<path id="Vector_5" d="M68.0759 46.8404L61.8213 41.0586" stroke="#23B0FF" stroke-width="2"/>
<path id="Vector_6" d="M47.4902 9.13667V0.152344" stroke="#23B0FF" stroke-width="2"/>
<path id="Vector_7" d="M66.502 27.2109H75" stroke="#23B0FF" stroke-width="2"/>
</g>
</svg>
