<svg width="24" height="24" viewBox="0 0 24 24" fill="none" xmlns="http://www.w3.org/2000/svg">
<g id="&#237;&#149;&#173;&#234;&#179;&#181;&#234;&#184;&#176;">
<g id="icon">
<path id="Vector" d="M9.68019 9.56745L9.92958 9.42361L9.93039 9.13572L9.94116 5.26802C9.94253 4.77599 10.1499 4.05039 10.5027 3.44817C10.6767 3.15125 10.8718 2.90927 11.069 2.74697C11.2659 2.58495 11.4375 2.52342 11.5808 2.52382C11.724 2.52422 11.8953 2.5867 12.0913 2.74982C12.2876 2.91322 12.4814 3.15627 12.6537 3.45415C13.0032 4.05833 13.2065 4.78508 13.2051 5.27711L13.1943 9.1448L13.1935 9.43269L13.4421 9.57791L19.5594 13.1518C19.5594 13.1519 19.5594 13.1519 19.5595 13.1519C19.5694 13.1578 19.5791 13.1713 19.5791 13.1897L19.5729 15.4063C19.5729 15.4166 19.5707 15.4231 19.5683 15.4276C19.5657 15.4328 19.5617 15.4377 19.5567 15.4414C19.5517 15.4452 19.5472 15.4469 19.5442 15.4475C19.5421 15.4479 19.5388 15.4483 19.5326 15.4465L13.8208 13.7713L13.182 13.584L13.1801 14.2497L13.1704 17.7306L13.1697 17.9782L13.3663 18.1289L15.281 19.5962L15.2812 19.5963C15.2896 19.6027 15.2972 19.6152 15.2971 19.6316L15.2934 20.985C15.2933 20.995 15.2912 21.0015 15.2889 21.0061C15.2863 21.0114 15.2824 21.0162 15.2776 21.02C15.2728 21.0238 15.2685 21.0255 15.2656 21.0261C15.264 21.0265 15.2618 21.0268 15.2584 21.0263L11.6742 19.9543L11.5324 19.9119L11.3903 19.9535L7.80022 21.0056C7.79678 21.006 7.79462 21.0057 7.79303 21.0053C7.79012 21.0047 7.78579 21.0029 7.78105 20.9991C7.7763 20.9953 7.77241 20.9905 7.76981 20.9852C7.76752 20.9805 7.76543 20.974 7.76546 20.964L7.76923 19.6107C7.76927 19.5944 7.77706 19.5817 7.78539 19.5754L7.78555 19.5753L9.7084 18.1187L9.90579 17.9692L9.90648 17.7215L9.91617 14.2406L9.91803 13.5749L9.27814 13.7587L3.55683 15.402L3.55682 15.402C3.55057 15.4038 3.54733 15.4034 3.54527 15.403C3.54235 15.4024 3.53793 15.4007 3.53303 15.3969C3.52813 15.3932 3.52415 15.3883 3.52152 15.3831C3.51923 15.3785 3.51704 15.3719 3.51707 15.3616L3.52324 13.145L3.52324 13.145C3.52327 13.1361 3.52563 13.1278 3.52952 13.121L3.09597 12.8719L3.52952 13.121C3.53335 13.1143 3.53827 13.1098 3.54302 13.107C3.54306 13.107 3.5431 13.1069 3.54314 13.1069L9.68019 9.56745Z" stroke="#13B9A5"/>
</g>
</g>
</svg>
