<svg width="24" height="24" viewBox="0 0 24 24" fill="none" xmlns="http://www.w3.org/2000/svg">
<g id="&#236;&#164;&#145;&#234;&#181;&#173;">
<g id="icon">
<path id="icon_2" d="M7.05886 6.35585L8.47844 9.37994C8.54922 9.53073 8.69045 9.63636 8.85509 9.66167L12.0806 10.1574L9.73054 12.5643C9.61963 12.6779 9.56925 12.8374 9.59481 12.9941L10.144 16.361L7.30082 14.7888C7.15026 14.7055 6.96746 14.7055 6.8169 14.7888L3.97375 16.361L4.52291 12.9941C4.54847 12.8374 4.49809 12.6779 4.38718 12.5643L2.0371 10.1574L5.26263 9.66167C5.42727 9.63636 5.5685 9.53073 5.63929 9.37994L7.05886 6.35585Z" stroke="#B0002D" stroke-linecap="round" stroke-linejoin="round"/>
<g id="Group 1122">
<path id="icon_3" d="M17.702 2.20245L17.5842 4.00864L18.9626 5.07084L17.2571 5.58588L16.6446 7.30455L15.7085 5.81673L13.9506 5.81862L15.0776 4.38368L14.6034 2.66643L16.2372 3.26568L17.702 2.20245Z" fill="#B0002D"/>
<path id="icon_4" d="M17.702 16.8201L17.5842 18.6263L18.9626 19.6885L17.2571 20.2036L16.6446 21.9222L15.7085 20.4344L13.9506 20.4363L15.0776 19.0014L14.6034 17.2841L16.2372 17.8834L17.702 16.8201Z" fill="#B0002D"/>
<path id="icon_5" d="M19.0793 6.42755L20.322 7.74366L22.0384 7.45734L21.2545 9.05707L22.0962 10.6759L20.3691 10.3485L19.1736 11.6372L18.89 9.83485L17.3094 9.01289L18.8607 8.22433L19.0793 6.42755Z" fill="#B0002D"/>
<path id="icon_6" d="M20.2515 12.4914L20.9947 14.1418L22.7104 14.4332L21.4458 15.6881L21.7111 17.4933L20.1864 16.6185L18.6349 17.4448L18.957 15.6489L17.7327 14.3548L19.4566 14.1175L20.2515 12.4914Z" fill="#B0002D"/>
</g>
</g>
</g>
</svg>
