<svg width="24" height="24" viewBox="0 0 24 24" fill="none" xmlns="http://www.w3.org/2000/svg">
<g id="&#236;&#164;&#145;&#234;&#181;&#173;&#237;&#151;&#136;&#234;&#176;&#128;">
<g id="icon">
<g id="Group 1121">
<path id="icon_2" d="M5.4226 11.2274L6.33657 13.1744C6.40736 13.3252 6.54858 13.4309 6.71323 13.4562L8.8081 13.7781L7.27615 15.3472C7.16524 15.4607 7.11486 15.6203 7.14042 15.7769L7.4965 17.9601L5.66456 16.947C5.514 16.8638 5.3312 16.8638 5.18064 16.947L3.3487 17.9601L3.70478 15.7769C3.73034 15.6203 3.67996 15.4607 3.56905 15.3472L2.0371 13.7781L4.13197 13.4562C4.29662 13.4309 4.43784 13.3252 4.50863 13.1744L5.4226 11.2274Z" stroke="#B0002D" stroke-linecap="round" stroke-linejoin="round"/>
<g id="Group 1122">
<path id="icon_3" d="M13.1906 7.87754L13.1045 9.19595L14.1107 9.97129L12.8658 10.3472L12.4187 11.6018L11.7354 10.5157L10.4523 10.5171L11.2749 9.4697L10.9288 8.21622L12.1213 8.65363L13.1906 7.87754Z" fill="#B0002D"/>
<path id="icon_4" d="M13.1906 18.5479L13.1045 19.8664L14.1107 20.6417L12.8658 21.0176L12.4187 22.2722L11.7354 21.1862L10.4523 21.1875L11.2749 20.1401L10.9288 18.8866L12.1213 19.324L13.1906 18.5479Z" fill="#B0002D"/>
<path id="icon_5" d="M14.1957 10.9621L15.1027 11.9227L16.3556 11.7137L15.7834 12.8815L16.3978 14.0631L15.1371 13.8241L14.2645 14.7648L14.0574 13.4492L12.9037 12.8492L14.0361 12.2736L14.1957 10.9621Z" fill="#B0002D"/>
<path id="icon_6" d="M15.0511 15.3883L15.5936 16.593L16.8459 16.8057L15.9228 17.7217L16.1165 19.0394L15.0036 18.4008L13.8711 19.004L14.1062 17.693L13.2125 16.7484L14.4709 16.5753L15.0511 15.3883Z" fill="#B0002D"/>
</g>
</g>
<g id="Group 1126">
<path id="Vector (Stroke)" fill-rule="evenodd" clip-rule="evenodd" d="M18.2151 2.09347C18.3519 1.96887 18.5616 1.96884 18.6984 2.09338C19.0966 2.42863 19.5477 2.68867 20.0298 2.8652L20.03 2.86525C20.5143 3.04279 21.0303 3.13529 21.555 3.13529C21.7534 3.13529 21.9143 3.29614 21.9143 3.49456V6.47387C21.9143 8.55708 20.5474 10.3879 18.5608 10.9848C18.4935 11.005 18.4217 11.0051 18.3543 10.9849C16.3668 10.3893 15 8.55765 15 6.47452V3.49521C15 3.29679 15.1608 3.13594 15.3593 3.13594C16.4044 3.13594 17.4164 2.76665 18.2151 2.09347ZM18.4569 2.81919C17.6619 3.41765 16.7102 3.77263 15.7185 3.84194V6.47452C15.7185 8.20381 16.8298 9.72815 18.4573 10.2641C20.0845 9.72697 21.1957 8.20308 21.1957 6.47387V3.84135C20.7106 3.80759 20.235 3.70571 19.7828 3.53994C19.3101 3.36687 18.863 3.12469 18.4569 2.81919Z" fill="#B0002D"/>
<path id="Vector (Stroke)_2" fill-rule="evenodd" clip-rule="evenodd" d="M19.6863 5.09669C19.8181 4.94837 20.0452 4.935 20.1935 5.0668C20.3418 5.19861 20.3552 5.4257 20.2234 5.57401L19.9549 5.33535L19.6863 5.09669ZM18.2597 7.83158C18.27 7.81802 18.2854 7.7984 18.3067 7.77217C18.3588 7.70784 18.4351 7.61698 18.529 7.50695C18.7162 7.28757 18.9666 6.99989 19.2181 6.71301C19.4694 6.4264 19.7207 6.14162 19.9093 5.92844C20.0036 5.82186 20.0821 5.73322 20.1371 5.67123C20.1646 5.64024 20.1862 5.61592 20.2009 5.59935L20.2234 5.57401C20.2234 5.57399 20.2234 5.57401 19.9549 5.33535C19.6863 5.09669 19.6864 5.09667 19.6863 5.09669L19.6636 5.12227C19.6488 5.13893 19.6271 5.16335 19.5996 5.19444C19.5444 5.25662 19.4656 5.3455 19.3711 5.45234C19.1821 5.66599 18.93 5.95164 18.6778 6.23936C18.4258 6.52682 18.1728 6.81741 17.9824 7.04054C17.9659 7.05986 17.9498 7.07874 17.9342 7.09711C17.8721 7.01662 17.8043 6.92767 17.7359 6.83736C17.6137 6.67612 17.4914 6.51272 17.3996 6.38948C17.3537 6.3279 17.3154 6.27643 17.2887 6.24038C17.2753 6.22235 17.2648 6.20819 17.2577 6.19854L17.2468 6.1839C17.2468 6.18389 17.2468 6.18385 16.9579 6.39747L17.2468 6.1839C17.1288 6.02437 16.9038 5.99064 16.7443 6.10862C16.5848 6.2266 16.5511 6.45157 16.6691 6.6111L16.9579 6.39747C16.6691 6.6111 16.6691 6.61109 16.6691 6.6111L16.6803 6.62623C16.6875 6.63603 16.6981 6.65036 16.7117 6.66856C16.7387 6.70496 16.7772 6.75685 16.8235 6.81891C16.916 6.94296 17.0394 7.10796 17.1631 7.2712C17.2863 7.43387 17.4113 7.597 17.5063 7.71634C17.553 7.77497 17.5963 7.828 17.6298 7.86586C17.644 7.88183 17.6676 7.90803 17.6936 7.93071C17.6936 7.93076 17.6938 7.93087 17.6939 7.93103C17.6986 7.9353 17.7458 7.97828 17.8155 8.0036C17.8431 8.01365 17.9887 8.06409 18.1376 7.96623C18.1978 7.92667 18.2358 7.87826 18.2597 7.83158ZM18.3003 7.66406C18.3003 7.69837 18.2953 7.72722 18.2904 7.74745C18.2995 7.70854 18.3003 7.67754 18.3003 7.66406Z" fill="#B0002D"/>
</g>
</g>
</g>
</svg>
