<svg width="24" height="24" viewBox="0 0 24 24" fill="none" xmlns="http://www.w3.org/2000/svg">
<g id="icon">
<rect id="Rectangle 543" width="24" height="24" fill="#8B98C5"/>
<path id="ETC" d="M3.12128 11.986V15.121H7.69728V16.1H2.02128V7.19H7.58728V8.169H3.12128V10.996H7.37828V11.986H3.12128ZM7.96816 7.19H15.0412V8.202H12.0602V16.1H10.9492V8.202H7.96816V7.19ZM18.7918 16.265C16.7458 16.265 15.0408 14.868 15.0408 12.448V10.842C15.0408 8.422 16.7348 7.025 18.7918 7.025C20.6068 7.025 21.8828 8.092 22.3118 9.83L21.2668 10.127C20.9148 8.774 20.1118 8.048 18.7918 8.048C17.3288 8.048 16.1408 9.027 16.1408 10.919V12.371C16.1408 14.274 17.3288 15.242 18.7918 15.242C20.1118 15.242 20.9148 14.516 21.2668 13.163L22.3118 13.46C21.8828 15.209 20.6068 16.265 18.7918 16.265Z" fill="white"/>
</g>
</svg>
