<svg width="24" height="24" viewBox="0 0 24 24" fill="none" xmlns="http://www.w3.org/2000/svg">
<g id="&#236;&#150;&#180;&#236;&#132;&#160;">
<g id="icon">
<path id="Vector" d="M3.01465 16.083C3.06701 17.9118 3.3718 19.9827 4.65737 17.622" stroke="#197419"/>
<path id="Vector_2" d="M8.74718 14.057V5C8.74718 5 1.09173 6.42207 3.04019 14.0579" stroke="#197419"/>
<path id="Vector_3" d="M2.99386 16.0839C3.54276 16.0839 3.98772 15.6389 3.98772 15.0901C3.98772 14.5412 3.54276 14.0962 2.99386 14.0962C2.44497 14.0962 2 14.5412 2 15.0901C2 15.6389 2.44497 16.0839 2.99386 16.0839Z" stroke="#197419"/>
<path id="Vector_4" d="M20.9406 19.3749H6.77969L5.84473 14.0569H21.8755L20.9406 19.3749Z" stroke="#197419"/>
<path id="Vector_5" d="M11.8379 13.9401L14.5072 10.5312H21.2071V13.9401" stroke="#197419"/>
<path id="Vector_6" d="M6.38965 16.7161H21.6996" stroke="#197419"/>
</g>
</g>
</svg>
