<svg width="24" height="24" viewBox="0 0 24 24" fill="none" xmlns="http://www.w3.org/2000/svg">
<g id="&#236;&#156;&#132;&#237;&#151;&#152;&#235;&#172;&#188;">
<g id="icon">
<g id="&#236;&#156;&#132;&#237;&#151;&#152;&#235;&#172;&#188; 1" clip-path="url(#clip0_1441_45311)">
<path id="Vector" d="M11.9999 21.701C17.3577 21.701 21.701 17.3577 21.701 11.9999C21.701 6.64215 17.3577 2.29883 11.9999 2.29883C6.64215 2.29883 2.29883 6.64215 2.29883 11.9999C2.29883 17.3577 6.64215 21.701 11.9999 21.701Z" stroke="#FF0000"/>
<path id="Vector_2" d="M8.06543 5.04435L11.0822 10.3152C11.0822 10.3152 11.9998 9.8211 13.0191 10.3152L16.0542 5.04435C16.0542 5.04435 12.2729 2.69951 8.06543 5.04435Z" stroke="#FF0000"/>
<path id="Vector_3" d="M19.9868 12.0356L13.9148 12.0411C13.9148 12.0411 13.9918 12.9596 12.9541 13.7241L16.0259 18.9739C16.0259 18.9739 19.9382 16.8536 19.9868 12.0356Z" stroke="#FF0000"/>
<path id="Vector_4" d="M4.01172 12.0356L10.0837 12.0411C10.0837 12.0411 10.1195 13.1906 11.0444 13.7241L7.97264 18.973C7.97264 18.973 4.06122 16.8536 4.01172 12.0356Z" stroke="#FF0000"/>
<path id="Vector_5" d="M11.9996 12.8423C12.4649 12.8423 12.8421 12.4651 12.8421 11.9999C12.8421 11.5346 12.4649 11.1575 11.9996 11.1575C11.5344 11.1575 11.1572 11.5346 11.1572 11.9999C11.1572 12.4651 11.5344 12.8423 11.9996 12.8423Z" fill="#FF0000"/>
</g>
</g>
</g>
<defs>
<clipPath id="clip0_1441_45311">
<rect width="22" height="22" fill="white" transform="translate(1 1)"/>
</clipPath>
</defs>
</svg>
