<svg width="24" height="24" viewBox="0 0 24 24" fill="none" xmlns="http://www.w3.org/2000/svg">
<g id="&#236;&#157;&#188;&#235;&#179;&#184;&#236;&#132;&#160;&#235;&#176;&#149;">
<g id="icon">
<g id="Group 1117">
<g id="Group 1118">
<path id="Vector" d="M2 15.6121V17.9981C2 17.9981 2.1595 20.4369 3.62281 20.5482H16.4894L19.8509 17.2645C19.8509 17.2645 20.3869 16.2491 19.4262 16.0664H2" stroke="#DE2910"/>
<path id="Vector_2" d="M3.12012 16.0666L5.09067 12.5891H13.5145L16.4123 16.0666" stroke="#DE2910"/>
<path id="Vector_3" d="M7.06152 12.5891V10H8.91617L10.4231 12.3572" stroke="#DE2910"/>
</g>
<path id="Vector_4" d="M16.1763 7.792C17.1544 7.792 17.9473 6.9991 17.9473 6.021C17.9473 5.0429 17.1544 4.25 16.1763 4.25C15.1982 4.25 14.4053 5.0429 14.4053 6.021C14.4053 6.9991 15.1982 7.792 16.1763 7.792Z" fill="#DE2910"/>
<path id="Vector_5" d="M21.351 3H11V9.043H21.351V3Z" stroke="#DE2910"/>
</g>
</g>
</g>
</svg>
