<svg width="24" height="24" viewBox="0 0 24 24" fill="none" xmlns="http://www.w3.org/2000/svg">
<g id="&#237;&#149;&#168;&#236;&#160;&#149;&#235;&#160;&#136;&#236;&#157;&#180;&#235;&#141;&#148;">
<g id="icon">
<rect id="Rectangle 543" width="24" height="24" fill="#8B98C5"/>
<g id="Group 1108">
<path id="Vector" d="M4.33106 16.7109C3.48749 15.3409 3.00098 13.7276 3.00098 11.9996C3.00098 7.02935 7.03033 3 12.0006 3V10.6497" stroke="white"/>
<path id="Vector_2" d="M17.3416 4.75562C19.5613 6.39498 20.9999 9.02909 20.9999 12.0003C20.9999 16.9714 16.9706 20.9999 12.0004 20.9999C9.76242 20.9999 7.71473 20.1832 6.13965 18.8305" stroke="white"/>
<path id="Vector_3" d="M15.3253 15.6736C14.4461 16.4694 13.2802 16.9551 12.0005 16.9551C9.26387 16.9551 7.0459 14.7371 7.0459 12.0005C7.0459 9.26387 9.26387 7.0459 12.0005 7.0459" stroke="white"/>
<path id="Vector_4" d="M15.1523 8.17603C16.2539 9.08476 16.955 10.46 16.955 11.9995C16.955 12.3704 16.9142 12.7318 16.8369 13.0785" stroke="white"/>
<path id="Vector_5" d="M6.65377 17.7516C6.65377 18.523 6.02912 19.1468 5.25852 19.1468C4.48793 19.1468 3.86328 18.5221 3.86328 17.7516C3.86328 17.3371 4.04399 16.9662 4.33068 16.7108C4.57741 16.491 4.90233 16.3572 5.25852 16.3572C6.02912 16.3572 6.65377 16.9818 6.65377 17.7516Z" stroke="white"/>
<path id="Vector_6" d="M16.2781 15.8911C17.0486 15.8911 17.6733 15.2664 17.6733 14.4958C17.6733 13.7253 17.0486 13.1006 16.2781 13.1006C15.5075 13.1006 14.8828 13.7253 14.8828 14.4958C14.8828 15.2664 15.5075 15.8911 16.2781 15.8911Z" stroke="white"/>
<path id="Vector_7" d="M12.0007 13.3947C12.7713 13.3947 13.396 12.7701 13.396 11.9995C13.396 11.2289 12.7713 10.6042 12.0007 10.6042C11.2301 10.6042 10.6055 11.2289 10.6055 11.9995C10.6055 12.7701 11.2301 13.3947 12.0007 13.3947Z" stroke="white"/>
</g>
</g>
</g>
</svg>
