<svg width="24" height="24" viewBox="0 0 24 24" fill="none" xmlns="http://www.w3.org/2000/svg">
<g id="&#236;&#151;&#172;&#234;&#176;&#157;&#236;&#132;&#160;">
<g id="icon">
<g id="Group 966">
<path id="Vector" d="M21.5899 13.753H20.1652L18.8089 10.413C18.7459 10.2578 18.5952 10.1564 18.4281 10.1564H16.2307L14.974 7.06213C14.911 6.90687 14.7603 6.80549 14.5931 6.80549H13.0469L12.4176 5.25653C12.3327 5.04647 12.0925 4.9451 11.8825 5.03003C11.6724 5.11497 11.571 5.35517 11.656 5.56523L12.1592 6.80458H9.78186C9.60377 6.80458 9.44577 6.91874 9.39097 7.08861L8.93889 8.47957H5.5478C5.36971 8.47957 5.21171 8.59465 5.15691 8.76361L4.70483 10.1546H4.26644C4.08835 10.1546 3.93035 10.2687 3.87555 10.4386L2.79968 13.7511H2.41061C2.28549 13.7511 2.16676 13.8087 2.08913 13.9064C2.0115 14.0041 1.98228 14.1329 2.01059 14.2553C2.04529 14.406 2.87092 17.9578 3.18692 18.7569C3.24902 18.914 3.40063 19.0163 3.56868 19.0163C3.84267 19.0163 16.6608 19.0209 17.513 19.0163C17.6362 19.0163 17.7532 18.9597 17.8308 18.8629C18.3623 18.2026 19.1468 17.7158 19.9058 17.2454C20.7926 16.6956 21.631 16.176 21.9653 15.4143C21.9881 15.3622 22 15.3056 22 15.249V14.163C22 13.9356 21.8164 13.7521 21.589 13.7521L21.5899 13.753ZM5.84736 9.30337H9.23845C9.41654 9.30337 9.57454 9.1892 9.62934 9.01933L10.0814 7.62837H14.3164L15.343 10.1573H5.56972L5.84736 9.30428V9.30337ZM4.56509 10.9793H18.1504L18.618 12.13H13.7785C13.5511 12.13 13.3675 12.3136 13.3675 12.541C13.3675 12.7684 13.5511 12.952 13.7785 12.952H18.9523L19.2774 13.7539H9.10785L9.51701 12.4954C9.58733 12.2798 9.4686 12.0478 9.25306 11.9775C9.03752 11.9072 8.80555 12.0259 8.73522 12.2415L8.24387 13.7539H7.33056L7.73972 12.4954C7.81005 12.2798 7.69132 12.0478 7.47578 11.9775C7.26024 11.9072 7.02826 12.0259 6.95794 12.2415L6.46658 13.7539H5.55328L5.96244 12.4954C6.03276 12.2798 5.91404 12.0478 5.6985 11.9775C5.48296 11.9072 5.25098 12.0259 5.18066 12.2415L4.6893 13.7539H3.66549L4.56692 10.9793H4.56509ZM21.1789 15.1567C20.915 15.6545 20.2136 16.0892 19.4729 16.5486C18.7459 16.9998 17.9276 17.5066 17.3184 18.1971C16.4362 18.2007 4.20616 18.1971 3.86094 18.1971C3.61708 17.4226 3.18327 15.6508 2.92846 14.5759H21.178V15.1576L21.1789 15.1567Z" fill="#B02A2A"/>
<path id="Vector_2" d="M12.5867 8.48145H11.4022C11.1748 8.48145 10.9912 8.66502 10.9912 8.89243C10.9912 9.11984 11.1748 9.30342 11.4022 9.30342H12.5867C12.8142 9.30342 12.9977 9.11984 12.9977 8.89243C12.9977 8.66502 12.8142 8.48145 12.5867 8.48145Z" fill="#B02A2A"/>
<path id="Vector_3" d="M17.165 15.469H16.5038C16.2763 15.469 16.0928 15.6526 16.0928 15.88C16.0928 16.1074 16.2763 16.291 16.5038 16.291H17.165C17.3924 16.291 17.576 16.1074 17.576 15.88C17.576 15.6526 17.3924 15.469 17.165 15.469Z" fill="#B02A2A"/>
</g>
</g>
</g>
</svg>
