<svg width="18" height="18" viewBox="0 0 18 18" fill="none" xmlns="http://www.w3.org/2000/svg">
<path d="M9 12.6L12.6 9L9 5.4L7.74 6.66L9.18 8.1H5.4V9.9H9.18L7.74 11.34L9 12.6ZM9 18C7.755 18 6.585 17.7638 5.49 17.2913C4.395 16.8188 3.4425 16.1775 2.6325 15.3675C1.8225 14.5575 1.18125 13.605 0.70875 12.51C0.23625 11.415 0 10.245 0 9C0 7.755 0.23625 6.585 0.70875 5.49C1.18125 4.395 1.8225 3.4425 2.6325 2.6325C3.4425 1.8225 4.395 1.18125 5.49 0.70875C6.585 0.23625 7.755 0 9 0C10.245 0 11.415 0.23625 12.51 0.70875C13.605 1.18125 14.5575 1.8225 15.3675 2.6325C16.1775 3.4425 16.8188 4.395 17.2913 5.49C17.7638 6.585 18 7.755 18 9C18 10.245 17.7638 11.415 17.2913 12.51C16.8188 13.605 16.1775 14.5575 15.3675 15.3675C14.5575 16.1775 13.605 16.8188 12.51 17.2913C11.415 17.7638 10.245 18 9 18ZM9 16.2C11.01 16.2 12.7125 15.5025 14.1075 14.1075C15.5025 12.7125 16.2 11.01 16.2 9C16.2 6.99 15.5025 5.2875 14.1075 3.8925C12.7125 2.4975 11.01 1.8 9 1.8C6.99 1.8 5.2875 2.4975 3.8925 3.8925C2.4975 5.2875 1.8 6.99 1.8 9C1.8 11.01 2.4975 12.7125 3.8925 14.1075C5.2875 15.5025 6.99 16.2 9 16.2Z" fill="#11154B"/>
</svg>
