<svg width="18" height="18" viewBox="0 0 18 18" fill="none" xmlns="http://www.w3.org/2000/svg">
<path d="M2.7 18C1.95 18 1.3125 17.7375 0.7875 17.2125C0.2625 16.6875 0 16.05 0 15.3C0 14.715 0.16875 14.1938 0.50625 13.7363C0.84375 13.2788 1.275 12.9525 1.8 12.7575V5.2425C1.275 5.0475 0.84375 4.72125 0.50625 4.26375C0.16875 3.80625 0 3.285 0 2.7C0 1.95 0.2625 1.3125 0.7875 0.7875C1.3125 0.2625 1.95 0 2.7 0C3.285 0 3.80625 0.16875 4.26375 0.50625C4.72125 0.84375 5.0475 1.275 5.2425 1.8H12.7575C12.9375 1.275 13.2563 0.84375 13.7138 0.50625C14.1713 0.16875 14.7 0 15.3 0C16.05 0 16.6875 0.2625 17.2125 0.7875C17.7375 1.3125 18 1.95 18 2.7C18 3.3 17.8313 3.82875 17.4938 4.28625C17.1562 4.74375 16.725 5.0625 16.2 5.2425V12.7575C16.725 12.9525 17.1562 13.2788 17.4938 13.7363C17.8313 14.1938 18 14.715 18 15.3C18 16.05 17.7375 16.6875 17.2125 17.2125C16.6875 17.7375 16.05 18 15.3 18C14.715 18 14.1938 17.8313 13.7363 17.4938C13.2788 17.1562 12.9525 16.725 12.7575 16.2H5.2425C5.0475 16.725 4.72125 17.1562 4.26375 17.4938C3.80625 17.8313 3.285 18 2.7 18ZM2.7 3.6C2.955 3.6 3.16875 3.51375 3.34125 3.34125C3.51375 3.16875 3.6 2.955 3.6 2.7C3.6 2.445 3.51375 2.23125 3.34125 2.05875C3.16875 1.88625 2.955 1.8 2.7 1.8C2.445 1.8 2.23125 1.88625 2.05875 2.05875C1.88625 2.23125 1.8 2.445 1.8 2.7C1.8 2.955 1.88625 3.16875 2.05875 3.34125C2.23125 3.51375 2.445 3.6 2.7 3.6ZM15.3 3.6C15.555 3.6 15.7688 3.51375 15.9413 3.34125C16.1138 3.16875 16.2 2.955 16.2 2.7C16.2 2.445 16.1138 2.23125 15.9413 2.05875C15.7688 1.88625 15.555 1.8 15.3 1.8C15.045 1.8 14.8313 1.88625 14.6588 2.05875C14.4863 2.23125 14.4 2.445 14.4 2.7C14.4 2.955 14.4863 3.16875 14.6588 3.34125C14.8313 3.51375 15.045 3.6 15.3 3.6ZM5.2425 14.4H12.7575C12.8925 14.01 13.1025 13.6725 13.3875 13.3875C13.6725 13.1025 14.01 12.8925 14.4 12.7575V5.2425C14.01 5.1075 13.6725 4.8975 13.3875 4.6125C13.1025 4.3275 12.8925 3.99 12.7575 3.6H5.2425C5.1075 3.99 4.8975 4.3275 4.6125 4.6125C4.3275 4.8975 3.99 5.1075 3.6 5.2425V12.7575C3.99 12.8925 4.3275 13.1025 4.6125 13.3875C4.8975 13.6725 5.1075 14.01 5.2425 14.4ZM15.3 16.2C15.555 16.2 15.7688 16.1138 15.9413 15.9413C16.1138 15.7688 16.2 15.555 16.2 15.3C16.2 15.045 16.1138 14.8313 15.9413 14.6588C15.7688 14.4863 15.555 14.4 15.3 14.4C15.045 14.4 14.8313 14.4863 14.6588 14.6588C14.4863 14.8313 14.4 15.045 14.4 15.3C14.4 15.555 14.4863 15.7688 14.6588 15.9413C14.8313 16.1138 15.045 16.2 15.3 16.2ZM2.7 16.2C2.955 16.2 3.16875 16.1138 3.34125 15.9413C3.51375 15.7688 3.6 15.555 3.6 15.3C3.6 15.045 3.51375 14.8313 3.34125 14.6588C3.16875 14.4863 2.955 14.4 2.7 14.4C2.445 14.4 2.23125 14.4863 2.05875 14.6588C1.88625 14.8313 1.8 15.045 1.8 15.3C1.8 15.555 1.88625 15.7688 2.05875 15.9413C2.23125 16.1138 2.445 16.2 2.7 16.2Z" fill="#11154B"/>
</svg>
