<?xml version="1.0" encoding="UTF-8"?>
<svg width="381" height="36" viewBox="0 0 381 36" fill="none" xmlns="http://www.w3.org/2000/svg">
<g clip-path="url(#clip0_966_147890)">
<path d="M8.69006 25.0968L12.0287 16.7269L9.72003 11.3786C8.63623 8.66966 6.01563 6.89355 3.10341 6.89355H0.685471C0.306609 6.89355 0 7.20094 0 7.58076C0 7.86423 0.173172 8.11493 0.429693 8.2194L0.434913 8.22153L0.440177 8.22355C1.31143 8.55721 1.87764 9.22136 2.43152 10.2306L8.69006 25.0968Z" fill="#009EDB"/>
<path fill-rule="evenodd" clip-rule="evenodd" d="M35.8054 0H33.4247C30.5157 0.00193786 27.8982 1.77639 26.8135 4.48113L19.26 21.2865C18.4853 22.9428 17.8785 23.9857 16.6993 24.4368C16.4257 24.5405 16.2578 24.802 16.2578 25.0801C16.2578 25.4599 16.5644 25.7673 16.9433 25.7673L19.3254 25.7673L19.3269 25.7673C22.23 25.7596 24.8398 23.9871 25.9225 21.2863L33.3906 4.69538C34.2134 2.9197 34.8177 1.80223 36.0496 1.33038C36.323 1.22661 36.4908 0.965247 36.4908 0.687201C36.4908 0.307381 36.1842 0 35.8054 0Z" fill="white"/>
<path d="M22.6114 6.17587C19.7025 6.17781 17.085 7.95216 16.0003 10.6568L11.9084 19.7396C11.9051 19.7467 11.9021 19.7539 11.8992 19.7612L9.79625 25.0291C9.73005 25.195 9.75022 25.3829 9.8501 25.5308C9.94998 25.6788 10.1166 25.7674 10.2947 25.7674H11.68L11.684 25.7674C14.5083 25.746 17.0456 24.0557 18.168 21.4677L24.4211 6.97323C24.4304 6.95613 24.4389 6.9384 24.4465 6.92009C24.5296 6.71893 24.4836 6.48739 24.33 6.33346L24.3282 6.33167C24.2161 6.21928 24.0609 6.16303 23.9048 6.17587L22.6114 6.17587Z" fill="white"/>
<path d="M52.4343 9.56869H50.4191C50.3367 9.56869 50.2705 9.63508 50.2705 9.71761C50.2705 9.77862 50.3081 9.83424 50.3654 9.85756C51.62 10.3366 51.7488 11.3952 51.7578 12.7714V20.7541C51.7578 23.2248 53.7569 25.229 56.2214 25.229H56.8979V14.0418C56.8979 11.5711 54.8988 9.56689 52.4343 9.56689V9.56869Z" fill="white"/>
<path d="M49.5509 9.5686H47.5357C46.8574 9.5686 46.2184 9.7247 45.6421 9.99564C45.0658 9.7247 44.4269 9.5686 43.7486 9.5686H41.7316C41.6492 9.5686 41.583 9.63499 41.583 9.71753C41.583 9.77853 41.6206 9.83415 41.6779 9.85748C42.9325 10.3365 43.0613 11.3952 43.0703 12.7714V20.754C43.0703 21.7193 43.3799 22.6111 43.8989 23.3431C44.2623 23.8545 44.7276 24.2833 45.2681 24.6045C45.9339 24.9992 46.7052 25.2289 47.5339 25.2289H48.2104V12.7714C48.2194 11.3952 48.3482 10.3383 49.6028 9.85748C49.6601 9.83595 49.6977 9.78033 49.6977 9.71753C49.6977 9.63499 49.6315 9.5686 49.5492 9.5686H49.5509Z" fill="white"/>
<path d="M64.3145 12.7716C64.3234 11.3954 64.4523 10.3386 65.7069 9.85772C65.7641 9.83619 65.8017 9.78057 65.8017 9.71777C65.8017 9.63524 65.7355 9.56885 65.6532 9.56885H63.6379C61.1735 9.56885 59.1743 11.573 59.1743 14.0437V20.756C59.1743 23.2267 61.1735 25.2309 63.6379 25.2309H65.6532C65.7355 25.2309 65.8017 25.1645 65.8017 25.082C65.8017 25.021 65.7641 24.9654 65.7069 24.942C64.4523 24.463 64.3234 23.4026 64.3145 22.0264V12.7734V12.7716Z" fill="white"/>
<path d="M65.7087 34.2918C64.4541 33.8128 64.3252 32.7541 64.3162 31.378V30.0681C64.3162 27.5974 62.3171 25.5933 59.8526 25.5933H58.3761C58.2938 25.5933 58.2275 25.6596 58.2275 25.7422C58.2275 25.8032 58.2651 25.8588 58.3224 25.8821C59.577 26.3612 59.7059 27.4198 59.7148 28.796V30.104C59.7148 32.5747 61.714 34.5789 64.1784 34.5789H65.655C65.7373 34.5789 65.8035 34.5125 65.8035 34.43C65.8035 34.369 65.7659 34.3134 65.7087 34.29V34.2918Z" fill="white"/>
<path d="M68.5364 9.56885H66.5211C66.4388 9.56885 66.3726 9.63524 66.3726 9.71777C66.3726 9.77878 66.4101 9.8344 66.4674 9.85772C67.722 10.3368 67.8509 11.3954 67.8598 12.7716V31.3763C67.8509 32.7525 67.722 33.8111 66.4674 34.2901C66.4101 34.3117 66.3726 34.3673 66.3726 34.4301C66.3726 34.5126 66.4388 34.579 66.5211 34.579H68.5364C71.0008 34.579 73 32.5748 73 30.1041V14.0437C73 11.573 71.0008 9.56885 68.5364 9.56885Z" fill="white"/>
<path d="M40.0291 9.56885H37.9924C35.528 9.56885 33.5288 11.573 33.5288 14.0437V25.2309H34.2268C36.6913 25.2309 38.6904 23.2267 38.6904 20.756V12.7249C38.703 11.3721 38.8426 10.3332 40.0828 9.85772C40.1401 9.83619 40.1777 9.78057 40.1777 9.71777C40.1777 9.63524 40.1115 9.56885 40.0291 9.56885Z" fill="white"/>
<path d="M36.9702 8.08312C38.4091 8.08312 39.7836 6.91326 40.036 5.46889C40.2901 4.0263 39.3291 2.85645 37.8883 2.85645C36.4476 2.85645 35.0748 4.0263 34.8225 5.47068C34.5683 6.91326 35.5294 8.08491 36.9702 8.08491V8.08312Z" fill="white"/>
</g>
<path d="M89.3907 22.672C90.5907 22.672 91.4547 21.712 91.4547 20.056C91.4547 18.4 90.5907 17.416 89.3907 17.416C88.1907 17.416 87.3267 18.4 87.3267 20.056C87.3267 21.712 88.1907 22.672 89.3907 22.672ZM89.3907 14.776C92.2227 14.776 94.2387 16.96 94.2387 20.056C94.2387 23.128 92.2227 25.312 89.3907 25.312C86.5587 25.312 84.5427 23.128 84.5427 20.056C84.5427 16.96 86.5587 14.776 89.3907 14.776ZM90.9507 8.56V11.296H94.6227V13.816H84.0627V11.296H87.8307V8.56H90.9507ZM100.047 7.936H103.047V30.04H100.047V19.504H98.3667V29.128H95.4147V8.368H98.3667V16.96H100.047V7.936ZM109.429 14.536C109.429 16.216 110.653 17.224 112.333 17.224C113.989 17.224 115.237 16.216 115.237 14.536C115.237 12.832 113.989 11.824 112.333 11.824C110.653 11.824 109.429 12.832 109.429 14.536ZM118.309 14.536C118.309 17.632 115.717 19.888 112.333 19.888C108.925 19.888 106.333 17.632 106.333 14.536C106.333 11.392 108.925 9.16 112.333 9.16C115.717 9.16 118.309 11.392 118.309 14.536ZM116.341 27.592C119.149 27.592 120.661 26.992 120.661 25.696C120.661 24.424 119.149 23.8 116.341 23.8C113.509 23.8 111.997 24.424 111.997 25.696C111.997 26.992 113.509 27.592 116.341 27.592ZM116.341 21.328C120.901 21.328 123.805 22.96 123.805 25.696C123.805 28.456 120.901 30.088 116.341 30.088C111.757 30.088 108.853 28.456 108.853 25.696C108.853 22.96 111.757 21.328 116.341 21.328ZM126.397 13.264H123.565V15.472H126.397V18.064H123.565V20.848H120.397V7.96H123.565V10.672H126.397V13.264ZM141.083 9.76V12.016H128.531V9.76H133.235V7.864H136.403V9.76H141.083ZM132.419 16.024C132.419 16.864 133.331 17.32 134.819 17.32C136.307 17.32 137.195 16.864 137.195 16.024C137.195 15.16 136.307 14.704 134.819 14.704C133.331 14.704 132.419 15.16 132.419 16.024ZM141.635 19.936L141.875 22.096C137.291 22.96 132.083 23.056 128.315 23.08L127.979 20.656C129.539 20.656 131.339 20.656 133.235 20.584V19.312C130.883 18.952 129.419 17.752 129.419 16.024C129.419 13.888 131.555 12.592 134.819 12.592C138.059 12.592 140.195 13.888 140.195 16.024C140.195 17.752 138.731 18.952 136.403 19.312V20.44C138.203 20.32 139.955 20.176 141.635 19.936ZM134.219 24.136V27.16H146.507V29.68H131.051V24.136H134.219ZM145.763 15.184H148.547V17.776H145.763V25.216H142.595V7.936H145.763V15.184ZM165.633 13.984H161.049C159.681 17.464 156.585 19.84 151.713 21.208L150.489 18.712C155.529 17.368 157.953 14.992 158.361 11.992H151.689V9.448H161.817C161.817 10.144 161.769 10.816 161.673 11.464H165.633V7.96H168.801V20.68H165.633V18.568H160.761V16.024H165.633V13.984ZM161.505 27.496C164.217 27.496 165.825 26.8 165.825 25.456C165.825 24.112 164.217 23.416 161.505 23.416C158.769 23.416 157.161 24.112 157.161 25.456C157.161 26.8 158.769 27.496 161.505 27.496ZM161.505 20.968C165.993 20.968 168.945 22.696 168.945 25.456C168.945 28.216 165.993 29.944 161.505 29.944C156.993 29.944 154.041 28.216 154.041 25.456C154.041 22.696 156.993 20.968 161.505 20.968ZM185.013 11.416C183.405 11.416 182.253 12.184 182.253 13.576C182.253 14.92 183.405 15.688 185.013 15.688C186.645 15.688 187.773 14.92 187.773 13.576C187.773 12.184 186.645 11.416 185.013 11.416ZM185.013 18.28C181.677 18.28 179.205 16.312 179.205 13.576C179.205 10.792 181.677 8.848 185.013 8.848C188.349 8.848 190.797 10.792 190.797 13.576C190.797 16.312 188.349 18.28 185.013 18.28ZM191.925 18.832L192.117 21.136C190.341 21.496 188.493 21.736 186.693 21.88V29.392H183.525V22.072C181.629 22.144 179.829 22.168 178.269 22.168L177.909 19.576C181.773 19.576 187.245 19.528 191.925 18.832ZM193.173 7.96H196.341V30.04H193.173V7.96ZM201.139 10.24H211.747C211.747 17.008 209.467 22.528 201.619 26.32L199.963 23.824C205.603 21.112 208.051 17.656 208.507 12.76H201.139V10.24ZM215.131 7.936H218.323V30.04H215.131V7.936ZM225.737 13.072V22.48C227.801 22.432 229.673 22.312 231.785 21.928L232.025 24.496C229.337 25 226.985 25.096 224.153 25.096H222.617V10.504H230.801V13.072H225.737ZM237.953 7.936H240.953V30.064H237.953V19H235.961V29.032H233.009V8.368H235.961V16.456H237.953V7.936ZM244.071 18.28H264.039V20.776H244.071V18.28ZM254.007 21.976C258.783 21.976 261.687 23.44 261.687 26.032C261.687 28.624 258.783 30.088 254.007 30.088C249.231 30.088 246.351 28.624 246.351 26.032C246.351 23.44 249.231 21.976 254.007 21.976ZM254.007 24.376C251.055 24.376 249.543 24.904 249.543 26.032C249.543 27.184 251.055 27.688 254.007 27.688C256.959 27.688 258.471 27.184 258.471 26.032C258.471 24.904 256.959 24.376 254.007 24.376ZM254.055 8.44C258.927 8.44 262.071 10.096 262.071 12.76C262.071 15.472 258.927 17.104 254.055 17.104C249.207 17.104 246.063 15.472 246.063 12.76C246.063 10.096 249.207 8.44 254.055 8.44ZM254.055 10.864C251.055 10.864 249.327 11.512 249.327 12.76C249.327 14.056 251.055 14.68 254.055 14.68C257.079 14.68 258.807 14.056 258.807 12.76C258.807 11.512 257.079 10.864 254.055 10.864ZM281.523 27.76C284.595 27.76 286.011 27.352 286.011 26.44C286.011 25.528 284.595 25.144 281.523 25.144C278.475 25.144 277.059 25.528 277.059 26.44C277.059 27.352 278.475 27.76 281.523 27.76ZM281.523 22.816C286.395 22.816 289.203 24.064 289.203 26.44C289.203 28.792 286.395 30.064 281.523 30.064C276.675 30.064 273.867 28.792 273.867 26.44C273.867 24.064 276.675 22.816 281.523 22.816ZM283.131 19.36H291.555V21.832H271.563V19.36H279.963V17.992H274.059V8.536H289.275V10.936H277.203V12.088H288.771V14.392H277.203V15.592H289.443V17.992H283.131V19.36ZM306.697 9.904L306.673 12.376H293.641V9.904H298.561V7.792H301.753V9.904H306.697ZM297.769 16.888C297.769 17.944 298.753 18.496 300.169 18.496C301.585 18.496 302.569 17.944 302.569 16.888C302.569 15.832 301.585 15.28 300.169 15.28C298.753 15.28 297.769 15.832 297.769 16.888ZM305.593 16.888C305.593 19.216 303.361 20.8 300.169 20.8C296.977 20.8 294.745 19.216 294.745 16.888C294.745 14.536 296.977 12.976 300.169 12.976C303.361 12.976 305.593 14.536 305.593 16.888ZM307.921 27.352V25.816H299.833V27.352H307.921ZM307.921 23.416V21.736H311.065V29.824H296.689V21.736H299.833V23.416H307.921ZM313.993 13.264V15.856H311.065V20.896H307.897V7.96H311.065V13.264H313.993ZM324.311 9.664V12.88C324.311 16.984 326.063 21.016 329.807 22.624L328.007 25.192C325.463 24.04 323.759 21.856 322.775 19.144C321.791 22.096 319.991 24.472 317.351 25.72L315.455 23.104C319.319 21.448 321.143 17.176 321.143 12.88V9.664H324.311ZM330.887 7.936H334.055V30.112H330.887V7.936ZM357.141 18.376L355.797 21.016C351.957 20.248 349.125 18.112 347.709 15.304C346.293 18.112 343.485 20.272 339.645 21.016L338.301 18.376C343.269 17.512 346.029 14.008 346.029 10.84V9.256H349.413V10.84C349.413 14.08 352.149 17.512 357.141 18.376ZM337.821 24.808H357.837V27.376H337.821V24.808ZM371.395 20.992V15.808H369.235V13.264H371.395V8.296H374.347V20.992H371.395ZM369.859 17.32L370.123 19.816C367.627 20.272 365.539 20.32 362.275 20.32H360.763V9.28H369.067V11.776H363.811V13.528H368.299V15.928H363.811V17.824C366.139 17.8 367.867 17.68 369.859 17.32ZM366.883 24.496V27.328H375.643V24.496H366.883ZM363.763 29.8V22.024H378.739V29.8H363.763ZM375.739 7.984H378.739V21.16H375.739V7.984Z" fill="white"/>
<defs>
<clipPath id="clip0_966_147890">
<rect width="73" height="34.5789" fill="white"/>
</clipPath>
</defs>
</svg>
