<svg width="23" height="24" viewBox="0 0 23 24" fill="none" xmlns="http://www.w3.org/2000/svg">
<path d="M9.67822 14.4H12.0978V6H9.67822V14.4ZM13.3075 12.6H15.7271V7.2H13.3075V12.6ZM6.04889 12H8.46844V7.2H6.04889V12ZM3.62933 24V18.84C2.48004 17.8 1.58783 16.585 0.9527 15.195C0.317567 13.805 0 12.34 0 10.8C0 7.8 1.05856 5.25 3.17567 3.15C5.29278 1.05 7.86355 0 10.888 0C13.4084 0 15.6414 0.735 17.5871 2.205C19.5329 3.675 20.7981 5.59 21.3828 7.95L22.9555 14.1C23.0563 14.48 22.9858 14.825 22.7438 15.135C22.5019 15.445 22.1792 15.6 21.776 15.6H19.3564V19.2C19.3564 19.86 19.1195 20.425 18.6457 20.895C18.1719 21.365 17.6023 21.6 16.9369 21.6H14.5173V24H12.0978V19.2H16.9369V13.2H20.2033L19.054 8.55C18.5902 6.73 17.6023 5.25 16.09 4.11C14.5778 2.97 12.8438 2.4 10.888 2.4C8.54909 2.4 6.55296 3.21 4.8996 4.83C3.24624 6.45 2.41955 8.42 2.41955 10.74C2.41955 11.94 2.66655 13.08 3.16054 14.16C3.65454 15.24 4.3552 16.2 5.26253 17.04L6.04889 17.76V24H3.62933Z" fill="white"/>
</svg>
