<?xml version="1.0" encoding="UTF-8"?>
<svg width="24" height="24" viewBox="0 0 24 24" fill="none" xmlns="http://www.w3.org/2000/svg">
<path d="M12.1371 0L18.6057 6.48L16.1829 8.90286L13.76 6.48L12.1371 8.10286L14.8 10.7543L13.4743 12.0914L13.9886 12.6171C15.0514 12.1257 16.3543 12.3086 17.2229 13.1886L13.1886 17.2229C12.3086 16.3543 12.1257 15.0514 12.6171 13.9886L12.0914 13.4743L10.7543 14.8L8.10286 12.1371L6.48 13.76L8.90286 16.1829L6.48 18.6057L0 12.1371L2.44571 9.71429L4.86857 12.1371L6.48 10.5257L3.24571 7.29143C2.35429 6.4 2.35429 4.94857 3.24571 4.05714L4.05714 3.24571C4.94857 2.35429 6.4 2.35429 7.29143 3.24571L10.5257 6.48L12.1371 4.86857L9.71429 2.44571L12.1371 0ZM19.4286 14.8571C19.4286 16.0696 18.9469 17.2323 18.0896 18.0896C17.2323 18.9469 16.0696 19.4286 14.8571 19.4286V17.1429C15.4634 17.1429 16.0447 16.902 16.4734 16.4734C16.902 16.0447 17.1429 15.4634 17.1429 14.8571H19.4286ZM24 14.8571C24 17.282 23.0367 19.6075 21.3221 21.3221C19.6075 23.0367 17.282 24 14.8571 24V21.7143C16.6758 21.7143 18.4199 20.9918 19.7059 19.7059C20.9918 18.4199 21.7143 16.6758 21.7143 14.8571H24Z" fill="white"/>
</svg>
