<?xml version="1.0" encoding="UTF-8"?>
<svg width="16" height="14" viewBox="0 0 16 14" fill="none" xmlns="http://www.w3.org/2000/svg">
<path id="warn" d="M7.42716 8.40031V5.04019C7.42716 4.89166 7.48737 4.74922 7.59454 4.64419C7.7017 4.53917 7.84705 4.48017 7.99861 4.48017C8.15017 4.48017 8.29552 4.53917 8.40269 4.64419C8.50986 4.74922 8.57006 4.89166 8.57006 5.04019V8.40031C8.57006 8.54884 8.50986 8.69128 8.40269 8.7963C8.29552 8.90133 8.15017 8.96033 7.99861 8.96033C7.84705 8.96033 7.7017 8.90133 7.59454 8.7963C7.48737 8.69128 7.42716 8.54884 7.42716 8.40031ZM15.768 13.1592C15.619 13.416 15.4029 13.6292 15.1418 13.777C14.8808 13.9248 14.5843 14.0017 14.2829 14H1.71434C1.41325 14 1.11747 13.9223 0.856766 13.7747C0.596057 13.6271 0.379614 13.4148 0.229212 13.1591C0.0788099 12.9035 -0.000245123 12.6136 5.70945e-07 12.3185C0.000246265 12.0235 0.0797841 11.7337 0.230611 11.4783L6.51488 0.838426C6.66547 0.583459 6.88183 0.371781 7.14225 0.224622C7.40267 0.077464 7.698 0 7.99861 0C8.29922 0 8.59455 0.077464 8.85497 0.224622C9.11539 0.371781 9.33175 0.583459 9.48235 0.838426L15.7666 11.4783C15.9192 11.7331 15.9998 12.0231 16 12.3185C16.0002 12.614 15.9202 12.9041 15.768 13.1592ZM14.7775 12.0394L8.49319 1.39951C8.44299 1.31452 8.37087 1.24396 8.28406 1.19491C8.19726 1.14586 8.09881 1.12004 7.99861 1.12004C7.89841 1.12004 7.79997 1.14586 7.71316 1.19491C7.62636 1.24396 7.55424 1.31452 7.50403 1.39951L1.21976 12.0393C1.1695 12.1245 1.143 12.2211 1.14292 12.3194C1.14285 12.4178 1.1692 12.5144 1.21933 12.5996C1.26946 12.6848 1.3416 12.7556 1.4285 12.8048C1.5154 12.854 1.61398 12.8799 1.71434 12.8799H14.2829C14.3832 12.8799 14.4818 12.854 14.5687 12.8048C14.6556 12.7556 14.7278 12.6848 14.7779 12.5996C14.828 12.5144 14.8544 12.4178 14.8543 12.3194C14.8542 12.2211 14.8277 12.1245 14.7775 12.0394ZM7.99861 10.0804C7.82908 10.0804 7.66335 10.1296 7.52239 10.2219C7.38143 10.3142 7.27156 10.4454 7.20669 10.5989C7.14181 10.7524 7.12483 10.9213 7.15791 11.0843C7.19098 11.2472 7.27262 11.3969 7.3925 11.5144C7.51238 11.6319 7.66511 11.7119 7.83139 11.7443C7.99766 11.7767 8.17001 11.7601 8.32664 11.6965C8.48327 11.6329 8.61714 11.5252 8.71133 11.3871C8.80551 11.249 8.85579 11.0865 8.85579 10.9204C8.85553 10.6977 8.76514 10.4842 8.60445 10.3267C8.44375 10.1692 8.22587 10.0806 7.99861 10.0804Z" fill="white"/>
</svg>
