<?xml version="1.0" encoding="UTF-8"?>
<svg width="24" height="22" viewBox="0 0 24 22" fill="none" xmlns="http://www.w3.org/2000/svg">
<path d="M10.9091 4.4V0H13.0909V4.4H10.9091ZM18.1636 7.425L16.6364 5.885L19.7182 2.75L21.2455 4.3175L18.1636 7.425ZM19.6364 13.2V11H24V13.2H19.6364ZM19.7182 21.4225L16.6364 18.315L18.1636 16.775L21.2727 19.855L19.7182 21.4225ZM5.83636 7.425L2.75455 4.3175L4.30909 2.75L7.36364 5.885L5.83636 7.425ZM5.45455 19.8H10.3636C10.8182 19.8 11.2045 19.6396 11.5227 19.3188C11.8409 18.9979 12 18.6083 12 18.15C12 17.6917 11.8455 17.3021 11.5364 16.9813C11.2273 16.6604 10.8455 16.5 10.3909 16.5H9L8.45455 15.18C8.2 14.575 7.8 14.0938 7.25455 13.7362C6.70909 13.3787 6.10909 13.2 5.45455 13.2C4.54545 13.2 3.77273 13.5208 3.13636 14.1625C2.5 14.8042 2.18182 15.5833 2.18182 16.5C2.18182 17.4167 2.5 18.1958 3.13636 18.8375C3.77273 19.4792 4.54545 19.8 5.45455 19.8ZM5.45455 22C3.94545 22 2.65909 21.4637 1.59545 20.3913C0.531818 19.3188 0 18.0217 0 16.5C0 14.9783 0.531818 13.6812 1.59545 12.6088C2.65909 11.5363 3.94545 11 5.45455 11C6.54545 11 7.54091 11.2979 8.44091 11.8938C9.34091 12.4896 10.0091 13.2917 10.4455 14.3C11.5 14.3 12.3864 14.6942 13.1045 15.4825C13.8227 16.2708 14.1818 17.215 14.1818 18.315C14.1455 19.36 13.7591 20.2354 13.0227 20.9412C12.2864 21.6471 11.4 22 10.3636 22H5.45455ZM14.1818 18.315C14.0909 17.9483 14 17.5908 13.9091 17.2425C13.8182 16.8942 13.7273 16.5367 13.6364 16.17C14.4545 15.8217 15.1136 15.2808 15.6136 14.5475C16.1136 13.8142 16.3636 12.9983 16.3636 12.1C16.3636 10.89 15.9364 9.85417 15.0818 8.9925C14.2273 8.13083 13.2 7.7 12 7.7C10.9091 7.7 9.95455 8.0575 9.13636 8.7725C8.31818 9.4875 7.83636 10.395 7.69091 11.495C7.32727 11.4033 6.95455 11.3208 6.57273 11.2475C6.19091 11.1742 5.81818 11.0917 5.45455 11C5.70909 9.38667 6.45909 8.06667 7.70455 7.04C8.95 6.01333 10.3818 5.5 12 5.5C13.8182 5.5 15.3636 6.14167 16.6364 7.425C17.9091 8.70833 18.5455 10.2667 18.5455 12.1C18.5455 13.5117 18.1455 14.7812 17.3455 15.9087C16.5455 17.0362 15.4909 17.8383 14.1818 18.315Z" fill="white"/>
</svg>
