<svg width="23" height="23" viewBox="0 0 23 23" fill="none" xmlns="http://www.w3.org/2000/svg">
<g id="icon">
<g id="Group 1262">
<path id="Vector" d="M19.4022 9H5.65539C5.25739 9 4.89729 9.23601 4.73846 9.60095L1.60888 16.7919C1.32143 17.4524 1.80548 18.191 2.52581 18.191H16.2726C16.6706 18.191 17.0307 17.955 17.1895 17.5901L20.3191 10.3991C20.6066 9.73857 20.1225 9 19.4022 9Z" stroke="#2494D3"/>
<path id="Vector_2" d="M1.69922 17.5V5C1.69922 4.44772 2.14693 4 2.69922 4H6.00237C6.30457 4 6.59056 4.13666 6.78041 4.37179L7.89903 5.75721C8.08887 5.99234 8.37487 6.129 8.67707 6.129H18.6992C19.2515 6.129 19.6992 6.57672 19.6992 7.129V9.5" stroke="#2494D3"/>
</g>
</g>
</svg>
