<svg width="42" height="44" viewBox="0 0 42 44" fill="none" xmlns="http://www.w3.org/2000/svg">
<g id="Frame 1058">
<g id="Group 1053">
<g id="Group 1217">
<path id="Vector" d="M29.2966 23.7352L29.2838 30.8538H11.7432" stroke="#A3B2FF"/>
<path id="Vector_2" d="M14.292 16.858H20.3361" stroke="#A3B2FF"/>
<path id="Vector_3" d="M11.9598 30.8562C10.8772 30.8562 10 29.9767 10 28.8964C10 27.8162 10.8772 26.9366 11.9598 26.9366C13.0412 26.9366 13.9184 27.8162 13.9184 28.8964" stroke="#A3B2FF" stroke-linecap="round"/>
<path id="Vector_4" d="M13.9196 28.7038V15.3253C13.9196 14.2415 13.0424 13.3655 11.961 13.3655C10.8772 13.3655 10 14.2427 10 15.3253V28.5948" stroke="#A3B2FF"/>
<path id="Vector_5" d="M26.0066 24.5035C29.1832 24.5035 31.7584 21.9283 31.7584 18.7517C31.7584 15.5751 29.1832 13 26.0066 13C22.83 13 20.2549 15.5751 20.2549 18.7517C20.2549 21.9283 22.83 24.5035 26.0066 24.5035Z" stroke="#A3B2FF"/>
<path id="Vector_6" d="M31.7211 26.6767L29.0488 23.7167L30.6315 22.3092L33.3049 25.2692L31.7211 26.6767Z" stroke="#A3B2FF"/>
<path id="Vector_7" d="M24.2311 18.5916H22.8643V21.468H24.2311V18.5916Z" fill="#A3B2FF"/>
<path id="Vector_8" d="M26.5118 16.8268H25.1426V21.4681H26.5118V16.8268Z" fill="#A3B2FF"/>
<path id="Vector_9" d="M28.7858 15.2126H27.4189V21.468H28.7858V15.2126Z" fill="#A3B2FF"/>
</g>
</g>
</g>
</svg>
