<svg width="30" height="30" viewBox="0 0 30 30" fill="none" xmlns="http://www.w3.org/2000/svg">
<g id="Group 1053">
<g id="Group 1054">
<path id="Vector" d="M23.555 15.7927C23.5685 16.0066 23.5763 16.2228 23.5763 16.4412C23.5763 22.0535 19.0269 26.6029 13.4145 26.6029C7.80335 26.6029 3.25391 22.0524 3.25391 16.4412C3.25391 10.83 7.80335 6.28052 13.4145 6.28052C14.3486 6.28052 15.2536 6.40596 16.1126 6.64228" stroke="#A3B2FF" stroke-width="1.3"/>
<path id="Vector_2" d="M13.541 6.2793V26.6835" stroke="#A3B2FF" stroke-width="1.3"/>
<path id="Vector_3" d="M3 16.2026H19.2848" stroke="#A3B2FF" stroke-width="1.3"/>
<path id="Vector_4" d="M9.68134 6.9873C9.68134 6.9873 6.35494 17.5612 10.1629 26.0699" stroke="#A3B2FF" stroke-width="1.3"/>
<path id="Vector_5" d="M18.5801 16.5286C18.8612 19.566 17.9551 23.4614 16.7881 26.0698" stroke="#A3B2FF" stroke-width="1.3"/>
<path id="Vector_6" d="M5.51855 22.8364C5.51855 22.8364 13.027 18.2936 21.3654 22.7669" stroke="#A3B2FF" stroke-width="1.3"/>
<path id="Vector_7" d="M5.51855 9.8042C5.51855 9.8042 10.1878 12.7532 16.4442 11.8437" stroke="#A3B2FF" stroke-width="1.3"/>
<path id="Vector_8" d="M26.6314 8.46C26.8229 12.2288 21.2644 18.577 21.1714 18.577C21.0751 18.577 15.4583 11.8525 15.7114 8.46C15.9354 5.45392 18.1564 3 21.1703 3C24.1865 3 26.478 5.44944 26.6314 8.46Z" stroke="#A3B2FF" stroke-width="1.3"/>
<path id="Vector_9" d="M23.3799 7.15865C23.6778 7.58985 23.8514 8.11177 23.8514 8.67513C23.8514 10.1558 22.6519 11.3553 21.1712 11.3553C19.6906 11.3553 18.4922 10.1558 18.4922 8.67513C18.4922 7.19561 19.6917 5.99609 21.1712 5.99609C22.0874 5.99721 22.8971 6.45753 23.3799 7.15865Z" stroke="#A3B2FF" stroke-width="1.3"/>
</g>
</g>
</svg>
