<svg width="30" height="30" viewBox="0 0 30 30" fill="none" xmlns="http://www.w3.org/2000/svg">
<g id="Group 1053">
<g id="Group 1056">
<path id="Vector" d="M6.41406 15.7609L7.66174 19.6765C7.66174 19.6765 7.84654 20.5489 9.25438 20.5377H23.3809C23.3809 20.5377 24.4405 20.4829 24.4405 19.3797C24.4405 18.9664 24.2837 18.2115 23.1513 18.1555H19.2649L15.3774 13.3955H13.227L16.1245 18.2081H9.58478L8.1355 15.7329L6.41406 15.7609Z" stroke="#A3B2FF"/>
<path id="Vector_2" d="M26.8547 4H4V25.0706H26.8547V4Z" stroke="#A3B2FF"/>
<path id="Vector_3" d="M4.20898 8.86523H26.6448" stroke="#A3B2FF"/>
<path id="Vector_4" d="M7.57383 5.75049H6.17383V7.15049H7.57383V5.75049Z" fill="#A3B2FF"/>
<path id="Vector_5" d="M9.81406 5.75049H8.41406V7.15049H9.81406V5.75049Z" fill="#A3B2FF"/>
<path id="Vector_6" d="M12.0543 5.75049H10.6543V7.15049H12.0543V5.75049Z" fill="#A3B2FF"/>
</g>
</g>
</svg>
