<svg width="18" height="18" viewBox="0 0 18 18" fill="none" xmlns="http://www.w3.org/2000/svg">
<g id="&#236;&#130;&#172;&#236;&#167;&#132;&#236;&#182;&#148;&#234;&#176;&#128; &#236;&#149;&#132;&#236;&#157;&#180;&#236;&#189;&#152;">
<path id="Vector" d="M15.3529 0H2.64816C1.18892 0 0.000976562 1.18699 0.000976562 2.64702V15.3519C0.000976562 16.811 1.18804 17.9989 2.64816 17.9989H15.3538C16.813 17.9989 18.001 16.8119 18.001 15.3519V2.64702C18.0001 1.18699 16.813 0 15.3529 0ZM16.9412 15.351C16.9412 16.2263 16.2292 16.9392 15.3529 16.9392H2.64816C1.77279 16.9392 1.05985 16.2272 1.05985 15.351V13.4362L5.33223 8.68908L11.1034 13.9348L14.2949 11.2755L16.9421 13.4809L16.9412 15.351ZM16.9412 12.1034L14.294 9.89802L11.1323 12.5319L5.2576 7.19042L1.05985 11.8541V2.64702C1.05985 1.77171 1.77191 1.05881 2.64816 1.05881H15.3538C16.2292 1.05881 16.9421 1.77083 16.9421 2.64702L16.9412 12.1034Z" fill="#9EB7D2"/>
<path id="Vector_2" d="M12.501 7C13.8791 7 15.001 5.87894 15.001 4.5C15.001 3.12106 13.8799 2 12.501 2C11.1229 2 10.001 3.12106 10.001 4.5C10.001 5.87894 11.122 7 12.501 7ZM12.501 3.00083C13.3277 3.00083 14.001 3.6733 14.001 4.50083C14.001 5.32836 13.3285 6.00083 12.501 6.00083C11.6734 6.00083 11.001 5.32836 11.001 4.50083C11.001 3.6733 11.6734 3.00083 12.501 3.00083Z" fill="#9EB7D2"/>
</g>
</svg>
