<svg width="37" height="29" viewBox="0 0 37 29" fill="none" xmlns="http://www.w3.org/2000/svg">
<g id="Group">
<path id="Vector" d="M7.61882 9.20623C7.50688 8.89548 7.44507 8.55634 7.44507 8.20717C7.44507 6.59329 8.75321 5.28516 10.3671 5.28516C11.981 5.28516 13.2891 6.59329 13.2891 8.20717C13.2891 9.82104 11.9826 11.1308 10.3671 11.1308H0.333008" stroke="#8BA7C5" stroke-width="1.7"/>
<path id="Vector_2" d="M18.7355 11.8286C18.1056 10.7627 17.7448 9.51969 17.7448 8.19317C17.7448 4.2437 20.9475 1.04102 24.8969 1.04102C28.8464 1.04102 32.0491 4.2437 32.0491 8.19317C32.0491 12.1426 28.8464 15.3453 24.8969 15.3453H0.333008" stroke="#8BA7C5" stroke-width="1.7"/>
<path id="Vector_3" d="M26.6562 21.6844C26.3888 22.2607 26.2402 22.9023 26.2402 23.5789C26.2402 26.0715 28.26 28.0914 30.7526 28.0914C33.2453 28.0914 35.2651 26.0715 35.2651 23.5789C35.2651 21.0863 33.2453 19.0664 30.7526 19.0664H0.333008" stroke="#8BA7C5" stroke-width="1.7"/>
<path id="Vector_4" d="M12.1848 23.0479H0.333008" stroke="#8BA7C5" stroke-width="1.7"/>
</g>
</svg>
