<svg width="34" height="34" viewBox="0 0 34 34" fill="none" xmlns="http://www.w3.org/2000/svg">
<g id="Group 810">
<path id="Vector" d="M9.97632 27.1705L9.97636 27.1707C10.1855 28.3614 10.6385 29.5235 11.2933 30.3247C11.9449 31.1218 12.7829 31.5498 13.7855 31.3264L9.97632 27.1705ZM9.97632 27.1705C9.90496 26.7677 9.59059 26.4404 9.19866 26.4954M9.97632 27.1705L0.86579 27.5731M14.7258 30.7469L14.7258 30.7469C15.5701 29.8363 16.0244 28.5081 16.3114 27.1388C16.3935 26.7435 16.712 26.4345 17.0972 26.4974L17.0976 26.4974C17.4523 26.5563 17.6841 26.9071 17.7091 27.2838C17.9255 28.4595 18.3797 29.6004 19.0304 30.3857C19.6794 31.1688 20.5112 31.587 21.5045 31.3649L21.5045 31.3648C21.8384 31.2903 22.1764 31.075 22.4448 30.7854L22.4449 30.7853C23.289 29.8761 23.7445 28.5466 24.0303 27.1774L24.0303 27.1773C24.106 26.8157 24.3804 26.5201 24.734 26.5296M14.7258 30.7469L32.981 27.5741L33.1278 27.6049C33.1278 27.6049 33.1278 27.6048 33.1278 27.6048C33.2178 27.1751 33.024 26.693 32.6307 26.5603L32.6301 26.5601C32.2148 26.4218 31.84 26.7457 31.7493 27.1772L31.7493 27.1774C31.4635 28.5466 31.008 29.8761 30.1638 30.7853L30.1638 30.7854C29.8953 31.075 29.5573 31.2903 29.2235 31.3648L29.2234 31.3649C28.2214 31.589 27.3837 31.1614 26.7321 30.3644C26.0773 29.5633 25.624 28.4013 25.4143 27.2105C25.3503 26.8454 25.0877 26.5377 24.734 26.5296M14.7258 30.7469C14.4575 31.0364 14.1184 31.2518 13.7856 31.3264L14.7258 30.7469ZM24.734 26.5296C24.7338 26.5296 24.7337 26.5296 24.7336 26.5296L24.7303 26.6796L24.7344 26.5297C24.7343 26.5296 24.7341 26.5296 24.734 26.5296ZM14.0453 33.0222L14.045 33.0222C12.9087 33.2761 11.9039 32.9718 11.0743 32.3183C10.3338 31.735 9.73386 30.875 9.2937 29.8864C8.95998 30.7047 8.5248 31.459 7.95279 32.0761L7.95261 32.0763C7.50443 32.5582 6.92351 32.9274 6.32607 33.0607L14.0453 33.0222ZM14.0453 33.0222C14.6422 32.8875 15.2243 32.52 15.6717 32.0363C16.2345 31.4293 16.6646 30.6902 16.9964 29.8866C17.4355 30.8851 18.0366 31.7551 18.78 32.3457C19.6122 33.0068 20.6217 33.316 21.764 33.0607C22.3613 32.9275 22.9434 32.5582 23.3907 32.0762L23.2807 31.9742L23.3907 32.0762C23.9591 31.4634 24.391 30.7172 24.7239 29.9064M14.0453 33.0222L24.7239 29.9064M0.86579 27.5731L0.865763 27.5729C0.789932 27.1397 0.998303 26.6657 1.39762 26.5524C1.81858 26.4319 2.18007 26.7754 2.25627 27.2106M0.86579 27.5731C1.14455 29.156 1.77796 30.681 2.70435 31.7356M0.86579 27.5731L2.70435 31.7356M2.25627 27.2106C2.25628 27.2106 2.25628 27.2107 2.25629 27.2107L2.10856 27.2365L2.25626 27.2105C2.25626 27.2106 2.25627 27.2106 2.25627 27.2106ZM2.25627 27.2106C2.46599 28.4013 2.91926 29.5634 3.57408 30.3644C4.22564 31.1614 5.06338 31.589 6.06542 31.3649L6.06549 31.3648C6.3993 31.2903 6.73732 31.075 7.00575 30.7854L7.00585 30.7853C7.8327 29.8949 8.2856 28.603 8.57364 27.2632C8.60525 26.8898 8.84192 26.545 9.19866 26.4954M9.19866 26.4954C9.19862 26.4954 9.19858 26.4954 9.19853 26.4954L9.2194 26.644L9.1988 26.4954C9.19875 26.4954 9.19871 26.4954 9.19866 26.4954ZM24.7239 29.9064C25.1634 30.8999 25.7641 31.7648 26.5062 32.3516C27.3373 33.0087 28.3448 33.3153 29.484 33.0607L24.7239 29.9064ZM2.70435 31.7356C3.63419 32.7941 4.86889 33.3861 6.32603 33.0607L2.70435 31.7356Z" fill="#A8ABC9" stroke="#A8ABC9" stroke-width="0.3"/>
<path id="Vector_2" d="M9.97632 18.6241L9.97636 18.6243C10.1855 19.8151 10.6385 20.9771 11.2933 21.7783C11.9449 22.5754 12.7829 23.0034 13.7855 22.78L9.97632 18.6241ZM9.97632 18.6241C9.90496 18.2213 9.59059 17.8941 9.19866 17.949M9.97632 18.6241L0.86579 19.0267M14.7258 22.2005L14.7258 22.2005C15.5701 21.2899 16.0244 19.9617 16.3114 18.5924C16.3935 18.1972 16.712 17.8881 17.0972 17.951L17.0976 17.951C17.4523 18.0099 17.6841 18.3607 17.7091 18.7374C17.9255 19.9131 18.3797 21.054 19.0304 21.8393C19.6794 22.6224 20.5112 23.0406 21.5045 22.8185L21.5045 22.8184C21.8384 22.744 22.1764 22.5286 22.4448 22.239L22.4449 22.2389C23.289 21.3297 23.7445 20.0002 24.0303 18.631L24.0303 18.6309C24.106 18.2693 24.3804 17.9737 24.734 17.9833M14.7258 22.2005L32.981 19.0277L33.1278 19.0585C33.1278 19.0585 33.1278 19.0584 33.1278 19.0584C33.2178 18.6287 33.024 18.1467 32.6307 18.0139L32.6301 18.0137C32.2148 17.8754 31.84 18.1993 31.7493 18.6308L31.7493 18.631C31.4635 20.0002 31.008 21.3297 30.1638 22.2389L30.1638 22.239C29.8953 22.5286 29.5573 22.744 29.2235 22.8184L29.2234 22.8185C28.2214 23.0426 27.3837 22.615 26.7321 21.818C26.0773 21.017 25.624 19.8549 25.4143 18.6641C25.3503 18.299 25.0877 17.9913 24.734 17.9833M14.7258 22.2005C14.4575 22.49 14.1184 22.7055 13.7856 22.78L14.7258 22.2005ZM24.734 17.9833C24.7338 17.9832 24.7337 17.9832 24.7336 17.9832L24.7303 18.1332L24.7344 17.9833C24.7343 17.9833 24.7341 17.9833 24.734 17.9833ZM14.0453 24.4758L14.045 24.4758C12.9087 24.7297 11.9039 24.4254 11.0743 23.7719C10.3338 23.1886 9.73386 22.3286 9.2937 21.34C8.95998 22.1583 8.5248 22.9126 7.95279 23.5298L7.95261 23.5299C7.50443 24.0118 6.92351 24.3811 6.32607 24.5143L14.0453 24.4758ZM14.0453 24.4758C14.6422 24.3412 15.2243 23.9736 15.6717 23.4899C16.2345 22.8829 16.6646 22.1438 16.9964 21.3402C17.4355 22.3387 18.0366 23.2087 18.78 23.7993C19.6122 24.4605 20.6217 24.7696 21.764 24.5143C22.3613 24.3811 22.9434 24.0119 23.3907 23.5298L23.2807 23.4278L23.3907 23.5298C23.9591 22.9171 24.391 22.1708 24.7239 21.36M14.0453 24.4758L24.7239 21.36M0.86579 19.0267L0.865763 19.0265C0.789932 18.5933 0.998303 18.1193 1.39762 18.006C1.81858 17.8855 2.18007 18.229 2.25627 18.6642M0.86579 19.0267C1.14455 20.6096 1.77796 22.1346 2.70435 23.1892M0.86579 19.0267L2.70435 23.1892M2.25627 18.6642C2.25628 18.6642 2.25628 18.6643 2.25629 18.6643L2.10856 18.6902L2.25626 18.6641C2.25626 18.6642 2.25627 18.6642 2.25627 18.6642ZM2.25627 18.6642C2.46599 19.855 2.91926 21.017 3.57408 21.818C4.22564 22.615 5.06338 23.0426 6.06542 22.8185L6.06549 22.8184C6.3993 22.744 6.73732 22.5286 7.00575 22.239L7.00585 22.2389C7.8327 21.3485 8.2856 20.0566 8.57364 18.7168C8.60525 18.3434 8.84192 17.9986 9.19866 17.949M9.19866 17.949C9.19862 17.949 9.19858 17.949 9.19853 17.9491L9.2194 18.0976L9.1988 17.949C9.19875 17.949 9.19871 17.949 9.19866 17.949ZM24.7239 21.36C25.1634 22.3535 25.7641 23.2184 26.5062 23.8052C27.3373 24.4624 28.3448 24.7689 29.484 24.5143L24.7239 21.36ZM2.70435 23.1892C3.63419 24.2477 4.86889 24.8397 6.32603 24.5143L2.70435 23.1892Z" fill="#A8ABC9" stroke="#A8ABC9" stroke-width="0.3"/>
<path id="Vector_3" d="M1.39761 9.45941C0.998301 9.57267 0.789932 10.0467 0.865763 10.4799L0.86579 10.4801C1.14455 12.063 1.77796 13.588 2.70435 14.6426C3.63419 15.701 4.86889 16.293 6.32603 15.9677L1.39761 9.45941ZM1.39761 9.45941C1.81858 9.33884 2.18007 9.68241 2.25627 10.1176M1.39761 9.45941L13.7855 14.2334C12.7829 14.4568 11.9449 14.0288 11.2933 13.2316C10.6385 12.4305 10.1855 11.2684 9.97636 10.0777L9.97632 10.0775C9.90496 9.67467 9.59059 9.34742 9.19866 9.40241M2.25627 10.1176C2.25628 10.1176 2.25628 10.1176 2.25629 10.1177L2.10856 10.1435L2.25626 10.1175C2.25626 10.1175 2.25627 10.1176 2.25627 10.1176ZM2.25627 10.1176C2.46599 11.3083 2.91926 12.4703 3.57408 13.2713C4.22564 14.0684 5.06338 14.4959 6.06542 14.2718L6.06549 14.2718C6.3993 14.1973 6.73732 13.982 7.00575 13.6924L7.00585 13.6922C7.8327 12.8019 8.2856 11.51 8.57364 10.1702C8.60525 9.79682 8.84192 9.45196 9.19866 9.40241M9.19866 9.40241C9.19862 9.40241 9.19858 9.40242 9.19853 9.40242L9.2194 9.55097L9.1988 9.40239C9.19875 9.40239 9.19871 9.4024 9.19866 9.40241ZM14.7258 13.6539L14.7258 13.6539C15.5701 12.7433 16.0244 11.4151 16.3114 10.0458C16.3935 9.65052 16.712 9.3415 17.0972 9.40435L17.0976 9.40442C17.4523 9.46332 17.6841 9.81409 17.7091 10.1908C17.9255 11.3665 18.3797 12.5074 19.0304 13.2926C19.6794 14.0758 20.5112 14.494 21.5045 14.2718L21.5045 14.2718C21.8384 14.1973 22.1764 13.982 22.4448 13.6924L22.4449 13.6923C23.289 12.7831 23.7445 11.4536 24.0303 10.0844L24.0303 10.0843C24.106 9.72268 24.3804 9.4271 24.734 9.43662M14.7258 13.6539L32.981 10.4811L33.1278 10.5119C33.1278 10.5118 33.1278 10.5118 33.1278 10.5118C33.2178 10.0821 33.024 9.60002 32.6307 9.46725L32.6301 9.46704C32.2148 9.32881 31.84 9.65264 31.7493 10.0842L31.7493 10.0844C31.4635 11.4536 31.008 12.7831 30.1638 13.6923L30.1638 13.6924C29.8953 13.982 29.5573 14.1973 29.2235 14.2718L29.2234 14.2718C28.2214 14.4959 27.3837 14.0684 26.7321 13.2713C26.0773 12.4703 25.624 11.3083 25.4143 10.1175C25.3503 9.75235 25.0877 9.44464 24.734 9.43662M14.7258 13.6539C14.4575 13.9434 14.1184 14.1588 13.7856 14.2333L14.7258 13.6539ZM24.734 9.43662C24.7338 9.43662 24.7337 9.43661 24.7336 9.43661L24.7303 9.58658L24.7344 9.43663C24.7343 9.43663 24.7341 9.43662 24.734 9.43662ZM14.0453 15.9291L14.045 15.9292C12.9087 16.1831 11.9039 15.8788 11.0743 15.2253C10.3338 14.642 9.73386 13.7819 9.2937 12.7934C8.95998 13.6117 8.5248 14.366 7.95279 14.9831L7.95261 14.9833C7.50443 15.4651 6.92351 15.8344 6.32607 15.9677L14.0453 15.9291ZM14.0453 15.9291C14.6422 15.7945 15.2243 15.427 15.6717 14.9433C16.2345 14.3363 16.6646 13.5972 16.9964 12.7936C17.4355 13.7921 18.0366 14.6621 18.78 15.2527C19.6122 15.9138 20.6217 16.223 21.764 15.9677C22.3614 15.8344 22.9435 15.4652 23.3907 14.9832L23.2807 14.8812L23.3907 14.9832C23.9591 14.3704 24.391 13.6241 24.7239 12.8134C25.1634 13.8069 25.7641 14.6718 26.5062 15.2586C27.3373 15.9157 28.3448 16.2223 29.4841 15.9677L14.0453 15.9291Z" fill="#A8ABC9" stroke="#A8ABC9" stroke-width="0.3"/>
<path id="Vector_4" d="M9.97632 1.53097L9.97636 1.53118C10.1855 2.72191 10.6385 3.88395 11.2933 4.68514C11.9449 5.48229 12.7829 5.91027 13.7855 5.68687L9.97632 1.53097ZM9.97632 1.53097C9.90496 1.12816 9.59059 0.800917 9.19868 0.855894M9.97632 1.53097L0.86579 1.93356M14.7258 5.10738L14.7258 5.10737C15.5701 4.19674 16.0244 2.86859 16.3114 1.4993C16.3935 1.10402 16.712 0.794996 17.0972 0.857838L17.0976 0.857906C17.4523 0.91681 17.6841 1.26758 17.7091 1.64429C17.9255 2.81996 18.3797 3.96086 19.0304 4.74614C19.6794 5.52929 20.5112 5.94748 21.5045 5.72532L21.5045 5.72531C21.8384 5.65082 22.1764 5.43545 22.4448 5.14584L22.4449 5.14575C23.289 4.23658 23.7445 2.90705 24.0303 1.53788L24.0303 1.53779C24.106 1.17617 24.3804 0.880593 24.734 0.890112M14.7258 5.10738L32.981 1.9346L33.1278 1.96535C33.1278 1.96533 33.1278 1.96531 33.1278 1.96528C33.2178 1.53558 33.024 1.05351 32.6307 0.920737L32.6301 0.920534C32.2148 0.782305 31.84 1.10613 31.7493 1.53767L31.7493 1.53788C31.4635 2.90705 31.008 4.23658 30.1638 5.14575L30.1638 5.14584C29.8953 5.43545 29.5573 5.65082 29.2235 5.72531L29.2234 5.72532C28.2214 5.94944 27.3837 5.52185 26.7321 4.72483C26.0773 3.92381 25.624 2.76176 25.4143 1.571C25.3503 1.20584 25.0877 0.898127 24.734 0.890112M14.7258 5.10738C14.4575 5.39686 14.1184 5.61231 13.7856 5.68684L14.7258 5.10738ZM24.734 0.890112C24.7338 0.890109 24.7337 0.890105 24.7336 0.890102L24.7303 1.04007L24.7344 0.890123C24.7343 0.890119 24.7341 0.890115 24.734 0.890112ZM23.284 6.33766L23.3907 6.43667C22.9434 6.91871 22.3613 7.28795 21.764 7.42117C20.6217 7.6765 19.6122 7.36731 18.78 6.70617C18.0366 6.11558 17.4355 5.24561 16.9964 4.24711C16.6646 5.05068 16.2345 5.7898 15.6717 6.39675C15.2243 6.88047 14.6422 7.24801 14.0453 7.38263L14.045 7.3827C12.9087 7.63655 11.9039 7.33229 11.0743 6.67878C10.3338 6.09545 9.73386 5.23543 9.2937 4.2469C8.95998 5.06517 8.5248 5.81945 7.95279 6.43661L7.95261 6.43681C7.50443 6.91862 6.92351 7.28792 6.32607 7.42116L23.284 6.33766ZM23.284 6.33766L23.3907 6.43666C23.9591 5.82392 24.391 5.07763 24.7239 4.26686M23.284 6.33766L24.7239 4.26686M24.7239 4.26686C25.1634 5.26041 25.7641 6.12527 26.5062 6.71209C27.3373 7.36922 28.3448 7.67574 29.484 7.42117L24.7239 4.26686ZM0.86579 1.93356L0.865763 1.9334C0.789932 1.50016 0.998302 1.02615 1.39762 0.912903C1.81858 0.79233 2.18007 1.1359 2.25627 1.57108M0.86579 1.93356C1.14455 3.51646 1.77796 5.0415 2.70435 6.09605M0.86579 1.93356L2.70435 6.09605M2.25627 1.57108C2.25628 1.5711 2.25628 1.57113 2.25629 1.57115L2.10853 1.59702L2.25626 1.571C2.25626 1.57102 2.25627 1.57105 2.25627 1.57108ZM2.25627 1.57108C2.46599 2.76181 2.91926 3.92383 3.57408 4.72483C4.22564 5.52185 5.06338 5.94944 6.06542 5.72532L6.06549 5.72531C6.3993 5.65082 6.73732 5.43545 7.00575 5.14584L7.00585 5.14574C7.8327 4.25535 8.2856 2.96348 8.57364 1.62366C8.60525 1.2503 8.84192 0.905445 9.19868 0.855894M9.19868 0.855894C9.19863 0.855901 9.19858 0.855908 9.19853 0.855915L9.2194 1.00446L9.1988 0.855878C9.19876 0.855883 9.19872 0.855889 9.19868 0.855894ZM2.70435 6.09605C3.63419 7.15454 4.86889 7.74652 6.32603 7.42117L2.70435 6.09605Z" fill="#A8ABC9" stroke="#A8ABC9" stroke-width="0.3"/>
</g>
</svg>
