<svg width="31" height="32" viewBox="0 0 31 32" fill="none" xmlns="http://www.w3.org/2000/svg">
<g id="Group 1245">
<path id="Vector" d="M14.8951 8.71793C15.1356 13.5606 8.16807 21.7199 8.05282 21.7199C7.93188 21.7199 0.894653 13.0777 1.21052 8.71793C1.49223 4.8528 4.27525 1.70117 8.0514 1.70117C11.8318 1.70117 14.703 4.84843 14.8951 8.71793Z" stroke="#93C0EC" stroke-width="2"/>
<path id="Vector_2" d="M8.0551 12.4377C9.90958 12.4377 11.4129 10.896 11.4129 8.99423C11.4129 7.09247 9.90958 5.55078 8.0551 5.55078C6.20062 5.55078 4.69727 7.09247 4.69727 8.99423C4.69727 10.896 6.20062 12.4377 8.0551 12.4377Z" stroke="#93C0EC" stroke-width="2"/>
<path id="Vector_3" d="M3.29492 14.7917V30.045L10.0362 27.0598L17.0507 30.3763L23.5188 27.5661L29.8759 30.0392V9.41354L23.5728 7.05273L17.045 9.17717L14.8368 8.07701" stroke="#93C0EC" stroke-width="2"/>
<path id="Vector_4" d="M23.5312 7.03125V27.8627" stroke="#93C0EC" stroke-width="2"/>
<path id="Vector_5" d="M17.0449 30.2392V9.17578" stroke="#93C0EC" stroke-width="2"/>
<path id="Vector_6" d="M10.166 27.1254V18.9355" stroke="#93C0EC" stroke-width="2"/>
</g>
</svg>
