<svg width="29" height="29" viewBox="0 0 29 29" fill="none" xmlns="http://www.w3.org/2000/svg">
<g id="Group 1220">
<path id="Vector" d="M5.1049 9.19808C7.36604 9.19808 9.19906 7.36507 9.19906 5.10393C9.19906 2.84278 7.36604 1.00977 5.1049 1.00977C2.84376 1.00977 1.01074 2.84278 1.01074 5.10393C1.01074 7.36507 2.84376 9.19808 5.1049 9.19808Z" stroke="#8DC9E2" stroke-width="2"/>
<path id="Vector_2" d="M5.1049 27.8563C7.36604 27.8563 9.19906 26.0233 9.19906 23.7621C9.19906 21.501 7.36604 19.668 5.1049 19.668C2.84376 19.668 1.01074 21.501 1.01074 23.7621C1.01074 26.0233 2.84376 27.8563 5.1049 27.8563Z" stroke="#8DC9E2" stroke-width="2"/>
<path id="Vector_3" d="M23.6791 18.5282C25.9403 18.5282 27.7733 16.6951 27.7733 14.434C27.7733 12.1729 25.9403 10.3398 23.6791 10.3398C21.418 10.3398 19.585 12.1729 19.585 14.434C19.585 16.6951 21.418 18.5282 23.6791 18.5282Z" stroke="#8DC9E2" stroke-width="2"/>
<path id="Vector_4" d="M8.66504 7.08984L19.5854 14.4346" stroke="#8DC9E2" stroke-width="2"/>
<path id="Vector_5" d="M19.5854 14.8516L8.66504 22.1963" stroke="#8DC9E2" stroke-width="2"/>
</g>
</svg>
