<svg width="28" height="29" viewBox="0 0 28 29" fill="none" xmlns="http://www.w3.org/2000/svg">
<g id="Group 1220">
<path id="Vector" d="M26.7191 21.5684H1.66699V24.3702H26.7191V21.5684Z" stroke="#A5BBF6" stroke-width="2" stroke-linecap="round" stroke-linejoin="round"/>
<path id="Vector_2" d="M4.20898 21.2965C4.20898 21.2965 5.77185 20.231 5.97136 16.9592C6.1116 14.6431 6.64364 9.27505 7.28122 7.76568C8.11253 5.79656 8.9742 3.16239 14.4652 3.13492C16.4213 3.1248 19.5384 3.60913 21.1749 7.78881C22.0728 10.0789 22.4255 16.5978 22.5759 17.5245C22.7407 18.5351 22.9272 20.5968 24.0795 21.4324" stroke="#A5BBF6" stroke-width="2" stroke-linecap="round" stroke-linejoin="round"/>
<path id="Vector_3" d="M18.0962 24.3672C17.794 26.2496 16.1617 27.6895 14.1926 27.6895C12.2235 27.6895 10.5912 26.2496 10.2891 24.3672" stroke="#A5BBF6" stroke-width="2" stroke-linecap="round" stroke-linejoin="round"/>
<g id="Vector_4">
<path d="M12.2725 2.92973C12.2725 1.86999 13.1327 1.00977 14.1924 1.00977C15.2522 1.00977 16.1124 1.86999 16.1124 2.92973" fill="#A5BBF6"/>
<path d="M12.2725 2.92973C12.2725 1.86999 13.1327 1.00977 14.1924 1.00977C15.2522 1.00977 16.1124 1.86999 16.1124 2.92973" stroke="#A5BBF6" stroke-width="2" stroke-linecap="round" stroke-linejoin="round"/>
</g>
</g>
</svg>
