<svg width="121" height="141" viewBox="0 0 121 141" fill="none" xmlns="http://www.w3.org/2000/svg">
<g id="icon">
<g id="Group 1190">
<path id="Vector" d="M74.3633 114.611C88.1067 114.611 99.248 103.469 99.248 89.726C99.248 75.9826 88.1067 64.8413 74.3633 64.8413C60.6198 64.8413 49.4785 75.9826 49.4785 89.726C49.4785 103.469 60.6198 114.611 74.3633 114.611Z" stroke="#9EB7D2" stroke-width="3"/>
<path id="Vector_2" d="M74.3286 108.335C84.6896 108.335 93.0889 99.9357 93.0889 89.5747C93.0889 79.2137 84.6896 70.8145 74.3286 70.8145C63.9676 70.8145 55.5684 79.2137 55.5684 89.5747C55.5684 99.9357 63.9676 108.335 74.3286 108.335Z" stroke="#9EB7D2" stroke-width="3"/>
<path id="Vector_3" d="M105.004 125.028L89.5703 109.754L95.0673 104.227L110.501 119.501L105.004 125.028Z" stroke="#9EB7D2" stroke-width="3"/>
<path id="Vector_4" d="M99.4169 108.899L93.9199 114.421" stroke="#9EB7D2" stroke-width="3"/>
<g id="Group 1215">
<path id="Vector_5" d="M80.4895 65.4893V35.7437L60.6118 15.866H8.5V109.345H58.9314" stroke="#9EB7D2" stroke-width="3"/>
<path id="Vector_6" d="M59.0898 15.866V35.7437H78.9676" stroke="#9EB7D2" stroke-width="3"/>
</g>
<g id="Group 1214">
<path id="Vector_7" d="M19.5 51.3806H68.6549" stroke="#9EB7D2" stroke-width="3"/>
<path id="Vector_8" d="M19.5 68.5701H47.1655" stroke="#9EB7D2" stroke-width="3"/>
</g>
<path id="?" d="M71.295 85.6088L67.96 84.5278C68.834 81.9288 71.065 80.1118 74.308 80.1118C77.321 80.1118 80.564 82.0438 80.564 85.6318C80.564 88.2078 79.299 89.8638 76.838 91.0598C75.55 91.7038 75.159 92.0948 75.136 92.9228L75.113 93.8658H71.755L71.732 92.5318C71.709 90.5538 72.192 89.6108 74.653 88.4608C76.217 87.7018 76.953 86.9658 76.953 85.6318C76.953 84.1368 75.711 83.4008 74.308 83.4008C72.698 83.4008 71.893 84.1368 71.295 85.6088ZM73.434 100.283C72.238 100.283 71.272 99.3168 71.272 98.1208C71.272 96.9248 72.238 95.9588 73.434 95.9588C74.63 95.9588 75.596 96.9248 75.596 98.1208C75.596 99.3168 74.63 100.283 73.434 100.283Z" fill="#9EB7D2"/>
</g>
</g>
</svg>
