<svg width="119" height="34" viewBox="0 0 119 34" fill="none" xmlns="http://www.w3.org/2000/svg">
<g id="logo">
<g id="emblem">
<path id="Vector" d="M7.52539 7.52582V19.4185C7.52539 20.1153 7.98995 21.6948 8.73324 23.2279C9.44001 24.9303 10.4295 26.5009 11.6599 27.8734C12.9519 29.2132 14.4211 30.3699 16.0268 31.3111C17.1664 31.9918 18.1865 32.855 19.0464 33.8662C19.9277 32.8586 20.9625 31.9963 22.1125 31.3111C23.7097 30.3576 25.1775 29.2022 26.4793 27.8734C27.873 26.4333 28.895 24.3428 29.406 23.2279C29.917 22.1129 30.6139 20.1153 30.6139 19.4185V7.52582L19.0464 0L7.52539 7.52582Z" fill="#001A60"/>
<path id="Vector_2" d="M30.0097 7.89758H30.1026L19.0461 0.604034L8.03613 7.80467V19.4186C8.03613 20.58 9.75499 25.1791 12.0313 27.5483C13.3071 28.8283 14.7437 29.937 16.3052 30.8467C17.3211 31.4732 18.2437 32.2395 19.0461 33.123C19.8777 32.2521 20.814 31.4875 21.8335 30.8467C23.395 29.937 24.8317 28.8283 26.1074 27.5483C28.3837 25.1791 30.1026 20.58 30.1026 19.4186V7.85113H30.0097V7.89758Z" fill="url(#paint0_radial_739_20454)"/>
<path id="Vector_3" d="M8.82617 8.31548V19.5113C9.00741 20.6599 9.36797 21.7729 9.89465 22.8097C10.5653 24.3656 11.4743 25.8076 12.5891 27.0836C13.8295 28.3188 15.2183 29.3955 16.7236 30.289C17.5614 30.7888 18.3406 31.381 19.0464 32.0543C19.7788 31.3925 20.572 30.8015 21.4157 30.289C22.921 29.3955 24.3098 28.3188 25.5502 27.0836C26.665 25.8076 27.574 24.3656 28.2447 22.8097C28.748 21.7634 29.1074 20.6539 29.3131 19.5113V8.31548L19.0464 1.62585L8.82617 8.31548Z" fill="url(#paint1_linear_739_20454)"/>
<path id="Vector_4" d="M8.03613 7.80467H8.12904L19.0461 0.789858V0.604034L8.03613 7.80467Z" fill="#FEDA5D"/>
<path id="Vector_5" d="M30.0094 7.89758H30.1024L19.0459 0.604034V0.789858L30.0094 7.89758Z" fill="#DFB840"/>
<path id="Vector_6" d="M29.3591 8.31568L29.5449 8.22276L19.0459 1.34732V1.62605L29.3591 8.31568Z" fill="#D39428"/>
<path id="Vector_7" d="M8.59375 8.17631L8.77957 8.26922L19.0463 1.62605V1.34732L8.59375 8.17631Z" fill="#D39428"/>
<path id="Vector_8" d="M16.677 30.3354C15.1674 29.4688 13.7906 28.3892 12.5889 27.1299C10.452 24.9465 8.77957 20.5797 8.77957 19.5576V8.31535L8.59375 8.22244V19.5112C8.59375 20.0222 8.9654 21.323 9.70869 22.9489C10.3807 24.5148 11.3068 25.9589 12.4496 27.2228C13.6762 28.4868 15.0668 29.5805 16.5841 30.4747C17.4744 31.0321 18.3002 31.6865 19.0463 32.4259V32.1936C18.3334 31.482 17.538 30.8581 16.677 30.3354Z" fill="#FEDA5D"/>
<path id="Vector_9" d="M16.677 30.3354C15.1674 29.4688 13.7906 28.3892 12.5889 27.1299C10.452 24.9465 8.77957 20.5797 8.77957 19.5576V8.31535L8.59375 8.22244V19.5112C8.59375 20.0222 8.9654 21.323 9.70869 22.9489C10.3807 24.5148 11.3068 25.9589 12.4496 27.2228C13.6762 28.4868 15.0668 29.5805 16.5841 30.4747C17.4744 31.0321 18.3002 31.6865 19.0463 32.4259V32.1936C18.3334 31.482 17.538 30.8581 16.677 30.3354Z" fill="url(#paint2_linear_739_20454)"/>
<path id="Vector_10" d="M29.3591 19.5576C29.3591 20.5797 27.6867 24.9465 25.5497 27.1299C24.3285 28.3675 22.9548 29.4447 21.4616 30.3354C20.5937 30.8687 19.784 31.4915 19.0459 32.1936V32.4259C19.8177 31.6967 20.6578 31.0433 21.5545 30.4747C23.0719 29.5805 24.4625 28.4868 25.6891 27.2228C26.8161 25.9469 27.7405 24.5054 28.4299 22.9489C29.1732 21.323 29.5449 20.0222 29.5449 19.5112V8.22244L29.3591 8.31535V19.5576Z" fill="#FEDA5D"/>
<path id="Vector_11" d="M15.2832 5.38845H15.7478C15.9082 5.37651 16.0688 5.40864 16.2123 5.48136C16.3015 5.51991 16.3764 5.58547 16.4264 5.66881C16.4764 5.75214 16.499 5.84906 16.4911 5.94592C16.4824 6.05109 16.4482 6.15257 16.3916 6.24159C16.3349 6.33062 16.2575 6.40453 16.1659 6.45694H15.6548V7.10731H15.2832V5.38845ZM15.6548 5.66719V6.22466H15.8407C15.884 6.22834 15.9275 6.22185 15.9678 6.20572C16.0081 6.18959 16.0441 6.16426 16.073 6.13174V5.94592C16.073 5.7601 16.0265 5.66719 15.8407 5.66719H15.6548Z" fill="white"/>
<path id="Vector_12" d="M17.3736 5.38849C17.8382 5.38849 18.1169 5.71368 18.1169 6.27115C18.1287 6.42371 18.1007 6.57672 18.0355 6.71517C17.9704 6.85363 17.8703 6.97276 17.7453 7.06089C17.6362 7.13479 17.5046 7.16771 17.3736 7.15381C17.2685 7.16742 17.1616 7.15313 17.0638 7.11235C16.9659 7.07158 16.8805 7.00577 16.8161 6.92153C16.6854 6.73058 16.6202 6.50234 16.6303 6.27115C16.6192 6.112 16.6472 5.95255 16.712 5.80677C16.7768 5.66099 16.8764 5.53332 17.002 5.43495L17.3736 5.38849ZM17.3736 5.62077C17.3147 5.62353 17.2576 5.64229 17.2085 5.67503C17.1594 5.70776 17.1201 5.75324 17.0949 5.80659C17.0279 5.95203 16.9961 6.11116 17.002 6.27115C17.002 6.54988 17.0484 6.73571 17.1878 6.82862H17.3736C17.6059 6.82862 17.6988 6.64279 17.6988 6.22469C17.7125 6.08361 17.6967 5.94123 17.6523 5.80659C17.6323 5.74959 17.5943 5.70065 17.544 5.66713C17.4937 5.63362 17.4339 5.61735 17.3736 5.62077Z" fill="white"/>
<path id="Vector_13" d="M18.3486 5.38849H18.7203V6.82862H19.3242V7.15381H18.3951L18.3486 5.38849Z" fill="white"/>
<path id="Vector_14" d="M19.5566 5.38849H19.9283V7.15381H19.5566V5.38849Z" fill="white"/>
<path id="Vector_15" d="M21.4149 5.48197L21.2291 5.71425L20.9503 5.62134L20.6716 5.7607C20.5908 5.90128 20.5582 6.06442 20.5787 6.22526C20.5626 6.38166 20.5784 6.53971 20.6252 6.68982C20.6581 6.74681 20.7055 6.79404 20.7626 6.82669C20.8198 6.85934 20.8845 6.87623 20.9503 6.87564H21.2291C21.2291 6.86332 21.234 6.8515 21.2427 6.84279C21.2514 6.83408 21.2632 6.82918 21.2755 6.82918L21.4149 7.06146C21.2785 7.1555 21.116 7.20425 20.9503 7.20083C20.8452 7.21445 20.7383 7.20015 20.6405 7.15938C20.5426 7.1186 20.4572 7.05279 20.3929 6.96855C20.2418 6.8039 20.1588 6.58808 20.1606 6.36463C20.15 6.16903 20.1986 5.97478 20.3 5.80716C20.347 5.70781 20.4155 5.62013 20.5005 5.55043C20.5855 5.48073 20.6849 5.43075 20.7915 5.40409C20.8981 5.37743 21.0094 5.37475 21.1172 5.39625C21.225 5.41775 21.3267 5.4629 21.4149 5.52843V5.48197Z" fill="white"/>
<path id="Vector_16" d="M21.6475 5.38849H22.6695V5.66722H22.0191V6.08532H22.4837V6.36406H22.0191V6.82862H22.6695V7.15381H21.6475V5.38849Z" fill="white"/>
<path id="Vector_17" d="M20.3926 11.8001C20.3982 11.9203 20.4284 12.0381 20.4812 12.1462C20.5341 12.2544 20.6085 12.3505 20.6998 12.4289C20.7912 12.5072 20.8976 12.566 21.0126 12.6017C21.1275 12.6373 21.2485 12.6491 21.3681 12.6363C21.4841 12.6426 21.6001 12.6259 21.7096 12.5873C21.8191 12.5486 21.9199 12.4887 22.0062 12.411C22.0925 12.3334 22.1627 12.2394 22.2126 12.1346C22.2626 12.0298 22.2913 11.9161 22.2973 11.8001C22.2853 11.5619 22.1822 11.3373 22.0092 11.173C21.8363 11.0087 21.6067 10.9172 21.3681 10.9175C21.2461 10.9112 21.124 10.9291 21.0089 10.9701C20.8938 11.0111 20.7879 11.0744 20.6972 11.1564C20.6066 11.2384 20.5331 11.3375 20.4808 11.4479C20.4285 11.5584 20.3985 11.6781 20.3926 11.8001ZM20.95 11.8001C20.9281 11.7371 20.9216 11.6698 20.931 11.6037C20.9404 11.5377 20.9655 11.4749 21.0041 11.4205C21.0428 11.3661 21.0939 11.3218 21.1532 11.2912C21.2125 11.2606 21.2782 11.2446 21.3449 11.2446C21.4116 11.2446 21.4774 11.2606 21.5367 11.2912C21.5959 11.3218 21.647 11.3661 21.6857 11.4205C21.7244 11.4749 21.7494 11.5377 21.7588 11.6037C21.7683 11.6698 21.7617 11.7371 21.7398 11.8001C21.7617 11.8631 21.7683 11.9305 21.7588 11.9965C21.7494 12.0626 21.7244 12.1254 21.6857 12.1798C21.647 12.2342 21.5959 12.2785 21.5367 12.3091C21.4774 12.3397 21.4116 12.3557 21.3449 12.3557C21.2782 12.3557 21.2125 12.3397 21.1532 12.3091C21.0939 12.2785 21.0428 12.2342 21.0041 12.1798C20.9655 12.1254 20.9404 12.0626 20.931 11.9965C20.9216 11.9305 20.9281 11.8631 20.95 11.8001Z" fill="white"/>
<path id="Vector_18" d="M21.88 8.82645V9.38392H21.1831V9.01227H19.6037V9.38392H20.6257V9.47683C20.6276 9.60999 20.5993 9.74184 20.543 9.86252C20.4866 9.9832 20.4037 10.0896 20.3005 10.1737C20.0838 10.3789 19.807 10.5092 19.5107 10.5453L19.7895 10.8705C20.163 10.8152 20.5069 10.6351 20.765 10.3595C20.9256 10.1832 21.0517 9.97836 21.1367 9.75556H21.88V10.0343H21.1367V10.4059H21.88V10.824H22.4375V8.82645H21.88Z" fill="white"/>
<path id="Vector_19" d="M12.171 8.7803V9.33777H11.4277V9.70942H11.7065C11.6534 9.84294 11.622 9.98409 11.6136 10.1275C11.6136 10.3493 11.7017 10.562 11.8585 10.7188C12.0153 10.8756 12.228 10.9637 12.4498 10.9637C12.6715 10.9637 12.8842 10.8756 13.041 10.7188C13.1979 10.562 13.286 10.3493 13.286 10.1275C13.2828 9.97727 13.2342 9.83149 13.1466 9.70942H13.4253V9.33777H12.7285V8.7803H12.171ZM12.171 10.174C12.171 9.89524 12.3104 9.70942 12.4498 9.70942C12.5891 9.70942 12.7285 9.89524 12.7285 10.174C12.7285 10.4527 12.5891 10.5921 12.4498 10.5921C12.3104 10.5921 12.171 10.4063 12.171 10.174Z" fill="white"/>
<path id="Vector_20" d="M14.3542 8.82645V9.94138H14.0755V8.82645H13.5645V12.5429H14.0755V10.3595H14.3542V12.5429H14.8188V8.82645H14.3542Z" fill="white"/>
<path id="Vector_21" d="M17.791 8.82645V10.824H18.3485V10.4059H18.8595V9.98784H18.3485V9.66265H18.8595V9.291H18.3485V8.82645H17.791Z" fill="white"/>
<path id="Vector_22" d="M16.3052 11.7997C16.2865 11.9955 16.3274 12.1925 16.4226 12.3646C16.5178 12.5368 16.6628 12.6762 16.8386 12.7644C17.0144 12.8527 17.2128 12.8858 17.4077 12.8593C17.6026 12.8328 17.785 12.748 17.9309 12.616C18.0768 12.484 18.1793 12.311 18.2251 12.1197C18.2709 11.9284 18.2578 11.7277 18.1875 11.544C18.1172 11.3602 17.993 11.202 17.8312 11.0902C17.6694 10.9783 17.4775 10.9179 17.2808 10.917C17.1573 10.904 17.0325 10.9171 16.9144 10.9556C16.7964 10.994 16.6877 11.057 16.5957 11.1403C16.5036 11.2236 16.4301 11.3254 16.3801 11.439C16.33 11.5526 16.3045 11.6755 16.3052 11.7997ZM16.8627 11.7997C16.8627 11.7448 16.8735 11.6904 16.8945 11.6397C16.9155 11.589 16.9463 11.5429 16.9851 11.5041C17.024 11.4652 17.0701 11.4344 17.1208 11.4134C17.1715 11.3924 17.2259 11.3816 17.2808 11.3816C17.3357 11.3816 17.3901 11.3924 17.4408 11.4134C17.4915 11.4344 17.5376 11.4652 17.5764 11.5041C17.6153 11.5429 17.646 11.589 17.6671 11.6397C17.6881 11.6904 17.6989 11.7448 17.6989 11.7997C17.6989 11.8546 17.6881 11.909 17.6671 11.9597C17.646 12.0104 17.6153 12.0565 17.5764 12.0953C17.5376 12.1342 17.4915 12.165 17.4408 12.186C17.3901 12.207 17.3357 12.2178 17.2808 12.2178C17.2259 12.2178 17.1715 12.207 17.1208 12.186C17.0701 12.165 17.024 12.1342 16.9851 12.0953C16.9463 12.0565 16.9155 12.0104 16.8945 11.9597C16.8735 11.909 16.8627 11.8546 16.8627 11.7997Z" fill="white"/>
<path id="Vector_23" d="M15.5156 9.80256C15.5156 10.049 15.6135 10.2853 15.7878 10.4595C15.962 10.6338 16.1983 10.7317 16.4447 10.7317C16.6912 10.7317 16.9275 10.6338 17.1017 10.4595C17.276 10.2853 17.3739 10.049 17.3739 9.80256C17.3739 9.55614 17.276 9.31982 17.1017 9.14558C16.9275 8.97133 16.6912 8.87344 16.4447 8.87344C16.1983 8.87344 15.962 8.97133 15.7878 9.14558C15.6135 9.31982 15.5156 9.55614 15.5156 9.80256ZM16.0731 9.80256C16.0731 9.70399 16.1122 9.60946 16.1819 9.53976C16.2516 9.47007 16.3462 9.43091 16.4447 9.43091C16.5433 9.43091 16.6378 9.47007 16.7075 9.53976C16.7772 9.60946 16.8164 9.70399 16.8164 9.80256C16.8164 9.90112 16.7772 9.99565 16.7075 10.0654C16.6378 10.135 16.5433 10.1742 16.4447 10.1742C16.3462 10.1742 16.2516 10.135 16.1819 10.0654C16.1122 9.99565 16.0731 9.90112 16.0731 9.80256Z" fill="white"/>
<path id="Vector_24" d="M25.5957 8.82645V10.824H26.1532V9.98784H26.6642V9.56974H26.1532V8.82645H25.5957Z" fill="white"/>
<path id="Vector_25" d="M23.924 8.77979V9.19789H23.2736V9.616H23.924C23.9177 9.72297 23.8898 9.82755 23.8419 9.92339C23.794 10.0192 23.7271 10.1043 23.6452 10.1735C23.5879 10.242 23.5171 10.298 23.4371 10.338C23.3572 10.378 23.2699 10.401 23.1807 10.4057L23.32 10.5916L23.4594 10.7309C23.7694 10.6471 24.0354 10.4476 24.2027 10.1735C24.2027 10.127 24.2027 10.127 24.2491 10.127H24.2956C24.4723 10.3924 24.7347 10.5891 25.0389 10.6845C25.1199 10.5664 25.2133 10.4574 25.3176 10.3593C25.1319 10.3215 24.9572 10.242 24.8066 10.127C24.6604 9.97302 24.5633 9.77893 24.5279 9.56954H25.1783V9.15144H24.5279V8.73334L23.924 8.77979Z" fill="white"/>
<path id="Vector_26" d="M23.7842 11.0102V11.3354H25.596V11.6141H23.7842V12.218C23.7842 12.4503 23.8771 12.5432 24.1094 12.5432H26.1999V12.218H24.3881V11.9858H26.107C26.1534 11.9858 26.1534 11.9858 26.1534 11.9393V11.0566H23.7842V11.0102Z" fill="white"/>
<path id="Vector_27" d="M19.0461 32.9838L18.9068 32.798C18.1283 32.0434 17.2718 31.3738 16.3517 30.8004C14.786 29.9179 13.3611 28.8061 12.1242 27.502C10.777 26.1548 9.80145 24.1572 9.29044 23.0887C8.77942 22.0203 8.12904 20.1156 8.12904 19.4652V7.89774H8.03613V19.4188C8.03613 20.5801 9.75499 25.1793 12.0313 27.5485C13.3071 28.8284 14.7437 29.9372 16.3052 30.8469C17.3211 31.4734 18.2437 32.2397 19.0461 33.1232V32.9838Z" fill="url(#paint3_linear_739_20454)"/>
<path id="Vector_28" d="M19.0459 32.9838L19.2317 32.798C20.0102 32.0434 20.8667 31.3738 21.7868 30.8004C23.3444 29.9058 24.7677 28.7953 26.0143 27.502C27.1717 26.179 28.1267 24.6918 28.8481 23.0887C29.4984 21.5557 30.0094 20.1156 30.0094 19.4652V7.89774H30.1024V19.4188C30.1024 20.5801 28.3835 25.1793 26.1072 27.5485C24.8314 28.8284 23.3947 29.9372 21.8332 30.8469C20.8137 31.4877 19.8775 32.2523 19.0459 33.1232V32.9838Z" fill="#D39428"/>
<path id="Vector_29" d="M19.046 1.62585L8.7793 8.31548V19.5578C8.7793 20.5798 10.4517 24.9466 12.5887 27.13C13.7903 28.3893 15.1672 29.4689 16.6768 30.3355C17.5378 30.8582 18.3331 31.4821 19.046 32.1937C19.7841 31.4916 20.5938 30.8688 21.4617 30.3355C22.9549 29.4448 24.3286 28.3677 25.5498 27.13C27.6868 24.9466 29.3592 20.5798 29.3592 19.5578V8.31548L19.046 1.62585ZM29.2198 19.5578C29.2198 20.5798 27.5474 24.9002 25.4569 27.0371C24.2552 28.2964 22.8784 29.376 21.3688 30.2426C20.5323 30.7443 19.7534 31.3363 19.046 32.0079C18.3547 31.3373 17.5913 30.7452 16.7697 30.2426C15.2601 29.376 13.8832 28.2964 12.6816 27.0371C10.5446 24.9002 8.91866 20.5798 8.91866 19.5578V8.40839L19.046 1.76522L29.2198 8.40839V19.5578Z" fill="#000044"/>
<path id="Vector_30" d="M19.0453 18.257C18.2827 18.257 17.5372 18.4831 16.9031 18.9068C16.269 19.3305 15.7748 19.9327 15.483 20.6372C15.1911 21.3418 15.1148 22.1171 15.2635 22.865C15.4123 23.613 15.7796 24.3 16.3188 24.8393C16.858 25.3785 17.5451 25.7457 18.293 25.8945C19.041 26.0433 19.8163 25.9669 20.5208 25.6751C21.2254 25.3833 21.8276 24.889 22.2513 24.255C22.675 23.6209 22.9011 22.8754 22.9011 22.1128C22.9011 21.0902 22.4949 20.1094 21.7718 19.3863C21.0487 18.6632 20.0679 18.257 19.0453 18.257Z" fill="#FFD900"/>
<path id="Vector_31" d="M13.1455 21.9732C13.3956 22.1582 13.6846 22.2836 13.9906 22.34C14.2965 22.3963 14.6112 22.3821 14.9108 22.2984V22.1126C14.9163 21.654 14.9947 21.1993 15.1431 20.7654C14.5717 21.3067 13.8904 21.7187 13.1455 21.9732Z" fill="url(#paint4_linear_739_20454)"/>
<path id="Vector_32" d="M12.9141 22.5312C13.0316 23.5607 13.3139 24.5646 13.7503 25.5044C13.7695 25.549 13.8023 25.5864 13.844 25.6114C13.8857 25.6364 13.9341 25.6477 13.9825 25.6438C14.682 25.5302 15.3303 25.2061 15.8408 24.7146C15.328 24.109 15.0049 23.3658 14.9117 22.5777C14.234 22.7286 13.5246 22.6296 12.9141 22.299V22.4848V22.5312Z" fill="#FFD900"/>
<path id="Vector_33" d="M16.1194 28.4776C16.8627 27.8736 17.2808 26.3406 17.4201 25.9225C16.8751 25.7079 16.395 25.3558 16.0265 24.9005C15.4794 25.4613 14.7593 25.8213 13.9824 25.9225C14.4514 26.874 15.0799 27.7382 15.8406 28.4776C15.8581 28.4973 15.8795 28.5132 15.9036 28.524C15.9276 28.5349 15.9537 28.5405 15.98 28.5405C16.0064 28.5405 16.0324 28.5349 16.0565 28.524C16.0805 28.5132 16.1019 28.4973 16.1194 28.4776Z" fill="#FFD900"/>
<path id="Vector_34" d="M15.8399 19.4649C15.9636 19.3213 16.0725 19.1657 16.1651 19.0004L15.5147 18.861H15.3754C14.4927 19.6043 13.099 20.7657 11.5195 21.1373C11.7508 21.4153 12.066 21.6108 12.4177 21.6945C12.7695 21.7783 13.1389 21.7458 13.4707 21.6019C14.3032 21.1763 15.0326 20.5738 15.6076 19.8366L15.8399 19.4649Z" fill="url(#paint5_linear_739_20454)"/>
<path id="Vector_35" d="M22.0195 28.4776C22.0322 28.4967 22.0495 28.5125 22.0697 28.5233C22.09 28.5342 22.1127 28.5399 22.1356 28.5399C22.1586 28.5399 22.1813 28.5342 22.2016 28.5233C22.2218 28.5125 22.2391 28.4967 22.2518 28.4776C23.0412 27.7528 23.6874 26.8861 24.1565 25.9225C23.3739 25.8404 22.6477 25.4772 22.1124 24.9005C21.7301 25.341 21.2539 25.6903 20.7188 25.9225C20.8117 26.3406 21.2762 27.8736 22.0195 28.4776Z" fill="#FFD900"/>
<path id="Vector_36" d="M19.418 26.2477V26.5729C19.4644 27.4556 19.4644 29.9177 19.6038 30.3358C20.4248 29.9429 21.1903 29.443 21.8801 28.8492C21.5549 28.5705 20.951 27.9201 20.3935 26.0154C20.0836 26.1467 19.7538 26.2252 19.418 26.2477Z" fill="#FFD900"/>
<path id="Vector_37" d="M24.3884 25.5041C24.8037 24.5566 25.0851 23.556 25.2246 22.5309V22.3451C24.5959 22.6713 23.8736 22.7698 23.1805 22.6238C23.0836 23.4025 22.7787 24.1407 22.2979 24.7608C22.801 25.2626 23.4528 25.5885 24.1561 25.6899L24.3884 25.5041Z" fill="#FFD900"/>
<path id="Vector_38" d="M18.5351 30.3355C18.6745 29.9174 18.6745 27.4553 18.6745 26.5726V26.2474L17.7454 26.0616C17.1879 27.9198 16.584 28.6166 16.2588 28.8489C16.9486 29.4427 17.7141 29.9426 18.5351 30.3355Z" fill="#FFD900"/>
<path id="Vector_39" d="M12.31 17.3747L12.0312 17.1888C11.0557 16.492 10.4517 15.981 10.4517 15.981C7.75446 15.2171 5.10229 14.302 2.50781 13.2401C2.50781 13.2401 2.50781 16.7243 5.62034 17.2818C7.84723 17.4254 10.08 17.4564 12.31 17.3747Z" fill="url(#paint6_linear_739_20454)"/>
<path id="Vector_40" d="M10.5914 15.7482C10.5914 15.7482 13.1465 18.2568 16.3519 18.7678L17.0487 17.7922C14.3079 17.5135 12.589 15.9804 11.4276 14.819C11.053 14.4094 10.6135 14.0641 10.1268 13.797L0.417606 7.61841C0.417606 7.61841 -0.093407 11.6136 2.50811 12.8679L2.74039 12.9608C5.29564 14.0555 7.91794 14.9865 10.5914 15.7482Z" fill="url(#paint7_linear_739_20454)"/>
<path id="Vector_41" d="M12.6818 17.6068C11.0559 17.6997 8.87244 17.6997 5.99219 17.6068C6.2186 18.2298 6.64982 18.7576 7.21527 19.1036C7.78072 19.4496 8.44689 19.5934 9.10472 19.5115C10.7443 19.2873 12.3509 18.8661 13.8897 18.2572C13.4643 18.0855 13.0592 17.8674 12.6818 17.6068Z" fill="url(#paint8_linear_739_20454)"/>
<path id="Vector_42" d="M15.0967 18.7214L14.1676 18.3962C12.5495 19.0485 10.8681 19.5311 9.15039 19.8363C9.2978 20.1852 9.55352 20.4775 9.87977 20.6699C10.206 20.8623 10.5855 20.9446 10.9622 20.9048C12.3094 20.8584 13.8424 19.8363 15.0967 18.7214Z" fill="url(#paint9_linear_739_20454)"/>
<path id="Vector_43" d="M24.9917 21.9732C24.7416 22.1582 24.4526 22.2836 24.1467 22.34C23.8408 22.3963 23.526 22.3821 23.2264 22.2984V22.1126C23.221 21.654 23.1426 21.1993 22.9941 20.7654C23.5656 21.3067 24.2469 21.7187 24.9917 21.9732Z" fill="url(#paint10_linear_739_20454)"/>
<path id="Vector_44" d="M22.2978 19.4649C22.1742 19.3213 22.0652 19.1657 21.9727 19.0004L22.623 18.861H22.7159C23.6451 19.6043 25.0387 20.7657 26.6182 21.1373C26.3869 21.4153 26.0718 21.6108 25.72 21.6945C25.3683 21.7783 24.9988 21.7458 24.6671 21.6019C23.8266 21.1885 23.0947 20.5839 22.5301 19.8366L22.2978 19.4649Z" fill="url(#paint11_linear_739_20454)"/>
<path id="Vector_45" d="M25.7822 17.3747L26.1074 17.1888C27.083 16.492 27.6869 15.981 27.6869 15.981C30.3842 15.2171 33.0364 14.302 35.6308 13.2401C35.6308 13.2401 35.6308 16.7243 32.4718 17.2818C30.245 17.4256 28.0122 17.4566 25.7822 17.3747Z" fill="url(#paint12_linear_739_20454)"/>
<path id="Vector_46" d="M27.5472 15.7482C27.5472 15.7482 24.9921 18.2568 21.7867 18.7678C21.538 18.4546 21.3054 18.129 21.0898 17.7922C23.8307 17.5135 25.5496 15.9804 26.6645 14.819C27.0613 14.4145 27.5152 14.0701 28.0117 13.797L37.721 7.61841H37.6745C37.6745 7.61841 38.232 11.6136 35.6305 12.8679L35.3517 12.9608C32.8125 14.056 30.2057 14.987 27.5472 15.7482Z" fill="url(#paint13_linear_739_20454)"/>
<path id="Vector_47" d="M25.4569 17.6068C27.0828 17.6997 29.2662 17.6997 32.1465 17.6068H32.1C31.881 18.2348 31.4512 18.7677 30.8839 19.1149C30.3165 19.4621 29.6465 19.6022 28.9875 19.5115C27.3641 19.2815 25.7736 18.8605 24.249 18.2572C24.6744 18.0855 25.0794 17.8674 25.4569 17.6068Z" fill="url(#paint14_linear_739_20454)"/>
<path id="Vector_48" d="M23.041 18.7214L23.9701 18.3962C25.5882 19.0485 27.2696 19.5311 28.9873 19.8363C28.8399 20.1852 28.5842 20.4775 28.258 20.6699C27.9317 20.8623 27.5522 20.9446 27.1756 20.9048C25.8284 20.8584 24.2953 19.8363 23.041 18.7214Z" fill="url(#paint15_linear_739_20454)"/>
<path id="Vector_49" d="M22.9011 22.1128C22.9011 22.8754 22.675 23.6209 22.2513 24.255C21.8276 24.889 21.2254 25.3833 20.5208 25.6751C19.8163 25.9669 19.041 26.0433 18.293 25.8945C17.5451 25.7457 16.858 25.3785 16.3188 24.8393C15.7796 24.3 15.4123 23.613 15.2635 22.865C15.1148 22.1171 15.1911 21.3418 15.483 20.6372C15.7748 19.9327 16.269 19.3305 16.9031 18.9068C17.5372 18.4831 18.2827 18.257 19.0453 18.257C19.5516 18.257 20.053 18.3567 20.5208 18.5505C20.9886 18.7442 21.4137 19.0283 21.7718 19.3863C22.1298 19.7443 22.4138 20.1694 22.6076 20.6372C22.8014 21.105 22.9011 21.6064 22.9011 22.1128Z" fill="url(#paint16_linear_739_20454)"/>
<path id="Vector_50" d="M19.0458 19.1866C18.9802 19.1755 18.9207 19.1413 18.8781 19.0902C18.8355 19.0391 18.8126 18.9744 18.8135 18.9079C18.8135 18.8463 18.838 18.7872 18.8815 18.7436C18.9251 18.7001 18.9842 18.6756 19.0458 18.6756C19.1123 18.6747 19.177 18.6976 19.2281 18.7402C19.2792 18.7828 19.3134 18.8423 19.3245 18.9079C19.3245 18.9818 19.2951 19.0527 19.2429 19.105C19.1906 19.1572 19.1197 19.1866 19.0458 19.1866Z" fill="#001A60"/>
<path id="Vector_51" d="M21.3227 20.1153C21.2488 20.1153 21.1779 20.086 21.1256 20.0337C21.0733 19.9814 21.0439 19.9105 21.0439 19.8366C21.055 19.771 21.0892 19.7115 21.1403 19.6689C21.1915 19.6263 21.2561 19.6034 21.3227 19.6043C21.3843 19.6043 21.4434 19.6288 21.4869 19.6723C21.5305 19.7159 21.555 19.775 21.555 19.8366C21.5559 19.9031 21.533 19.9678 21.4904 20.0189C21.4478 20.07 21.3883 20.1042 21.3227 20.1153Z" fill="#001A60"/>
<path id="Vector_52" d="M22.2514 22.3452C22.1849 22.3461 22.1202 22.3232 22.0691 22.2806C22.0179 22.238 21.9837 22.1785 21.9727 22.1129C21.9727 22.039 22.002 21.9681 22.0543 21.9158C22.1066 21.8635 22.1775 21.8342 22.2514 21.8342C22.317 21.8453 22.3765 21.8794 22.4191 21.9306C22.4617 21.9817 22.4846 22.0464 22.4837 22.1129C22.4837 22.1745 22.4592 22.2336 22.4156 22.2771C22.3721 22.3207 22.313 22.3452 22.2514 22.3452Z" fill="#001A60"/>
<path id="Vector_53" d="M21.3227 24.6213C21.2488 24.6213 21.1779 24.5919 21.1256 24.5396C21.0733 24.4874 21.0439 24.4165 21.0439 24.3425C21.055 24.2769 21.0892 24.2174 21.1403 24.1748C21.1915 24.1322 21.2561 24.1093 21.3227 24.1103C21.3843 24.1103 21.4434 24.1347 21.4869 24.1783C21.5305 24.2219 21.555 24.2809 21.555 24.3425C21.5559 24.4091 21.533 24.4737 21.4904 24.5249C21.4478 24.576 21.3883 24.6102 21.3227 24.6213Z" fill="#001A60"/>
<path id="Vector_54" d="M19.0458 25.5508C18.9802 25.5397 18.9207 25.5055 18.8781 25.4544C18.8355 25.4033 18.8126 25.3386 18.8135 25.2721C18.8135 25.2105 18.838 25.1514 18.8815 25.1078C18.9251 25.0643 18.9842 25.0398 19.0458 25.0398C19.1123 25.0389 19.177 25.0618 19.2281 25.1044C19.2792 25.147 19.3134 25.2065 19.3245 25.2721C19.3245 25.346 19.2951 25.4169 19.2429 25.4692C19.1906 25.5214 19.1197 25.5508 19.0458 25.5508Z" fill="#001A60"/>
<path id="Vector_55" d="M16.8158 24.6213C16.7419 24.6213 16.671 24.5919 16.6187 24.5396C16.5665 24.4874 16.5371 24.4165 16.5371 24.3425C16.5482 24.2769 16.5824 24.2174 16.6335 24.1748C16.6846 24.1322 16.7493 24.1093 16.8158 24.1103C16.8774 24.1103 16.9365 24.1347 16.9801 24.1783C17.0236 24.2219 17.0481 24.2809 17.0481 24.3425C17.0491 24.4091 17.0261 24.4737 16.9835 24.5249C16.9409 24.576 16.8815 24.6102 16.8158 24.6213Z" fill="#001A60"/>
<path id="Vector_56" d="M15.8871 22.3452C15.8206 22.3461 15.7559 22.3232 15.7048 22.2806C15.6537 22.238 15.6195 22.1785 15.6084 22.1129C15.6084 22.039 15.6378 21.9681 15.69 21.9158C15.7423 21.8635 15.8132 21.8342 15.8871 21.8342C15.9527 21.8453 16.0122 21.8794 16.0548 21.9306C16.0974 21.9817 16.1203 22.0464 16.1194 22.1129C16.1194 22.1745 16.0949 22.2336 16.0514 22.2771C16.0078 22.3207 15.9487 22.3452 15.8871 22.3452Z" fill="#001A60"/>
<path id="Vector_57" d="M16.8158 20.1153C16.7419 20.1153 16.671 20.086 16.6187 20.0337C16.5665 19.9814 16.5371 19.9105 16.5371 19.8366C16.5482 19.771 16.5824 19.7115 16.6335 19.6689C16.6846 19.6263 16.7493 19.6034 16.8158 19.6043C16.8774 19.6043 16.9365 19.6288 16.9801 19.6723C17.0236 19.7159 17.0481 19.775 17.0481 19.8366C17.0491 19.9031 17.0261 19.9678 16.9835 20.0189C16.9409 20.07 16.8815 20.1042 16.8158 20.1153Z" fill="#001A60"/>
<path id="Vector_58" d="M21.6008 22.1597C21.5885 22.8373 21.3075 23.4823 20.8196 23.9528C20.3317 24.4232 19.6769 24.6806 18.9993 24.6683C18.3216 24.6559 17.6766 24.3749 17.2062 23.8871C16.7357 23.3992 16.4783 22.7444 16.4907 22.0667C16.5147 21.393 16.7994 20.7549 17.2847 20.287C17.77 19.819 18.418 19.5577 19.0922 19.5581C19.4296 19.5579 19.7636 19.6257 20.0741 19.7576C20.3847 19.8894 20.6655 20.0826 20.8997 20.3254C21.1339 20.5683 21.3167 20.8559 21.4372 21.1711C21.5576 21.4863 21.6133 21.8225 21.6008 22.1597Z" fill="url(#paint17_radial_739_20454)"/>
<path id="Vector_59" d="M21.0438 22.3919C21.0438 21.2305 20.3005 20.5801 19.6501 20.5801C19.528 20.5673 19.4046 20.5788 19.2869 20.6139C19.1693 20.6491 19.0598 20.7073 18.9647 20.785C18.8697 20.8628 18.791 20.9586 18.7332 21.067C18.6755 21.1753 18.6397 21.2941 18.6281 21.4163C18.6328 21.5584 18.6737 21.697 18.7468 21.8189C18.82 21.9409 18.923 22.0421 19.0462 22.1131C19.1677 22.0481 19.3033 22.014 19.4411 22.014C19.5789 22.014 19.7145 22.0481 19.836 22.1131C20.0275 22.2531 20.1582 22.4609 20.2014 22.6941C20.2446 22.9273 20.1969 23.1682 20.0682 23.3674C19.6966 23.9249 18.7675 24.2501 17.7455 23.6462C17.4636 23.4741 17.2276 23.2363 17.0577 22.9532C16.8878 22.67 16.7891 22.3499 16.7699 22.0202C16.7509 22.3307 16.7956 22.6417 16.9015 22.9342C17.0073 23.2267 17.172 23.4943 17.3853 23.7207C17.5986 23.9471 17.856 24.1273 18.1417 24.2503C18.4273 24.3733 18.7352 24.4365 19.0462 24.4359C19.4067 24.4441 19.7618 24.3473 20.0682 24.1572C20.3762 23.9797 20.6299 23.7215 20.8018 23.4104C20.9738 23.0992 21.0574 22.7471 21.0438 22.3919Z" fill="url(#paint18_linear_739_20454)"/>
<path id="Vector_60" d="M17.7911 23.6921C18.8132 24.2496 19.7887 23.9244 20.1139 23.3204C20.2273 23.1131 20.2615 22.8716 20.2102 22.6409C20.159 22.4102 20.0257 22.206 19.8352 22.0661C19.7111 22.0038 19.5727 21.9752 19.4341 21.9833C19.2954 21.9915 19.1614 22.0361 19.0454 22.1126C19.0421 22.2489 19.0014 22.3817 18.9276 22.4964C18.8539 22.6111 18.75 22.7034 18.6273 22.763C18.4108 22.8611 18.1648 22.8724 17.9401 22.7946C17.7154 22.7168 17.5291 22.5559 17.4195 22.3449C17.0943 21.7409 17.2801 20.7654 18.3486 20.2079C18.6332 20.0349 18.9565 19.9357 19.2891 19.9195C19.6218 19.9033 19.9532 19.9705 20.2533 20.115C19.9868 19.9494 19.6895 19.8394 19.3793 19.7918C19.0691 19.7443 18.7526 19.76 18.4486 19.8382C18.1447 19.9163 17.8598 20.0552 17.6111 20.2465C17.3623 20.4378 17.1549 20.6775 17.0014 20.9512C16.8182 21.2606 16.7219 21.6137 16.7227 21.9732C16.7448 22.3257 16.8541 22.6672 17.0405 22.9672C17.227 23.2671 17.4849 23.5162 17.7911 23.6921Z" fill="url(#paint19_radial_739_20454)"/>
<path id="Vector_61" d="M18.3022 20.2081C17.2801 20.812 17.0943 21.7876 17.4195 22.3451C17.5378 22.5603 17.7298 22.7257 17.9601 22.811C18.1904 22.8963 18.4438 22.8958 18.6738 22.8096C18.7856 22.7303 18.8774 22.626 18.9419 22.5051C19.0064 22.3841 19.0419 22.2498 19.0454 22.1128C18.9309 22.0362 18.837 21.9326 18.7722 21.811C18.7073 21.6894 18.6735 21.5537 18.6738 21.416C18.6795 21.2958 18.7096 21.178 18.7625 21.0699C18.8153 20.9617 18.8897 20.8656 18.9811 20.7872C19.0724 20.7089 19.1788 20.6501 19.2938 20.6144C19.4087 20.5788 19.5297 20.567 19.6494 20.5798C20.2997 20.5798 21.0895 21.2766 21.043 22.438C21.0377 22.7665 20.955 23.0891 20.8016 23.3797C20.6483 23.6703 20.4286 23.9206 20.1604 24.1104C20.7068 23.8067 21.1111 23.2994 21.2851 22.699C21.4591 22.0986 21.3888 21.4537 21.0895 20.9049C20.9031 20.6026 20.6486 20.348 20.3462 20.1617C20.0288 19.998 19.6753 19.9164 19.3183 19.9246C18.9612 19.9327 18.6118 20.0302 18.3022 20.2081Z" fill="url(#paint20_radial_739_20454)"/>
<path id="Vector_62" d="M23.2266 22.2984C23.5262 22.3821 23.8409 22.3963 24.1468 22.34C24.4527 22.2836 24.7418 22.1582 24.9919 21.9732L24.7596 21.8803C24.5323 22.0194 24.2778 22.108 24.0133 22.14C23.7488 22.1721 23.4805 22.1469 23.2266 22.0661V22.2984Z" fill="#E49D00"/>
<path id="Vector_63" d="M35.6302 12.8684C36.0647 12.6418 36.4466 12.326 36.7508 11.9418C37.0549 11.5576 37.2746 11.1135 37.3955 10.6385C37.0687 11.3405 36.5334 11.9245 35.8625 12.311C35.8625 12.311 34.0972 13.4723 27.5469 15.4235C27.5469 15.4235 24.4808 18.3502 21.6006 18.536L21.7864 18.7683C24.9919 18.2573 27.5469 15.7487 27.5469 15.7487C30.2054 14.9875 32.8123 14.0565 35.3515 12.9613L35.6302 12.8684Z" fill="#E49D00"/>
<path id="Vector_64" d="M32.4718 17.0024C30.3813 17.1418 27.8727 17.1882 26.2003 17.1418H26.1074L25.7822 17.3276C28.0122 17.4096 30.245 17.3786 32.4718 17.2347C32.9896 17.1649 33.4846 16.978 33.9193 16.6882C34.354 16.3984 34.7169 16.0133 34.9805 15.5623C34.3661 16.3535 33.4649 16.8709 32.4718 17.0024Z" fill="#E49D00"/>
<path id="Vector_65" d="M29.1269 19.2326C27.5649 18.9927 26.0262 18.6197 24.5278 18.1177L24.249 18.257C25.7736 18.8603 27.3641 19.2814 28.9875 19.5113C29.4848 19.6049 29.9986 19.554 30.4679 19.3646C30.9371 19.1752 31.3423 18.8554 31.6355 18.4429C31.3079 18.7611 30.9105 18.9983 30.4749 19.1354C30.0393 19.2725 29.5776 19.3058 29.1269 19.2326Z" fill="#E49D00"/>
<path id="Vector_66" d="M27.2685 20.6727C25.6425 20.5333 23.9701 19.2325 23.2733 18.6286L23.041 18.7215C24.2953 19.8365 25.8284 20.8585 27.1756 20.9049C27.4867 20.9235 27.7977 20.8655 28.0812 20.7359C28.3647 20.6063 28.612 20.4091 28.8015 20.1616C28.603 20.3596 28.3612 20.5089 28.0951 20.5975C27.8291 20.6862 27.5461 20.7119 27.2685 20.6727Z" fill="#E49D00"/>
<path id="Vector_67" d="M24.8994 21.3698C23.8309 20.9982 22.8553 19.9297 22.2049 18.9541H21.9727L22.3443 19.5116C22.3908 19.558 22.3908 19.6045 22.4372 19.6045C23.0068 20.4183 23.7742 21.0738 24.6671 21.5092C24.9303 21.6247 25.2195 21.6684 25.5051 21.6357C25.7908 21.6031 26.0626 21.4953 26.293 21.3233H26.3395C25.8841 21.5268 25.367 21.5435 24.8994 21.3698Z" fill="#E49D00"/>
<path id="Vector_68" d="M26.8039 15.0513C27.1785 14.6416 27.618 14.2964 28.1047 14.0293C32.1463 11.3349 34.6085 10.0341 37.721 7.9436C37.7285 7.83314 37.7126 7.72235 37.6745 7.61841H37.721L32.4715 10.9632L28.0117 13.797C27.5152 14.0701 27.0613 14.4145 26.6645 14.819C25.5496 15.9804 23.8307 17.5135 21.0898 17.7922L21.2292 17.978C22.1583 17.9316 24.3882 17.5135 26.8039 15.0513Z" fill="#FFF4CD"/>
<path id="Vector_69" d="M27.6865 15.981L27.3613 16.2597C30.1684 15.5582 32.9174 14.6419 35.584 13.5188C35.6096 13.4279 35.6251 13.3344 35.6304 13.2401C33.036 14.302 30.3838 15.2171 27.6865 15.981Z" fill="#FFF4CD"/>
<path id="Vector_70" d="M32.146 17.6068C29.2657 17.6997 27.0823 17.6997 25.4563 17.6068L25.2705 17.6997C27.5282 17.8567 29.7934 17.8722 32.053 17.7461V17.6068H32.146Z" fill="#FFF4CD"/>
<path id="Vector_71" d="M23.97 18.3962H23.7842C25.4244 19.1418 27.1596 19.6576 28.9408 19.9292V19.7899C27.2405 19.4965 25.5749 19.0295 23.97 18.3962Z" fill="#FFF4CD"/>
<path id="Vector_72" d="M26.6178 21.0912C25.0383 20.7195 23.6447 19.5581 22.7155 18.8148H22.5762C24.1557 20.3014 25.5029 20.9518 26.4785 21.1376L26.6178 21.0912Z" fill="#FFF4CD"/>
<path id="Vector_73" d="M14.9108 22.2984C14.6112 22.3821 14.2965 22.3963 13.9906 22.34C13.6846 22.2836 13.3956 22.1582 13.1455 21.9732L13.3778 21.8803C13.6051 22.0194 13.8596 22.108 14.1241 22.14C14.3886 22.1721 14.6569 22.1469 14.9108 22.0661V22.2984Z" fill="#E49D00"/>
<path id="Vector_74" d="M2.50708 12.8684C2.07222 12.6356 1.68806 12.3185 1.377 11.9356C1.06594 11.5528 0.834209 11.1119 0.695312 10.6385C1.05508 11.3327 1.60229 11.9121 2.27481 12.311C2.27481 12.311 4.04012 13.4723 10.5904 15.4235C10.5904 15.4235 13.6565 18.3502 16.5367 18.536L16.3509 18.7683C13.1454 18.2573 10.5904 15.7487 10.5904 15.7487C7.91692 14.987 5.29462 14.056 2.73936 12.9613L2.50708 12.8684Z" fill="#E49D00"/>
<path id="Vector_75" d="M5.62036 17.0024C7.71086 17.1418 10.2659 17.1882 11.9383 17.1418H12.0312L12.31 17.3276C10.08 17.4093 7.84724 17.3783 5.62036 17.2347C5.11087 17.1582 4.62507 16.9683 4.1989 16.6788C3.77272 16.3893 3.41706 16.0077 3.1582 15.5623C3.76144 16.3431 4.6441 16.8594 5.62036 17.0024Z" fill="#E49D00"/>
<path id="Vector_76" d="M9.01154 19.2326C10.5725 18.9873 12.1107 18.6144 13.6107 18.1177L13.8894 18.257C12.3506 18.866 10.7441 19.2871 9.10445 19.5113C8.61402 19.6013 8.10808 19.5484 7.64686 19.3589C7.18564 19.1695 6.78857 18.8515 6.50293 18.4429C6.82612 18.7674 7.22317 19.0088 7.66007 19.1464C8.09697 19.2839 8.5607 19.3135 9.01154 19.2326Z" fill="#E49D00"/>
<path id="Vector_77" d="M10.8695 20.6727C12.4955 20.5333 14.1679 19.2325 14.8647 18.6286L15.097 18.7215C13.8427 19.8365 12.3097 20.8585 10.9624 20.9049C10.6513 20.9235 10.3403 20.8655 10.0568 20.7359C9.77335 20.6063 9.526 20.4091 9.33649 20.1616H9.29004C9.49954 20.3577 9.74971 20.5052 10.0227 20.5935C10.2957 20.6818 10.5849 20.7089 10.8695 20.6727Z" fill="#E49D00"/>
<path id="Vector_78" d="M13.239 21.3698C14.261 20.9982 15.283 19.9297 15.9334 18.9541H16.1657L15.794 19.5116C15.7476 19.558 15.7476 19.6045 15.7011 19.6045C15.1214 20.4091 14.3566 21.0624 13.4712 21.5092C13.208 21.6247 12.9188 21.6684 12.6332 21.6357C12.3475 21.6031 12.0757 21.4953 11.8453 21.3233H11.7988C12.2543 21.5268 12.7713 21.5435 13.239 21.3698Z" fill="#E49D00"/>
<path id="Vector_79" d="M11.3341 15.0513C10.949 14.653 10.5114 14.3092 10.0333 14.0293C5.99168 11.3349 3.52952 10.0341 0.416992 7.9436V7.61841L5.66649 10.9632L10.1262 13.797C10.6129 14.0641 11.0524 14.4094 11.427 14.819C12.5884 15.9804 14.3072 17.5135 17.0481 17.7922L16.9088 17.978C15.9797 17.9316 13.7498 17.5135 11.3341 15.0513Z" fill="#FFF4CD"/>
<path id="Vector_80" d="M10.4517 15.981L10.7769 16.2597C7.95649 15.5521 5.19252 14.636 2.50781 13.5188V13.2401C5.10229 14.302 7.75446 15.2171 10.4517 15.981Z" fill="#FFF4CD"/>
<path id="Vector_81" d="M5.99219 17.6068C8.87244 17.6997 11.0559 17.6997 12.6818 17.6068L12.8676 17.6997C10.61 17.8567 8.3447 17.8722 6.0851 17.7461L5.99219 17.6068Z" fill="#FFF4CD"/>
<path id="Vector_82" d="M14.168 18.3962H14.3538C12.7114 19.1358 10.977 19.6514 9.19727 19.9292V19.7899C10.8975 19.4965 12.5631 19.0295 14.168 18.3962Z" fill="#FFF4CD"/>
<path id="Vector_83" d="M11.5195 21.0912C13.099 20.7195 14.4927 19.5581 15.3754 18.8148H15.5612C13.9817 20.3014 12.6345 20.9518 11.6124 21.1376L11.5195 21.0912Z" fill="#FFF4CD"/>
<path id="Vector_84" d="M24.0627 26.1548L24.1557 25.9225C23.3731 25.8404 22.6469 25.4772 22.1116 24.9005C22.0744 24.983 22.0083 25.0491 21.9258 25.0863C22.4795 25.697 23.2419 26.0782 24.0627 26.1548Z" fill="#FFF4CD"/>
<path id="Vector_85" d="M22.1589 28.152C21.5842 27.4731 21.157 26.6821 20.9046 25.8292L20.7188 25.9221C20.8117 26.3402 21.2762 27.8732 22.0195 28.4772C22.0322 28.4963 22.0495 28.5121 22.0697 28.5229C22.09 28.5338 22.1127 28.5395 22.1356 28.5395C22.1586 28.5395 22.1813 28.5338 22.2016 28.5229C22.2218 28.5121 22.2391 28.4963 22.2518 28.4772L22.4376 28.2913L22.1589 28.152Z" fill="#E49D00"/>
<path id="Vector_86" d="M23.1338 22.7637C23.8144 22.9594 24.5436 22.8931 25.1778 22.5779H25.2243V22.3921C24.8694 22.5933 24.4707 22.7049 24.0629 22.7173H23.1802C23.1666 22.7345 23.1511 22.7501 23.1338 22.7637Z" fill="#FFF4CD"/>
<path id="Vector_87" d="M24.249 25.365C23.5678 25.2997 22.9289 25.0048 22.4372 24.5288L22.2979 24.7147C22.801 25.2164 23.4528 25.5423 24.1561 25.6438L24.3884 25.5044C24.4348 25.458 24.4348 25.365 24.4813 25.3186L24.249 25.365Z" fill="#E49D00"/>
<path id="Vector_88" d="M21.88 28.8492C21.5548 28.5705 20.9509 27.9201 20.3934 26.0154L20.1611 26.1084C20.858 28.7563 21.88 28.8492 21.88 28.8492Z" fill="#FFF4CD"/>
<path id="Vector_89" d="M19.8361 29.6386C19.7432 28.8953 19.6502 27.037 19.6502 26.2008H19.418C19.418 26.4796 19.4644 29.3598 19.5573 30.1496H19.6038C20.3748 29.782 21.0935 29.3133 21.7408 28.7559C21.2556 29.2143 20.6882 29.5768 20.0683 29.8244C20.0219 29.8244 19.8361 29.8708 19.8361 29.6386Z" fill="#E49D00"/>
<path id="Vector_90" d="M14.0753 26.1548C14.0184 26.0904 13.9856 26.0083 13.9824 25.9225C14.7593 25.8213 15.4794 25.4613 16.0265 24.9005L16.1658 25.0863C15.6352 25.7017 14.8849 26.0852 14.0753 26.1548Z" fill="#FFF4CD"/>
<path id="Vector_91" d="M15.9795 28.152C16.5422 27.4721 16.9539 26.6803 17.1873 25.8292L17.4196 25.9221C17.2802 26.3402 16.8621 27.8732 16.1189 28.4772C16.1061 28.4963 16.0889 28.5121 16.0686 28.5229C16.0484 28.5338 16.0257 28.5395 16.0027 28.5395C15.9797 28.5395 15.9571 28.5338 15.9368 28.5229C15.9165 28.5121 15.8993 28.4963 15.8866 28.4772L15.6543 28.2913L15.9795 28.152Z" fill="#E49D00"/>
<path id="Vector_92" d="M14.9581 22.7637C14.2767 22.9505 13.5506 22.8845 12.9141 22.5779V22.3921C13.2545 22.5878 13.6367 22.6993 14.029 22.7173H14.9581V22.7637Z" fill="#FFF4CD"/>
<path id="Vector_93" d="M13.8895 25.365C14.5707 25.2997 15.2096 25.0048 15.7013 24.5288L15.8406 24.7147C15.3375 25.2164 14.6857 25.5423 13.9824 25.6438C13.934 25.6478 13.8855 25.6365 13.8439 25.6115C13.8022 25.5865 13.7694 25.549 13.7501 25.5044C13.7037 25.458 13.7037 25.365 13.6572 25.3186L13.8895 25.365Z" fill="#E49D00"/>
<path id="Vector_94" d="M16.2588 28.8492C16.584 28.5705 17.1879 27.9201 17.7454 26.0154L17.9312 26.1084C17.2808 28.7563 16.2588 28.8492 16.2588 28.8492Z" fill="#FFF4CD"/>
<path id="Vector_95" d="M18.3021 29.6386C18.3951 28.8953 18.4415 27.037 18.488 26.2008H18.6738C18.6738 26.4796 18.6738 29.3598 18.5809 30.1496C18.5686 30.1496 18.5567 30.1545 18.548 30.1632C18.5393 30.1719 18.5344 30.1837 18.5344 30.196C17.7564 29.841 17.0361 29.3712 16.3975 28.8024C16.8975 29.1945 17.464 29.4935 18.0699 29.685C18.1163 29.8244 18.3021 29.8708 18.3021 29.6386Z" fill="#E49D00"/>
<path id="Vector_96" d="M17.745 17.2351C18.0207 16.7068 18.1338 16.1087 18.0702 15.5162C18.0238 15.5162 17.0947 15.0981 17.1411 15.5627C17.1876 16.0272 16.8159 14.9587 17.234 14.7729C17.4349 14.7205 17.6475 14.7369 17.838 14.8194L18.3025 14.9123C18.5136 14.7414 18.7744 14.6435 19.0458 14.6336C18.673 14.4974 18.2669 14.4812 17.8844 14.5871C18.0702 14.0296 18.5813 14.0296 19.0458 14.1225C19.3169 14.2254 19.5968 14.3031 19.882 14.3548C20.103 14.4 20.3329 14.3671 20.5324 14.2619C20.5739 14.3337 20.5954 14.4153 20.5948 14.4982C20.5941 14.5811 20.5712 14.6624 20.5286 14.7335C20.4859 14.8046 20.425 14.863 20.3521 14.9026C20.2793 14.9422 20.1972 14.9616 20.1143 14.9587C20.1143 14.9587 20.0214 16.6312 20.4859 17.4674C20.7297 17.8931 21.0094 18.2972 21.3221 18.6752C20.6582 18.2218 19.873 17.9793 19.069 17.9793C18.2651 17.9793 17.4798 18.2218 16.8159 18.6752C17.0482 18.3036 17.6057 17.5138 17.745 17.2351ZM38.0927 7.34001C38.0927 6.829 37.7675 7.06128 37.7675 7.06128C34.1439 9.52343 29.1267 12.6824 27.6401 13.6115C27.057 14.0258 26.5128 14.4923 26.0142 15.0052C23.4591 17.5603 20.9505 17.4674 20.904 17.4674C20.8576 17.4674 20.4395 15.1446 20.4395 15.1446C21.2292 14.8658 20.7182 13.7509 20.7182 13.7509C20.5876 13.8828 20.4221 13.9748 20.241 14.0159C20.06 14.0571 19.871 14.0457 19.6962 13.9832C19.4938 13.8788 19.2728 13.8156 19.0458 13.7974C17.6986 13.6115 17.5592 14.4942 17.5592 14.4942C17.3928 14.4478 17.2151 14.4649 17.0606 14.5422C16.9061 14.6195 16.7858 14.7513 16.723 14.9123C16.5372 15.5627 17.234 15.8879 17.234 15.8879L17.7915 15.7485C17.7885 16.3654 17.5937 16.9661 17.234 17.4674C17.0947 17.4674 14.6325 17.5138 12.0775 15.0052C11.5899 14.4807 11.0444 14.0132 10.4515 13.6115C9.01138 12.6824 3.99416 9.52343 0.324159 7.06128C0.324159 7.06128 0.0454249 6.829 0.0454249 7.34001C-0.140398 9.56988 0.184792 11.8927 2.13593 13.1005C2.13593 13.1005 1.90365 16.8634 5.62011 17.6067C5.62011 17.6067 6.40986 19.9295 8.82555 19.8366C8.96138 20.1583 9.17088 20.4436 9.43715 20.6696C9.70343 20.8955 10.0191 21.0557 10.3586 21.1374C10.6504 21.1905 10.9494 21.1905 11.2413 21.1374C11.3606 21.373 11.5388 21.5738 11.7585 21.7203C11.9783 21.8668 12.2322 21.954 12.4956 21.9736C12.6309 23.9508 13.3158 25.8508 14.4732 27.4596C15.6305 29.0684 17.2142 30.3219 19.0458 31.0789C25.5961 28.1986 25.6425 21.9736 25.6425 21.9736C25.9004 21.9554 26.1486 21.8682 26.3611 21.721C26.5736 21.5739 26.7426 21.3723 26.8504 21.1374C27.1577 21.1912 27.4721 21.1912 27.7795 21.1374C28.119 21.0557 28.4346 20.8955 28.7009 20.6696C28.9672 20.4436 29.1767 20.1583 29.3125 19.8366C31.7282 19.9295 32.518 17.6067 32.518 17.6067C36.2344 16.8634 36.0021 13.1005 36.0021 13.1005C37.9533 11.8927 38.2785 9.56988 38.0927 7.34001ZM0.417071 7.61875L10.1263 13.7974C10.613 14.0644 11.0524 14.4097 11.4271 14.8194C12.5885 15.9808 14.3073 17.5138 17.0482 17.7925L16.3514 18.7681C13.1459 18.2571 10.5909 15.7485 10.5909 15.7485C7.91741 14.9868 5.29511 14.0558 2.73986 12.9612L2.50758 12.8682C-0.093942 11.6139 0.417071 7.61875 0.417071 7.61875ZM2.50758 13.2399C5.10206 14.3018 7.75422 15.2168 10.4515 15.9808C10.4515 15.9808 11.0554 16.4918 12.031 17.1886L12.3097 17.3744C10.0797 17.4562 7.847 17.4252 5.62011 17.2815C2.50758 16.7241 2.50758 13.2399 2.50758 13.2399ZM5.99176 17.6067C8.87201 17.6996 11.0554 17.6996 12.6814 17.6067C13.0588 17.8674 13.4639 18.0855 13.8892 18.2571C12.3505 18.8661 10.7439 19.2872 9.10429 19.5114C8.44645 19.5934 7.78029 19.4496 7.21484 19.1035C6.64939 18.7575 6.21817 18.2298 5.99176 17.6067ZM10.9625 20.9051C10.5859 20.9449 10.2064 20.8625 9.88012 20.6701C9.55387 20.4777 9.29815 20.1855 9.15074 19.8366C10.8684 19.5313 12.5499 19.0487 14.168 18.3965L15.0971 18.7217C13.8428 19.8366 12.3097 20.8586 10.9625 20.9051ZM11.52 21.0909C13.0995 20.7193 14.4931 19.5579 15.3758 18.8146H15.5152L16.1656 18.9539C16.073 19.1193 15.964 19.2749 15.8404 19.4185L15.6081 19.7437C15.033 20.4809 14.3037 21.0834 13.4711 21.509C13.1441 21.6582 12.7778 21.6981 12.4264 21.6228C12.0749 21.5475 11.7571 21.361 11.52 21.0909ZM14.9113 22.2987C14.6117 22.3824 14.2969 22.3967 13.991 22.3403C13.6851 22.2839 13.396 22.1585 13.1459 21.9736C13.8908 21.719 14.5721 21.3071 15.1435 20.7657C14.9951 21.1996 14.9167 21.6544 14.9113 22.1129V22.2987ZM13.7499 25.5042C13.3135 24.5644 13.0312 23.5605 12.9137 22.531V22.3452C13.5242 22.6758 14.2336 22.7748 14.9113 22.6239C15.0044 23.412 15.3276 24.1552 15.8404 24.7609C15.3299 25.2524 14.6816 25.5765 13.9821 25.69C13.9278 25.6911 13.8748 25.6731 13.8323 25.6392C13.7899 25.6052 13.7607 25.5574 13.7499 25.5042ZM16.1191 28.4774C16.1017 28.4971 16.0802 28.513 16.0562 28.5238C16.0322 28.5347 16.0061 28.5403 15.9797 28.5403C15.9534 28.5403 15.9273 28.5347 15.9033 28.5238C15.8792 28.513 15.8578 28.4971 15.8404 28.4774C15.0796 27.738 14.4511 26.8738 13.9821 25.9223C14.759 25.8211 15.4791 25.4611 16.0262 24.9003C16.3947 25.3556 16.8748 25.7077 17.4199 25.9223C17.2805 26.3404 16.8624 27.8734 16.1191 28.4774ZM18.6742 26.5727C18.6742 27.4553 18.6742 29.9175 18.5348 30.3356C17.7137 29.9427 16.9483 29.4428 16.2585 28.849C16.5837 28.6167 17.1876 27.9199 17.745 26.0617L18.6742 26.2475V26.5727ZM19.0458 25.9687C18.2832 25.9687 17.5377 25.7426 16.9036 25.3189C16.2695 24.8952 15.7753 24.293 15.4835 23.5885C15.1917 22.8839 15.1153 22.1086 15.2641 21.3607C15.4129 20.6127 15.7801 19.9257 16.3193 19.3864C16.8586 18.8472 17.5456 18.48 18.2936 18.3312C19.0415 18.1824 19.8168 18.2588 20.5214 18.5506C21.2259 18.8424 21.8281 19.3367 22.2518 19.9707C22.6755 20.6048 22.9016 21.3503 22.9016 22.1129C22.9016 23.1356 22.4954 24.1163 21.7723 24.8394C21.0492 25.5625 20.0684 25.9687 19.0458 25.9687ZM19.6033 30.3356C19.4639 29.9175 19.4639 27.4553 19.4175 26.5727V26.2475C19.7533 26.225 20.0831 26.1465 20.393 26.0152C20.9505 27.9199 21.5544 28.5703 21.8796 28.849C21.1898 29.4428 20.4243 29.9427 19.6033 30.3356ZM22.2513 28.4774C22.2385 28.4965 22.2213 28.5122 22.201 28.5231C22.1808 28.534 22.1581 28.5397 22.1351 28.5397C22.1121 28.5397 22.0895 28.534 22.0692 28.5231C22.0489 28.5122 22.0317 28.4965 22.019 28.4774C21.2757 27.8734 20.8111 26.3404 20.7182 25.9223C21.2533 25.6901 21.7296 25.3408 22.1119 24.9003C22.6471 25.477 23.3734 25.8401 24.1559 25.9223C23.6868 26.8859 23.0407 27.7526 22.2513 28.4774ZM25.2244 22.4846C25.085 23.5096 24.8035 24.5103 24.3882 25.4577L24.1559 25.5971C23.4526 25.4957 22.8009 25.1698 22.2977 24.668C22.7786 24.0479 23.0835 23.3097 23.1804 22.531C23.8735 22.677 24.5957 22.5785 25.2244 22.2523V22.4846ZM22.9945 20.7657C23.5517 21.3256 24.2376 21.7403 24.9921 21.9736C24.742 22.1585 24.453 22.2839 24.1471 22.3403C23.8412 22.3967 23.5264 22.3824 23.2268 22.2987V22.1129C23.2214 21.6544 23.143 21.1996 22.9945 20.7657ZM24.6669 21.5555C23.7741 21.1201 23.0067 20.4646 22.4371 19.6508C22.3906 19.6508 22.3906 19.6043 22.3442 19.5579L21.9725 19.0004L22.6229 18.861H22.7158C23.6449 19.6043 25.0386 20.7657 26.6181 21.1374C26.381 21.4075 26.0631 21.594 25.7117 21.6693C25.3603 21.7446 24.9939 21.7047 24.6669 21.5555ZM27.1756 20.9051C25.8283 20.8586 24.2953 19.8366 23.041 18.7217L23.9701 18.3965C25.5882 19.0487 27.2696 19.5313 28.9873 19.8366C28.8399 20.1855 28.5842 20.4777 28.258 20.6701C27.9317 20.8625 27.5522 20.9449 27.1756 20.9051ZM32.0999 17.6067C31.8808 18.2348 31.4511 18.7677 30.8837 19.1148C30.3163 19.462 29.6463 19.6022 28.9873 19.5114C27.3639 19.2814 25.7734 18.8604 24.2488 18.2571C24.6742 18.0855 25.0793 17.8674 25.4567 17.6067C27.0826 17.6996 29.2661 17.6996 32.1463 17.6067H32.0999ZM32.4715 17.2815C30.2446 17.4254 28.0119 17.4564 25.7819 17.3744L26.1071 17.1886C27.0826 16.4918 27.6866 15.9808 27.6866 15.9808C30.3838 15.2168 33.036 14.3018 35.6305 13.2399C35.6305 13.2399 35.6305 16.7241 32.4715 17.2815ZM35.6305 12.8682L35.3518 12.9612C32.8126 14.0563 30.2057 14.9873 27.5472 15.7485C27.5472 15.7485 24.9921 18.2571 21.7867 18.7681C21.538 18.4549 21.3055 18.1293 21.0899 17.7925C23.8307 17.5138 25.5496 15.9808 26.6645 14.8194C27.0613 14.4148 27.5152 14.0705 28.0118 13.7974L37.721 7.61875H37.6745C37.6745 7.61875 38.232 11.6139 35.6305 12.8682Z" fill="#001A60"/>
<path id="Vector_97" d="M19.0463 17.9322C19.8561 17.9417 20.6463 18.1835 21.3226 18.6291C21.0099 18.2511 20.7302 17.847 20.4864 17.4212C20.0219 16.585 20.1148 14.9126 20.1148 14.9126C20.1976 14.9155 20.2798 14.8961 20.3526 14.8565C20.4255 14.8169 20.4864 14.7585 20.5291 14.6874C20.5717 14.6163 20.5946 14.535 20.5952 14.4521C20.5959 14.3692 20.5744 14.2876 20.5329 14.2158C20.3333 14.321 20.1035 14.3539 19.8825 14.3087C19.5972 14.257 19.3173 14.1793 19.0463 14.0764C18.5817 13.9835 18.0707 13.9835 17.8849 14.541C18.2674 14.4351 18.6734 14.4513 19.0463 14.5874C18.7749 14.5974 18.514 14.6952 18.303 14.8662L17.8384 14.7733C17.648 14.6908 17.4354 14.6744 17.2345 14.7268C16.8164 14.9126 17.0022 15.3772 17.1416 15.5166C17.281 15.6559 18.0243 15.4701 18.0707 15.4701C18.1343 16.0626 18.0211 16.6606 17.7455 17.189C17.6062 17.4677 17.0487 18.2574 16.8164 18.5826C17.4844 18.1619 18.2568 17.9366 19.0463 17.9322Z" fill="url(#paint21_linear_739_20454)"/>
<path id="Vector_98" d="M19.0462 14.4016L19.8824 14.6339C20.1154 14.665 20.3523 14.6492 20.5792 14.5874C20.5905 14.4617 20.5746 14.3349 20.5327 14.2158C20.3332 14.321 20.1034 14.3539 19.8824 14.3087C19.5971 14.257 19.3172 14.1793 19.0462 14.0764C18.5816 13.9835 18.0706 13.9835 17.8848 14.541H18.1635C18.2889 14.4491 18.4344 14.3885 18.5879 14.3643C18.7415 14.3401 18.8986 14.3529 19.0462 14.4016Z" fill="#FFF4CD"/>
<path id="Vector_99" d="M17.2338 15.0981C17.4504 15.0485 17.6768 15.0647 17.8842 15.1446L18.3487 15.284C18.5205 15.0103 18.7607 14.7861 19.0456 14.6336C18.851 14.6326 18.6593 14.6805 18.4881 14.773L18.3023 14.9123L17.9771 14.8194C17.744 14.711 17.4786 14.6944 17.2338 14.773C17.1828 14.7881 17.1356 14.814 17.0954 14.8489C17.0553 14.8839 17.0231 14.927 17.0011 14.9755C16.9791 15.0239 16.9677 15.0766 16.9678 15.1298C16.9678 15.183 16.9793 15.2356 17.0015 15.284C17.0588 15.2004 17.1396 15.1357 17.2338 15.0981Z" fill="#FFF4CD"/>
</g>
<g id="letter">
<path id="Vector_100" d="M43.3886 9.47662V11.7065H40.4619V13.3324H41.7162L41.6233 13.4718C41.3937 13.9184 41.2675 14.4109 41.2542 14.9128C41.2409 15.4148 41.3408 15.9133 41.5464 16.3713C41.7521 16.8294 42.0582 17.2353 42.4422 17.5589C42.8261 17.8826 43.2779 18.1156 43.7642 18.2407C44.2505 18.3659 44.7587 18.3799 45.2512 18.2818C45.7436 18.1838 46.2077 17.9761 46.6089 17.6742C47.0101 17.3723 47.3382 16.9839 47.5689 16.5379C47.7995 16.0919 47.9268 15.5997 47.9413 15.0978C47.9304 14.5246 47.7702 13.9642 47.4767 13.4718V13.3324H48.5452V11.7065H45.8043V9.47662H43.3886ZM43.4815 15.0978C43.4815 14.0757 43.9461 13.3324 44.5965 13.3324C45.2469 13.3324 45.665 14.1222 45.665 15.0978C45.665 16.0733 45.2004 16.8631 44.5965 16.8631C43.9925 16.8631 43.4815 16.0733 43.4815 15.0978Z" fill="#013082"/>
<path id="Vector_101" d="M52.1686 9.75522V14.2614H51.1001V9.75522H49.1025V24.714H51.1001V15.9803H52.1686V24.714H54.1662V9.75522H52.1686Z" fill="#013082"/>
<path id="Vector_102" d="M66.6631 9.75522V17.6991H68.9859V16.0267H71.1228V14.4472H68.9859V13.0536H71.1228V11.5205H68.9859V9.75522H66.6631Z" fill="#013082"/>
<path id="Vector_103" d="M60.7627 21.6484C60.7627 23.5531 62.528 25.1325 64.665 25.1325C66.8019 25.1325 68.6137 23.5531 68.6137 21.6484C68.6137 19.7437 66.8484 18.1177 64.665 18.1177C62.4816 18.1177 60.7627 19.6972 60.7627 21.6484ZM63.039 21.6484C63.0838 21.3294 63.2198 21.0301 63.4306 20.7865C63.6414 20.5429 63.918 20.3654 64.2273 20.2753C64.5366 20.1852 64.8653 20.1863 65.1739 20.2785C65.4826 20.3707 65.758 20.5501 65.9672 20.7951C66.1763 21.0401 66.3102 21.3403 66.3529 21.6596C66.3955 21.9789 66.345 22.3037 66.2075 22.595C66.07 22.8863 65.8512 23.1316 65.5776 23.3016C65.3039 23.4716 64.987 23.5589 64.665 23.5531C64.4329 23.5355 64.2066 23.4721 63.999 23.3668C63.7915 23.2614 63.6069 23.116 63.4558 22.9389C63.3047 22.7619 63.1901 22.5568 63.1185 22.3353C63.047 22.1138 63.02 21.8803 63.039 21.6484Z" fill="#013082"/>
<path id="Vector_104" d="M57.5576 13.7038C57.5576 15.6085 59.23 17.188 61.3205 17.188C62.2738 17.2131 63.1986 16.8614 63.8944 16.2092C64.5901 15.557 65.0006 14.6567 65.037 13.7038C65.0006 12.7508 64.5901 11.8506 63.8944 11.1984C63.1986 10.5462 62.2738 10.1945 61.3205 10.2196C59.23 10.2196 57.5576 11.7991 57.5576 13.7038ZM59.7875 13.7038C59.7875 12.6818 60.4843 11.8456 61.3205 11.8456C62.1567 11.8456 62.8536 12.6818 62.8536 13.7038C62.8536 14.7258 62.1103 15.562 61.3205 15.562C60.5308 15.562 59.7875 14.6794 59.7875 13.7038Z" fill="#013082"/>
<path id="Vector_105" d="M77.5332 21.6478C77.5332 23.5989 79.2521 25.132 81.389 25.132C83.526 25.132 85.1984 23.5989 85.1984 21.6478C85.1984 19.6966 83.4795 18.2101 81.389 18.2101C79.2985 18.2101 77.5332 19.7431 77.5332 21.6478ZM79.8095 21.6478C79.8095 20.6257 80.4599 19.836 81.389 19.836C81.613 19.8477 81.8323 19.9042 82.0339 20.0023C82.2355 20.1005 82.4154 20.2381 82.5627 20.4072C82.7101 20.5762 82.822 20.7731 82.8917 20.9862C82.9614 21.1994 82.9875 21.4243 82.9685 21.6478C82.9685 22.7163 82.2717 23.506 81.389 23.506C80.5064 23.506 79.8095 22.7163 79.8095 21.6478Z" fill="#013082"/>
<path id="Vector_106" d="M83.4329 9.75522V11.9386H80.7849V10.4521H74.4205V12.0315H78.3692V12.3103C78.3927 12.8206 78.3052 13.33 78.1127 13.8032C77.9202 14.2764 77.6273 14.7022 77.2543 15.0512C76.3841 15.9095 75.2597 16.4636 74.0488 16.6307L75.1173 17.9314C76.324 17.7306 77.4553 17.2114 78.3944 16.4274C79.3336 15.6434 80.0465 14.6231 80.4597 13.4717H83.4329V14.6331H80.5526V16.1661H83.4329V17.7921H85.7092V9.75522H83.4329Z" fill="#013082"/>
<path id="Vector_107" d="M109.355 21.5549C109.355 23.4596 111.074 24.9927 113.165 24.9927C115.255 24.9927 117.021 23.4596 117.021 21.5549C117.021 19.6503 115.302 18.0708 113.165 18.0708C111.028 18.0708 109.355 19.6503 109.355 21.5549ZM111.632 21.5549C111.632 20.4865 112.282 19.6967 113.165 19.6967C113.395 19.7084 113.62 19.7662 113.827 19.8666C114.035 19.9671 114.22 20.1082 114.371 20.2815C114.523 20.4548 114.638 20.6569 114.71 20.8756C114.782 21.0944 114.81 21.3254 114.791 21.5549C114.81 21.7821 114.782 22.0108 114.71 22.227C114.637 22.4431 114.521 22.6421 114.369 22.8118C114.217 22.9815 114.031 23.1183 113.824 23.2137C113.617 23.3091 113.393 23.3612 113.165 23.3667C112.282 23.3667 111.632 22.577 111.632 21.5549Z" fill="#013082"/>
<path id="Vector_108" d="M115.581 9.75522V12.8678H113.908V14.5402H115.581V17.7456H117.857V9.75522H115.581Z" fill="#013082"/>
<path id="Vector_109" d="M108.845 9.47672V11.2885H106.29V12.9144H108.799V13.0073C108.799 14.2152 107.591 16.1199 105.872 16.3057L106.801 17.4206L106.987 17.6994C108.229 17.3067 109.264 16.4381 109.867 15.2837C109.867 15.2372 109.914 15.1443 110.053 15.1443C110.09 15.1443 110.125 15.159 110.152 15.1851C110.178 15.2113 110.192 15.2467 110.192 15.2837C110.703 16.3986 112.237 17.4671 112.887 17.5135C112.887 17.4671 113.909 16.2592 113.909 16.2592C113.909 16.2592 113.073 16.027 112.283 15.2837C111.969 14.9918 111.717 14.64 111.541 14.249C111.366 13.8581 111.27 13.4358 111.261 13.0073V12.9144H113.584V11.2885H111.214V9.47672H108.845Z" fill="#013082"/>
<path id="Vector_110" d="M98.9961 9.75522V17.7456H101.272V14.4008H103.177V12.7284H101.272V9.75522H98.9961Z" fill="#013082"/>
<path id="Vector_111" d="M92.3069 9.47672V11.2885H89.6124V12.9144H92.2604V13.0073C92.2047 13.8252 91.8697 14.5991 91.3116 15.1996C90.7534 15.8 90.006 16.1905 89.1943 16.3057C89.4242 16.5418 89.6413 16.7899 89.8447 17.049L90.3093 17.56C90.9419 17.4082 91.5365 17.1277 92.056 16.7361C92.5755 16.3445 93.0088 15.8501 93.3289 15.2837C93.3753 15.2372 93.4218 15.1443 93.5147 15.1443L93.6541 15.2837C94.3509 16.538 95.9304 17.4671 96.6272 17.5135L97.7886 16.2592C97.0113 16.1936 96.2845 15.8468 95.7446 15.2837C95.4264 14.9953 95.1714 14.6442 94.9955 14.2524C94.8196 13.8607 94.7267 13.4368 94.7226 13.0073V12.9144H97.3705V11.2885H94.6761V9.47672H92.3069Z" fill="#013082"/>
<path id="Vector_112" d="M91.7021 18.5817V19.8825H98.9492V20.9509H91.7021V23.4131C91.7021 24.3887 91.9809 24.7138 92.91 24.7138H101.458V23.3666H94.2572C94.1956 23.3666 94.1365 23.3422 94.093 23.2986C94.0494 23.255 94.0249 23.196 94.0249 23.1344V22.2517H101.04C101.101 22.2517 101.16 22.2272 101.204 22.1837C101.248 22.1401 101.272 22.081 101.272 22.0194V18.6746C101.272 18.5817 101.226 18.5817 101.179 18.5817H91.7021Z" fill="#013082"/>
<path id="Vector_113" d="M40.6475 27.8729H41.8553V30.4744L43.4813 27.8729H44.8749L43.0632 30.5209L45.1072 33.587H43.5742L41.8553 30.6138V33.587H40.6475V27.8729Z" fill="#013082"/>
<path id="Vector_114" d="M47.5235 27.7799C49.0101 27.7799 49.9857 28.8948 49.9857 30.7066C49.9857 32.5184 49.5211 32.9365 48.6849 33.401C48.3321 33.6025 47.9293 33.6991 47.5235 33.6798C47.1731 33.7074 46.8211 33.6501 46.4976 33.5126C46.1741 33.3751 45.8886 33.1615 45.6653 32.89C45.2229 32.2669 44.9947 31.517 45.0149 30.7531C45.0149 29.4988 45.4795 28.5232 46.3157 28.0586C46.6879 27.8642 47.1037 27.7683 47.5235 27.7799ZM47.4771 28.6626C47.2981 28.663 47.1223 28.7104 46.9674 28.8001C46.8125 28.8898 46.6839 29.0186 46.5944 29.1736C46.3831 29.6722 46.2878 30.2123 46.3157 30.7531C46.3157 31.7286 46.5015 32.3326 46.8267 32.6113C47.032 32.7487 47.2771 32.8141 47.5235 32.7971C48.3133 32.7971 48.6385 32.1932 48.6385 30.7531C48.6537 30.2997 48.6068 29.8465 48.4991 29.4059C48.4239 29.1931 48.286 29.0081 48.1036 28.8754C47.9211 28.7427 47.7026 28.6685 47.4771 28.6626Z" fill="#013082"/>
<path id="Vector_115" d="M50.7285 27.8734H52.8655C53.0886 27.8598 53.3121 27.8938 53.5212 27.973C53.7302 28.0523 53.9201 28.175 54.0782 28.3331C54.2363 28.4912 54.359 28.681 54.4382 28.8901C54.5175 29.0991 54.5514 29.3226 54.5379 29.5458C54.5379 30.382 53.9804 31.1253 53.2836 31.1253L53.5159 31.3575C53.841 31.7756 54.9095 33.5874 54.9095 33.5874H53.5159L53.0048 32.6583C52.4474 31.6363 52.2616 31.3575 52.0293 31.2646H51.8899V33.6339H50.7285V27.8734ZM51.8899 28.8025V30.3355H52.2616C52.7726 30.3355 52.9584 30.2891 53.0978 30.1497C53.246 30.002 53.3295 29.8015 53.33 29.5922C53.3451 29.4404 53.313 29.2876 53.2382 29.1547C53.1634 29.0217 53.0495 28.9149 52.9119 28.8489H51.8899V28.8025Z" fill="#013082"/>
<path id="Vector_116" d="M55.5137 27.8729H58.7656L58.6262 28.802H56.6286V30.1493H58.301V31.0784H56.6751V32.6114H58.812V33.587H55.5137V27.8729Z" fill="#013082"/>
<path id="Vector_117" d="M60.9955 27.8268H62.2498L64.0151 33.5873H62.8073L62.3892 32.2401H60.7168L60.2987 33.5873H59.0908L60.9955 27.8268ZM60.9955 31.2645H62.1104C62.1104 31.2645 61.9246 30.6606 61.7853 30.1031L61.553 29.1275L61.3207 30.196C61.1813 30.6141 61.1349 30.8929 60.9955 31.2645Z" fill="#013082"/>
<path id="Vector_118" d="M70.9365 28.1984L70.4255 28.9881C70.1822 28.7734 69.8673 28.6574 69.5429 28.6629C69.3499 28.6564 69.1586 28.7 68.9876 28.7896C68.8166 28.8792 68.6717 29.0116 68.5673 29.174C68.3141 29.6094 68.2006 30.1121 68.2421 30.6141C68.1869 31.1366 68.2669 31.6644 68.4744 32.1471C68.5797 32.3499 68.7403 32.5186 68.9377 32.6337C69.135 32.7489 69.361 32.8056 69.5893 32.7975C69.8898 32.7913 70.1814 32.6941 70.4255 32.5188L70.5649 32.4259L71.0759 33.1691C70.6303 33.5282 70.0679 33.7102 69.4964 33.6802C69.1464 33.704 68.7957 33.6449 68.4728 33.5077C68.1499 33.3704 67.8639 33.159 67.6382 32.8904C67.1538 32.3228 66.9045 31.5916 66.9413 30.8464C66.9059 30.2353 67.0342 29.6259 67.313 29.081C67.5179 28.6775 67.8302 28.3382 68.2153 28.1006C68.6005 27.8629 69.0438 27.736 69.4964 27.7338C70.017 27.7078 70.5292 27.8731 70.9365 28.1984Z" fill="#013082"/>
<path id="Vector_119" d="M73.771 27.7802C75.304 27.7802 76.2332 28.8952 76.2332 30.7069C76.2332 32.5187 75.8151 32.9368 74.9788 33.4014C74.6219 33.5919 74.222 33.6879 73.8175 33.6801C73.4666 33.7118 73.1134 33.6563 72.7892 33.5185C72.465 33.3807 72.1799 33.165 71.9592 32.8904C71.5169 32.2672 71.2887 31.5173 71.3089 30.7534C71.3089 29.4991 71.7734 28.5235 72.6096 28.059C72.9666 27.8684 73.3664 27.7724 73.771 27.7802ZM73.771 28.6629C73.592 28.6633 73.4163 28.7107 73.2614 28.8004C73.1065 28.8901 72.9778 29.0189 72.8883 29.1739C72.6547 29.6656 72.5584 30.2114 72.6096 30.7534C72.6096 31.729 72.749 32.3329 73.1206 32.6116C73.3064 32.7531 73.5386 32.8194 73.771 32.7974C74.5608 32.7974 74.9324 32.1935 74.9324 30.7534C74.9476 30.3001 74.9007 29.8468 74.793 29.4062C74.7179 29.1934 74.58 29.0085 74.3975 28.8757C74.215 28.743 73.9966 28.6688 73.771 28.6629Z" fill="#013082"/>
<path id="Vector_120" d="M78.1844 27.8268H79.4387L81.2505 33.5873H79.9962L79.6245 32.2401H77.9057L77.534 33.5873H76.3262L78.1844 27.8268ZM78.1844 31.2645H79.3458C79.3458 31.2645 79.16 30.6606 79.0206 30.1031L78.7883 29.1275C78.7883 29.1275 78.6025 29.7779 78.5096 30.196C78.429 30.5601 78.3203 30.9173 78.1844 31.2645Z" fill="#013082"/>
<path id="Vector_121" d="M85.7099 28.2914L85.1524 29.0812C84.7466 28.8286 84.2827 28.6846 83.8052 28.6631C83.71 28.6501 83.6132 28.657 83.5207 28.6832C83.4283 28.7095 83.3423 28.7545 83.2682 28.8156C83.194 28.8767 83.1333 28.9525 83.0898 29.0381C83.0463 29.1238 83.021 29.2175 83.0155 29.3134C83.0155 29.5922 83.1548 29.778 83.6658 29.8709L84.3162 30.1032C85.2918 30.3355 85.8028 30.9394 85.8028 31.7756C85.8028 32.6118 84.8272 33.7267 83.4336 33.7267C82.7507 33.722 82.0799 33.5464 81.4824 33.2157L81.9005 32.2866C82.3758 32.5804 82.9214 32.7409 83.48 32.7512C84.1304 32.7512 84.4556 32.4724 84.4556 31.9614C84.4556 31.4504 84.2233 31.3575 83.7123 31.2181L83.1084 31.0788C82.6468 30.973 82.2363 30.7103 81.947 30.3355C81.7935 30.0667 81.7134 29.7623 81.7147 29.4528C81.7147 28.4308 82.5509 27.6875 83.7588 27.6875C84.4549 27.6894 85.1344 27.8997 85.7099 28.2914Z" fill="#013082"/>
<path id="Vector_122" d="M86.1748 27.8729H90.3094L90.1235 28.802H88.7299V33.587H87.5685V28.802H86.1748V27.8729Z" fill="#013082"/>
<path id="Vector_123" d="M97.9742 28.4307L97.3703 29.174C97.0436 28.8677 96.6102 28.7011 96.1624 28.7095C95.873 28.6962 95.5897 28.7962 95.3727 28.9882C94.9546 29.3599 94.8617 29.9638 94.8617 30.8464C94.8617 31.7291 95.0011 32.1937 95.3262 32.4724C95.5671 32.6912 95.8836 32.8078 96.2089 32.7976C96.4334 32.8008 96.6558 32.7532 96.8593 32.6582V31.3574H95.9766L95.8373 30.4283H98.0671V33.1228C97.4927 33.4682 96.8327 33.6453 96.1624 33.6338C95.7942 33.6595 95.4251 33.597 95.0858 33.4516C94.7464 33.3062 94.4467 33.082 94.2113 32.7976C93.7696 32.2272 93.5397 31.5211 93.5609 30.8C93.5609 29.5921 93.979 28.7095 94.7688 28.1985C95.178 27.9164 95.6655 27.7701 96.1624 27.7804C96.8259 27.7667 97.471 27.9982 97.9742 28.4307Z" fill="#013082"/>
<path id="Vector_124" d="M98.9957 27.8729H100.157V31.6358C100.123 31.8722 100.156 32.1133 100.25 32.3327C100.338 32.4578 100.457 32.5578 100.596 32.6229C100.734 32.6881 100.887 32.7161 101.04 32.7043C101.551 32.7043 101.876 32.472 101.922 32.0539V27.8729H103.084V31.7287C103.121 32.0262 103.089 32.3282 102.991 32.6114C102.851 33.076 102.294 33.6799 101.04 33.6799C99.7854 33.6799 99.5531 33.4476 99.228 32.9366C99.0363 32.6152 98.9547 32.2401 98.9957 31.8681V27.8729Z" fill="#013082"/>
<path id="Vector_125" d="M105.453 27.8268H106.707L108.519 33.5873H107.265L106.847 32.2401H105.174L104.756 33.5873H103.595L105.453 27.8268ZM105.453 31.2645H106.568C106.453 30.883 106.36 30.4952 106.289 30.1031C106.193 29.7826 106.116 29.4568 106.057 29.1275C106.057 29.1275 105.871 29.7779 105.778 30.196C105.685 30.6141 105.592 30.8929 105.453 31.2645Z" fill="#013082"/>
<path id="Vector_126" d="M109.03 27.8736H111.167C111.394 27.853 111.623 27.8818 111.837 27.9579C112.052 28.0341 112.248 28.1557 112.411 28.3146C112.574 28.4735 112.701 28.6658 112.783 28.8783C112.865 29.0909 112.9 29.3186 112.886 29.546C112.886 30.3822 112.282 31.1255 111.585 31.1255C111.684 31.1778 111.765 31.2588 111.818 31.3578C112.143 31.7759 113.211 33.5877 113.211 33.5877H111.864L111.307 32.6585C110.749 31.6365 110.563 31.3578 110.377 31.2649H110.192V33.6341H109.03V27.8736ZM110.192 28.8027V30.3358H110.563C110.87 30.3811 111.183 30.3152 111.446 30.1499C111.513 30.0745 111.564 29.9862 111.596 29.8903C111.628 29.7945 111.64 29.6931 111.632 29.5925C111.645 29.4463 111.617 29.2993 111.552 29.168C111.486 29.0367 111.385 28.9263 111.26 28.8492H110.192V28.8027Z" fill="#013082"/>
<path id="Vector_127" d="M113.955 27.9199H116.092C116.331 27.9329 116.564 27.9929 116.78 28.0966C116.995 28.2002 117.187 28.3454 117.346 28.5238C117.904 29.0348 118.136 29.7317 118.136 30.8001C118.151 31.4918 117.957 32.1718 117.579 32.7513C117.411 32.97 117.202 33.1527 116.962 33.2884C116.723 33.4241 116.458 33.51 116.185 33.541H113.955V27.9199ZM115.116 28.8026V32.6584H115.767C116.51 32.6584 116.835 32.1009 116.835 30.8931C116.882 30.3362 116.786 29.7767 116.557 29.2671C116.465 29.1174 116.334 28.9953 116.179 28.9135C116.024 28.8317 115.849 28.7934 115.674 28.8026H115.116Z" fill="#013082"/>
</g>
</g>
<defs>
<radialGradient id="paint0_radial_739_20454" cx="0" cy="0" r="1" gradientUnits="userSpaceOnUse" gradientTransform="translate(13.2596 7.12084) scale(19.8607 19.8607)">
<stop stop-color="#FEE7A9"/>
<stop offset="0.46" stop-color="#FFD900"/>
<stop offset="1" stop-color="#E49D00"/>
</radialGradient>
<linearGradient id="paint1_linear_739_20454" x1="14.006" y1="8.99837" x2="20.3518" y2="16.9562" gradientUnits="userSpaceOnUse">
<stop stop-color="#002F82"/>
<stop offset="1" stop-color="#001A60"/>
</linearGradient>
<linearGradient id="paint2_linear_739_20454" x1="13.2254" y1="22.1963" x2="11.4229" y2="10.9169" gradientUnits="userSpaceOnUse">
<stop stop-color="#CA8200"/>
<stop offset="0.3" stop-color="#E1A504"/>
<stop offset="1" stop-color="#CA8200"/>
</linearGradient>
<linearGradient id="paint3_linear_739_20454" x1="15.8964" y1="32.1987" x2="-1.45477" y2="-8.51971" gradientUnits="userSpaceOnUse">
<stop stop-color="#FEDA5D"/>
<stop offset="1" stop-color="#996100"/>
</linearGradient>
<linearGradient id="paint4_linear_739_20454" x1="13.1316" y1="21.5598" x2="15.1338" y2="21.5598" gradientUnits="userSpaceOnUse">
<stop stop-color="#FEE7A9"/>
<stop offset="0.46" stop-color="#FFD900"/>
<stop offset="1" stop-color="#E49D00"/>
</linearGradient>
<linearGradient id="paint5_linear_739_20454" x1="11.5288" y1="20.2454" x2="16.1558" y2="20.2454" gradientUnits="userSpaceOnUse">
<stop stop-color="#FEE7A9"/>
<stop offset="0.46" stop-color="#FFD900"/>
<stop offset="1" stop-color="#E49D00"/>
</linearGradient>
<linearGradient id="paint6_linear_739_20454" x1="2.5171" y1="15.3399" x2="12.3285" y2="15.3399" gradientUnits="userSpaceOnUse">
<stop stop-color="#FEE7A9"/>
<stop offset="0.46" stop-color="#FFD900"/>
<stop offset="1" stop-color="#E49D00"/>
</linearGradient>
<linearGradient id="paint7_linear_739_20454" x1="0.65453" y1="9.79718" x2="18.9581" y2="19.6086" gradientUnits="userSpaceOnUse">
<stop stop-color="#FEE7A9"/>
<stop offset="0.46" stop-color="#FFD900"/>
<stop offset="1" stop-color="#E49D00"/>
</linearGradient>
<linearGradient id="paint8_linear_739_20454" x1="6.00612" y1="18.5777" x2="13.8989" y2="18.5777" gradientUnits="userSpaceOnUse">
<stop stop-color="#FEE7A9"/>
<stop offset="0.46" stop-color="#FFD900"/>
<stop offset="1" stop-color="#E49D00"/>
</linearGradient>
<linearGradient id="paint9_linear_739_20454" x1="9.13181" y1="19.6505" x2="15.1107" y2="19.6505" gradientUnits="userSpaceOnUse">
<stop stop-color="#FEE7A9"/>
<stop offset="0.46" stop-color="#FFD900"/>
<stop offset="1" stop-color="#E49D00"/>
</linearGradient>
<linearGradient id="paint10_linear_739_20454" x1="24.9964" y1="21.5598" x2="22.9941" y2="21.5598" gradientUnits="userSpaceOnUse">
<stop stop-color="#FEE7A9"/>
<stop offset="0.46" stop-color="#FFD900"/>
<stop offset="1" stop-color="#E49D00"/>
</linearGradient>
<linearGradient id="paint11_linear_739_20454" x1="26.5996" y1="20.2454" x2="21.9727" y2="20.2454" gradientUnits="userSpaceOnUse">
<stop stop-color="#FEE7A9"/>
<stop offset="0.46" stop-color="#FFD900"/>
<stop offset="1" stop-color="#E49D00"/>
</linearGradient>
<linearGradient id="paint12_linear_739_20454" x1="35.6123" y1="15.3399" x2="25.8008" y2="15.3399" gradientUnits="userSpaceOnUse">
<stop stop-color="#FEE7A9"/>
<stop offset="0.46" stop-color="#FFD900"/>
<stop offset="1" stop-color="#E49D00"/>
</linearGradient>
<linearGradient id="paint13_linear_739_20454" x1="37.4701" y1="9.79718" x2="19.1712" y2="19.6086" gradientUnits="userSpaceOnUse">
<stop stop-color="#FEE7A9"/>
<stop offset="0.46" stop-color="#FFD900"/>
<stop offset="1" stop-color="#E49D00"/>
</linearGradient>
<linearGradient id="paint14_linear_739_20454" x1="32.1233" y1="18.5777" x2="24.2304" y2="18.5777" gradientUnits="userSpaceOnUse">
<stop stop-color="#FEE7A9"/>
<stop offset="0.46" stop-color="#FFD900"/>
<stop offset="1" stop-color="#E49D00"/>
</linearGradient>
<linearGradient id="paint15_linear_739_20454" x1="28.9966" y1="19.6505" x2="23.0178" y2="19.6505" gradientUnits="userSpaceOnUse">
<stop stop-color="#FEE7A9"/>
<stop offset="0.46" stop-color="#FFD900"/>
<stop offset="1" stop-color="#E49D00"/>
</linearGradient>
<linearGradient id="paint16_linear_739_20454" x1="19.0546" y1="18.0897" x2="19.0546" y2="25.9593" gradientUnits="userSpaceOnUse">
<stop stop-color="#FEE7A9"/>
<stop offset="0.46" stop-color="#FFD900"/>
<stop offset="1" stop-color="#E49D00"/>
</linearGradient>
<radialGradient id="paint17_radial_739_20454" cx="0" cy="0" r="1" gradientUnits="userSpaceOnUse" gradientTransform="translate(19.0457 22.0909) scale(2.55692)">
<stop stop-color="#036EB8"/>
<stop offset="0.57" stop-color="#003894"/>
</radialGradient>
<linearGradient id="paint18_linear_739_20454" x1="18.6188" y1="22.3361" x2="21.1553" y2="23.0237" gradientUnits="userSpaceOnUse">
<stop stop-color="#FEE7A9"/>
<stop offset="0.46" stop-color="#FFD900"/>
<stop offset="1" stop-color="#E49D00"/>
</linearGradient>
<radialGradient id="paint19_radial_739_20454" cx="0" cy="0" r="1" gradientUnits="userSpaceOnUse" gradientTransform="translate(19.3911 22.4619) scale(3.53063 3.53063)">
<stop stop-color="#036EB8"/>
<stop offset="0.57" stop-color="#003894"/>
</radialGradient>
<radialGradient id="paint20_radial_739_20454" cx="0" cy="0" r="1" gradientUnits="userSpaceOnUse" gradientTransform="translate(19.0046 22.202) scale(2.24474)">
<stop stop-color="#E6002D"/>
<stop offset="0.22" stop-color="#DB032B"/>
<stop offset="0.6" stop-color="#BE0C24"/>
<stop offset="1" stop-color="#99161C"/>
</radialGradient>
<linearGradient id="paint21_linear_739_20454" x1="19.0695" y1="14.3041" x2="19.0695" y2="18.6941" gradientUnits="userSpaceOnUse">
<stop stop-color="#FEE7A9"/>
<stop offset="0.46" stop-color="#FFD900"/>
<stop offset="1" stop-color="#E49D00"/>
</linearGradient>
</defs>
</svg>
