<svg width="7" height="12" viewBox="0 0 7 12" fill="none" xmlns="http://www.w3.org/2000/svg">
<path id="?" d="M2.625 8.07173V7.97727C2.63163 7.3608 2.69295 6.87026 2.80895 6.50568C2.92827 6.1411 3.0973 5.84612 3.31605 5.62074C3.5348 5.39536 3.7983 5.18987 4.10653 5.00426C4.3054 4.87831 4.48438 4.73745 4.64347 4.58168C4.80256 4.4259 4.9285 4.24692 5.02131 4.04474C5.11411 3.84257 5.16051 3.61884 5.16051 3.37358C5.16051 3.0786 5.09091 2.82339 4.9517 2.60795C4.8125 2.39252 4.62689 2.2268 4.39489 2.1108C4.16619 1.99148 3.91099 1.93182 3.62926 1.93182C3.37405 1.93182 3.13045 1.98485 2.89844 2.09091C2.66643 2.19697 2.4742 2.36269 2.32173 2.58807C2.16927 2.81013 2.08144 3.09683 2.05824 3.44815H0.546875C0.570076 2.85156 0.720881 2.34777 0.99929 1.93679C1.2777 1.52249 1.6456 1.20928 2.10298 0.997158C2.56368 0.785037 3.07244 0.678977 3.62926 0.678977C4.23911 0.678977 4.77273 0.793324 5.23011 1.02202C5.6875 1.2474 6.04214 1.56392 6.29403 1.97159C6.54924 2.37595 6.67685 2.84825 6.67685 3.38849C6.67685 3.75971 6.61884 4.09446 6.50284 4.39276C6.38684 4.68774 6.22112 4.95123 6.00568 5.18324C5.79356 5.41525 5.53835 5.62074 5.24006 5.79972C4.95833 5.97538 4.72964 6.15767 4.55398 6.34659C4.38163 6.53551 4.25568 6.75923 4.17614 7.01776C4.09659 7.27628 4.0535 7.59612 4.04688 7.97727V8.07173H2.625ZM3.37571 11.0945C3.10393 11.0945 2.87027 10.9983 2.67472 10.8061C2.47917 10.6106 2.38139 10.3752 2.38139 10.1001C2.38139 9.82836 2.47917 9.59635 2.67472 9.40412C2.87027 9.20857 3.10393 9.1108 3.37571 9.1108C3.64418 9.1108 3.87618 9.20857 4.07173 9.40412C4.2706 9.59635 4.37003 9.82836 4.37003 10.1001C4.37003 10.2824 4.32363 10.4498 4.23082 10.6023C4.14134 10.7514 4.02202 10.8707 3.87287 10.9602C3.72372 11.0497 3.558 11.0945 3.37571 11.0945Z" fill="white"/>
</svg>
