<svg width="29" height="23" viewBox="0 0 29 23" fill="none" xmlns="http://www.w3.org/2000/svg">
<g id="Group 1261159919">
<path id="Vector" d="M9.87305 8.38902L12.3699 3.4082L25.1143 9.79709L22.7406 14.533" stroke="#2494D3"/>
<path id="Vector_2" d="M21.5491 1L20.4043 3.28443" stroke="#2494D3"/>
<path id="Vector_3" d="M14.2363 4.34362L15.8996 1.02734L24.9071 5.54137L23.2452 8.85893" stroke="#2494D3"/>
<path id="Vector_4" d="M4.50195 19L6.27546 8.14453L17.6593 8.76136L25.1472 17.3342L23.5993 19.3488" stroke="#2494D3"/>
<path id="Vector_5" d="M17.7168 8.74023L13.3887 17.3746" stroke="#2494D3"/>
<path id="Vector_6" d="M1.28711 20.7955C1.28711 20.7955 4.04041 17.3458 7.71191 20.7955C8.43389 21.4751 10.1049 22.3125 11.6784 20.7955C12.8004 19.7144 14.8805 18.0832 17.8736 20.7955C18.5815 21.4367 20.2665 22.2125 21.6951 20.7955C22.8083 19.6926 24.9216 17.7228 28.002 20.7955" stroke="#2494D3" stroke-linecap="round"/>
</g>
</svg>
