<svg width="20" height="20" viewBox="0 0 20 20" fill="none" xmlns="http://www.w3.org/2000/svg">
    <g id="&#236;&#132;&#164;&#236;&#160;&#149;">
        <path id="icon" fill-rule="evenodd" clip-rule="evenodd" d="M8.18142 2H11.8202L12.6128 4.3778C13.0062 4.55495 13.3783 4.77087 13.7244 5.02071L16.1809 4.51802L18.0003 7.66933L16.3368 9.54529C16.3579 9.75636 16.3687 9.97046 16.3687 10.1871C16.3687 10.4039 16.3579 10.6182 16.3367 10.8294L18.0003 12.7054L16.1809 15.8567L13.7237 15.3539C13.3779 15.6035 13.0061 15.8193 12.613 15.9963L11.8202 18.3747H8.18142L7.38864 15.9963C6.99541 15.8192 6.62341 15.6034 6.27748 15.3537L3.81941 15.8567L2 12.7054L3.66472 10.828C3.64365 10.6172 3.63286 10.4034 3.63286 10.1871C3.63286 9.97092 3.64363 9.75727 3.66467 9.54665L2.00003 7.66941L3.81944 4.5181L6.27684 5.02097C6.62301 4.77101 6.9953 4.55498 7.38884 4.37776L8.18142 2ZM12.4205 10.187C12.4205 11.4202 11.4208 12.4199 10.1875 12.4199C8.95435 12.4199 7.95464 11.4202 7.95464 10.187C7.95464 8.9538 8.95435 7.95409 10.1875 7.95409C11.4208 7.95409 12.4205 8.9538 12.4205 10.187Z" fill="#D7DEFF"/>
    </g>
</svg>
