<svg width="19" height="21" viewBox="0 0 19 21" fill="none" xmlns="http://www.w3.org/2000/svg">
<path id="Vector" d="M17.9815 10.6087C17.9499 10.5207 17.8798 10.4521 17.7912 10.4224L15.5239 9.6602V4.95106C15.5239 4.78206 15.3868 4.64504 15.2178 4.64504H13.2958V0.880252C13.2958 0.711241 13.1588 0.574219 12.9898 0.574219H5.56275C5.39373 0.574219 5.2567 0.711241 5.2567 0.880252V4.64504H3.33456C3.16555 4.64504 3.02852 4.78206 3.02852 4.95106V9.6602L0.76119 10.4224C0.672586 10.4521 0.602501 10.5207 0.570818 10.6087C0.539146 10.6967 0.549457 10.7943 0.59877 10.8736L6.43318 20.2813C6.48891 20.3714 6.58724 20.4261 6.69318 20.4261H11.8593C11.9653 20.4261 12.0636 20.3714 12.1193 20.2813L17.9536 10.8736C18.0029 10.7943 18.0132 10.6967 17.9815 10.6087ZM5.86877 1.18629H12.6838V4.64504H5.86877V1.18629ZM8.97022 19.814H6.86354L1.32247 10.8795L8.97022 8.3087L8.97022 19.814ZM9.27818 7.57727C9.27752 7.57727 9.27693 7.57688 9.27626 7.57688C9.27558 7.57688 9.27501 7.57727 9.27433 7.57727C9.24204 7.57748 9.20975 7.58247 9.17868 7.59288L3.6406 9.45447V5.25711H14.9118V9.45446L9.37384 7.59288C9.34278 7.58247 9.31048 7.57748 9.27818 7.57727ZM11.689 19.814H9.58229V8.30873L17.2299 10.8795L11.689 19.814Z" fill="#E5F1FF" stroke="#E5F1FF" stroke-width="0.3"/>
</svg>
