<svg width="100" height="101" viewBox="0 0 100 101" fill="none" xmlns="http://www.w3.org/2000/svg">
    <g id="icon">
        <g id="Group 1190">
            <g id="Group 1207">
                <g id="Vector">
                    <path d="M29.6992 37.1393V25.3253C29.6992 14.7083 38.3576 7.86621 48.8881 7.86621C59.4186 7.86621 68.077 14.7083 68.077 25.3253V36.9034" fill="white"/>
                    <path d="M29.6992 37.1393V25.3253C29.6992 14.7083 38.3576 7.86621 48.8881 7.86621C59.4186 7.86621 68.077 14.7083 68.077 25.3253V36.9034" stroke="#9EB7D2" stroke-width="3" stroke-linecap="round" stroke-linejoin="round"/>
                </g>
                <g id="Group">
                    <path id="Vector_2" d="M81.183 81.2033C81.183 87.8095 76.0347 93 69.4824 93H29.7006C23.1482 93 18 87.8095 18 81.2033V49.3522C18 42.7461 23.1482 37.5555 29.7006 37.5555H69.4824C76.0347 37.5555 81.183 42.7461 81.183 49.3522V81.2033Z" fill="white" stroke="#9EB7D2" stroke-width="3" stroke-linecap="round" stroke-linejoin="round"/>
                    <path id="Vector_3" d="M49.2012 70.4094V75.5789" stroke="#9EB7D2" stroke-width="3" stroke-linecap="round" stroke-linejoin="round"/>
                    <path id="Ellipse 2569" d="M55.5031 62.0968C55.5031 65.5812 52.6811 68.4037 49.2027 68.4037C45.7243 68.4037 42.9023 65.5812 42.9023 62.0968C42.9023 58.6123 45.7243 55.7898 49.2027 55.7898C52.6811 55.7898 55.5031 58.6123 55.5031 62.0968Z" stroke="#9EB7D2" stroke-width="3"/>
                </g>
            </g>
        </g>
    </g>
</svg>
