<svg width="100" height="101" viewBox="0 0 100 101" fill="none" xmlns="http://www.w3.org/2000/svg">
<g id="icon">
<g id="Group 1190">
<g id="Group 1208">
<path id="Vector" d="M54.0516 10.8662H12V86.9383H70.092V27.0425L54.0516 10.8662Z" stroke="#9EB7D2" stroke-width="3"/>
<path id="Vector_2" d="M52.8252 10.8662V27.0425H68.8655" stroke="#9EB7D2" stroke-width="3"/>
<path id="Vector_3" d="M21.8818 45.1847H61.5508" stroke="#9EB7D2" stroke-width="3"/>
<path id="Vector_4" d="M21.8818 59.1752H53.6245" stroke="#9EB7D2" stroke-width="3"/>
<path id="Vector_5" d="M21.8818 73.1648H48.334" stroke="#9EB7D2" stroke-width="3"/>
</g>
<g id="Group 1207">
<g id="Vector_6">
<path d="M63.3887 63.8644V58.2589C63.3887 53.2213 67.4969 49.9748 72.4935 49.9748C77.49 49.9748 81.5983 53.2213 81.5983 58.2589V63.7525" fill="white"/>
<path d="M63.3887 63.8644V58.2589C63.3887 53.2213 67.4969 49.9748 72.4935 49.9748C77.49 49.9748 81.5983 53.2213 81.5983 58.2589V63.7525" stroke="#9EB7D2" stroke-width="3" stroke-linecap="round" stroke-linejoin="round"/>
</g>
<g id="Group">
<path id="Vector_7" d="M87.8171 84.7294C87.8171 87.8639 85.3744 90.3267 82.2654 90.3267H63.3896C60.2806 90.3267 57.8379 87.8639 57.8379 84.7294V69.6166C57.8379 66.4821 60.2806 64.0192 63.3896 64.0192H82.2654C85.3744 64.0192 87.8171 66.4821 87.8171 69.6166V84.7294Z" fill="white" stroke="#9EB7D2" stroke-width="3" stroke-linecap="round" stroke-linejoin="round"/>
<path id="Vector_8" d="M72.6426 79.6514V82.1042" stroke="#9EB7D2" stroke-width="3" stroke-linecap="round" stroke-linejoin="round"/>
<path id="Ellipse 2569" d="M74.8437 75.7071C74.8437 76.9257 73.857 77.9114 72.6425 77.9114C71.4281 77.9114 70.4414 76.9257 70.4414 75.7071C70.4414 74.4886 71.4281 73.5029 72.6425 73.5029C73.857 73.5029 74.8437 74.4886 74.8437 75.7071Z" stroke="#9EB7D2" stroke-width="3"/>
</g>
</g>
</g>
</g>
</svg>
