<svg width="13" height="12" viewBox="0 0 13 12" fill="none" xmlns="http://www.w3.org/2000/svg">
<g id="icon">
<path id="Vector" d="M6.7334 0C5.54671 0 4.38667 0.351894 3.39998 1.01118C2.41328 1.67047 1.64425 2.60754 1.19012 3.7039C0.735998 4.80026 0.617178 6.00666 0.848689 7.17054C1.0802 8.33443 1.65165 9.40352 2.49076 10.2426C3.32988 11.0818 4.39897 11.6532 5.56286 11.8847C6.72675 12.1162 7.93315 11.9974 9.0295 11.5433C10.1259 11.0892 11.0629 10.3201 11.7222 9.33342C12.3815 8.34673 12.7334 7.18669 12.7334 6C12.7317 4.40923 12.099 2.8841 10.9741 1.75926C9.8493 0.634414 8.32417 0.00172054 6.7334 0ZM6.7334 11C5.74449 11 4.7778 10.7068 3.95555 10.1573C3.1333 9.60794 2.49244 8.82705 2.114 7.91342C1.73557 6.99979 1.63655 5.99445 1.82947 5.02455C2.0224 4.05464 2.4986 3.16373 3.19787 2.46447C3.89713 1.7652 4.78804 1.289 5.75795 1.09607C6.72785 0.903147 7.73319 1.00216 8.64682 1.3806C9.56045 1.75904 10.3413 2.3999 10.8907 3.22215C11.4402 4.04439 11.7334 5.01109 11.7334 6C11.7319 7.32564 11.2047 8.59656 10.2673 9.53393C9.32996 10.4713 8.05904 10.9985 6.7334 11Z" fill="#213079"/>
<path id="Vector_2" d="M6.40601 5.92038L6.40601 8.71338C6.40601 8.84599 6.45868 8.97316 6.55245 9.06693C6.64622 9.1607 6.7734 9.21338 6.90601 9.21338C7.03861 9.21338 7.16579 9.1607 7.25956 9.06693C7.35333 8.97316 7.40601 8.84599 7.40601 8.71338L7.40601 5.71338C7.40598 5.58078 7.35328 5.45363 7.25951 5.35988L5.75951 3.85988C5.66521 3.7688 5.5389 3.7184 5.40781 3.71954C5.27671 3.72068 5.1513 3.77327 5.0586 3.86597C4.96589 3.95867 4.91331 4.08408 4.91217 4.21518C4.91103 4.34628 4.96143 4.47258 5.05251 4.56688L6.40601 5.92038Z" fill="#213079"/>
</g>
</svg>
