<svg width="31" height="30" viewBox="0 0 31 30" fill="none" xmlns="http://www.w3.org/2000/svg">
<g id="&#235;&#130;&#160;&#236;&#148;&#168;_&#235;&#176;&#148;&#235;&#158;&#140; 1">
<path id="Vector" d="M15.663 13.432C15.234 12.707 14.988 11.86 14.988 10.955C14.988 8.26603 17.17 6.08203 19.861 6.08203C22.553 6.08203 24.735 8.26603 24.735 10.955C24.735 13.646 22.553 15.83 19.861 15.83H3.12402" stroke="#040404"/>
<path id="Vector_2" d="M8.08802 12.2423C8.01202 12.0293 7.97002 11.7993 7.97002 11.5623C7.97002 10.4623 8.86102 9.57031 9.96102 9.57031C11.061 9.57031 11.952 10.4633 11.952 11.5623C11.952 12.6613 11.061 13.5523 9.96102 13.5523H3.12402" stroke="#040404"/>
<path id="Vector_3" d="M21.059 19.5526C20.877 19.9456 20.775 20.3806 20.775 20.8416C20.775 22.5406 22.151 23.9176 23.85 23.9176C25.549 23.9176 26.925 22.5406 26.925 20.8416C26.925 19.1446 25.549 17.7676 23.85 17.7676H3.12402" stroke="#040404"/>
<path id="Vector_4" d="M11.199 19.8848H3.12402" stroke="#040404"/>
</g>
</svg>
