<svg width="31" height="30" viewBox="0 0 31 30" fill="none" xmlns="http://www.w3.org/2000/svg">
<g id="&#235;&#130;&#160;&#236;&#148;&#168;_&#234;&#181;&#172;&#235;&#166;&#132;&#235;&#130;&#128; 4">
<path id="Vector" d="M5.94191 25.4277C5.94191 25.4277 1.75991 24.7147 1.75391 20.5487C1.75291 19.0997 2.56091 16.7787 5.94191 16.5327C5.94191 16.5327 6.30091 11.6637 11.7469 11.5147C13.5769 11.4637 16.8629 12.0357 17.3099 16.5327C17.3099 16.5327 22.7269 16.3317 22.8759 20.8767C22.9299 22.4807 22.3969 25.1287 18.3579 25.4277H5.94191Z" stroke="#040404"/>
<path id="Vector_2" d="M14.6543 11.8064C15.5703 10.4454 17.3843 9.40039 19.1513 9.40039C21.9703 9.40039 24.2563 11.6854 24.2563 14.5054C24.2563 16.0094 23.5173 17.5324 22.4853 18.4664" stroke="#040404"/>
<path id="Vector_3" d="M11.7607 7.67773L14.0667 9.69173" stroke="#040404"/>
<path id="Vector_4" d="M24.2578 9.4002L26.7208 7.1582" stroke="#040404"/>
<path id="Vector_5" d="M26.7206 21.9489L24.3926 19.7969" stroke="#040404"/>
<path id="Vector_6" d="M19.0586 7.91627V4.57227" stroke="#040404"/>
<path id="Vector_7" d="M26.1348 14.6445H29.2978" stroke="#040404"/>
</g>
</svg>
