<svg width="20" height="20" viewBox="0 0 20 20" fill="none" xmlns="http://www.w3.org/2000/svg">
    <g id="icon">
        <g id="Group 1261159900">
            <path id="Vector" d="M14.2592 1H4.51367V18.482H17.9775V4.71736L14.2592 1Z" stroke="#426891"/>
            <path id="Vector_2" d="M13.9736 1V4.71736H17.691" stroke="#426891"/>
            <path id="Vector_3" d="M7.08398 10.9385H15.3606" stroke="#426891"/>
            <path id="Vector_4" d="M7.08398 13.2441H15.3606" stroke="#426891"/>
            <path id="Vector_5" d="M7.08398 15.5498H15.3606" stroke="#426891"/>
            <path id="Vector_6" d="M12.4048 3H2V8.64669H12.4048V3Z" fill="#426891"/>
            <path id="XLS" d="M3.53421 7.70213H2.90841L4.09281 5.92553L2.99241 4.27493H3.61821L4.40361 5.46773L5.19321 4.27493H5.81901L4.71441 5.92553L5.89881 7.70213H5.27301L4.40361 6.38753L3.53421 7.70213ZM6.81119 4.27493V7.22333H8.37779V7.70213H6.26939V4.27493H6.81119ZM8.51672 6.87053L8.97452 6.64373C9.14252 7.04273 9.48272 7.27373 9.93212 7.27373C10.3773 7.27373 10.6545 7.10573 10.6545 6.79913C10.6545 6.51773 10.4739 6.38333 10.1463 6.29093L9.64232 6.15233C9.18872 6.02633 8.70992 5.77433 8.70992 5.17793C8.70992 4.57733 9.22232 4.21193 9.89012 4.21193C10.5369 4.21193 10.9863 4.58573 11.1711 5.03513L10.7175 5.26193C10.5663 4.94273 10.2933 4.70333 9.89012 4.70333C9.48272 4.70333 9.24332 4.87973 9.24332 5.17793C9.24332 5.47193 9.47012 5.58953 9.76412 5.66933L10.2555 5.80373C10.7133 5.92973 11.1879 6.19433 11.1879 6.79913C11.1879 7.40813 10.6335 7.76513 9.93212 7.76513C9.24332 7.76513 8.73512 7.42913 8.51672 6.87053Z" fill="white"/>
            <path id="Vector_7" d="M2.36621 8.35645L4.51339 10.7987" stroke="#426891"/>
        </g>
    </g>
</svg>
