<svg width="26" height="24" viewBox="0 0 26 24" fill="none" xmlns="http://www.w3.org/2000/svg">
<g id="_&#229;&#175;&#131;&#226;&#145;&#184;&#226;&#148;&#129;_&#239;&#167;&#143;&#226;&#145;&#164;&#235;&#177;&#182;">
<path id="Vector" d="M1.5 1.08333C1.5 0.796016 1.61414 0.520465 1.8173 0.317301C2.02047 0.114137 2.29602 0 2.58333 0L6.75 0V1.08333H2.58333V5.25H1.5V1.08333ZM24.5 22.9167C24.5 23.204 24.3859 23.4795 24.1827 23.6827C23.9795 23.8859 23.704 24 23.4167 24H19.25V22.9167H23.4167V18.75H24.5V22.9167ZM2.58333 24C2.29602 24 2.02047 23.8859 1.8173 23.6827C1.61414 23.4795 1.5 23.204 1.5 22.9167V18.75H2.58333V22.9167H6.75V24H2.58333ZM23.4167 0C23.704 0 23.9795 0.114137 24.1827 0.317301C24.3859 0.520465 24.5 0.796016 24.5 1.08333V5.25H23.4167V1.08333H19.25V0H23.4167Z" fill="white"/>
<path id="Vector_2" fill-rule="evenodd" clip-rule="evenodd" d="M7.27404 12.3532C6.96127 12.367 6.72605 12.4359 6.56579 12.5517C6.47274 12.6179 6.40553 12.7033 6.36159 12.8026C6.31248 12.9129 6.2918 13.048 6.29438 13.2051C6.30731 13.6628 6.53219 14.2583 6.96386 14.9448L6.96903 14.9558L8.37519 17.3434C8.93869 18.3001 9.53062 19.2761 10.2647 19.9929C10.9704 20.6821 11.8286 21.1481 12.9633 21.1508C14.1911 21.1536 15.0906 20.6684 15.817 19.9405C16.5743 19.1823 17.174 18.1457 17.7634 17.1091L19.3479 14.3245C19.6426 13.6049 19.7511 13.1252 19.6839 12.8412C19.6426 12.673 19.4694 12.5903 19.1747 12.5765C19.1127 12.5765 19.048 12.5765 18.9808 12.5765C18.9111 12.5765 18.8361 12.5848 18.7585 12.5903C18.7172 12.5903 18.6758 12.5903 18.6371 12.582C18.4949 12.5903 18.3501 12.582 18.2028 12.5572L18.7456 9.99596C15.848 9.95736 13.8654 9.41975 11.521 7.82068C10.7507 7.29685 10.518 6.69582 9.74775 6.75371C9.16615 6.87227 8.67762 7.15072 8.2873 7.59736C7.91508 8.0247 7.63334 8.60918 7.44981 9.35633L7.75741 12.3753C7.58681 12.3863 7.42396 12.3808 7.27404 12.356V12.3532ZM19.7175 11.8156C20.1078 11.9424 20.3586 12.2071 20.4594 12.6344C20.5731 13.1086 20.449 13.7731 20.0742 14.6829C20.0665 14.6994 20.0587 14.716 20.051 14.7325L18.4484 17.5502C17.8306 18.6364 17.2025 19.7227 16.365 20.5608C15.499 21.4265 14.4289 22.0027 12.9685 22C11.6037 21.9972 10.5775 21.4403 9.73482 20.6187C8.92059 19.8247 8.29764 18.7991 7.70571 17.7955L6.29955 15.4107C5.78517 14.5919 5.51893 13.8447 5.50083 13.2299C5.49308 12.9404 5.5396 12.6785 5.63783 12.4497C5.74381 12.2071 5.90407 12.0058 6.1212 11.8514C6.22201 11.7797 6.33574 11.7163 6.4624 11.6667C6.37193 10.3737 6.33574 8.74152 6.39519 7.3768C6.42621 7.05423 6.48308 6.7289 6.56838 6.40357C6.92767 5.03334 7.82979 3.93053 8.94644 3.17236C9.33934 2.90493 9.77101 2.68436 10.2259 2.50792C12.9271 1.46025 16.5097 2.03095 18.4277 4.24208C19.2083 5.14362 19.6994 6.34016 19.8054 7.91993L19.7175 11.8156Z" fill="white"/>
</g>
</svg>
