<svg width="24" height="24" viewBox="0 0 24 24" fill="none" xmlns="http://www.w3.org/2000/svg">
    <g id="Group 1261160049">
        <path id="Vector" d="M13.6 12.1818H19.4V14.7018L16.5 13.4545L13.6 14.7018M11.261 20.4545H11.3C12.34 20.4545 13.25 19.8945 13.9 19.1818C14.55 19.8945 15.46 20.4545 16.5 20.4545C17.54 20.4545 18.45 19.8945 19.1 19.1818C19.75 19.8945 20.66 20.4545 21.7 20.4545H21.7325L22.9675 16.1973C23.0195 16.0382 23 15.86 22.9285 15.7073C22.844 15.5545 22.7075 15.44 22.5385 15.3891L21.7 15.1218V12.1818C21.7 11.4755 21.115 10.9091 20.4 10.9091H18.45V9H14.55V10.9091H12.6C12.2552 10.9091 11.9246 11.0432 11.6808 11.2819C11.437 11.5205 11.3 11.8443 11.3 12.1818V15.1218L10.4615 15.3891C10.2925 15.44 10.156 15.5545 10.0715 15.7073C10 15.86 9.9805 16.0382 10.0325 16.1973M21.7 21.7273C20.7965 21.7273 19.893 21.4282 19.1 20.8809C17.514 21.9691 15.486 21.9691 13.9 20.8809C13.107 21.4282 12.2035 21.7273 11.3 21.7273H10V23H11.3C12.1905 23 13.081 22.7773 13.9 22.3636C15.525 23.1909 17.475 23.1909 19.1 22.3636C19.919 22.7773 20.803 23 21.7 23H23V21.7273H21.7Z" fill="white"/>
        <path id="Vector_2" d="M14.1029 7.09836L3.06757 10L1 6.45902L2.15834 6.15164L3.7277 7.36885L6.7045 6.58197L3.71524 1.46721L5.45898 1L10.4535 5.59836L13.4926 4.79918C14.1278 4.62705 14.788 5.0082 14.9623 5.63525C15.1242 6.26229 14.7506 6.91393 14.1029 7.09836Z" fill="white"/>
    </g>
</svg>
