<svg width="24" height="24" viewBox="0 0 24 24" fill="none" xmlns="http://www.w3.org/2000/svg">
    <g id="Group 1261160059">
        <path id="Vector" d="M12.3081 4.14585C15.7968 4.14585 18.6021 6.88621 18.6021 10.2549C18.6021 12.6986 17.1365 14.7844 15.0055 15.7618V19.8549H8.71147V17.2368H7.81232C6.81427 17.2368 6.01403 16.46 6.01403 15.4913V12.8731H4.66531C4.28767 12.8731 4.07187 12.4368 4.28767 12.1662L6.01403 9.95821C6.18487 6.72039 8.91828 4.14585 12.3081 4.14585ZM12.3081 2.40039C8.18097 2.40039 4.76421 5.38512 4.26968 9.29494L2.86701 11.1277H2.84004L2.82206 11.1538C2.32752 11.8171 2.26458 12.6898 2.65122 13.4142C2.97491 14.0164 3.55037 14.4353 4.21573 14.5662V15.4913C4.21573 17.1058 5.36664 18.476 6.91318 18.8688V21.6004H16.8038V16.8004C19.0517 15.3429 20.4004 12.9255 20.4004 10.2549C20.4004 5.91748 16.7678 2.40039 12.3081 2.40039ZM16.2014 9.64403L14.439 10.0891L15.7338 11.3633C16.0485 11.66 16.0485 12.1662 15.7338 12.4717C15.4191 12.7771 14.8976 12.7771 14.5919 12.4717L13.2881 11.2149L12.8206 12.9255C12.7127 13.3531 12.2721 13.5888 11.8585 13.484C11.4089 13.3706 11.1572 12.9429 11.2651 12.5153L11.7416 10.8048L9.97927 11.2673C9.53869 11.372 9.09811 11.1277 8.98122 10.6913C8.87332 10.2986 9.12508 9.86221 9.55667 9.75748L11.319 9.30366L10.0242 8.03821C9.70953 7.74148 9.70953 7.24403 10.0242 6.92985C10.3389 6.62439 10.8604 6.62439 11.1661 6.92985L12.4789 8.18657L12.9375 6.47603C13.0454 6.04839 13.4949 5.80403 13.9175 5.91748C14.3581 6.03094 14.6099 6.45857 14.493 6.87748L14.0164 8.59676L15.7878 8.13421C16.2194 8.02075 16.6599 8.26512 16.7768 8.69275C16.8937 9.10294 16.642 9.5393 16.2014 9.64403Z" fill="white"/>
    </g>
</svg>
