<svg width="27" height="26" viewBox="0 0 27 26" fill="none" xmlns="http://www.w3.org/2000/svg">
<g id="Group 1257">
<path id="Vector" d="M13.5 25.5C20.4036 25.5 26 19.9036 26 13C26 6.09644 20.4036 0.5 13.5 0.5C6.59644 0.5 1 6.09644 1 13C1 19.9036 6.59644 25.5 13.5 25.5Z" fill="#EFF6FF" stroke="#9EB7D2"/>
<path id="i" d="M12.147 20.5V10.1364H15.0213V20.5H12.147ZM13.5909 8.80043C13.1636 8.80043 12.797 8.65874 12.4911 8.37535C12.1897 8.08748 12.0391 7.74337 12.0391 7.34304C12.0391 6.94721 12.1897 6.6076 12.4911 6.32422C12.797 6.03634 13.1636 5.8924 13.5909 5.8924C14.0182 5.8924 14.3826 6.03634 14.6839 6.32422C14.9898 6.6076 15.1428 6.94721 15.1428 7.34304C15.1428 7.74337 14.9898 8.08748 14.6839 8.37535C14.3826 8.65874 14.0182 8.80043 13.5909 8.80043Z" fill="#8BA7C5"/>
</g>
</svg>
