<?xml version="1.0" encoding="UTF-8"?>
<svg width="16" height="16" viewBox="0 0 16 16" fill="none" xmlns="http://www.w3.org/2000/svg">
<path d="M15.9004 0.0996094V6.90039H9.09961V5.09961H13.3721L13.2871 4.9502C12.745 4.00159 12.003 3.25514 11.0625 2.71289C10.1221 2.17073 9.10053 1.90039 8 1.90039C6.30711 1.90039 4.86532 2.49405 3.67969 3.67969C2.49405 4.86532 1.90039 6.30711 1.90039 8C1.90039 9.69289 2.49405 11.1347 3.67969 12.3203C4.86532 13.5059 6.30711 14.0996 8 14.0996C9.30379 14.0996 10.4827 13.7269 11.5332 12.9814C12.5641 12.2498 13.2927 11.2881 13.7197 10.0996H15.6182C15.1458 11.788 14.2206 13.1695 12.8389 14.2461C11.4233 15.3489 9.81129 15.9004 8 15.9004C5.79263 15.9004 3.92636 15.1353 2.39551 13.6045C0.864654 12.0736 0.0996094 10.2074 0.0996094 8C0.0996094 5.79263 0.864654 3.92636 2.39551 2.39551C3.92636 0.864654 5.79263 0.0996094 8 0.0996094C9.13575 0.0996094 10.2217 0.334557 11.2588 0.803711C12.2952 1.27255 13.1834 1.94241 13.9238 2.81445L14.0996 3.02246V0.0996094H15.9004Z" fill="#11154B" stroke="white" stroke-width="0.2"/>
</svg>
