<?xml version="1.0" encoding="UTF-8"?>
<svg width="61" height="54" viewBox="0 0 61 54" fill="none" xmlns="http://www.w3.org/2000/svg">
<path d="M11.998 12V30.963C11.998 32.0741 12.7388 34.5926 13.924 37.037C15.0509 39.7515 16.6287 42.256 18.5906 44.4444C20.6506 46.5808 22.9934 48.4251 25.5536 49.9259C27.3707 51.0112 28.9973 52.3876 30.3684 54C31.7737 52.3933 33.4236 51.0184 35.2573 49.9259C37.8042 48.4055 40.1444 46.5632 42.2203 44.4444C44.4425 42.1481 46.0721 38.8148 46.8869 37.037C47.7018 35.2593 48.8129 32.0741 48.8129 30.963V12L30.3684 0L11.998 12Z" fill="#001A60"/>
<path d="M47.8495 12.5906H47.9977L30.3681 0.960938L12.8125 12.4424V30.9609C12.8125 32.8128 15.5532 40.1461 19.1829 43.9239C21.2171 45.9648 23.5078 47.7327 25.9977 49.1832C27.6174 50.1822 29.0886 51.404 30.3681 52.8128C31.694 51.4241 33.1869 50.205 34.8125 49.1832C37.3023 47.7327 39.5931 45.9648 41.6273 43.9239C45.2569 40.1461 47.9977 32.8128 47.9977 30.9609V12.5165H47.8495V12.5906Z" fill="url(#paint0_radial_2816_96156)"/>
<path d="M14.0723 13.2604V31.1123C14.3613 32.9438 14.9362 34.7185 15.776 36.3715C16.8453 38.8526 18.2948 41.1518 20.0723 43.1864C22.0502 45.1559 24.2646 46.8727 26.6649 48.2975C28.0007 49.0944 29.243 50.0386 30.3686 51.1123C31.5363 50.057 32.8012 49.1145 34.1463 48.2975C36.5466 46.8727 38.761 45.1559 40.7389 43.1864C42.5164 41.1518 43.9659 38.8526 45.0352 36.3715C45.8378 34.7033 46.4109 32.9342 46.7389 31.1123V13.2604L30.3686 2.59375L14.0723 13.2604Z" fill="url(#paint1_linear_2816_96156)"/>
<path d="M12.8125 12.4424H12.9606L30.3681 1.25723V0.960938L12.8125 12.4424Z" fill="#FEDA5D"/>
<path d="M47.8506 12.5906H47.9988L30.3691 0.960938V1.25723L47.8506 12.5906Z" fill="#DFB840"/>
<path d="M46.8136 13.2595L47.1099 13.1114L30.3691 2.14844V2.59288L46.8136 13.2595Z" fill="#D39428"/>
<path d="M13.7012 13.0373L13.9975 13.1855L30.3678 2.59288V2.14844L13.7012 13.0373Z" fill="#D39428"/>
<path d="M26.5901 48.3686C24.183 46.9869 21.9876 45.2655 20.0715 43.2575C16.6641 39.776 13.9975 32.8131 13.9975 31.1834V13.2575L13.7012 13.1094V31.1094C13.7012 31.9242 14.2938 33.9983 15.479 36.5909C16.5505 39.0877 18.0271 41.3903 19.8493 43.4057C21.8051 45.421 24.0224 47.165 26.4419 48.5909C27.8615 49.4797 29.1782 50.5231 30.3678 51.702V51.3316C29.2312 50.1969 27.9629 49.2022 26.5901 48.3686Z" fill="#FEDA5D"/>
<path d="M26.5901 48.3686C24.183 46.9869 21.9876 45.2655 20.0715 43.2575C16.6641 39.776 13.9975 32.8131 13.9975 31.1834V13.2575L13.7012 13.1094V31.1094C13.7012 31.9242 14.2938 33.9983 15.479 36.5909C16.5505 39.0877 18.0271 41.3903 19.8493 43.4057C21.8051 45.421 24.0224 47.165 26.4419 48.5909C27.8615 49.4797 29.1782 50.5231 30.3678 51.702V51.3316C29.2312 50.1969 27.9629 49.2022 26.5901 48.3686Z" fill="url(#paint2_linear_2816_96156)"/>
<path d="M46.8136 31.1834C46.8136 32.8131 44.1469 39.776 40.7395 43.2575C38.7924 45.2309 36.6019 46.9484 34.221 48.3686C32.8371 49.2191 31.5461 50.2122 30.3691 51.3316V51.702C31.5998 50.5393 32.9393 49.4975 34.3691 48.5909C36.7886 47.165 39.0059 45.421 40.9617 43.4057C42.7587 41.3711 44.2327 39.0728 45.3321 36.5909C46.5173 33.9983 47.1099 31.9242 47.1099 31.1094V13.1094L46.8136 13.2575V31.1834Z" fill="#FEDA5D"/>
<path d="M24.3691 8.59373H25.1099C25.3657 8.57469 25.6218 8.62591 25.8506 8.74188C25.9929 8.80334 26.1123 8.90787 26.192 9.04075C26.2717 9.17364 26.3078 9.32817 26.2951 9.48262C26.2812 9.65031 26.2268 9.81211 26.1365 9.95407C26.0461 10.096 25.9226 10.2139 25.7765 10.2974H24.9617V11.3345H24.3691V8.59373ZM24.9617 9.03817V9.92706H25.258C25.327 9.93293 25.3965 9.9226 25.4608 9.89687C25.5251 9.87115 25.5825 9.83076 25.6284 9.77891V9.48262C25.6284 9.18632 25.5543 9.03817 25.258 9.03817H24.9617Z" fill="white"/>
<path d="M27.7027 8.59375C28.4434 8.59375 28.8878 9.11227 28.8878 10.0012C28.9067 10.2444 28.862 10.4884 28.7581 10.7092C28.6542 10.9299 28.4947 11.1199 28.2953 11.2604C28.1214 11.3783 27.9115 11.4307 27.7027 11.4086C27.535 11.4303 27.3646 11.4075 27.2086 11.3425C27.0526 11.2775 26.9164 11.1725 26.8138 11.0382C26.6053 10.7337 26.5013 10.3698 26.5175 10.0012C26.4997 9.7474 26.5444 9.49316 26.6477 9.2607C26.7511 9.02825 26.9098 8.82468 27.1101 8.66783L27.7027 8.59375ZM27.7027 8.96412C27.6087 8.96853 27.5176 8.99844 27.4393 9.05064C27.3611 9.10283 27.2984 9.17535 27.2582 9.26042C27.1515 9.49232 27.1008 9.74605 27.1101 10.0012C27.1101 10.4456 27.1841 10.7419 27.4064 10.89H27.7027C28.073 10.89 28.2212 10.5938 28.2212 9.92709C28.243 9.70213 28.2178 9.4751 28.1471 9.26042C28.1151 9.16953 28.0545 9.09149 27.9744 9.03805C27.8942 8.98461 27.7988 8.95867 27.7027 8.96412Z" fill="white"/>
<path d="M29.2578 8.59375H29.8504V10.89H30.8134V11.4086H29.3319L29.2578 8.59375Z" fill="white"/>
<path d="M31.1836 8.59375H31.7762V11.4086H31.1836V8.59375Z" fill="white"/>
<path d="M34.1468 8.7416L33.8505 9.11197L33.4061 8.96382L32.9616 9.18604C32.8328 9.41019 32.7807 9.67032 32.8135 9.92678C32.7878 10.1762 32.813 10.4282 32.8875 10.6675C32.94 10.7584 33.0156 10.8337 33.1067 10.8858C33.1978 10.9378 33.3011 10.9648 33.4061 10.9638H33.8505C33.8505 10.9442 33.8583 10.9253 33.8722 10.9114C33.8861 10.8976 33.9049 10.8897 33.9246 10.8897L34.1468 11.2601C33.9293 11.4101 33.6702 11.4878 33.4061 11.4823C33.2384 11.5041 33.068 11.4813 32.912 11.4162C32.756 11.3512 32.6198 11.2463 32.5172 11.112C32.2763 10.8494 32.1439 10.5053 32.1468 10.149C32.1299 9.83712 32.2074 9.52738 32.369 9.26012C32.444 9.1017 32.5532 8.96189 32.6887 8.85075C32.8243 8.73962 32.9828 8.65993 33.1528 8.61742C33.3228 8.57491 33.5002 8.57064 33.6721 8.60492C33.8439 8.6392 34.0061 8.71118 34.1468 8.81567V8.7416Z" fill="white"/>
<path d="M34.5176 8.59375H36.1472V9.0382H35.1102V9.70486H35.8509V10.1493H35.1102V10.89H36.1472V11.4086H34.5176V8.59375Z" fill="white"/>
<path d="M32.5176 18.8156C32.5266 19.0073 32.5747 19.1951 32.6589 19.3675C32.7432 19.5399 32.8618 19.6932 33.0075 19.8181C33.1532 19.943 33.3229 20.0367 33.5061 20.0936C33.6894 20.1505 33.8823 20.1693 34.0731 20.1489C34.258 20.1589 34.4431 20.1323 34.6176 20.0707C34.7922 20.009 34.9529 19.9136 35.0906 19.7897C35.2282 19.6658 35.34 19.516 35.4196 19.3489C35.4993 19.1817 35.5451 19.0005 35.5546 18.8156C35.5356 18.4357 35.3712 18.0776 35.0954 17.8156C34.8196 17.5536 34.4535 17.4077 34.0731 17.4082C33.8785 17.3982 33.6839 17.4267 33.5003 17.4921C33.3167 17.5575 33.1479 17.6584 33.0034 17.7892C32.8589 17.9199 32.7416 18.0779 32.6582 18.254C32.5749 18.4301 32.5271 18.621 32.5176 18.8156ZM33.4065 18.8156C33.3715 18.7151 33.3611 18.6078 33.3761 18.5024C33.3911 18.3971 33.4311 18.2969 33.4927 18.2102C33.5543 18.1235 33.6358 18.0528 33.7304 18.0041C33.8249 17.9553 33.9297 17.9298 34.0361 17.9298C34.1425 17.9298 34.2473 17.9553 34.3418 18.0041C34.4364 18.0528 34.5178 18.1235 34.5795 18.2102C34.6411 18.2969 34.6811 18.3971 34.6961 18.5024C34.7111 18.6078 34.7007 18.7151 34.6657 18.8156C34.7007 18.9161 34.7111 19.0234 34.6961 19.1288C34.6811 19.2341 34.6411 19.3343 34.5795 19.421C34.5178 19.5077 34.4364 19.5784 34.3418 19.6271C34.2473 19.6759 34.1425 19.7014 34.0361 19.7014C33.9297 19.7014 33.8249 19.6759 33.7304 19.6271C33.6358 19.5784 33.5543 19.5077 33.4927 19.421C33.4311 19.3343 33.3911 19.2341 33.3761 19.1288C33.3611 19.0234 33.3715 18.9161 33.4065 18.8156Z" fill="white"/>
<path d="M34.8872 14.0742V14.9631H33.776V14.3705H31.2575V14.9631H32.8872V15.1113C32.8901 15.3236 32.845 15.5338 32.7553 15.7262C32.6655 15.9187 32.5333 16.0883 32.3686 16.2224C32.0232 16.5496 31.5818 16.7574 31.1094 16.815L31.5538 17.3335C32.1495 17.2453 32.6977 16.9581 33.1094 16.5187C33.3654 16.2376 33.5665 15.911 33.702 15.5557H34.8872V16.0001H33.702V16.5927H34.8872V17.2594H35.776V14.0742H34.8872Z" fill="white"/>
<path d="M19.4059 14V14.8889H18.2207V15.4815H18.6651C18.5805 15.6944 18.5305 15.9194 18.517 16.1481C18.517 16.5018 18.6575 16.8409 18.9075 17.091C19.1576 17.341 19.4967 17.4815 19.8503 17.4815C20.204 17.4815 20.5431 17.341 20.7931 17.091C21.0432 16.8409 21.1837 16.5018 21.1837 16.1481C21.1787 15.9086 21.1012 15.6761 20.9614 15.4815H21.4059V14.8889H20.2948V14H19.4059ZM19.4059 16.2222C19.4059 15.7778 19.6281 15.4815 19.8503 15.4815C20.0726 15.4815 20.2948 15.7778 20.2948 16.2222C20.2948 16.6667 20.0726 16.8889 19.8503 16.8889C19.6281 16.8889 19.4059 16.5926 19.4059 16.2222Z" fill="white"/>
<path d="M22.8882 14.0742V15.852H22.4437V14.0742H21.6289V20.0001H22.4437V16.5187H22.8882V20.0001H23.6289V14.0742H22.8882Z" fill="white"/>
<path d="M28.3691 14.0742V17.2594H29.258V16.5927H30.0728V15.9261H29.258V15.4076H30.0728V14.815H29.258V14.0742H28.3691Z" fill="white"/>
<path d="M25.9993 18.8137C25.9694 19.1259 26.0346 19.4399 26.1864 19.7144C26.3382 19.9889 26.5694 20.2112 26.8497 20.3519C27.13 20.4927 27.4463 20.5454 27.7572 20.5032C28.068 20.461 28.3588 20.3258 28.5914 20.1153C28.824 19.9048 28.9875 19.629 29.0606 19.3239C29.1336 19.0189 29.1127 18.6989 29.0006 18.4059C28.8885 18.1129 28.6904 17.8607 28.4324 17.6823C28.1744 17.5039 27.8685 17.4077 27.5548 17.4063C27.3579 17.3854 27.1589 17.4063 26.9706 17.4677C26.7824 17.529 26.6092 17.6294 26.4624 17.7622C26.3156 17.895 26.1984 18.0573 26.1186 18.2385C26.0388 18.4197 25.9982 18.6157 25.9993 18.8137ZM26.8881 18.8137C26.8881 18.7261 26.9054 18.6394 26.9389 18.5585C26.9724 18.4777 27.0215 18.4042 27.0834 18.3423C27.1453 18.2804 27.2188 18.2312 27.2997 18.1977C27.3806 18.1642 27.4673 18.147 27.5548 18.147C27.6424 18.147 27.729 18.1642 27.8099 18.1977C27.8908 18.2312 27.9643 18.2804 28.0262 18.3423C28.0881 18.4042 28.1372 18.4777 28.1707 18.5585C28.2042 18.6394 28.2215 18.7261 28.2215 18.8137C28.2215 18.9012 28.2042 18.9879 28.1707 19.0688C28.1372 19.1497 28.0881 19.2232 28.0262 19.2851C27.9643 19.347 27.8908 19.3961 27.8099 19.4296C27.729 19.4631 27.6424 19.4803 27.5548 19.4803C27.4673 19.4803 27.3806 19.4631 27.2997 19.4296C27.2188 19.3961 27.1453 19.347 27.0834 19.2851C27.0215 19.2232 26.9724 19.1497 26.9389 19.0688C26.9054 18.9879 26.8881 18.9012 26.8881 18.8137Z" fill="white"/>
<path d="M24.7383 15.6299C24.7383 16.0228 24.8944 16.3997 25.1722 16.6775C25.45 16.9553 25.8268 17.1114 26.2198 17.1114C26.6127 17.1114 26.9895 16.9553 27.2673 16.6775C27.5452 16.3997 27.7012 16.0228 27.7012 15.6299C27.7012 15.237 27.5452 14.8602 27.2673 14.5824C26.9895 14.3045 26.6127 14.1484 26.2198 14.1484C25.8268 14.1484 25.45 14.3045 25.1722 14.5824C24.8944 14.8602 24.7383 15.237 24.7383 15.6299ZM25.6272 15.6299C25.6272 15.4728 25.6896 15.322 25.8007 15.2109C25.9119 15.0998 26.0626 15.0373 26.2198 15.0373C26.3769 15.0373 26.5277 15.0998 26.6388 15.2109C26.7499 15.322 26.8124 15.4728 26.8124 15.6299C26.8124 15.7871 26.7499 15.9378 26.6388 16.0489C26.5277 16.1601 26.3769 16.2225 26.2198 16.2225C26.0626 16.2225 25.9119 16.1601 25.8007 16.0489C25.6896 15.9378 25.6272 15.7871 25.6272 15.6299Z" fill="white"/>
<path d="M40.8125 14.0742V17.2594H41.7014V15.9261H42.5162V15.2594H41.7014V14.0742H40.8125Z" fill="white"/>
<path d="M38.1461 13.9999V14.6665H37.1091V15.3332H38.1461C38.1362 15.5038 38.0917 15.6705 38.0153 15.8233C37.9389 15.9761 37.8322 16.1118 37.7017 16.2221C37.6103 16.3314 37.4973 16.4207 37.3699 16.4844C37.2424 16.5481 37.1032 16.5849 36.9609 16.5924L37.1832 16.8887L37.4054 17.111C37.8997 16.9773 38.3239 16.6592 38.5906 16.2221C38.5906 16.148 38.5906 16.148 38.6646 16.148H38.7387C39.0205 16.5711 39.4388 16.8849 39.9239 17.0369C40.053 16.8486 40.202 16.6748 40.3683 16.5184C40.0723 16.4581 39.7937 16.3314 39.5535 16.148C39.3203 15.9025 39.1656 15.593 39.1091 15.2591H40.1461V14.5924H39.1091V13.9258L38.1461 13.9999Z" fill="white"/>
<path d="M37.9238 17.5547V18.0732H40.8127V18.5176H37.9238V19.4806C37.9238 19.851 38.072 19.9991 38.4423 19.9991H41.7757V19.4806H38.8868V19.1102H41.6275C41.7016 19.1102 41.7016 19.1102 41.7016 19.0362V17.6288H37.9238V17.5547Z" fill="white"/>
<path d="M30.3681 52.5938L30.1458 52.2975C28.9046 51.0942 27.5389 50.0265 26.0718 49.1123C23.5752 47.7051 21.3032 45.9324 19.331 43.853C17.1829 41.7049 15.6273 38.5197 14.8125 36.816C13.9977 35.1123 12.9606 32.0752 12.9606 31.0382V12.5938H12.8125V30.9641C12.8125 32.816 15.5532 40.1493 19.1829 43.9271C21.2171 45.968 23.5078 47.7359 25.9977 49.1863C27.6174 50.1853 29.0886 51.4072 30.3681 52.816V52.5938Z" fill="url(#paint3_linear_2816_96156)"/>
<path d="M30.3691 52.5938L30.6654 52.2975C31.9067 51.0942 33.2724 50.0265 34.7395 49.1123C37.2232 47.6858 39.4926 45.9152 41.4803 43.853C43.3258 41.7434 44.8485 39.372 45.9988 36.816C47.0358 34.3715 47.8506 32.0752 47.8506 31.0382V12.5938H47.9988V30.9641C47.9988 32.816 45.258 40.1493 41.6284 43.9271C39.5942 45.968 37.3034 47.7359 34.8136 49.1863C33.188 50.2081 31.6951 51.4273 30.3691 52.816V52.5938Z" fill="#D39428"/>
<path d="M30.3684 2.59375L13.998 13.2604V31.1863C13.998 32.816 16.6647 39.7789 20.0721 43.2604C21.9882 45.2684 24.1836 46.9898 26.5906 48.3715C27.9635 49.2051 29.2318 50.1998 30.3684 51.3345C31.5454 50.2151 32.8364 49.222 34.2203 48.3715C36.6012 46.9513 38.7916 45.2338 40.7388 43.2604C44.1462 39.7789 46.8129 32.816 46.8129 31.1863V13.2604L30.3684 2.59375ZM46.5906 31.1863C46.5906 32.816 43.924 39.7049 40.5906 43.1123C38.6746 45.1203 36.4792 46.8417 34.0721 48.2234C32.7383 49.0233 31.4963 49.9673 30.3684 51.0382C29.2661 49.9689 28.0488 49.0249 26.7388 48.2234C24.3317 46.8417 22.1363 45.1203 20.2203 43.1123C16.8129 39.7049 14.2203 32.816 14.2203 31.1863V13.4086L30.3684 2.81597L46.5906 13.4086V31.1863Z" fill="#000044"/>
<path d="M30.3689 29.1094C29.1529 29.1094 27.9642 29.47 26.9531 30.1455C25.9421 30.8211 25.154 31.7813 24.6887 32.9047C24.2234 34.0282 24.1016 35.2643 24.3388 36.457C24.5761 37.6496 25.1616 38.7451 26.0215 39.6049C26.8813 40.4648 27.9768 41.0503 29.1694 41.2875C30.362 41.5248 31.5982 41.403 32.7216 40.9377C33.8451 40.4723 34.8053 39.6843 35.4809 38.6732C36.1564 37.6622 36.517 36.4735 36.517 35.2575C36.517 33.6269 35.8693 32.0631 34.7163 30.9101C33.5632 29.7571 31.9994 29.1094 30.3689 29.1094Z" fill="#FFD900"/>
<path d="M20.9609 35.0353C21.3597 35.3302 21.8206 35.5302 22.3084 35.6201C22.7962 35.7099 23.298 35.6873 23.7758 35.5538V35.2575C23.7844 34.5264 23.9094 33.8012 24.1461 33.1094C23.235 33.9726 22.1486 34.6295 20.9609 35.0353Z" fill="url(#paint4_linear_2816_96156)"/>
<path d="M20.5918 35.9251C20.7792 37.5666 21.2294 39.1673 21.9251 40.6658C21.9559 40.7369 22.0081 40.7966 22.0746 40.8365C22.141 40.8764 22.2183 40.8944 22.2955 40.888C23.4108 40.707 24.4444 40.1902 25.2585 39.4065C24.4408 38.4408 23.9256 37.2557 23.777 35.9991C22.6964 36.2397 21.5653 36.0819 20.5918 35.5547V35.851V35.9251Z" fill="#FFD900"/>
<path d="M25.7023 45.4068C26.8875 44.4439 27.5542 41.9994 27.7764 41.3328C26.9074 40.9906 26.1418 40.4291 25.5542 39.7031C24.6819 40.5973 23.5337 41.1714 22.2949 41.3328C23.0428 42.85 24.0449 44.2279 25.2579 45.4068C25.2857 45.4384 25.3199 45.4636 25.3582 45.4809C25.3965 45.4982 25.4381 45.5071 25.4801 45.5071C25.5221 45.5071 25.5637 45.4982 25.602 45.4809C25.6403 45.4636 25.6745 45.4384 25.7023 45.4068Z" fill="#FFD900"/>
<path d="M25.258 31.0372C25.4552 30.8082 25.6289 30.5601 25.7765 30.2964L24.7395 30.0742H24.5173C23.1099 31.2594 20.8877 33.1113 18.3691 33.7038C18.7379 34.1471 19.2404 34.4588 19.8013 34.5924C20.3622 34.7259 20.9513 34.6741 21.4803 34.4446C22.8077 33.766 23.9707 32.8053 24.8877 31.6298L25.258 31.0372Z" fill="url(#paint5_linear_2816_96156)"/>
<path d="M35.1092 45.4068C35.1295 45.4374 35.157 45.4625 35.1893 45.4798C35.2216 45.4971 35.2577 45.5062 35.2944 45.5062C35.3311 45.5062 35.3672 45.4971 35.3995 45.4798C35.4318 45.4625 35.4593 45.4374 35.4796 45.4068C36.7384 44.2512 37.7686 42.8692 38.5166 41.3328C37.2688 41.2018 36.1109 40.6228 35.2574 39.7031C34.6477 40.4056 33.8884 40.9625 33.0352 41.3328C33.1833 41.9994 33.924 44.4439 35.1092 45.4068Z" fill="#FFD900"/>
<path d="M30.9609 41.8508V42.3694C31.035 43.7768 31.035 47.7027 31.2572 48.3694C32.5664 47.7429 33.7869 46.9458 34.8869 45.999C34.3683 45.5545 33.4054 44.5175 32.5165 41.4805C32.0222 41.6898 31.4965 41.8149 30.9609 41.8508Z" fill="#FFD900"/>
<path d="M38.888 40.6659C39.5502 39.1552 39.999 37.5597 40.2214 35.9252V35.6289C39.2189 36.1491 38.0672 36.3061 36.9621 36.0733C36.8076 37.315 36.3214 38.492 35.5547 39.4808C36.357 40.2809 37.3962 40.8005 38.5177 40.9622L38.888 40.6659Z" fill="#FFD900"/>
<path d="M29.5535 48.3695C29.7757 47.7028 29.7757 43.7769 29.7757 42.3695V41.851L28.2942 41.5547C27.4053 44.5177 26.4423 45.6288 25.9238 45.9991C27.0238 46.946 28.2443 47.743 29.5535 48.3695Z" fill="#FFD900"/>
<path d="M19.6277 27.702L19.1832 27.4057C17.6277 26.2946 16.6647 25.4797 16.6647 25.4797C12.3639 24.2616 8.13497 22.8025 3.99805 21.1094C3.99805 21.1094 3.99805 26.6649 8.96101 27.5538C12.5118 27.7828 16.0719 27.8323 19.6277 27.702Z" fill="url(#paint6_linear_2816_96156)"/>
<path d="M16.8867 25.1114C16.8867 25.1114 20.9607 29.1114 26.0718 29.9262L27.1829 28.3707C22.8126 27.9262 20.0718 25.4818 18.22 23.6299C17.6226 22.9767 16.9219 22.4261 16.1459 22.0003L0.66443 12.1484C0.66443 12.1484 -0.150384 18.5188 3.99776 20.5188L4.36813 20.667C8.44251 22.4124 12.6238 23.8969 16.8867 25.1114Z" fill="url(#paint7_linear_2816_96156)"/>
<path d="M20.2214 28.0742C17.6288 28.2224 14.1473 28.2224 9.55469 28.0742C9.9157 29.0677 10.6033 29.9092 11.5049 30.4609C12.4065 31.0126 13.4687 31.2419 14.5176 31.1113C17.132 30.7538 19.6937 30.0823 22.1473 29.1113C21.4691 28.8376 20.8232 28.4898 20.2214 28.0742Z" fill="url(#paint8_linear_2816_96156)"/>
<path d="M24.0733 29.8506L22.5918 29.332C20.0117 30.372 17.3307 31.1416 14.5918 31.6283C14.8268 32.1846 15.2346 32.6506 15.7548 32.9574C16.275 33.2642 16.8801 33.3955 17.4807 33.332C19.6288 33.258 22.0733 31.6283 24.0733 29.8506Z" fill="url(#paint9_linear_2816_96156)"/>
<path d="M39.8512 35.0353C39.4524 35.3302 38.9915 35.5302 38.5038 35.6201C38.016 35.7099 37.5141 35.6873 37.0364 35.5538V35.2575C37.0277 34.5264 36.9027 33.8012 36.666 33.1094C37.5772 33.9726 38.6635 34.6295 39.8512 35.0353Z" fill="url(#paint10_linear_2816_96156)"/>
<path d="M35.5537 31.0372C35.3565 30.8082 35.1828 30.5601 35.0352 30.2964L36.0722 30.0742H36.2203C37.7018 31.2594 39.924 33.1113 42.4426 33.7038C42.0738 34.1471 41.5713 34.4588 41.0104 34.5924C40.4495 34.7259 39.8604 34.6741 39.3315 34.4446C37.9913 33.7855 36.8243 32.8214 35.924 31.6298L35.5537 31.0372Z" fill="url(#paint11_linear_2816_96156)"/>
<path d="M41.1094 27.702L41.6279 27.4057C43.1834 26.2946 44.1464 25.4797 44.1464 25.4797C48.4472 24.2616 52.6761 22.8025 56.8131 21.1094C56.8131 21.1094 56.8131 26.6649 51.776 27.5538C48.2253 27.7832 44.6652 27.8327 41.1094 27.702Z" fill="url(#paint12_linear_2816_96156)"/>
<path d="M43.9252 25.1114C43.9252 25.1114 39.8511 29.1114 34.74 29.9262C34.3435 29.4269 33.9727 28.9077 33.6289 28.3707C37.9993 27.9262 40.74 25.4818 42.5178 23.6299C43.1505 22.9848 43.8742 22.4358 44.6659 22.0003L60.1474 12.1484H60.0733C60.0733 12.1484 60.9622 18.5188 56.8141 20.5188L56.3696 20.667C52.3209 22.4132 48.1642 23.8977 43.9252 25.1114Z" fill="url(#paint13_linear_2816_96156)"/>
<path d="M40.5919 28.0742C43.1845 28.2224 46.666 28.2224 51.2586 28.0742H51.1845C50.8352 29.0757 50.15 29.9253 49.2454 30.4789C48.3407 31.0325 47.2723 31.256 46.2216 31.1113C43.6331 30.7445 41.097 30.0732 38.666 29.1113C39.3442 28.8376 39.9901 28.4898 40.5919 28.0742Z" fill="url(#paint14_linear_2816_96156)"/>
<path d="M36.7383 29.8506L38.2198 29.332C40.7998 30.372 43.4809 31.1416 46.2198 31.6283C45.9847 32.1846 45.577 32.6506 45.0568 32.9574C44.5366 33.2642 43.9315 33.3955 43.3309 33.332C41.1827 33.258 38.7383 31.6283 36.7383 29.8506Z" fill="url(#paint15_linear_2816_96156)"/>
<path d="M36.517 35.2575C36.517 36.4735 36.1564 37.6622 35.4809 38.6732C34.8053 39.6843 33.8451 40.4723 32.7216 40.9377C31.5982 41.403 30.362 41.5248 29.1694 41.2875C27.9768 41.0503 26.8813 40.4648 26.0215 39.6049C25.1616 38.7451 24.5761 37.6496 24.3388 36.457C24.1016 35.2643 24.2234 34.0282 24.6887 32.9047C25.154 31.7813 25.9421 30.8211 26.9531 30.1455C27.9642 29.47 29.1529 29.1094 30.3689 29.1094C31.1762 29.1094 31.9757 29.2684 32.7216 29.5774C33.4676 29.8863 34.1453 30.3392 34.7163 30.9101C35.2872 31.481 35.74 32.1588 36.049 32.9047C36.358 33.6507 36.517 34.4501 36.517 35.2575Z" fill="url(#paint16_linear_2816_96156)"/>
<path d="M30.3685 30.5922C30.2638 30.5745 30.169 30.52 30.1011 30.4385C30.0331 30.357 29.9966 30.2539 29.9981 30.1478C29.9981 30.0495 30.0371 29.9553 30.1066 29.8859C30.176 29.8164 30.2702 29.7774 30.3685 29.7774C30.4746 29.7759 30.5777 29.8124 30.6592 29.8804C30.7407 29.9483 30.7952 30.0431 30.8129 30.1478C30.8129 30.2656 30.7661 30.3787 30.6827 30.462C30.5994 30.5454 30.4863 30.5922 30.3685 30.5922Z" fill="#001A60"/>
<path d="M33.9991 32.0727C33.8813 32.0727 33.7682 32.0259 33.6849 31.9425C33.6015 31.8592 33.5547 31.7461 33.5547 31.6282C33.5724 31.5236 33.6269 31.4288 33.7084 31.3608C33.7899 31.2929 33.893 31.2564 33.9991 31.2579C34.0974 31.2579 34.1916 31.2969 34.261 31.3663C34.3305 31.4358 34.3695 31.53 34.3695 31.6282C34.371 31.7343 34.3345 31.8374 34.2665 31.919C34.1986 32.0005 34.1038 32.055 33.9991 32.0727Z" fill="#001A60"/>
<path d="M35.4796 35.6312C35.3735 35.6327 35.2704 35.5962 35.1889 35.5283C35.1074 35.4603 35.0528 35.3655 35.0352 35.2608C35.0352 35.143 35.082 35.0299 35.1653 34.9466C35.2487 34.8632 35.3617 34.8164 35.4796 34.8164C35.5842 34.8341 35.6791 34.8886 35.747 34.9701C35.8149 35.0516 35.8515 35.1548 35.85 35.2608C35.85 35.3591 35.811 35.4533 35.7415 35.5227C35.672 35.5922 35.5778 35.6312 35.4796 35.6312Z" fill="#001A60"/>
<path d="M33.9991 39.2602C33.8813 39.2602 33.7682 39.2133 33.6849 39.13C33.6015 39.0466 33.5547 38.9336 33.5547 38.8157C33.5724 38.7111 33.6269 38.6163 33.7084 38.5483C33.7899 38.4804 33.893 38.4439 33.9991 38.4454C34.0974 38.4454 34.1916 38.4844 34.261 38.5538C34.3305 38.6233 34.3695 38.7175 34.3695 38.8157C34.371 38.9218 34.3345 39.0249 34.2665 39.1065C34.1986 39.188 34.1038 39.2425 33.9991 39.2602Z" fill="#001A60"/>
<path d="M30.3685 40.7406C30.2638 40.723 30.169 40.6684 30.1011 40.5869C30.0331 40.5054 29.9966 40.4023 29.9981 40.2962C29.9981 40.198 30.0371 40.1038 30.1066 40.0343C30.176 39.9648 30.2702 39.9258 30.3685 39.9258C30.4746 39.9243 30.5777 39.9609 30.6592 40.0288C30.7407 40.0967 30.7952 40.1916 30.8129 40.2962C30.8129 40.4141 30.7661 40.5271 30.6827 40.6105C30.5994 40.6938 30.4863 40.7406 30.3685 40.7406Z" fill="#001A60"/>
<path d="M26.8136 39.2602C26.6957 39.2602 26.5827 39.2133 26.4993 39.13C26.416 39.0466 26.3691 38.9336 26.3691 38.8157C26.3868 38.7111 26.4413 38.6163 26.5228 38.5483C26.6044 38.4804 26.7075 38.4439 26.8136 38.4454C26.9118 38.4454 27.006 38.4844 27.0755 38.5538C27.1449 38.6233 27.184 38.7175 27.184 38.8157C27.1854 38.9218 27.1489 39.0249 27.081 39.1065C27.0131 39.188 26.9182 39.2425 26.8136 39.2602Z" fill="#001A60"/>
<path d="M25.3312 35.6312C25.2251 35.6327 25.1219 35.5962 25.0404 35.5283C24.9589 35.4603 24.9044 35.3655 24.8867 35.2608C24.8867 35.143 24.9335 35.0299 25.0169 34.9466C25.1002 34.8632 25.2133 34.8164 25.3312 34.8164C25.4358 34.8341 25.5306 34.8886 25.5986 34.9701C25.6665 35.0516 25.703 35.1548 25.7015 35.2608C25.7015 35.3591 25.6625 35.4533 25.5931 35.5227C25.5236 35.5922 25.4294 35.6312 25.3312 35.6312Z" fill="#001A60"/>
<path d="M26.8136 32.0727C26.6957 32.0727 26.5827 32.0259 26.4993 31.9425C26.416 31.8592 26.3691 31.7461 26.3691 31.6282C26.3868 31.5236 26.4413 31.4288 26.5228 31.3608C26.6044 31.2929 26.7075 31.2564 26.8136 31.2579C26.9118 31.2579 27.006 31.2969 27.0755 31.3663C27.1449 31.4358 27.184 31.53 27.184 31.6282C27.1854 31.7343 27.1489 31.8374 27.081 31.919C27.0131 32.0005 26.9182 32.055 26.8136 32.0727Z" fill="#001A60"/>
<path d="M34.4437 35.3317C34.4241 36.4123 33.976 37.4407 33.1981 38.1909C32.4202 38.941 31.3761 39.3514 30.2956 39.3317C29.2151 39.3121 28.1866 38.864 27.4365 38.0861C26.6863 37.3082 26.276 36.2641 26.2956 35.1836C26.334 34.1093 26.7879 33.0919 27.5617 32.3457C28.3355 31.5996 29.3688 31.1829 30.4437 31.1836C30.9817 31.1832 31.5143 31.2914 32.0095 31.5016C32.5047 31.7118 32.9524 32.0198 33.3259 32.407C33.6993 32.7943 33.9908 33.2529 34.1829 33.7555C34.3749 34.258 34.4637 34.7941 34.4437 35.3317Z" fill="url(#paint17_radial_2816_96156)"/>
<path d="M33.554 35.7017C33.554 33.8498 32.3689 32.8128 31.3318 32.8128C31.1371 32.7923 30.9402 32.8107 30.7527 32.8668C30.5651 32.9229 30.3905 33.0156 30.2389 33.1396C30.0874 33.2636 29.9619 33.4163 29.8698 33.5891C29.7777 33.7619 29.7207 33.9512 29.7022 34.1461C29.7097 34.3727 29.7748 34.5937 29.8915 34.7881C30.0081 34.9825 30.1724 35.144 30.3689 35.2572C30.5625 35.1535 30.7788 35.0992 30.9985 35.0992C31.2182 35.0992 31.4345 35.1535 31.6281 35.2572C31.9335 35.4804 32.1419 35.8118 32.2108 36.1836C32.2796 36.5555 32.2037 36.9396 31.9985 37.2572C31.4059 38.1461 29.9244 38.6646 28.2948 37.7017C27.8454 37.4273 27.4691 37.0482 27.1982 36.5967C26.9273 36.1452 26.7698 35.6347 26.7392 35.1091C26.7089 35.6041 26.7803 36.1001 26.949 36.5664C27.1178 37.0328 27.3803 37.4596 27.7204 37.8205C28.0606 38.1815 28.471 38.4689 28.9265 38.665C29.3821 38.8612 29.8729 38.9619 30.3689 38.9609C30.9437 38.974 31.5099 38.8196 31.9985 38.5165C32.4896 38.2335 32.894 37.8218 33.1682 37.3257C33.4423 36.8296 33.5758 36.2681 33.554 35.7017Z" fill="url(#paint18_linear_2816_96156)"/>
<path d="M28.3678 37.7774C29.9974 38.6663 31.553 38.1478 32.0715 37.1848C32.2522 36.8542 32.3068 36.4692 32.225 36.1013C32.1433 35.7335 31.9308 35.4078 31.627 35.1848C31.4292 35.0854 31.2086 35.0398 30.9875 35.0528C30.7664 35.0658 30.5526 35.1369 30.3678 35.2589C30.3625 35.4763 30.2975 35.688 30.1799 35.8709C30.0623 36.0538 29.8967 36.2009 29.7011 36.296C29.3557 36.4524 28.9636 36.4704 28.6053 36.3464C28.247 36.2224 27.9499 35.9657 27.7752 35.6293C27.2567 34.6663 27.553 33.1108 29.2567 32.2219C29.7104 31.946 30.2259 31.7879 30.7564 31.762C31.2868 31.7361 31.8153 31.8433 32.2937 32.0737C31.8687 31.8096 31.3947 31.6343 30.9001 31.5584C30.4056 31.4826 29.9008 31.5077 29.4162 31.6323C28.9316 31.7569 28.4773 31.9784 28.0807 32.2835C27.684 32.5885 27.3533 32.9707 27.1085 33.4071C26.8164 33.9004 26.6629 34.4634 26.6641 35.0367C26.6994 35.5987 26.8736 36.1433 27.1709 36.6215C27.4682 37.0998 27.8794 37.497 28.3678 37.7774Z" fill="url(#paint19_radial_2816_96156)"/>
<path d="M29.1833 32.2225C27.5536 33.1855 27.2573 34.741 27.7759 35.6299C27.9646 35.9731 28.2706 36.2369 28.6379 36.3729C29.0051 36.5089 29.4091 36.5082 29.7759 36.3707C29.9541 36.2442 30.1005 36.078 30.2034 35.8851C30.3062 35.6922 30.3627 35.4781 30.3685 35.2596C30.1858 35.1375 30.0361 34.9722 29.9327 34.7784C29.8293 34.5845 29.7755 34.3681 29.7759 34.1485C29.7849 33.9568 29.833 33.769 29.9172 33.5966C30.0015 33.4242 30.1201 33.2708 30.2658 33.146C30.4115 33.0211 30.5812 32.9273 30.7644 32.8704C30.9477 32.8135 31.1406 32.7947 31.3314 32.8151C32.3685 32.8151 33.6277 33.9262 33.5536 35.7781C33.5451 36.3019 33.4132 36.8163 33.1687 37.2797C32.9242 37.743 32.5739 38.1421 32.1462 38.4448C33.0175 37.9606 33.6621 37.1517 33.9396 36.1943C34.2171 35.2369 34.105 34.2087 33.6277 33.3336C33.3305 32.8515 32.9246 32.4456 32.4425 32.1485C31.9363 31.8874 31.3728 31.7575 30.8035 31.7704C30.2341 31.7834 29.6771 31.9388 29.1833 32.2225Z" fill="url(#paint20_radial_2816_96156)"/>
<path d="M37.0352 35.5573C37.5129 35.6907 38.0147 35.7134 38.5025 35.6235C38.9903 35.5337 39.4512 35.3337 39.85 35.0388L39.4796 34.8906C39.1172 35.1124 38.7114 35.2536 38.2896 35.3047C37.8679 35.3558 37.44 35.3157 37.0352 35.1869V35.5573Z" fill="#E49D00"/>
<path d="M56.8137 20.5204C57.5066 20.159 58.1154 19.6556 58.6004 19.0429C59.0855 18.4302 59.4358 17.7221 59.6285 16.9648C59.1075 18.084 58.2539 19.0153 57.1841 19.6315C57.1841 19.6315 54.3693 21.4834 43.9248 24.5945C43.9248 24.5945 39.036 29.2611 34.4434 29.5574L34.7397 29.9278C39.8508 29.113 43.9248 25.113 43.9248 25.113C48.1638 23.8993 52.3205 22.4148 56.3693 20.6685L56.8137 20.5204Z" fill="#E49D00"/>
<path d="M51.776 27.1127C48.4427 27.3349 44.4427 27.409 41.776 27.3349H41.6279L41.1094 27.6312C44.6652 27.7619 48.2253 27.7125 51.776 27.4831C52.6016 27.3717 53.3909 27.0737 54.084 26.6116C54.7771 26.1496 55.3558 25.5356 55.776 24.8164C54.7965 26.078 53.3594 26.903 51.776 27.1127Z" fill="#E49D00"/>
<path d="M46.4438 30.6684C43.9532 30.2858 41.4998 29.6911 39.1105 28.8906L38.666 29.1128C41.097 30.0748 43.6331 30.7461 46.2216 31.1128C47.0146 31.262 47.8337 31.1808 48.582 30.8789C49.3303 30.5769 49.9764 30.0669 50.4438 29.4091C49.9215 29.9166 49.2878 30.2947 48.5932 30.5134C47.8986 30.732 47.1625 30.7851 46.4438 30.6684Z" fill="#E49D00"/>
<path d="M43.479 32.9624C40.8864 32.7402 38.2198 30.6661 37.1087 29.7031L36.7383 29.8513C38.7383 31.6291 41.1827 33.2587 43.3309 33.3328C43.827 33.3624 44.3228 33.2699 44.7749 33.0632C45.2269 32.8566 45.6213 32.5422 45.9235 32.1476C45.6069 32.4633 45.2213 32.7012 44.7971 32.8426C44.3729 32.984 43.9217 33.025 43.479 32.9624Z" fill="#E49D00"/>
<path d="M39.7018 34.0745C37.9981 33.4819 36.4426 31.7782 35.4055 30.2227H35.0352L35.6278 31.1115C35.7018 31.1856 35.7018 31.2597 35.7759 31.2597C36.6842 32.5573 37.9078 33.6025 39.3315 34.2967C39.7512 34.481 40.2123 34.5506 40.6677 34.4985C41.1232 34.4465 41.5567 34.2746 41.924 34.0004H41.9981C41.2719 34.3249 40.4474 34.3515 39.7018 34.0745Z" fill="#E49D00"/>
<path d="M42.74 24.0003C43.3374 23.3471 44.0381 22.7965 44.8141 22.3707C51.2585 18.0744 55.1845 16.0003 60.1474 12.667C60.1594 12.4908 60.1341 12.3142 60.0734 12.1484H60.1474L51.7771 17.4818L44.6659 22.0003C43.8742 22.4358 43.1505 22.9848 42.5178 23.6299C40.74 25.4818 37.9993 27.9262 33.6289 28.3707L33.8511 28.667C35.3326 28.5929 38.8882 27.9262 42.74 24.0003Z" fill="#FFF4CD"/>
<path d="M44.1474 25.4797L43.6289 25.9242C48.1048 24.8056 52.4881 23.3445 56.74 21.5538C56.7808 21.4088 56.8056 21.2598 56.8141 21.1094C52.6772 22.8025 48.4483 24.2616 44.1474 25.4797Z" fill="#FFF4CD"/>
<path d="M51.2579 28.074C46.6653 28.2221 43.1838 28.2221 40.5912 28.074L40.2949 28.2221C43.8948 28.4725 47.5068 28.4973 51.1097 28.2962V28.074H51.2579Z" fill="#FFF4CD"/>
<path d="M38.2201 29.332H37.9238C40.5392 30.5208 43.306 31.3434 46.146 31.7765V31.5543C43.435 31.0865 40.7792 30.3419 38.2201 29.332Z" fill="#FFF4CD"/>
<path d="M42.4425 33.6296C39.924 33.037 37.7018 31.1852 36.2203 30H35.998C38.5166 32.3704 40.6647 33.4074 42.2203 33.7037L42.4425 33.6296Z" fill="#FFF4CD"/>
<path d="M23.7758 35.5573C23.298 35.6907 22.7962 35.7134 22.3084 35.6235C21.8206 35.5337 21.3597 35.3337 20.9609 35.0388L21.3313 34.8906C21.6937 35.1124 22.0995 35.2536 22.5213 35.3047C22.9431 35.3558 23.3709 35.3157 23.7758 35.1869V35.5573Z" fill="#E49D00"/>
<path d="M3.99826 20.5204C3.30487 20.1491 2.69232 19.6435 2.19633 19.0331C1.70035 18.4226 1.33085 17.7196 1.10938 16.9648C1.68302 18.0717 2.55556 18.9956 3.62789 19.6315C3.62789 19.6315 6.44271 21.4834 16.8872 24.5945C16.8872 24.5945 21.776 29.2611 26.3686 29.5574L26.0723 29.9278C20.9612 29.113 16.8872 25.113 16.8872 25.113C12.6243 23.8985 8.44301 22.414 4.36863 20.6685L3.99826 20.5204Z" fill="#E49D00"/>
<path d="M8.96108 27.1127C12.2944 27.3349 16.3685 27.409 19.0352 27.3349H19.1833L19.6277 27.6312C16.072 27.7615 12.5119 27.7121 8.96108 27.4831C8.1487 27.3612 7.3741 27.0582 6.69455 26.5967C6.01501 26.1351 5.4479 25.5267 5.03516 24.8164C5.99703 26.0614 7.40444 26.8846 8.96108 27.1127Z" fill="#E49D00"/>
<path d="M14.3691 30.6684C16.8581 30.2773 19.3107 29.6827 21.7025 28.8906L22.1469 29.1128C19.6934 30.0838 17.1317 30.7554 14.5173 31.1128C13.7353 31.2562 12.9286 31.1719 12.1932 30.8698C11.4577 30.5678 10.8246 30.0608 10.3691 29.4091C10.8845 29.9267 11.5176 30.3116 12.2142 30.5309C12.9109 30.7502 13.6503 30.7974 14.3691 30.6684Z" fill="#E49D00"/>
<path d="M17.331 32.9624C19.9236 32.7402 22.5903 30.6661 23.7014 29.7031L24.0718 29.8513C22.0718 31.6291 19.6273 33.2587 17.4792 33.3328C16.983 33.3624 16.4872 33.2699 16.0352 33.0632C15.5832 32.8566 15.1887 32.5422 14.8866 32.1476H14.8125C15.1466 32.4602 15.5455 32.6953 15.9808 32.8362C16.4161 32.977 16.8771 33.0201 17.331 32.9624Z" fill="#E49D00"/>
<path d="M21.1088 34.0745C22.7384 33.4819 24.3681 31.7782 25.4051 30.2227H25.7755L25.1829 31.1115C25.1088 31.1856 25.1088 31.2597 25.0347 31.2597C24.1104 32.5427 22.8909 33.5844 21.4792 34.2967C21.0594 34.481 20.5983 34.5506 20.1429 34.4985C19.6874 34.4465 19.2539 34.2746 18.8866 34.0004H18.8125C19.5387 34.3249 20.3632 34.3515 21.1088 34.0745Z" fill="#E49D00"/>
<path d="M18.0734 24.0003C17.4595 23.3652 16.7617 22.8169 15.9994 22.3707C9.55491 18.0744 5.62898 16.0003 0.666016 12.667V12.1484L9.03639 17.4818L16.1475 22.0003C16.9235 22.4261 17.6242 22.9767 18.2216 23.6299C20.0734 25.4818 22.8142 27.9262 27.1845 28.3707L26.9623 28.667C25.4808 28.5929 21.9253 27.9262 18.0734 24.0003Z" fill="#FFF4CD"/>
<path d="M16.6647 25.4797L17.1832 25.9242C12.686 24.7959 8.27883 23.3351 3.99805 21.5538V21.1094C8.13497 22.8025 12.3639 24.2616 16.6647 25.4797Z" fill="#FFF4CD"/>
<path d="M9.55469 28.0742C14.1473 28.2224 17.6288 28.2224 20.2214 28.0742L20.5176 28.2224C16.9178 28.4728 13.3058 28.4975 9.70283 28.2964L9.55469 28.0742Z" fill="#FFF4CD"/>
<path d="M22.59 29.332H22.8863C20.2674 30.5113 17.5019 31.3335 14.6641 31.7765V31.5543C17.3751 31.0865 20.031 30.3419 22.59 29.332Z" fill="#FFF4CD"/>
<path d="M18.3691 33.6296C20.8877 33.037 23.1099 31.1852 24.5173 30H24.8136C22.2951 32.3704 20.1469 33.4074 18.5173 33.7037L18.3691 33.6296Z" fill="#FFF4CD"/>
<path d="M38.3683 41.7031L38.5165 41.3328C37.2687 41.2018 36.1107 40.6228 35.2572 39.7031C35.1978 39.8347 35.0925 39.94 34.9609 39.9994C35.8439 40.9732 37.0595 41.581 38.3683 41.7031Z" fill="#FFF4CD"/>
<path d="M35.3315 44.8873C34.4151 43.8048 33.734 42.5435 33.3315 41.1836L33.0352 41.3317C33.1833 41.9984 33.924 44.4429 35.1092 45.4058C35.1295 45.4364 35.157 45.4614 35.1893 45.4788C35.2216 45.4961 35.2577 45.5052 35.2944 45.5052C35.3311 45.5052 35.3672 45.4961 35.3995 45.4788C35.4318 45.4614 35.4593 45.4364 35.4796 45.4058L35.7759 45.1095L35.3315 44.8873Z" fill="#E49D00"/>
<path d="M36.8867 36.2957C37.972 36.6077 39.1347 36.502 40.146 35.9994H40.2201V35.7031C39.6541 36.024 39.0185 36.202 38.3682 36.2216H36.9608C36.9391 36.2492 36.9142 36.274 36.8867 36.2957Z" fill="#FFF4CD"/>
<path d="M38.6658 40.4427C37.5796 40.3385 36.561 39.8683 35.7769 39.1094L35.5547 39.4057C36.357 40.2058 37.3962 40.7254 38.5177 40.8871L38.888 40.6649C38.9621 40.5909 38.9621 40.4427 39.0362 40.3686L38.6658 40.4427Z" fill="#E49D00"/>
<path d="M34.8872 45.999C34.3687 45.5545 33.4057 44.5175 32.5169 41.4805L32.1465 41.6286C33.2576 45.8508 34.8872 45.999 34.8872 45.999Z" fill="#FFF4CD"/>
<path d="M31.6276 47.2588C31.4795 46.0736 31.3313 43.1107 31.3313 41.7773H30.9609C30.9609 42.2218 31.035 46.8144 31.1832 48.0736H31.2572C32.4867 47.4875 33.6326 46.7402 34.6646 45.8514C33.8911 46.5823 32.9863 47.1603 31.998 47.5551C31.9239 47.5551 31.6276 47.6292 31.6276 47.2588Z" fill="#E49D00"/>
<path d="M22.4431 41.7031C22.3524 41.6005 22.3 41.4696 22.2949 41.3328C23.5337 41.1714 24.6819 40.5973 25.5542 39.7031L25.7764 39.9994C24.9303 40.9807 23.734 41.5921 22.4431 41.7031Z" fill="#FFF4CD"/>
<path d="M25.4795 44.8873C26.3767 43.8032 27.0332 42.5407 27.4054 41.1836L27.7758 41.3317C27.5535 41.9984 26.8869 44.4429 25.7017 45.4058C25.6814 45.4364 25.6539 45.4614 25.6216 45.4788C25.5893 45.4961 25.5532 45.5052 25.5165 45.5052C25.4798 45.5052 25.4437 45.4961 25.4114 45.4788C25.3791 45.4614 25.3516 45.4364 25.3313 45.4058L24.9609 45.1095L25.4795 44.8873Z" fill="#E49D00"/>
<path d="M23.8511 36.2957C22.7645 36.5936 21.6068 36.4884 20.5918 35.9994V35.7031C21.1346 36.0153 21.7441 36.193 22.3696 36.2216H23.8511V36.2957Z" fill="#FFF4CD"/>
<path d="M22.1458 40.4427C23.232 40.3385 24.2506 39.8683 25.0346 39.1094L25.2569 39.4057C24.4546 40.2058 23.4154 40.7254 22.2939 40.8871C22.2167 40.8935 22.1394 40.8755 22.073 40.8356C22.0065 40.7958 21.9543 40.7361 21.9235 40.6649C21.8495 40.5909 21.8495 40.4427 21.7754 40.3686L22.1458 40.4427Z" fill="#E49D00"/>
<path d="M25.9238 45.999C26.4423 45.5545 27.4053 44.5175 28.2942 41.4805L28.5905 41.6286C27.5535 45.8508 25.9238 45.999 25.9238 45.999Z" fill="#FFF4CD"/>
<path d="M29.1835 47.2588C29.3317 46.0736 29.4057 43.1107 29.4798 41.7773H29.7761C29.7761 42.2218 29.7761 46.8144 29.628 48.0736C29.6083 48.0736 29.5895 48.0814 29.5756 48.0953C29.5617 48.1092 29.5539 48.1281 29.5539 48.1477C28.3133 47.5816 27.1647 46.8325 26.1465 45.9255C26.9437 46.5508 27.847 47.0275 28.8132 47.3329C28.8872 47.5551 29.1835 47.6292 29.1835 47.2588Z" fill="#E49D00"/>
<path d="M28.2947 27.482C28.7341 26.6396 28.9145 25.686 28.8132 24.7412C28.7391 24.7412 27.2576 24.0746 27.3317 24.8153C27.4058 25.5561 26.8132 23.8524 27.4798 23.5561C27.8001 23.4725 28.1391 23.4986 28.4428 23.6301L29.1835 23.7783C29.5201 23.5057 29.936 23.3498 30.3687 23.3338C29.7742 23.1168 29.1268 23.0909 28.5169 23.2598C28.8132 22.3709 29.628 22.3709 30.3687 22.519C30.8009 22.683 31.2472 22.807 31.7021 22.8894C32.0545 22.9614 32.4209 22.909 32.7391 22.7412C32.8053 22.8557 32.8396 22.9858 32.8386 23.118C32.8375 23.2503 32.8011 23.3798 32.733 23.4932C32.665 23.6065 32.5679 23.6996 32.4517 23.7628C32.3355 23.826 32.2046 23.8569 32.0724 23.8524C32.0724 23.8524 31.9243 26.519 32.665 27.8524C33.0537 28.5312 33.4998 29.1755 33.9984 29.7783C32.9398 29.0553 31.6877 28.6686 30.4058 28.6686C29.1239 28.6686 27.8718 29.0553 26.8132 29.7783C27.1835 29.1857 28.0724 27.9264 28.2947 27.482ZM60.7391 11.7042C60.7391 10.8894 60.2206 11.2598 60.2206 11.2598C54.4428 15.1857 46.4428 20.2227 44.0724 21.7042C43.1427 22.3648 42.2749 23.1086 41.4798 23.9264C37.4058 28.0005 33.4058 27.8524 33.3317 27.8524C33.2576 27.8524 32.5909 24.1487 32.5909 24.1487C33.8502 23.7042 33.0354 21.9264 33.0354 21.9264C32.8272 22.1368 32.5632 22.2834 32.2745 22.349C31.9859 22.4146 31.6845 22.3965 31.4058 22.2968C31.0831 22.1303 30.7306 22.0296 30.3687 22.0005C28.2206 21.7042 27.9984 23.1116 27.9984 23.1116C27.733 23.0377 27.4497 23.065 27.2033 23.1882C26.9569 23.3114 26.7651 23.5217 26.665 23.7783C26.3687 24.8153 27.4798 25.3338 27.4798 25.3338L28.3687 25.1116C28.364 26.0953 28.0533 27.0531 27.4798 27.8524C27.2576 27.8524 23.3317 27.9264 19.2576 23.9264C18.4802 23.0901 17.6104 22.3446 16.665 21.7042C14.3687 20.2227 6.36873 15.1857 0.516875 11.2598C0.516875 11.2598 0.0724305 10.8894 0.0724305 11.7042C-0.223866 15.2598 0.294653 18.9635 3.40576 20.8894C3.40576 20.8894 3.03539 26.8894 8.96132 28.0746C8.96132 28.0746 10.2206 31.7783 14.0724 31.6301C14.289 32.1431 14.6231 32.598 15.0476 32.9583C15.4722 33.3186 15.9755 33.574 16.5169 33.7042C16.9822 33.789 17.459 33.789 17.9243 33.7042C18.1146 34.0799 18.3987 34.4001 18.7491 34.6337C19.0995 34.8673 19.5043 35.0064 19.9243 35.0375C20.1401 38.1902 21.2322 41.2199 23.0776 43.7851C24.923 46.3504 27.4483 48.3491 30.3687 49.5561C40.8132 44.9635 40.8872 35.0375 40.8872 35.0375C41.2984 35.0086 41.6941 34.8695 42.033 34.6349C42.3719 34.4003 42.6414 34.0788 42.8132 33.7042C43.3033 33.79 43.8046 33.79 44.2947 33.7042C44.8361 33.574 45.3393 33.3186 45.7639 32.9583C46.1885 32.598 46.5225 32.1431 46.7391 31.6301C50.591 31.7783 51.8502 28.0746 51.8502 28.0746C57.7761 26.8894 57.4058 20.8894 57.4058 20.8894C60.5169 18.9635 61.0354 15.2598 60.7391 11.7042ZM0.665023 12.1487L16.1465 22.0005C16.9225 22.4264 17.6232 22.9769 18.2206 23.6301C20.0724 25.482 22.8132 27.9264 27.1835 28.3709L26.0724 29.9264C20.9613 29.1116 16.8872 25.1116 16.8872 25.1116C12.6244 23.8971 8.4431 22.4126 4.36873 20.6672L3.99836 20.519C-0.149792 18.519 0.665023 12.1487 0.665023 12.1487ZM3.99836 21.1116C8.13528 22.8048 12.3642 24.2639 16.665 25.482C16.665 25.482 17.628 26.2968 19.1835 27.4079L19.628 27.7042C16.0722 27.8345 12.5121 27.7851 8.96132 27.5561C3.99836 26.6672 3.99836 21.1116 3.99836 21.1116ZM9.55391 28.0746C14.1465 28.2227 17.628 28.2227 20.2206 28.0746C20.8224 28.4902 21.4683 28.8379 22.1465 29.1116C19.693 30.0826 17.1312 30.7541 14.5169 31.1116C13.468 31.2423 12.4057 31.013 11.5041 30.4613C10.6025 29.9095 9.91493 29.068 9.55391 28.0746ZM17.4798 33.3338C16.8793 33.3973 16.2742 33.266 15.754 32.9592C15.2337 32.6524 14.826 32.1865 14.5909 31.6301C17.3298 31.1434 20.0109 30.3739 22.5909 29.3338L24.0724 29.8524C22.0724 31.6301 19.628 33.2598 17.4798 33.3338ZM18.3687 33.6301C20.8872 33.0375 23.1095 31.1857 24.5169 30.0005H24.7391L25.7761 30.2227C25.6285 30.4864 25.4548 30.7345 25.2576 30.9635L24.8872 31.482C23.9703 32.6575 22.8073 33.6182 21.4798 34.2968C20.9585 34.5347 20.3743 34.5984 19.814 34.4783C19.2536 34.3582 18.7468 34.0608 18.3687 33.6301ZM23.7761 35.5561C23.2984 35.6895 22.7966 35.7122 22.3088 35.6223C21.821 35.5325 21.3601 35.3325 20.9613 35.0375C22.149 34.6317 23.2354 33.9748 24.1465 33.1116C23.9098 33.8035 23.7848 34.5286 23.7761 35.2598V35.5561ZM21.9243 40.6672C21.2285 39.1686 20.7783 37.5679 20.5909 35.9264V35.6301C21.5644 36.1573 22.6955 36.3152 23.7761 36.0746C23.9247 37.3312 24.44 38.5163 25.2576 39.482C24.4436 40.2656 23.41 40.7824 22.2947 40.9635C22.208 40.9652 22.1235 40.9365 22.0558 40.8824C21.9881 40.8282 21.9416 40.7521 21.9243 40.6672ZM25.7021 45.4079C25.6743 45.4394 25.6401 45.4647 25.6017 45.482C25.5634 45.4993 25.5219 45.5082 25.4798 45.5082C25.4378 45.5082 25.3962 45.4993 25.3579 45.482C25.3196 45.4647 25.2854 45.4394 25.2576 45.4079C24.0446 44.229 23.0425 42.8511 22.2947 41.3338C23.5334 41.1725 24.6816 40.5984 25.5539 39.7042C26.1415 40.4302 26.9071 40.9917 27.7761 41.3338C27.5539 42.0005 26.8872 44.4449 25.7021 45.4079ZM29.7761 42.3709C29.7761 43.7783 29.7761 47.7042 29.5539 48.3709C28.2447 47.7444 27.0243 46.9473 25.9243 46.0005C26.4428 45.6301 27.4058 44.519 28.2947 41.5561L29.7761 41.8524V42.3709ZM30.3687 41.4079C29.1527 41.4079 27.9641 41.0473 26.953 40.3718C25.9419 39.6962 25.1539 38.736 24.6886 37.6126C24.2232 36.4891 24.1015 35.2529 24.3387 34.0603C24.5759 32.8677 25.1615 31.7722 26.0213 30.9124C26.8812 30.0525 27.9767 29.467 29.1693 29.2297C30.3619 28.9925 31.5981 29.1143 32.7215 29.5796C33.8449 30.045 34.8052 30.833 35.4807 31.844C36.1563 32.8551 36.5169 34.0438 36.5169 35.2598C36.5169 36.8904 35.8691 38.4542 34.7161 39.6072C33.5631 40.7602 31.9993 41.4079 30.3687 41.4079ZM31.2576 48.3709C31.0354 47.7042 31.0354 43.7783 30.9613 42.3709V41.8524C31.4969 41.8165 32.0226 41.6913 32.5169 41.482C33.4058 44.519 34.3687 45.5561 34.8872 46.0005C33.7873 46.9473 32.5668 47.7444 31.2576 48.3709ZM35.4798 45.4079C35.4596 45.4385 35.4321 45.4635 35.3997 45.4809C35.3674 45.4982 35.3313 45.5073 35.2947 45.5073C35.258 45.5073 35.2219 45.4982 35.1896 45.4809C35.1573 45.4635 35.1297 45.4385 35.1095 45.4079C33.9243 44.4449 33.1835 42.0005 33.0354 41.3338C33.8886 40.9635 34.648 40.4067 35.2576 39.7042C36.1111 40.6238 37.2691 41.2028 38.5169 41.3338C37.7689 42.8702 36.7386 44.2523 35.4798 45.4079ZM40.2206 35.8524C39.9982 37.4868 39.5495 39.0824 38.8872 40.5931L38.5169 40.8153C37.3954 40.6536 36.3562 40.1339 35.5539 39.3338C36.3207 38.3451 36.8068 37.1681 36.9613 35.9264C38.0665 36.1592 39.2181 36.0022 40.2206 35.482V35.8524ZM36.665 33.1116C37.5534 34.0043 38.647 34.6656 39.8502 35.0375C39.4514 35.3325 38.9906 35.5325 38.5028 35.6223C38.015 35.7122 37.5131 35.6895 37.0354 35.5561V35.2598C37.0267 34.5286 36.9017 33.8035 36.665 33.1116ZM39.3317 34.3709C37.908 33.6766 36.6844 32.6315 35.7761 31.3338C35.7021 31.3338 35.7021 31.2598 35.628 31.1857L35.0354 30.2968L36.0724 30.0746H36.2206C37.7021 31.2598 39.9243 33.1116 42.4428 33.7042C42.0647 34.1349 41.5579 34.4323 40.9976 34.5524C40.4372 34.6724 39.8531 34.6088 39.3317 34.3709ZM43.3317 33.3338C41.1835 33.2598 38.7391 31.6301 36.7391 29.8524L38.2206 29.3338C40.8007 30.3739 43.4817 31.1434 46.2206 31.6301C45.9855 32.1865 45.5778 32.6524 45.0576 32.9592C44.5374 33.266 43.9323 33.3973 43.3317 33.3338ZM51.1835 28.0746C50.8342 29.076 50.149 29.9257 49.2444 30.4793C48.3397 31.0329 47.2713 31.2563 46.2206 31.1116C43.6321 30.7449 41.096 30.0736 38.665 29.1116C39.3432 28.8379 39.9891 28.4902 40.5909 28.0746C43.1835 28.2227 46.665 28.2227 51.2576 28.0746H51.1835ZM51.7761 27.5561C48.2254 27.7854 44.6652 27.8349 41.1095 27.7042L41.628 27.4079C43.1835 26.2968 44.1465 25.482 44.1465 25.482C48.4473 24.2639 52.6762 22.8048 56.8132 21.1116C56.8132 21.1116 56.8132 26.6672 51.7761 27.5561ZM56.8132 20.519L56.3687 20.6672C52.32 22.4134 48.1633 23.8979 43.9243 25.1116C43.9243 25.1116 39.8502 29.1116 34.7391 29.9264C34.3426 29.4271 33.9718 28.9079 33.628 28.3709C37.9984 27.9264 40.7391 25.482 42.5169 23.6301C43.1496 22.985 43.8733 22.436 44.665 22.0005L60.1465 12.1487H60.0724C60.0724 12.1487 60.9613 18.519 56.8132 20.519Z" fill="#001A60"/>
<path d="M30.3681 28.5927C31.6594 28.6077 32.9192 28.9934 33.9977 29.7038C33.4991 29.1011 33.053 28.4567 32.6644 27.7779C31.9236 26.4445 32.0718 23.7779 32.0718 23.7779C32.2039 23.7824 32.3349 23.7515 32.451 23.6883C32.5672 23.6252 32.6643 23.5321 32.7324 23.4187C32.8004 23.3053 32.8368 23.1758 32.8379 23.0435C32.839 22.9113 32.8046 22.7812 32.7384 22.6668C32.4203 22.8346 32.0538 22.8869 31.7014 22.8149C31.2465 22.7325 30.8002 22.6085 30.3681 22.4445C29.6273 22.2964 28.8125 22.2964 28.5162 23.1853C29.1261 23.0164 29.7736 23.0423 30.3681 23.2594C29.9353 23.2753 29.5194 23.4312 29.1829 23.7038L28.4421 23.5557C28.1384 23.4241 27.7994 23.398 27.4792 23.4816C26.8125 23.7779 27.1088 24.5186 27.331 24.7408C27.5532 24.9631 28.7384 24.6668 28.8125 24.6668C28.9139 25.6115 28.7335 26.5651 28.294 27.4075C28.0718 27.8519 27.1829 29.1112 26.8125 29.6297C27.8776 28.9588 29.1093 28.5996 30.3681 28.5927Z" fill="url(#paint21_linear_2816_96156)"/>
<path d="M30.3694 22.9631L31.7028 23.3334C32.0744 23.383 32.4521 23.3578 32.8139 23.2594C32.8319 23.0588 32.8066 22.8567 32.7398 22.6668C32.4216 22.8346 32.0552 22.8869 31.7028 22.8149C31.2479 22.7325 30.8016 22.6085 30.3694 22.4445C29.6287 22.2964 28.8139 22.2964 28.5176 23.1853H28.962C29.1619 23.0388 29.394 22.9422 29.6388 22.9036C29.8836 22.8649 30.1341 22.8853 30.3694 22.9631Z" fill="#FFF4CD"/>
<path d="M27.4808 24.0728C27.8261 23.9936 28.1873 24.0194 28.5178 24.1469L29.2586 24.3691C29.5325 23.9327 29.9154 23.5752 30.3697 23.3321C30.0594 23.3305 29.7538 23.4069 29.4808 23.5543L29.1845 23.7765L28.666 23.6284C28.2943 23.4555 27.8711 23.429 27.4808 23.5543C27.3994 23.5784 27.3242 23.6197 27.2602 23.6754C27.1962 23.7311 27.1449 23.8 27.1098 23.8772C27.0746 23.9545 27.0565 24.0384 27.0566 24.1232C27.0568 24.2081 27.0751 24.2919 27.1104 24.3691C27.2018 24.2358 27.3307 24.1326 27.4808 24.0728Z" fill="#FFF4CD"/>
<defs>
<radialGradient id="paint0_radial_2816_96156" cx="0" cy="0" r="1" gradientUnits="userSpaceOnUse" gradientTransform="translate(21.1414 11.352) scale(31.6681 31.6682)">
<stop stop-color="#FEE7A9"/>
<stop offset="0.46" stop-color="#FFD900"/>
<stop offset="1" stop-color="#E49D00"/>
</radialGradient>
<linearGradient id="paint1_linear_2816_96156" x1="22.3315" y1="14.3493" x2="32.45" y2="27.0382" gradientUnits="userSpaceOnUse">
<stop stop-color="#002F82"/>
<stop offset="1" stop-color="#001A60"/>
</linearGradient>
<linearGradient id="paint2_linear_2816_96156" x1="21.0864" y1="35.3909" x2="18.2123" y2="17.4057" gradientUnits="userSpaceOnUse">
<stop stop-color="#CA8200"/>
<stop offset="0.3" stop-color="#E1A504"/>
<stop offset="1" stop-color="#CA8200"/>
</linearGradient>
<linearGradient id="paint3_linear_2816_96156" x1="25.3458" y1="51.3419" x2="-2.32084" y2="-13.584" gradientUnits="userSpaceOnUse">
<stop stop-color="#FEDA5D"/>
<stop offset="1" stop-color="#996100"/>
</linearGradient>
<linearGradient id="paint4_linear_2816_96156" x1="20.9387" y1="34.376" x2="24.1313" y2="34.376" gradientUnits="userSpaceOnUse">
<stop stop-color="#FEE7A9"/>
<stop offset="0.46" stop-color="#FFD900"/>
<stop offset="1" stop-color="#E49D00"/>
</linearGradient>
<linearGradient id="paint5_linear_2816_96156" x1="18.384" y1="32.2816" x2="25.7617" y2="32.2816" gradientUnits="userSpaceOnUse">
<stop stop-color="#FEE7A9"/>
<stop offset="0.46" stop-color="#FFD900"/>
<stop offset="1" stop-color="#E49D00"/>
</linearGradient>
<linearGradient id="paint6_linear_2816_96156" x1="4.01286" y1="24.4575" x2="19.6573" y2="24.4575" gradientUnits="userSpaceOnUse">
<stop stop-color="#FEE7A9"/>
<stop offset="0.46" stop-color="#FFD900"/>
<stop offset="1" stop-color="#E49D00"/>
</linearGradient>
<linearGradient id="paint7_linear_2816_96156" x1="1.04221" y1="15.6225" x2="30.2274" y2="31.267" gradientUnits="userSpaceOnUse">
<stop stop-color="#FEE7A9"/>
<stop offset="0.46" stop-color="#FFD900"/>
<stop offset="1" stop-color="#E49D00"/>
</linearGradient>
<linearGradient id="paint8_linear_2816_96156" x1="9.57691" y1="29.6224" x2="22.1621" y2="29.6224" gradientUnits="userSpaceOnUse">
<stop stop-color="#FEE7A9"/>
<stop offset="0.46" stop-color="#FFD900"/>
<stop offset="1" stop-color="#E49D00"/>
</linearGradient>
<linearGradient id="paint9_linear_2816_96156" x1="14.5622" y1="31.332" x2="24.0955" y2="31.332" gradientUnits="userSpaceOnUse">
<stop stop-color="#FEE7A9"/>
<stop offset="0.46" stop-color="#FFD900"/>
<stop offset="1" stop-color="#E49D00"/>
</linearGradient>
<linearGradient id="paint10_linear_2816_96156" x1="39.8586" y1="34.376" x2="36.666" y2="34.376" gradientUnits="userSpaceOnUse">
<stop stop-color="#FEE7A9"/>
<stop offset="0.46" stop-color="#FFD900"/>
<stop offset="1" stop-color="#E49D00"/>
</linearGradient>
<linearGradient id="paint11_linear_2816_96156" x1="42.4129" y1="32.2816" x2="35.0352" y2="32.2816" gradientUnits="userSpaceOnUse">
<stop stop-color="#FEE7A9"/>
<stop offset="0.46" stop-color="#FFD900"/>
<stop offset="1" stop-color="#E49D00"/>
</linearGradient>
<linearGradient id="paint12_linear_2816_96156" x1="56.7834" y1="24.4575" x2="41.139" y2="24.4575" gradientUnits="userSpaceOnUse">
<stop stop-color="#FEE7A9"/>
<stop offset="0.46" stop-color="#FFD900"/>
<stop offset="1" stop-color="#E49D00"/>
</linearGradient>
<linearGradient id="paint13_linear_2816_96156" x1="59.7474" y1="15.6225" x2="30.5696" y2="31.267" gradientUnits="userSpaceOnUse">
<stop stop-color="#FEE7A9"/>
<stop offset="0.46" stop-color="#FFD900"/>
<stop offset="1" stop-color="#E49D00"/>
</linearGradient>
<linearGradient id="paint14_linear_2816_96156" x1="51.2216" y1="29.6224" x2="38.6364" y2="29.6224" gradientUnits="userSpaceOnUse">
<stop stop-color="#FEE7A9"/>
<stop offset="0.46" stop-color="#FFD900"/>
<stop offset="1" stop-color="#E49D00"/>
</linearGradient>
<linearGradient id="paint15_linear_2816_96156" x1="46.2346" y1="31.332" x2="36.7012" y2="31.332" gradientUnits="userSpaceOnUse">
<stop stop-color="#FEE7A9"/>
<stop offset="0.46" stop-color="#FFD900"/>
<stop offset="1" stop-color="#E49D00"/>
</linearGradient>
<linearGradient id="paint16_linear_2816_96156" x1="30.3837" y1="28.8427" x2="30.3837" y2="41.3909" gradientUnits="userSpaceOnUse">
<stop stop-color="#FEE7A9"/>
<stop offset="0.46" stop-color="#FFD900"/>
<stop offset="1" stop-color="#E49D00"/>
</linearGradient>
<radialGradient id="paint17_radial_2816_96156" cx="0" cy="0" r="1" gradientUnits="userSpaceOnUse" gradientTransform="translate(30.3697 35.2221) scale(4.07704)">
<stop stop-color="#036EB8"/>
<stop offset="0.57" stop-color="#003894"/>
</radialGradient>
<linearGradient id="paint18_linear_2816_96156" x1="29.6874" y1="35.6128" x2="33.7318" y2="36.7091" gradientUnits="userSpaceOnUse">
<stop stop-color="#FEE7A9"/>
<stop offset="0.46" stop-color="#FFD900"/>
<stop offset="1" stop-color="#E49D00"/>
</linearGradient>
<radialGradient id="paint19_radial_2816_96156" cx="0" cy="0" r="1" gradientUnits="userSpaceOnUse" gradientTransform="translate(30.9189 35.816) scale(5.62963 5.62963)">
<stop stop-color="#036EB8"/>
<stop offset="0.57" stop-color="#003894"/>
</radialGradient>
<radialGradient id="paint20_radial_2816_96156" cx="0" cy="0" r="1" gradientUnits="userSpaceOnUse" gradientTransform="translate(30.3033 35.4018) scale(3.57926)">
<stop stop-color="#E6002D"/>
<stop offset="0.22" stop-color="#DB032B"/>
<stop offset="0.6" stop-color="#BE0C24"/>
<stop offset="1" stop-color="#99161C"/>
</radialGradient>
<linearGradient id="paint21_linear_2816_96156" x1="30.4051" y1="22.8075" x2="30.4051" y2="29.8075" gradientUnits="userSpaceOnUse">
<stop stop-color="#FEE7A9"/>
<stop offset="0.46" stop-color="#FFD900"/>
<stop offset="1" stop-color="#E49D00"/>
</linearGradient>
</defs>
</svg>
