<svg width="200" height="58" viewBox="0 0 200 58" fill="none" xmlns="http://www.w3.org/2000/svg">
<g id="logo">
<g id="emblem">
<path id="Vector" d="M12.7383 12.7409V32.8746C12.7383 34.0543 13.5248 36.7283 14.7831 39.3237C15.9796 42.2058 17.6548 44.8649 19.7379 47.1885C21.9251 49.4567 24.4124 51.4148 27.1308 53.0084C29.0601 54.1607 30.7871 55.622 32.2428 57.334C33.7349 55.6281 35.4866 54.1683 37.4336 53.0084C40.1377 51.3941 42.6224 49.438 44.8264 47.1885C47.1859 44.7504 48.9161 41.2113 49.7812 39.3237C50.6463 37.4362 51.8261 34.0543 51.8261 32.8746V12.7409L32.2428 0L12.7383 12.7409Z" fill="#001A60"/>
<path id="Vector_2" d="M50.8038 13.3701H50.961L32.243 1.02246L13.6035 13.2128V32.8747C13.6035 34.8409 16.5135 42.627 20.3672 46.638C22.527 48.8049 24.9592 50.6819 27.6028 52.2219C29.3225 53.2826 30.8845 54.5799 32.243 56.0757C33.6508 54.6012 35.2358 53.3068 36.9618 52.2219C39.6054 50.6819 42.0376 48.8049 44.1974 46.638C48.0511 42.627 50.961 34.8409 50.961 32.8747V13.2915H50.8038V13.3701Z" fill="url(#paint0_radial_959_34780)"/>
<path id="Vector_3" d="M14.9414 14.0777V33.0317C15.2482 34.9763 15.8586 36.8606 16.7503 38.6157C17.8857 41.2499 19.4246 43.691 21.3118 45.8512C23.4119 47.9424 25.763 49.7652 28.3115 51.2779C29.7298 52.124 31.0488 53.1265 32.2438 54.2665C33.4836 53.1461 34.8266 52.1454 36.2549 51.2779C38.8033 49.7652 41.1545 47.9424 43.2545 45.8512C45.1417 43.691 46.6807 41.2499 47.816 38.6157C48.6681 36.8445 49.2766 34.9661 49.6249 33.0317V14.0777L32.2438 2.75244L14.9414 14.0777Z" fill="url(#paint1_linear_959_34780)"/>
<path id="Vector_4" d="M13.6035 13.2128H13.7608L32.243 1.33705V1.02246L13.6035 13.2128Z" fill="#FEDA5D"/>
<path id="Vector_5" d="M50.8049 13.3701H50.9622L32.2441 1.02246V1.33705L50.8049 13.3701Z" fill="#DFB840"/>
<path id="Vector_6" d="M49.7039 14.0779L50.0185 13.9206L32.2441 2.28076V2.75265L49.7039 14.0779Z" fill="#D39428"/>
<path id="Vector_7" d="M14.5488 13.8419L14.8634 13.9992L32.2445 2.75265V2.28076L14.5488 13.8419Z" fill="#D39428"/>
<path id="Vector_8" d="M28.2335 51.3566C25.6778 49.8896 23.3468 48.0619 21.3125 45.9299C17.6947 42.2335 14.8634 34.8406 14.8634 33.1104V14.0777L14.5488 13.9204V33.0317C14.5488 33.8969 15.178 36.099 16.4364 38.8516C17.574 41.5026 19.1419 43.9474 21.0766 46.0872C23.1531 48.227 25.5073 50.0786 28.0762 51.5925C29.5834 52.5362 30.9814 53.644 32.2445 54.8957V54.5025C31.0377 53.2977 29.6911 52.2416 28.2335 51.3566Z" fill="#FEDA5D"/>
<path id="Vector_9" d="M28.2335 51.3566C25.6778 49.8896 23.3468 48.0619 21.3125 45.9299C17.6947 42.2335 14.8634 34.8406 14.8634 33.1104V14.0777L14.5488 13.9204V33.0317C14.5488 33.8969 15.178 36.099 16.4364 38.8516C17.574 41.5026 19.1419 43.9474 21.0766 46.0872C23.1531 48.227 25.5073 50.0786 28.0762 51.5925C29.5834 52.5362 30.9814 53.644 32.2445 54.8957V54.5025C31.0377 53.2977 29.6911 52.2416 28.2335 51.3566Z" fill="url(#paint2_linear_959_34780)"/>
<path id="Vector_10" d="M49.7039 33.1104C49.7039 34.8406 46.8726 42.2335 43.2548 45.9299C41.1874 48.0252 38.8617 49.8487 36.3338 51.3566C34.8645 52.2595 33.4938 53.3139 32.2441 54.5025V54.8957C33.5508 53.6612 34.973 52.5551 36.4911 51.5925C39.06 50.0786 41.4141 48.227 43.4907 46.0872C45.3987 43.9271 46.9636 41.4868 48.1309 38.8516C49.3893 36.099 50.0185 33.8969 50.0185 33.0317V13.9204L49.7039 14.0777V33.1104Z" fill="#FEDA5D"/>
<path id="Vector_11" d="M25.873 9.12326H26.6595C26.9311 9.10305 27.2031 9.15744 27.446 9.28056C27.597 9.34582 27.7238 9.4568 27.8085 9.59789C27.8931 9.73898 27.9314 9.90306 27.9179 10.067C27.9032 10.2451 27.8454 10.4169 27.7495 10.5676C27.6536 10.7183 27.5224 10.8434 27.3673 10.9322H26.5022V12.0332H25.873V9.12326ZM26.5022 9.59515V10.5389H26.8168C26.8901 10.5452 26.9638 10.5342 27.0321 10.5069C27.1003 10.4796 27.1613 10.4367 27.2101 10.3816V10.067C27.2101 9.75244 27.1314 9.59515 26.8168 9.59515H26.5022Z" fill="white"/>
<path id="Vector_12" d="M29.4128 9.12305C30.1993 9.12305 30.6711 9.67358 30.6711 10.6173C30.6912 10.8756 30.6437 11.1347 30.5334 11.3691C30.4231 11.6035 30.2537 11.8052 30.042 11.9544C29.8574 12.0795 29.6345 12.1352 29.4128 12.1117C29.2348 12.1347 29.0539 12.1105 28.8882 12.0415C28.7226 11.9724 28.578 11.861 28.469 11.7184C28.2477 11.3951 28.1373 11.0088 28.1544 10.6173C28.1356 10.3479 28.183 10.078 28.2927 9.83118C28.4024 9.58437 28.571 9.36823 28.7836 9.2017L29.4128 9.12305ZM29.4128 9.51628C29.313 9.52097 29.2163 9.55272 29.1332 9.60814C29.0501 9.66356 28.9836 9.74056 28.9409 9.83087C28.8276 10.0771 28.7737 10.3465 28.7836 10.6173C28.7836 11.0892 28.8623 11.4038 29.0982 11.5611H29.4128C29.806 11.5611 29.9633 11.2465 29.9633 10.5387C29.9865 10.2999 29.9597 10.0588 29.8847 9.83087C29.8507 9.73438 29.7864 9.65152 29.7013 9.59478C29.6162 9.53804 29.5149 9.51049 29.4128 9.51628Z" fill="white"/>
<path id="Vector_13" d="M31.0645 9.12305H31.6936V11.5611H32.7161V12.1117H31.1431L31.0645 9.12305Z" fill="white"/>
<path id="Vector_14" d="M33.1094 9.12305H33.7386V12.1117H33.1094V9.12305Z" fill="white"/>
<path id="Vector_15" d="M36.2548 9.28026L35.9402 9.67349L35.4683 9.5162L34.9964 9.75214C34.8596 9.99013 34.8044 10.2663 34.8391 10.5386C34.8118 10.8034 34.8386 11.071 34.9178 11.3251C34.9735 11.4216 35.0538 11.5015 35.1505 11.5568C35.2472 11.6121 35.3569 11.6407 35.4683 11.6397H35.9402C35.9402 11.6188 35.9485 11.5988 35.9632 11.5841C35.978 11.5693 35.998 11.561 36.0188 11.561L36.2548 11.9543C36.0239 12.1135 35.7487 12.196 35.4683 12.1902C35.2903 12.2133 35.1094 12.1891 34.9437 12.12C34.7781 12.051 34.6335 11.9396 34.5245 11.797C34.2688 11.5182 34.1282 11.1529 34.1313 10.7746C34.1134 10.4434 34.1956 10.1146 34.3673 9.83079C34.4469 9.66259 34.5628 9.51415 34.7067 9.39615C34.8506 9.27816 35.0189 9.19355 35.1994 9.14841C35.3799 9.10328 35.5682 9.09875 35.7507 9.13515C35.9332 9.17154 36.1054 9.24797 36.2548 9.35891V9.28026Z" fill="white"/>
<path id="Vector_16" d="M36.6484 9.12305H38.3787V9.59493H37.2776V10.3028H38.0641V10.7746H37.2776V11.5611H38.3787V12.1117H36.6484V9.12305Z" fill="white"/>
<path id="Vector_17" d="M34.5254 19.9763C34.535 20.1798 34.586 20.3792 34.6755 20.5623C34.7649 20.7453 34.8909 20.9081 35.0456 21.0407C35.2002 21.1733 35.3804 21.2729 35.575 21.3333C35.7695 21.3937 35.9744 21.4137 36.177 21.392C36.3733 21.4026 36.5697 21.3744 36.7551 21.3089C36.9405 21.2435 37.1111 21.1421 37.2572 21.0106C37.4033 20.8791 37.5221 20.72 37.6066 20.5426C37.6912 20.3651 37.7399 20.1727 37.7499 19.9763C37.7297 19.573 37.5551 19.1928 37.2623 18.9146C36.9695 18.6364 36.5809 18.4815 36.177 18.482C35.9704 18.4715 35.7637 18.5017 35.5688 18.5711C35.3739 18.6405 35.1946 18.7477 35.0412 18.8865C34.8877 19.0253 34.7632 19.193 34.6747 19.3801C34.5862 19.5671 34.5355 19.7697 34.5254 19.9763ZM35.4692 19.9763C35.432 19.8697 35.421 19.7557 35.4369 19.6439C35.4528 19.532 35.4953 19.4257 35.5607 19.3336C35.6262 19.2416 35.7127 19.1665 35.8131 19.1147C35.9134 19.0629 36.0247 19.0359 36.1377 19.0359C36.2506 19.0359 36.3619 19.0629 36.4623 19.1147C36.5626 19.1665 36.6492 19.2416 36.7146 19.3336C36.78 19.4257 36.8225 19.532 36.8384 19.6439C36.8543 19.7557 36.8433 19.8697 36.8062 19.9763C36.8433 20.083 36.8543 20.197 36.8384 20.3088C36.8225 20.4206 36.78 20.527 36.7146 20.6191C36.6492 20.7111 36.5626 20.7862 36.4623 20.838C36.3619 20.8898 36.2506 20.9168 36.1377 20.9168C36.0247 20.9168 35.9134 20.8898 35.8131 20.838C35.7127 20.7862 35.6262 20.7111 35.5607 20.6191C35.4953 20.527 35.4528 20.4206 35.4369 20.3088C35.421 20.197 35.432 20.083 35.4692 19.9763Z" fill="white"/>
<path id="Vector_18" d="M37.0403 14.9429V15.8866H35.8606V15.2575H33.1866V15.8866H34.9168V16.0439C34.92 16.2694 34.8721 16.4926 34.7768 16.6969C34.6815 16.9012 34.5411 17.0813 34.3663 17.2236C33.9995 17.5711 33.5308 17.7917 33.0293 17.8528L33.5012 18.4034C34.1336 18.3097 34.7157 18.0048 35.1528 17.5382C35.4247 17.2398 35.6381 16.893 35.782 16.5158H37.0403V16.9877H35.782V17.6169H37.0403V18.3247H37.9841V14.9429H37.0403Z" fill="white"/>
<path id="Vector_19" d="M20.6041 14.8643V15.808H19.3457V16.4372H19.8176C19.7277 16.6633 19.6746 16.9022 19.6603 17.145C19.6603 17.5205 19.8094 17.8806 20.0749 18.1461C20.3404 18.4115 20.7005 18.5607 21.0759 18.5607C21.4514 18.5607 21.8115 18.4115 22.077 18.1461C22.3424 17.8806 22.4916 17.5205 22.4916 17.145C22.4863 16.8907 22.4041 16.6439 22.2557 16.4372H22.7275V15.808H21.5478V14.8643H20.6041ZM20.6041 17.2237C20.6041 16.7518 20.84 16.4372 21.0759 16.4372C21.3119 16.4372 21.5478 16.7518 21.5478 17.2237C21.5478 17.6956 21.3119 17.9315 21.0759 17.9315C20.84 17.9315 20.6041 17.6169 20.6041 17.2237Z" fill="white"/>
<path id="Vector_20" d="M24.2999 14.9429V16.8304H23.828V14.9429H22.9629V21.2347H23.828V17.5382H24.2999V21.2347H25.0864V14.9429H24.2999Z" fill="white"/>
<path id="Vector_21" d="M30.1211 14.9429V18.3247H31.0649V17.6169H31.93V16.9091H31.0649V16.3585H31.93V15.7293H31.0649V14.9429H30.1211Z" fill="white"/>
<path id="Vector_22" d="M27.6032 19.9762C27.5715 20.3078 27.6408 20.6411 27.8019 20.9326C27.963 21.2241 28.2085 21.46 28.5061 21.6095C28.8038 21.7589 29.1396 21.8149 29.4696 21.7701C29.7997 21.7252 30.1084 21.5817 30.3554 21.3582C30.6023 21.1348 30.776 20.8419 30.8535 20.518C30.9311 20.1941 30.9089 19.8543 30.7898 19.5433C30.6708 19.2322 30.4605 18.9644 30.1866 18.775C29.9127 18.5856 29.5878 18.4835 29.2548 18.4819C29.0458 18.4598 28.8344 18.482 28.6346 18.5471C28.4347 18.6123 28.2508 18.7188 28.0949 18.8599C27.9391 19.0009 27.8147 19.1732 27.73 19.3656C27.6452 19.558 27.602 19.766 27.6032 19.9762ZM28.547 19.9762C28.547 19.8833 28.5653 19.7912 28.6009 19.7054C28.6364 19.6195 28.6886 19.5415 28.7543 19.4757C28.82 19.41 28.8981 19.3579 28.9839 19.3223C29.0698 19.2867 29.1619 19.2684 29.2548 19.2684C29.3478 19.2684 29.4398 19.2867 29.5257 19.3223C29.6116 19.3579 29.6896 19.41 29.7553 19.4757C29.821 19.5415 29.8732 19.6195 29.9088 19.7054C29.9443 19.7912 29.9626 19.8833 29.9626 19.9762C29.9626 20.0692 29.9443 20.1612 29.9088 20.2471C29.8732 20.333 29.821 20.411 29.7553 20.4767C29.6896 20.5425 29.6116 20.5946 29.5257 20.6302C29.4398 20.6658 29.3478 20.6841 29.2548 20.6841C29.1619 20.6841 29.0698 20.6658 28.9839 20.6302C28.8981 20.5946 28.82 20.5425 28.7543 20.4767C28.6886 20.411 28.6364 20.333 28.6009 20.2471C28.5653 20.1612 28.547 20.0692 28.547 19.9762Z" fill="white"/>
<path id="Vector_23" d="M26.2656 16.5944C26.2656 17.0116 26.4313 17.4117 26.7263 17.7067C27.0213 18.0017 27.4214 18.1674 27.8386 18.1674C28.2557 18.1674 28.6558 18.0017 28.9508 17.7067C29.2458 17.4117 29.4115 17.0116 29.4115 16.5944C29.4115 16.1773 29.2458 15.7772 28.9508 15.4822C28.6558 15.1872 28.2557 15.0215 27.8386 15.0215C27.4214 15.0215 27.0213 15.1872 26.7263 15.4822C26.4313 15.7772 26.2656 16.1773 26.2656 16.5944ZM27.2094 16.5944C27.2094 16.4276 27.2757 16.2675 27.3937 16.1495C27.5117 16.0315 27.6717 15.9653 27.8386 15.9653C28.0054 15.9653 28.1655 16.0315 28.2835 16.1495C28.4015 16.2675 28.4678 16.4276 28.4678 16.5944C28.4678 16.7613 28.4015 16.9213 28.2835 17.0393C28.1655 17.1573 28.0054 17.2236 27.8386 17.2236C27.6717 17.2236 27.5117 17.1573 27.3937 17.0393C27.2757 16.9213 27.2094 16.7613 27.2094 16.5944Z" fill="white"/>
<path id="Vector_24" d="M43.332 14.9429V18.3247H44.2758V16.9091H45.1409V16.2012H44.2758V14.9429H43.332Z" fill="white"/>
<path id="Vector_25" d="M40.5025 14.8643V15.5721H39.4014V16.2799H40.5025C40.492 16.461 40.4447 16.6381 40.3636 16.8004C40.2825 16.9626 40.1692 17.1066 40.0306 17.2237C39.9336 17.3398 39.8137 17.4346 39.6783 17.5023C39.543 17.5699 39.3952 17.609 39.2441 17.617L39.4801 17.9315L39.716 18.1675C40.2408 18.0256 40.6912 17.6878 40.9744 17.2237C40.9744 17.1451 40.9744 17.1451 41.053 17.1451H41.1317C41.4308 17.5943 41.875 17.9274 42.39 18.0888C42.5271 17.8889 42.6854 17.7044 42.8619 17.5383C42.5475 17.4743 42.2518 17.3398 41.9968 17.1451C41.7492 16.8844 41.5849 16.5558 41.5249 16.2013H42.626V15.4935H41.5249V14.7856L40.5025 14.8643Z" fill="white"/>
<path id="Vector_26" d="M40.2656 18.6396V19.1902H43.3329V19.6621H40.2656V20.6845C40.2656 21.0777 40.4229 21.235 40.8162 21.235H44.3553V20.6845H41.288V20.2912H44.198C44.2766 20.2912 44.2766 20.2912 44.2766 20.2126V18.7183H40.2656V18.6396Z" fill="white"/>
<path id="Vector_27" d="M32.243 55.8397L32.007 55.5251C30.6892 54.2476 29.2391 53.114 27.6814 52.1433C25.0307 50.6492 22.6184 48.7671 20.5245 46.5593C18.2437 44.2786 16.5921 40.8967 15.727 39.0878C14.8619 37.2789 13.7608 34.0544 13.7608 32.9533V13.3701H13.6035V32.8747C13.6035 34.8409 16.5135 42.627 20.3672 46.638C22.527 48.8049 24.9592 50.6819 27.6028 52.2219C29.3225 53.2826 30.8845 54.5799 32.243 56.0757V55.8397Z" fill="url(#paint3_linear_959_34780)"/>
<path id="Vector_28" d="M32.2441 55.8397L32.5587 55.5251C33.8766 54.2476 35.3266 53.114 36.8843 52.1433C39.5213 50.6288 41.9309 48.7488 44.0413 46.5593C46.0007 44.3195 47.6174 41.8016 48.8387 39.0878C49.9398 36.4925 50.8049 34.0544 50.8049 32.9533V13.3701H50.9622V32.8747C50.9622 34.8409 48.0523 42.627 44.1986 46.638C42.0388 48.8049 39.6065 50.6819 36.963 52.2219C35.237 53.3068 33.652 54.6013 32.2441 56.0757V55.8397Z" fill="#D39428"/>
<path id="Vector_29" d="M32.2444 2.75244L14.8633 14.0777V33.1103C14.8633 34.8406 17.6946 42.2335 21.3124 45.9299C23.3467 48.0618 25.6777 49.8895 28.2333 51.3566C29.691 52.2416 31.0375 53.2977 32.2444 54.5025C33.494 53.3139 34.8647 52.2595 36.334 51.3566C38.8619 49.8487 41.1876 48.0251 43.255 45.9299C46.8728 42.2335 49.7041 34.8406 49.7041 33.1103V14.0777L32.2444 2.75244ZM49.4681 33.1103C49.4681 34.8406 46.6368 42.1548 43.0977 45.7726C41.0634 47.9045 38.7324 49.7322 36.1767 51.1993C34.7606 52.0486 33.4419 53.0508 32.2444 54.1879C31.074 53.0525 29.7815 52.0502 28.3906 51.1993C25.8349 49.7322 23.504 47.9045 21.4697 45.7726C17.8519 42.1548 15.0992 34.8406 15.0992 33.1103V14.235L32.2444 2.98838L49.4681 14.235V33.1103Z" fill="#000044"/>
<path id="Vector_30" d="M32.2445 30.9082C30.9535 30.9082 29.6914 31.291 28.6179 32.0083C27.5444 32.7256 26.7078 33.7451 26.2137 34.9379C25.7196 36.1307 25.5904 37.4432 25.8422 38.7094C26.0941 39.9757 26.7158 41.1388 27.6287 42.0517C28.5417 42.9647 29.7048 43.5864 30.971 43.8382C32.2373 44.0901 33.5498 43.9609 34.7426 43.4668C35.9354 42.9727 36.9549 42.136 37.6722 41.0626C38.3894 39.9891 38.7723 38.727 38.7723 37.4359C38.7723 35.7047 38.0845 34.0443 36.8603 32.8201C35.6362 31.5959 33.9758 30.9082 32.2445 30.9082Z" fill="#FFD900"/>
<path id="Vector_31" d="M22.2559 37.2001C22.6793 37.5132 23.1686 37.7256 23.6865 37.821C24.2044 37.9164 24.7373 37.8923 25.2445 37.7506V37.436C25.2537 36.6597 25.3864 35.8898 25.6377 35.1553C24.6703 36.0718 23.5169 36.7692 22.2559 37.2001Z" fill="url(#paint4_linear_959_34780)"/>
<path id="Vector_32" d="M21.8613 38.1442C22.0603 39.8871 22.5383 41.5866 23.277 43.1776C23.3096 43.2532 23.3651 43.3166 23.4356 43.3589C23.5062 43.4012 23.5882 43.4203 23.6702 43.4136C24.8544 43.2214 25.9518 42.6727 26.8161 41.8406C25.948 40.8153 25.4009 39.5571 25.2432 38.2229C24.0959 38.4783 22.8949 38.3107 21.8613 37.751V38.0656V38.1442Z" fill="#FFD900"/>
<path id="Vector_33" d="M27.2897 48.2111C28.548 47.1887 29.2558 44.5933 29.4918 43.8855C28.5691 43.5222 27.7562 42.9261 27.1324 42.1553C26.2062 43.1047 24.9871 43.7142 23.6719 43.8855C24.4659 45.4964 25.5299 46.9594 26.8178 48.2111C26.8473 48.2446 26.8836 48.2714 26.9243 48.2898C26.965 48.3081 27.0091 48.3176 27.0537 48.3176C27.0983 48.3176 27.1425 48.3081 27.1831 48.2898C27.2238 48.2714 27.2601 48.2446 27.2897 48.2111Z" fill="#FFD900"/>
<path id="Vector_34" d="M26.8162 32.9531C27.0255 32.71 27.2099 32.4465 27.3667 32.1666L26.2656 31.9307H26.0297C24.5354 33.189 22.176 35.1552 19.502 35.7844C19.8935 36.255 20.427 36.586 21.0226 36.7277C21.6181 36.8695 22.2435 36.8145 22.8051 36.5709C24.2146 35.8504 25.4494 34.8304 26.4229 33.5823L26.8162 32.9531Z" fill="url(#paint5_linear_959_34780)"/>
<path id="Vector_35" d="M37.2763 48.2111C37.2979 48.2436 37.3271 48.2702 37.3614 48.2886C37.3957 48.307 37.434 48.3166 37.473 48.3166C37.5119 48.3166 37.5502 48.307 37.5845 48.2886C37.6188 48.2702 37.6481 48.2436 37.6696 48.2111C39.0061 46.9841 40.0999 45.5168 40.8941 43.8855C39.5693 43.7464 38.3398 43.1317 37.4336 42.1553C36.7864 42.9011 35.9801 43.4924 35.0742 43.8855C35.2315 44.5933 36.018 47.1887 37.2763 48.2111Z" fill="#FFD900"/>
<path id="Vector_36" d="M32.873 44.4357V44.9862C32.9517 46.4805 32.9517 50.6489 33.1876 51.3567C34.5776 50.6915 35.8735 49.8453 37.0414 48.84C36.4908 48.3681 35.4684 47.267 34.5246 44.0425C33.9999 44.2647 33.4416 44.3976 32.873 44.4357Z" fill="#FFD900"/>
<path id="Vector_37" d="M41.2891 43.1776C41.9922 41.5736 42.4687 39.8795 42.7048 38.1442V37.8296C41.6404 38.3819 40.4177 38.5486 39.2443 38.3015C39.0803 39.6198 38.5641 40.8695 37.75 41.9193C38.6018 42.7688 39.7052 43.3205 40.8959 43.4922L41.2891 43.1776Z" fill="#FFD900"/>
<path id="Vector_38" d="M31.3791 51.3567C31.6151 50.6488 31.6151 46.4805 31.6151 44.9862V44.4357L30.0421 44.1211C29.0983 47.267 28.0759 48.4467 27.5254 48.8399C28.6933 49.8452 29.9891 50.6915 31.3791 51.3567Z" fill="#FFD900"/>
<path id="Vector_39" d="M20.8407 29.4142L20.3688 29.0996C18.7172 27.9199 17.6948 27.0548 17.6948 27.0548C13.1284 25.7614 8.63844 24.2123 4.24609 22.4146C4.24609 22.4146 4.24609 28.3131 9.51547 29.2569C13.2855 29.5 17.0654 29.5525 20.8407 29.4142Z" fill="url(#paint6_linear_959_34780)"/>
<path id="Vector_40" d="M17.9293 26.6612C17.9293 26.6612 22.2549 30.9082 27.6816 31.7733L28.8613 30.1217C24.2211 29.6499 21.3112 27.0545 19.345 25.0883C18.7107 24.3947 17.9668 23.8102 17.1429 23.3581L0.705542 12.8979C0.705542 12.8979 -0.15958 19.6616 4.24468 21.7851L4.63791 21.9424C8.96384 23.7956 13.4033 25.3717 17.9293 26.6612Z" fill="url(#paint7_linear_959_34780)"/>
<path id="Vector_41" d="M21.4698 29.8076C18.7171 29.9649 15.0207 29.9649 10.1445 29.8076C10.5278 30.8624 11.2579 31.7559 12.2152 32.3416C13.1724 32.9274 14.3002 33.1709 15.4139 33.0322C18.1897 32.6526 20.9096 31.9396 23.5146 30.9087C22.7945 30.6181 22.1087 30.2489 21.4698 29.8076Z" fill="url(#paint8_linear_959_34780)"/>
<path id="Vector_42" d="M25.5591 31.6951L23.9861 31.1445C21.2467 32.2488 18.4002 33.0658 15.4922 33.5826C15.7417 34.1733 16.1747 34.668 16.727 34.9937C17.2793 35.3195 17.9218 35.4589 18.5594 35.3915C20.8402 35.3128 23.4356 33.5826 25.5591 31.6951Z" fill="url(#paint9_linear_959_34780)"/>
<path id="Vector_43" d="M42.3115 37.2001C41.8881 37.5132 41.3988 37.7256 40.8809 37.821C40.363 37.9164 39.8301 37.8923 39.3229 37.7506V37.436C39.3137 36.6597 39.181 35.8898 38.9297 35.1553C39.8971 36.0718 41.0505 36.7692 42.3115 37.2001Z" fill="url(#paint10_linear_959_34780)"/>
<path id="Vector_44" d="M37.7498 32.9531C37.5404 32.71 37.356 32.4465 37.1992 32.1666L38.3003 31.9307H38.4576C40.0305 33.189 42.3899 35.1552 45.064 35.7844C44.6724 36.255 44.1389 36.586 43.5433 36.7277C42.9478 36.8695 42.3224 36.8145 41.7608 36.5709C40.3379 35.8711 39.0988 34.8475 38.143 33.5823L37.7498 32.9531Z" fill="url(#paint11_linear_959_34780)"/>
<path id="Vector_45" d="M43.6484 29.4142L44.199 29.0996C45.8506 27.9199 46.873 27.0547 46.873 27.0547C51.4394 25.7614 55.9293 24.2123 60.3217 22.4146C60.3217 22.4146 60.3217 28.3131 54.9737 29.2569C51.2037 29.5004 47.4237 29.5529 43.6484 29.4142Z" fill="url(#paint12_linear_959_34780)"/>
<path id="Vector_46" d="M46.6371 26.6612C46.6371 26.6612 42.3115 30.9082 36.8848 31.7733C36.4638 31.2431 36.0701 30.6919 35.7051 30.1217C40.3453 29.6499 43.2552 27.0545 45.1428 25.0883C45.8145 24.4034 46.5829 23.8204 47.4235 23.3581L63.8609 12.8979H63.7822C63.7822 12.8979 64.726 19.6616 60.3217 21.7851L59.8498 21.9424C55.5511 23.7964 51.1378 25.3726 46.6371 26.6612Z" fill="url(#paint13_linear_959_34780)"/>
<path id="Vector_47" d="M43.0976 29.8076C45.8502 29.9649 49.5467 29.9649 54.4228 29.8076H54.3442C53.9733 30.8709 53.2458 31.773 52.2852 32.3608C51.3247 32.9486 50.1903 33.1858 49.0748 33.0322C46.3264 32.6428 43.6338 31.93 41.0527 30.9087C41.7728 30.6181 42.4586 30.2489 43.0976 29.8076Z" fill="url(#paint14_linear_959_34780)"/>
<path id="Vector_48" d="M39.0078 31.6951L40.5808 31.1445C43.3201 32.2488 46.1667 33.0658 49.0747 33.5826C48.8251 34.1733 48.3922 34.668 47.8399 34.9937C47.2876 35.3195 46.6451 35.4589 46.0074 35.3915C43.7267 35.3128 41.1313 33.5826 39.0078 31.6951Z" fill="url(#paint15_linear_959_34780)"/>
<path id="Vector_49" d="M38.7723 37.4359C38.7723 38.727 38.3894 39.9891 37.6722 41.0626C36.9549 42.136 35.9354 42.9727 34.7426 43.4668C33.5498 43.9609 32.2373 44.0901 30.971 43.8382C29.7048 43.5864 28.5417 42.9647 27.6287 42.0517C26.7158 41.1388 26.0941 39.9757 25.8422 38.7094C25.5904 37.4432 25.7196 36.1307 26.2137 34.9379C26.7078 33.7451 27.5444 32.7256 28.6179 32.0083C29.6914 31.291 30.9535 30.9082 32.2445 30.9082C33.1018 30.9082 33.9506 31.077 34.7426 31.4051C35.5346 31.7331 36.2542 32.214 36.8603 32.8201C37.4665 33.4263 37.9473 34.1459 38.2754 34.9379C38.6034 35.7299 38.7723 36.5787 38.7723 37.4359Z" fill="url(#paint16_linear_959_34780)"/>
<path id="Vector_50" d="M32.2429 32.4814C32.1318 32.4626 32.0311 32.4047 31.959 32.3182C31.8869 32.2316 31.8481 32.1221 31.8497 32.0095C31.8497 31.9052 31.8911 31.8052 31.9648 31.7314C32.0386 31.6577 32.1386 31.6163 32.2429 31.6163C32.3555 31.6147 32.465 31.6535 32.5516 31.7256C32.6381 31.7977 32.696 31.8984 32.7148 32.0095C32.7148 32.1346 32.6651 32.2547 32.5766 32.3432C32.4881 32.4317 32.368 32.4814 32.2429 32.4814Z" fill="#001A60"/>
<path id="Vector_51" d="M36.0969 34.0541C35.9717 34.0541 35.8517 34.0044 35.7632 33.9159C35.6747 33.8274 35.625 33.7074 35.625 33.5822C35.6438 33.4712 35.7017 33.3705 35.7882 33.2983C35.8747 33.2262 35.9842 33.1874 36.0969 33.189C36.2012 33.189 36.3012 33.2304 36.3749 33.3042C36.4487 33.3779 36.4901 33.478 36.4901 33.5822C36.4917 33.6949 36.4529 33.8044 36.3808 33.8909C36.3087 33.9775 36.208 34.0354 36.0969 34.0541Z" fill="#001A60"/>
<path id="Vector_52" d="M37.6711 37.8295C37.5585 37.831 37.449 37.7923 37.3624 37.7202C37.2759 37.648 37.218 37.5473 37.1992 37.4362C37.1992 37.3111 37.2489 37.1911 37.3374 37.1026C37.4259 37.0141 37.546 36.9644 37.6711 36.9644C37.7822 36.9831 37.8829 37.041 37.955 37.1276C38.0271 37.2141 38.0659 37.3236 38.0643 37.4362C38.0643 37.5405 38.0229 37.6406 37.9492 37.7143C37.8754 37.788 37.7754 37.8295 37.6711 37.8295Z" fill="#001A60"/>
<path id="Vector_53" d="M36.0969 41.683C35.9717 41.683 35.8517 41.6333 35.7632 41.5448C35.6747 41.4563 35.625 41.3363 35.625 41.2112C35.6438 41.1001 35.7017 40.9994 35.7882 40.9272C35.8747 40.8551 35.9842 40.8163 36.0969 40.8179C36.2012 40.8179 36.3012 40.8593 36.3749 40.9331C36.4487 41.0068 36.4901 41.1069 36.4901 41.2112C36.4917 41.3238 36.4529 41.4333 36.3808 41.5198C36.3087 41.6064 36.208 41.6643 36.0969 41.683Z" fill="#001A60"/>
<path id="Vector_54" d="M32.2429 43.2563C32.1318 43.2375 32.0311 43.1796 31.959 43.0931C31.8869 43.0065 31.8481 42.897 31.8497 42.7844C31.8497 42.6801 31.8911 42.5801 31.9648 42.5063C32.0386 42.4326 32.1386 42.3912 32.2429 42.3912C32.3555 42.3896 32.465 42.4284 32.5516 42.5005C32.6381 42.5726 32.696 42.6733 32.7148 42.7844C32.7148 42.9095 32.6651 43.0296 32.5766 43.1181C32.4881 43.2066 32.368 43.2563 32.2429 43.2563Z" fill="#001A60"/>
<path id="Vector_55" d="M28.468 41.683C28.3428 41.683 28.2228 41.6333 28.1343 41.5448C28.0458 41.4563 27.9961 41.3363 27.9961 41.2112C28.0149 41.1001 28.0727 40.9994 28.1593 40.9272C28.2458 40.8551 28.3553 40.8163 28.468 40.8179C28.5723 40.8179 28.6723 40.8593 28.746 40.9331C28.8198 41.0068 28.8612 41.1069 28.8612 41.2112C28.8628 41.3238 28.824 41.4333 28.7519 41.5198C28.6798 41.6064 28.5791 41.6643 28.468 41.683Z" fill="#001A60"/>
<path id="Vector_56" d="M26.8957 37.8295C26.7831 37.831 26.6736 37.7923 26.587 37.7202C26.5005 37.648 26.4426 37.5473 26.4238 37.4362C26.4238 37.3111 26.4735 37.1911 26.562 37.1026C26.6505 37.0141 26.7706 36.9644 26.8957 36.9644C27.0068 36.9831 27.1075 37.041 27.1796 37.1276C27.2517 37.2141 27.2905 37.3236 27.2889 37.4362C27.2889 37.5405 27.2475 37.6406 27.1738 37.7143C27.1 37.788 27 37.8295 26.8957 37.8295Z" fill="#001A60"/>
<path id="Vector_57" d="M28.468 34.0541C28.3428 34.0541 28.2228 34.0044 28.1343 33.9159C28.0458 33.8274 27.9961 33.7074 27.9961 33.5822C28.0149 33.4712 28.0727 33.3705 28.1593 33.2983C28.2458 33.2262 28.3553 33.1874 28.468 33.189C28.5723 33.189 28.6723 33.2304 28.746 33.3042C28.8198 33.3779 28.8612 33.478 28.8612 33.5822C28.8628 33.6949 28.824 33.8044 28.7519 33.8909C28.6798 33.9775 28.5791 34.0354 28.468 34.0541Z" fill="#001A60"/>
<path id="Vector_58" d="M36.5699 37.5146C36.549 38.6618 36.0733 39.7538 35.2473 40.5502C34.4214 41.3467 33.3129 41.7824 32.1656 41.7616C31.0184 41.7407 29.9265 41.265 29.13 40.439C28.3336 39.6131 27.8978 38.5045 27.9187 37.3573C27.9594 36.2167 28.4414 35.1365 29.263 34.3442C30.0846 33.552 31.1816 33.1096 32.3229 33.1104C32.8941 33.11 33.4596 33.2248 33.9854 33.448C34.5111 33.6712 34.9865 33.9982 35.383 34.4093C35.7795 34.8205 36.089 35.3075 36.2929 35.841C36.4968 36.3746 36.5911 36.9438 36.5699 37.5146Z" fill="url(#paint17_radial_959_34780)"/>
<path id="Vector_59" d="M35.6256 37.9079C35.6256 35.9417 34.3672 34.8406 33.2662 34.8406C33.0594 34.8189 32.8504 34.8384 32.6513 34.8979C32.4521 34.9575 32.2667 35.0559 32.1058 35.1876C31.9449 35.3192 31.8117 35.4815 31.7139 35.6649C31.6161 35.8483 31.5556 36.0493 31.5359 36.2563C31.5439 36.4969 31.6131 36.7315 31.7369 36.9379C31.8608 37.1443 32.0352 37.3158 32.2438 37.436C32.4494 37.3259 32.679 37.2682 32.9123 37.2682C33.1455 37.2682 33.3752 37.3259 33.5808 37.436C33.905 37.6729 34.1263 38.0248 34.1994 38.4196C34.2725 38.8144 34.1919 39.2222 33.974 39.5595C33.3448 40.5033 31.7719 41.0538 30.0416 40.0314C29.5645 39.7401 29.165 39.3375 28.8773 38.8581C28.5897 38.3788 28.4225 37.8368 28.39 37.2787C28.3578 37.8043 28.4336 38.3309 28.6128 38.826C28.792 39.3212 29.0707 39.7743 29.4318 40.1575C29.793 40.5408 30.2288 40.8459 30.7124 41.0542C31.196 41.2624 31.7172 41.3694 32.2438 41.3684C32.8541 41.3823 33.4553 41.2183 33.974 40.8965C34.4954 40.596 34.9249 40.1589 35.2159 39.6321C35.507 39.1054 35.6487 38.5092 35.6256 37.9079Z" fill="url(#paint18_linear_959_34780)"/>
<path id="Vector_60" d="M30.1194 40.1103C31.8497 41.0541 33.5013 40.5036 34.0518 39.4811C34.2437 39.1301 34.3016 38.7213 34.2148 38.3308C34.128 37.9402 33.9024 37.5944 33.5799 37.3577C33.3698 37.252 33.1356 37.2037 32.9009 37.2175C32.6661 37.2313 32.4392 37.3068 32.2429 37.4363C32.2373 37.6671 32.1683 37.8919 32.0434 38.0861C31.9186 38.2803 31.7427 38.4364 31.5351 38.5374C31.1684 38.7035 30.752 38.7226 30.3716 38.5909C29.9912 38.4593 29.6758 38.1868 29.4903 37.8296C28.9397 36.8071 29.2543 35.1555 31.0632 34.2118C31.545 33.9188 32.0923 33.751 32.6555 33.7235C33.2187 33.696 33.7798 33.8098 34.2878 34.0545C33.8366 33.774 33.3332 33.5879 32.8081 33.5074C32.283 33.4268 31.7471 33.4535 31.2326 33.5858C30.7181 33.7181 30.2357 33.9533 29.8146 34.2771C29.3935 34.601 29.0424 35.0068 28.7824 35.4701C28.4723 35.9939 28.3093 36.5917 28.3106 37.2004C28.3481 37.7971 28.533 38.3753 28.8487 38.8831C29.1643 39.3909 29.6009 39.8125 30.1194 40.1103Z" fill="url(#paint19_radial_959_34780)"/>
<path id="Vector_61" d="M30.9857 34.2114C29.2555 35.2339 28.9409 36.8854 29.4914 37.8292C29.6918 38.1936 30.0167 38.4736 30.4066 38.6181C30.7966 38.7625 31.2255 38.7617 31.6149 38.6157C31.8042 38.4814 31.9596 38.3049 32.0688 38.1001C32.178 37.8954 32.238 37.668 32.2441 37.436C32.0501 37.3064 31.8912 37.1309 31.7814 36.9251C31.6717 36.7193 31.6145 36.4895 31.6149 36.2563C31.6245 36.0528 31.6755 35.8534 31.765 35.6703C31.8544 35.4873 31.9804 35.3245 32.1351 35.1919C32.2897 35.0593 32.4699 34.9597 32.6645 34.8993C32.859 34.8389 33.0639 34.8189 33.2665 34.8406C34.3676 34.8406 35.7046 36.0203 35.6259 37.9865C35.6168 38.5427 35.4768 39.0889 35.2172 39.5808C34.9576 40.0727 34.5857 40.4965 34.1316 40.8178C35.0567 40.3037 35.7411 39.4449 36.0357 38.4284C36.3304 37.412 36.2113 36.3202 35.7046 35.3911C35.389 34.8793 34.9581 34.4483 34.4462 34.1328C33.9088 33.8557 33.3105 33.7177 32.7059 33.7314C32.1014 33.7451 31.51 33.9102 30.9857 34.2114Z" fill="url(#paint20_radial_959_34780)"/>
<path id="Vector_62" d="M39.3223 37.7508C39.8295 37.8925 40.3623 37.9165 40.8802 37.8211C41.3981 37.7257 41.8874 37.5134 42.3109 37.2003L41.9176 37.043C41.5329 37.2784 41.102 37.4284 40.6542 37.4826C40.2064 37.5369 39.7521 37.4943 39.3223 37.3576V37.7508Z" fill="#E49D00"/>
<path id="Vector_63" d="M60.3218 21.7853C61.0575 21.4017 61.7039 20.8671 62.2189 20.2166C62.7338 19.5661 63.1058 18.8143 63.3104 18.0103C62.7572 19.1986 61.8509 20.1873 60.7151 20.8416C60.7151 20.8416 57.7265 22.8077 46.6372 26.1109C46.6372 26.1109 41.4465 31.0657 36.5703 31.3803L36.8849 31.7736C42.3116 30.9084 46.6372 26.6615 46.6372 26.6615C51.1379 25.3729 55.5512 23.7967 59.85 21.9426L60.3218 21.7853Z" fill="#E49D00"/>
<path id="Vector_64" d="M54.9737 28.7847C51.4345 29.0207 47.1876 29.0993 44.3563 29.0207H44.199L43.6484 29.3353C47.4237 29.474 51.2037 29.4215 54.9737 29.178C55.8502 29.0598 56.6882 28.7434 57.4241 28.2528C58.16 27.7622 58.7744 27.1103 59.2206 26.3467C58.1806 27.6861 56.6548 28.5621 54.9737 28.7847Z" fill="#E49D00"/>
<path id="Vector_65" d="M49.3107 32.5599C46.6663 32.1537 44.0615 31.5222 41.5246 30.6724L41.0527 30.9083C43.6338 31.9297 46.3264 32.6424 49.0748 33.0318C49.9167 33.1902 50.7864 33.1039 51.5809 32.7834C52.3754 32.4628 53.0614 31.9213 53.5577 31.2229C53.0032 31.7616 52.3303 32.1631 51.5928 32.3953C50.8554 32.6275 50.0738 32.6838 49.3107 32.5599Z" fill="#E49D00"/>
<path id="Vector_66" d="M46.1647 34.9981C43.4121 34.7621 40.5808 32.56 39.401 31.5376L39.0078 31.6949C41.1313 33.5824 43.7267 35.3127 46.0074 35.3913C46.5342 35.4228 47.0606 35.3246 47.5406 35.1052C48.0205 34.8858 48.4393 34.5519 48.7601 34.133C48.4239 34.4682 48.0146 34.7208 47.5642 34.8709C47.1138 35.021 46.6348 35.0646 46.1647 34.9981Z" fill="#E49D00"/>
<path id="Vector_67" d="M42.154 36.1776C40.3451 35.5484 38.6935 33.7395 37.5925 32.0879H37.1992L37.8284 33.0317C37.907 33.1103 37.907 33.1889 37.9857 33.1889C38.9501 34.5667 40.2492 35.6764 41.7608 36.4135C42.2064 36.6091 42.696 36.683 43.1796 36.6278C43.6631 36.5725 44.1234 36.39 44.5134 36.0989H44.5921C43.821 36.4434 42.9456 36.4716 42.154 36.1776Z" fill="#E49D00"/>
<path id="Vector_68" d="M45.3787 25.4815C46.0129 24.788 46.7569 24.2034 47.5808 23.7513C54.4232 19.1897 58.5915 16.9876 63.8609 13.4485C63.8735 13.2615 63.8467 13.0739 63.7822 12.8979H63.8609L54.9737 18.5606L47.4235 23.3581C46.5829 23.8204 45.8145 24.4034 45.1428 25.0883C43.2552 27.0545 40.3453 29.6499 35.7051 30.1217L35.941 30.4363C37.514 30.3577 41.289 29.6499 45.3787 25.4815Z" fill="#FFF4CD"/>
<path id="Vector_69" d="M46.8728 27.0548L46.3223 27.5266C51.0745 26.339 55.7285 24.7877 60.2429 22.8864C60.2861 22.7325 60.3125 22.5742 60.3215 22.4146C55.9292 24.2123 51.4392 25.7614 46.8728 27.0548Z" fill="#FFF4CD"/>
<path id="Vector_70" d="M54.423 29.8076C49.5469 29.9649 45.8505 29.9649 43.0978 29.8076L42.7832 29.9649C46.6053 30.2308 50.4403 30.257 54.2657 30.0436V29.8076H54.423Z" fill="#FFF4CD"/>
<path id="Vector_71" d="M40.5802 31.1445H40.2656C43.0425 32.4067 45.9801 33.28 48.9955 33.7399V33.504C46.1171 33.0073 43.2972 32.2167 40.5802 31.1445Z" fill="#FFF4CD"/>
<path id="Vector_72" d="M45.063 35.7058C42.389 35.0766 40.0296 33.1104 38.4566 31.8521H38.2207C40.8947 34.3688 43.1755 35.4698 44.8271 35.7844L45.063 35.7058Z" fill="#FFF4CD"/>
<path id="Vector_73" d="M25.2445 37.7508C24.7373 37.8925 24.2044 37.9165 23.6865 37.8211C23.1686 37.7257 22.6793 37.5134 22.2559 37.2003L22.6491 37.043C23.0339 37.2784 23.4648 37.4284 23.9126 37.4826C24.3604 37.5369 24.8146 37.4943 25.2445 37.3576V37.7508Z" fill="#E49D00"/>
<path id="Vector_74" d="M4.24498 21.7853C3.50878 21.3911 2.85841 20.8543 2.3318 20.2062C1.80519 19.558 1.41288 18.8116 1.17773 18.0103C1.7868 19.1855 2.71321 20.1664 3.85175 20.8416C3.85175 20.8416 6.84035 22.8077 17.9296 26.1109C17.9296 26.1109 23.1204 31.0657 27.9965 31.3803L27.6819 31.7736C22.2552 30.9084 17.9296 26.6615 17.9296 26.6615C13.4036 25.372 8.96415 23.7958 4.63822 21.9426L4.24498 21.7853Z" fill="#E49D00"/>
<path id="Vector_75" d="M9.51402 28.7847C13.0532 29.0207 17.3788 29.0993 20.2101 29.0207H20.3674L20.8392 29.3353C17.0639 29.4736 13.284 29.4211 9.51402 29.178C8.65147 29.0486 7.82905 28.7269 7.10755 28.2368C6.38605 27.7468 5.78393 27.1008 5.3457 26.3467C6.36696 27.6685 7.86126 28.5426 9.51402 28.7847Z" fill="#E49D00"/>
<path id="Vector_76" d="M15.2567 32.5599C17.8993 32.1447 20.5034 31.5134 23.0428 30.6724L23.5147 30.9083C20.9097 31.9393 18.1898 32.6522 15.414 33.0318C14.5837 33.184 13.7272 33.0945 12.9464 32.7738C12.1656 32.4531 11.4933 31.9148 11.0098 31.2229C11.5569 31.7724 12.2291 32.1811 12.9687 32.4139C13.7084 32.6468 14.4935 32.6969 15.2567 32.5599Z" fill="#E49D00"/>
<path id="Vector_77" d="M18.4025 34.9981C21.1552 34.7621 23.9865 32.56 25.1662 31.5376L25.5594 31.6949C23.436 33.5824 20.8406 35.3127 18.5598 35.3913C18.0331 35.4228 17.5066 35.3246 17.0267 35.1052C16.5467 34.8858 16.128 34.5519 15.8072 34.133H15.7285C16.0832 34.4649 16.5067 34.7146 16.9689 34.8641C17.4311 35.0136 17.9206 35.0594 18.4025 34.9981Z" fill="#E49D00"/>
<path id="Vector_78" d="M22.4127 36.1776C24.1429 35.5484 25.8732 33.7395 26.9742 32.0879H27.3675L26.7383 33.0317C26.6596 33.1103 26.6596 33.1889 26.581 33.1889C25.5996 34.5512 24.3048 35.6572 22.8059 36.4135C22.3602 36.6091 21.8707 36.683 21.3871 36.6278C20.9036 36.5725 20.4433 36.39 20.0533 36.0989H19.9746C20.7456 36.4434 21.621 36.4716 22.4127 36.1776Z" fill="#E49D00"/>
<path id="Vector_79" d="M19.1892 25.4815C18.5373 24.8072 17.7964 24.2251 16.9871 23.7513C10.1447 19.1897 5.97641 16.9876 0.707031 13.4485V12.8979L9.59419 18.5606L17.1443 23.3581C17.9683 23.8102 18.7122 24.3947 19.3465 25.0883C21.3127 27.0545 24.2226 29.6499 28.8628 30.1217L28.6269 30.4363C27.0539 30.3577 23.2788 29.6499 19.1892 25.4815Z" fill="#FFF4CD"/>
<path id="Vector_80" d="M17.6948 27.0548L18.2453 27.5266C13.4705 26.3287 8.79118 24.7777 4.24609 22.8864V22.4146C8.63844 24.2123 13.1284 25.7614 17.6948 27.0548Z" fill="#FFF4CD"/>
<path id="Vector_81" d="M10.1445 29.8076C15.0207 29.9649 18.7171 29.9649 21.4698 29.8076L21.7844 29.9649C17.9622 30.2308 14.1272 30.257 10.3018 30.0436L10.1445 29.8076Z" fill="#FFF4CD"/>
<path id="Vector_82" d="M23.9856 31.1445H24.3002C21.5196 32.3966 18.5833 33.2696 15.5703 33.7399V33.504C18.4487 33.0073 21.2686 32.2167 23.9856 31.1445Z" fill="#FFF4CD"/>
<path id="Vector_83" d="M19.502 35.7058C22.176 35.0766 24.5354 33.1104 26.0297 31.8521H26.3443C23.6703 34.3688 21.3895 35.4698 19.6592 35.7844L19.502 35.7058Z" fill="#FFF4CD"/>
<path id="Vector_84" d="M40.7369 44.2788L40.8942 43.8855C39.5694 43.7464 38.3399 43.1317 37.4337 42.1553C37.3707 42.2949 37.2588 42.4068 37.1191 42.4699C38.0566 43.5038 39.3473 44.1491 40.7369 44.2788Z" fill="#FFF4CD"/>
<path id="Vector_85" d="M37.5123 47.6604C36.5393 46.5111 35.8162 45.1719 35.3888 43.728L35.0742 43.8853C35.2315 44.5932 36.018 47.1885 37.2763 48.2109C37.2979 48.2434 37.3271 48.27 37.3614 48.2884C37.3957 48.3068 37.434 48.3165 37.473 48.3165C37.5119 48.3165 37.5502 48.3068 37.5845 48.2884C37.6188 48.27 37.6481 48.2434 37.6696 48.2109L37.9842 47.8963L37.5123 47.6604Z" fill="#E49D00"/>
<path id="Vector_86" d="M39.1641 38.5374C40.3163 38.8686 41.5509 38.7564 42.6246 38.2228H42.7032V37.9082C42.1023 38.2489 41.4274 38.4378 40.737 38.4587H39.2427C39.2197 38.488 39.1933 38.5144 39.1641 38.5374Z" fill="#FFF4CD"/>
<path id="Vector_87" d="M41.0532 42.9415C39.8999 42.8309 38.8184 42.3317 37.9859 41.5259L37.75 41.8405C38.6018 42.69 39.7052 43.2417 40.8959 43.4134L41.2891 43.1775C41.3678 43.0988 41.3678 42.9415 41.4464 42.8629L41.0532 42.9415Z" fill="#E49D00"/>
<path id="Vector_88" d="M37.0408 48.84C36.4903 48.3681 35.4679 47.267 34.5241 44.0425L34.1309 44.1998C35.3106 48.6827 37.0408 48.84 37.0408 48.84Z" fill="#FFF4CD"/>
<path id="Vector_89" d="M33.5809 50.1768C33.4236 48.9185 33.2663 45.7726 33.2663 44.3569H32.873C32.873 44.8288 32.9517 49.705 33.109 51.042H33.1876C34.493 50.4197 35.7096 49.6262 36.8054 48.6825C35.9841 49.4585 35.0234 50.0723 33.9741 50.4914C33.8955 50.4914 33.5809 50.5701 33.5809 50.1768Z" fill="#E49D00"/>
<path id="Vector_90" d="M23.8292 44.2788C23.7329 44.1698 23.6773 44.0308 23.6719 43.8855C24.9871 43.7142 26.2062 43.1047 27.1324 42.1553L27.3683 42.4699C26.4699 43.5117 25.1998 44.1609 23.8292 44.2788Z" fill="#FFF4CD"/>
<path id="Vector_91" d="M27.0525 47.6604C28.0051 46.5094 28.7022 45.1689 29.0973 43.728L29.4906 43.8853C29.2546 44.5932 28.5468 47.1885 27.2884 48.2109C27.2669 48.2434 27.2377 48.27 27.2034 48.2884C27.1691 48.3068 27.1307 48.3165 27.0918 48.3165C27.0529 48.3165 27.0145 48.3068 26.9802 48.2884C26.9459 48.27 26.9167 48.2434 26.8952 48.2109L26.502 47.8963L27.0525 47.6604Z" fill="#E49D00"/>
<path id="Vector_92" d="M25.3218 38.5374C24.1682 38.8537 22.939 38.7419 21.8613 38.2228V37.9082C22.4376 38.2396 23.0848 38.4284 23.7489 38.4587H25.3218V38.5374Z" fill="#FFF4CD"/>
<path id="Vector_93" d="M23.5143 42.9415C24.6676 42.8309 25.7491 42.3317 26.5816 41.5259L26.8175 41.8405C25.9657 42.69 24.8623 43.2417 23.6716 43.4134C23.5896 43.4202 23.5076 43.401 23.4371 43.3587C23.3665 43.3164 23.311 43.253 23.2784 43.1775C23.1997 43.0988 23.1997 42.9415 23.1211 42.8629L23.5143 42.9415Z" fill="#E49D00"/>
<path id="Vector_94" d="M27.5254 48.84C28.0759 48.3681 29.0983 47.267 30.0421 44.0425L30.3567 44.1998C29.2556 48.6827 27.5254 48.84 27.5254 48.84Z" fill="#FFF4CD"/>
<path id="Vector_95" d="M30.9863 50.1768C31.1436 48.9185 31.2222 45.7726 31.3009 44.3569H31.6154C31.6154 44.8288 31.6154 49.705 31.4581 51.042C31.4373 51.042 31.4173 51.0503 31.4025 51.065C31.3878 51.0797 31.3795 51.0998 31.3795 51.1206C30.0623 50.5195 28.8428 49.7242 27.7617 48.7612C28.6082 49.4251 29.5673 49.9313 30.593 50.2555C30.6717 50.4914 30.9863 50.5701 30.9863 50.1768Z" fill="#E49D00"/>
<path id="Vector_96" d="M30.0416 29.1782C30.5082 28.2838 30.6997 27.2713 30.5921 26.2682C30.5135 26.2682 28.9405 25.5604 29.0192 26.3469C29.0978 27.1334 28.4686 25.3245 29.1765 25.0099C29.5165 24.9211 29.8764 24.9488 30.1989 25.0885L30.9853 25.2458C31.3426 24.9564 31.7842 24.7908 32.2437 24.7739C31.6125 24.5435 30.9251 24.516 30.2775 24.6953C30.5921 23.7515 31.4572 23.7515 32.2437 23.9088C32.7026 24.0829 33.1764 24.2146 33.6594 24.3021C34.0335 24.3785 34.4226 24.3229 34.7604 24.1448C34.8307 24.2663 34.8672 24.4044 34.866 24.5448C34.8649 24.6852 34.8262 24.8227 34.754 24.9431C34.6817 25.0635 34.5786 25.1623 34.4553 25.2294C34.3319 25.2965 34.1929 25.3293 34.0526 25.3245C34.0526 25.3245 33.8953 28.1558 34.6818 29.5714C35.0944 30.2922 35.568 30.9763 36.0974 31.6163C34.9735 30.8487 33.6441 30.4381 32.283 30.4381C30.922 30.4381 29.5926 30.8487 28.4686 31.6163C28.8619 30.9871 29.8056 29.6501 30.0416 29.1782ZM64.4892 12.4263C64.4892 11.5612 63.9386 11.9544 63.9386 11.9544C57.8041 16.1227 49.3102 21.4707 46.7935 23.0437C45.8063 23.7451 44.885 24.5348 44.0408 25.4031C39.7152 29.7287 35.4682 29.5714 35.3896 29.5714C35.311 29.5714 34.6031 25.6391 34.6031 25.6391C35.9401 25.1672 35.075 23.2796 35.075 23.2796C34.8539 23.503 34.5737 23.6587 34.2672 23.7283C33.9607 23.798 33.6407 23.7788 33.3448 23.6729C33.0022 23.4961 32.6279 23.3892 32.2437 23.3583C29.9629 23.0437 29.727 24.538 29.727 24.538C29.4453 24.4595 29.1444 24.4885 28.8828 24.6193C28.6213 24.7501 28.4176 24.9733 28.3113 25.2458C27.9967 26.3469 29.1765 26.8974 29.1765 26.8974L30.1202 26.6615C30.1152 27.7059 29.7853 28.7228 29.1765 29.5714C28.9405 29.5714 24.7722 29.6501 20.4466 25.4031C19.6211 24.5152 18.6977 23.7236 17.6939 23.0437C15.2559 21.4707 6.76193 16.1227 0.548787 11.9544C0.548787 11.9544 0.0769023 11.5612 0.0769023 12.4263C-0.237687 16.2014 0.312845 20.1337 3.61604 22.1786C3.61604 22.1786 3.2228 28.549 9.51459 29.8074C9.51459 29.8074 10.8516 33.7397 14.9413 33.5824C15.1712 34.1271 15.5259 34.6101 15.9767 34.9926C16.4275 35.3751 16.9618 35.6464 17.5366 35.7846C18.0307 35.8746 18.5369 35.8746 19.0309 35.7846C19.233 36.1835 19.5346 36.5234 19.9066 36.7714C20.2787 37.0195 20.7085 37.1672 21.1544 37.2002C21.3835 40.5475 22.5431 43.7643 24.5024 46.4879C26.4618 49.2115 29.1429 51.3336 32.2437 52.6151C43.333 47.739 43.4116 37.2002 43.4116 37.2002C43.8482 37.1695 44.2683 37.0218 44.6281 36.7727C44.9879 36.5237 45.274 36.1823 45.4565 35.7846C45.9768 35.8757 46.5091 35.8757 47.0294 35.7846C47.6042 35.6464 48.1386 35.3751 48.5894 34.9926C49.0402 34.6101 49.3948 34.1271 49.6248 33.5824C53.7145 33.7397 55.0515 29.8074 55.0515 29.8074C61.3433 28.549 60.95 22.1786 60.95 22.1786C64.2532 20.1337 64.8037 16.2014 64.4892 12.4263ZM0.706082 12.8982L17.1434 23.3583C17.9673 23.8104 18.7113 24.395 19.3455 25.0885C21.3117 27.0547 24.2217 29.6501 28.8619 30.122L27.6822 31.7736C22.2555 30.9084 17.9299 26.6615 17.9299 26.6615C13.4038 25.372 8.96438 23.7958 4.63845 21.9426L4.24522 21.7853C-0.15904 19.6619 0.706082 12.8982 0.706082 12.8982ZM4.24522 22.4145C8.63756 24.2122 13.1276 25.7614 17.6939 27.0547C17.6939 27.0547 18.7163 27.9198 20.3679 29.0995L20.8398 29.4141C17.0645 29.5525 13.2846 29.5 9.51459 29.2568C4.24522 28.3131 4.24522 22.4145 4.24522 22.4145ZM10.1438 29.8074C15.0199 29.9647 18.7163 29.9647 21.469 29.8074C22.108 30.2486 22.7937 30.6179 23.5138 30.9084C20.9088 31.9394 18.1889 32.6524 15.4132 33.0319C14.2995 33.1707 13.1717 32.9272 12.2144 32.3414C11.2571 31.7556 10.5271 30.8622 10.1438 29.8074ZM18.5591 35.3913C17.9214 35.4588 17.2789 35.3193 16.7266 34.9936C16.1743 34.6679 15.7414 34.1731 15.4918 33.5824C18.3998 33.0657 21.2463 32.2486 23.9857 31.1444L25.5587 31.6949C23.4352 33.5824 20.8398 35.3127 18.5591 35.3913ZM19.5028 35.7059C22.1768 35.0767 24.5363 33.1106 26.0306 31.8522H26.2665L27.3676 32.0881C27.2108 32.3681 27.0264 32.6315 26.817 32.8746L26.4238 33.4252C25.4502 34.6732 24.2154 35.6933 22.806 36.4138C22.2525 36.6664 21.6322 36.7339 21.0373 36.6065C20.4423 36.479 19.9043 36.1632 19.5028 35.7059ZM25.2441 37.7508C24.7369 37.8925 24.204 37.9165 23.6861 37.8211C23.1682 37.7257 22.6789 37.5134 22.2555 37.2002C23.5165 36.7693 24.6699 36.0719 25.6373 35.1554C25.386 35.89 25.2533 36.6599 25.2441 37.4362V37.7508ZM23.2779 43.1774C22.5392 41.5864 22.0612 39.8869 21.8622 38.144V37.8294C22.8958 38.3892 24.0968 38.5567 25.2441 38.3013C25.4019 39.6355 25.9489 40.8937 26.817 41.9191C25.9528 42.7511 24.8553 43.2998 23.6711 43.492C23.5791 43.4939 23.4894 43.4634 23.4176 43.4059C23.3457 43.3485 23.2963 43.2676 23.2779 43.1774ZM27.2889 48.2109C27.2594 48.2443 27.2231 48.2712 27.1824 48.2895C27.1417 48.3079 27.0976 48.3174 27.053 48.3174C27.0083 48.3174 26.9642 48.3079 26.9235 48.2895C26.8829 48.2712 26.8466 48.2443 26.817 48.2109C25.5291 46.9592 24.4651 45.4962 23.6711 43.8853C24.9864 43.714 26.2055 43.1044 27.1316 42.155C27.7555 42.9258 28.5683 43.522 29.491 43.8853C29.2551 44.5931 28.5473 47.1885 27.2889 48.2109ZM31.6145 44.9863C31.6145 46.4806 31.6145 50.6489 31.3786 51.3568C29.9886 50.6916 28.6927 49.8453 27.5249 48.84C28.0754 48.4468 29.0978 47.2671 30.0416 44.1212L31.6145 44.4358V44.9863ZM32.2437 43.9639C30.9526 43.9639 29.6906 43.5811 28.6171 42.8638C27.5436 42.1465 26.7069 41.127 26.2129 39.9342C25.7188 38.7414 25.5895 37.4289 25.8414 36.1627C26.0933 34.8964 26.715 33.7333 27.6279 32.8204C28.5408 31.9074 29.7039 31.2857 30.9702 31.0339C32.2365 30.782 33.549 30.9113 34.7418 31.4053C35.9345 31.8994 36.954 32.7361 37.6713 33.8096C38.3886 34.883 38.7714 36.1451 38.7714 37.4362C38.7714 39.1674 38.0837 40.8278 36.8595 42.052C35.6353 43.2762 33.975 43.9639 32.2437 43.9639ZM33.1875 51.3568C32.9515 50.6489 32.9515 46.4806 32.8729 44.9863V44.4358C33.4415 44.3977 33.9997 44.2648 34.5245 44.0426C35.4682 47.2671 36.4907 48.3682 37.0412 48.84C35.8733 49.8453 34.5775 50.6916 33.1875 51.3568ZM37.6704 48.2109C37.6489 48.2433 37.6196 48.2699 37.5853 48.2883C37.551 48.3068 37.5127 48.3164 37.4738 48.3164C37.4348 48.3164 37.3965 48.3068 37.3622 48.2883C37.3279 48.2699 37.2987 48.2433 37.2771 48.2109C36.0188 47.1885 35.2323 44.5931 35.075 43.8853C35.9809 43.4921 36.7872 42.9009 37.4344 42.155C38.3406 43.1314 39.5701 43.7462 40.8949 43.8853C40.1007 45.5165 39.0069 46.9839 37.6704 48.2109ZM42.7038 38.0654C42.4677 39.8007 41.9913 41.4948 41.2882 43.0988L40.8949 43.3347C39.7042 43.163 38.6008 42.6113 37.749 41.7618C38.5631 40.712 39.0793 39.4623 39.2433 38.144C40.4167 38.3911 41.6394 38.2244 42.7038 37.6721V38.0654ZM38.9287 35.1554C39.8719 36.1032 41.0331 36.8053 42.3106 37.2002C41.8871 37.5134 41.3978 37.7257 40.8799 37.8211C40.362 37.9165 39.8292 37.8925 39.322 37.7508V37.4362C39.3128 36.6599 39.18 35.89 38.9287 35.1554ZM41.76 36.4924C40.2485 35.7553 38.9493 34.6456 37.985 33.2679C37.9063 33.2679 37.9063 33.1892 37.8277 33.1106L37.1985 32.1668L38.2996 31.9308H38.4569C40.0298 33.1892 42.3892 35.1554 45.0632 35.7846C44.6618 36.2418 44.1237 36.5576 43.5288 36.6851C42.9338 36.8126 42.3136 36.745 41.76 36.4924ZM46.007 35.3913C43.7262 35.3127 41.1309 33.5824 39.0074 31.6949L40.5803 31.1444C43.3197 32.2486 46.1663 33.0657 49.0743 33.5824C48.8247 34.1731 48.3918 34.6679 47.8395 34.9936C47.2871 35.3193 46.6447 35.4588 46.007 35.3913ZM54.3436 29.8074C53.9727 30.8706 53.2453 31.7728 52.2847 32.3606C51.3242 32.9483 50.1898 33.1856 49.0743 33.0319C46.3259 32.6425 43.6332 31.9298 41.0522 30.9084C41.7723 30.6179 42.4581 30.2486 43.097 29.8074C45.8497 29.9647 49.5461 29.9647 54.4223 29.8074H54.3436ZM54.9728 29.2568C51.2028 29.5004 47.4229 29.5529 43.6476 29.4141L44.1981 29.0995C45.8497 27.9198 46.8721 27.0547 46.8721 27.0547C51.4385 25.7614 55.9285 24.2122 60.3208 22.4145C60.3208 22.4145 60.3208 28.3131 54.9728 29.2568ZM60.3208 21.7853L59.849 21.9426C55.5502 23.7967 51.1369 25.3729 46.6362 26.6615C46.6362 26.6615 42.3106 30.9084 36.8839 31.7736C36.4629 31.2434 36.0692 30.6921 35.7042 30.122C40.3444 29.6501 43.2543 27.0547 45.1419 25.0885C45.8136 24.4036 46.582 23.8207 47.4227 23.3583L63.86 12.8982H63.7813C63.7813 12.8982 64.7251 19.6619 60.3208 21.7853Z" fill="#001A60"/>
<path id="Vector_97" d="M32.2438 30.3577C33.6149 30.3736 34.9525 30.7831 36.0976 31.5374C35.5682 30.8974 35.0946 30.2133 34.6819 29.4925C33.8954 28.0769 34.0527 25.2456 34.0527 25.2456C34.193 25.2504 34.3321 25.2176 34.4554 25.1505C34.5787 25.0835 34.6819 24.9846 34.7541 24.8642C34.8263 24.7438 34.865 24.6063 34.8662 24.4659C34.8673 24.3255 34.8308 24.1874 34.7605 24.0659C34.4227 24.244 34.0336 24.2996 33.6595 24.2232C33.1766 24.1357 32.7027 24.004 32.2438 23.8299C31.4574 23.6726 30.5922 23.6726 30.2776 24.6164C30.9252 24.4371 31.6126 24.4646 32.2438 24.6951C31.7843 24.712 31.3428 24.8776 30.9855 25.1669L30.199 25.0096C29.8765 24.87 29.5166 24.8423 29.1766 24.931C28.4688 25.2456 28.7833 26.0321 29.0193 26.268C29.2552 26.5039 30.5136 26.1894 30.5922 26.1894C30.6999 27.1924 30.5083 28.2049 30.0417 29.0993C29.8058 29.5712 28.862 30.9082 28.4688 31.4587C29.5996 30.7464 30.9073 30.365 32.2438 30.3577Z" fill="url(#paint21_linear_959_34780)"/>
<path id="Vector_98" d="M32.2435 24.3805L33.6592 24.7737C34.0537 24.8263 34.4548 24.7996 34.8389 24.6951C34.858 24.4821 34.8312 24.2676 34.7602 24.0659C34.4225 24.244 34.0334 24.2996 33.6592 24.2232C33.1763 24.1357 32.7024 24.004 32.2435 23.8299C31.4571 23.6726 30.5919 23.6726 30.2773 24.6164H30.7492C30.9615 24.4609 31.2079 24.3583 31.4678 24.3173C31.7277 24.2762 31.9937 24.2979 32.2435 24.3805Z" fill="#FFF4CD"/>
<path id="Vector_99" d="M29.1769 25.5604C29.5436 25.4763 29.927 25.5037 30.278 25.6391L31.0644 25.875C31.3553 25.4117 31.7619 25.0322 32.2441 24.774C31.9148 24.7723 31.5902 24.8534 31.3004 25.0099L30.9858 25.2458L30.4353 25.0885C30.0406 24.905 29.5913 24.8769 29.1769 25.0099C29.0905 25.0355 29.0106 25.0794 28.9427 25.1385C28.8747 25.1977 28.8202 25.2707 28.783 25.3528C28.7457 25.4348 28.7264 25.5239 28.7266 25.614C28.7267 25.7041 28.7462 25.7931 28.7837 25.875C28.8806 25.7335 29.0175 25.624 29.1769 25.5604Z" fill="#FFF4CD"/>
</g>
<g id="letter">
<path id="Vector_100" d="M73.4548 14.0439V17.819H68.5V20.5717H70.6235L70.4662 20.8076C70.0774 21.5636 69.8639 22.3974 69.8413 23.2472C69.8188 24.0969 69.9879 24.9409 70.336 25.7164C70.6842 26.4919 71.2025 27.1791 71.8525 27.7269C72.5024 28.2748 73.2674 28.6693 74.0907 28.8812C74.9139 29.093 75.7743 29.1168 76.608 28.9508C77.4417 28.7848 78.2273 28.4331 78.9066 27.922C79.5858 27.4109 80.1413 26.7535 80.5318 25.9984C80.9223 25.2433 81.1378 24.41 81.1622 23.5603C81.1437 22.59 80.8727 21.6412 80.3758 20.8076V20.5717H82.1847V17.819H77.5445V14.0439H73.4548ZM73.6121 23.5603C73.6121 21.83 74.3986 20.5717 75.4996 20.5717C76.6007 20.5717 77.3085 21.9087 77.3085 23.5603C77.3085 25.2119 76.522 26.5489 75.4996 26.5489C74.4772 26.5489 73.6121 25.2119 73.6121 23.5603Z" fill="white"/>
<path id="Vector_101" d="M88.3196 14.5156V22.1444H86.5107V14.5156H83.1289V39.8401H86.5107V25.0544H88.3196V39.8401H91.7015V14.5156H88.3196Z" fill="white"/>
<path id="Vector_102" d="M112.857 14.5156V27.9643H116.79V25.133H120.408V22.459H116.79V20.0996H120.408V17.5042H116.79V14.5156H112.857Z" fill="white"/>
<path id="Vector_103" d="M102.869 34.6496C102.869 37.8741 105.858 40.5481 109.476 40.5481C113.093 40.5481 116.161 37.8741 116.161 34.6496C116.161 31.425 113.172 28.6724 109.476 28.6724C105.779 28.6724 102.869 31.3464 102.869 34.6496ZM106.723 34.6496C106.799 34.1095 107.029 33.6029 107.386 33.1905C107.743 32.7781 108.211 32.4776 108.735 32.325C109.258 32.1725 109.815 32.1743 110.337 32.3304C110.86 32.4865 111.326 32.7902 111.68 33.205C112.034 33.6198 112.261 34.128 112.333 34.6685C112.405 35.2091 112.32 35.759 112.087 36.2521C111.854 36.7452 111.484 37.1607 111.021 37.4484C110.557 37.7361 110.021 37.884 109.476 37.8741C109.083 37.8443 108.699 37.7371 108.348 37.5587C107.997 37.3803 107.684 37.1341 107.428 36.8344C107.173 36.5348 106.979 36.1874 106.857 35.8125C106.736 35.4375 106.691 35.0423 106.723 34.6496Z" fill="white"/>
<path id="Vector_104" d="M97.4414 21.201C97.4414 24.4255 100.273 27.0995 103.812 27.0995C105.426 27.1421 106.991 26.5467 108.169 25.4425C109.347 24.3383 110.042 22.8143 110.104 21.201C110.042 19.5877 109.347 18.0637 108.169 16.9595C106.991 15.8552 105.426 15.2599 103.812 15.3024C100.273 15.3024 97.4414 17.9764 97.4414 21.201ZM101.216 21.201C101.216 19.4707 102.396 18.0551 103.812 18.0551C105.228 18.0551 106.407 19.4707 106.407 21.201C106.407 22.9312 105.149 24.3469 103.812 24.3469C102.475 24.3469 101.216 22.8526 101.216 21.201Z" fill="white"/>
<path id="Vector_105" d="M131.26 34.6495C131.26 37.9527 134.17 40.5481 137.788 40.5481C141.405 40.5481 144.237 37.9527 144.237 34.6495C144.237 31.3463 141.327 28.8296 137.788 28.8296C134.248 28.8296 131.26 31.425 131.26 34.6495ZM135.113 34.6495C135.113 32.9193 136.215 31.5822 137.788 31.5822C138.167 31.602 138.538 31.6977 138.879 31.8639C139.221 32.03 139.525 32.263 139.775 32.5492C140.024 32.8353 140.213 33.1687 140.331 33.5296C140.449 33.8904 140.494 34.2712 140.462 34.6495C140.462 36.4584 139.282 37.7954 137.788 37.7954C136.293 37.7954 135.113 36.4584 135.113 34.6495Z" fill="white"/>
<path id="Vector_106" d="M141.248 14.5156V18.2121H136.765V15.6953H125.991V18.3693H132.676V18.8412C132.715 19.7052 132.567 20.5675 132.241 21.3686C131.915 22.1697 131.42 22.8906 130.788 23.4814C129.315 24.9346 127.411 25.8726 125.361 26.1554L127.17 28.3576C129.213 28.0175 131.128 27.1385 132.718 25.8113C134.308 24.4841 135.515 22.7567 136.215 20.8074H141.248V22.7736H136.372V25.369H141.248V28.1216H145.102V14.5156H141.248Z" fill="white"/>
<path id="Vector_107" d="M185.135 34.4923C185.135 37.7169 188.045 40.3122 191.584 40.3122C195.123 40.3122 198.112 37.7169 198.112 34.4923C198.112 31.2678 195.202 28.5938 191.584 28.5938C187.966 28.5938 185.135 31.2678 185.135 34.4923ZM188.988 34.4923C188.988 32.6834 190.09 31.3464 191.584 31.3464C191.973 31.3662 192.355 31.464 192.706 31.634C193.057 31.8041 193.37 32.043 193.626 32.3364C193.883 32.6299 194.078 32.9719 194.2 33.3423C194.322 33.7126 194.369 34.1037 194.337 34.4923C194.369 34.8769 194.322 35.2641 194.199 35.63C194.076 35.9959 193.88 36.3329 193.622 36.6201C193.365 36.9074 193.051 37.1389 192.7 37.3005C192.35 37.462 191.97 37.5502 191.584 37.5596C190.09 37.5596 188.988 36.2226 188.988 34.4923Z" fill="white"/>
<path id="Vector_108" d="M195.673 14.5156V19.785H192.842V22.6163H195.673V28.043H199.527V14.5156H195.673Z" fill="white"/>
<path id="Vector_109" d="M184.27 14.0439V17.1112H179.944V19.8639H184.191V20.0211C184.191 22.066 182.146 25.2905 179.236 25.6051L180.809 27.4927L181.124 27.9645C183.226 27.2998 184.979 25.8293 186 23.8749C186 23.7962 186.079 23.6389 186.315 23.6389C186.377 23.6389 186.437 23.6638 186.481 23.708C186.526 23.7523 186.551 23.8123 186.551 23.8749C187.416 25.7624 190.011 27.5713 191.112 27.6499C191.112 27.5713 192.842 25.5265 192.842 25.5265C192.842 25.5265 191.427 25.1332 190.09 23.8749C189.558 23.3808 189.131 22.7852 188.834 22.1233C188.537 21.4614 188.376 20.7466 188.359 20.0211V19.8639H192.292V17.1112H188.281V14.0439H184.27Z" fill="white"/>
<path id="Vector_110" d="M167.596 14.5156V28.043H171.449V22.3804H174.674V19.5491H171.449V14.5156H167.596Z" fill="white"/>
<path id="Vector_111" d="M156.271 14.0439V17.1112H151.71V19.8639H156.193V20.0211C156.098 21.4058 155.531 22.716 154.586 23.7325C153.641 24.749 152.376 25.4101 151.002 25.6051C151.391 26.0047 151.759 26.4248 152.103 26.8635L152.889 27.7286C153.96 27.4716 154.967 26.9968 155.847 26.3338C156.726 25.6708 157.46 24.8338 158.002 23.8749C158.08 23.7962 158.159 23.6389 158.316 23.6389L158.552 23.8749C159.732 25.9984 162.406 27.5713 163.586 27.6499L165.552 25.5265C164.236 25.4154 163.005 24.8282 162.091 23.8749C161.553 23.3866 161.121 22.7922 160.823 22.129C160.525 21.4658 160.368 20.7481 160.361 20.0211V19.8639H164.844V17.1112H160.282V14.0439H156.271Z" fill="white"/>
<path id="Vector_112" d="M155.248 29.459V31.6611H167.517V33.47H155.248V37.6383C155.248 39.2899 155.72 39.8404 157.293 39.8404H171.764V37.5597H159.574C159.469 37.5597 159.369 37.5182 159.296 37.4445C159.222 37.3707 159.18 37.2707 159.18 37.1664V35.6721H171.056C171.16 35.6721 171.26 35.6307 171.334 35.557C171.408 35.4832 171.449 35.3832 171.449 35.2789V29.6163C171.449 29.459 171.371 29.459 171.292 29.459H155.248Z" fill="white"/>
<path id="Vector_113" d="M68.8145 45.1885H70.8593V49.5927L73.6119 45.1885H75.9714L72.9041 49.6714L76.3646 54.8621H73.7692L70.8593 49.8287V54.8621H68.8145V45.1885Z" fill="white"/>
<path id="Vector_114" d="M80.4541 45.0309C82.9708 45.0309 84.6224 46.9184 84.6224 49.9857C84.6224 53.0529 83.836 53.7608 82.4203 54.5472C81.8231 54.8882 81.1411 55.0519 80.4541 55.0191C79.8609 55.066 79.2651 54.9689 78.7174 54.7361C78.1697 54.5033 77.6862 54.1417 77.3082 53.6821C76.5593 52.6271 76.173 51.3576 76.2072 50.0643C76.2072 47.9408 76.9936 46.2893 78.4093 45.5028C79.0395 45.1737 79.7434 45.0112 80.4541 45.0309ZM80.3755 46.5252C80.0725 46.5259 79.7749 46.6062 79.5127 46.758C79.2505 46.9099 79.0327 47.1279 78.8812 47.3903C78.5235 48.2344 78.3622 49.1488 78.4093 50.0643C78.4093 51.7159 78.7239 52.7383 79.2744 53.2102C79.6219 53.4429 80.0369 53.5535 80.4541 53.5248C81.7911 53.5248 82.3417 52.5024 82.3417 50.0643C82.3674 49.2969 82.2881 48.5295 82.1057 47.7836C81.9785 47.4234 81.745 47.1102 81.4361 46.8856C81.1272 46.6609 80.7573 46.5352 80.3755 46.5252Z" fill="white"/>
<path id="Vector_115" d="M85.8809 45.1885H89.4986C89.8764 45.1656 90.2548 45.2231 90.6087 45.3572C90.9626 45.4914 91.284 45.6992 91.5517 45.9668C91.8193 46.2344 92.0271 46.5558 92.1612 46.9097C92.2954 47.2637 92.3529 47.642 92.3299 48.0198C92.3299 49.4355 91.3862 50.6938 90.2065 50.6938L90.5997 51.0871C91.1502 51.7949 92.9591 54.8622 92.9591 54.8622H90.5997L89.7346 53.2892C88.7908 51.559 88.4762 51.0871 88.083 50.9298H87.847V54.9408H85.8809V45.1885ZM87.847 46.7615V49.3568H88.4762C89.3413 49.3568 89.6559 49.2782 89.8919 49.0422C90.1428 48.7922 90.2842 48.4527 90.2851 48.0985C90.3105 47.8414 90.2563 47.5828 90.1296 47.3577C90.003 47.1326 89.8102 46.9519 89.5773 46.8401H87.847V46.7615Z" fill="white"/>
<path id="Vector_116" d="M93.9824 45.1885H99.4877L99.2518 46.7614H95.87V49.0422H98.7013V50.6152H95.9486V53.2105H99.5664V54.8621H93.9824V45.1885Z" fill="white"/>
<path id="Vector_117" d="M103.262 45.1099H105.385L108.374 54.8621H106.329L105.621 52.5814H102.79L102.082 54.8621H100.037L103.262 45.1099ZM103.262 50.9298H105.149C105.149 50.9298 104.835 49.9074 104.599 48.9636L104.205 47.312L103.812 49.1209C103.576 49.8287 103.498 50.3006 103.262 50.9298Z" fill="white"/>
<path id="Vector_118" d="M120.092 45.7387L119.227 47.0757C118.815 46.7122 118.282 46.5159 117.732 46.5252C117.406 46.5141 117.082 46.588 116.792 46.7396C116.503 46.8913 116.258 47.1155 116.081 47.3903C115.652 48.1276 115.46 48.9785 115.53 49.8284C115.437 50.7129 115.572 51.6066 115.924 52.4238C116.102 52.767 116.374 53.0527 116.708 53.2476C117.042 53.4425 117.425 53.5386 117.811 53.5248C118.32 53.5143 118.813 53.3497 119.227 53.0529L119.463 52.8956L120.328 54.154C119.573 54.7619 118.621 55.07 117.654 55.0191C117.061 55.0595 116.467 54.9594 115.921 54.7271C115.374 54.4948 114.89 54.1367 114.508 53.6821C113.688 52.7212 113.266 51.4833 113.328 50.2216C113.268 49.1872 113.485 48.1555 113.957 47.233C114.304 46.5498 114.833 45.9755 115.485 45.5731C116.137 45.1708 116.888 44.9559 117.654 44.9523C118.535 44.9083 119.402 45.188 120.092 45.7387Z" fill="white"/>
<path id="Vector_119" d="M124.891 45.031C127.486 45.031 129.059 46.9186 129.059 49.9858C129.059 53.0531 128.352 53.7609 126.936 54.5474C126.332 54.87 125.655 55.0324 124.97 55.0192C124.376 55.0729 123.778 54.979 123.229 54.7457C122.68 54.5124 122.197 54.1471 121.824 53.6822C121.075 52.6272 120.689 51.3578 120.723 50.0644C120.723 47.941 121.509 46.2894 122.925 45.5029C123.529 45.1803 124.206 45.0178 124.891 45.031ZM124.891 46.5253C124.588 46.526 124.291 46.6063 124.028 46.7582C123.766 46.91 123.548 47.128 123.397 47.3904C123.001 48.2229 122.838 49.1469 122.925 50.0644C122.925 51.716 123.161 52.7385 123.79 53.2103C124.104 53.4498 124.498 53.5621 124.891 53.5249C126.228 53.5249 126.857 52.5025 126.857 50.0644C126.883 49.297 126.804 48.5296 126.621 47.7837C126.494 47.4235 126.261 47.1104 125.952 46.8857C125.643 46.661 125.273 46.5353 124.891 46.5253Z" fill="white"/>
<path id="Vector_120" d="M132.363 45.1099H134.486L137.553 54.8621H135.43L134.801 52.5814H131.891L131.262 54.8621H129.217L132.363 45.1099ZM132.363 50.9298H134.329C134.329 50.9298 134.014 49.9074 133.778 48.9636L133.385 47.312C133.385 47.312 133.071 48.4131 132.913 49.1209C132.777 49.7372 132.593 50.342 132.363 50.9298Z" fill="white"/>
<path id="Vector_121" d="M145.102 45.896L144.158 47.233C143.471 46.8054 142.686 46.5616 141.878 46.5251C141.717 46.5032 141.553 46.5148 141.396 46.5592C141.24 46.6037 141.094 46.68 140.968 46.7834C140.843 46.8868 140.74 47.015 140.666 47.1601C140.593 47.3051 140.55 47.4638 140.541 47.6262C140.541 48.0981 140.777 48.4127 141.642 48.57L142.743 48.9632C144.394 49.3564 145.26 50.3789 145.26 51.7945C145.26 53.2102 143.608 55.0977 141.249 55.0977C140.092 55.0897 138.957 54.7923 137.945 54.2326L138.653 52.6596C139.458 53.1571 140.381 53.4287 141.327 53.4461C142.428 53.4461 142.979 52.9742 142.979 52.1091C142.979 51.244 142.586 51.0867 141.72 50.8507L140.698 50.6148C139.917 50.4357 139.222 49.991 138.732 49.3564C138.472 48.9014 138.336 48.3861 138.339 47.8621C138.339 46.1319 139.754 44.8735 141.799 44.8735C142.978 44.8767 144.128 45.2328 145.102 45.896Z" fill="white"/>
<path id="Vector_122" d="M145.889 45.1885H152.888L152.574 46.7614H150.214V54.8621H148.248V46.7614H145.889V45.1885Z" fill="white"/>
<path id="Vector_123" d="M165.866 46.1323L164.844 47.3907C164.291 46.8721 163.557 46.59 162.799 46.6042C162.309 46.5818 161.83 46.751 161.462 47.0761C160.754 47.7053 160.597 48.7277 160.597 50.222C160.597 51.7163 160.833 52.5028 161.383 52.9746C161.791 53.345 162.327 53.5424 162.878 53.5252C163.258 53.5307 163.634 53.45 163.979 53.2892V51.0871H162.485L162.249 49.5141H166.024V54.0757C165.051 54.6605 163.934 54.9603 162.799 54.9408C162.176 54.9843 161.551 54.8786 160.976 54.6324C160.402 54.3862 159.894 54.0066 159.496 53.5252C158.748 52.5596 158.359 51.3641 158.395 50.1433C158.395 48.0985 159.103 46.6042 160.44 45.7391C161.132 45.2615 161.958 45.0139 162.799 45.0312C163.922 45.0081 165.014 45.4001 165.866 46.1323Z" fill="white"/>
<path id="Vector_124" d="M167.596 45.1885H169.562V51.5589C169.505 51.9591 169.559 52.3673 169.719 52.7386C169.868 52.9504 170.07 53.1197 170.304 53.23C170.539 53.3403 170.798 53.3878 171.056 53.3678C171.921 53.3678 172.472 52.9746 172.55 52.2667V45.1885H174.517V51.7162C174.58 52.2198 174.526 52.7311 174.359 53.2105C174.123 53.997 173.18 55.0194 171.056 55.0194C168.933 55.0194 168.539 54.6262 167.989 53.761C167.664 53.217 167.526 52.5818 167.596 51.9522V45.1885Z" fill="white"/>
<path id="Vector_125" d="M178.529 45.1099H180.652L183.719 54.8621H181.596L180.888 52.5814H178.057L177.349 54.8621H175.383L178.529 45.1099ZM178.529 50.9298H180.416C180.222 50.2839 180.064 49.6274 179.944 48.9636C179.782 48.4209 179.651 47.8695 179.551 47.312C179.551 47.312 179.237 48.4131 179.079 49.1209C178.922 49.8287 178.765 50.3006 178.529 50.9298Z" fill="white"/>
<path id="Vector_126" d="M184.584 45.1882H188.202C188.586 45.1534 188.973 45.2021 189.336 45.3309C189.7 45.4598 190.031 45.6658 190.308 45.9347C190.584 46.2037 190.799 46.5292 190.938 46.8891C191.077 47.2489 191.136 47.6345 191.112 48.0195C191.112 49.4351 190.089 50.6935 188.91 50.6935C189.077 50.7821 189.214 50.9191 189.303 51.0867C189.853 51.7945 191.662 54.8618 191.662 54.8618H189.381L188.438 53.2888C187.494 51.5586 187.179 51.0867 186.865 50.9294H186.55V54.9404H184.584V45.1882ZM186.55 46.7611V49.3565H187.179C187.699 49.4332 188.229 49.3216 188.674 49.0419C188.787 48.9142 188.874 48.7647 188.928 48.6024C188.982 48.4401 189.003 48.2685 188.988 48.0981C189.011 47.8506 188.964 47.6018 188.853 47.3795C188.741 47.1572 188.571 46.9703 188.359 46.8397H186.55V46.7611Z" fill="white"/>
<path id="Vector_127" d="M192.92 45.2671H196.538C196.942 45.2891 197.337 45.3907 197.702 45.5662C198.066 45.7417 198.392 45.9875 198.661 46.2895C199.605 47.1546 199.998 48.3343 199.998 50.1432C200.023 51.3142 199.694 52.4654 199.054 53.4464C198.771 53.8167 198.417 54.1259 198.011 54.3557C197.606 54.5854 197.158 54.7309 196.695 54.7834H192.92V45.2671ZM194.886 46.7614V53.2891H195.987C197.246 53.2891 197.796 52.3454 197.796 50.3005C197.874 49.3578 197.712 48.4106 197.324 47.5479C197.169 47.2945 196.948 47.0876 196.685 46.9492C196.422 46.8108 196.127 46.7459 195.83 46.7614H194.886Z" fill="white"/>
</g>
</g>
<defs>
<radialGradient id="paint0_radial_959_34780" cx="0" cy="0" r="1" gradientUnits="userSpaceOnUse" gradientTransform="translate(22.4466 12.0551) scale(33.6233 33.6234)">
<stop stop-color="#FEE7A9"/>
<stop offset="0.46" stop-color="#FFD900"/>
<stop offset="1" stop-color="#E49D00"/>
</radialGradient>
<linearGradient id="paint1_linear_959_34780" x1="23.7106" y1="15.2338" x2="34.4538" y2="28.7061" gradientUnits="userSpaceOnUse">
<stop stop-color="#002F82"/>
<stop offset="1" stop-color="#001A60"/>
</linearGradient>
<linearGradient id="paint2_linear_959_34780" x1="22.39" y1="37.5776" x2="19.3385" y2="18.482" gradientUnits="userSpaceOnUse">
<stop stop-color="#CA8200"/>
<stop offset="0.3" stop-color="#E1A504"/>
<stop offset="1" stop-color="#CA8200"/>
</linearGradient>
<linearGradient id="paint3_linear_959_34780" x1="26.9107" y1="54.5106" x2="-2.46416" y2="-14.4239" gradientUnits="userSpaceOnUse">
<stop stop-color="#FEDA5D"/>
<stop offset="1" stop-color="#996100"/>
</linearGradient>
<linearGradient id="paint4_linear_959_34780" x1="22.2323" y1="36.5001" x2="25.622" y2="36.5001" gradientUnits="userSpaceOnUse">
<stop stop-color="#FEE7A9"/>
<stop offset="0.46" stop-color="#FFD900"/>
<stop offset="1" stop-color="#E49D00"/>
</linearGradient>
<linearGradient id="paint5_linear_959_34780" x1="19.5177" y1="34.2744" x2="27.351" y2="34.2744" gradientUnits="userSpaceOnUse">
<stop stop-color="#FEE7A9"/>
<stop offset="0.46" stop-color="#FFD900"/>
<stop offset="1" stop-color="#E49D00"/>
</linearGradient>
<linearGradient id="paint6_linear_959_34780" x1="4.26182" y1="25.9694" x2="20.8722" y2="25.9694" gradientUnits="userSpaceOnUse">
<stop stop-color="#FEE7A9"/>
<stop offset="0.46" stop-color="#FFD900"/>
<stop offset="1" stop-color="#E49D00"/>
</linearGradient>
<linearGradient id="paint7_linear_959_34780" x1="1.10664" y1="16.5865" x2="32.0937" y2="33.1969" gradientUnits="userSpaceOnUse">
<stop stop-color="#FEE7A9"/>
<stop offset="0.46" stop-color="#FFD900"/>
<stop offset="1" stop-color="#E49D00"/>
</linearGradient>
<linearGradient id="paint8_linear_959_34780" x1="10.1681" y1="31.4513" x2="23.5303" y2="31.4513" gradientUnits="userSpaceOnUse">
<stop stop-color="#FEE7A9"/>
<stop offset="0.46" stop-color="#FFD900"/>
<stop offset="1" stop-color="#E49D00"/>
</linearGradient>
<linearGradient id="paint9_linear_959_34780" x1="15.4607" y1="33.268" x2="25.5827" y2="33.268" gradientUnits="userSpaceOnUse">
<stop stop-color="#FEE7A9"/>
<stop offset="0.46" stop-color="#FFD900"/>
<stop offset="1" stop-color="#E49D00"/>
</linearGradient>
<linearGradient id="paint10_linear_959_34780" x1="42.3194" y1="36.5001" x2="38.9297" y2="36.5001" gradientUnits="userSpaceOnUse">
<stop stop-color="#FEE7A9"/>
<stop offset="0.46" stop-color="#FFD900"/>
<stop offset="1" stop-color="#E49D00"/>
</linearGradient>
<linearGradient id="paint11_linear_959_34780" x1="45.0325" y1="34.2744" x2="37.1992" y2="34.2744" gradientUnits="userSpaceOnUse">
<stop stop-color="#FEE7A9"/>
<stop offset="0.46" stop-color="#FFD900"/>
<stop offset="1" stop-color="#E49D00"/>
</linearGradient>
<linearGradient id="paint12_linear_959_34780" x1="60.2902" y1="25.9694" x2="43.6799" y2="25.9694" gradientUnits="userSpaceOnUse">
<stop stop-color="#FEE7A9"/>
<stop offset="0.46" stop-color="#FFD900"/>
<stop offset="1" stop-color="#E49D00"/>
</linearGradient>
<linearGradient id="paint13_linear_959_34780" x1="63.4362" y1="16.5865" x2="32.4569" y2="33.1968" gradientUnits="userSpaceOnUse">
<stop stop-color="#FEE7A9"/>
<stop offset="0.46" stop-color="#FFD900"/>
<stop offset="1" stop-color="#E49D00"/>
</linearGradient>
<linearGradient id="paint14_linear_959_34780" x1="54.3835" y1="31.4513" x2="41.0213" y2="31.4513" gradientUnits="userSpaceOnUse">
<stop stop-color="#FEE7A9"/>
<stop offset="0.46" stop-color="#FFD900"/>
<stop offset="1" stop-color="#E49D00"/>
</linearGradient>
<linearGradient id="paint15_linear_959_34780" x1="49.0904" y1="33.268" x2="38.9685" y2="33.268" gradientUnits="userSpaceOnUse">
<stop stop-color="#FEE7A9"/>
<stop offset="0.46" stop-color="#FFD900"/>
<stop offset="1" stop-color="#E49D00"/>
</linearGradient>
<linearGradient id="paint16_linear_959_34780" x1="32.2603" y1="30.6251" x2="32.2603" y2="43.9479" gradientUnits="userSpaceOnUse">
<stop stop-color="#FEE7A9"/>
<stop offset="0.46" stop-color="#FFD900"/>
<stop offset="1" stop-color="#E49D00"/>
</linearGradient>
<radialGradient id="paint17_radial_959_34780" cx="0" cy="0" r="1" gradientUnits="userSpaceOnUse" gradientTransform="translate(32.2443 37.3982) scale(4.32875)">
<stop stop-color="#036EB8"/>
<stop offset="0.57" stop-color="#003894"/>
</radialGradient>
<linearGradient id="paint18_linear_959_34780" x1="31.5202" y1="37.8135" x2="35.8144" y2="38.9775" gradientUnits="userSpaceOnUse">
<stop stop-color="#FEE7A9"/>
<stop offset="0.46" stop-color="#FFD900"/>
<stop offset="1" stop-color="#E49D00"/>
</linearGradient>
<radialGradient id="paint19_radial_959_34780" cx="0" cy="0" r="1" gradientUnits="userSpaceOnUse" gradientTransform="translate(32.8281 38.0277) scale(5.97721 5.9772)">
<stop stop-color="#036EB8"/>
<stop offset="0.57" stop-color="#003894"/>
</radialGradient>
<radialGradient id="paint20_radial_959_34780" cx="0" cy="0" r="1" gradientUnits="userSpaceOnUse" gradientTransform="translate(32.1749 37.587) scale(3.80024)">
<stop stop-color="#E6002D"/>
<stop offset="0.22" stop-color="#DB032B"/>
<stop offset="0.6" stop-color="#BE0C24"/>
<stop offset="1" stop-color="#99161C"/>
</radialGradient>
<linearGradient id="paint21_linear_959_34780" x1="32.2832" y1="24.2153" x2="32.2832" y2="31.6475" gradientUnits="userSpaceOnUse">
<stop stop-color="#FEE7A9"/>
<stop offset="0.46" stop-color="#FFD900"/>
<stop offset="1" stop-color="#E49D00"/>
</linearGradient>
</defs>
</svg>
