<?xml version="1.0" encoding="UTF-8"?>
<svg width="24" height="24" viewBox="0 0 24 24" fill="none" xmlns="http://www.w3.org/2000/svg">
<path d="M17.2073 0.767136C17.2073 0.767136 17.1905 0.741565 17.1905 0.724518V0.406298C17.1905 0.389251 17.1849 0.375044 17.1736 0.363679L16.8307 0.0170475C16.8307 0.0170475 16.8054 0 16.7885 0H16.4765C16.4597 0 16.4456 0.00568247 16.4344 0.0170475L16.0577 0.397774C16.0577 0.397774 16.0409 0.423346 16.0409 0.440393V1.35527C16.0409 1.41494 16.0184 1.47177 15.9762 1.51438C15.9341 1.557 15.8778 1.57973 15.8188 1.57973H15.7598C15.7429 1.57973 15.7289 1.57405 15.7176 1.56268L15.5518 1.39505C15.5518 1.39505 15.5265 1.378 15.5096 1.378H15.2904C15.2735 1.378 15.2595 1.38369 15.2482 1.39505L15.0065 1.6394C15.0065 1.6394 14.9896 1.66497 14.9896 1.68202V2.14798C14.9896 2.16503 14.984 2.17924 14.9728 2.1906L14.5174 2.65088C14.5174 2.65088 14.4921 2.66793 14.4752 2.66793H13.7894C13.7725 2.66793 13.7585 2.66225 13.7472 2.65088L13.6236 2.52587C13.6236 2.52587 13.5983 2.50882 13.5814 2.50882H13.0783C13.0614 2.50882 13.0474 2.5145 13.0361 2.52587L12.8478 2.71623C12.8478 2.71623 12.8309 2.7418 12.8309 2.75885V3.36119C12.8309 3.37824 12.8365 3.39245 12.8478 3.40381L13.1963 3.75613C13.2525 3.81295 13.2525 3.90671 13.1963 3.96638L12.8871 4.27892C12.8309 4.33574 12.7382 4.33574 12.6791 4.27892L12.2912 3.88682C12.2912 3.88682 12.2659 3.86978 12.2491 3.86978H11.3749C11.3581 3.86978 11.344 3.86409 11.3328 3.85273L10.6722 3.18504C10.6272 3.13958 10.5654 3.11116 10.4979 3.11116C10.4305 3.11116 10.3715 3.13673 10.3237 3.18219C10.1831 3.32426 9.87114 3.63964 9.79524 3.71635C9.784 3.72771 9.77838 3.74192 9.77838 3.75897V4.07435C9.77838 4.09139 9.77276 4.1056 9.76151 4.11696L8.74962 5.13981C8.74962 5.13981 8.73276 5.16538 8.73276 5.18243V5.48929C8.73276 5.50633 8.72714 5.52054 8.71589 5.5319L8.60346 5.64555C8.60346 5.64555 8.57816 5.6626 8.5613 5.6626H8.27459C8.25773 5.6626 8.24368 5.66828 8.23243 5.67965L7.86984 6.04617C7.86984 6.04617 7.84454 6.06322 7.82768 6.06322H7.13341C7.11654 6.06322 7.10249 6.0689 7.09124 6.08026L6.31546 6.86445C6.31546 6.86445 6.29016 6.8815 6.2733 6.8815H5.85449C5.83762 6.8815 5.82357 6.88718 5.81232 6.89854L5.01686 7.70262C5.01686 7.70262 5 7.72819 5 7.74523V8.22825C5 8.24529 5.00562 8.2595 5.01686 8.27087L5.71395 8.97549C5.76173 9.0238 5.84605 8.9897 5.84605 8.92151V8.71694C5.84605 8.68285 5.87135 8.65727 5.90508 8.65727H6.11027C6.12714 8.65727 6.14119 8.66296 6.15243 8.67432L6.74551 9.27382C6.768 9.29655 6.80454 9.29655 6.82984 9.27382L6.93384 9.1687C6.95632 9.14597 6.99286 9.14597 7.01816 9.1687L7.15027 9.30224C7.17276 9.32497 7.2093 9.32497 7.23459 9.30224L7.43135 9.10335C7.45384 9.08062 7.49038 9.08062 7.51568 9.10335C7.53816 9.12608 7.53816 9.16302 7.51568 9.18859L7.24022 9.46703C7.24022 9.46703 7.22335 9.4926 7.22335 9.50965V9.61761C7.22335 9.65171 7.24865 9.67728 7.28238 9.67728H7.33578C7.36951 9.67728 7.39481 9.70285 7.39481 9.73695V9.8506C7.39481 9.86764 7.38919 9.88185 7.37795 9.89322L7.2093 10.0637C7.2093 10.0637 7.19243 10.0893 7.19243 10.1063V10.2711C7.19243 10.2881 7.18681 10.3024 7.17557 10.3137L6.78486 10.7087C6.78486 10.7087 6.768 10.7342 6.768 10.7513V10.9985C6.768 11.0155 6.77362 11.0297 6.78486 11.0411L7.03784 11.2968C7.03784 11.2968 7.06313 11.3138 7.08 11.3138H7.31611C7.33297 11.3138 7.34703 11.3082 7.35827 11.2968L7.40324 11.2513C7.42573 11.2286 7.46227 11.2286 7.48757 11.2513L7.86141 11.6292C7.89513 11.6633 7.89513 11.7173 7.86141 11.7514C7.82768 11.7855 7.77427 11.7855 7.74054 11.7514L7.54941 11.5582C7.50443 11.5127 7.44259 11.4872 7.37795 11.4872H6.90011C6.83546 11.4872 6.77362 11.5127 6.72865 11.5582L6.60778 11.6804C6.56843 11.7201 6.54595 11.777 6.54595 11.8338V12.1122C6.54595 12.1293 6.54032 12.1435 6.52908 12.1548L5.86573 12.8254C5.86573 12.8254 5.84886 12.851 5.84886 12.868V12.9589C5.84886 13.0157 5.89665 13.064 5.95286 13.064H6.77643C6.7933 13.064 6.80735 13.0697 6.81859 13.0811L6.95913 13.2232C6.98724 13.2516 6.98724 13.297 6.95913 13.3254C6.93103 13.3539 6.88605 13.3539 6.85795 13.3254L6.80454 13.2715C6.76238 13.2288 6.69492 13.2288 6.65276 13.2715L6.54876 13.3766C6.50659 13.4192 6.50659 13.4874 6.54876 13.53L6.81016 13.7942C6.81016 13.7942 6.83546 13.8113 6.85232 13.8113H7.10249C7.11935 13.8113 7.13341 13.8056 7.14465 13.7942L7.27957 13.6579C7.31611 13.6209 7.37232 13.6209 7.40886 13.6579C7.44541 13.6976 7.44541 13.7573 7.40886 13.7942C7.34703 13.8539 7.2627 13.942 7.22616 13.9789C7.21492 13.9903 7.20086 13.996 7.184 13.996H7.0294C6.97038 13.996 6.92259 14.0443 6.92259 14.1039C6.92259 14.1636 6.97038 14.2119 7.0294 14.2119H7.42854C7.44541 14.2119 7.45946 14.2062 7.4707 14.1949L7.95416 13.7062C7.97665 13.6834 7.97665 13.6465 7.95416 13.6209L7.74616 13.4135C7.70962 13.3766 7.70962 13.3198 7.74616 13.2828C7.7827 13.243 7.84454 13.243 7.88108 13.2828C7.9907 13.3936 8.20714 13.6124 8.26897 13.6749C8.28022 13.6863 8.28584 13.7005 8.28584 13.7175V13.7744V13.959C8.28584 13.9875 8.29708 14.013 8.31676 14.0329L8.55568 14.2744C8.57535 14.2943 8.60065 14.3057 8.62876 14.3057H8.78054C8.80865 14.3057 8.83395 14.317 8.85362 14.3369L9.33989 14.8285C9.35957 14.8483 9.37081 14.8739 9.37081 14.9023V15.1438C9.37081 15.2007 9.32584 15.249 9.26681 15.249H9.12627C9.07005 15.249 9.02227 15.2944 9.02227 15.3541V15.6212C9.02227 15.6496 9.03351 15.6752 9.05319 15.695L9.51697 16.1638C9.57038 16.2178 9.57038 16.3059 9.51697 16.3599C9.46357 16.4139 9.37643 16.4139 9.32303 16.3599L8.92389 15.9564C8.90422 15.9365 8.87892 15.9252 8.85081 15.9252H8.58941C8.53319 15.9252 8.48541 15.9706 8.48541 16.0303V16.3031C8.48541 16.3315 8.47416 16.357 8.45449 16.3769L8.37297 16.4593C8.3533 16.4792 8.328 16.4906 8.29989 16.4906H8.09751C8.0413 16.4906 7.99351 16.536 7.99351 16.5957V16.9083C7.99351 16.9651 8.03849 17.0134 8.09751 17.0134H8.14249C8.1987 17.0134 8.24649 17.0588 8.24649 17.1185V17.7294C8.24649 17.7862 8.29146 17.8345 8.35049 17.8345C8.4067 17.8345 8.45449 17.789 8.45449 17.7294V17.664C8.45449 17.5703 8.56692 17.5248 8.63157 17.5902L8.88454 17.8459C8.90422 17.8657 8.91546 17.8913 8.91546 17.9197V18.7409C8.91546 18.7693 8.9267 18.7948 8.94638 18.8147L9.27243 19.1443C9.29211 19.1642 9.30335 19.1898 9.30335 19.2182V19.525C9.30335 19.5819 9.25838 19.6302 9.19935 19.6302H9.0813C9.05319 19.6302 9.02789 19.6415 9.00822 19.6614L8.744 19.9285C8.72432 19.9484 8.71308 19.974 8.71308 20.0024V20.1956C8.71308 20.224 8.72432 20.2496 8.744 20.2694L8.83957 20.366C8.87892 20.4058 8.87892 20.474 8.83957 20.5138L8.54162 20.815C8.52195 20.8349 8.5107 20.8604 8.5107 20.8888V21.4429C8.5107 21.4713 8.52195 21.4969 8.54162 21.5168L8.66811 21.6446C8.70746 21.6844 8.70746 21.7526 8.66811 21.7924L8.60627 21.8549C8.56692 21.8946 8.49946 21.8946 8.46011 21.8549L8.36173 21.7554C8.32238 21.7156 8.25492 21.7156 8.21557 21.7554L8.11719 21.8549C8.09751 21.8747 8.08627 21.9003 8.08627 21.9287V22.2981C8.08627 22.3265 8.09751 22.3521 8.11719 22.372L8.61751 22.8777C8.65686 22.9175 8.65686 22.9857 8.61751 23.0255C8.57816 23.0652 8.5107 23.0652 8.47135 23.0255L8.38422 22.9374C8.34486 22.8976 8.27741 22.8976 8.23805 22.9374L7.85297 23.3266C7.81362 23.3664 7.81362 23.4346 7.85297 23.4744L8.12562 23.75C8.16497 23.7897 8.23243 23.7897 8.27178 23.75L8.50789 23.5113C8.54724 23.4715 8.6147 23.4715 8.65405 23.5113L8.77211 23.6306C8.79178 23.6505 8.80303 23.6761 8.80303 23.7045V23.8949C8.80303 23.9517 8.848 24 8.90703 24H9.41578C9.44389 24 9.46919 23.9886 9.48886 23.9687L9.89081 23.5624C9.91049 23.5426 9.92173 23.517 9.92173 23.4886V23.2187C9.92173 23.1902 9.93297 23.1647 9.95265 23.1448L10.1719 22.9232C10.2365 22.8578 10.349 22.9033 10.349 22.997V23.2442C10.349 23.2726 10.3602 23.2982 10.3799 23.3181L10.6497 23.5909C10.6891 23.6306 10.7565 23.6306 10.7959 23.5909L11.0966 23.2868C11.136 23.2471 11.136 23.1789 11.0966 23.1391L10.9224 22.9629C10.883 22.9232 10.883 22.855 10.9224 22.8152L11.136 22.5993C11.1754 22.5595 11.2428 22.5595 11.2822 22.5993L11.5436 22.8635C11.5632 22.8834 11.5885 22.8948 11.6166 22.8948H12.1901C12.2182 22.8948 12.2435 22.8834 12.2631 22.8635L12.696 22.4259C12.7354 22.3862 12.8028 22.3862 12.8422 22.4259L13.1289 22.7158C13.1485 22.7356 13.1738 22.747 13.2019 22.747H13.7838C13.8119 22.747 13.8372 22.7356 13.8569 22.7158L14.0339 22.5368C14.0536 22.5169 14.0649 22.4913 14.0649 22.4629V22.2498C14.0649 22.193 14.0199 22.1447 13.9609 22.1447H13.6545C13.5983 22.1447 13.5505 22.0992 13.5505 22.0395V21.8662C13.5505 21.8094 13.5955 21.7611 13.6545 21.7611H14.835C14.8631 21.7611 14.8884 21.7497 14.9081 21.7298L15.9284 20.6985C15.9481 20.6786 15.9594 20.653 15.9594 20.6246V19.3148C15.9594 19.258 15.9144 19.2097 15.8553 19.2097H15.6979C15.6417 19.2097 15.5939 19.1642 15.5939 19.1045V15.0614C15.5939 15.033 15.5827 15.0075 15.563 14.9876L13.9946 13.4022C13.9749 13.3823 13.9637 13.3567 13.9637 13.3283V12.6038C13.9637 12.5754 13.9524 12.5498 13.9328 12.5299L13.5139 12.1065C13.4943 12.0867 13.483 12.0611 13.483 12.0327V11.7855V11.5326C13.483 11.5156 13.4774 11.5014 13.4662 11.49L12.2941 10.3308C12.2941 10.3308 12.2688 10.3137 12.2519 10.3137H11.6476C11.6307 10.3137 11.6166 10.308 11.6054 10.2967L11.3805 10.0694C11.3805 10.0694 11.3637 10.0438 11.3637 10.0268V9.83071C11.3637 9.81366 11.3693 9.79945 11.3805 9.78809L11.6166 9.54943C11.6391 9.5267 11.6757 9.5267 11.701 9.54943L11.7544 9.60341C11.7544 9.60341 11.7712 9.62898 11.7712 9.64603V9.71138C11.7712 9.76252 11.8134 9.80514 11.864 9.80514C11.9146 9.80514 11.9568 9.76252 11.9568 9.71138V9.10619C11.9568 9.08914 11.9511 9.07494 11.9399 9.06357L11.819 8.9414C11.819 8.9414 11.8022 8.91583 11.8022 8.89878V8.81354C11.8022 8.77945 11.8275 8.75388 11.8612 8.75388H12.0326C12.0495 8.75388 12.0636 8.74819 12.0748 8.73683L12.5639 8.24245C12.6285 8.1771 12.7185 8.13733 12.8112 8.13733H13.3818C13.5364 8.13733 13.6882 8.07482 13.7978 7.96401L14.1014 7.65716C14.1014 7.65716 14.1183 7.63158 14.1183 7.61454V7.49805C14.1183 7.46395 14.1436 7.43838 14.1773 7.43838H14.3488C14.3656 7.43838 14.3797 7.4327 14.3909 7.42133L15.1273 6.67693C15.1273 6.67693 15.1442 6.65136 15.1442 6.63431V6.43542C15.1442 6.33314 15.2257 6.2479 15.3297 6.2479H15.5827C15.5996 6.2479 15.6136 6.24222 15.6249 6.23085L16.2432 5.60578C16.2432 5.60578 16.2601 5.58021 16.2601 5.56316V5.45803C16.2601 5.44098 16.2545 5.42678 16.2432 5.41541L16.0774 5.24778C16.0774 5.24778 16.0605 5.22221 16.0605 5.20516V4.92388C16.0605 4.90683 16.0662 4.89262 16.0774 4.88126L16.3501 4.60566C16.3501 4.60566 16.3669 4.58009 16.3669 4.56304V4.46644C16.3669 4.44939 16.3613 4.43518 16.3501 4.42382L16.0802 4.15106C16.0802 4.15106 16.0634 4.12549 16.0634 4.10844V3.64816C16.0634 3.63111 16.069 3.6169 16.0802 3.60554L16.5749 3.10548C16.5749 3.10548 16.5918 3.07991 16.5918 3.06286V2.91512C16.5918 2.81852 16.6283 2.7276 16.6958 2.65941L17.4519 1.89511C17.4744 1.87238 17.5109 1.87238 17.5362 1.89511L17.6599 2.02013C17.6599 2.02013 17.6852 2.03717 17.7021 2.03717H17.941C17.9747 2.03717 18 2.0116 18 1.97751V1.57973C18 1.56269 17.9944 1.54848 17.9831 1.53711L17.2411 0.787025L17.2073 0.767136Z" fill="white"/>
</svg>
