<?xml version="1.0" encoding="UTF-8"?>
<svg width="22" height="19" viewBox="0 0 22 19" fill="none" xmlns="http://www.w3.org/2000/svg">
<g id="Group 1149">
<path id="Vector" d="M9.47891 5.34293L4.17969 1L1.54045 4.22789L6.83967 8.57081L9.47891 5.34293Z" stroke="white"/>
<path id="Vector_2" d="M21.1391 14.8996L15.8398 10.5566L13.2006 13.7845L18.4998 18.1275L21.1391 14.8996Z" stroke="white"/>
<path id="Vector_3" d="M11.8418 12.4014L14.2177 9.49559C14.9905 8.55036 14.8515 7.1567 13.9072 6.38277C12.9628 5.60884 11.5707 5.74771 10.7979 6.69294L8.422 9.59874C7.64915 10.544 7.78817 11.9376 8.73252 12.7116C9.67687 13.4855 11.0689 13.3466 11.8418 12.4014Z" stroke="white"/>
<path id="Vector_4" d="M8.62308 14.8826L6.62874 13.2482C6.23511 12.9256 5.65487 12.9835 5.33272 13.3775C5.01058 13.7714 5.06853 14.3524 5.46215 14.6749L7.45649 16.3094C7.85012 16.632 8.43037 16.5741 8.75251 16.1801C9.07465 15.7861 9.01671 15.2052 8.62308 14.8826Z" stroke="white"/>
<path id="Vector_5" d="M13.0293 10.9492L14.8424 12.4351" stroke="white"/>
<path id="Vector_6" d="M8.49512 7.2334L9.60935 8.14655" stroke="white"/>
</g>
</svg>
