<svg width="50" height="52" viewBox="0 0 50 52" fill="none" xmlns="http://www.w3.org/2000/svg">
<g filter="url(#filter0_d_1465_51822)">
<circle cx="25" cy="23" r="20" fill="white" stroke="#1C2D6F" stroke-width="6"/>
<path d="M16.5801 16.0199V25.4333C16.5801 25.9849 16.9478 27.2351 17.5361 28.4486C18.0956 29.7961 18.8788 31.0393 19.8527 32.1257C20.8753 33.1862 22.0383 34.1017 23.3092 34.8468C24.2112 35.3855 25.0187 36.0687 25.6993 36.8692C26.3969 36.0716 27.2159 35.3891 28.1262 34.8468C29.3905 34.092 30.5522 33.1774 31.5827 32.1257C32.6859 30.9858 33.4948 29.3311 33.8993 28.4486C34.3038 27.5661 34.8553 25.9849 34.8553 25.4333V16.0199L25.6993 10.063L16.5801 16.0199Z" fill="#001A60"/>
<path d="M34.3771 16.3126H34.4507L25.6991 10.5396L16.9844 16.2391V25.4319C16.9844 26.3512 18.3449 29.9915 20.1467 31.8668C21.1565 32.88 22.2937 33.7576 23.5296 34.4776C24.3337 34.9735 25.064 35.58 25.6991 36.2794C26.3574 35.59 27.0984 34.9848 27.9054 34.4776C29.1414 33.7576 30.2786 32.88 31.2884 31.8668C33.0901 29.9915 34.4507 26.3512 34.4507 25.4319V16.2759H34.3771V16.3126Z" fill="url(#paint0_radial_1465_51822)"/>
<path d="M17.6133 16.6432V25.505C17.7567 26.4142 18.0421 27.2952 18.459 28.1158C18.9898 29.3474 19.7094 30.4887 20.5917 31.4987C21.5736 32.4765 22.6729 33.3287 23.8644 34.036C24.5275 34.4316 25.1442 34.9003 25.7029 35.4333C26.2826 34.9094 26.9105 34.4416 27.5783 34.036C28.7698 33.3287 29.8691 32.4765 30.8509 31.4987C31.7333 30.4887 32.4528 29.3474 32.9836 28.1158C33.382 27.2877 33.6665 26.4095 33.8294 25.505V16.6432L25.7029 11.3481L17.6133 16.6432Z" fill="url(#paint1_linear_1465_51822)"/>
<path d="M16.9844 16.2391H17.0579L25.6991 10.6866V10.5396L16.9844 16.2391Z" fill="#FEDA5D"/>
<path d="M34.3831 16.3126H34.4566L25.7051 10.5396V10.6866L34.3831 16.3126Z" fill="#DFB840"/>
<path d="M33.8683 16.6431L34.0154 16.5696L25.7051 11.1274V11.3481L33.8683 16.6431Z" fill="#D39428"/>
<path d="M17.4277 16.5328L17.5748 16.6063L25.7012 11.3481V11.1274L17.4277 16.5328Z" fill="#D39428"/>
<path d="M23.8259 34.0751C22.631 33.3892 21.5412 32.5347 20.5901 31.5379C18.8986 29.8096 17.5748 26.3532 17.5748 25.5442V16.6456L17.4277 16.572V25.5074C17.4277 25.9119 17.7219 26.9415 18.3102 28.2285C18.8422 29.4679 19.5752 30.611 20.4797 31.6114C21.4506 32.6119 22.5513 33.4776 23.7524 34.1854C24.4571 34.6266 25.1107 35.1446 25.7012 35.7298V35.5459C25.137 34.9827 24.5074 34.4889 23.8259 34.0751Z" fill="#FEDA5D"/>
<path d="M23.8259 34.0751C22.631 33.3892 21.5412 32.5347 20.5901 31.5379C18.8986 29.8096 17.5748 26.3532 17.5748 25.5442V16.6456L17.4277 16.572V25.5074C17.4277 25.9119 17.7219 26.9415 18.3102 28.2285C18.8422 29.4679 19.5752 30.611 20.4797 31.6114C21.4506 32.6119 22.5513 33.4776 23.7524 34.1854C24.4571 34.6266 25.1107 35.1446 25.7012 35.7298V35.5459C25.137 34.9827 24.5074 34.4889 23.8259 34.0751Z" fill="url(#paint2_linear_1465_51822)"/>
<path d="M33.8683 25.5442C33.8683 26.3532 32.5445 29.8096 30.853 31.5379C29.8865 32.5175 28.7991 33.3701 27.6172 34.0751C26.9302 34.4973 26.2893 34.9902 25.7051 35.5459V35.7298C26.316 35.1526 26.9809 34.6355 27.6907 34.1854C28.8918 33.4776 29.9925 32.6119 30.9634 31.6114C31.8554 30.6015 32.5871 29.4605 33.1329 28.2285C33.7212 26.9415 34.0154 25.9119 34.0154 25.5074V16.572L33.8683 16.6456V25.5442Z" fill="#FEDA5D"/>
<path d="M22.7227 14.3279H23.0904C23.2174 14.3184 23.3445 14.3438 23.4581 14.4014C23.5287 14.4319 23.588 14.4838 23.6275 14.5498C23.6671 14.6157 23.685 14.6924 23.6787 14.7691C23.6718 14.8524 23.6448 14.9327 23.6 15.0031C23.5551 15.0736 23.4938 15.1321 23.4213 15.1736H23.0168V15.6884H22.7227V14.3279ZM23.0168 14.5485V14.9897H23.1639C23.1982 14.9927 23.2326 14.9875 23.2646 14.9748C23.2965 14.962 23.325 14.9419 23.3478 14.9162V14.7691C23.3478 14.622 23.311 14.5485 23.1639 14.5485H23.0168Z" fill="white"/>
<path d="M24.3773 14.3298C24.745 14.3298 24.9657 14.5872 24.9657 15.0285C24.975 15.1492 24.9528 15.2704 24.9013 15.3799C24.8497 15.4895 24.7705 15.5838 24.6715 15.6536C24.5852 15.7121 24.481 15.7381 24.3773 15.7271C24.2941 15.7379 24.2095 15.7266 24.1321 15.6943C24.0546 15.6621 23.987 15.61 23.9361 15.5433C23.8326 15.3921 23.781 15.2115 23.789 15.0285C23.7802 14.9025 23.8024 14.7763 23.8537 14.6609C23.905 14.5455 23.9838 14.4445 24.0832 14.3666L24.3773 14.3298ZM24.3773 14.5137C24.3307 14.5159 24.2855 14.5307 24.2466 14.5566C24.2078 14.5825 24.1767 14.6185 24.1567 14.6608C24.1037 14.7759 24.0785 14.9018 24.0832 15.0285C24.0832 15.2491 24.1199 15.3962 24.2303 15.4697H24.3773C24.5612 15.4697 24.6347 15.3227 24.6347 14.9917C24.6456 14.88 24.633 14.7673 24.598 14.6608C24.5821 14.6157 24.552 14.5769 24.5122 14.5504C24.4724 14.5239 24.4251 14.511 24.3773 14.5137Z" fill="white"/>
<path d="M25.1484 14.3298H25.4426V15.4697H25.9206V15.7271H25.1852L25.1484 14.3298Z" fill="white"/>
<path d="M26.1035 14.3298H26.3977V15.7271H26.1035V14.3298Z" fill="white"/>
<path d="M27.576 14.4027L27.4289 14.5866L27.2083 14.513L26.9876 14.6233C26.9237 14.7346 26.8978 14.8637 26.9141 14.991C26.9013 15.1148 26.9138 15.2399 26.9509 15.3587C26.9769 15.4039 27.0145 15.4412 27.0597 15.4671C27.1049 15.4929 27.1562 15.5063 27.2083 15.5058H27.4289C27.4289 15.4961 27.4328 15.4867 27.4397 15.4798C27.4466 15.4729 27.4559 15.4691 27.4657 15.4691L27.576 15.6529C27.468 15.7273 27.3394 15.7659 27.2083 15.7632C27.1251 15.774 27.0405 15.7627 26.963 15.7304C26.8856 15.6981 26.818 15.6461 26.767 15.5794C26.6474 15.4491 26.5817 15.2782 26.5832 15.1013C26.5748 14.9465 26.6132 14.7928 26.6935 14.6601C26.7307 14.5815 26.7849 14.5121 26.8522 14.4569C26.9195 14.4017 26.9981 14.3622 27.0825 14.3411C27.1669 14.32 27.255 14.3178 27.3403 14.3349C27.4256 14.3519 27.5061 14.3876 27.576 14.4395V14.4027Z" fill="white"/>
<path d="M27.7617 14.3298H28.5707V14.5505H28.0559V14.8814H28.4236V15.102H28.0559V15.4697H28.5707V15.7271H27.7617V14.3298Z" fill="white"/>
<path d="M26.7656 19.4013C26.7701 19.4964 26.794 19.5897 26.8358 19.6752C26.8776 19.7608 26.9365 19.8369 27.0088 19.8989C27.0812 19.9609 27.1654 20.0075 27.2564 20.0357C27.3473 20.0639 27.4431 20.0733 27.5378 20.0632C27.6296 20.0681 27.7215 20.0549 27.8081 20.0243C27.8948 19.9937 27.9746 19.9463 28.0429 19.8848C28.1112 19.8233 28.1667 19.749 28.2062 19.666C28.2458 19.583 28.2685 19.4931 28.2732 19.4013C28.2638 19.2127 28.1822 19.0349 28.0453 18.9049C27.9084 18.7748 27.7267 18.7024 27.5378 18.7026C27.4412 18.6977 27.3446 18.7118 27.2535 18.7443C27.1623 18.7767 27.0785 18.8268 27.0068 18.8917C26.935 18.9566 26.8768 19.0351 26.8354 19.1225C26.7941 19.2099 26.7703 19.3047 26.7656 19.4013ZM27.2069 19.4013C27.1895 19.3514 27.1844 19.2981 27.1918 19.2458C27.1993 19.1935 27.2191 19.1438 27.2497 19.1008C27.2803 19.0577 27.3207 19.0226 27.3677 18.9984C27.4146 18.9742 27.4666 18.9616 27.5194 18.9616C27.5722 18.9616 27.6243 18.9742 27.6712 18.9984C27.7181 19.0226 27.7586 19.0577 27.7892 19.1008C27.8198 19.1438 27.8396 19.1935 27.8471 19.2458C27.8545 19.2981 27.8493 19.3514 27.832 19.4013C27.8493 19.4511 27.8545 19.5045 27.8471 19.5567C27.8396 19.609 27.8198 19.6587 27.7892 19.7018C27.7586 19.7448 27.7181 19.7799 27.6712 19.8041C27.6243 19.8284 27.5722 19.841 27.5194 19.841C27.4666 19.841 27.4146 19.8284 27.3677 19.8041C27.3207 19.7799 27.2803 19.7448 27.2497 19.7018C27.2191 19.6587 27.1993 19.609 27.1918 19.5567C27.1844 19.5045 27.1895 19.4511 27.2069 19.4013Z" fill="white"/>
<path d="M27.9437 17.0493V17.4906H27.3921V17.1964H26.1419V17.4906H26.9509V17.5641C26.9524 17.6695 26.93 17.7739 26.8854 17.8694C26.8408 17.9649 26.7752 18.0491 26.6935 18.1157C26.522 18.2781 26.3029 18.3813 26.0684 18.4099L26.289 18.6672C26.5847 18.6235 26.8568 18.4809 27.0612 18.2628C27.1883 18.1232 27.2881 17.9611 27.3554 17.7847H27.9437V18.0054H27.3554V18.2995H27.9437V18.6305H28.3849V17.0493H27.9437Z" fill="white"/>
<path d="M20.2563 17.0107V17.452H19.668V17.7462H19.8886C19.8466 17.8519 19.8218 17.9636 19.8151 18.0771C19.8151 18.2526 19.8848 18.421 20.0089 18.5451C20.133 18.6693 20.3014 18.739 20.4769 18.739C20.6525 18.739 20.8208 18.6693 20.945 18.5451C21.0691 18.421 21.1388 18.2526 21.1388 18.0771C21.1363 17.9582 21.0979 17.8428 21.0285 17.7462H21.2491V17.452H20.6976V17.0107H20.2563ZM20.2563 18.1139C20.2563 17.8933 20.3666 17.7462 20.4769 17.7462C20.5872 17.7462 20.6976 17.8933 20.6976 18.1139C20.6976 18.3345 20.5872 18.4448 20.4769 18.4448C20.3666 18.4448 20.2563 18.2977 20.2563 18.1139Z" fill="white"/>
<path d="M21.9864 17.0493V17.9318H21.7658V17.0493H21.3613V19.991H21.7658V18.2628H21.9864V19.991H22.3541V17.0493H21.9864Z" fill="white"/>
<path d="M24.707 17.0493V18.6305H25.1483V18.2995H25.5528V17.9686H25.1483V17.7112H25.5528V17.417H25.1483V17.0493H24.707Z" fill="white"/>
<path d="M23.5309 19.4042C23.516 19.5592 23.5484 19.7151 23.6237 19.8513C23.6991 19.9876 23.8139 20.0979 23.953 20.1678C24.0922 20.2377 24.2492 20.2639 24.4035 20.2429C24.5578 20.2219 24.7021 20.1548 24.8176 20.0503C24.9331 19.9459 25.0143 19.8089 25.0505 19.6575C25.0868 19.5061 25.0764 19.3472 25.0207 19.2018C24.9651 19.0563 24.8668 18.9311 24.7387 18.8426C24.6106 18.754 24.4588 18.7063 24.303 18.7055C24.2053 18.6952 24.1065 18.7056 24.0131 18.736C23.9196 18.7665 23.8336 18.8163 23.7608 18.8822C23.6879 18.9482 23.6297 19.0287 23.5901 19.1187C23.5505 19.2086 23.5303 19.3059 23.5309 19.4042ZM23.9721 19.4042C23.9721 19.3607 23.9807 19.3177 23.9973 19.2775C24.0139 19.2374 24.0383 19.2009 24.069 19.1702C24.0998 19.1395 24.1363 19.1151 24.1764 19.0984C24.2166 19.0818 24.2596 19.0733 24.303 19.0733C24.3465 19.0733 24.3895 19.0818 24.4297 19.0984C24.4698 19.1151 24.5063 19.1395 24.5371 19.1702C24.5678 19.2009 24.5922 19.2374 24.6088 19.2775C24.6254 19.3177 24.634 19.3607 24.634 19.4042C24.634 19.4477 24.6254 19.4907 24.6088 19.5308C24.5922 19.571 24.5678 19.6075 24.5371 19.6382C24.5063 19.6689 24.4698 19.6933 24.4297 19.7099C24.3895 19.7266 24.3465 19.7351 24.303 19.7351C24.2596 19.7351 24.2166 19.7266 24.1764 19.7099C24.1363 19.6933 24.0998 19.6689 24.069 19.6382C24.0383 19.6075 24.0139 19.571 23.9973 19.5308C23.9807 19.4907 23.9721 19.4477 23.9721 19.4042Z" fill="white"/>
<path d="M22.9082 17.8216C22.9082 18.0167 22.9857 18.2037 23.1236 18.3416C23.2615 18.4795 23.4486 18.557 23.6436 18.557C23.8387 18.557 24.0257 18.4795 24.1636 18.3416C24.3016 18.2037 24.3791 18.0167 24.3791 17.8216C24.3791 17.6266 24.3016 17.4395 24.1636 17.3016C24.0257 17.1637 23.8387 17.0862 23.6436 17.0862C23.4486 17.0862 23.2615 17.1637 23.1236 17.3016C22.9857 17.4395 22.9082 17.6266 22.9082 17.8216ZM23.3495 17.8216C23.3495 17.7436 23.3805 17.6688 23.4356 17.6136C23.4908 17.5584 23.5656 17.5274 23.6436 17.5274C23.7216 17.5274 23.7965 17.5584 23.8516 17.6136C23.9068 17.6688 23.9378 17.7436 23.9378 17.8216C23.9378 17.8996 23.9068 17.9744 23.8516 18.0296C23.7965 18.0848 23.7216 18.1158 23.6436 18.1158C23.5656 18.1158 23.4908 18.0848 23.4356 18.0296C23.3805 17.9744 23.3495 17.8996 23.3495 17.8216Z" fill="white"/>
<path d="M30.8848 17.0493V18.6305H31.326V17.9686H31.7305V17.6377H31.326V17.0493H30.8848Z" fill="white"/>
<path d="M29.5649 17.0131V17.344H29.0501V17.675H29.5649C29.56 17.7596 29.5379 17.8424 29.5 17.9183C29.462 17.9941 29.4091 18.0615 29.3443 18.1162C29.2989 18.1705 29.2428 18.2148 29.1796 18.2465C29.1163 18.2781 29.0472 18.2963 28.9766 18.3001L29.0869 18.4472L29.1972 18.5575C29.4426 18.4911 29.6531 18.3332 29.7855 18.1162C29.7855 18.0795 29.7855 18.0795 29.8223 18.0795H29.8591C29.9989 18.2895 30.2066 18.4452 30.4474 18.5207C30.5115 18.4272 30.5855 18.341 30.668 18.2633C30.5211 18.2334 30.3828 18.1705 30.2636 18.0795C30.1478 17.9576 30.071 17.8039 30.0429 17.6382H30.5577V17.3073H30.0429V16.9763L29.5649 17.0131Z" fill="white"/>
<path d="M29.4512 18.7778V19.0352H30.8852V19.2559H29.4512V19.7339C29.4512 19.9177 29.5247 19.9913 29.7086 19.9913H31.3633V19.7339H29.9292V19.55H31.2897C31.3265 19.55 31.3265 19.55 31.3265 19.5133V18.8146H29.4512V18.7778Z" fill="white"/>
<path d="M25.6991 36.1684L25.5888 36.0214C24.9727 35.4241 24.2947 34.894 23.5664 34.4402C22.3271 33.7416 21.1992 32.8617 20.2202 31.8294C19.1539 30.7631 18.3817 29.1819 17.9772 28.3362C17.5727 27.4904 17.0579 25.9828 17.0579 25.468V16.312H16.9844V25.4313C16.9844 26.3505 18.3449 29.9909 20.1467 31.8662C21.1565 32.8793 22.2937 33.7569 23.5296 34.477C24.3337 34.9729 25.064 35.5794 25.6991 36.2788V36.1684Z" fill="url(#paint3_linear_1465_51822)"/>
<path d="M25.7051 36.1684L25.8522 36.0214C26.4683 35.4241 27.1463 34.894 27.8746 34.4402C29.1075 33.7321 30.2341 32.8531 31.2208 31.8294C32.1369 30.7822 32.8928 29.605 33.4638 28.3362C33.9786 27.1227 34.3831 25.9828 34.3831 25.468V16.312H34.4566V25.4313C34.4566 26.3505 33.0961 29.9909 31.2943 31.8662C30.2845 32.8793 29.1473 33.7569 27.9113 34.477C27.1044 34.9842 26.3633 35.5894 25.7051 36.2788V36.1684Z" fill="#D39428"/>
<path d="M25.7046 11.3481L17.5781 16.6432V25.5418C17.5781 26.3508 18.9019 29.8073 20.5934 31.5355C21.5445 32.5323 22.6343 33.3868 23.8292 34.0727C24.5107 34.4865 25.1403 34.9803 25.7046 35.5436C26.2888 34.9879 26.9297 34.4949 27.6167 34.0727C28.7986 33.3677 29.8859 32.5151 30.8525 31.5355C32.544 29.8073 33.8678 26.3508 33.8678 25.5418V16.6432L25.7046 11.3481ZM33.7574 25.5418C33.7574 26.3508 32.4337 29.7705 30.779 31.462C29.8278 32.4588 28.738 33.3133 27.5431 33.9992C26.881 34.3963 26.2644 34.8649 25.7046 35.3965C25.1573 34.8657 24.5531 34.3971 23.9028 33.9992C22.7079 33.3133 21.618 32.4588 20.6669 31.462C18.9754 29.7705 17.6884 26.3508 17.6884 25.5418V16.7167L25.7046 11.4585L33.7574 16.7167V25.5418Z" fill="#000044"/>
<path d="M25.7063 24.5127C25.1027 24.5127 24.5126 24.6917 24.0107 25.027C23.5088 25.3624 23.1176 25.8391 22.8866 26.3967C22.6556 26.9544 22.5952 27.5681 22.7129 28.1601C22.8307 28.7521 23.1214 29.296 23.5482 29.7228C23.975 30.1496 24.5189 30.4403 25.1109 30.5581C25.7029 30.6758 26.3166 30.6154 26.8743 30.3844C27.4319 30.1534 27.9086 29.7622 28.244 29.2603C28.5793 28.7584 28.7583 28.1683 28.7583 27.5647C28.7583 26.7553 28.4368 25.979 27.8644 25.4066C27.292 24.8342 26.5157 24.5127 25.7063 24.5127Z" fill="#FFD900"/>
<path d="M21.0332 27.4541C21.2312 27.6005 21.4599 27.6998 21.7021 27.7444C21.9442 27.789 22.1934 27.7777 22.4305 27.7115V27.5644C22.4348 27.2015 22.4969 26.8415 22.6144 26.498C22.1621 26.9266 21.6228 27.2526 21.0332 27.4541Z" fill="url(#paint4_linear_1465_51822)"/>
<path d="M20.8477 27.8972C20.9407 28.7121 21.1642 29.5067 21.5095 30.2506C21.5248 30.2859 21.5507 30.3155 21.5837 30.3353C21.6167 30.3551 21.6551 30.3641 21.6934 30.3609C22.2471 30.271 22.7602 30.0145 23.1642 29.6255C22.7584 29.1461 22.5026 28.5578 22.4288 27.934C21.8924 28.0534 21.3309 27.9751 20.8477 27.7134V27.8605V27.8972Z" fill="#FFD900"/>
<path d="M23.3809 32.5999C23.9693 32.1219 24.3002 30.9085 24.4105 30.5775C23.9791 30.4077 23.5991 30.129 23.3074 29.7686C22.8744 30.2124 22.3044 30.4974 21.6895 30.5775C22.0607 31.3307 22.5582 32.0147 23.1603 32.5999C23.1741 32.6156 23.1911 32.6281 23.2101 32.6367C23.2291 32.6453 23.2497 32.6497 23.2706 32.6497C23.2915 32.6497 23.3121 32.6453 23.3311 32.6367C23.3501 32.6281 23.3671 32.6156 23.3809 32.5999Z" fill="#FFD900"/>
<path d="M23.1639 25.4705C23.2617 25.3568 23.348 25.2336 23.4213 25.1027L22.9065 24.9924H22.7961C22.0975 25.5808 20.9944 26.5 19.7441 26.7942C19.9272 27.0142 20.1767 27.169 20.4551 27.2353C20.7335 27.3016 21.026 27.2758 21.2885 27.1619C21.9475 26.8251 22.5248 26.3482 22.98 25.7646L23.1639 25.4705Z" fill="url(#paint5_linear_1465_51822)"/>
<path d="M28.055 32.5999C28.065 32.6151 28.0787 32.6275 28.0947 32.6362C28.1108 32.6448 28.1287 32.6493 28.1469 32.6493C28.1651 32.6493 28.183 32.6448 28.1991 32.6362C28.2151 32.6275 28.2288 32.6151 28.2388 32.5999C28.8637 32.0263 29.3751 31.3402 29.7465 30.5775C29.127 30.5125 28.5522 30.2251 28.1285 29.7686C27.8259 30.1173 27.4489 30.3937 27.0254 30.5775C27.0989 30.9085 27.4666 32.1219 28.055 32.5999Z" fill="#FFD900"/>
<path d="M25.998 30.8379V31.0953C26.0348 31.794 26.0348 33.7428 26.1451 34.0738C26.795 33.7628 27.4009 33.3671 27.9469 32.8971C27.6895 32.6765 27.2115 32.1617 26.7702 30.6541C26.5249 30.758 26.2639 30.8201 25.998 30.8379Z" fill="#FFD900"/>
<path d="M29.9301 30.2475C30.2588 29.4976 30.4816 28.7055 30.592 27.8942V27.7471C30.0943 28.0053 29.5226 28.0832 28.974 27.9677C28.8974 28.5841 28.656 29.1684 28.2754 29.6592C28.6737 30.0564 29.1895 30.3143 29.7462 30.3946L29.9301 30.2475Z" fill="#FFD900"/>
<path d="M25.2979 34.0724C25.4082 33.7415 25.4082 31.7926 25.4082 31.0939V30.8365L24.6728 30.6895C24.2315 32.1603 23.7535 32.7119 23.4961 32.8957C24.0421 33.3657 24.648 33.7614 25.2979 34.0724Z" fill="#FFD900"/>
<path d="M20.37 23.8161L20.1494 23.669C19.3772 23.1174 18.8992 22.713 18.8992 22.713C16.7642 22.1083 14.6649 21.384 12.6113 20.5435C12.6113 20.5435 12.6113 23.3013 15.075 23.7425C16.8376 23.8562 18.6049 23.8808 20.37 23.8161Z" fill="url(#paint6_linear_1465_51822)"/>
<path d="M19.0108 22.5248C19.0108 22.5248 21.0333 24.5104 23.5705 24.9149L24.122 24.1427C21.9525 23.9221 20.592 22.7087 19.6727 21.7894C19.3762 21.4651 19.0284 21.1918 18.6431 20.9804L10.958 16.0898C10.958 16.0898 10.5535 19.2522 12.6127 20.245L12.7965 20.3185C14.8191 21.185 16.8947 21.9219 19.0108 22.5248Z" fill="url(#paint7_linear_1465_51822)"/>
<path d="M20.6622 23.9976C19.3752 24.0711 17.647 24.0711 15.3672 23.9976C15.5464 24.4907 15.8877 24.9084 16.3353 25.1823C16.7829 25.4562 17.3102 25.57 17.8309 25.5052C19.1287 25.3277 20.4003 24.9944 21.6183 24.5124C21.2816 24.3765 20.961 24.2039 20.6622 23.9976Z" fill="url(#paint8_linear_1465_51822)"/>
<path d="M22.5739 24.8792L21.8385 24.6218C20.5577 25.1381 19.2268 25.5201 17.8672 25.7617C17.9839 26.0379 18.1863 26.2692 18.4445 26.4215C18.7028 26.5738 19.0031 26.639 19.3013 26.6075C20.3676 26.5707 21.5811 25.7617 22.5739 24.8792Z" fill="url(#paint9_linear_1465_51822)"/>
<path d="M30.4093 27.4541C30.2113 27.6005 29.9825 27.6998 29.7404 27.7444C29.4983 27.789 29.2491 27.7777 29.012 27.7115V27.5644C29.0077 27.2015 28.9456 26.8415 28.8281 26.498C29.2804 26.9266 29.8197 27.2526 30.4093 27.4541Z" fill="url(#paint10_linear_1465_51822)"/>
<path d="M28.2769 25.4705C28.1791 25.3568 28.0928 25.2336 28.0195 25.1027L28.5343 24.9924H28.6079C29.3433 25.5808 30.4464 26.5 31.6966 26.7942C31.5136 27.0142 31.2641 27.169 30.9857 27.2353C30.7073 27.3016 30.4148 27.2758 30.1523 27.1619C29.487 26.8347 28.9077 26.3562 28.4608 25.7646L28.2769 25.4705Z" fill="url(#paint11_linear_1465_51822)"/>
<path d="M31.0332 23.8161L31.2906 23.669C32.0628 23.1174 32.5408 22.713 32.5408 22.713C34.6758 22.1083 36.7751 21.384 38.8287 20.5435C38.8287 20.5435 38.8287 23.3013 36.3282 23.7425C34.5656 23.8564 32.7983 23.881 31.0332 23.8161Z" fill="url(#paint12_linear_1465_51822)"/>
<path d="M32.4335 22.5248C32.4335 22.5248 30.411 24.5104 27.8738 24.9149C27.677 24.667 27.4929 24.4093 27.3223 24.1427C29.4918 23.9221 30.8523 22.7087 31.7348 21.7894C32.0489 21.4691 32.4081 21.1966 32.8012 20.9804L40.4863 16.0898H40.4496C40.4496 16.0898 40.8908 19.2522 38.8316 20.245L38.611 20.3185C36.6012 21.1854 34.5377 21.9223 32.4335 22.5248Z" fill="url(#paint13_linear_1465_51822)"/>
<path d="M30.7764 23.9976C32.0634 24.0711 33.7916 24.0711 36.0714 23.9976H36.0346C35.8612 24.4947 35.5211 24.9165 35.072 25.1913C34.6229 25.4661 34.0926 25.577 33.571 25.5052C32.286 25.3231 31.0271 24.9899 29.8203 24.5124C30.157 24.3765 30.4776 24.2039 30.7764 23.9976Z" fill="url(#paint14_linear_1465_51822)"/>
<path d="M28.8633 24.8792L29.5987 24.6218C30.8795 25.1381 32.2104 25.5201 33.57 25.7617C33.4533 26.0379 33.2509 26.2692 32.9927 26.4215C32.7344 26.5738 32.4341 26.639 32.1359 26.6075C31.0696 26.5707 29.8561 25.7617 28.8633 24.8792Z" fill="url(#paint15_linear_1465_51822)"/>
<path d="M28.7583 27.5647C28.7583 28.1683 28.5793 28.7584 28.244 29.2603C27.9086 29.7622 27.4319 30.1534 26.8743 30.3844C26.3166 30.6154 25.7029 30.6758 25.1109 30.5581C24.5189 30.4403 23.975 30.1496 23.5482 29.7228C23.1214 29.296 22.8307 28.7521 22.7129 28.1601C22.5952 27.5681 22.6556 26.9544 22.8866 26.3967C23.1176 25.8391 23.5088 25.3624 24.0107 25.027C24.5126 24.6917 25.1027 24.5127 25.7063 24.5127C26.1071 24.5127 26.504 24.5916 26.8743 24.745C27.2445 24.8984 27.581 25.1232 27.8644 25.4066C28.1478 25.69 28.3726 26.0265 28.526 26.3967C28.6794 26.767 28.7583 27.1639 28.7583 27.5647Z" fill="url(#paint16_linear_1465_51822)"/>
<path d="M25.6997 25.2483C25.6477 25.2395 25.6006 25.2124 25.5668 25.1719C25.5331 25.1314 25.5149 25.0801 25.5156 25.0274C25.5156 24.9786 25.535 24.9317 25.5696 24.8972C25.6041 24.8627 25.6509 24.8433 25.6997 24.8433C25.7525 24.8425 25.8037 24.8607 25.8443 24.8945C25.8848 24.9282 25.9119 24.9754 25.9207 25.0274C25.9207 25.086 25.8974 25.1422 25.856 25.1836C25.8145 25.225 25.7583 25.2483 25.6997 25.2483Z" fill="#001A60"/>
<path d="M27.5022 25.9846C27.4436 25.9846 27.3874 25.9614 27.346 25.9199C27.3045 25.8785 27.2812 25.8223 27.2812 25.7637C27.29 25.7117 27.3171 25.6646 27.3577 25.6308C27.3982 25.597 27.4494 25.5789 27.5022 25.5796C27.551 25.5796 27.5978 25.599 27.6323 25.6335C27.6669 25.6681 27.6863 25.7149 27.6863 25.7637C27.687 25.8164 27.6689 25.8677 27.6351 25.9082C27.6013 25.9487 27.5542 25.9758 27.5022 25.9846Z" fill="#001A60"/>
<path d="M28.2405 27.7478C28.1877 27.7485 28.1365 27.7304 28.0959 27.6966C28.0554 27.6628 28.0283 27.6157 28.0195 27.5637C28.0195 27.5051 28.0428 27.4489 28.0842 27.4075C28.1257 27.366 28.1819 27.3428 28.2405 27.3428C28.2925 27.3516 28.3396 27.3787 28.3734 27.4192C28.4071 27.4597 28.4253 27.511 28.4246 27.5637C28.4246 27.6125 28.4052 27.6593 28.3706 27.6939C28.3361 27.7284 28.2893 27.7478 28.2405 27.7478Z" fill="#001A60"/>
<path d="M27.5022 29.5527C27.4436 29.5527 27.3874 29.5295 27.346 29.488C27.3045 29.4466 27.2812 29.3904 27.2812 29.3318C27.29 29.2798 27.3171 29.2327 27.3577 29.1989C27.3982 29.1651 27.4494 29.147 27.5022 29.1477C27.551 29.1477 27.5978 29.1671 27.6323 29.2016C27.6669 29.2362 27.6863 29.283 27.6863 29.3318C27.687 29.3846 27.6689 29.4358 27.6351 29.4763C27.6013 29.5169 27.5542 29.544 27.5022 29.5527Z" fill="#001A60"/>
<path d="M25.6997 30.2859C25.6477 30.2771 25.6006 30.25 25.5668 30.2095C25.5331 30.169 25.5149 30.1177 25.5156 30.065C25.5156 30.0162 25.535 29.9693 25.5696 29.9348C25.6041 29.9003 25.6509 29.8809 25.6997 29.8809C25.7525 29.8801 25.8037 29.8983 25.8443 29.9321C25.8848 29.9658 25.9119 30.013 25.9207 30.065C25.9207 30.1236 25.8974 30.1798 25.856 30.2212C25.8145 30.2626 25.7583 30.2859 25.6997 30.2859Z" fill="#001A60"/>
<path d="M23.9377 29.5527C23.8791 29.5527 23.8229 29.5295 23.7815 29.488C23.7401 29.4466 23.7168 29.3904 23.7168 29.3318C23.7256 29.2798 23.7527 29.2327 23.7932 29.1989C23.8337 29.1651 23.885 29.147 23.9377 29.1477C23.9865 29.1477 24.0334 29.1671 24.0679 29.2016C24.1024 29.2362 24.1218 29.283 24.1218 29.3318C24.1226 29.3846 24.1044 29.4358 24.0706 29.4763C24.0369 29.5169 23.9897 29.544 23.9377 29.5527Z" fill="#001A60"/>
<path d="M23.2033 27.7478C23.1506 27.7485 23.0993 27.7304 23.0588 27.6966C23.0183 27.6628 22.9912 27.6157 22.9824 27.5637C22.9824 27.5051 23.0057 27.4489 23.0471 27.4075C23.0886 27.366 23.1447 27.3428 23.2033 27.3428C23.2553 27.3516 23.3025 27.3787 23.3363 27.4192C23.37 27.4597 23.3882 27.511 23.3874 27.5637C23.3874 27.6125 23.368 27.6593 23.3335 27.6939C23.299 27.7284 23.2522 27.7478 23.2033 27.7478Z" fill="#001A60"/>
<path d="M23.9377 25.9846C23.8791 25.9846 23.8229 25.9614 23.7815 25.9199C23.7401 25.8785 23.7168 25.8223 23.7168 25.7637C23.7256 25.7117 23.7527 25.6646 23.7932 25.6308C23.8337 25.597 23.885 25.5789 23.9377 25.5796C23.9865 25.5796 24.0334 25.599 24.0679 25.6335C24.1024 25.6681 24.1218 25.7149 24.1218 25.7637C24.1226 25.8164 24.1044 25.8677 24.0706 25.9082C24.0369 25.9487 23.9897 25.9758 23.9377 25.9846Z" fill="#001A60"/>
<path d="M27.7229 27.6019C27.7131 28.1383 27.4907 28.6488 27.1045 29.0212C26.7184 29.3936 26.2001 29.5973 25.6637 29.5876C25.1273 29.5778 24.6168 29.3554 24.2444 28.9692C23.872 28.583 23.6683 28.0647 23.6781 27.5284C23.6971 26.9951 23.9225 26.49 24.3066 26.1196C24.6907 25.7492 25.2036 25.5424 25.7373 25.5427C26.0043 25.5425 26.2687 25.5962 26.5145 25.7006C26.7603 25.8049 26.9826 25.9578 27.168 26.1501C27.3533 26.3423 27.498 26.57 27.5934 26.8194C27.6887 27.0689 27.7328 27.335 27.7229 27.6019Z" fill="url(#paint17_radial_1465_51822)"/>
<path d="M27.2848 27.7853C27.2848 26.866 26.6964 26.3512 26.1816 26.3512C26.085 26.341 25.9872 26.3501 25.8941 26.378C25.801 26.4058 25.7143 26.4519 25.6391 26.5134C25.5639 26.575 25.5016 26.6508 25.4559 26.7366C25.4101 26.8223 25.3819 26.9163 25.3727 27.0131C25.3764 27.1256 25.4087 27.2352 25.4666 27.3318C25.5245 27.4283 25.6061 27.5084 25.7036 27.5646C25.7997 27.5131 25.9071 27.4862 26.0162 27.4862C26.1252 27.4862 26.2326 27.5131 26.3287 27.5646C26.4803 27.6754 26.5838 27.8399 26.6179 28.0245C26.6521 28.2091 26.6144 28.3998 26.5126 28.5575C26.2184 28.9987 25.483 29.2561 24.674 28.7781C24.4509 28.6419 24.2641 28.4537 24.1297 28.2296C23.9952 28.0054 23.917 27.752 23.9018 27.4911C23.8867 27.7368 23.9222 27.983 24.006 28.2145C24.0897 28.446 24.2201 28.6579 24.3889 28.8371C24.5577 29.0163 24.7615 29.1589 24.9876 29.2563C25.2137 29.3537 25.4574 29.4037 25.7036 29.4032C25.989 29.4097 26.27 29.333 26.5126 29.1826C26.7564 29.0421 26.9571 28.8377 27.0932 28.5914C27.2293 28.3452 27.2955 28.0664 27.2848 27.7853Z" fill="url(#paint18_linear_1465_51822)"/>
<path d="M24.709 28.814C25.518 29.2552 26.2902 28.9978 26.5476 28.5198C26.6373 28.3557 26.6644 28.1646 26.6238 27.982C26.5832 27.7994 26.4777 27.6377 26.327 27.527C26.2287 27.4776 26.1192 27.455 26.0095 27.4615C25.8997 27.4679 25.7936 27.5032 25.7018 27.5638C25.6992 27.6717 25.6669 27.7768 25.6086 27.8676C25.5502 27.9584 25.468 28.0314 25.3709 28.0786C25.1995 28.1562 25.0048 28.1652 24.8269 28.1036C24.6491 28.0421 24.5016 27.9146 24.4149 27.7476C24.1575 27.2696 24.3045 26.4974 25.1503 26.0562C25.3755 25.9192 25.6314 25.8407 25.8947 25.8279C26.158 25.815 26.4204 25.8682 26.6579 25.9826C26.4469 25.8515 26.2116 25.7645 25.9661 25.7268C25.7206 25.6892 25.47 25.7016 25.2295 25.7635C24.9889 25.8253 24.7634 25.9353 24.5665 26.0867C24.3696 26.2381 24.2054 26.4279 24.0839 26.6445C23.9389 26.8894 23.8627 27.1689 23.8633 27.4535C23.8808 27.7325 23.9673 28.0028 24.1149 28.2402C24.2625 28.4776 24.4666 28.6748 24.709 28.814Z" fill="url(#paint19_radial_1465_51822)"/>
<path d="M25.115 26.0579C24.3061 26.5359 24.159 27.3081 24.4164 27.7494C24.5101 27.9197 24.662 28.0507 24.8443 28.1182C25.0266 28.1857 25.2272 28.1853 25.4092 28.1171C25.4977 28.0543 25.5704 27.9718 25.6214 27.876C25.6725 27.7803 25.7005 27.674 25.7034 27.5655C25.6127 27.5049 25.5384 27.4229 25.4871 27.3266C25.4358 27.2304 25.409 27.123 25.4092 27.0139C25.4137 26.9188 25.4376 26.8256 25.4794 26.74C25.5212 26.6544 25.5801 26.5783 25.6524 26.5163C25.7247 26.4543 25.809 26.4077 25.8999 26.3795C25.9909 26.3513 26.0867 26.3419 26.1814 26.3521C26.6962 26.3521 27.3213 26.9036 27.2845 27.8229C27.2803 28.0829 27.2148 28.3383 27.0935 28.5683C26.9721 28.7983 26.7982 28.9964 26.5859 29.1467C27.0184 28.9063 27.3384 28.5048 27.4761 28.0295C27.6139 27.5543 27.5582 27.0438 27.3213 26.6094C27.1738 26.3701 26.9723 26.1686 26.733 26.0211C26.4817 25.8915 26.202 25.827 25.9193 25.8334C25.6367 25.8399 25.3602 25.917 25.115 26.0579Z" fill="url(#paint20_radial_1465_51822)"/>
<path d="M29.0117 27.7113C29.2489 27.7776 29.498 27.7888 29.7401 27.7442C29.9823 27.6996 30.2111 27.6003 30.409 27.4539L30.2252 27.3804C30.0453 27.4905 29.8438 27.5606 29.6344 27.5859C29.4251 27.6113 29.2127 27.5914 29.0117 27.5275V27.7113Z" fill="#E49D00"/>
<path d="M38.8315 20.2484C39.1754 20.069 39.4776 19.8191 39.7184 19.515C39.9592 19.2108 40.1331 18.8593 40.2288 18.4834C39.9701 19.039 39.5464 19.5013 39.0153 19.8072C39.0153 19.8072 37.618 20.7264 32.4333 22.2708C32.4333 22.2708 30.0064 24.5874 27.7266 24.7345L27.8736 24.9184C30.4109 24.5139 32.4333 22.5282 32.4333 22.5282C34.5375 21.9257 36.601 21.1888 38.6108 20.322L38.8315 20.2484Z" fill="#E49D00"/>
<path d="M36.3282 23.5188C34.6735 23.6291 32.6879 23.6659 31.3641 23.6291H31.2906L31.0332 23.7762C32.7983 23.8411 34.5656 23.8165 36.3282 23.7027C36.7381 23.6474 37.1299 23.4995 37.4739 23.2701C37.818 23.0407 38.1053 22.7359 38.3139 22.3789C37.8276 23.0052 37.1143 23.4147 36.3282 23.5188Z" fill="#E49D00"/>
<path d="M33.6813 25.2844C32.4449 25.0944 31.227 24.7992 30.0409 24.4019L29.8203 24.5122C31.0271 24.9897 32.286 25.3229 33.571 25.505C33.9646 25.579 34.3713 25.5387 34.7427 25.3888C35.1142 25.239 35.4349 24.9858 35.6669 24.6593C35.4077 24.9111 35.0931 25.0989 34.7483 25.2074C34.4035 25.316 34.0381 25.3423 33.6813 25.2844Z" fill="#E49D00"/>
<path d="M32.2095 26.4226C30.9225 26.3123 29.5987 25.2827 29.0471 24.8047L28.8633 24.8782C29.8561 25.7607 31.0696 26.5697 32.1359 26.6065C32.3822 26.6212 32.6283 26.5753 32.8527 26.4727C33.0771 26.3701 33.2729 26.214 33.4229 26.0181C33.2657 26.1749 33.0743 26.293 32.8638 26.3632C32.6532 26.4333 32.4292 26.4537 32.2095 26.4226Z" fill="#E49D00"/>
<path d="M30.3361 26.9766C29.4904 26.6824 28.7182 25.8366 28.2034 25.0645H28.0195L28.3137 25.5057C28.3505 25.5425 28.3505 25.5792 28.3872 25.5792C28.8381 26.2234 29.4455 26.7422 30.1523 27.0869C30.3606 27.1783 30.5895 27.2129 30.8156 27.187C31.0417 27.1612 31.2569 27.0759 31.4393 26.9398H31.476C31.1155 27.1008 30.7062 27.114 30.3361 26.9766Z" fill="#E49D00"/>
<path d="M31.8451 21.9732C32.1417 21.649 32.4895 21.3757 32.8747 21.1643C36.0738 19.0315 38.0227 18.0019 40.4863 16.3472C40.4923 16.2598 40.4797 16.1721 40.4496 16.0898H40.4863L36.3312 18.7374L32.8012 20.9804C32.4081 21.1966 32.0489 21.4691 31.7348 21.7894C30.8523 22.7087 29.4918 23.9221 27.3223 24.1427L27.4326 24.2898C28.168 24.253 29.933 23.9221 31.8451 21.9732Z" fill="#FFF4CD"/>
<path d="M32.5386 22.713L32.2812 22.9336C34.5031 22.3783 36.6791 21.653 38.7897 20.7641C38.81 20.6921 38.8223 20.6181 38.8265 20.5435C36.7729 21.384 34.6736 22.1083 32.5386 22.713Z" fill="#FFF4CD"/>
<path d="M36.0671 23.9976C33.7873 24.0711 32.0591 24.0711 30.7721 23.9976L30.625 24.0711C32.412 24.1954 34.205 24.2077 35.9936 24.1079V23.9976H36.0671Z" fill="#FFF4CD"/>
<path d="M29.5983 24.6218H29.4512C30.7495 25.2119 32.1229 25.6203 33.5328 25.8353V25.725C32.187 25.4928 30.8686 25.1231 29.5983 24.6218Z" fill="#FFF4CD"/>
<path d="M31.6932 26.7556C30.443 26.4615 29.3399 25.5422 28.6045 24.9539H28.4941C29.7444 26.1305 30.8107 26.6453 31.5829 26.7924L31.6932 26.7556Z" fill="#FFF4CD"/>
<path d="M22.4305 27.7113C22.1934 27.7776 21.9442 27.7888 21.7021 27.7442C21.4599 27.6996 21.2312 27.6003 21.0332 27.4539L21.2171 27.3804C21.397 27.4905 21.5984 27.5606 21.8078 27.5859C22.0171 27.6113 22.2295 27.5914 22.4305 27.5275V27.7113Z" fill="#E49D00"/>
<path d="M12.6118 20.2484C12.2676 20.0641 11.9635 19.8131 11.7173 19.5101C11.4711 19.2071 11.2877 18.858 11.1777 18.4834C11.4625 19.0329 11.8956 19.4915 12.428 19.8072C12.428 19.8072 13.8253 20.7264 19.01 22.2708C19.01 22.2708 21.4369 24.5874 23.7167 24.7345L23.5696 24.9184C21.0324 24.5139 19.01 22.5282 19.01 22.5282C16.8939 21.9253 14.8182 21.1884 12.7957 20.322L12.6118 20.2484Z" fill="#E49D00"/>
<path d="M15.0758 23.5188C16.7305 23.6291 18.7529 23.6659 20.0767 23.6291H20.1502L20.3709 23.7762C18.6057 23.8409 16.8385 23.8163 15.0758 23.7027C14.6725 23.6422 14.288 23.4918 13.9507 23.2626C13.6134 23.0335 13.3318 22.7315 13.127 22.3789C13.6044 22.9969 14.3031 23.4056 15.0758 23.5188Z" fill="#E49D00"/>
<path d="M17.763 25.2844C18.9985 25.0902 20.2161 24.7951 21.4033 24.4019L21.624 24.5122C20.406 24.9942 19.1343 25.3275 17.8365 25.505C17.4483 25.5762 17.0479 25.5343 16.6828 25.3844C16.3177 25.2344 16.0034 24.9827 15.7773 24.6593C16.0332 24.9162 16.3474 25.1072 16.6933 25.2161C17.0391 25.325 17.4061 25.3484 17.763 25.2844Z" fill="#E49D00"/>
<path d="M19.2326 26.4226C20.5196 26.3123 21.8434 25.2827 22.395 24.8047L22.5788 24.8782C21.586 25.7607 20.3725 26.5697 19.3062 26.6065C19.0599 26.6212 18.8138 26.5753 18.5894 26.4727C18.365 26.3701 18.1692 26.214 18.0192 26.0181H17.9824C18.1482 26.1733 18.3463 26.2901 18.5624 26.36C18.7785 26.4299 19.0073 26.4513 19.2326 26.4226Z" fill="#E49D00"/>
<path d="M21.1087 26.9766C21.9176 26.6824 22.7266 25.8366 23.2414 25.0645H23.4252L23.1311 25.5057C23.0943 25.5425 23.0943 25.5792 23.0575 25.5792C22.5987 26.2162 21.9933 26.7333 21.2925 27.0869C21.0841 27.1783 20.8552 27.2129 20.6292 27.187C20.4031 27.1612 20.1879 27.0759 20.0055 26.9398H19.9688C20.3292 27.1008 20.7385 27.114 21.1087 26.9766Z" fill="#E49D00"/>
<path d="M19.5944 21.9732C19.2896 21.658 18.9432 21.3858 18.5648 21.1643C15.3657 19.0315 13.4168 18.0019 10.9531 16.3472V16.0898L15.1083 18.7374L18.6383 20.9804C19.0235 21.1918 19.3714 21.4651 19.6679 21.7894C20.5872 22.7087 21.9477 23.9221 24.1172 24.1427L24.0069 24.2898C23.2715 24.253 21.5065 23.9221 19.5944 21.9732Z" fill="#FFF4CD"/>
<path d="M18.8992 22.713L19.1566 22.9336C16.9241 22.3735 14.7364 21.6483 12.6113 20.7641V20.5435C14.6649 21.384 16.7642 22.1083 18.8992 22.713Z" fill="#FFF4CD"/>
<path d="M15.3672 23.9976C17.647 24.0711 19.3752 24.0711 20.6622 23.9976L20.8093 24.0711C19.0223 24.1954 17.2293 24.2077 15.4407 24.1079L15.3672 23.9976Z" fill="#FFF4CD"/>
<path d="M21.8408 24.6218H21.9879C20.6878 25.2072 19.315 25.6154 17.9062 25.8353V25.725C19.252 25.4928 20.5704 25.1231 21.8408 24.6218Z" fill="#FFF4CD"/>
<path d="M19.7441 26.7556C20.9944 26.4615 22.0975 25.5422 22.7961 24.9539H22.9432C21.693 26.1305 20.6266 26.6453 19.8177 26.7924L19.7441 26.7556Z" fill="#FFF4CD"/>
<path d="M29.6758 30.7614L29.7494 30.5775C29.13 30.5125 28.5551 30.2251 28.1315 29.7686C28.102 29.8339 28.0497 29.8862 27.9844 29.9156C28.4227 30.399 29.0261 30.7008 29.6758 30.7614Z" fill="#FFF4CD"/>
<path d="M28.1653 32.3451C27.7104 31.8078 27.3723 31.1817 27.1725 30.5066L27.0254 30.5801C27.0989 30.9111 27.4666 32.1245 28.055 32.6025C28.065 32.6177 28.0787 32.6302 28.0947 32.6388C28.1108 32.6474 28.1287 32.6519 28.1469 32.6519C28.1651 32.6519 28.183 32.6474 28.1991 32.6388C28.2151 32.6302 28.2288 32.6177 28.2388 32.6025L28.3859 32.4555L28.1653 32.3451Z" fill="#E49D00"/>
<path d="M28.9395 28.0798C29.4782 28.2347 30.0554 28.1822 30.5574 27.9327H30.5942V27.7856C30.3132 27.9449 29.9977 28.0333 29.6749 28.043H28.9762C28.9655 28.0567 28.9531 28.0691 28.9395 28.0798Z" fill="#FFF4CD"/>
<path d="M29.8198 30.1367C29.2806 30.085 28.7749 29.8516 28.3857 29.4749L28.2754 29.6219C28.6737 30.0191 29.1895 30.2771 29.7462 30.3574L29.9301 30.247C29.9669 30.2103 29.9669 30.1367 30.0036 30.1L29.8198 30.1367Z" fill="#E49D00"/>
<path d="M27.9426 32.8971C27.6852 32.6765 27.2071 32.1617 26.7659 30.6541L26.582 30.7276C27.1336 32.8236 27.9426 32.8971 27.9426 32.8971Z" fill="#FFF4CD"/>
<path d="M26.329 33.5221C26.2554 32.9338 26.1819 31.4629 26.1819 30.801H25.998C25.998 31.0217 26.0348 33.3015 26.1084 33.9266H26.1451C26.7554 33.6356 27.3243 33.2646 27.8366 32.8234C27.4526 33.1862 27.0034 33.4732 26.5128 33.6692C26.4761 33.6692 26.329 33.7059 26.329 33.5221Z" fill="#E49D00"/>
<path d="M21.763 30.7614C21.718 30.7104 21.692 30.6455 21.6895 30.5775C22.3044 30.4974 22.8744 30.2124 23.3074 29.7686L23.4177 29.9156C22.9977 30.4027 22.4038 30.7063 21.763 30.7614Z" fill="#FFF4CD"/>
<path d="M23.2711 32.3451C23.7165 31.807 24.0424 31.1803 24.2271 30.5066L24.411 30.5801C24.3007 30.9111 23.9697 32.1245 23.3814 32.6025C23.3713 32.6177 23.3577 32.6302 23.3416 32.6388C23.3256 32.6474 23.3077 32.6519 23.2895 32.6519C23.2713 32.6519 23.2533 32.6474 23.2373 32.6388C23.2213 32.6302 23.2076 32.6177 23.1975 32.6025L23.0137 32.4555L23.2711 32.3451Z" fill="#E49D00"/>
<path d="M22.4656 28.0798C21.9262 28.2277 21.3515 28.1755 20.8477 27.9327V27.7856C21.1171 27.9406 21.4197 28.0288 21.7302 28.043H22.4656V28.0798Z" fill="#FFF4CD"/>
<path d="M21.6214 30.1367C22.1606 30.085 22.6662 29.8516 23.0554 29.4749L23.1657 29.6219C22.7675 30.0191 22.2516 30.2771 21.6949 30.3574C21.6566 30.3605 21.6182 30.3516 21.5852 30.3318C21.5522 30.312 21.5263 30.2824 21.511 30.247C21.4743 30.2103 21.4743 30.1367 21.4375 30.1L21.6214 30.1367Z" fill="#E49D00"/>
<path d="M23.4961 32.8971C23.7535 32.6765 24.2315 32.1617 24.6728 30.6541L24.8199 30.7276C24.3051 32.8236 23.4961 32.8971 23.4961 32.8971Z" fill="#FFF4CD"/>
<path d="M25.115 33.5221C25.1886 32.9338 25.2254 31.4629 25.2621 30.801H25.4092C25.4092 31.0217 25.4092 33.3015 25.3357 33.9266C25.3259 33.9266 25.3166 33.9304 25.3097 33.9373C25.3028 33.9442 25.2989 33.9536 25.2989 33.9633C24.6831 33.6823 24.1129 33.3105 23.6074 32.8602C24.0032 33.1706 24.4516 33.4073 24.9312 33.5589C24.968 33.6692 25.115 33.7059 25.115 33.5221Z" fill="#E49D00"/>
<path d="M24.6708 23.7047C24.8889 23.2865 24.9785 22.8131 24.9282 22.3442C24.8914 22.3442 24.156 22.0132 24.1927 22.3809C24.2295 22.7486 23.9353 21.9029 24.2663 21.7558C24.4253 21.7143 24.5936 21.7273 24.7443 21.7926L25.112 21.8661C25.2791 21.7308 25.4855 21.6534 25.7004 21.6455C25.4053 21.5378 25.0839 21.5249 24.7811 21.6087C24.9282 21.1675 25.3327 21.1675 25.7004 21.241C25.9149 21.3224 26.1365 21.384 26.3622 21.4249C26.5372 21.4606 26.7191 21.4346 26.877 21.3513C26.9099 21.4082 26.927 21.4727 26.9264 21.5384C26.9259 21.604 26.9078 21.6683 26.874 21.7246C26.8403 21.7809 26.792 21.8271 26.7344 21.8584C26.6767 21.8898 26.6117 21.9051 26.5461 21.9029C26.5461 21.9029 26.4726 23.2267 26.8403 23.8885C27.0332 24.2255 27.2546 24.5454 27.5022 24.8446C26.9767 24.4857 26.3551 24.2937 25.7188 24.2937C25.0824 24.2937 24.4609 24.4857 23.9353 24.8446C24.1192 24.5504 24.5605 23.9253 24.6708 23.7047ZM40.7766 15.8724C40.7766 15.4679 40.5191 15.6518 40.5191 15.6518C37.651 17.6007 33.6797 20.1011 32.503 20.8365C32.0415 21.1645 31.6107 21.5337 31.216 21.9397C29.1936 23.9621 27.208 23.8885 27.1712 23.8885C27.1344 23.8885 26.8035 22.05 26.8035 22.05C27.4286 21.8294 27.0241 20.9468 27.0241 20.9468C26.9208 21.0513 26.7897 21.1241 26.6464 21.1566C26.5031 21.1892 26.3535 21.1802 26.2152 21.1307C26.055 21.0481 25.88 20.9981 25.7004 20.9836C24.634 20.8365 24.5237 21.5352 24.5237 21.5352C24.392 21.4985 24.2513 21.512 24.129 21.5732C24.0067 21.6343 23.9115 21.7387 23.8618 21.8661C23.7147 22.3809 24.2663 22.6383 24.2663 22.6383L24.7075 22.528C24.7052 23.0163 24.551 23.4918 24.2663 23.8885C24.156 23.8885 22.2071 23.9253 20.1847 21.9397C19.7987 21.5245 19.367 21.1544 18.8977 20.8365C17.7578 20.1011 13.7865 17.6007 10.8816 15.6518C10.8816 15.6518 10.661 15.4679 10.661 15.8724C10.5139 17.6374 10.7713 19.476 12.3157 20.4321C12.3157 20.4321 12.1318 23.4105 15.0735 23.9989C15.0735 23.9989 15.6986 25.8374 17.6107 25.7639C17.7182 26.0185 17.884 26.2444 18.0948 26.4232C18.3056 26.602 18.5554 26.7288 18.8242 26.7935C19.0551 26.8355 19.2918 26.8355 19.5228 26.7935C19.6173 26.98 19.7583 27.1389 19.9322 27.2549C20.1062 27.3708 20.3071 27.4399 20.5156 27.4553C20.6228 29.0204 21.1649 30.5243 22.081 31.7977C22.9971 33.0711 24.2506 34.0633 25.7004 34.6625C30.8851 32.3827 30.9219 27.4553 30.9219 27.4553C31.126 27.441 31.3224 27.3719 31.4906 27.2555C31.6589 27.139 31.7926 26.9794 31.8779 26.7935C32.1212 26.836 32.3701 26.836 32.6133 26.7935C32.8821 26.7288 33.1319 26.602 33.3427 26.4232C33.5535 26.2444 33.7193 26.0185 33.8268 25.7639C35.7389 25.8374 36.364 23.9989 36.364 23.9989C39.3057 23.4105 39.1218 20.4321 39.1218 20.4321C40.6662 19.476 40.9236 17.6374 40.7766 15.8724ZM10.9551 16.0931L18.6403 20.9836C19.0255 21.195 19.3734 21.4683 19.6699 21.7926C20.5892 22.7119 21.9497 23.9253 24.1192 24.1459L23.5676 24.9181C21.0304 24.5136 19.008 22.528 19.008 22.528C16.8919 21.9251 14.8162 21.1882 12.7937 20.3217L12.6098 20.2482C10.5506 19.2554 10.9551 16.0931 10.9551 16.0931ZM12.6098 20.5424C14.6634 21.3829 16.7627 22.1072 18.8977 22.7119C18.8977 22.7119 19.3757 23.1163 20.1479 23.6679L20.3685 23.815C18.6034 23.8797 16.8361 23.8551 15.0735 23.7415C12.6098 23.3002 12.6098 20.5424 12.6098 20.5424ZM15.3677 23.9989C17.6475 24.0724 19.3757 24.0724 20.6627 23.9989C20.9615 24.2051 21.2821 24.3778 21.6188 24.5136C20.4008 24.9957 19.1291 25.329 17.8313 25.5065C17.3106 25.5713 16.7833 25.4575 16.3358 25.1836C15.8882 24.9097 15.5469 24.492 15.3677 23.9989ZM19.3022 26.6096C19.004 26.6411 18.7037 26.5759 18.4454 26.4236C18.1872 26.2713 17.9848 26.04 17.8681 25.7639C19.2277 25.5223 20.5586 25.1402 21.8394 24.624L22.5748 24.8814C21.582 25.7639 20.3685 26.5728 19.3022 26.6096ZM19.7434 26.7567C20.9937 26.4625 22.0968 25.5432 22.7954 24.9549H22.9058L23.4206 25.0652C23.3473 25.1961 23.261 25.3193 23.1632 25.4329L22.9793 25.6903C22.5241 26.2739 21.9468 26.7508 21.2878 27.0876C21.029 27.2057 20.739 27.2373 20.4609 27.1777C20.1827 27.1181 19.9311 26.9705 19.7434 26.7567ZM22.4277 27.7127C22.1906 27.779 21.9415 27.7902 21.6993 27.7456C21.4572 27.701 21.2284 27.6017 21.0304 27.4553C21.62 27.2539 22.1593 26.9278 22.6116 26.4993C22.4941 26.8427 22.432 27.2027 22.4277 27.5657V27.7127ZM21.5085 30.25C21.1631 29.5061 20.9396 28.7115 20.8466 27.8966V27.7495C21.3298 28.0112 21.8913 28.0896 22.4277 27.9701C22.5015 28.5939 22.7573 29.1822 23.1632 29.6616C22.7591 30.0506 22.246 30.3072 21.6923 30.397C21.6493 30.3979 21.6073 30.3837 21.5737 30.3568C21.5402 30.3299 21.517 30.2921 21.5085 30.25ZM23.3838 32.6033C23.37 32.619 23.353 32.6315 23.334 32.6401C23.315 32.6487 23.2943 32.6531 23.2735 32.6531C23.2526 32.6531 23.232 32.6487 23.213 32.6401C23.1939 32.6315 23.177 32.619 23.1632 32.6033C22.561 32.0181 22.0635 31.3341 21.6923 30.5809C22.3072 30.5008 22.8772 30.2158 23.3102 29.7719C23.6019 30.1323 23.982 30.411 24.4134 30.5809C24.3031 30.9118 23.9721 32.1253 23.3838 32.6033ZM25.4062 31.0957C25.4062 31.7943 25.4062 33.7432 25.2959 34.0742C24.646 33.7632 24.0401 33.3675 23.4941 32.8975C23.7515 32.7136 24.2295 32.1621 24.6708 30.6912L25.4062 30.8383V31.0957ZM25.7004 30.6177C25.0967 30.6177 24.5067 30.4387 24.0048 30.1033C23.5029 29.7679 23.1117 29.2913 22.8807 28.7336C22.6497 28.1759 22.5892 27.5623 22.707 26.9702C22.8248 26.3782 23.1154 25.8344 23.5423 25.4076C23.9691 24.9807 24.5129 24.6901 25.1049 24.5723C25.697 24.4545 26.3106 24.515 26.8683 24.746C27.426 24.977 27.9027 25.3682 28.238 25.8701C28.5734 26.372 28.7524 26.962 28.7524 27.5657C28.7524 28.3751 28.4308 29.1514 27.8585 29.7238C27.2861 30.2961 26.5098 30.6177 25.7004 30.6177ZM26.1416 34.0742C26.0313 33.7432 26.0313 31.7943 25.9945 31.0957V30.8383C26.2604 30.8205 26.5214 30.7583 26.7667 30.6544C27.208 32.1621 27.686 32.6768 27.9434 32.8975C27.3974 33.3675 26.7915 33.7632 26.1416 34.0742ZM28.2376 32.6033C28.2275 32.6185 28.2139 32.6309 28.1978 32.6395C28.1818 32.6481 28.1639 32.6526 28.1456 32.6526C28.1274 32.6526 28.1095 32.6481 28.0935 32.6395C28.0774 32.6309 28.0638 32.6185 28.0537 32.6033C27.4654 32.1253 27.0977 30.9118 27.0241 30.5809C27.4477 30.3971 27.8246 30.1206 28.1273 29.7719C28.5509 30.2284 29.1258 30.5159 29.7452 30.5809C29.3739 31.3436 28.8625 32.0296 28.2376 32.6033ZM30.5909 27.8598C30.4806 28.6712 30.2578 29.4632 29.9291 30.2132L29.7452 30.3235C29.1885 30.2432 28.6726 29.9853 28.2743 29.5881C28.655 29.0973 28.8963 28.513 28.973 27.8966C29.5216 28.0121 30.0933 27.9342 30.5909 27.676V27.8598ZM28.8259 26.4993C29.2669 26.9424 29.8098 27.2707 30.4071 27.4553C30.2091 27.6017 29.9803 27.701 29.7382 27.7456C29.496 27.7902 29.2469 27.779 29.0098 27.7127V27.5657C29.0055 27.2027 28.9434 26.8427 28.8259 26.4993ZM30.1497 27.1244C29.4429 26.7798 28.8355 26.261 28.3847 25.6168C28.3479 25.6168 28.3479 25.58 28.3111 25.5432L28.0169 25.102L28.5317 24.9917H28.6053C29.3407 25.58 30.4438 26.4993 31.6941 26.7935C31.5064 27.0073 31.2548 27.1549 30.9766 27.2145C30.6985 27.2741 30.4085 27.2425 30.1497 27.1244ZM32.1353 26.6096C31.069 26.5728 29.8555 25.7639 28.8627 24.8814L29.5981 24.624C30.8789 25.1402 32.2098 25.5223 33.5694 25.7639C33.4527 26.04 33.2503 26.2713 32.9921 26.4236C32.7338 26.5759 32.4335 26.6411 32.1353 26.6096ZM36.0331 23.9989C35.8597 24.496 35.5195 24.9178 35.0704 25.1926C34.6213 25.4674 34.091 25.5783 33.5694 25.5065C32.2844 25.3244 31.0255 24.9912 29.8187 24.5136C30.1554 24.3778 30.476 24.2051 30.7748 23.9989C32.0618 24.0724 33.79 24.0724 36.0698 23.9989H36.0331ZM36.3272 23.7415C34.5646 23.8553 32.7973 23.8799 31.0322 23.815L31.2896 23.6679C32.0618 23.1163 32.5398 22.7119 32.5398 22.7119C34.6748 22.1072 36.7741 21.3829 38.8277 20.5424C38.8277 20.5424 38.8277 23.3002 36.3272 23.7415ZM38.8277 20.2482L38.607 20.3217C36.5972 21.1886 34.5338 21.9255 32.4295 22.528C32.4295 22.528 30.4071 24.5136 27.8699 24.9181C27.673 24.6702 27.489 24.4125 27.3183 24.1459C29.4878 23.9253 30.8483 22.7119 31.7308 21.7926C32.0449 21.4723 32.4042 21.1998 32.7972 20.9836L40.4824 16.0931H40.4456C40.4456 16.0931 40.8869 19.2554 38.8277 20.2482Z" fill="#001A60"/>
<path d="M25.7006 24.2545C26.3416 24.2619 26.967 24.4534 27.5024 24.806C27.2548 24.5068 27.0334 24.187 26.8405 23.85C26.4728 23.1881 26.5463 21.8644 26.5463 21.8644C26.6119 21.8666 26.6769 21.8513 26.7346 21.8199C26.7922 21.7885 26.8405 21.7423 26.8742 21.686C26.908 21.6298 26.9261 21.5655 26.9266 21.4998C26.9271 21.4342 26.9101 21.3696 26.8772 21.3128C26.7193 21.3961 26.5374 21.4221 26.3624 21.3863C26.1367 21.3454 25.9151 21.2839 25.7006 21.2025C25.3329 21.1289 24.9284 21.1289 24.7813 21.5702C25.0841 21.4864 25.4055 21.4992 25.7006 21.607C25.4857 21.6149 25.2793 21.6923 25.1122 21.8276L24.7445 21.754C24.5938 21.6887 24.4255 21.6758 24.2665 21.7173C23.9355 21.8644 24.0826 22.2321 24.1929 22.3424C24.3033 22.4527 24.8916 22.3056 24.9284 22.3056C24.9787 22.7746 24.8891 23.248 24.671 23.6661C24.5607 23.8868 24.1194 24.5119 23.9355 24.7693C24.4643 24.4362 25.0757 24.2579 25.7006 24.2545Z" fill="url(#paint21_linear_1465_51822)"/>
<path d="M25.7044 21.4599L26.3663 21.6437C26.5508 21.6683 26.7383 21.6558 26.9179 21.607C26.9268 21.5074 26.9143 21.4071 26.8811 21.3128C26.7232 21.3961 26.5413 21.4221 26.3663 21.3863C26.1405 21.3454 25.919 21.2839 25.7044 21.2025C25.3367 21.1289 24.9322 21.1289 24.7852 21.5702H25.0058C25.105 21.4975 25.2202 21.4495 25.3417 21.4303C25.4633 21.4111 25.5876 21.4213 25.7044 21.4599Z" fill="#FFF4CD"/>
<path d="M24.2672 22.0135C24.4386 21.9742 24.6179 21.987 24.782 22.0502L25.1497 22.1606C25.2857 21.9439 25.4758 21.7665 25.7013 21.6458C25.5473 21.645 25.3955 21.6829 25.26 21.7561L25.1129 21.8664L24.8555 21.7928C24.671 21.707 24.461 21.6939 24.2672 21.7561C24.2268 21.7681 24.1895 21.7886 24.1577 21.8162C24.1259 21.8439 24.1004 21.878 24.083 21.9164C24.0656 21.9547 24.0566 21.9964 24.0566 22.0385C24.0567 22.0806 24.0658 22.1223 24.0833 22.1606C24.1287 22.0944 24.1927 22.0432 24.2672 22.0135Z" fill="#FFF4CD"/>
</g>
<defs>
<filter id="filter0_d_1465_51822" x="0" y="0" width="50" height="52" filterUnits="userSpaceOnUse" color-interpolation-filters="sRGB">
<feFlood flood-opacity="0" result="BackgroundImageFix"/>
<feColorMatrix in="SourceAlpha" type="matrix" values="0 0 0 0 0 0 0 0 0 0 0 0 0 0 0 0 0 0 127 0" result="hardAlpha"/>
<feOffset dy="4"/>
<feGaussianBlur stdDeviation="1"/>
<feComposite in2="hardAlpha" operator="out"/>
<feColorMatrix type="matrix" values="0 0 0 0 0 0 0 0 0 0 0 0 0 0 0 0 0 0 0.25 0"/>
<feBlend mode="normal" in2="BackgroundImageFix" result="effect1_dropShadow_1465_51822"/>
<feBlend mode="normal" in="SourceGraphic" in2="effect1_dropShadow_1465_51822" result="shape"/>
</filter>
<radialGradient id="paint0_radial_1465_51822" cx="0" cy="0" r="1" gradientUnits="userSpaceOnUse" gradientTransform="translate(21.1189 15.6978) scale(15.7204)">
<stop stop-color="#FEE7A9"/>
<stop offset="0.46" stop-color="#FFD900"/>
<stop offset="1" stop-color="#E49D00"/>
</radialGradient>
<linearGradient id="paint1_linear_1465_51822" x1="21.7133" y1="17.1837" x2="26.7362" y2="23.4826" gradientUnits="userSpaceOnUse">
<stop stop-color="#002F82"/>
<stop offset="1" stop-color="#001A60"/>
</linearGradient>
<linearGradient id="paint2_linear_1465_51822" x1="21.0938" y1="27.6328" x2="19.6671" y2="18.7047" gradientUnits="userSpaceOnUse">
<stop stop-color="#CA8200"/>
<stop offset="0.3" stop-color="#E1A504"/>
<stop offset="1" stop-color="#CA8200"/>
</linearGradient>
<linearGradient id="paint3_linear_1465_51822" x1="23.2061" y1="35.547" x2="9.47202" y2="3.31708" gradientUnits="userSpaceOnUse">
<stop stop-color="#FEDA5D"/>
<stop offset="1" stop-color="#996100"/>
</linearGradient>
<linearGradient id="paint4_linear_1465_51822" x1="21.0222" y1="27.1268" x2="22.607" y2="27.1268" gradientUnits="userSpaceOnUse">
<stop stop-color="#FEE7A9"/>
<stop offset="0.46" stop-color="#FFD900"/>
<stop offset="1" stop-color="#E49D00"/>
</linearGradient>
<linearGradient id="paint5_linear_1465_51822" x1="19.7515" y1="26.0882" x2="23.4139" y2="26.0882" gradientUnits="userSpaceOnUse">
<stop stop-color="#FEE7A9"/>
<stop offset="0.46" stop-color="#FFD900"/>
<stop offset="1" stop-color="#E49D00"/>
</linearGradient>
<linearGradient id="paint6_linear_1465_51822" x1="12.6187" y1="22.2055" x2="20.3848" y2="22.2055" gradientUnits="userSpaceOnUse">
<stop stop-color="#FEE7A9"/>
<stop offset="0.46" stop-color="#FFD900"/>
<stop offset="1" stop-color="#E49D00"/>
</linearGradient>
<linearGradient id="paint7_linear_1465_51822" x1="11.1455" y1="17.8144" x2="25.6333" y2="25.5805" gradientUnits="userSpaceOnUse">
<stop stop-color="#FEE7A9"/>
<stop offset="0.46" stop-color="#FFD900"/>
<stop offset="1" stop-color="#E49D00"/>
</linearGradient>
<linearGradient id="paint8_linear_1465_51822" x1="15.3782" y1="24.7661" x2="21.6256" y2="24.7661" gradientUnits="userSpaceOnUse">
<stop stop-color="#FEE7A9"/>
<stop offset="0.46" stop-color="#FFD900"/>
<stop offset="1" stop-color="#E49D00"/>
</linearGradient>
<linearGradient id="paint9_linear_1465_51822" x1="17.8525" y1="25.6146" x2="22.5849" y2="25.6146" gradientUnits="userSpaceOnUse">
<stop stop-color="#FEE7A9"/>
<stop offset="0.46" stop-color="#FFD900"/>
<stop offset="1" stop-color="#E49D00"/>
</linearGradient>
<linearGradient id="paint10_linear_1465_51822" x1="30.413" y1="27.1268" x2="28.8281" y2="27.1268" gradientUnits="userSpaceOnUse">
<stop stop-color="#FEE7A9"/>
<stop offset="0.46" stop-color="#FFD900"/>
<stop offset="1" stop-color="#E49D00"/>
</linearGradient>
<linearGradient id="paint11_linear_1465_51822" x1="31.6819" y1="26.0882" x2="28.0195" y2="26.0882" gradientUnits="userSpaceOnUse">
<stop stop-color="#FEE7A9"/>
<stop offset="0.46" stop-color="#FFD900"/>
<stop offset="1" stop-color="#E49D00"/>
</linearGradient>
<linearGradient id="paint12_linear_1465_51822" x1="38.814" y1="22.2055" x2="31.0479" y2="22.2055" gradientUnits="userSpaceOnUse">
<stop stop-color="#FEE7A9"/>
<stop offset="0.46" stop-color="#FFD900"/>
<stop offset="1" stop-color="#E49D00"/>
</linearGradient>
<linearGradient id="paint13_linear_1465_51822" x1="40.2878" y1="17.8144" x2="25.8036" y2="25.5805" gradientUnits="userSpaceOnUse">
<stop stop-color="#FEE7A9"/>
<stop offset="0.46" stop-color="#FFD900"/>
<stop offset="1" stop-color="#E49D00"/>
</linearGradient>
<linearGradient id="paint14_linear_1465_51822" x1="36.053" y1="24.7661" x2="29.8056" y2="24.7661" gradientUnits="userSpaceOnUse">
<stop stop-color="#FEE7A9"/>
<stop offset="0.46" stop-color="#FFD900"/>
<stop offset="1" stop-color="#E49D00"/>
</linearGradient>
<linearGradient id="paint15_linear_1465_51822" x1="33.5773" y1="25.6146" x2="28.8449" y2="25.6146" gradientUnits="userSpaceOnUse">
<stop stop-color="#FEE7A9"/>
<stop offset="0.46" stop-color="#FFD900"/>
<stop offset="1" stop-color="#E49D00"/>
</linearGradient>
<linearGradient id="paint16_linear_1465_51822" x1="25.7137" y1="24.3803" x2="25.7137" y2="30.6094" gradientUnits="userSpaceOnUse">
<stop stop-color="#FEE7A9"/>
<stop offset="0.46" stop-color="#FFD900"/>
<stop offset="1" stop-color="#E49D00"/>
</linearGradient>
<radialGradient id="paint17_radial_1465_51822" cx="0" cy="0" r="1" gradientUnits="userSpaceOnUse" gradientTransform="translate(25.7005 27.5475) scale(2.02389)">
<stop stop-color="#036EB8"/>
<stop offset="0.57" stop-color="#003894"/>
</radialGradient>
<linearGradient id="paint18_linear_1465_51822" x1="25.3653" y1="27.7411" x2="27.373" y2="28.2854" gradientUnits="userSpaceOnUse">
<stop stop-color="#FEE7A9"/>
<stop offset="0.46" stop-color="#FFD900"/>
<stop offset="1" stop-color="#E49D00"/>
</linearGradient>
<radialGradient id="paint19_radial_1465_51822" cx="0" cy="0" r="1" gradientUnits="userSpaceOnUse" gradientTransform="translate(25.9754 27.8403) scale(2.79461 2.79461)">
<stop stop-color="#036EB8"/>
<stop offset="0.57" stop-color="#003894"/>
</radialGradient>
<radialGradient id="paint20_radial_1465_51822" cx="0" cy="0" r="1" gradientUnits="userSpaceOnUse" gradientTransform="translate(25.671 27.6361) scale(1.77678)">
<stop stop-color="#E6002D"/>
<stop offset="0.22" stop-color="#DB032B"/>
<stop offset="0.6" stop-color="#BE0C24"/>
<stop offset="1" stop-color="#99161C"/>
</radialGradient>
<linearGradient id="paint21_linear_1465_51822" x1="25.7189" y1="21.3827" x2="25.7189" y2="24.8575" gradientUnits="userSpaceOnUse">
<stop stop-color="#FEE7A9"/>
<stop offset="0.46" stop-color="#FFD900"/>
<stop offset="1" stop-color="#E49D00"/>
</linearGradient>
</defs>
</svg>
