<svg width="24" height="19" viewBox="0 0 24 19" fill="none" xmlns="http://www.w3.org/2000/svg">
<path d="M16.5 19H2.4C1.74 19 1.175 18.7674 0.705 18.3023C0.235 17.8372 0 17.2781 0 16.625V2.375C0 1.72187 0.235 1.16276 0.705 0.697656C1.175 0.232552 1.74 0 2.4 0H21.6C22.26 0 22.825 0.232552 23.295 0.697656C23.765 1.16276 24 1.72187 24 2.375V16.625C24 17.2781 23.765 17.8372 23.295 18.3023C22.825 18.7674 22.26 19 21.6 19H19.92L14.28 13.4187C13.86 13.6958 13.405 13.9036 12.915 14.0422C12.425 14.1807 11.92 14.25 11.4 14.25C9.9 14.25 8.625 13.7305 7.575 12.6914C6.525 11.6523 6 10.3906 6 8.90625C6 7.42188 6.525 6.16016 7.575 5.12109C8.625 4.08203 9.9 3.5625 11.4 3.5625C12.9 3.5625 14.175 4.08203 15.225 5.12109C16.275 6.16016 16.8 7.42188 16.8 8.90625C16.8 9.44063 16.73 9.94531 16.59 10.4203C16.45 10.8953 16.24 11.3406 15.96 11.7562L20.88 16.625H21.6V2.375H2.4V16.625H14.1L16.5 19ZM11.4 11.875C12.24 11.875 12.95 11.588 13.53 11.0141C14.11 10.4401 14.4 9.7375 14.4 8.90625C14.4 8.075 14.11 7.3724 13.53 6.79844C12.95 6.22448 12.24 5.9375 11.4 5.9375C10.56 5.9375 9.85 6.22448 9.27 6.79844C8.69 7.3724 8.4 8.075 8.4 8.90625C8.4 9.7375 8.69 10.4401 9.27 11.0141C9.85 11.588 10.56 11.875 11.4 11.875Z" fill="white"/>
</svg>
