<svg width="22" height="24" viewBox="0 0 22 24" fill="none" xmlns="http://www.w3.org/2000/svg">
<path d="M1.22018 24H0.266055V21.6H1.22018C2.17431 21.6 3.08372 21.495 3.94839 21.285C4.81307 21.075 5.78211 20.74 6.8555 20.28C7.61086 20.66 8.27179 20.975 8.8383 21.225C9.40482 21.475 10.1254 21.6 11 21.6C11.8746 21.6 12.5952 21.475 13.1617 21.225C13.7282 20.975 14.3891 20.66 15.1445 20.28C16.198 20.74 17.167 21.075 18.0516 21.285C18.9362 21.495 19.8555 21.6 20.8096 21.6H21.7339V24H20.8096C19.8356 24 18.8865 23.91 17.9622 23.73C17.0378 23.55 16.1284 23.28 15.2339 22.92C14.4388 23.3 13.7133 23.57 13.0573 23.73C12.4014 23.89 11.7156 23.97 11 23.97C10.2844 23.97 9.60359 23.89 8.95757 23.73C8.31154 23.57 7.59098 23.3 6.79587 22.92C5.90138 23.28 4.99197 23.55 4.06766 23.73C3.14335 23.91 2.19419 24 1.22018 24ZM11 19.2C9.80734 19.2 8.76376 18.8 7.86927 18L6.52752 16.8C5.99083 17.34 5.38953 17.8 4.72362 18.18C4.05772 18.56 3.3471 18.83 2.59174 18.99L0.0573395 10.8C-0.0420489 10.46 -0.0122324 10.15 0.146789 9.87C0.30581 9.59 0.554281 9.4 0.892202 9.3L2.65138 8.82V4.8C2.65138 4.14 2.88494 3.575 3.35206 3.105C3.81919 2.635 4.38073 2.4 5.0367 2.4H8.01835V0H13.9817V2.4H16.9633C17.6193 2.4 18.1808 2.635 18.6479 3.105C19.1151 3.575 19.3486 4.14 19.3486 4.8V8.82L21.1078 9.3C21.4457 9.4 21.6942 9.59 21.8532 9.87C22.0122 10.15 22.042 10.46 21.9427 10.8L19.4083 18.99C18.6529 18.83 17.9423 18.56 17.2764 18.18C16.6105 17.8 16.0092 17.34 15.4725 16.8L14.1307 18C13.2362 18.8 12.1927 19.2 11 19.2ZM11.0596 16.8C11.6758 16.8 12.2225 16.595 12.6995 16.185C13.1766 15.775 13.6139 15.34 14.0115 14.88L15.383 13.29L16.6055 14.55C16.8242 14.77 17.0478 14.975 17.2764 15.165C17.505 15.355 17.7286 15.55 17.9472 15.75L19.3188 11.28L11 9.09L2.71101 11.28L4.08257 15.75C4.30122 15.55 4.52485 15.355 4.75344 15.165C4.98203 14.975 5.20566 14.77 5.42431 14.55L6.64679 13.29L8.01835 14.88C8.4159 15.36 8.86315 15.8 9.36009 16.2C9.85703 16.6 10.4235 16.8 11.0596 16.8ZM5.0367 8.19L11 6.6L16.9633 8.19V4.8H5.0367V8.19Z" fill="white"/>
</svg>
