<svg width="43" height="20" viewBox="0 0 43 20" fill="none" xmlns="http://www.w3.org/2000/svg">
<g clip-path="url(#clip0_3321_116911)">
<path d="M5.02622 14.5156L6.95725 9.6746L5.62193 6.58119C4.99508 5.0144 3.47936 3.98712 1.79497 3.98712H0.396467C0.177338 3.98712 0 4.16491 0 4.38459C0 4.54855 0.10016 4.69355 0.248529 4.75398L0.251548 4.7552L0.254592 4.75637C0.758515 4.94936 1.086 5.33349 1.40636 5.9172L5.02622 14.5156Z" fill="#009EDB"/>
<path fill-rule="evenodd" clip-rule="evenodd" d="M20.7095 0H19.3325C17.65 0.00112083 16.1361 1.02744 15.5087 2.59183L11.1398 12.3118C10.6918 13.2698 10.3408 13.873 9.6588 14.1339C9.50057 14.1939 9.40344 14.3451 9.40344 14.506C9.40344 14.7257 9.58077 14.9035 9.79991 14.9035L11.1777 14.9035L11.1785 14.9035C12.8577 14.899 14.3671 13.8738 14.9934 12.3117L19.3128 2.71574C19.7887 1.68872 20.1382 1.04238 20.8508 0.769474C21.0089 0.709455 21.106 0.558286 21.106 0.397468C21.106 0.177785 20.9286 0 20.7095 0Z" fill="#0E4194"/>
<path d="M13.0781 3.57203C11.3956 3.57315 9.88171 4.59941 9.25432 6.16372L6.88758 11.4171C6.88573 11.4212 6.88396 11.4254 6.88229 11.4296L5.66597 14.4765C5.62768 14.5724 5.63935 14.6811 5.69712 14.7667C5.75489 14.8522 5.85123 14.9035 5.95429 14.9035H6.7555L6.75784 14.9035C8.39136 14.8911 9.85891 13.9135 10.5081 12.4166L14.1248 4.03321C14.1302 4.02331 14.1351 4.01306 14.1395 4.00247C14.1875 3.88612 14.161 3.7522 14.0721 3.66317L14.0711 3.66213C14.0062 3.59713 13.9165 3.5646 13.8262 3.57203L13.0781 3.57203Z" fill="#0E4194"/>
<path d="M30.3271 5.53442H29.1615C29.1139 5.53442 29.0756 5.57282 29.0756 5.62056C29.0756 5.65584 29.0974 5.68801 29.1305 5.70151C29.8561 5.97859 29.9307 6.59088 29.9358 7.38685V12.0039C29.9358 13.4329 31.0921 14.5921 32.5175 14.5921H32.9088V8.1216C32.9088 6.69258 31.7526 5.53339 30.3271 5.53339V5.53442Z" fill="#0E4194"/>
<path d="M28.6595 5.53442H27.4939C27.1016 5.53442 26.732 5.62471 26.3987 5.78141C26.0654 5.62471 25.6958 5.53442 25.3035 5.53442H24.1369C24.0893 5.53442 24.051 5.57282 24.051 5.62056C24.051 5.65584 24.0727 5.68801 24.1058 5.70151C24.8315 5.97859 24.906 6.59088 24.9112 7.38685V12.0039C24.9112 12.5622 25.0903 13.078 25.3905 13.5014C25.6006 13.7972 25.8697 14.0452 26.1824 14.231C26.5674 14.4593 27.0136 14.5921 27.4929 14.5921H27.8842V7.38685C27.8893 6.59088 27.9639 5.97963 28.6895 5.70151C28.7227 5.68905 28.7444 5.65688 28.7444 5.62056C28.7444 5.57282 28.7061 5.53442 28.6585 5.53442H28.6595Z" fill="#0E4194"/>
<path d="M37.1986 7.38685C37.2037 6.59088 37.2783 5.97963 38.0039 5.70151C38.0371 5.68905 38.0588 5.65688 38.0588 5.62056C38.0588 5.57282 38.0205 5.53442 37.9729 5.53442H36.8073C35.3819 5.53442 34.2256 6.69362 34.2256 8.12263V12.005C34.2256 13.434 35.3819 14.5932 36.8073 14.5932H37.9729C38.0205 14.5932 38.0588 14.5548 38.0588 14.507C38.0588 14.4717 38.0371 14.4396 38.0039 14.4261C37.2783 14.149 37.2037 13.5357 37.1986 12.7397V7.38789V7.38685Z" fill="#0E4194"/>
<path d="M38.005 19.8339C37.2793 19.5568 37.2048 18.9446 37.1996 18.1486V17.391C37.1996 15.962 36.0433 14.8028 34.6179 14.8028H33.7639C33.7163 14.8028 33.678 14.8412 33.678 14.8889C33.678 14.9242 33.6997 14.9564 33.7328 14.9699C34.4585 15.247 34.533 15.8593 34.5382 16.6552V17.4118C34.5382 18.8408 35.6945 20 37.1199 20H37.9739C38.0215 20 38.0598 19.9616 38.0598 19.9138C38.0598 19.8786 38.0381 19.8464 38.005 19.8329V19.8339Z" fill="#0E4194"/>
<path d="M39.6405 5.53442H38.475C38.4273 5.53442 38.389 5.57282 38.389 5.62056C38.389 5.65584 38.4108 5.68801 38.4439 5.70151C39.1696 5.97859 39.2441 6.59088 39.2493 7.38685V18.1475C39.2441 18.9435 39.1696 19.5558 38.4439 19.8329C38.4108 19.8453 38.389 19.8775 38.389 19.9138C38.389 19.9616 38.4273 20 38.475 20H39.6405C41.066 20 42.2222 18.8408 42.2222 17.4118V8.12263C42.2222 6.69362 41.066 5.53442 39.6405 5.53442Z" fill="#0E4194"/>
<path d="M23.1525 5.53442H21.9745C20.549 5.53442 19.3928 6.69362 19.3928 8.12263V14.5932H19.7965C21.2219 14.5932 22.3782 13.434 22.3782 12.005V7.35987C22.3854 6.57739 22.4662 5.97652 23.1835 5.70151C23.2167 5.68905 23.2384 5.65688 23.2384 5.62056C23.2384 5.57282 23.2001 5.53442 23.1525 5.53442Z" fill="#0E4194"/>
<path d="M21.3831 4.67514C22.2154 4.67514 23.0104 3.99851 23.1564 3.1631C23.3034 2.32873 22.7475 1.6521 21.9142 1.6521C21.0809 1.6521 20.2869 2.32873 20.1409 3.16414C19.9939 3.99851 20.5498 4.67618 21.3831 4.67618V4.67514Z" fill="#0E4194"/>
</g>
<defs>
<clipPath id="clip0_3321_116911">
<rect width="42.2222" height="20" fill="white"/>
</clipPath>
</defs>
</svg>
