<svg width="43" height="21" viewBox="0 0 43 21" fill="none" xmlns="http://www.w3.org/2000/svg">
<g id="Frame 1261160114" clip-path="url(#clip0_1465_50752)">
<g id="Group 1261160109">
<path id="Union" d="M5.43833 15.1401L7.36936 10.299L6.03404 7.20564C5.40719 5.63885 3.89147 4.61157 2.20708 4.61157H0.808577C0.589448 4.61157 0.412109 4.78936 0.412109 5.00904C0.412109 5.173 0.512269 5.318 0.660638 5.37843L0.663657 5.37966L0.666702 5.38082C1.17062 5.57381 1.49811 5.95794 1.81847 6.54165L5.43833 15.1401Z" fill="#009EDB"/>
<path id="Union_2" fill-rule="evenodd" clip-rule="evenodd" d="M21.1225 0.624512H19.7455C18.063 0.625633 16.5491 1.65195 15.9217 3.21634L11.5528 12.9363C11.1047 13.8943 10.7538 14.4975 10.0718 14.7584C9.91354 14.8184 9.81641 14.9696 9.81641 15.1305C9.81641 15.3502 9.99374 15.528 10.2129 15.528L11.5907 15.528L11.5915 15.528C13.2706 15.5235 14.7801 14.4983 15.4064 12.9362L19.7258 3.34026C20.2017 2.31323 20.5512 1.6669 21.2637 1.39399C21.4219 1.33397 21.5189 1.1828 21.5189 1.02198C21.5189 0.802297 21.3416 0.624512 21.1225 0.624512Z" fill="#0E4194"/>
<path id="Union_3" d="M13.491 4.1966C11.8085 4.19772 10.2946 5.22398 9.66722 6.7883L7.30049 12.0417C7.29863 12.0458 7.29686 12.05 7.29519 12.0542L6.07887 15.1011C6.04058 15.197 6.05225 15.3057 6.11002 15.3913C6.16779 15.4768 6.26413 15.5281 6.36719 15.5281H7.16841L7.17075 15.5281C8.80427 15.5157 10.2718 14.538 10.921 13.0412L14.5377 4.65778C14.5431 4.64789 14.548 4.63763 14.5524 4.62705C14.6004 4.51069 14.5739 4.37678 14.485 4.28774L14.484 4.28671C14.4191 4.2217 14.3294 4.18917 14.2391 4.1966L13.491 4.1966Z" fill="#0E4194"/>
</g>
<g id="Group 1261160111">
<path id="Vector" d="M30.7398 6.15875H29.5742C29.5266 6.15875 29.4883 6.19715 29.4883 6.24489C29.4883 6.28017 29.51 6.31234 29.5431 6.32583C30.2688 6.60292 30.3433 7.21521 30.3485 8.01118V12.6282C30.3485 14.0573 31.5048 15.2165 32.9302 15.2165H33.3215V8.74593C33.3215 7.31691 32.1652 6.15771 30.7398 6.15771V6.15875Z" fill="#0E4194"/>
<path id="Vector_2" d="M29.0714 6.15869H27.9058C27.5135 6.15869 27.144 6.24898 26.8106 6.40568C26.4773 6.24898 26.1078 6.15869 25.7154 6.15869H24.5488C24.5012 6.15869 24.4629 6.19709 24.4629 6.24483C24.4629 6.28011 24.4846 6.31228 24.5178 6.32577C25.2434 6.60286 25.3179 7.21515 25.3231 8.01112V12.6282C25.3231 13.1865 25.5022 13.7023 25.8024 14.1257C26.0125 14.4215 26.2817 14.6695 26.5943 14.8552C26.9794 15.0836 27.4255 15.2164 27.9048 15.2164H28.2961V8.01112C28.3013 7.21515 28.3758 6.6039 29.1015 6.32577C29.1346 6.31332 29.1563 6.28115 29.1563 6.24483C29.1563 6.19709 29.118 6.15869 29.0704 6.15869H29.0714Z" fill="#0E4194"/>
</g>
<g id="Group 1261160112">
<path id="Vector_3" d="M37.6097 8.01136C37.6149 7.21539 37.6894 6.60414 38.4151 6.32602C38.4482 6.31356 38.4699 6.28139 38.4699 6.24507C38.4699 6.19733 38.4316 6.15894 38.384 6.15894H37.2184C35.793 6.15894 34.6367 7.31813 34.6367 8.74715V12.6295C34.6367 14.0585 35.793 15.2177 37.2184 15.2177H38.384C38.4316 15.2177 38.4699 15.1793 38.4699 15.1315C38.4699 15.0963 38.4482 15.0641 38.4151 15.0506C37.6894 14.7735 37.6149 14.1602 37.6097 13.3642V8.0124V8.01136Z" fill="#0E4194"/>
<path id="Vector_4" d="M38.4168 20.4584C37.6912 20.1813 37.6166 19.569 37.6115 18.773V18.0155C37.6115 16.5864 36.4552 15.4272 35.0298 15.4272H34.1758C34.1281 15.4272 34.0898 15.4656 34.0898 15.5134C34.0898 15.5487 34.1116 15.5808 34.1447 15.5943C34.8704 15.8714 34.9449 16.4837 34.9501 17.2797V18.0362C34.9501 19.4652 36.1063 20.6244 37.5318 20.6244H38.3858C38.4334 20.6244 38.4717 20.586 38.4717 20.5383C38.4717 20.503 38.45 20.4708 38.4168 20.4573V20.4584Z" fill="#0E4194"/>
<path id="Vector_5" d="M40.0523 6.15894H38.8867C38.8391 6.15894 38.8008 6.19733 38.8008 6.24507C38.8008 6.28036 38.8225 6.31253 38.8556 6.32602C39.5813 6.6031 39.6558 7.21539 39.661 8.01136V18.7721C39.6558 19.568 39.5813 20.1803 38.8556 20.4574C38.8225 20.4699 38.8008 20.502 38.8008 20.5383C38.8008 20.5861 38.8391 20.6245 38.8867 20.6245H40.0523C41.4777 20.6245 42.634 19.4653 42.634 18.0363V8.74715C42.634 7.31813 41.4777 6.15894 40.0523 6.15894Z" fill="#0E4194"/>
</g>
<g id="Group 1261160110">
<path id="Vector_6" d="M23.5644 6.15894H22.3864C20.961 6.15894 19.8047 7.31813 19.8047 8.74715V15.2177H20.2084C21.6338 15.2177 22.7901 14.0585 22.7901 12.6295V7.98438C22.7973 7.2019 22.8781 6.60103 23.5955 6.32602C23.6286 6.31356 23.6503 6.28139 23.6503 6.24507C23.6503 6.19733 23.612 6.15894 23.5644 6.15894Z" fill="#0E4194"/>
<path id="Vector_7" d="M21.7951 5.29965C22.6273 5.29965 23.4223 4.62302 23.5683 3.78761C23.7153 2.95324 23.1594 2.27661 22.3261 2.27661C21.4928 2.27661 20.6988 2.95324 20.5529 3.78865C20.4059 4.62302 20.9618 5.30069 21.7951 5.30069V5.29965Z" fill="#0E4194"/>
</g>
</g>
<defs>
<clipPath id="clip0_1465_50752">
<rect width="42.2222" height="20" fill="white" transform="translate(0.412109 0.624512)"/>
</clipPath>
</defs>
</svg>
