<svg width="35" height="35" viewBox="0 0 35 35" fill="none" xmlns="http://www.w3.org/2000/svg">
<g id="Group 1179">
<path id="Vector" d="M14.8433 14.0145L15.0912 13.8681L15.089 13.5802L15.0502 8.42945C15.0451 7.73898 15.322 6.74123 15.795 5.91459C16.0291 5.50549 16.2972 5.16342 16.5768 4.92842C16.8561 4.6937 17.1198 4.58715 17.3607 4.58534C17.6016 4.58352 17.8669 4.6861 18.1497 4.91659C18.4328 5.14735 18.706 5.48534 18.9462 5.89087C19.4316 6.7103 19.7236 7.70378 19.7288 8.39424L19.7675 13.545L19.7697 13.8329L20.0198 13.9756L28.2153 18.651C28.2806 18.6883 28.325 18.7611 28.3256 18.844L28.3478 21.7959C28.349 21.9523 28.2077 22.0458 28.0838 22.0109L20.4544 19.8585L19.8137 19.6777L19.8187 20.3435L19.8536 24.9791L19.8554 25.2267L20.0535 25.3753L22.6235 27.303L22.6237 27.3031C22.677 27.3431 22.7113 27.4085 22.7118 27.4815L22.7254 29.2838C22.7265 29.4348 22.5951 29.5274 22.4748 29.5021L17.6798 28.1216L17.5375 28.0807L17.3959 28.1238L12.6221 29.5763C12.5023 29.6033 12.3695 29.5127 12.3684 29.3617L12.3548 27.5595C12.3543 27.4867 12.3877 27.4204 12.4402 27.3798L12.4404 27.3797L14.9811 25.4135L15.1769 25.262L15.1751 25.0143L15.1402 20.3787L15.1352 19.7129L14.4972 19.9033L6.90066 22.1703L6.90066 22.1703C6.77764 22.207 6.63502 22.1161 6.63384 21.9593L6.61163 19.0074L6.61163 19.0073C6.61132 18.9668 6.6216 18.9273 6.64086 18.8929C6.66006 18.8587 6.68726 18.8312 6.71892 18.8124C6.71896 18.8124 6.719 18.8124 6.71904 18.8124L14.8433 14.0145Z" fill="#83F1E4" stroke="#13B9A5"/>
</g>
</svg>
