<svg width="21" height="22" viewBox="0 0 21 22" fill="none" xmlns="http://www.w3.org/2000/svg">
<g id="icon">
<g id="Group 1040">
<path id="Vector" d="M4.93707 12.9627L8.28553 12.9627L11.3647 18.2676C11.4058 18.3382 11.4651 18.3969 11.5366 18.4377C11.6081 18.4785 11.6893 18.5 11.772 18.5L13.691 18.5C14.0024 18.5 14.2272 18.2067 14.1416 17.912L12.7051 12.9627L15.7187 12.9627L16.9844 14.6239C17.0729 14.7401 17.212 14.8085 17.3594 14.8085L18.531 14.8085C18.836 14.8085 19.0598 14.5264 18.9857 14.2351L18.0625 11.117L18.9857 7.99877C19.0598 7.70749 18.836 7.42543 18.531 7.42543L17.3594 7.42543C17.2117 7.42543 17.0729 7.49378 16.9844 7.61001L15.7187 9.27119L12.7051 9.27119L14.1416 4.32225C14.2272 4.0275 14.0024 3.73391 13.691 3.73391L11.772 3.73391C11.6038 3.73391 11.4485 3.82274 11.365 3.96636L8.28553 9.27119L4.93707 9.27119C3.90139 9.27119 2.12447 10.0975 2.12447 11.117C2.12447 12.1365 3.90139 12.9627 4.93707 12.9627Z" fill="#6CCAFF"/>
</g>
</g>
</svg>
