<svg width="35" height="34" viewBox="0 0 35 34" fill="none" xmlns="http://www.w3.org/2000/svg">
<g id="Group 1261159880">
<g id="Group 1261160004">
<g id="Vector">
<path d="M16.7578 4.60828H26.8082L22.6404 8.0199L26.8082 11.5339H16.7578" fill="#E85F1B"/>
<path d="M16.7578 4.60828H26.8082L22.6404 8.0199L26.8082 11.5339H16.7578" stroke="black" stroke-linecap="round" stroke-linejoin="round"/>
</g>
<path id="Vector_2" d="M16.7571 31.9999C21.1879 31.9999 24.7798 28.408 24.7798 23.9772C24.7798 19.5464 21.1879 15.9545 16.7571 15.9545C12.3263 15.9545 8.73438 19.5464 8.73438 23.9772C8.73438 28.408 12.3263 31.9999 16.7571 31.9999Z" fill="#E85F1B" stroke="black"/>
<path id="Vector_3" d="M8.53625 25.3357C7.96915 25.3357 7.50781 24.781 7.50781 24.098V23.8527C7.50781 23.1697 7.96802 22.615 8.53625 22.615H24.9789C25.5471 22.615 26.0073 23.1686 26.0073 23.8527V24.098C26.0073 24.7799 25.5471 25.3357 24.9789 25.3357H8.53625Z" fill="white" stroke="black"/>
<path id="Vector_4" d="M16.7578 3V15.4414" stroke="black" stroke-linecap="round" stroke-linejoin="round"/>
</g>
</g>
</svg>
