<svg width="45" height="48" viewBox="0 0 45 48" fill="none" xmlns="http://www.w3.org/2000/svg">
<g id="&#234;&#184;&#176;&#237;&#131;&#128;&#236;&#132;&#160;&#235;&#176;&#149;">
<g id="Group 1261159880">
<g id="Group 1261159906">
<path id="Vector 400" d="M22.5039 20V32" stroke="black"/>
<g id="Group 1261159905">
<path id="Vector" d="M22.5039 48C27.4745 48 31.5039 43.9706 31.5039 39C31.5039 34.0294 27.4745 30 22.5039 30C17.5333 30 13.5039 34.0294 13.5039 39C13.5039 43.9706 17.5333 48 22.5039 48Z" fill="#FFD600"/>
<g id="Group 1284">
<path id="D" d="M22.6681 34.208C25.2121 34.208 27.1561 35.768 27.1561 38.552V39.728C27.1561 42.524 25.2121 44.072 22.6681 44.072H19.0441V34.208H22.6681ZM25.2721 39.668V38.612C25.2721 36.764 24.1681 35.924 22.6681 35.924H20.9281V42.356H22.6681C24.1681 42.356 25.2721 41.528 25.2721 39.668Z" fill="black"/>
</g>
</g>
</g>
<path id="legend" d="M22.1534 1.36206L15.2002 26.7143L22.3623 19.5254L29.686 26.521L22.1534 1.36206Z" fill="#FF87CF" stroke="#FF39B0" stroke-linejoin="round"/>
</g>
</g>
</svg>
