<svg width="45" height="52" viewBox="0 0 45 52" fill="none" xmlns="http://www.w3.org/2000/svg">
<g id="&#236;&#156;&#132;&#237;&#151;&#152;&#235;&#172;&#188; &#236;&#150;&#180;&#236;&#132;&#160;">
<g id="&#236;&#156;&#132;&#237;&#151;&#152;&#235;&#172;&#188;">
<g id="Group 1261159894">
<g id="Group 1261159881">
<path id="Vector 400" d="M23 23.752V35.752" stroke="black"/>
<path id="legend" d="M22.3385 5.12066L15.8772 30.6027L22.8989 23.2766L30.3566 30.1292L22.3385 5.12066Z" fill="#197419" stroke="#005909" stroke-linejoin="round"/>
<g id="Group 1261159905">
<path id="Vector" d="M23 51.752C27.9706 51.752 32 47.7225 32 42.752C32 37.7814 27.9706 33.752 23 33.752C18.0294 33.752 14 37.7814 14 42.752C14 47.7225 18.0294 51.752 23 51.752Z" fill="#FFD600"/>
<g id="Group 1284">
<path id="D" d="M23.1632 37.96C25.7072 37.96 27.6512 39.52 27.6512 42.304V43.48C27.6512 46.276 25.7072 47.824 23.1632 47.824H19.5392V37.96H23.1632ZM25.7672 43.42V42.364C25.7672 40.516 24.6632 39.676 23.1632 39.676H21.4232V46.108H23.1632C24.6632 46.108 25.7672 45.28 25.7672 43.42Z" fill="black"/>
</g>
</g>
</g>
</g>
</g>
</g>
</svg>
