<svg width="23" height="27" viewBox="0 0 23 27" fill="none" xmlns="http://www.w3.org/2000/svg">
<path id="Vector" d="M8.84328 10.0145L9.09118 9.86812L9.08901 9.58022L9.05025 4.42945C9.04505 3.73898 9.32202 2.74123 9.795 1.91459C10.0291 1.50549 10.2972 1.16342 10.5768 0.928422C10.8561 0.693703 11.1198 0.587149 11.3607 0.585336C11.6016 0.583523 11.8669 0.686096 12.1497 0.916585C12.4328 1.14735 12.706 1.48534 12.9462 1.89087C13.4316 2.7103 13.7236 3.70378 13.7288 4.39424L13.7675 9.54502L13.7697 9.83289L14.0198 9.97555L22.2153 14.651C22.2806 14.6883 22.325 14.7611 22.3256 14.844L22.3478 17.7959C22.349 17.9523 22.2077 18.0458 22.0838 18.0109L14.4544 15.8585L13.8137 15.6777L13.8187 16.3435L13.8536 20.9791L13.8554 21.2267L14.0535 21.3753L16.6235 23.303L16.6237 23.3031C16.677 23.3431 16.7113 23.4085 16.7118 23.4815L16.7254 25.2838C16.7265 25.4348 16.5951 25.5274 16.4748 25.5021L11.6798 24.1216L11.5375 24.0807L11.3959 24.1238L6.62215 25.5763C6.50231 25.6033 6.3695 25.5127 6.36836 25.3617L6.3548 23.5595C6.35425 23.4867 6.3877 23.4204 6.44025 23.3798L6.4404 23.3797L8.98107 21.4135L9.17692 21.262L9.17505 21.0143L9.14017 16.3787L9.13516 15.7129L8.4972 15.9033L0.900659 18.1703L0.900656 18.1703C0.777639 18.207 0.635022 18.1161 0.633842 17.9593L0.611628 15.0074L0.611628 15.0073C0.61132 14.9668 0.621601 14.9273 0.640859 14.8929C0.660059 14.8587 0.68725 14.8312 0.718905 14.8124C0.71895 14.8124 0.718994 14.8124 0.719039 14.8124L8.84328 10.0145Z" fill="#83F1E4" stroke="#13B9A5"/>
</svg>
