<svg width="24" height="27" viewBox="0 0 24 27" fill="none" xmlns="http://www.w3.org/2000/svg">
<path id="Vector" d="M9.34328 10.013L9.59118 9.86665L9.58901 9.57876L9.55025 4.42798C9.54505 3.73752 9.82202 2.73976 10.295 1.91312C10.5291 1.50402 10.7972 1.16196 11.0768 0.926957C11.3561 0.692238 11.6198 0.585684 11.8607 0.583871C12.1016 0.582058 12.3669 0.684631 12.6497 0.915121C12.9328 1.14589 13.206 1.48388 13.4462 1.88941C13.9316 2.70884 14.2236 3.70231 14.2288 4.39277L14.2675 9.54355L14.2697 9.83143L14.5198 9.97409L22.7153 14.6496C22.7806 14.6869 22.825 14.7596 22.8256 14.8425L22.8478 17.7944C22.849 17.9508 22.7077 18.0443 22.5838 18.0094L14.9544 15.857L14.3137 15.6763L14.3187 16.342L14.3536 20.9777L14.3554 21.2253L14.5535 21.3739L17.1235 23.3016L17.1237 23.3017C17.177 23.3416 17.2113 23.407 17.2118 23.4801L17.2254 25.2823C17.2265 25.4333 17.0951 25.5259 16.9748 25.5007L12.1798 24.1202L12.0375 24.0792L11.8959 24.1223L7.12215 25.5748C7.00231 25.6019 6.8695 25.5112 6.86836 25.3603L6.8548 23.558C6.85425 23.4853 6.8877 23.419 6.94025 23.3783L6.9404 23.3782L9.48107 21.412L9.67692 21.2605L9.67505 21.0129L9.64017 16.3772L9.63516 15.7115L8.9972 15.9018L1.40066 18.1688L1.40066 18.1688C1.27764 18.2055 1.13502 18.1146 1.13384 17.9578L1.11163 15.0059L1.11163 15.0059C1.11132 14.9653 1.1216 14.9258 1.14086 14.8915C1.16006 14.8572 1.18725 14.8297 1.2189 14.811C1.21895 14.8109 1.21899 14.8109 1.21904 14.8109L9.34328 10.013Z" fill="#666666" stroke="black"/>
</svg>
