<svg width="26" height="26" viewBox="0 0 26 26" fill="none" xmlns="http://www.w3.org/2000/svg">
<g id="pin">
<g id="icon">
<path id="Polygon 25" d="M14.3275 3.62114C13.7656 2.55062 12.2331 2.55061 11.6712 3.62114L3.94347 18.3444C3.41924 19.3432 4.14363 20.5415 5.27165 20.5415H20.7271C21.8551 20.5415 22.5795 19.3432 22.0552 18.3444L14.3275 3.62114Z" fill="#FF0000" stroke="black"/>
<path id="!" d="M12.9993 16.1293C13.3034 16.1293 13.56 16.2396 13.7691 16.4603C13.9782 16.681 14.0827 16.9518 14.0827 17.2728C14.0827 17.5938 13.9782 17.8646 13.7691 18.0853C13.56 18.306 13.3034 18.4163 12.9993 18.4163C12.6953 18.4163 12.4387 18.306 12.2296 18.0853C12.0205 17.8646 11.916 17.5938 11.916 17.2728C11.916 16.9518 12.0205 16.681 12.2296 16.4603C12.4387 16.2396 12.6953 16.1293 12.9993 16.1293ZM12.9993 7.58301C13.3034 7.58301 13.5458 7.65322 13.7263 7.79366C13.9164 7.93409 14.0067 8.16981 13.9972 8.50083L13.7691 14.2937C13.7596 14.6046 13.6741 14.8203 13.5125 14.9406C13.3605 15.061 13.1894 15.1212 12.9993 15.1212C12.8093 15.1212 12.6335 15.061 12.4719 14.9406C12.3199 14.8203 12.2391 14.6046 12.2296 14.2937L12.0015 8.50083C11.992 8.16981 12.0776 7.93409 12.2581 7.79366C12.4482 7.65322 12.6953 7.58301 12.9993 7.58301Z" fill="#FFF62A"/>
</g>
</g>
</svg>
