<svg width="34" height="48" viewBox="0 0 34 48" fill="none" xmlns="http://www.w3.org/2000/svg">
<g id="&#236;&#139;&#160;&#237;&#152;&#184;&#236;&#134;&#140;&#236;&#139;&#164;">
<g id="Group 1261159907">
<g id="Group 1261159906">
<path id="Vector 400" d="M17.0078 20V32" stroke="black"/>
<g id="Group 1261159905">
<path id="Vector" d="M17.0078 48C21.9784 48 26.0078 43.9706 26.0078 39C26.0078 34.0294 21.9784 30 17.0078 30C12.0373 30 8.00781 34.0294 8.00781 39C8.00781 43.9706 12.0373 48 17.0078 48Z" fill="#FFD600"/>
<g id="Group 1284">
<path id="D" d="M17.172 34.208C19.716 34.208 21.66 35.768 21.66 38.552V39.728C21.66 42.524 19.716 44.072 17.172 44.072H13.548V34.208H17.172ZM19.776 39.668V38.612C19.776 36.764 18.672 35.924 17.172 35.924H15.432V42.356H17.172C18.672 42.356 19.776 41.528 19.776 39.668Z" fill="black"/>
</g>
</g>
</g>
<path id="legend" d="M16.6573 1.36206L9.7041 26.7143L16.8663 19.5254L24.19 26.521L16.6573 1.36206Z" fill="#999999" stroke="#666666" stroke-linejoin="round"/>
</g>
</g>
</svg>
