<svg width="32" height="32" viewBox="0 0 32 32" fill="none" xmlns="http://www.w3.org/2000/svg">
<g id="Group">
<path id="Vector" d="M22 9.84615H0V7.38462H22C23.103 7.38462 24 6.28062 24 4.92308C24 3.56554 23.103 2.46154 22 2.46154C20.897 2.46154 20 3.56554 20 4.92308H18C18 2.208 19.794 0 22 0C24.206 0 26 2.208 26 4.92308C26 7.63815 24.206 9.84615 22 9.84615Z" fill="#A8ABC9"/>
<path id="Vector_2" d="M29 19.6924H28V17.2308H29C29.552 17.2308 30 16.6782 30 16C30 15.3219 29.552 14.7693 29 14.7693H18V12.3077H29C30.654 12.3077 32 13.9644 32 16C32 18.0357 30.654 19.6924 29 19.6924Z" fill="#A8ABC9"/>
<path id="Vector_3" d="M23 24.6153H22V22.1538H23C23.552 22.1538 24 21.6012 24 20.923C24 20.2449 23.552 19.6923 23 19.6923H0V17.2307H23C24.654 17.2307 26 18.8873 26 20.923C26 22.9587 24.654 24.6153 23 24.6153Z" fill="#A8ABC9"/>
<path id="Vector_4" d="M16 32.0001C13.794 32.0001 12 29.7921 12 27.077H14C14 28.4345 14.897 29.5385 16 29.5385C17.103 29.5385 18 28.4345 18 27.077C18 25.7195 17.103 24.6155 16 24.6155H4V22.1539H16C18.206 22.1539 20 24.3619 20 27.077C20 29.7921 18.206 32.0001 16 32.0001Z" fill="#A8ABC9"/>
<path id="Vector_5" d="M4 12.3077H2V14.7699H4V12.3077Z" fill="#A8ABC9"/>
<path id="Vector_6" d="M16 12.3077H6V14.7699H16V12.3077Z" fill="#A8ABC9"/>
<path id="Vector_7" d="M2 22.1539H0V24.6161H2V22.1539Z" fill="#A8ABC9"/>
</g>
</svg>
