<svg width="20" height="20" viewBox="0 0 20 20" fill="none" xmlns="http://www.w3.org/2000/svg">
<g id="icon">
<g id="Group 1191">
<path id="Vector" d="M6.33984 7.85163V5.49004C6.33984 3.36772 8.07064 2 10.1757 2C12.2807 2 14.0115 3.36772 14.0115 5.49004V7.80447" stroke="black" stroke-width="1.5" stroke-linecap="round" stroke-linejoin="round"/>
<g id="Group">
<path id="Vector_2" d="M16.6301 16.6411C16.6301 17.9617 15.601 18.9993 14.2912 18.9993H6.33892C5.02912 18.9993 4 17.9617 4 16.6411V10.2742C4 8.9536 5.02912 7.91602 6.33892 7.91602H14.2912C15.601 7.91602 16.6301 8.9536 16.6301 10.2742V16.6411Z" stroke="black" stroke-width="1.5" stroke-linecap="round" stroke-linejoin="round"/>
<path id="Vector_3" d="M10.2373 14.5024V15.5358" stroke="black" stroke-width="1.5" stroke-linecap="round" stroke-linejoin="round"/>
<path id="Ellipse 2569" d="M11.0463 12.8399C11.0463 13.2882 10.6834 13.6505 10.237 13.6505C9.79065 13.6505 9.42773 13.2882 9.42773 12.8399C9.42773 12.3916 9.79065 12.0293 10.237 12.0293C10.6834 12.0293 11.0463 12.3916 11.0463 12.8399Z" fill="black" stroke="black" stroke-width="1.5"/>
</g>
</g>
</g>
</svg>
