<?xml version="1.0" encoding="UTF-8"?>
<svg width="22" height="24" viewBox="0 0 22 24" fill="none" xmlns="http://www.w3.org/2000/svg">
<path d="M2.2 24C1.595 24 1.07708 23.7864 0.64625 23.3591C0.215417 22.9318 0 22.4182 0 21.8182V6.54545C0 5.94545 0.215417 5.43182 0.64625 5.00455C1.07708 4.57727 1.595 4.36364 2.2 4.36364H6.6L11 0L15.4 4.36364H19.8C20.405 4.36364 20.9229 4.57727 21.3538 5.00455C21.7846 5.43182 22 5.94545 22 6.54545V21.8182C22 22.4182 21.7846 22.9318 21.3538 23.3591C20.9229 23.7864 20.405 24 19.8 24H2.2ZM2.2 21.8182H19.8V6.54545H2.2V21.8182ZM4.4 19.6364V8.72727H17.6V19.6364H4.4ZM6.6 17.4545H15.4V10.9091H6.6V17.4545Z" fill="white"/>
</svg>
