<?xml version="1.0" encoding="UTF-8"?>
<svg width="18" height="16" viewBox="0 0 18 16" fill="none" xmlns="http://www.w3.org/2000/svg">
<path d="M9 12.8889C10.125 12.8889 11.0813 12.5 11.8688 11.7222C12.6563 10.9444 13.05 10 13.05 8.88889C13.05 7.77778 12.6563 6.83333 11.8688 6.05556C11.0813 5.27778 10.125 4.88889 9 4.88889C7.875 4.88889 6.91875 5.27778 6.13125 6.05556C5.34375 6.83333 4.95 7.77778 4.95 8.88889C4.95 10 5.34375 10.9444 6.13125 11.7222C6.91875 12.5 7.875 12.8889 9 12.8889ZM9 11.1111C8.37 11.1111 7.8375 10.8963 7.4025 10.4667C6.9675 10.037 6.75 9.51111 6.75 8.88889C6.75 8.26667 6.9675 7.74074 7.4025 7.31111C7.8375 6.88148 8.37 6.66667 9 6.66667C9.63 6.66667 10.1625 6.88148 10.5975 7.31111C11.0325 7.74074 11.25 8.26667 11.25 8.88889C11.25 9.51111 11.0325 10.037 10.5975 10.4667C10.1625 10.8963 9.63 11.1111 9 11.1111ZM1.8 16C1.305 16 0.88125 15.8259 0.52875 15.4778C0.17625 15.1296 0 14.7111 0 14.2222V3.55556C0 3.06667 0.17625 2.64815 0.52875 2.3C0.88125 1.95185 1.305 1.77778 1.8 1.77778H4.635L6.3 0H11.7L13.365 1.77778H16.2C16.695 1.77778 17.1187 1.95185 17.4713 2.3C17.8238 2.64815 18 3.06667 18 3.55556V14.2222C18 14.7111 17.8238 15.1296 17.4713 15.4778C17.1187 15.8259 16.695 16 16.2 16H1.8ZM1.8 14.2222H16.2V3.55556H12.555L10.9125 1.77778H7.0875L5.445 3.55556H1.8V14.2222Z" fill="#11154B"/>
</svg>
