<?xml version="1.0" encoding="UTF-8"?>
<svg width="24" height="24" viewBox="0 0 24 24" fill="none" xmlns="http://www.w3.org/2000/svg">
<path d="M7.63636 16.9286V14.7381H10.0091C9.91818 15.1032 9.85909 15.4683 9.83182 15.8333C9.80455 16.1984 9.80909 16.5635 9.84545 16.9286H7.63636ZM7.63636 22.4048C6.12727 22.4048 4.84091 21.8708 3.77727 20.803C2.71364 19.7351 2.18182 18.4437 2.18182 16.9286V7.07143C1.58182 7.07143 1.06818 6.85694 0.640909 6.42798C0.213636 5.99901 0 5.48333 0 4.88095V2.69048C0 2.0881 0.213636 1.57242 0.640909 1.14345C1.06818 0.714484 1.58182 0.5 2.18182 0.5H13.0909C13.6909 0.5 14.2045 0.714484 14.6318 1.14345C15.0591 1.57242 15.2727 2.0881 15.2727 2.69048V4.88095C15.2727 5.48333 15.0591 5.99901 14.6318 6.42798C14.2045 6.85694 13.6909 7.07143 13.0909 7.07143V10.3845C12.6545 10.6583 12.2545 10.9778 11.8909 11.3429C11.5273 11.7079 11.2091 12.1095 10.9364 12.5476H7.63636V10.3571H10.9091V7.07143H4.36364V16.9286C4.36364 17.8413 4.68182 18.6171 5.31818 19.256C5.95455 19.8948 6.72727 20.2143 7.63636 20.2143C8.18182 20.2143 8.67727 20.0956 9.12273 19.8583C9.56818 19.621 9.94545 19.2925 10.2545 18.8726C10.4 19.2377 10.5636 19.5845 10.7455 19.9131C10.9273 20.2417 11.1455 20.5611 11.4 20.8714C10.9091 21.346 10.3455 21.7202 9.70909 21.994C9.07273 22.2679 8.38182 22.4048 7.63636 22.4048ZM2.18182 4.88095H13.0909V2.69048H2.18182V4.88095ZM16.9091 19.119C17.6727 19.119 18.3182 18.8544 18.8455 18.325C19.3727 17.7956 19.6364 17.1476 19.6364 16.381C19.6364 15.6143 19.3727 14.9663 18.8455 14.4369C18.3182 13.9075 17.6727 13.6429 16.9091 13.6429C16.1455 13.6429 15.5 13.9075 14.9727 14.4369C14.4455 14.9663 14.1818 15.6143 14.1818 16.381C14.1818 17.1476 14.4455 17.7956 14.9727 18.325C15.5 18.8544 16.1455 19.119 16.9091 19.119ZM22.4727 23.5L19.5273 20.5429C19.1273 20.7984 18.7091 20.9901 18.2727 21.1179C17.8364 21.2456 17.3818 21.3095 16.9091 21.3095C15.5455 21.3095 14.3864 20.8304 13.4318 19.872C12.4773 18.9137 12 17.75 12 16.381C12 15.0119 12.4773 13.8482 13.4318 12.8899C14.3864 11.9315 15.5455 11.4524 16.9091 11.4524C18.2727 11.4524 19.4318 11.9315 20.3864 12.8899C21.3409 13.8482 21.8182 15.0119 21.8182 16.381C21.8182 16.8556 21.7545 17.3119 21.6273 17.75C21.5 18.1881 21.3091 18.6079 21.0545 19.0095L24 21.9667L22.4727 23.5Z" fill="white"/>
</svg>
