<svg width="24" height="22" viewBox="0 0 24 22" fill="none" xmlns="http://www.w3.org/2000/svg">
<path d="M4.73541 4.79527V12.373C4.73541 12.817 5.02775 13.8234 5.4955 14.8002C5.94027 15.885 6.56296 16.8857 7.33726 17.7603C8.15026 18.614 9.07484 19.3509 10.0853 19.9507C10.8024 20.3844 11.4444 20.9344 11.9855 21.5787C12.5401 20.9367 13.1913 20.3873 13.915 19.9507C14.9201 19.3431 15.8437 18.6069 16.663 17.7603C17.54 16.8427 18.1832 15.5106 18.5047 14.8002C18.8263 14.0898 19.2648 12.817 19.2648 12.373V4.79527L11.9855 0L4.73541 4.79527Z" fill="#001A60"/>
<path d="M18.8844 5.03143H18.9428L11.9851 0.384155L5.05658 4.97222V12.3723C5.05658 13.1123 6.13825 16.0428 7.57072 17.5524C8.37354 18.368 9.27763 19.0744 10.2603 19.654C10.8995 20.0533 11.4801 20.5415 11.9851 21.1045C12.5084 20.5495 13.0976 20.0624 13.7391 19.654C14.7218 19.0744 15.6259 18.368 16.4287 17.5524C17.8612 16.0428 18.9428 13.1123 18.9428 12.3723V5.00183H18.8844V5.03143Z" fill="url(#paint0_radial_4201_82255)"/>
<path d="M5.55365 5.29799V12.4317C5.6677 13.1636 5.8946 13.8728 6.22604 14.5333C6.64806 15.5248 7.22012 16.4435 7.92162 17.2566C8.70223 18.0436 9.57617 18.7297 10.5235 19.299C11.0507 19.6175 11.541 19.9948 11.9852 20.4238C12.446 20.0021 12.9452 19.6255 13.4761 19.299C14.4234 18.7297 15.2974 18.0436 16.078 17.2566C16.7795 16.4435 17.3515 15.5248 17.7736 14.5333C18.0903 13.8667 18.3165 13.1597 18.4459 12.4317V5.29799L11.9852 1.03552L5.55365 5.29799Z" fill="url(#paint1_linear_4201_82255)"/>
<path d="M5.05658 4.97222H5.11505L11.9851 0.502557V0.384155L5.05658 4.97222Z" fill="#FEDA5D"/>
<path d="M18.8852 5.03143H18.9436L11.9859 0.384155V0.502558L18.8852 5.03143Z" fill="#DFB840"/>
<path d="M18.4759 5.29859L18.5928 5.23939L11.9859 0.858521V1.03612L18.4759 5.29859Z" fill="#D39428"/>
<path d="M5.40845 5.20979L5.52538 5.26899L11.9861 1.03612V0.858521L5.40845 5.20979Z" fill="#D39428"/>
<path d="M10.4952 19.3289C9.54522 18.7768 8.67878 18.0889 7.92259 17.2865C6.57782 15.8953 5.52538 13.1129 5.52538 12.4616V5.29834L5.40845 5.23914V12.432C5.40845 12.7576 5.64232 13.5865 6.11007 14.6225C6.53296 15.6202 7.11575 16.5403 7.83489 17.3457C8.60678 18.1511 9.48186 18.848 10.4367 19.4177C10.997 19.7729 11.5166 20.1899 11.9861 20.661V20.513C11.5375 20.0595 11.037 19.662 10.4952 19.3289Z" fill="#FEDA5D"/>
<path d="M10.4952 19.3289C9.54522 18.7768 8.67878 18.0889 7.92259 17.2865C6.57782 15.8953 5.52538 13.1129 5.52538 12.4616V5.29834L5.40845 5.23914V12.432C5.40845 12.7576 5.64232 13.5865 6.11007 14.6225C6.53296 15.6202 7.11575 16.5403 7.83489 17.3457C8.60678 18.1511 9.48186 18.848 10.4367 19.4177C10.997 19.7729 11.5166 20.1899 11.9861 20.661V20.513C11.5375 20.0595 11.037 19.662 10.4952 19.3289Z" fill="url(#paint2_linear_4201_82255)"/>
<path d="M18.4759 12.4616C18.4759 13.1129 17.4235 15.8953 16.0787 17.2865C15.3102 18.0751 14.4457 18.7614 13.5061 19.3289C12.9599 19.6688 12.4504 20.0656 11.9859 20.513V20.661C12.4716 20.1964 13.0002 19.78 13.5645 19.4177C14.5194 18.848 15.3945 18.1511 16.1664 17.3457C16.8756 16.5327 17.4573 15.6143 17.8912 14.6225C18.359 13.5865 18.5928 12.7576 18.5928 12.432V5.23914L18.4759 5.29834V12.4616Z" fill="#FEDA5D"/>
<path d="M9.61719 3.43344H9.90953C10.0105 3.42583 10.1116 3.4463 10.2019 3.49264C10.258 3.5172 10.3051 3.55897 10.3366 3.61207C10.3681 3.66517 10.3823 3.72693 10.3773 3.78864C10.3718 3.85565 10.3503 3.92031 10.3147 3.97704C10.279 4.03376 10.2303 4.08086 10.1726 4.11425H9.85106V4.52865H9.61719V3.43344ZM9.85106 3.61104V3.96625H9.968C9.99523 3.96859 10.0226 3.96446 10.048 3.95418C10.0734 3.9439 10.096 3.92776 10.1142 3.90704V3.78864C10.1142 3.67024 10.0849 3.61104 9.968 3.61104H9.85106Z" fill="white"/>
<path d="M10.9332 3.43396C11.2255 3.43396 11.4009 3.64116 11.4009 3.99637C11.4084 4.09358 11.3907 4.19107 11.3497 4.27929C11.3087 4.36751 11.2458 4.44342 11.1671 4.49958C11.0984 4.54666 11.0156 4.56764 10.9332 4.55878C10.867 4.56745 10.7998 4.55834 10.7382 4.53236C10.6766 4.50638 10.6229 4.46445 10.5824 4.41078C10.5001 4.28911 10.4591 4.14368 10.4654 3.99637C10.4584 3.89497 10.4761 3.79337 10.5168 3.70048C10.5576 3.60759 10.6203 3.52624 10.6993 3.46356L10.9332 3.43396ZM10.9332 3.58196C10.8961 3.58373 10.8602 3.59568 10.8293 3.61654C10.7984 3.63739 10.7736 3.66637 10.7578 3.70036C10.7157 3.79303 10.6956 3.89443 10.6993 3.99637C10.6993 4.17397 10.7285 4.29237 10.8162 4.35157H10.9332C11.0793 4.35157 11.1378 4.23317 11.1378 3.96677C11.1464 3.87688 11.1365 3.78615 11.1086 3.70036C11.096 3.66405 11.072 3.63286 11.0404 3.61151C11.0088 3.59015 10.9711 3.57978 10.9332 3.58196Z" fill="white"/>
<path d="M11.5472 3.43396H11.7811V4.35157H12.1611V4.55878H11.5764L11.5472 3.43396Z" fill="white"/>
<path d="M12.307 3.43396H12.5409V4.55878H12.307V3.43396Z" fill="white"/>
<path d="M13.4767 3.49345L13.3597 3.64145L13.1843 3.58225L13.0089 3.67105C12.9581 3.76062 12.9375 3.86457 12.9505 3.96706C12.9403 4.06671 12.9503 4.16742 12.9797 4.26306C13.0004 4.29938 13.0303 4.32947 13.0662 4.35027C13.1022 4.37108 13.1429 4.38184 13.1843 4.38146H13.3597C13.3597 4.37361 13.3628 4.36608 13.3683 4.36053C13.3738 4.35498 13.3812 4.35186 13.389 4.35186L13.4767 4.49987C13.3908 4.55978 13.2886 4.59085 13.1843 4.58867C13.1182 4.59734 13.0509 4.58823 12.9893 4.56226C12.9278 4.53628 12.874 4.49434 12.8335 4.44067C12.7385 4.33576 12.6862 4.19824 12.6874 4.05586C12.6807 3.93123 12.7113 3.80746 12.7751 3.70065C12.8047 3.63735 12.8477 3.58148 12.9012 3.53707C12.9547 3.49266 13.0173 3.46082 13.0844 3.44383C13.1515 3.42684 13.2215 3.42514 13.2893 3.43884C13.3572 3.45253 13.4211 3.4813 13.4767 3.52305V3.49345Z" fill="white"/>
<path d="M13.6223 3.43396H14.2655V3.61156H13.8562V3.87797H14.1485V4.05557H13.8562V4.35157H14.2655V4.55878H13.6223V3.43396Z" fill="white"/>
<path d="M12.8337 7.51814C12.8373 7.59473 12.8563 7.66978 12.8895 7.73867C12.9228 7.80756 12.9696 7.86884 13.0271 7.91874C13.0846 7.96864 13.1516 8.00611 13.2239 8.02885C13.2962 8.05158 13.3724 8.0591 13.4477 8.05095C13.5206 8.05494 13.5937 8.04431 13.6626 8.01968C13.7315 7.99505 13.7949 7.95689 13.8492 7.90739C13.9035 7.8579 13.9476 7.79804 13.9791 7.73124C14.0105 7.66445 14.0286 7.59203 14.0323 7.51814C14.0248 7.36632 13.9599 7.22323 13.8511 7.11853C13.7422 7.01383 13.5978 6.95554 13.4477 6.95573C13.3709 6.95175 13.294 6.96314 13.2216 6.98926C13.1491 7.01539 13.0825 7.05573 13.0255 7.10797C12.9684 7.16021 12.9221 7.22333 12.8892 7.29372C12.8563 7.3641 12.8375 7.44037 12.8337 7.51814ZM13.1846 7.51814C13.1708 7.47799 13.1666 7.43509 13.1726 7.393C13.1785 7.35092 13.1943 7.31088 13.2186 7.27624C13.2429 7.24159 13.2751 7.21334 13.3124 7.19384C13.3497 7.17435 13.3911 7.16418 13.433 7.16418C13.475 7.16418 13.5164 7.17435 13.5537 7.19384C13.591 7.21334 13.6232 7.24159 13.6475 7.27624C13.6718 7.31088 13.6876 7.35092 13.6935 7.393C13.6994 7.43509 13.6953 7.47799 13.6815 7.51814C13.6953 7.55829 13.6994 7.60119 13.6935 7.64328C13.6876 7.68536 13.6718 7.7254 13.6475 7.76004C13.6232 7.79469 13.591 7.82294 13.5537 7.84244C13.5164 7.86193 13.475 7.8721 13.433 7.8721C13.3911 7.8721 13.3497 7.86193 13.3124 7.84244C13.2751 7.82294 13.2429 7.79469 13.2186 7.76004C13.1943 7.7254 13.1785 7.68536 13.1726 7.64328C13.1666 7.60119 13.1708 7.55829 13.1846 7.51814Z" fill="white"/>
<path d="M13.7684 5.62439V5.9796H13.3298V5.74279H12.3359V5.9796H12.979V6.0388C12.9802 6.12364 12.9624 6.20766 12.927 6.28455C12.8915 6.36144 12.8394 6.42922 12.7744 6.4828C12.638 6.61358 12.4638 6.69659 12.2774 6.71961L12.4528 6.92681C12.6879 6.89157 12.9043 6.77681 13.0667 6.6012C13.1678 6.48889 13.2471 6.35836 13.3006 6.2164H13.7684V6.394H13.3006V6.63081H13.7684V6.89721H14.1192V5.62439H13.7684Z" fill="white"/>
<path d="M7.65885 5.59534V5.95054H7.1911V6.18735H7.36651C7.33311 6.27242 7.31337 6.36236 7.30804 6.45375C7.30804 6.59506 7.36348 6.73058 7.46216 6.8305C7.56085 6.93042 7.69469 6.98656 7.83425 6.98656C7.97381 6.98656 8.10766 6.93042 8.20634 6.8305C8.30503 6.73058 8.36047 6.59506 8.36047 6.45375C8.35851 6.35801 8.32793 6.26513 8.27277 6.18735H8.44817V5.95054H8.00966V5.59534H7.65885ZM7.65885 6.48335C7.65885 6.30575 7.74655 6.18735 7.83425 6.18735C7.92196 6.18735 8.00966 6.30575 8.00966 6.48335C8.00966 6.66095 7.92196 6.74975 7.83425 6.74975C7.74655 6.74975 7.65885 6.63135 7.65885 6.48335Z" fill="white"/>
<path d="M9.03305 5.62439V6.3348H8.85765V5.62439H8.53607V7.99243H8.85765V6.6012H9.03305V7.99243H9.3254V5.62439H9.03305Z" fill="white"/>
<path d="M11.1964 5.62439V6.89721H11.5472V6.63081H11.8687V6.3644H11.5472V6.1572H11.8687V5.92039H11.5472V5.62439H11.1964Z" fill="white"/>
<path d="M10.2601 7.51829C10.2483 7.64307 10.274 7.76854 10.3339 7.87824C10.3938 7.98794 10.4851 8.07674 10.5957 8.13299C10.7063 8.18924 10.8312 8.21031 10.9538 8.19344C11.0765 8.17656 11.1913 8.12253 11.2831 8.03843C11.3749 7.95434 11.4394 7.8441 11.4682 7.7222C11.4971 7.60029 11.4888 7.47241 11.4446 7.35534C11.4003 7.23827 11.3222 7.13748 11.2203 7.06619C11.1185 6.99491 10.9978 6.95645 10.874 6.95588C10.7963 6.94756 10.7177 6.95592 10.6434 6.98043C10.5691 7.00494 10.5008 7.04504 10.4428 7.09812C10.3849 7.1512 10.3387 7.21606 10.3072 7.28846C10.2757 7.36086 10.2596 7.43918 10.2601 7.51829ZM10.6109 7.51829C10.6109 7.48331 10.6177 7.44867 10.6309 7.41634C10.6441 7.38402 10.6635 7.35465 10.6879 7.32992C10.7124 7.30518 10.7414 7.28556 10.7733 7.27217C10.8052 7.25878 10.8394 7.25189 10.874 7.25189C10.9085 7.25189 10.9427 7.25878 10.9747 7.27217C11.0066 7.28556 11.0356 7.30518 11.06 7.32992C11.0844 7.35465 11.1038 7.38402 11.1171 7.41634C11.1303 7.44867 11.1371 7.48331 11.1371 7.51829C11.1371 7.55328 11.1303 7.58792 11.1171 7.62024C11.1038 7.65256 11.0844 7.68193 11.06 7.70667C11.0356 7.73141 11.0066 7.75103 10.9747 7.76442C10.9427 7.77781 10.9085 7.7847 10.874 7.7847C10.8394 7.7847 10.8052 7.77781 10.7733 7.76442C10.7414 7.75103 10.7124 7.73141 10.6879 7.70667C10.6635 7.68193 10.6441 7.65256 10.6309 7.62024C10.6177 7.58792 10.6109 7.55328 10.6109 7.51829Z" fill="white"/>
<path d="M9.76337 6.24521C9.76337 6.40222 9.82497 6.5528 9.93462 6.66382C10.0443 6.77484 10.193 6.83722 10.3481 6.83722C10.5031 6.83722 10.6518 6.77484 10.7615 6.66382C10.8711 6.5528 10.9327 6.40222 10.9327 6.24521C10.9327 6.0882 10.8711 5.93762 10.7615 5.82659C10.6518 5.71557 10.5031 5.6532 10.3481 5.6532C10.193 5.6532 10.0443 5.71557 9.93462 5.82659C9.82497 5.93762 9.76337 6.0882 9.76337 6.24521ZM10.1142 6.24521C10.1142 6.1824 10.1388 6.12217 10.1827 6.07776C10.2265 6.03335 10.286 6.0084 10.3481 6.0084C10.4101 6.0084 10.4696 6.03335 10.5134 6.07776C10.5573 6.12217 10.5819 6.1824 10.5819 6.24521C10.5819 6.30801 10.5573 6.36824 10.5134 6.41265C10.4696 6.45706 10.4101 6.48201 10.3481 6.48201C10.286 6.48201 10.2265 6.45706 10.1827 6.41265C10.1388 6.36824 10.1142 6.30801 10.1142 6.24521Z" fill="white"/>
<path d="M16.1066 5.62439V6.89721H16.4574V6.3644H16.779V6.098H16.4574V5.62439H16.1066Z" fill="white"/>
<path d="M15.0556 5.59369V5.86009H14.6463V6.1265H15.0556C15.0517 6.19465 15.0341 6.26129 15.0039 6.32236C14.9738 6.38343 14.9317 6.43764 14.8802 6.4817C14.8441 6.52538 14.7995 6.56107 14.7492 6.58653C14.6989 6.612 14.644 6.62669 14.5878 6.6297L14.6755 6.7481L14.7632 6.83691C14.9583 6.78349 15.1257 6.65636 15.231 6.4817C15.231 6.4521 15.231 6.4521 15.2602 6.4521H15.2895C15.4007 6.62119 15.5657 6.74656 15.7572 6.80731C15.8082 6.73207 15.867 6.66261 15.9326 6.6001C15.8157 6.576 15.7058 6.5254 15.611 6.4521C15.519 6.35398 15.4579 6.23032 15.4356 6.09689H15.8449V5.83049H15.4356V5.56409L15.0556 5.59369Z" fill="white"/>
<path d="M14.9672 7.01501V7.22222H16.1074V7.39982H14.9672V7.78463C14.9672 7.93263 15.0257 7.99183 15.1719 7.99183H16.4874V7.78463H15.3473V7.63662H16.4289C16.4582 7.63662 16.4582 7.63662 16.4582 7.60702V7.04461H14.9672V7.01501Z" fill="white"/>
<path d="M11.9851 21.0161L11.8974 20.8977C11.4075 20.4169 10.8685 19.9902 10.2895 19.6249C9.30421 19.0626 8.40752 18.3542 7.62919 17.5232C6.7814 16.6648 6.16748 15.392 5.8459 14.7112C5.52433 14.0304 5.11505 12.8168 5.11505 12.4024V5.03186H5.05658V12.3728C5.05658 13.1128 6.13825 16.0432 7.57072 17.5528C8.37354 18.3684 9.27763 19.0749 10.2603 19.6545C10.8995 20.0537 11.4802 20.5419 11.9851 21.1049V21.0161Z" fill="url(#paint3_linear_4201_82255)"/>
<path d="M11.9859 21.0161L12.1028 20.8977C12.5927 20.4169 13.1317 19.9902 13.7107 19.6249C14.6909 19.0549 15.5866 18.3473 16.371 17.5232C17.0994 16.6802 17.7003 15.7326 18.1543 14.7112C18.5636 13.7344 18.8852 12.8168 18.8852 12.4024V5.03186H18.9436V12.3728C18.9436 13.1128 17.862 16.0432 16.4295 17.5528C15.6267 18.3684 14.7226 19.0749 13.74 19.6545C13.0984 20.0628 12.5092 20.55 11.9859 21.1049V21.0161Z" fill="#D39428"/>
<path d="M11.9857 1.03552L5.52496 5.29799V12.4613C5.52496 13.1125 6.5774 15.8949 7.92217 17.2862C8.67836 18.0886 9.5448 18.7765 10.4948 19.3286C11.0366 19.6617 11.5371 20.0592 11.9857 20.5126C12.4502 20.0653 12.9597 19.6684 13.5059 19.3286C14.4456 18.7611 15.3101 18.0748 16.0785 17.2862C17.4233 15.8949 18.4757 13.1125 18.4757 12.4613V5.29799L11.9857 1.03552ZM18.388 12.4613C18.388 13.1125 17.3356 15.8653 16.02 17.227C15.2639 18.0294 14.3974 18.7172 13.4474 19.2694C12.921 19.5891 12.4309 19.9663 11.9857 20.3942C11.5507 19.9669 11.0703 19.5897 10.5533 19.2694C9.60327 18.7172 8.73682 18.0294 7.98064 17.227C6.63586 15.8653 5.61267 13.1125 5.61267 12.4613V5.35719L11.9857 1.12432L18.388 5.35719V12.4613Z" fill="#000044"/>
<path d="M11.9853 11.6327C11.5054 11.6327 11.0362 11.7768 10.6372 12.0467C10.2382 12.3167 9.92719 12.7004 9.74354 13.1493C9.55989 13.5983 9.51184 14.0923 9.60546 14.5688C9.69909 15.0454 9.93018 15.4832 10.2695 15.8268C10.6089 16.1704 11.0412 16.4044 11.5119 16.4992C11.9826 16.594 12.4705 16.5453 12.9138 16.3593C13.3572 16.1734 13.7362 15.8585 14.0028 15.4545C14.2694 15.0504 14.4117 14.5754 14.4117 14.0895C14.4117 13.4379 14.1561 12.813 13.701 12.3523C13.246 11.8915 12.6288 11.6327 11.9853 11.6327Z" fill="#FFD900"/>
<path d="M8.27325 14.0013C8.43065 14.1192 8.61253 14.1991 8.80504 14.235C8.99755 14.2709 9.19562 14.2618 9.38416 14.2085V14.0901C9.38758 13.7979 9.43692 13.5082 9.53033 13.2317C9.17074 13.5766 8.74199 13.8391 8.27325 14.0013Z" fill="url(#paint4_linear_4201_82255)"/>
<path d="M8.12598 14.3564C8.19993 15.0123 8.37761 15.652 8.65219 16.2508C8.66432 16.2792 8.68495 16.3031 8.71117 16.319C8.73739 16.3349 8.76789 16.3421 8.79836 16.3396C9.23854 16.2673 9.64647 16.0607 9.96773 15.7476C9.64504 15.3617 9.44169 14.8881 9.38305 14.386C8.95658 14.4821 8.51016 14.419 8.12598 14.2084V14.3268V14.3564Z" fill="#FFD900"/>
<path d="M10.1437 18.1445C10.6114 17.7597 10.8745 16.7828 10.9622 16.5164C10.6192 16.3797 10.3171 16.1554 10.0852 15.8652C9.74093 16.2226 9.28777 16.452 8.79889 16.5164C9.09403 17.1227 9.48954 17.6734 9.96826 18.1445C9.97923 18.1571 9.99273 18.1672 10.0078 18.1741C10.023 18.181 10.0394 18.1846 10.056 18.1846C10.0726 18.1846 10.089 18.181 10.1041 18.1741C10.1192 18.1672 10.1327 18.1571 10.1437 18.1445Z" fill="#FFD900"/>
<path d="M9.96817 12.4028C10.046 12.3113 10.1145 12.2121 10.1728 12.1067L9.76353 12.0179H9.67583C9.12038 12.4916 8.24335 13.2316 7.24939 13.4684C7.39494 13.6455 7.59326 13.7701 7.81462 13.8234C8.03599 13.8768 8.26847 13.8561 8.47723 13.7644C9.00113 13.4932 9.46012 13.1093 9.822 12.6396L9.96817 12.4028Z" fill="url(#paint5_linear_4201_82255)"/>
<path d="M13.8559 18.1445C13.8639 18.1567 13.8747 18.1667 13.8875 18.1736C13.9002 18.1806 13.9145 18.1842 13.9289 18.1842C13.9434 18.1842 13.9577 18.1806 13.9704 18.1736C13.9832 18.1667 13.994 18.1567 14.002 18.1445C14.4988 17.6827 14.9054 17.1304 15.2006 16.5164C14.7082 16.4641 14.2512 16.2327 13.9143 15.8652C13.6737 16.1459 13.374 16.3685 13.0373 16.5164C13.0958 16.7828 13.3881 17.7597 13.8559 18.1445Z" fill="#FFD900"/>
<path d="M12.2191 16.7247V16.9319C12.2483 17.4943 12.2483 19.0631 12.336 19.3295C12.8527 19.0792 13.3344 18.7606 13.7685 18.3823C13.5638 18.2047 13.1838 17.7903 12.833 16.5767C12.6379 16.6603 12.4304 16.7103 12.2191 16.7247Z" fill="#FFD900"/>
<path d="M15.348 16.2511C15.6094 15.6474 15.7865 15.0098 15.8742 14.3567V14.2383C15.4786 14.4461 15.0241 14.5089 14.5879 14.4159C14.527 14.912 14.3351 15.3824 14.0325 15.7775C14.3491 16.0972 14.7592 16.3049 15.2018 16.3695L15.348 16.2511Z" fill="#FFD900"/>
<path d="M11.6644 19.3288C11.7521 19.0624 11.7521 17.4936 11.7521 16.9312V16.724L11.1674 16.6056C10.8166 17.7896 10.4365 18.2336 10.2319 18.3816C10.666 18.76 11.1477 19.0785 11.6644 19.3288Z" fill="#FFD900"/>
<path d="M7.74655 11.0704L7.57114 10.952C6.95722 10.5079 6.57718 10.1823 6.57718 10.1823C4.8798 9.69558 3.21081 9.11251 1.57812 8.43591C1.57813 8.43591 1.57812 10.6559 3.53682 11.0112C4.93818 11.1027 6.34321 11.1224 7.74655 11.0704Z" fill="url(#paint6_linear_4201_82255)"/>
<path d="M6.66427 10.0349C6.66427 10.0349 8.27215 11.6334 10.2893 11.959L10.7278 11.3374C9.003 11.1598 7.92134 10.1829 7.19048 9.44293C6.95473 9.18189 6.67819 8.96189 6.37192 8.79172L0.261972 4.85486C0.261972 4.85486 -0.0596049 7.4005 1.57751 8.19971L1.72368 8.25891C3.33168 8.95639 4.98188 9.5496 6.66427 10.0349Z" fill="url(#paint7_linear_4201_82255)"/>
<path d="M7.98072 11.2186C6.95753 11.2778 5.58352 11.2778 3.771 11.2186C3.91347 11.6156 4.18484 11.9519 4.54067 12.1724C4.8965 12.3928 5.31572 12.4845 5.72969 12.4322C6.76148 12.2894 7.77249 12.0211 8.74081 11.633C8.47315 11.5237 8.21824 11.3847 7.98072 11.2186Z" fill="url(#paint8_linear_4201_82255)"/>
<path d="M9.50016 11.929L8.91547 11.7218C7.89721 12.1374 6.83912 12.4449 5.75818 12.6394C5.85094 12.8617 6.01186 13.0479 6.21717 13.1705C6.42248 13.2931 6.66128 13.3456 6.89831 13.3202C7.74611 13.2906 8.71083 12.6394 9.50016 11.929Z" fill="url(#paint9_linear_4201_82255)"/>
<path d="M15.7273 14.0013C15.5699 14.1192 15.388 14.1991 15.1955 14.235C15.003 14.2709 14.8049 14.2618 14.6164 14.2085V14.0901C14.613 13.7979 14.5636 13.5082 14.4702 13.2317C14.8298 13.5766 15.2586 13.8391 15.7273 14.0013Z" fill="url(#paint10_linear_4201_82255)"/>
<path d="M14.0326 12.4028C13.9548 12.3113 13.8862 12.2121 13.8279 12.1067L14.2372 12.0179H14.2957C14.8804 12.4916 15.7574 13.2316 16.7514 13.4684C16.6058 13.6455 16.4075 13.7701 16.1861 13.8234C15.9648 13.8768 15.7323 13.8561 15.5235 13.7644C14.9946 13.501 14.534 13.1157 14.1788 12.6396L14.0326 12.4028Z" fill="url(#paint11_linear_4201_82255)"/>
<path d="M16.2243 11.0704L16.4289 10.952C17.0429 10.5079 17.4229 10.1823 17.4229 10.1823C19.1203 9.69558 20.7893 9.11251 22.422 8.43591C22.422 8.43591 22.422 10.6559 20.434 11.0112C19.0327 11.1028 17.6276 11.1226 16.2243 11.0704Z" fill="url(#paint12_linear_4201_82255)"/>
<path d="M17.335 10.0349C17.335 10.0349 15.7272 11.6334 13.71 11.959C13.5535 11.7594 13.4072 11.5519 13.2715 11.3374C14.9963 11.1598 16.078 10.1829 16.7796 9.44293C17.0293 9.18513 17.3149 8.96574 17.6274 8.79172L23.7373 4.85486H23.7081C23.7081 4.85486 24.0589 7.4005 22.4218 8.19971L22.2464 8.25891C20.6485 8.95671 19.008 9.54994 17.335 10.0349Z" fill="url(#paint13_linear_4201_82255)"/>
<path d="M16.0199 11.2186C17.0431 11.2778 18.4171 11.2778 20.2296 11.2186H20.2004C20.0625 11.6188 19.7921 11.9583 19.4351 12.1796C19.0781 12.4008 18.6564 12.4901 18.2417 12.4322C17.2201 12.2857 16.2192 12.0174 15.2598 11.633C15.5275 11.5237 15.7824 11.3847 16.0199 11.2186Z" fill="url(#paint14_linear_4201_82255)"/>
<path d="M14.4999 11.929L15.0846 11.7218C16.1028 12.1374 17.1609 12.4449 18.2419 12.6394C18.1491 12.8617 17.9882 13.0479 17.7829 13.1705C17.5776 13.2931 17.3388 13.3456 17.1017 13.3202C16.2539 13.2906 15.2892 12.6394 14.4999 11.929Z" fill="url(#paint15_linear_4201_82255)"/>
<path d="M14.4117 14.0895C14.4117 14.5754 14.2694 15.0504 14.0028 15.4545C13.7362 15.8585 13.3572 16.1734 12.9138 16.3593C12.4705 16.5453 11.9826 16.594 11.5119 16.4992C11.0412 16.4044 10.6089 16.1704 10.2695 15.8268C9.93018 15.4832 9.69909 15.0454 9.60546 14.5688C9.51184 14.0923 9.55989 13.5983 9.74354 13.1493C9.92719 12.7004 10.2382 12.3167 10.6372 12.0467C11.0362 11.7768 11.5054 11.6327 11.9853 11.6327C12.3039 11.6327 12.6194 11.6962 12.9138 11.8197C13.2082 11.9432 13.4757 12.1241 13.701 12.3523C13.9263 12.5804 14.1051 12.8513 14.227 13.1493C14.349 13.4474 14.4117 13.7669 14.4117 14.0895Z" fill="url(#paint16_linear_4201_82255)"/>
<path d="M11.9848 12.2256C11.9435 12.2186 11.9061 12.1968 11.8793 12.1642C11.8525 12.1317 11.8381 12.0904 11.8386 12.048C11.8386 12.0088 11.854 11.9711 11.8815 11.9434C11.9089 11.9156 11.946 11.9 11.9848 11.9C12.0267 11.8994 12.0674 11.914 12.0996 11.9412C12.1317 11.9683 12.1532 12.0062 12.1602 12.048C12.1602 12.0951 12.1417 12.1403 12.1088 12.1736C12.0759 12.2069 12.0313 12.2256 11.9848 12.2256Z" fill="#001A60"/>
<path d="M13.4172 12.8168C13.3706 12.8168 13.326 12.7981 13.2931 12.7648C13.2602 12.7315 13.2418 12.6863 13.2418 12.6392C13.2487 12.5974 13.2703 12.5595 13.3024 12.5324C13.3346 12.5052 13.3753 12.4906 13.4172 12.4912C13.4559 12.4912 13.4931 12.5068 13.5205 12.5346C13.5479 12.5623 13.5633 12.6 13.5633 12.6392C13.5639 12.6816 13.5495 12.7228 13.5227 12.7554C13.4959 12.788 13.4585 12.8098 13.4172 12.8168Z" fill="#001A60"/>
<path d="M14.0033 14.2376C13.9615 14.2382 13.9208 14.2236 13.8886 14.1964C13.8564 14.1693 13.8349 14.1314 13.8279 14.0896C13.8279 14.0425 13.8464 13.9973 13.8793 13.964C13.9122 13.9307 13.9568 13.912 14.0033 13.912C14.0446 13.919 14.0821 13.9408 14.1089 13.9734C14.1357 14.006 14.1501 14.0472 14.1495 14.0896C14.1495 14.1288 14.1341 14.1665 14.1067 14.1942C14.0793 14.222 14.0421 14.2376 14.0033 14.2376Z" fill="#001A60"/>
<path d="M13.4172 15.6887C13.3706 15.6887 13.326 15.6699 13.2931 15.6366C13.2602 15.6033 13.2418 15.5582 13.2418 15.5111C13.2487 15.4692 13.2703 15.4313 13.3024 15.4042C13.3346 15.3771 13.3753 15.3625 13.4172 15.3631C13.4559 15.3631 13.4931 15.3786 13.5205 15.4064C13.5479 15.4342 13.5633 15.4718 13.5633 15.5111C13.5639 15.5535 13.5495 15.5947 13.5227 15.6272C13.4959 15.6598 13.4585 15.6816 13.4172 15.6887Z" fill="#001A60"/>
<path d="M11.9848 16.2798C11.9435 16.2728 11.9061 16.251 11.8793 16.2184C11.8525 16.1859 11.8381 16.1446 11.8386 16.1022C11.8386 16.063 11.854 16.0253 11.8815 15.9976C11.9089 15.9698 11.946 15.9542 11.9848 15.9542C12.0267 15.9536 12.0674 15.9682 12.0996 15.9954C12.1317 16.0225 12.1532 16.0604 12.1602 16.1022C12.1602 16.1493 12.1417 16.1945 12.1088 16.2278C12.0759 16.2611 12.0313 16.2798 11.9848 16.2798Z" fill="#001A60"/>
<path d="M10.5821 15.6887C10.5356 15.6887 10.491 15.6699 10.4581 15.6366C10.4252 15.6033 10.4067 15.5582 10.4067 15.5111C10.4137 15.4692 10.4352 15.4313 10.4674 15.4042C10.4996 15.3771 10.5403 15.3625 10.5821 15.3631C10.6209 15.3631 10.6581 15.3786 10.6855 15.4064C10.7129 15.4342 10.7283 15.4718 10.7283 15.5111C10.7289 15.5535 10.7145 15.5947 10.6877 15.6272C10.6609 15.6598 10.6234 15.6816 10.5821 15.6887Z" fill="#001A60"/>
<path d="M9.99706 14.2376C9.95519 14.2382 9.91449 14.2236 9.88232 14.1964C9.85015 14.1693 9.82863 14.1314 9.82166 14.0896C9.82166 14.0425 9.84014 13.9973 9.87303 13.964C9.90593 13.9307 9.95054 13.912 9.99706 13.912C10.0384 13.919 10.0758 13.9408 10.1026 13.9734C10.1294 14.006 10.1438 14.0472 10.1432 14.0896C10.1432 14.1288 10.1278 14.1665 10.1004 14.1942C10.073 14.222 10.0358 14.2376 9.99706 14.2376Z" fill="#001A60"/>
<path d="M10.5821 12.8168C10.5356 12.8168 10.491 12.7981 10.4581 12.7648C10.4252 12.7315 10.4067 12.6863 10.4067 12.6392C10.4137 12.5974 10.4352 12.5595 10.4674 12.5324C10.4996 12.5052 10.5403 12.4906 10.5821 12.4912C10.6209 12.4912 10.6581 12.5068 10.6855 12.5346C10.7129 12.5623 10.7283 12.6 10.7283 12.6392C10.7289 12.6816 10.7145 12.7228 10.6877 12.7554C10.6609 12.788 10.6234 12.8098 10.5821 12.8168Z" fill="#001A60"/>
<path d="M13.593 14.1199C13.5853 14.5517 13.4085 14.9627 13.1014 15.2624C12.7944 15.5622 12.3824 15.7262 11.9559 15.7183C11.5295 15.7105 11.1236 15.5314 10.8275 15.2206C10.5315 14.9097 10.3695 14.4925 10.3773 14.0607C10.3924 13.6314 10.5716 13.2248 10.877 12.9267C11.1824 12.6285 11.5902 12.462 12.0144 12.4623C12.2267 12.4621 12.4369 12.5054 12.6323 12.5894C12.8278 12.6734 13.0045 12.7964 13.1519 12.9512C13.2992 13.1059 13.4143 13.2892 13.4901 13.49C13.5659 13.6908 13.6009 13.9051 13.593 14.1199Z" fill="url(#paint17_radial_4201_82255)"/>
<path d="M13.242 14.267C13.242 13.527 12.7743 13.1126 12.365 13.1126C12.2882 13.1044 12.2105 13.1118 12.1364 13.1342C12.0624 13.1566 11.9935 13.1936 11.9337 13.2432C11.8739 13.2927 11.8244 13.3538 11.788 13.4228C11.7516 13.4919 11.7292 13.5675 11.7219 13.6454C11.7248 13.736 11.7505 13.8243 11.7966 13.902C11.8426 13.9797 11.9074 14.0442 11.985 14.0894C12.0614 14.048 12.1468 14.0263 12.2335 14.0263C12.3202 14.0263 12.4055 14.048 12.482 14.0894C12.6025 14.1786 12.6847 14.311 12.7119 14.4596C12.7391 14.6082 12.7091 14.7617 12.6281 14.8886C12.3942 15.2438 11.8096 15.451 11.1664 15.0662C10.989 14.9566 10.8405 14.8051 10.7336 14.6247C10.6267 14.4443 10.5646 14.2403 10.5525 14.0302C10.5405 14.228 10.5687 14.4262 10.6353 14.6126C10.7019 14.7989 10.8055 14.9695 10.9397 15.1137C11.074 15.258 11.236 15.3728 11.4157 15.4512C11.5955 15.5296 11.7892 15.5698 11.985 15.5695C12.2118 15.5747 12.4353 15.513 12.6281 15.3918C12.8219 15.2788 12.9816 15.1142 13.0898 14.916C13.198 14.7178 13.2506 14.4934 13.242 14.267Z" fill="url(#paint18_linear_4201_82255)"/>
<path d="M11.1957 15.0955C11.8389 15.4507 12.4528 15.2435 12.6574 14.8587C12.7287 14.7266 12.7503 14.5727 12.718 14.4257C12.6858 14.2787 12.6019 14.1486 12.482 14.0595C12.4039 14.0197 12.3169 14.0016 12.2296 14.0067C12.1423 14.0119 12.058 14.0404 11.985 14.0891C11.9829 14.176 11.9573 14.2606 11.9109 14.3337C11.8645 14.4068 11.7991 14.4655 11.7219 14.5035C11.5856 14.566 11.4308 14.5732 11.2894 14.5237C11.1481 14.4741 11.0308 14.3716 10.9618 14.2371C10.7572 13.8523 10.8741 13.2307 11.5465 12.8755C11.7256 12.7652 11.9291 12.7021 12.1384 12.6917C12.3477 12.6814 12.5563 12.7242 12.7451 12.8163C12.5774 12.7107 12.3903 12.6407 12.1951 12.6104C11.9999 12.5801 11.8007 12.5901 11.6095 12.6399C11.4182 12.6897 11.2389 12.7782 11.0824 12.9001C10.9259 13.022 10.7953 13.1747 10.6987 13.3491C10.5834 13.5462 10.5228 13.7712 10.5233 14.0003C10.5373 14.2249 10.606 14.4425 10.7233 14.6336C10.8407 14.8247 11.003 14.9834 11.1957 15.0955Z" fill="url(#paint19_radial_4201_82255)"/>
<path d="M11.5183 12.8762C10.8751 13.261 10.7582 13.8826 10.9628 14.2378C11.0373 14.375 11.1581 14.4804 11.303 14.5347C11.448 14.5891 11.6074 14.5888 11.7521 14.5338C11.8225 14.4833 11.8803 14.4169 11.9209 14.3398C11.9615 14.2627 11.9838 14.1771 11.986 14.0898C11.9139 14.0411 11.8549 13.975 11.8141 13.8975C11.7733 13.8201 11.752 13.7336 11.7521 13.6458C11.7557 13.5692 11.7747 13.4942 11.8079 13.4253C11.8412 13.3564 11.888 13.2951 11.9455 13.2452C12.003 13.1953 12.07 13.1579 12.1423 13.1351C12.2146 13.1124 12.2908 13.1049 12.3661 13.113C12.7753 13.113 13.2723 13.557 13.2431 14.297C13.2397 14.5064 13.1877 14.7119 13.0912 14.8971C12.9947 15.0822 12.8564 15.2417 12.6876 15.3626C13.0315 15.1692 13.2859 14.8459 13.3954 14.4634C13.5049 14.0808 13.4607 13.6699 13.2723 13.3202C13.155 13.1276 12.9949 12.9654 12.8046 12.8466C12.6048 12.7423 12.3824 12.6904 12.1577 12.6955C11.933 12.7007 11.7132 12.7628 11.5183 12.8762Z" fill="url(#paint20_radial_4201_82255)"/>
<path d="M14.6165 14.2085C14.805 14.2619 15.0031 14.2709 15.1956 14.235C15.3881 14.1991 15.57 14.1192 15.7274 14.0013L15.5812 13.9421C15.4382 14.0308 15.278 14.0872 15.1115 14.1076C14.9451 14.128 14.7762 14.112 14.6165 14.0605V14.2085Z" fill="#E49D00"/>
<path d="M22.4224 8.19878C22.6959 8.05437 22.9361 7.85319 23.1276 7.60836C23.319 7.36353 23.4573 7.08057 23.5333 6.77795C23.3277 7.22519 22.9908 7.59732 22.5686 7.84357C22.5686 7.84357 21.4577 8.58358 17.3357 9.8268C17.3357 9.8268 15.4062 11.6916 13.5937 11.81L13.7106 11.958C15.7278 11.6324 17.3357 10.034 17.3357 10.034C19.0086 9.54901 20.6491 8.95578 22.247 8.25798L22.4224 8.19878Z" fill="#E49D00"/>
<path d="M20.434 10.8345C19.1185 10.9233 17.5398 10.9529 16.4874 10.9233H16.4289L16.2243 11.0417C17.6276 11.0939 19.0327 11.0741 20.434 10.9825C20.7598 10.938 21.0713 10.8189 21.3449 10.6343C21.6184 10.4496 21.8468 10.2043 22.0127 9.91687C21.6261 10.421 21.0589 10.7507 20.434 10.8345Z" fill="#E49D00"/>
<path d="M18.3294 12.254C17.3465 12.1011 16.3782 11.8634 15.4352 11.5436L15.2598 11.6324C16.2192 12.0168 17.2201 12.285 18.2417 12.4316C18.5547 12.4912 18.878 12.4588 19.1733 12.3381C19.4686 12.2174 19.7236 12.0136 19.9081 11.7508C19.702 11.9535 19.4518 12.1047 19.1777 12.192C18.9036 12.2794 18.6131 12.3006 18.3294 12.254Z" fill="#E49D00"/>
<path d="M17.1602 13.1723C16.137 13.0835 15.0846 12.2547 14.646 11.8699L14.4999 11.9291C15.2892 12.6395 16.2539 13.2907 17.1017 13.3203C17.2975 13.3322 17.4932 13.2952 17.6716 13.2126C17.85 13.13 18.0057 13.0044 18.1249 12.8467C18 12.9729 17.8478 13.0679 17.6804 13.1244C17.513 13.1809 17.3349 13.1973 17.1602 13.1723Z" fill="#E49D00"/>
<path d="M15.6697 13.6162C14.9973 13.3794 14.3834 12.6986 13.9741 12.077H13.8279L14.0618 12.4322C14.0911 12.4618 14.091 12.4914 14.1203 12.4914C14.4787 13.01 14.9617 13.4276 15.5235 13.7051C15.6892 13.7787 15.8712 13.8065 16.0509 13.7857C16.2307 13.7649 16.4017 13.6962 16.5467 13.5866H16.576C16.2894 13.7163 15.964 13.7269 15.6697 13.6162Z" fill="#E49D00"/>
<path d="M16.8673 9.59093C17.103 9.32989 17.3796 9.10989 17.6859 8.93972C20.2292 7.22289 21.7786 6.39408 23.7373 5.06206C23.742 4.99168 23.7321 4.92109 23.7081 4.85486H23.7373L20.4339 6.98609L17.6274 8.79172C17.3149 8.96574 17.0293 9.18513 16.7796 9.44293C16.078 10.1829 14.9963 11.1598 13.2715 11.3374L13.3592 11.4558C13.9439 11.4262 15.3471 11.1598 16.8673 9.59093Z" fill="#FFF4CD"/>
<path d="M17.423 10.1823L17.2184 10.3599C18.9849 9.91295 20.7148 9.32909 22.3928 8.61352C22.4089 8.55557 22.4187 8.49601 22.4221 8.43591C20.7894 9.11251 19.1204 9.69558 17.423 10.1823Z" fill="#FFF4CD"/>
<path d="M20.2298 11.2186C18.4173 11.2778 17.0433 11.2778 16.0201 11.2186L15.9031 11.2778C17.3239 11.3779 18.7494 11.3878 20.1713 11.3074V11.2186H20.2298Z" fill="#FFF4CD"/>
<path d="M15.0842 11.7218H14.9672C15.9994 12.1968 17.0914 12.5255 18.2122 12.6986V12.6098C17.1423 12.4229 16.0941 12.1253 15.0842 11.7218Z" fill="#FFF4CD"/>
<path d="M16.7508 13.4385C15.7568 13.2017 14.8798 12.4616 14.2951 11.988H14.2074C15.2014 12.9353 16.0492 13.3497 16.6631 13.4681L16.7508 13.4385Z" fill="#FFF4CD"/>
<path d="M9.38416 14.2085C9.19562 14.2619 8.99755 14.2709 8.80504 14.235C8.61253 14.1991 8.43065 14.1192 8.27325 14.0013L8.41943 13.9421C8.56245 14.0308 8.72261 14.0872 8.88907 14.1076C9.05552 14.128 9.22437 14.112 9.38416 14.0605V14.2085Z" fill="#E49D00"/>
<path d="M1.57788 8.19878C1.30422 8.05041 1.06247 7.84837 0.866726 7.60443C0.670979 7.3605 0.525151 7.07954 0.437744 6.77795C0.664142 7.22028 1.0085 7.58945 1.43171 7.84357C1.43171 7.84357 2.54261 8.58358 6.66463 9.8268C6.66463 9.8268 8.59409 11.6916 10.4066 11.81L10.2897 11.958C8.27251 11.6324 6.66463 10.034 6.66463 10.034C4.98224 9.54867 3.33205 8.95546 1.72405 8.25798L1.57788 8.19878Z" fill="#E49D00"/>
<path d="M3.53666 10.8345C4.8522 10.9233 6.46008 10.9529 7.51251 10.9233H7.57098L7.74638 11.0417C6.34305 11.0938 4.93802 11.074 3.53666 10.9825C3.21604 10.9338 2.91033 10.8127 2.64214 10.6283C2.37395 10.4438 2.15014 10.2007 1.98724 9.91687C2.36686 10.4144 2.92231 10.7433 3.53666 10.8345Z" fill="#E49D00"/>
<path d="M5.67075 12.254C6.65304 12.0977 7.62101 11.8601 8.56494 11.5436L8.74034 11.6324C7.77202 12.0204 6.76101 12.2887 5.72922 12.4316C5.4206 12.4889 5.10221 12.4552 4.81197 12.3345C4.52173 12.2138 4.27186 12.0112 4.0921 11.7508C4.29548 11.9576 4.54534 12.1114 4.82028 12.199C5.09522 12.2867 5.38704 12.3055 5.67075 12.254Z" fill="#E49D00"/>
<path d="M6.84009 13.1723C7.86329 13.0835 8.91572 12.2547 9.35424 11.8699L9.50041 11.9291C8.71108 12.6395 7.74636 13.2907 6.89856 13.3203C6.70276 13.3322 6.50707 13.2952 6.32867 13.2126C6.15028 13.13 5.99462 13.0044 5.87536 12.8467H5.84613C5.97797 12.9716 6.1354 13.0656 6.30721 13.1219C6.47901 13.1781 6.66096 13.1954 6.84009 13.1723Z" fill="#E49D00"/>
<path d="M8.33058 13.6162C8.97373 13.3794 9.61688 12.6986 10.0262 12.077H10.1723L9.93846 12.4322C9.90922 12.4618 9.90922 12.4914 9.87999 12.4914C9.51521 13.0041 9.03391 13.4204 8.47675 13.7051C8.31109 13.7787 8.12911 13.8065 7.94936 13.7857C7.76962 13.7649 7.59854 13.6962 7.45355 13.5866H7.42432C7.71092 13.7163 8.03632 13.7269 8.33058 13.6162Z" fill="#E49D00"/>
<path d="M7.13292 9.59093C6.89061 9.33715 6.61522 9.11805 6.31436 8.93972C3.77099 7.22289 2.22157 6.39408 0.262878 5.06206V4.85486L3.56635 6.98609L6.37283 8.79172C6.67909 8.96189 6.95564 9.18189 7.19139 9.44293C7.92224 10.1829 9.00391 11.1598 10.7287 11.3374L10.641 11.4558C10.0563 11.4262 8.6531 11.1598 7.13292 9.59093Z" fill="#FFF4CD"/>
<path d="M6.57718 10.1823L6.78182 10.3599C5.00694 9.90906 3.26759 9.32531 1.57812 8.61352V8.43591C3.21081 9.11251 4.8798 9.69558 6.57718 10.1823Z" fill="#FFF4CD"/>
<path d="M3.771 11.2186C5.58352 11.2778 6.95753 11.2778 7.98072 11.2186L8.09766 11.2778C6.67693 11.3779 5.25141 11.3878 3.82946 11.3074L3.771 11.2186Z" fill="#FFF4CD"/>
<path d="M8.9159 11.7218H9.03284C7.99925 12.1931 6.90782 12.5216 5.78784 12.6986V12.6098C6.85778 12.4229 7.90595 12.1253 8.9159 11.7218Z" fill="#FFF4CD"/>
<path d="M7.24939 13.4385C8.24335 13.2017 9.12038 12.4616 9.67583 11.988H9.79277C8.7988 12.9353 7.95101 13.3497 7.30786 13.4681L7.24939 13.4385Z" fill="#FFF4CD"/>
<path d="M15.142 16.6644L15.2004 16.5164C14.708 16.4641 14.251 16.2327 13.9141 15.8652C13.8907 15.9178 13.8491 15.9599 13.7972 15.9836C14.1457 16.3728 14.6254 16.6156 15.142 16.6644Z" fill="#FFF4CD"/>
<path d="M13.9436 17.9375C13.5819 17.505 13.3131 17.001 13.1542 16.4575L13.0373 16.5167C13.0958 16.7831 13.3881 17.7599 13.8559 18.1447C13.8639 18.157 13.8747 18.167 13.8875 18.1739C13.9002 18.1808 13.9145 18.1845 13.9289 18.1845C13.9434 18.1845 13.9577 18.1808 13.9704 18.1739C13.9832 18.167 13.994 18.157 14.002 18.1447L14.119 18.0263L13.9436 17.9375Z" fill="#E49D00"/>
<path d="M14.5582 14.5041C14.9865 14.6288 15.4454 14.5866 15.8445 14.3857H15.8737V14.2673C15.6504 14.3956 15.3995 14.4667 15.1429 14.4745H14.5874C14.5788 14.4855 14.569 14.4955 14.5582 14.5041Z" fill="#FFF4CD"/>
<path d="M15.2603 16.1618C14.8316 16.1202 14.4296 15.9323 14.1202 15.629L14.0325 15.7474C14.3491 16.0672 14.7592 16.2748 15.2018 16.3394L15.348 16.2506C15.3772 16.221 15.3772 16.1618 15.4065 16.1322L15.2603 16.1618Z" fill="#E49D00"/>
<path d="M13.7681 18.3823C13.5635 18.2047 13.1834 17.7903 12.8326 16.5767L12.6865 16.6359C13.125 18.3231 13.7681 18.3823 13.7681 18.3823Z" fill="#FFF4CD"/>
<path d="M12.4822 18.8851C12.4237 18.4115 12.3652 17.2275 12.3652 16.6947H12.2191C12.2191 16.8723 12.2483 18.7075 12.3068 19.2107H12.336C12.8212 18.9765 13.2734 18.6779 13.6808 18.3227C13.3755 18.6148 13.0184 18.8458 12.6283 19.0035C12.5991 19.0035 12.4822 19.0331 12.4822 18.8851Z" fill="#E49D00"/>
<path d="M8.85736 16.6644C8.82156 16.6234 8.8009 16.5711 8.79889 16.5164C9.28777 16.452 9.74093 16.2226 10.0852 15.8652L10.1729 15.9836C9.83896 16.3757 9.36683 16.6201 8.85736 16.6644Z" fill="#FFF4CD"/>
<path d="M10.056 17.9375C10.4101 17.5043 10.6692 16.9998 10.816 16.4575L10.9622 16.5167C10.8745 16.7831 10.6114 17.7599 10.1437 18.1447C10.1357 18.157 10.1248 18.167 10.112 18.1739C10.0993 18.1808 10.085 18.1845 10.0706 18.1845C10.0561 18.1845 10.0419 18.1808 10.0291 18.1739C10.0163 18.167 10.0055 18.157 9.99749 18.1447L9.85132 18.0263L10.056 17.9375Z" fill="#E49D00"/>
<path d="M9.41228 14.5041C8.98346 14.6232 8.52657 14.5811 8.12598 14.3857V14.2673C8.34019 14.3921 8.58075 14.4631 8.8276 14.4745H9.41228V14.5041Z" fill="#FFF4CD"/>
<path d="M8.74053 16.1618C9.16923 16.1202 9.57123 15.9323 9.88067 15.629L9.96837 15.7474C9.65174 16.0672 9.2416 16.2748 8.799 16.3394C8.76852 16.342 8.73803 16.3348 8.71181 16.3188C8.68558 16.3029 8.66496 16.2791 8.65283 16.2506C8.62359 16.221 8.62359 16.1618 8.59436 16.1322L8.74053 16.1618Z" fill="#E49D00"/>
<path d="M10.2319 18.3823C10.4365 18.2047 10.8166 17.7903 11.1674 16.5767L11.2843 16.6359C10.875 18.3231 10.2319 18.3823 10.2319 18.3823Z" fill="#FFF4CD"/>
<path d="M11.5184 18.8851C11.5769 18.4115 11.6061 17.2275 11.6354 16.6947H11.7523C11.7523 16.8723 11.7523 18.7075 11.6938 19.2107C11.6861 19.2107 11.6786 19.2139 11.6732 19.2194C11.6677 19.225 11.6646 19.2325 11.6646 19.2403C11.175 19.0141 10.7217 18.7148 10.3198 18.3523C10.6345 18.6022 10.991 18.7927 11.3723 18.9147C11.4015 19.0035 11.5184 19.0331 11.5184 18.8851Z" fill="#E49D00"/>
<path d="M11.1668 10.9813C11.3403 10.6446 11.4115 10.2636 11.3715 9.88605C11.3422 9.88605 10.7575 9.61965 10.7868 9.91565C10.816 10.2117 10.5821 9.53085 10.8452 9.41244C10.9716 9.37905 11.1054 9.38947 11.2253 9.44204L11.5176 9.50124C11.6504 9.39233 11.8146 9.33001 11.9854 9.32364C11.7508 9.23691 11.4952 9.22657 11.2545 9.29404C11.3715 8.93884 11.693 8.93884 11.9854 8.99804C12.1559 9.06357 12.3321 9.11311 12.5116 9.14604C12.6507 9.17481 12.7953 9.15389 12.9209 9.08684C12.947 9.13258 12.9606 9.18457 12.9601 9.2374C12.9597 9.29024 12.9453 9.342 12.9185 9.38731C12.8916 9.43262 12.8533 9.46982 12.8075 9.49506C12.7616 9.5203 12.7099 9.53266 12.6578 9.53085C12.6578 9.53085 12.5993 10.5965 12.8916 11.1293C13.045 11.4005 13.2211 11.658 13.4179 11.8989C13.0001 11.61 12.5059 11.4554 12 11.4554C11.4941 11.4554 10.9999 11.61 10.5821 11.8989C10.7283 11.6621 11.0791 11.1589 11.1668 10.9813ZM23.9714 4.67637C23.9714 4.35077 23.7668 4.49877 23.7668 4.49877C21.4865 6.06759 18.3292 8.08042 17.3937 8.67243C17.0268 8.93642 16.6843 9.23365 16.3705 9.56045C14.7626 11.1885 13.184 11.1293 13.1548 11.1293C13.1255 11.1293 12.8624 9.64925 12.8624 9.64925C13.3594 9.47164 13.0378 8.76123 13.0378 8.76123C12.9556 8.84531 12.8515 8.9039 12.7375 8.93011C12.6236 8.95633 12.5047 8.94909 12.3947 8.90924C12.2673 8.84271 12.1282 8.80247 11.9854 8.79084C11.1376 8.67243 11.0499 9.23484 11.0499 9.23484C10.9452 9.20531 10.8333 9.21621 10.7361 9.26543C10.6389 9.31466 10.5632 9.3987 10.5237 9.50124C10.4067 9.91565 10.8452 10.1229 10.8452 10.1229L11.1961 10.0341C11.1942 10.4271 11.0716 10.8099 10.8452 11.1293C10.7575 11.1293 9.20813 11.1589 7.60025 9.56045C7.29341 9.22625 6.95016 8.92834 6.57705 8.67243C5.67079 8.08042 2.51349 6.06759 0.203991 4.49877C0.203991 4.49877 0.0285855 4.35077 0.0285855 4.67637C-0.0883513 6.09719 0.116288 7.57722 1.34413 8.34683C1.34413 8.34683 1.19795 10.7445 3.53669 11.2181C3.53669 11.2181 4.03367 12.6981 5.55385 12.6389C5.63933 12.8439 5.77116 13.0257 5.93873 13.1696C6.1063 13.3136 6.30491 13.4157 6.51858 13.4677C6.70222 13.5016 6.89039 13.5016 7.07403 13.4677C7.14913 13.6178 7.26125 13.7458 7.39955 13.8391C7.53784 13.9325 7.69761 13.9881 7.86336 14.0005C7.94852 15.2603 8.37955 16.471 9.10786 17.4961C9.83617 18.5212 10.8328 19.3199 11.9854 19.8022C16.1074 17.967 16.1366 14.0005 16.1366 14.0005C16.2989 13.9889 16.4551 13.9334 16.5888 13.8396C16.7226 13.7459 16.8289 13.6174 16.8967 13.4677C17.0902 13.502 17.288 13.502 17.4814 13.4677C17.6951 13.4157 17.8937 13.3136 18.0613 13.1696C18.2288 13.0257 18.3607 12.8439 18.4461 12.6389C19.9663 12.6981 20.4633 11.2181 20.4633 11.2181C22.802 10.7445 22.6559 8.34683 22.6559 8.34683C23.8837 7.57722 24.0884 6.09719 23.9714 4.67637ZM0.262459 4.85398L6.37241 8.79084C6.67867 8.96101 6.95522 9.18101 7.19097 9.44204C7.92183 10.1821 9.00349 11.1589 10.7283 11.3365L10.2898 11.9581C8.27264 11.6325 6.66475 10.0341 6.66475 10.0341C4.98236 9.54872 3.33217 8.95551 1.72417 8.25803L1.578 8.19883C-0.059117 7.39961 0.262459 4.85398 0.262459 4.85398ZM1.578 8.43563C3.21069 9.11223 4.87967 9.69529 6.57705 10.1821C6.57705 10.1821 6.9571 10.5077 7.57101 10.9517L7.74642 11.0701C6.34309 11.1221 4.93805 11.1024 3.53669 11.0109C1.578 10.6557 1.578 8.43563 1.578 8.43563ZM3.77057 11.2181C5.58309 11.2773 6.9571 11.2773 7.98029 11.2181C8.2178 11.3841 8.47272 11.5231 8.74038 11.6325C7.77206 12.0205 6.76105 12.2888 5.72926 12.4317C5.31529 12.4839 4.89607 12.3923 4.54024 12.1718C4.18441 11.9513 3.91304 11.6151 3.77057 11.2181ZM6.89863 13.3197C6.6616 13.3451 6.42279 13.2926 6.21749 13.17C6.01218 13.0474 5.85126 12.8612 5.75849 12.6389C6.83943 12.4444 7.89753 12.1369 8.91579 11.7213L9.50047 11.9285C8.71115 12.6389 7.74642 13.2901 6.89863 13.3197ZM7.24944 13.4381C8.2434 13.2013 9.12043 12.4613 9.67588 11.9877H9.76358L10.1729 12.0765C10.1146 12.1818 10.046 12.281 9.96822 12.3725L9.82205 12.5797C9.46016 13.0494 9.00118 13.4333 8.47728 13.7045C8.27151 13.7996 8.04097 13.825 7.81982 13.777C7.59866 13.7291 7.39866 13.6102 7.24944 13.4381ZM9.38354 14.2077C9.195 14.261 8.99693 14.2701 8.80442 14.2342C8.61191 14.1983 8.43003 14.1184 8.27264 14.0005C8.74137 13.8383 9.17012 13.5758 9.52971 13.2309C9.4363 13.5074 9.38696 13.7971 9.38354 14.0893V14.2077ZM8.65268 16.2501C8.37809 15.6513 8.20042 15.0117 8.12646 14.3557V14.2373C8.51065 14.448 8.95707 14.5111 9.38354 14.4149C9.44218 14.9171 9.64553 15.3906 9.96822 15.7765C9.64696 16.0897 9.23903 16.2962 8.79885 16.3685C8.76466 16.3692 8.7313 16.3578 8.70459 16.3361C8.67788 16.3145 8.65951 16.2841 8.65268 16.2501ZM10.1436 18.1446C10.1327 18.1572 10.1192 18.1673 10.104 18.1742C10.0889 18.1811 10.0725 18.1847 10.0559 18.1847C10.0393 18.1847 10.0229 18.1811 10.0078 18.1742C9.99269 18.1673 9.97919 18.1572 9.96822 18.1446C9.4895 17.6735 9.09399 17.1228 8.79885 16.5166C9.28774 16.4521 9.74089 16.2227 10.0852 15.8653C10.317 16.1555 10.6192 16.3798 10.9622 16.5166C10.8745 16.783 10.6114 17.7598 10.1436 18.1446ZM11.7515 16.931C11.7515 17.4934 11.7515 19.0622 11.6638 19.3286C11.1471 19.0782 10.6654 18.7597 10.2313 18.3814C10.436 18.2334 10.816 17.7894 11.1668 16.6054L11.7515 16.7238V16.931ZM11.9854 16.5462C11.5055 16.5462 11.0363 16.4021 10.6373 16.1321C10.2383 15.8621 9.9273 15.4784 9.74364 15.0295C9.55999 14.5806 9.51194 14.0866 9.60556 13.61C9.69919 13.1334 9.93029 12.6957 10.2696 12.3521C10.609 12.0085 11.0413 11.7745 11.512 11.6797C11.9827 11.5849 12.4706 11.6335 12.9139 11.8195C13.3573 12.0054 13.7363 12.3203 14.0029 12.7244C14.2695 13.1284 14.4118 13.6034 14.4118 14.0893C14.4118 14.7409 14.1562 15.3658 13.7011 15.8266C13.2461 16.2873 12.6289 16.5462 11.9854 16.5462ZM12.3362 19.3286C12.2485 19.0622 12.2485 17.4934 12.2193 16.931V16.7238C12.4306 16.7094 12.6381 16.6594 12.8332 16.5758C13.184 17.7894 13.564 18.2038 13.7687 18.3814C13.3346 18.7597 12.8529 19.0782 12.3362 19.3286ZM14.0025 18.1446C13.9945 18.1568 13.9837 18.1668 13.9709 18.1737C13.9582 18.1807 13.9439 18.1843 13.9295 18.1843C13.915 18.1843 13.9007 18.1807 13.888 18.1737C13.8752 18.1668 13.8644 18.1568 13.8564 18.1446C13.3886 17.7598 13.0963 16.783 13.0378 16.5166C13.3746 16.3686 13.6742 16.1461 13.9148 15.8653C14.2517 16.2328 14.7087 16.4642 15.2011 16.5166C14.9059 17.1305 14.4993 17.6828 14.0025 18.1446ZM15.8735 14.3261C15.7858 14.9793 15.6087 15.6168 15.3473 16.2205L15.2011 16.3093C14.7586 16.2447 14.3484 16.0371 14.0318 15.7173C14.3344 15.3222 14.5263 14.8519 14.5872 14.3557C15.0234 14.4487 15.4779 14.386 15.8735 14.1781V14.3261ZM14.4703 13.2309C14.8209 13.5876 15.2525 13.8519 15.7274 14.0005C15.57 14.1184 15.3881 14.1983 15.1956 14.2342C15.0031 14.2701 14.805 14.261 14.6165 14.2077V14.0893C14.613 13.7971 14.5637 13.5074 14.4703 13.2309ZM15.5227 13.7341C14.9608 13.4567 14.4779 13.039 14.1195 12.5205C14.0902 12.5205 14.0902 12.4909 14.061 12.4613L13.8271 12.1061L14.2364 12.0173H14.2949C14.8796 12.4909 15.7566 13.2309 16.7506 13.4677C16.6013 13.6398 16.4013 13.7587 16.1802 13.8066C15.959 13.8546 15.7285 13.8292 15.5227 13.7341ZM17.1014 13.3197C16.2536 13.2901 15.2888 12.6389 14.4995 11.9285L15.0842 11.7213C16.1025 12.1369 17.1606 12.4444 18.2415 12.6389C18.1487 12.8612 17.9878 13.0474 17.7825 13.17C17.5772 13.2926 17.3384 13.3451 17.1014 13.3197ZM20.2002 11.2181C20.0623 11.6183 19.7919 11.9578 19.4349 12.179C19.0778 12.4002 18.6562 12.4895 18.2415 12.4317C17.2199 12.2851 16.219 12.0169 15.2596 11.6325C15.5273 11.5231 15.7822 11.3841 16.0197 11.2181C17.0429 11.2773 18.4169 11.2773 20.2294 11.2181H20.2002ZM20.4341 11.0109C19.0327 11.1025 17.6277 11.1223 16.2243 11.0701L16.429 10.9517C17.0429 10.5077 17.4229 10.1821 17.4229 10.1821C19.1203 9.69529 20.7893 9.11223 22.422 8.43563C22.422 8.43563 22.422 10.6557 20.4341 11.0109ZM22.422 8.19883L22.2466 8.25803C20.6487 8.95583 19.0082 9.54906 17.3352 10.0341C17.3352 10.0341 15.7274 11.6325 13.7102 11.9581C13.5537 11.7585 13.4074 11.5511 13.2717 11.3365C14.9965 11.1589 16.0782 10.1821 16.7798 9.44204C17.0295 9.18425 17.3151 8.96486 17.6276 8.79084L23.7375 4.85398H23.7083C23.7083 4.85398 24.0591 7.39961 22.422 8.19883Z" fill="#001A60"/>
<path d="M11.9859 11.4253C12.4955 11.4313 12.9927 11.5854 13.4184 11.8693C13.2216 11.6284 13.0455 11.3709 12.8921 11.0997C12.5998 10.5669 12.6583 9.50124 12.6583 9.50124C12.7104 9.50306 12.7621 9.4907 12.808 9.46546C12.8538 9.44022 12.8921 9.40302 12.919 9.35771C12.9458 9.3124 12.9602 9.26064 12.9606 9.2078C12.9611 9.15497 12.9475 9.10298 12.9214 9.05724C12.7958 9.12429 12.6512 9.14521 12.5121 9.11644C12.3326 9.08351 12.1564 9.03396 11.9859 8.96844C11.6935 8.90924 11.372 8.90924 11.255 9.26444C11.4957 9.19696 11.7513 9.20731 11.9859 9.29404C11.8151 9.30041 11.651 9.36273 11.5181 9.47164L11.2258 9.41244C11.1059 9.35987 10.9721 9.34945 10.8458 9.38284C10.5826 9.50124 10.6996 9.79725 10.7873 9.88605C10.875 9.97485 11.3427 9.85645 11.372 9.85645C11.412 10.234 11.3408 10.615 11.1673 10.9517C11.0796 11.1293 10.7288 11.6325 10.5826 11.8397C11.003 11.5716 11.4891 11.428 11.9859 11.4253Z" fill="url(#paint21_linear_4201_82255)"/>
<path d="M11.9854 9.17564L12.5116 9.32364C12.6583 9.34344 12.8074 9.33338 12.9502 9.29404C12.9573 9.2139 12.9473 9.13315 12.9209 9.05724C12.7954 9.12429 12.6507 9.14521 12.5116 9.11644C12.3321 9.08351 12.156 9.03396 11.9854 8.96844C11.6931 8.90924 11.3715 8.90924 11.2546 9.26444H11.43C11.5089 9.20591 11.6005 9.16731 11.6971 9.15186C11.7937 9.13641 11.8926 9.14457 11.9854 9.17564Z" fill="#FFF4CD"/>
<path d="M10.8454 9.62035C10.9817 9.58871 11.1242 9.59901 11.2547 9.64995L11.5471 9.73876C11.6552 9.56437 11.8063 9.42153 11.9856 9.32435C11.8631 9.32373 11.7425 9.35426 11.6348 9.41315L11.5178 9.50195L11.3132 9.44275C11.1665 9.37367 10.9995 9.3631 10.8454 9.41315C10.8133 9.42279 10.7836 9.4393 10.7584 9.46156C10.7331 9.48383 10.7129 9.51133 10.699 9.5422C10.6851 9.57307 10.678 9.60659 10.678 9.64051C10.6781 9.67442 10.6853 9.70792 10.6993 9.73876C10.7353 9.68549 10.7862 9.64427 10.8454 9.62035Z" fill="#FFF4CD"/>
<defs>
<radialGradient id="paint0_radial_4201_82255" cx="0" cy="0" r="1" gradientUnits="userSpaceOnUse" gradientTransform="translate(8.34368 4.53651) scale(12.4982 12.6548)">
<stop stop-color="#FEE7A9"/>
<stop offset="0.46" stop-color="#FFD900"/>
<stop offset="1" stop-color="#E49D00"/>
</radialGradient>
<linearGradient id="paint1_linear_4201_82255" x1="8.81327" y1="5.73311" x2="12.8676" y2="10.7545" gradientUnits="userSpaceOnUse">
<stop stop-color="#002F82"/>
<stop offset="1" stop-color="#001A60"/>
</linearGradient>
<linearGradient id="paint2_linear_4201_82255" x1="8.3231" y1="14.143" x2="7.16094" y2="6.96047" gradientUnits="userSpaceOnUse">
<stop stop-color="#CA8200"/>
<stop offset="0.3" stop-color="#E1A504"/>
<stop offset="1" stop-color="#CA8200"/>
</linearGradient>
<linearGradient id="paint3_linear_4201_82255" x1="10.003" y1="20.5159" x2="-1.14805" y2="-5.3288" gradientUnits="userSpaceOnUse">
<stop stop-color="#FEDA5D"/>
<stop offset="1" stop-color="#996100"/>
</linearGradient>
<linearGradient id="paint4_linear_4201_82255" x1="8.26448" y1="13.7379" x2="9.52448" y2="13.7379" gradientUnits="userSpaceOnUse">
<stop stop-color="#FEE7A9"/>
<stop offset="0.46" stop-color="#FFD900"/>
<stop offset="1" stop-color="#E49D00"/>
</linearGradient>
<linearGradient id="paint5_linear_4201_82255" x1="7.25524" y1="12.9" x2="10.167" y2="12.9" gradientUnits="userSpaceOnUse">
<stop stop-color="#FEE7A9"/>
<stop offset="0.46" stop-color="#FFD900"/>
<stop offset="1" stop-color="#E49D00"/>
</linearGradient>
<linearGradient id="paint6_linear_4201_82255" x1="1.58397" y1="9.77385" x2="7.75824" y2="9.77385" gradientUnits="userSpaceOnUse">
<stop stop-color="#FEE7A9"/>
<stop offset="0.46" stop-color="#FFD900"/>
<stop offset="1" stop-color="#E49D00"/>
</linearGradient>
<linearGradient id="paint7_linear_4201_82255" x1="0.411066" y1="6.24312" x2="11.9929" y2="12.3747" gradientUnits="userSpaceOnUse">
<stop stop-color="#FEE7A9"/>
<stop offset="0.46" stop-color="#FFD900"/>
<stop offset="1" stop-color="#E49D00"/>
</linearGradient>
<linearGradient id="paint8_linear_4201_82255" x1="3.77977" y1="11.8373" x2="8.74666" y2="11.8373" gradientUnits="userSpaceOnUse">
<stop stop-color="#FEE7A9"/>
<stop offset="0.46" stop-color="#FFD900"/>
<stop offset="1" stop-color="#E49D00"/>
</linearGradient>
<linearGradient id="paint9_linear_4201_82255" x1="5.74649" y1="12.521" x2="9.50893" y2="12.521" gradientUnits="userSpaceOnUse">
<stop stop-color="#FEE7A9"/>
<stop offset="0.46" stop-color="#FFD900"/>
<stop offset="1" stop-color="#E49D00"/>
</linearGradient>
<linearGradient id="paint10_linear_4201_82255" x1="15.7302" y1="13.7379" x2="14.4702" y2="13.7379" gradientUnits="userSpaceOnUse">
<stop stop-color="#FEE7A9"/>
<stop offset="0.46" stop-color="#FFD900"/>
<stop offset="1" stop-color="#E49D00"/>
</linearGradient>
<linearGradient id="paint11_linear_4201_82255" x1="16.7397" y1="12.9" x2="13.8279" y2="12.9" gradientUnits="userSpaceOnUse">
<stop stop-color="#FEE7A9"/>
<stop offset="0.46" stop-color="#FFD900"/>
<stop offset="1" stop-color="#E49D00"/>
</linearGradient>
<linearGradient id="paint12_linear_4201_82255" x1="22.4103" y1="9.77385" x2="16.236" y2="9.77385" gradientUnits="userSpaceOnUse">
<stop stop-color="#FEE7A9"/>
<stop offset="0.46" stop-color="#FFD900"/>
<stop offset="1" stop-color="#E49D00"/>
</linearGradient>
<linearGradient id="paint13_linear_4201_82255" x1="23.5795" y1="6.24312" x2="12.0005" y2="12.3747" gradientUnits="userSpaceOnUse">
<stop stop-color="#FEE7A9"/>
<stop offset="0.46" stop-color="#FFD900"/>
<stop offset="1" stop-color="#E49D00"/>
</linearGradient>
<linearGradient id="paint14_linear_4201_82255" x1="20.215" y1="11.8373" x2="15.2481" y2="11.8373" gradientUnits="userSpaceOnUse">
<stop stop-color="#FEE7A9"/>
<stop offset="0.46" stop-color="#FFD900"/>
<stop offset="1" stop-color="#E49D00"/>
</linearGradient>
<linearGradient id="paint15_linear_4201_82255" x1="18.2477" y1="12.521" x2="14.4853" y2="12.521" gradientUnits="userSpaceOnUse">
<stop stop-color="#FEE7A9"/>
<stop offset="0.46" stop-color="#FFD900"/>
<stop offset="1" stop-color="#E49D00"/>
</linearGradient>
<linearGradient id="paint16_linear_4201_82255" x1="11.9911" y1="11.5261" x2="11.9911" y2="16.5404" gradientUnits="userSpaceOnUse">
<stop stop-color="#FEE7A9"/>
<stop offset="0.46" stop-color="#FFD900"/>
<stop offset="1" stop-color="#E49D00"/>
</linearGradient>
<radialGradient id="paint17_radial_4201_82255" cx="0" cy="0" r="1" gradientUnits="userSpaceOnUse" gradientTransform="translate(11.9852 14.0761) scale(1.60905 1.62921)">
<stop stop-color="#036EB8"/>
<stop offset="0.57" stop-color="#003894"/>
</radialGradient>
<linearGradient id="paint18_linear_4201_82255" x1="11.716" y1="14.2315" x2="13.3149" y2="14.6595" gradientUnits="userSpaceOnUse">
<stop stop-color="#FEE7A9"/>
<stop offset="0.46" stop-color="#FFD900"/>
<stop offset="1" stop-color="#E49D00"/>
</linearGradient>
<radialGradient id="paint19_radial_4201_82255" cx="0" cy="0" r="1" gradientUnits="userSpaceOnUse" gradientTransform="translate(12.2025 14.3117) scale(2.2218 2.24963)">
<stop stop-color="#036EB8"/>
<stop offset="0.57" stop-color="#003894"/>
</radialGradient>
<radialGradient id="paint20_radial_4201_82255" cx="0" cy="0" r="1" gradientUnits="userSpaceOnUse" gradientTransform="translate(11.9603 14.1467) scale(1.4126 1.43029)">
<stop stop-color="#E6002D"/>
<stop offset="0.22" stop-color="#DB032B"/>
<stop offset="0.6" stop-color="#BE0C24"/>
<stop offset="1" stop-color="#99161C"/>
</radialGradient>
<linearGradient id="paint21_linear_4201_82255" x1="12.0005" y1="9.11348" x2="12.0005" y2="11.9107" gradientUnits="userSpaceOnUse">
<stop stop-color="#FEE7A9"/>
<stop offset="0.46" stop-color="#FFD900"/>
<stop offset="1" stop-color="#E49D00"/>
</linearGradient>
</defs>
</svg>
