<svg width="24" height="25" viewBox="0 0 24 25" fill="none" xmlns="http://www.w3.org/2000/svg">
<path d="M24 23.6436C24 23.9972 23.8595 24.3364 23.6095 24.5864C23.3594 24.8365 23.0203 24.9769 22.6667 24.9769H1.33333C0.979712 24.9769 0.640573 24.8365 0.390525 24.5864C0.140476 24.3364 3.20947e-07 23.9972 3.20947e-07 23.6436V9.63026C-0.000140645 9.42708 0.0461562 9.22655 0.135355 9.04399C0.224553 8.86143 0.354294 8.70168 0.514667 8.57692L11.1813 0.280925C11.4154 0.0988523 11.7035 0 12 0C12.2965 0 12.5846 0.0988523 12.8187 0.280925L23.4853 8.57692C23.6457 8.70168 23.7754 8.86143 23.8646 9.04399C23.9538 9.22655 24.0001 9.42708 24 9.63026V23.6436Z" fill="#FFC700"/>
<path d="M18.8571 16.4293C18.468 16.4065 18.0944 16.2685 17.7839 16.0328C17.4734 15.7971 17.24 15.4743 17.1135 15.1056C17.0757 14.9921 17.0031 14.8934 16.9061 14.8233C16.8092 14.7532 16.6926 14.7154 16.573 14.7151C16.4533 14.7148 16.3366 14.752 16.2393 14.8216C16.1419 14.8911 16.0689 14.9895 16.0304 15.1028C15.9041 15.4721 15.6708 15.7955 15.3601 16.0317C15.0494 16.268 14.6754 16.4064 14.2857 16.4293C13.8965 16.4065 13.5229 16.2685 13.2124 16.0328C12.9019 15.7971 12.6686 15.4743 12.5421 15.1056C12.5036 14.9922 12.4307 14.8936 12.3336 14.8235C12.2364 14.7535 12.1198 14.7156 12 14.715C11.8804 14.7141 11.7636 14.7511 11.6664 14.8208C11.5691 14.8905 11.4965 14.9892 11.459 15.1028C11.3327 15.4721 11.0994 15.7955 10.7886 16.0317C10.4779 16.268 10.1039 16.4064 9.71429 16.4293C9.32512 16.4065 8.95151 16.2685 8.64101 16.0328C8.33051 15.7971 8.09717 15.4743 7.97069 15.1056C7.93222 14.9922 7.85931 14.8936 7.76214 14.8235C7.66496 14.7535 7.54835 14.7156 7.42857 14.715C7.30858 14.7124 7.19099 14.7488 7.09344 14.8187C6.99589 14.8887 6.92365 14.9883 6.88754 15.1028C6.76128 15.4721 6.52793 15.7955 6.21722 16.0317C5.90651 16.268 5.5325 16.4064 5.14286 16.4293H4V17.5721H5.14286C5.58633 17.576 6.02447 17.4752 6.42164 17.2779C6.81882 17.0806 7.16381 16.7923 7.42857 16.4365C7.59444 16.6486 7.78644 16.8389 8 17.0029C8 18.0638 8.42143 19.0812 9.17157 19.8313C9.92172 20.5815 10.9391 21.0029 12 21.0029C13.0609 21.0029 14.0783 20.5815 14.8284 19.8313C15.5786 19.0812 16 18.0638 16 17.0029C16.2136 16.8389 16.4056 16.6486 16.5714 16.4365C16.8362 16.7923 17.1812 17.0806 17.5784 17.2779C17.9755 17.4752 18.4137 17.576 18.8571 17.5721H20V16.4293H18.8571ZM12 19.8578C11.3338 19.8565 10.6889 19.6225 10.1769 19.1963C9.66486 18.77 9.31781 18.1783 9.19571 17.5233C9.36682 17.5547 9.54034 17.571 9.71429 17.5721C10.1578 17.576 10.5959 17.4752 10.9931 17.2779C11.3902 17.0806 11.7352 16.7923 12 16.4365C12.2648 16.7923 12.6098 17.0806 13.0069 17.2779C13.4041 17.4752 13.8422 17.576 14.2857 17.5721C14.4597 17.571 14.6332 17.5547 14.8043 17.5233C14.6822 18.1783 14.3351 18.77 13.8231 19.1963C13.3111 19.6225 12.6662 19.8565 12 19.8578Z" fill="black"/>
<path d="M14.3254 8.334C14.3002 8.04884 14.1695 7.78334 13.9589 7.58946C13.7483 7.39558 13.4729 7.28726 13.1866 7.28571H12.5712V5H11.4283V7.28571H10.8097C10.5292 7.28522 10.2582 7.38821 10.0489 7.57498C9.83949 7.76176 9.70635 8.01919 9.67493 8.298L8.73145 14.7143H9.8863L10.3061 11.8571H13.6896L14.1097 14.7143H15.2645L14.3254 8.334ZM10.474 10.7143L10.8098 8.42857L13.191 8.46429L13.5216 10.7143H10.474Z" fill="black"/>
</svg>
