<svg width="24" height="25" viewBox="0 0 24 25" fill="none" xmlns="http://www.w3.org/2000/svg">
<path d="M24 23.6436C24 23.9972 23.8595 24.3364 23.6095 24.5864C23.3594 24.8365 23.0203 24.9769 22.6667 24.9769H1.33333C0.979712 24.9769 0.640573 24.8365 0.390525 24.5864C0.140476 24.3364 3.20947e-07 23.9972 3.20947e-07 23.6436V9.63026C-0.000140645 9.42708 0.0461562 9.22655 0.135355 9.04399C0.224553 8.86143 0.354294 8.70168 0.514667 8.57693L11.1813 0.280925C11.4154 0.0988523 11.7035 0 12 0C12.2965 0 12.5846 0.0988523 12.8187 0.280925L23.4853 8.57693C23.6457 8.70168 23.7754 8.86143 23.8646 9.04399C23.9538 9.22655 24.0001 9.42708 24 9.63026V23.6436Z" fill="#0049B6"/>
<path d="M11.5 7.41602C10.9364 7.41602 10.3959 7.6399 9.9974 8.03841C9.59888 8.43693 9.375 8.97743 9.375 9.54102C9.37477 9.98064 9.5109 10.4095 9.76462 10.7685C10.0183 11.1276 10.3772 11.3991 10.7917 11.5456V12.3743H8.66667V13.791H10.7917V20.1093C10.2675 20.0173 9.72917 19.8685 9.22625 19.6489C8.70208 19.4223 8.24167 19.146 7.83083 18.8131C7.42 18.4802 7.09417 18.1189 6.85333 17.7223L7.95833 16.6243L5.125 14.4993V16.6243C5.125 17.3114 5.31625 17.956 5.70583 18.551C6.09542 19.146 6.60542 19.6773 7.25 20.1306C7.86625 20.5839 8.55333 20.9381 9.29 21.1931C10.0337 21.4481 10.7704 21.5827 11.5 21.5827C12.2296 21.5827 12.9662 21.441 13.71 21.186C14.4467 20.931 15.1337 20.5769 15.75 20.1306C16.4017 19.6773 16.9046 19.1531 17.2942 18.551C17.6837 17.956 17.875 17.3114 17.875 16.6243V14.4993L15.0417 16.6243L16.1467 17.7223C15.9058 18.1189 15.58 18.4802 15.1692 18.8131C14.7583 19.146 14.2979 19.4223 13.7737 19.6489C13.2708 19.8685 12.7325 20.0173 12.2083 20.1093V13.791H14.3333V12.3743H12.2083V11.5385C12.6217 11.3924 12.9797 11.122 13.2333 10.7644C13.487 10.4067 13.6238 9.97943 13.625 9.54102C13.625 8.97743 13.4011 8.43693 13.0026 8.03841C12.6041 7.6399 12.0636 7.41602 11.5 7.41602ZM11.5 8.83268C11.6879 8.83268 11.868 8.90731 12.0009 9.04015C12.1337 9.17299 12.2083 9.35315 12.2083 9.54102C12.2083 9.72888 12.1337 9.90904 12.0009 10.0419C11.868 10.1747 11.6879 10.2493 11.5 10.2493C11.3121 10.2493 11.132 10.1747 10.9991 10.0419C10.8663 9.90904 10.7917 9.72888 10.7917 9.54102C10.7917 9.35315 10.8663 9.17299 10.9991 9.04015C11.132 8.90731 11.3121 8.83268 11.5 8.83268Z" fill="white"/>
</svg>
