<svg width="21" height="20" viewBox="0 0 21 20" fill="none" xmlns="http://www.w3.org/2000/svg">
<g id="Group 1257">
<path id="Vector" d="M10.4297 19.5C15.6764 19.5 19.9297 15.2467 19.9297 10C19.9297 4.75329 15.6764 0.5 10.4297 0.5C5.18298 0.5 0.929688 4.75329 0.929688 10C0.929688 15.2467 5.18298 19.5 10.4297 19.5Z" stroke="#4E76FF"/>
<path id="!" d="M11.5465 4.59091L11.3388 12.2294H9.3892L9.17614 4.59091H11.5465ZM10.364 15.6385C10.0124 15.6385 9.71058 15.5142 9.45845 15.2656C9.20632 15.0135 9.08203 14.7116 9.08558 14.3601C9.08203 14.0121 9.20632 13.7138 9.45845 13.4652C9.71058 13.2166 10.0124 13.0923 10.364 13.0923C10.7013 13.0923 10.9979 13.2166 11.2536 13.4652C11.5092 13.7138 11.6388 14.0121 11.6424 14.3601C11.6388 14.5945 11.5767 14.8093 11.456 15.0046C11.3388 15.1964 11.1843 15.3509 10.9925 15.468C10.8008 15.5817 10.5913 15.6385 10.364 15.6385Z" fill="#4E76FF"/>
</g>
</svg>
