<svg width="20" height="16" viewBox="0 0 20 16" fill="none" xmlns="http://www.w3.org/2000/svg">
<g id="Group 1262">
<path id="Vector" d="M18.4022 6H4.65539C4.25739 6 3.89729 6.23601 3.73846 6.60095L0.60888 13.7919C0.321432 14.4524 0.805484 15.191 1.52581 15.191H15.2726C15.6706 15.191 16.0307 14.955 16.1895 14.5901L19.3191 7.39905C19.6066 6.73857 19.1225 6 18.4022 6Z" stroke="#4E76FF"/>
<path id="Vector_2" d="M0.699219 14.5V2C0.699219 1.44772 1.14693 1 1.69922 1H5.00237C5.30457 1 5.59056 1.13666 5.78041 1.37179L6.89903 2.75721C7.08887 2.99234 7.37487 3.129 7.67707 3.129H17.6992C18.2515 3.129 18.6992 3.57672 18.6992 4.129V6.5" stroke="#4E76FF"/>
</g>
</svg>
