<svg width="25" height="23" viewBox="0 0 25 23" fill="none" xmlns="http://www.w3.org/2000/svg">
<g id="Group 1056">
<path id="Vector" d="M3.41406 12.7611L4.66174 16.6766C4.66174 16.6766 4.84654 17.5491 6.25438 17.5379H20.3809C20.3809 17.5379 21.4405 17.483 21.4405 16.3798C21.4405 15.9665 21.2837 15.2116 20.1513 15.1556H16.2649L12.3774 10.3956H10.227L13.1245 15.2083H6.58478L5.1355 12.7331L3.41406 12.7611Z" stroke="#A8AAB7"/>
<path id="Vector_2" d="M23.8547 1H1V22.0706H23.8547V1Z" stroke="#A8AAB7"/>
<path id="Vector_3" d="M1.21094 5.86523H23.6468" stroke="#A8AAB7"/>
<path id="Vector_4" d="M4.57187 2.75049H3.17188V4.15049H4.57187V2.75049Z" fill="#A8AAB7"/>
<path id="Vector_5" d="M6.81406 2.75049H5.41406V4.15049H6.81406V2.75049Z" fill="#A8AAB7"/>
<path id="Vector_6" d="M9.05234 2.75049H7.65234V4.15049H9.05234V2.75049Z" fill="#A8AAB7"/>
</g>
</svg>
