<svg width="23" height="20" viewBox="0 0 23 20" fill="none" xmlns="http://www.w3.org/2000/svg">
<g id="icon">
<path id="Vector" d="M7.14453 1.42857C7.8509 1.42857 8.54139 1.63803 9.12871 2.03047C9.71603 2.4229 10.1738 2.98068 10.4441 3.63327C10.7144 4.28587 10.7851 5.00396 10.6473 5.69675C10.5095 6.38954 10.1694 7.02591 9.66991 7.52538C9.17044 8.02485 8.53407 8.365 7.84128 8.5028C7.1485 8.64061 6.4304 8.56988 5.77781 8.29957C5.12521 8.02926 4.56743 7.5715 4.175 6.98418C3.78257 6.39686 3.57311 5.70636 3.57311 5C3.57311 4.0528 3.94938 3.14439 4.61915 2.47462C5.28893 1.80485 6.19733 1.42857 7.14453 1.42857ZM7.14453 0C6.15563 0 5.18893 0.293245 4.36668 0.842652C3.54444 1.39206 2.90357 2.17295 2.52514 3.08658C2.1467 4.00021 2.04768 5.00555 2.24061 5.97545C2.43353 6.94536 2.90974 7.83627 3.609 8.53553C4.30826 9.2348 5.19918 9.711 6.16908 9.90393C7.13899 10.0969 8.14432 9.99784 9.05795 9.6194C9.97158 9.24096 10.7525 8.6001 11.3019 7.77785C11.8513 6.95561 12.1445 5.98891 12.1445 5C12.1445 3.67392 11.6177 2.40215 10.6801 1.46447C9.74239 0.526784 8.47062 0 7.14453 0Z" fill="#A8AAB7"/>
<path id="Vector_2" d="M14.2857 19.5714H12.8571V16C12.8571 15.0528 12.4809 14.1444 11.8111 13.4746C11.1413 12.8048 10.2329 12.4286 9.28571 12.4286H5C4.0528 12.4286 3.14439 12.8048 2.47462 13.4746C1.80485 14.1444 1.42857 15.0528 1.42857 16V19.5714H0V16C0 14.6739 0.526784 13.4021 1.46447 12.4645C2.40215 11.5268 3.67392 11 5 11H9.28571C10.6118 11 11.8836 11.5268 12.8212 12.4645C13.7589 13.4021 14.2857 14.6739 14.2857 16V19.5714Z" fill="#A8AAB7"/>
<path id="Vector_3" d="M14.2852 1.42871H22.2852V2.85728H14.2852V1.42871Z" fill="#A8AAB7"/>
<path id="Vector_4" d="M14.2852 5H22.2852V6.42857H14.2852V5Z" fill="#A8AAB7"/>
<path id="Vector_5" d="M14.2852 8.57129H19.2852V9.99986H14.2852V8.57129Z" fill="#A8AAB7"/>
</g>
</svg>
