<svg width="20" height="21" viewBox="0 0 20 21" fill="none" xmlns="http://www.w3.org/2000/svg">
<path id="Subtract" d="M12.0473 1L12.6165 0.810263L12.4797 0.4H12.0473V1ZM7.95377 1V0.4H7.52131L7.38456 0.810263L7.95377 1ZM12.9395 3.67668L12.3703 3.86642L12.4534 4.11578L12.6931 4.22374L12.9395 3.67668ZM14.1869 4.39793L13.8358 4.88453L14.0493 5.03851L14.3072 4.98574L14.1869 4.39793ZM16.9528 3.83192L17.4724 3.53192L17.2562 3.1574L16.8325 3.2441L16.9528 3.83192ZM18.9996 7.37699L19.4485 7.77507L19.7354 7.4515L19.5192 7.07699L18.9996 7.37699ZM17.1278 9.48775L16.6789 9.08967L16.5046 9.28624L16.5308 9.54765L17.1278 9.48775ZM17.1282 10.9316L16.5312 10.872L16.5051 11.1332L16.6793 11.3297L17.1282 10.9316ZM18.9999 13.0423L19.5195 13.3423L19.7357 12.9678L19.4488 12.6442L18.9999 13.0423ZM16.9531 16.5873L16.8328 17.1752L17.2565 17.2619L17.4727 16.8873L16.9531 16.5873ZM14.191 16.0221L14.3113 15.4343L14.0532 15.3815L13.8396 15.5358L14.191 16.0221ZM12.9386 16.7468L12.6922 16.1997L12.4525 16.3076L12.3694 16.557L12.9386 16.7468ZM12.0473 19.4207V20.0207H12.4797L12.6165 19.6105L12.0473 19.4207ZM7.95377 19.4207L7.38456 19.6105L7.52131 20.0207H7.95377V19.4207ZM7.06251 16.747L7.63172 16.5572L7.54858 16.3078L7.30883 16.1998L7.06251 16.747ZM5.80948 16.022L6.16087 15.5357L5.94731 15.3814L5.68919 15.4342L5.80948 16.022ZM3.04675 16.5873L2.52713 16.8873L2.74336 17.2619L3.16704 17.1752L3.04675 16.5873ZM1 13.0423L0.551078 12.6442L0.264157 12.9678L0.480385 13.3423L1 13.0423ZM2.87238 10.9308L3.3213 11.3289L3.49546 11.1325L3.46942 10.8713L2.87238 10.9308ZM2.87275 9.48855L3.46976 9.54838L3.49595 9.28701L3.32167 9.09047L2.87275 9.48855ZM1.00032 7.37699L0.480701 7.07699L0.264473 7.45151L0.551395 7.77507L1.00032 7.37699ZM3.04706 3.83192L3.16735 3.2441L2.74368 3.1574L2.52745 3.53192L3.04706 3.83192ZM5.81362 4.39805L5.69333 4.98587L5.9512 5.03864L6.16466 4.88464L5.81362 4.39805ZM7.06161 3.67649L7.308 4.22356L7.54769 4.11561L7.63082 3.86623L7.06161 3.67649ZM12.0473 0.4H7.95377V1.6H12.0473V0.4ZM13.5087 3.48695L12.6165 0.810263L11.4781 1.18974L12.3703 3.86642L13.5087 3.48695ZM14.5379 3.91133C14.1171 3.60775 13.6645 3.3452 13.1859 3.12963L12.6931 4.22374C13.0973 4.40582 13.4799 4.62772 13.8358 4.88453L14.5379 3.91133ZM16.8325 3.2441L14.0666 3.81011L14.3072 4.98574L17.0731 4.41974L16.8325 3.2441ZM19.5192 7.07699L17.4724 3.53192L16.4332 4.13192L18.4799 7.67699L19.5192 7.07699ZM17.5768 9.88583L19.4485 7.77507L18.5506 6.97891L16.6789 9.08967L17.5768 9.88583ZM17.7639 10.2115C17.7639 9.94718 17.7507 9.68574 17.7248 9.42786L16.5308 9.54765C16.5527 9.76579 16.5639 9.98725 16.5639 10.2115H17.7639ZM17.7252 10.9912C17.7508 10.7346 17.7639 10.4745 17.7639 10.2115H16.5639C16.5639 10.4346 16.5528 10.6549 16.5312 10.872L17.7252 10.9912ZM19.4488 12.6442L17.5771 10.5335L16.6793 11.3297L18.551 13.4404L19.4488 12.6442ZM17.4727 16.8873L19.5195 13.3423L18.4803 12.7423L16.4335 16.2873L17.4727 16.8873ZM14.0707 16.6099L16.8328 17.1752L17.0734 15.9995L14.3113 15.4343L14.0707 16.6099ZM13.1849 17.2938C13.6655 17.0774 14.12 16.8136 14.5424 16.5085L13.8396 15.5358C13.4823 15.7939 13.0982 16.0169 12.6922 16.1997L13.1849 17.2938ZM12.6165 19.6105L13.5078 16.9365L12.3694 16.557L11.4781 19.231L12.6165 19.6105ZM7.95377 20.0207H12.0473V18.8207H7.95377V20.0207ZM6.4933 16.9367L7.38456 19.6105L8.52298 19.231L7.63172 16.5572L6.4933 16.9367ZM5.45809 16.5083C5.88066 16.8137 6.33534 17.0776 6.8162 17.2941L7.30883 16.1998C6.90268 16.017 6.51833 15.7939 6.16087 15.5357L5.45809 16.5083ZM3.16704 17.1752L5.92977 16.6098L5.68919 15.4342L2.92646 15.9995L3.16704 17.1752ZM0.480385 13.3423L2.52713 16.8873L3.56636 16.2873L1.51962 12.7423L0.480385 13.3423ZM2.42345 10.5327L0.551078 12.6442L1.44892 13.4404L3.3213 11.3289L2.42345 10.5327ZM2.23672 10.2115C2.23672 10.4742 2.24978 10.734 2.27534 10.9903L3.46942 10.8713C3.4478 10.6544 3.43672 10.4344 3.43672 10.2115H2.23672ZM2.27574 9.42872C2.24992 9.68632 2.23672 9.94747 2.23672 10.2115H3.43672C3.43672 9.9875 3.44792 9.76629 3.46976 9.54838L2.27574 9.42872ZM0.551395 7.77507L2.42383 9.88663L3.32167 9.09047L1.44924 6.97891L0.551395 7.77507ZM2.52745 3.53192L0.480701 7.07699L1.51993 7.67699L3.56668 4.13192L2.52745 3.53192ZM5.9339 3.81023L3.16735 3.2441L2.92677 4.41974L5.69333 4.98587L5.9339 3.81023ZM6.81521 3.12942C6.33642 3.34506 5.88359 3.60773 5.46257 3.91146L6.16466 4.88464C6.5208 4.6277 6.90359 4.4057 7.308 4.22356L6.81521 3.12942ZM7.38456 0.810263L6.4924 3.48675L7.63082 3.86623L8.52298 1.18974L7.38456 0.810263ZM10.2107 13.3214C11.9293 13.3214 13.3226 11.9282 13.3226 10.2095H12.1226C12.1226 11.2654 11.2666 12.1214 10.2107 12.1214V13.3214ZM7.09877 10.2095C7.09877 11.9282 8.49202 13.3214 10.2107 13.3214V12.1214C9.15476 12.1214 8.29877 11.2654 8.29877 10.2095H7.09877ZM10.2107 7.09758C8.49202 7.09758 7.09877 8.49084 7.09877 10.2095H8.29877C8.29877 9.15358 9.15476 8.29758 10.2107 8.29758V7.09758ZM13.3226 10.2095C13.3226 8.49084 11.9293 7.09758 10.2107 7.09758V8.29758C11.2666 8.29758 12.1226 9.15358 12.1226 10.2095H13.3226Z" fill="#A8AAB7"/>
</svg>
