<svg width="26" height="26" viewBox="0 0 26 26" fill="none" xmlns="http://www.w3.org/2000/svg">
<g id="Group 1054">
<path id="Vector" d="M21.555 13.7927C21.5685 14.0066 21.5763 14.2228 21.5763 14.4412C21.5763 20.0535 17.0269 24.6029 11.4145 24.6029C5.80335 24.6029 1.25391 20.0524 1.25391 14.4412C1.25391 8.82996 5.80335 4.28052 11.4145 4.28052C12.3486 4.28052 13.2536 4.40596 14.1126 4.64228" stroke="#A8AAB7" stroke-width="1.3"/>
<path id="Vector_2" d="M11.543 4.27942V24.6836" stroke="#A8AAB7" stroke-width="1.3"/>
<path id="Vector_3" d="M1 14.2026H17.2848" stroke="#A8AAB7" stroke-width="1.3"/>
<path id="Vector_4" d="M7.68134 4.98718C7.68134 4.98718 4.35494 15.5611 8.16294 24.0697" stroke="#A8AAB7" stroke-width="1.3"/>
<path id="Vector_5" d="M16.5811 14.5286C16.8622 17.566 15.9561 21.4614 14.7891 24.0698" stroke="#A8AAB7" stroke-width="1.3"/>
<path id="Vector_6" d="M3.51953 20.8364C3.51953 20.8364 11.028 16.2936 19.3664 20.7669" stroke="#A8AAB7" stroke-width="1.3"/>
<path id="Vector_7" d="M3.51953 7.80408C3.51953 7.80408 8.18881 10.753 14.4451 9.8436" stroke="#A8AAB7" stroke-width="1.3"/>
<path id="Vector_8" d="M24.6314 6.46C24.8229 10.2288 19.2644 16.577 19.1714 16.577C19.0751 16.577 13.4583 9.85248 13.7114 6.46C13.9354 3.45392 16.1564 1 19.1703 1C22.1865 1 24.478 3.44944 24.6314 6.46Z" stroke="#A8AAB7" stroke-width="1.3"/>
<path id="Vector_9" d="M21.3799 5.15865C21.6778 5.58985 21.8514 6.11177 21.8514 6.67513C21.8514 8.15577 20.6519 9.35529 19.1712 9.35529C17.6906 9.35529 16.4922 8.15577 16.4922 6.67513C16.4922 5.19561 17.6917 3.99609 19.1712 3.99609C20.0874 3.99721 20.8971 4.45753 21.3799 5.15865Z" stroke="#A8AAB7" stroke-width="1.3"/>
</g>
</svg>
