<svg width="26" height="20" viewBox="0 0 26 20" fill="none" xmlns="http://www.w3.org/2000/svg">
<g id="Group 1217">
<path id="Vector" d="M20.2956 11.7352L20.2828 18.8538H2.74219" stroke="#A8AAB7"/>
<path id="Vector_2" d="M5.29297 4.85803H11.3371" stroke="#A8AAB7"/>
<path id="Vector_3" d="M2.95979 18.8562C1.87721 18.8562 1 17.9767 1 16.8964C1 15.8162 1.87721 14.9366 2.95979 14.9366C4.04122 14.9366 4.91842 15.8162 4.91842 16.8964" stroke="#A8AAB7" stroke-linecap="round"/>
<path id="Vector_4" d="M4.91958 16.7038V3.32527C4.91958 2.24153 4.04238 1.36548 2.96095 1.36548C1.87721 1.36548 1 2.24269 1 3.32527V16.5948" stroke="#A8AAB7"/>
<path id="Vector_5" d="M17.0056 12.5035C20.1822 12.5035 22.7574 9.92834 22.7574 6.75174C22.7574 3.57514 20.1822 1 17.0056 1C13.829 1 11.2539 3.57514 11.2539 6.75174C11.2539 9.92834 13.829 12.5035 17.0056 12.5035Z" stroke="#A8AAB7"/>
<path id="Vector_6" d="M22.723 14.6767L20.0508 11.7167L21.6335 10.3092L24.3069 13.2692L22.723 14.6767Z" stroke="#A8AAB7"/>
<path id="Vector_7" d="M15.2301 6.59155H13.8633V9.468H15.2301V6.59155Z" fill="#A8AAB7"/>
<path id="Vector_8" d="M17.5098 4.82678H16.1406V9.46809H17.5098V4.82678Z" fill="#A8AAB7"/>
<path id="Vector_9" d="M19.7848 3.21265H18.418V9.46797H19.7848V3.21265Z" fill="#A8AAB7"/>
</g>
</svg>
