<svg width="16" height="16" viewBox="0 0 16 16" fill="none" xmlns="http://www.w3.org/2000/svg">
<g id="icon">
<path id="Vector" d="M13.647 -0.000976562H2.3532C1.05601 -0.000976562 0 1.05426 0 2.35223V13.6468C0 14.944 1.05523 16 2.3532 16H13.6478C14.945 16 16.001 14.9448 16.001 13.6468V2.35223C16.0002 1.05426 14.945 -0.000976562 13.647 -0.000976562ZM15.0589 13.646C15.0589 14.4242 14.426 15.058 13.647 15.058H2.3532C1.57505 15.058 0.941281 14.425 0.941281 13.646V11.9438L4.73919 7.72362L9.8694 12.3871L12.7065 10.023L15.0597 11.9836L15.0589 13.646ZM15.0589 10.759L12.7057 8.79836L9.89516 11.1399L4.67284 6.39131L0.941281 10.5373V2.35223C0.941281 1.57407 1.57427 0.940305 2.3532 0.940305H13.6478C14.426 0.940305 15.0597 1.57329 15.0597 2.35223L15.0589 10.759Z" fill="#4E76FF"/>
<path id="Vector_2" d="M11.2946 7.05797C12.5918 7.05797 13.6478 6.00273 13.6478 4.70477C13.6478 3.4068 12.5926 2.35156 11.2946 2.35156C9.99742 2.35156 8.94141 3.4068 8.94141 4.70477C8.94141 6.00273 9.99664 7.05797 11.2946 7.05797ZM11.2946 3.29362C12.0728 3.29362 12.7065 3.92661 12.7065 4.70555C12.7065 5.48448 12.0735 6.11747 11.2946 6.11747C10.5157 6.11747 9.88269 5.48448 9.88269 4.70555C9.88269 3.92661 10.5157 3.29362 11.2946 3.29362Z" fill="#4E76FF"/>
</g>
</svg>
