<svg width="31" height="32" viewBox="0 0 31 32" fill="none" xmlns="http://www.w3.org/2000/svg">
<g id="Group 1245">
<path id="Vector" d="M14.8941 8.71793C15.1346 13.5606 8.16709 21.7199 8.05184 21.7199C7.9309 21.7199 0.893677 13.0777 1.20954 8.71793C1.49126 4.8528 4.27428 1.70117 8.05042 1.70117C11.8308 1.70117 14.7021 4.84843 14.8941 8.71793Z" stroke="#769CC2" stroke-width="2"/>
<path id="Vector_2" d="M8.05315 12.4377C9.90763 12.4377 11.411 10.896 11.411 8.99423C11.411 7.09247 9.90763 5.55078 8.05315 5.55078C6.19867 5.55078 4.69531 7.09247 4.69531 8.99423C4.69531 10.896 6.19867 12.4377 8.05315 12.4377Z" stroke="#769CC2" stroke-width="2"/>
<path id="Vector_3" d="M3.29297 14.7917V30.045L10.0343 27.0598L17.0487 30.3763L23.5168 27.5661L29.8739 30.0392V9.41354L23.5709 7.05273L17.043 9.17717L14.8348 8.07701" stroke="#769CC2" stroke-width="2"/>
<path id="Vector_4" d="M23.5312 7.03125V27.8627" stroke="#769CC2" stroke-width="2"/>
<path id="Vector_5" d="M17.043 30.2392V9.17578" stroke="#769CC2" stroke-width="2"/>
<path id="Vector_6" d="M10.1641 27.1254V18.9355" stroke="#769CC2" stroke-width="2"/>
</g>
</svg>
