<svg width="28" height="29" viewBox="0 0 28 29" fill="none" xmlns="http://www.w3.org/2000/svg">
<g id="Group 1220">
<path id="Vector" d="M26.7201 21.5684H1.66797V24.3702H26.7201V21.5684Z" stroke="#748DCC" stroke-width="2" stroke-linecap="round" stroke-linejoin="round"/>
<path id="Vector_2" d="M4.21094 21.2965C4.21094 21.2965 5.7738 20.231 5.97332 16.9592C6.11355 14.6431 6.64559 9.27505 7.28317 7.76568C8.11448 5.79656 8.97615 3.16239 14.4671 3.13492C16.4233 3.1248 19.5403 3.60913 21.1769 7.78881C22.0747 10.0789 22.4275 16.5978 22.5778 17.5245C22.7427 18.5351 22.9292 20.5968 24.0814 21.4324" stroke="#748DCC" stroke-width="2" stroke-linecap="round" stroke-linejoin="round"/>
<path id="Vector_3" d="M18.0962 24.3672C17.794 26.2496 16.1617 27.6895 14.1926 27.6895C12.2235 27.6895 10.5912 26.2496 10.2891 24.3672" stroke="#748DCC" stroke-width="2" stroke-linecap="round" stroke-linejoin="round"/>
<g id="Vector_4">
<path d="M12.2734 2.92973C12.2734 1.86999 13.1337 1.00977 14.1934 1.00977C15.2531 1.00977 16.1134 1.86999 16.1134 2.92973" fill="#748DCC"/>
<path d="M12.2734 2.92973C12.2734 1.86999 13.1337 1.00977 14.1934 1.00977C15.2531 1.00977 16.1134 1.86999 16.1134 2.92973" stroke="#748DCC" stroke-width="2" stroke-linecap="round" stroke-linejoin="round"/>
</g>
</g>
</svg>
