<svg width="37" height="29" viewBox="0 0 37 29" fill="none" xmlns="http://www.w3.org/2000/svg">
<g id="Group">
<path id="Vector" d="M7.61784 9.20623C7.50591 8.89548 7.44409 8.55634 7.44409 8.20717C7.44409 6.59329 8.75223 5.28516 10.3661 5.28516C11.98 5.28516 13.2881 6.59329 13.2881 8.20717C13.2881 9.82104 11.9816 11.1308 10.3661 11.1308H0.332031" stroke="#A8AAB7" stroke-width="1.7"/>
<path id="Vector_2" d="M18.7345 11.8286C18.1047 10.7627 17.7438 9.51969 17.7438 8.19317C17.7438 4.2437 20.9465 1.04102 24.896 1.04102C28.8454 1.04102 32.0481 4.2437 32.0481 8.19317C32.0481 12.1426 28.8454 15.3453 24.896 15.3453H0.332031" stroke="#A8AAB7" stroke-width="1.7"/>
<path id="Vector_3" d="M26.6552 21.6844C26.3879 22.2607 26.2392 22.9023 26.2392 23.5789C26.2392 26.0715 28.259 28.0914 30.7517 28.0914C33.2443 28.0914 35.2642 26.0715 35.2642 23.5789C35.2642 21.0863 33.2443 19.0664 30.7517 19.0664H0.332031" stroke="#A8AAB7" stroke-width="1.7"/>
<path id="Vector_4" d="M12.1838 23.0479H0.332031" stroke="#A8AAB7" stroke-width="1.7"/>
</g>
</svg>
