<svg width="29" height="29" viewBox="0 0 29 29" fill="none" xmlns="http://www.w3.org/2000/svg">
<g id="Group 1220">
<path id="Vector" d="M5.10588 9.19808C7.36702 9.19808 9.20004 7.36507 9.20004 5.10393C9.20004 2.84278 7.36702 1.00977 5.10588 1.00977C2.84474 1.00977 1.01172 2.84278 1.01172 5.10393C1.01172 7.36507 2.84474 9.19808 5.10588 9.19808Z" stroke="#66A9C5" stroke-width="2"/>
<path id="Vector_2" d="M5.10588 27.8563C7.36702 27.8563 9.20004 26.0233 9.20004 23.7621C9.20004 21.501 7.36702 19.668 5.10588 19.668C2.84474 19.668 1.01172 21.501 1.01172 23.7621C1.01172 26.0233 2.84474 27.8563 5.10588 27.8563Z" stroke="#66A9C5" stroke-width="2"/>
<path id="Vector_3" d="M23.6801 18.5282C25.9412 18.5282 27.7743 16.6951 27.7743 14.434C27.7743 12.1729 25.9412 10.3398 23.6801 10.3398C21.419 10.3398 19.5859 12.1729 19.5859 14.434C19.5859 16.6951 21.419 18.5282 23.6801 18.5282Z" stroke="#66A9C5" stroke-width="2"/>
<path id="Vector_4" d="M8.66406 7.08984L19.5844 14.4346" stroke="#66A9C5" stroke-width="2"/>
<path id="Vector_5" d="M19.5844 14.8516L8.66406 22.1963" stroke="#66A9C5" stroke-width="2"/>
</g>
</svg>
