<svg width="28" height="37" viewBox="0 0 28 37" fill="none" xmlns="http://www.w3.org/2000/svg">
<g id="Group 809">
<path id="Vector" d="M13.7816 20.0094C15.9905 21.5018 17.6052 24.1721 17.6052 27.0363C17.6052 31.6219 13.8864 35.3389 9.30087 35.3389C4.71879 35.3407 1 31.6236 1 27.0381C1 24.1965 2.42775 21.6871 4.6052 20.1912V4.93678C4.6052 4.93678 5.04034 1.09216 9.08418 1.04149C10.5014 1.02401 13.0162 1.48012 13.7816 4.72008V20.0094Z" stroke="#A8AAB7" stroke-width="1.7"/>
<path id="Vector_2" d="M9.30154 30.9156C11.4529 30.9156 13.1968 29.1716 13.1968 27.0203C13.1968 24.869 11.4529 23.125 9.30154 23.125C7.15023 23.125 5.40625 24.869 5.40625 27.0203C5.40625 29.1716 7.15023 30.9156 9.30154 30.9156Z" stroke="#A8AAB7" stroke-width="1.7"/>
<path id="Vector_3" d="M9.30469 22.886V4.20996" stroke="#A8AAB7" stroke-width="1.7"/>
<path id="Vector_4" d="M18.0625 5.88379H28.0008" stroke="#A8AAB7" stroke-width="1.7"/>
<path id="Vector_5" d="M18.0625 11.127H28.0008" stroke="#A8AAB7" stroke-width="1.7"/>
<path id="Vector_6" d="M18.0625 16.3691H28.0008" stroke="#A8AAB7" stroke-width="1.7"/>
</g>
</svg>
