<svg width="106" height="114" viewBox="0 0 106 114" fill="none" xmlns="http://www.w3.org/2000/svg">
<g id="Group 1190">
<path id="Vector" d="M67.3652 100.611C81.1087 100.611 92.25 89.4695 92.25 75.726C92.25 61.9826 81.1087 50.8413 67.3652 50.8413C53.6217 50.8413 42.4805 61.9826 42.4805 75.726C42.4805 89.4695 53.6217 100.611 67.3652 100.611Z" stroke="#A8AAB7" stroke-width="3"/>
<path id="Vector_2" d="M67.3306 94.335C77.6916 94.335 86.0908 85.9357 86.0908 75.5747C86.0908 65.2137 77.6916 56.8145 67.3306 56.8145C56.9696 56.8145 48.5703 65.2137 48.5703 75.5747C48.5703 85.9357 56.9696 94.335 67.3306 94.335Z" stroke="#A8AAB7" stroke-width="3"/>
<path id="Vector_3" d="M98.004 111.028L82.5703 95.7536L88.0673 90.2265L103.501 105.501L98.004 111.028Z" stroke="#A8AAB7" stroke-width="3"/>
<path id="Vector_4" d="M92.415 94.8986L86.918 100.421" stroke="#A8AAB7" stroke-width="3"/>
<g id="Group 1215">
<path id="Vector_5" d="M73.4895 51.4893V21.7437L53.6118 1.866H1.5V95.3449H51.9314" stroke="#A8AAB7" stroke-width="3"/>
<path id="Vector_6" d="M52.0898 1.866V21.7437H71.9676" stroke="#A8AAB7" stroke-width="3"/>
</g>
<g id="Group 1214">
<path id="Vector_7" d="M12.5 37.3806H61.6549" stroke="#A8AAB7" stroke-width="3"/>
<path id="Vector_8" d="M12.5 54.5701H40.1655" stroke="#A8AAB7" stroke-width="3"/>
</g>
<path id="?" d="M64.295 71.6088L60.96 70.5278C61.834 67.9288 64.065 66.1118 67.308 66.1118C70.321 66.1118 73.564 68.0438 73.564 71.6318C73.564 74.2078 72.299 75.8638 69.838 77.0598C68.55 77.7038 68.159 78.0948 68.136 78.9228L68.113 79.8658H64.755L64.732 78.5318C64.709 76.5538 65.192 75.6108 67.653 74.4608C69.217 73.7018 69.953 72.9658 69.953 71.6318C69.953 70.1368 68.711 69.4008 67.308 69.4008C65.698 69.4008 64.893 70.1368 64.295 71.6088ZM66.434 86.2828C65.238 86.2828 64.272 85.3168 64.272 84.1208C64.272 82.9248 65.238 81.9588 66.434 81.9588C67.63 81.9588 68.596 82.9248 68.596 84.1208C68.596 85.3168 67.63 86.2828 66.434 86.2828Z" fill="#A8AAB7"/>
</g>
</svg>
