<svg width="33" height="30" viewBox="0 0 33 30" fill="none" xmlns="http://www.w3.org/2000/svg">
<g id="Group 810">
<path id="Vector" d="M9.71683 24.1279L9.71688 24.1282C9.91912 25.1749 10.3571 26.1961 10.9902 26.9002C11.6193 27.6 12.4337 27.981 13.4123 27.7828C13.7372 27.7167 14.066 27.5261 14.3249 27.2722L14.3249 27.2722C15.141 26.4719 15.5805 25.3048 15.8585 24.0991C15.942 23.7336 16.2595 23.4679 16.6235 23.5219L16.6238 23.5219C16.9629 23.5731 17.197 23.8826 17.2231 24.2295C17.4325 25.2623 17.8715 26.2642 18.5002 26.9539C19.127 27.6415 19.9353 28.0138 20.9048 27.8167L20.9049 27.8167C21.2306 27.7506 21.5584 27.5601 21.8174 27.3061L21.8175 27.306C22.6335 26.507 23.0741 25.3388 23.351 24.1331L23.351 24.133C23.4279 23.7992 23.7019 23.5422 24.0374 23.5504M9.71683 24.1279L2.22329 24.1634C2.14554 23.7598 1.78517 23.4669 1.38824 23.5703C1.003 23.6696 0.788784 24.0941 0.865825 24.4942L0.865858 24.4944C1.13732 25.8956 1.75412 27.2454 2.65587 28.1786C3.56128 29.1155 4.75859 29.6348 6.16788 29.3487C6.74604 29.2315 7.31025 28.9062 7.74686 28.4795L7.74706 28.4793C8.30269 27.9343 8.72583 27.2683 9.05049 26.5457C9.95578 28.39 11.5636 29.7406 13.6604 29.3148L13.6607 29.3147C14.2383 29.1963 14.8037 28.8725 15.2396 28.4441M9.71683 24.1279C9.64419 23.7552 9.32999 23.4729 8.95939 23.5202M9.71683 24.1279L5.9187 27.8167M24.0374 23.5504C24.3737 23.5574 24.6369 23.8261 24.7019 24.1633C24.9047 25.21 25.3429 26.2313 25.976 26.9352C26.6052 27.6349 27.4192 28.0156 28.3973 27.8167L28.3974 27.8167C28.7231 27.7506 29.0509 27.5601 29.3099 27.3061L29.31 27.306C30.126 26.507 30.5666 25.3388 30.8435 24.1331L30.8435 24.1329C30.936 23.7332 31.3081 23.4585 31.6996 23.5769L31.7002 23.5771C32.0807 23.6939 32.2803 24.1269 32.1889 24.5234C31.8508 25.9941 31.2737 27.4521 30.2256 28.4793L30.2255 28.4795C29.7888 28.9062 29.2246 29.2315 28.6465 29.3487C26.5439 29.7758 24.9317 28.4165 24.028 26.5633C23.7042 27.2793 23.2842 27.9383 22.732 28.4793L22.627 28.3722L22.732 28.4793C22.2963 28.9062 21.7309 29.2316 21.1529 29.3487C19.0444 29.7772 17.4299 28.4078 16.5272 26.5459C16.2044 27.2555 15.7862 27.9081 15.2396 28.4441M24.0374 23.5504C24.0373 23.5504 24.0372 23.5504 24.037 23.5504L24.034 23.7004L24.0378 23.5504C24.0377 23.5504 24.0376 23.5504 24.0374 23.5504ZM15.2396 28.4441C15.2396 28.444 15.2396 28.444 15.2397 28.444L15.1345 28.337L15.2395 28.4441C15.2396 28.4441 15.2396 28.4441 15.2396 28.4441ZM5.9187 27.8167L5.91877 27.8167C6.24455 27.7506 6.57232 27.5601 6.8313 27.3061L6.83141 27.306C7.63031 26.524 8.06834 25.3896 8.34736 24.2106C8.38018 23.8666 8.6189 23.5631 8.95939 23.5202M5.9187 27.8167C4.94062 28.0156 4.12658 27.6349 3.49737 26.9352M5.9187 27.8167L3.49737 26.9352M8.95939 23.5202C8.95934 23.5202 8.9593 23.5202 8.95925 23.5202L8.97826 23.669L8.9595 23.5201C8.95946 23.5202 8.95942 23.5202 8.95939 23.5202ZM3.49737 26.9352C2.86436 26.2313 2.42611 25.2101 2.2233 24.1635L3.49737 26.9352ZM16.523 26.1764C16.497 26.2402 16.4704 26.3035 16.443 26.3663L16.6071 26.3645C16.5783 26.3024 16.5503 26.2397 16.523 26.1764Z" fill="#A8AAB7" stroke="#A8AAB7" stroke-width="0.3"/>
<path id="Vector_2" d="M9.71683 16.586L9.71688 16.5862C9.91912 17.6329 10.3571 18.6541 10.9902 19.3582C11.6193 20.058 12.4337 20.439 13.4123 20.2408C13.7372 20.1747 14.066 19.9841 14.3249 19.7302L14.3249 19.7302C15.141 18.9299 15.5805 17.7628 15.8585 16.5571C15.942 16.1916 16.2595 15.9259 16.6235 15.9799L16.6238 15.9799C16.9629 16.0311 17.197 16.3406 17.2231 16.6876C17.4325 17.7204 17.8715 18.7222 18.5002 19.4119C19.127 20.0995 19.9353 20.4718 20.9048 20.2747L20.9049 20.2747C21.2306 20.2086 21.5584 20.0181 21.8174 19.7641L21.8175 19.764C22.6335 18.9651 23.0741 17.7968 23.351 16.5911L23.351 16.591C23.4279 16.2572 23.7019 16.0002 24.0374 16.0084M9.71683 16.586L2.22329 16.6214C2.14554 16.2178 1.78517 15.9249 1.38824 16.0283C1.003 16.1276 0.788784 16.5521 0.865825 16.9522L0.865858 16.9524C1.13732 18.3536 1.75412 19.7034 2.65587 20.6366C3.56128 21.5735 4.75859 22.0928 6.16788 21.8067C6.74604 21.6895 7.31025 21.3642 7.74686 20.9375L7.74706 20.9373C8.30269 20.3923 8.72583 19.7263 9.05049 19.0037C9.95578 20.848 11.5636 22.1986 13.6604 21.7728L13.6607 21.7727C14.2383 21.6543 14.8037 21.3305 15.2396 20.9021M9.71683 16.586C9.64419 16.2132 9.32999 15.9309 8.95939 15.9782M9.71683 16.586L5.9187 20.2747M24.0374 16.0084C24.3737 16.0154 24.6369 16.2842 24.7019 16.6213C24.9047 17.668 25.3429 18.6893 25.976 19.3932C26.6052 20.0929 27.4192 20.4736 28.3973 20.2747L28.3974 20.2747C28.7231 20.2086 29.0509 20.0181 29.3099 19.7641L29.31 19.764C30.126 18.9651 30.5666 17.7968 30.8435 16.5911L30.8435 16.5909C30.936 16.1912 31.3081 15.9165 31.6996 16.0349L31.7002 16.0351C32.0807 16.1519 32.2803 16.5849 32.1889 16.9814C31.8508 18.4521 31.2737 19.9101 30.2256 20.9373L30.2255 20.9375C29.7888 21.3642 29.2246 21.6895 28.6465 21.8067C26.5439 22.2338 24.9317 20.8745 24.028 19.0214C23.7042 19.7373 23.2842 20.3963 22.732 20.9373L22.627 20.8302L22.732 20.9373C22.2963 21.3642 21.7309 21.6896 21.1529 21.8067C19.0444 22.2352 17.4299 20.8658 16.5272 19.0039C16.2044 19.7135 15.7862 20.3661 15.2396 20.9021M24.0374 16.0084C24.0373 16.0084 24.0372 16.0084 24.037 16.0084L24.034 16.1584L24.0378 16.0084C24.0377 16.0084 24.0376 16.0084 24.0374 16.0084ZM15.2396 20.9021C15.2396 20.902 15.2396 20.902 15.2397 20.902L15.1345 20.795L15.2395 20.9021C15.2396 20.9021 15.2396 20.9021 15.2396 20.9021ZM5.9187 20.2747L5.91877 20.2747C6.24455 20.2086 6.57232 20.0181 6.8313 19.7641L6.83141 19.764C7.63031 18.982 8.06834 17.8476 8.34736 16.6686C8.38018 16.3246 8.6189 16.0212 8.95939 15.9782M5.9187 20.2747C4.94062 20.4736 4.12658 20.0929 3.49737 19.3932M5.9187 20.2747L3.49737 19.3932M8.95939 15.9782C8.95934 15.9782 8.9593 15.9782 8.95925 15.9782L8.97826 16.127L8.9595 15.9782C8.95946 15.9782 8.95942 15.9782 8.95939 15.9782ZM3.49737 19.3932C2.86436 18.6893 2.42611 17.6681 2.2233 16.6215L3.49737 19.3932ZM16.523 18.6344C16.497 18.6982 16.4704 18.7615 16.443 18.8243L16.6071 18.8225C16.5783 18.7604 16.5503 18.6977 16.523 18.6344Z" fill="#A8AAB7" stroke="#A8AAB7" stroke-width="0.3"/>
<path id="Vector_3" d="M9.71683 9.04494L9.71688 9.04517C9.91912 10.0919 10.3571 11.1131 10.9902 11.8172C11.6193 12.517 12.4337 12.898 13.4123 12.6998C13.7372 12.6337 14.066 12.4431 14.3249 12.1892L14.3249 12.1892C15.141 11.3889 15.5805 10.2218 15.8585 9.01606C15.942 8.65057 16.2595 8.38486 16.6235 8.43884L16.6238 8.4389C16.9629 8.49008 17.197 8.79954 17.2231 9.14654C17.4325 10.1793 17.8715 11.1812 18.5002 11.8709C19.127 12.5585 19.9353 12.9308 20.9048 12.7337L20.9049 12.7337C21.2306 12.6676 21.5584 12.4771 21.8174 12.2231L21.8175 12.223C22.6335 11.424 23.0741 10.2558 23.351 9.05012L23.351 9.05003C23.4279 8.7162 23.7019 8.45921 24.0374 8.46742M9.71683 9.04494L2.22329 9.08038C2.14554 8.67679 1.78517 8.38391 1.38824 8.48726C1.003 8.58658 0.788784 9.01106 0.865825 9.41118L0.865858 9.41135C1.13732 10.8126 1.75412 12.1624 2.65587 13.0955C3.56128 14.0325 4.75859 14.5518 6.16788 14.2657C6.74604 14.1485 7.31025 13.8231 7.74686 13.3965L7.74706 13.3963C8.30269 12.8513 8.72583 12.1853 9.05049 11.4627C9.95578 13.307 11.5636 14.6576 13.6604 14.2318L13.6607 14.2317C14.2384 14.1133 14.8037 13.7894 15.2397 13.361C15.7863 12.8251 16.2044 12.1724 16.5272 11.4629C17.4299 13.3248 19.0444 14.6942 21.1529 14.2657C21.7309 14.1485 22.2963 13.8232 22.732 13.3963L22.627 13.2892L22.732 13.3963C23.2842 12.8553 23.7042 12.1963 24.028 11.4803C24.9317 13.3335 26.5439 14.6928 28.6465 14.2657C29.2246 14.1485 29.7888 13.8231 30.2255 13.3965L30.2256 13.3963C31.2737 12.3691 31.8508 10.9111 32.1889 9.44038C32.2803 9.04389 32.0807 8.61089 31.7002 8.4941L31.6996 8.49392C31.3081 8.37546 30.936 8.65016 30.8435 9.04989L30.8435 9.05012C30.5666 10.2558 30.126 11.424 29.31 12.223L29.3099 12.2231C29.0509 12.4771 28.7231 12.6676 28.3974 12.7337L28.3973 12.7337C27.4192 12.9326 26.6052 12.5519 25.976 11.8522C25.3429 11.1483 24.9047 10.127 24.7019 9.08029C24.6369 8.74313 24.3737 8.47434 24.0374 8.46742M9.71683 9.04494C9.64419 8.67217 9.32999 8.3899 8.95939 8.43716M9.71683 9.04494L5.9187 12.7337M24.0374 8.46742C24.0373 8.46742 24.0372 8.46742 24.037 8.46742L24.034 8.61739L24.0378 8.46743C24.0377 8.46743 24.0376 8.46743 24.0374 8.46742ZM5.9187 12.7337L5.91877 12.7337C6.24455 12.6676 6.57232 12.4771 6.8313 12.2231L6.83141 12.223C7.63031 11.441 8.06834 10.3066 8.34736 9.12756C8.38018 8.78363 8.6189 8.48014 8.95939 8.43716M5.9187 12.7337C4.94062 12.9326 4.12658 12.5519 3.49737 11.8522M5.9187 12.7337L3.49737 11.8522M8.95939 8.43716C8.95934 8.43716 8.9593 8.43717 8.95925 8.43717L8.97826 8.58596L8.9595 8.43714C8.95946 8.43715 8.95942 8.43715 8.95939 8.43716ZM3.49737 11.8522C2.86436 11.1483 2.42611 10.1271 2.2233 9.08046L3.49737 11.8522Z" fill="#A8AAB7" stroke="#A8AAB7" stroke-width="0.3"/>
<path id="Vector_4" d="M24.0374 0.926407C23.7019 0.91819 23.4279 1.17519 23.351 1.50901L23.351 1.5091C23.0741 2.71475 22.6335 3.88302 21.8175 4.68199L21.8174 4.68208C21.5584 4.93608 21.2306 5.1266 20.9049 5.19268L20.9048 5.19269C19.9353 5.38981 19.127 5.01747 18.5002 4.32991C17.8715 3.64021 17.4325 2.63832 17.2231 1.60552C17.197 1.25853 16.9629 0.949066 16.6238 0.897884L16.6235 0.897828C16.2595 0.843844 15.942 1.10955 15.8585 1.47504C15.5805 2.68082 15.141 3.84788 14.3249 4.64814L14.3249 4.64815C14.066 4.90205 13.7372 5.09264 13.4123 5.15875C12.4337 5.35701 11.6193 4.97596 10.9902 4.27616C10.3571 3.57208 9.91912 2.55084 9.71688 1.50416L9.71683 1.50392C9.64419 1.13116 9.32999 0.848886 8.9594 0.896137M24.0374 0.926407C24.3737 0.933327 24.6369 1.20212 24.7019 1.53928C24.9047 2.586 25.3429 3.60725 25.976 4.31118C26.6052 5.01085 27.4192 5.39155 28.3973 5.19269L28.3974 5.19268C28.7231 5.1266 29.0509 4.93608 29.3099 4.68208L29.31 4.68199C30.126 3.88302 30.5666 2.71475 30.8435 1.5091L30.8435 1.50887C30.936 1.10914 31.3081 0.834446 31.6996 0.952908L31.7002 0.953079C32.0807 1.06987 32.2803 1.50287 32.1889 1.89936C31.8508 3.37011 31.2737 4.82809 30.2256 5.8553L30.2255 5.85545C29.7888 6.28213 29.2246 6.60751 28.6465 6.72471C26.5439 7.15181 24.9317 5.79247 24.028 3.93932C23.7042 4.65524 23.2842 5.31423 22.732 5.85531L22.627 5.74817L22.732 5.85531C22.2963 6.2822 21.7309 6.60753 21.1529 6.72471C19.0444 7.15315 17.4299 5.78378 16.5272 3.92189C16.2044 4.63142 15.7863 5.28403 15.2397 5.81996C14.8037 6.2484 14.2384 6.57228 13.6607 6.69071L13.6604 6.69077C11.5636 7.11657 9.95578 5.76601 9.05049 3.92171C8.72583 4.64426 8.30269 5.31029 7.74706 5.85526L7.74686 5.85545C7.31025 6.28213 6.74604 6.60751 6.16788 6.72471C4.75859 7.01077 3.56128 6.49145 2.65587 5.55453C1.75412 4.62139 1.13732 3.27158 0.865858 1.87033L0.865825 1.87017C0.788784 1.47005 1.003 1.04556 1.38824 0.946246C1.78517 0.842894 2.14554 1.13577 2.22329 1.53936M24.0374 0.926407C24.0373 0.926404 24.0372 0.926401 24.037 0.926399L24.034 1.07637L24.0378 0.926416C24.0377 0.926413 24.0376 0.92641 24.0374 0.926407ZM2.22329 1.53936C2.22329 1.53939 2.2233 1.53942 2.2233 1.53945L2.07601 1.56781L2.22327 1.53928C2.22328 1.5393 2.22328 1.53933 2.22329 1.53936ZM2.22329 1.53936C2.42608 2.58605 2.86434 3.60727 3.49737 4.31118C4.12658 5.01085 4.94062 5.39155 5.9187 5.19269L5.91877 5.19268C6.24455 5.1266 6.57232 4.93608 6.8313 4.68208L6.83141 4.68198C7.63031 3.89994 8.06834 2.76558 8.34736 1.58654C8.38018 1.24261 8.61891 0.939118 8.9594 0.896137M8.9594 0.896137C8.95935 0.896143 8.9593 0.89615 8.95925 0.896156L8.97826 1.04495L8.9595 0.896125C8.95946 0.896129 8.95943 0.896133 8.9594 0.896137Z" fill="#A8AAB7" stroke="#A8AAB7" stroke-width="0.3"/>
</g>
</svg>
