<svg width="15" height="19" viewBox="0 0 15 19" fill="none" xmlns="http://www.w3.org/2000/svg">
<g id="Group 1191">
<path id="Vector" d="M3.33984 6.85163V4.49004C3.33984 2.36772 5.07064 1 7.17567 1C9.28069 1 11.0115 2.36772 11.0115 4.49004V6.80447" stroke="#A8AAB7" stroke-width="1.5" stroke-linecap="round" stroke-linejoin="round"/>
<g id="Group">
<path id="Vector_2" d="M13.6301 15.6411C13.6301 16.9617 12.601 17.9993 11.2912 17.9993H3.33892C2.02912 17.9993 1 16.9617 1 15.6411V9.27415C1 7.9536 2.02912 6.91602 3.33892 6.91602H11.2912C12.601 6.91602 13.6301 7.9536 13.6301 9.27415V15.6411Z" stroke="#A8AAB7" stroke-width="1.5" stroke-linecap="round" stroke-linejoin="round"/>
<path id="Vector_3" d="M7.23828 13.5024V14.5358" stroke="#A8AAB7" stroke-width="1.5" stroke-linecap="round" stroke-linejoin="round"/>
<path id="Ellipse 2569" d="M8.04824 11.8399C8.04824 12.2882 7.68532 12.6505 7.23896 12.6505C6.79261 12.6505 6.42969 12.2882 6.42969 11.8399C6.42969 11.3916 6.79261 11.0293 7.23896 11.0293C7.68532 11.0293 8.04824 11.3916 8.04824 11.8399Z" fill="#A8AAB7" stroke="#A8AAB7" stroke-width="1.5"/>
</g>
</g>
</svg>
