<svg width="16" height="13" viewBox="0 0 16 13" fill="none" xmlns="http://www.w3.org/2000/svg">
<g id="Group 1240">
<g id="play">
<mask id="path-1-inside-1_1538_53852" fill="white">
<path d="M16 1.05302V11.947C16 12.7777 15.1424 13.2824 14.482 12.8303L6.45835 7.38329C5.84722 6.97319 5.84722 6.02681 6.45835 5.60619L14.482 0.169723C15.1424 -0.282439 16 0.222301 16 1.05302Z"/>
</mask>
<path d="M16 1.05302V11.947C16 12.7777 15.1424 13.2824 14.482 12.8303L6.45835 7.38329C5.84722 6.97319 5.84722 6.02681 6.45835 5.60619L14.482 0.169723C15.1424 -0.282439 16 0.222301 16 1.05302Z" fill="#A8AAB7"/>
<path d="M14.482 12.8303L19.2588 5.79382L19.2727 5.80326L19.2866 5.81276L14.482 12.8303ZM6.45835 7.38329L11.1973 0.321273L11.2163 0.334004L11.2352 0.346838L6.45835 7.38329ZM6.45835 5.60619L1.63664 -1.39957L1.66219 -1.41715L1.68787 -1.43455L6.45835 5.60619ZM14.482 0.169723L19.2866 7.18724L19.2696 7.1989L19.2525 7.21047L14.482 0.169723ZM24.5047 1.05302V11.947H7.49532V1.05302H24.5047ZM24.5047 11.947C24.5047 18.5468 16.8459 24.7557 9.67743 19.8478L19.2866 5.81276C16.7193 4.05504 13.5433 4.15632 11.1981 5.52663C8.91623 6.85994 7.49532 9.30399 7.49532 11.947H24.5047ZM9.7052 19.8667L1.68155 14.4198L11.2352 0.346838L19.2588 5.79382L9.7052 19.8667ZM1.71942 14.4453C-3.97557 10.6237 -3.82227 2.35752 1.63664 -1.39957L11.2801 12.6119C15.5167 9.69609 15.67 3.32267 11.1973 0.321273L1.71942 14.4453ZM1.68787 -1.43455L9.71152 -6.87102L19.2525 7.21047L11.2288 12.6469L1.68787 -1.43455ZM9.67743 -6.8478C16.8459 -11.7557 24.5047 -5.5468 24.5047 1.05302H7.49532C7.49532 3.69601 8.91623 6.14006 11.1981 7.47337C13.5433 8.84368 16.7193 8.94496 19.2866 7.18724L9.67743 -6.8478Z" fill="#A8AAB7" mask="url(#path-1-inside-1_1538_53852)"/>
</g>
<g id="play_2">
<mask id="path-3-inside-2_1538_53852" fill="white">
<path d="M10 1.05302V11.947C10 12.7777 9.14243 13.2824 8.48201 12.8303L0.458354 7.38329C-0.152784 6.97319 -0.152784 6.02681 0.458354 5.60619L8.48201 0.169723C9.14243 -0.282439 10 0.222301 10 1.05302Z"/>
</mask>
<path d="M10 1.05302V11.947C10 12.7777 9.14243 13.2824 8.48201 12.8303L0.458354 7.38329C-0.152784 6.97319 -0.152784 6.02681 0.458354 5.60619L8.48201 0.169723C9.14243 -0.282439 10 0.222301 10 1.05302Z" fill="#A8AAB7"/>
<path d="M8.48201 12.8303L13.2588 5.79382L13.2727 5.80326L13.2866 5.81276L8.48201 12.8303ZM0.458354 7.38329L5.19728 0.321273L5.21626 0.334004L5.23516 0.346838L0.458354 7.38329ZM0.458354 5.60619L-4.36336 -1.39957L-4.33781 -1.41715L-4.31213 -1.43455L0.458354 5.60619ZM8.48201 0.169723L13.2866 7.18724L13.2696 7.1989L13.2525 7.21047L8.48201 0.169723ZM18.5047 1.05302V11.947H1.49532V1.05302H18.5047ZM18.5047 11.947C18.5047 18.5468 10.8459 24.7557 3.67743 19.8478L13.2866 5.81276C10.7193 4.05504 7.54334 4.15632 5.19811 5.52663C2.91623 6.85994 1.49532 9.30399 1.49532 11.947H18.5047ZM3.7052 19.8667L-4.31845 14.4198L5.23516 0.346838L13.2588 5.79382L3.7052 19.8667ZM-4.28058 14.4453C-9.97557 10.6237 -9.82227 2.35752 -4.36336 -1.39957L5.28007 12.6119C9.5167 9.69609 9.67 3.32267 5.19728 0.321273L-4.28058 14.4453ZM-4.31213 -1.43455L3.71152 -6.87102L13.2525 7.21047L5.22884 12.6469L-4.31213 -1.43455ZM3.67743 -6.8478C10.8459 -11.7557 18.5047 -5.5468 18.5047 1.05302H1.49532C1.49532 3.69601 2.91623 6.14006 5.19811 7.47337C7.54334 8.84368 10.7193 8.94496 13.2866 7.18724L3.67743 -6.8478Z" fill="#A8AAB7" mask="url(#path-3-inside-2_1538_53852)"/>
</g>
</g>
</svg>
