<svg width="7" height="12" viewBox="0 0 7 12" fill="none" xmlns="http://www.w3.org/2000/svg">
<g id="?">
<mask id="path-1-inside-1_2338_97569" fill="white">
<path d="M2.625 8.07173V7.97727C2.63163 7.3608 2.69295 6.87026 2.80895 6.50568C2.92827 6.1411 3.0973 5.84612 3.31605 5.62074C3.5348 5.39536 3.7983 5.18987 4.10653 5.00426C4.3054 4.87831 4.48438 4.73745 4.64347 4.58168C4.80256 4.4259 4.9285 4.24692 5.02131 4.04474C5.11411 3.84257 5.16051 3.61884 5.16051 3.37358C5.16051 3.0786 5.09091 2.82339 4.9517 2.60795C4.8125 2.39252 4.62689 2.2268 4.39489 2.1108C4.16619 1.99148 3.91099 1.93182 3.62926 1.93182C3.37405 1.93182 3.13045 1.98485 2.89844 2.09091C2.66643 2.19697 2.4742 2.36269 2.32173 2.58807C2.16927 2.81013 2.08144 3.09683 2.05824 3.44815H0.546875C0.570076 2.85156 0.720881 2.34777 0.99929 1.93679C1.2777 1.52249 1.6456 1.20928 2.10298 0.997158C2.56368 0.785037 3.07244 0.678977 3.62926 0.678977C4.23911 0.678977 4.77273 0.793324 5.23011 1.02202C5.6875 1.2474 6.04214 1.56392 6.29403 1.97159C6.54924 2.37595 6.67685 2.84825 6.67685 3.38849C6.67685 3.75971 6.61884 4.09446 6.50284 4.39276C6.38684 4.68774 6.22112 4.95123 6.00568 5.18324C5.79356 5.41525 5.53835 5.62074 5.24006 5.79972C4.95833 5.97538 4.72964 6.15767 4.55398 6.34659C4.38163 6.53551 4.25568 6.75923 4.17614 7.01776C4.09659 7.27628 4.0535 7.59612 4.04688 7.97727V8.07173H2.625ZM3.37571 11.0945C3.10393 11.0945 2.87027 10.9983 2.67472 10.8061C2.47917 10.6106 2.38139 10.3752 2.38139 10.1001C2.38139 9.82836 2.47917 9.59635 2.67472 9.40412C2.87027 9.20857 3.10393 9.1108 3.37571 9.1108C3.64418 9.1108 3.87618 9.20857 4.07173 9.40412C4.2706 9.59635 4.37003 9.82836 4.37003 10.1001C4.37003 10.2824 4.32363 10.4498 4.23082 10.6023C4.14134 10.7514 4.02202 10.8707 3.87287 10.9602C3.72372 11.0497 3.558 11.0945 3.37571 11.0945Z"/>
</mask>
<path d="M2.625 8.07173V7.97727C2.63163 7.3608 2.69295 6.87026 2.80895 6.50568C2.92827 6.1411 3.0973 5.84612 3.31605 5.62074C3.5348 5.39536 3.7983 5.18987 4.10653 5.00426C4.3054 4.87831 4.48438 4.73745 4.64347 4.58168C4.80256 4.4259 4.9285 4.24692 5.02131 4.04474C5.11411 3.84257 5.16051 3.61884 5.16051 3.37358C5.16051 3.0786 5.09091 2.82339 4.9517 2.60795C4.8125 2.39252 4.62689 2.2268 4.39489 2.1108C4.16619 1.99148 3.91099 1.93182 3.62926 1.93182C3.37405 1.93182 3.13045 1.98485 2.89844 2.09091C2.66643 2.19697 2.4742 2.36269 2.32173 2.58807C2.16927 2.81013 2.08144 3.09683 2.05824 3.44815H0.546875C0.570076 2.85156 0.720881 2.34777 0.99929 1.93679C1.2777 1.52249 1.6456 1.20928 2.10298 0.997158C2.56368 0.785037 3.07244 0.678977 3.62926 0.678977C4.23911 0.678977 4.77273 0.793324 5.23011 1.02202C5.6875 1.2474 6.04214 1.56392 6.29403 1.97159C6.54924 2.37595 6.67685 2.84825 6.67685 3.38849C6.67685 3.75971 6.61884 4.09446 6.50284 4.39276C6.38684 4.68774 6.22112 4.95123 6.00568 5.18324C5.79356 5.41525 5.53835 5.62074 5.24006 5.79972C4.95833 5.97538 4.72964 6.15767 4.55398 6.34659C4.38163 6.53551 4.25568 6.75923 4.17614 7.01776C4.09659 7.27628 4.0535 7.59612 4.04688 7.97727V8.07173H2.625ZM3.37571 11.0945C3.10393 11.0945 2.87027 10.9983 2.67472 10.8061C2.47917 10.6106 2.38139 10.3752 2.38139 10.1001C2.38139 9.82836 2.47917 9.59635 2.67472 9.40412C2.87027 9.20857 3.10393 9.1108 3.37571 9.1108C3.64418 9.1108 3.87618 9.20857 4.07173 9.40412C4.2706 9.59635 4.37003 9.82836 4.37003 10.1001C4.37003 10.2824 4.32363 10.4498 4.23082 10.6023C4.14134 10.7514 4.02202 10.8707 3.87287 10.9602C3.72372 11.0497 3.558 11.0945 3.37571 11.0945Z" fill="#FFFFFA" fill-opacity="0.541176"/>
<path d="M2.625 8.07173H1.625V9.07173H2.625V8.07173ZM2.625 7.97727L1.625 7.96652V7.97727H2.625ZM2.80895 6.50568L1.85852 6.19463L1.85602 6.20248L2.80895 6.50568ZM3.31605 5.62074L2.59847 4.92426V4.92426L3.31605 5.62074ZM4.10653 5.00426L4.62238 5.86094L4.63205 5.85512L4.64159 5.84908L4.10653 5.00426ZM4.64347 4.58168L5.34309 5.29619H5.34309L4.64347 4.58168ZM5.02131 4.04474L4.11248 3.62758L5.02131 4.04474ZM4.9517 2.60795L4.11179 3.15067L4.11179 3.15067L4.9517 2.60795ZM4.39489 2.1108L3.93232 2.99738L3.93996 3.00137L3.94767 3.00522L4.39489 2.1108ZM2.89844 2.09091L3.3142 3.00038L3.3142 3.00038L2.89844 2.09091ZM2.32173 2.58807L3.14615 3.15409L3.15002 3.14838L2.32173 2.58807ZM2.05824 3.44815V4.44815H2.99438L3.05607 3.51405L2.05824 3.44815ZM0.546875 3.44815L-0.45237 3.40929L-0.49277 4.44815H0.546875V3.44815ZM0.99929 1.93679L1.82721 2.49764L1.82929 2.49455L0.99929 1.93679ZM2.10298 0.997159L1.68475 0.0888133L1.68226 0.0899704L2.10298 0.997159ZM5.23011 1.02202L4.78289 1.91646L4.78811 1.91903L5.23011 1.02202ZM6.29403 1.97159L5.44329 2.49725L5.44838 2.50532L6.29403 1.97159ZM6.50284 4.39276L7.43347 4.75873L7.43485 4.7552L6.50284 4.39276ZM6.00568 5.18324L5.27287 4.50277L5.26765 4.50847L6.00568 5.18324ZM5.24006 5.79972L4.72556 4.94222L4.71822 4.94663L4.71096 4.95116L5.24006 5.79972ZM4.55398 6.34659L3.82161 5.66562L3.81521 5.67263L4.55398 6.34659ZM4.04688 7.97727L3.04703 7.95988L3.04688 7.96858V7.97727H4.04688ZM4.04688 8.07173V9.07173H5.04688V8.07173H4.04688ZM2.67472 10.8061L1.96758 11.5132L1.97368 11.5192L2.67472 10.8061ZM2.67472 9.40412L3.37578 10.1173L3.38182 10.1112L2.67472 9.40412ZM4.07173 9.40412L3.36463 10.1112L3.37062 10.1172L3.37671 10.1231L4.07173 9.40412ZM4.23082 10.6023L3.37661 10.0823L3.37333 10.0878L4.23082 10.6023ZM3.87287 10.9602L3.35837 10.1027L3.87287 10.9602ZM3.625 8.07173V7.97727H1.625V8.07173H3.625ZM3.62494 7.98802C3.63107 7.41806 3.68862 7.03911 3.76187 6.80888L1.85602 6.20248C1.69727 6.70142 1.63219 7.30353 1.62506 7.96652L3.62494 7.98802ZM3.75935 6.81672C3.84166 6.56521 3.94163 6.412 4.03363 6.31721L2.59847 4.92426C2.25297 5.28023 2.01488 5.71699 1.85855 6.19464L3.75935 6.81672ZM4.03363 6.31721C4.18435 6.16192 4.37752 6.00839 4.62238 5.86094L3.59068 4.14758C3.21907 4.37135 2.88525 4.62879 2.59847 4.92426L4.03363 6.31721ZM4.64159 5.84908C4.89636 5.68773 5.13109 5.50377 5.34309 5.29619L3.94384 3.86717C3.83766 3.97114 3.71444 4.0689 3.57148 4.15944L4.64159 5.84908ZM5.34309 5.29619C5.58942 5.05499 5.78631 4.77526 5.93014 4.46191L4.11248 3.62758C4.0707 3.71859 4.01569 3.79681 3.94384 3.86717L5.34309 5.29619ZM5.93014 4.46191C6.08893 4.11597 6.16051 3.74795 6.16051 3.37358H4.16051C4.16051 3.48974 4.13929 3.56916 4.11248 3.62758L5.93014 4.46191ZM6.16051 3.37358C6.16051 2.91566 6.05031 2.46559 5.79162 2.06524L4.11179 3.15067C4.13151 3.18119 4.16051 3.24154 4.16051 3.37358H6.16051ZM5.79162 2.06524C5.55418 1.69778 5.23221 1.41142 4.8421 1.21637L3.94767 3.00522C4.02158 3.04218 4.07082 3.08726 4.11179 3.15067L5.79162 2.06524ZM4.85745 1.22421C4.4731 1.02368 4.0569 0.931818 3.62926 0.931818V2.93182C3.76507 2.93182 3.85929 2.95928 3.93232 2.99738L4.85745 1.22421ZM3.62926 0.931818C3.23064 0.931818 2.84523 1.0157 2.48268 1.18144L3.3142 3.00038C3.41566 2.954 3.51747 2.93182 3.62926 2.93182V0.931818ZM2.48268 1.18143C2.07251 1.36894 1.74163 1.66088 1.49345 2.02776L3.15002 3.14838C3.20676 3.06449 3.26035 3.025 3.3142 3.00038L2.48268 1.18143ZM1.49733 2.02206C1.21652 2.43107 1.0919 2.9054 1.06041 3.38226L3.05607 3.51405C3.07098 3.28826 3.12202 3.18919 3.14613 3.15407L1.49733 2.02206ZM2.05824 2.44815H0.546875V4.44815H2.05824V2.44815ZM1.54612 3.48701C1.56355 3.03891 1.67302 2.72525 1.82721 2.49764L0.171371 1.37594C-0.23126 1.9703 -0.423395 2.66422 -0.45237 3.40929L1.54612 3.48701ZM1.82929 2.49455C2.00469 2.23354 2.23035 2.0404 2.52371 1.90435L1.68226 0.0899704C1.06084 0.378164 0.550708 0.81144 0.169288 1.37903L1.82929 2.49455ZM2.52121 1.9055C2.83838 1.75947 3.20256 1.67898 3.62926 1.67898V-0.321023C2.94233 -0.321023 2.28899 -0.189393 1.68475 0.0888166L2.52121 1.9055ZM3.62926 1.67898C4.11351 1.67898 4.48865 1.76932 4.7829 1.91644L5.67733 0.12759C5.0568 -0.182674 4.36471 -0.321023 3.62926 -0.321023V1.67898ZM4.78811 1.91903C5.08837 2.06698 5.29651 2.25961 5.44333 2.49723L7.14474 1.44595C6.78777 0.868227 6.28663 0.427809 5.67212 0.125005L4.78811 1.91903ZM5.44838 2.50532C5.5901 2.72986 5.67685 3.01195 5.67685 3.38849H7.67685C7.67685 2.68454 7.50839 2.02203 7.13969 1.43786L5.44838 2.50532ZM5.67685 3.38849C5.67685 3.65525 5.63533 3.86447 5.57084 4.03031L7.43485 4.7552C7.60236 4.32445 7.67685 3.86416 7.67685 3.38849H5.67685ZM5.57222 4.02678C5.50188 4.20564 5.40322 4.36243 5.27289 4.50279L6.73848 5.86369C7.03902 5.54003 7.27179 5.16984 7.43347 4.75873L5.57222 4.02678ZM5.26765 4.50847C5.12735 4.66192 4.94964 4.80777 4.72556 4.94222L5.75455 6.65721C6.12706 6.4337 6.45977 6.16857 6.74371 5.85801L5.26765 4.50847ZM4.71096 4.95116C4.37461 5.16088 4.07167 5.39675 3.82164 5.66565L5.28631 7.02753C5.38761 6.9186 5.54205 6.78988 5.76916 6.64827L4.71096 4.95116ZM3.81521 5.67263C3.53766 5.97686 3.34075 6.33238 3.22036 6.72367L5.13192 7.31184C5.17061 7.18608 5.22559 7.09416 5.29274 7.02055L3.81521 5.67263ZM3.22036 6.72367C3.1045 7.1002 3.05468 7.51999 3.04703 7.95988L5.04672 7.99466C5.05233 7.67224 5.08868 7.45235 5.13192 7.31184L3.22036 6.72367ZM3.04688 7.97727V8.07173H5.04688V7.97727H3.04688ZM4.04688 7.07173H2.625V9.07173H4.04688V7.07173ZM3.37571 10.0945C3.36694 10.0945 3.36408 10.0937 3.36584 10.094C3.36776 10.0944 3.37191 10.0954 3.37705 10.0976C3.38217 10.0997 3.38538 10.1017 3.38618 10.1022C3.38683 10.1026 3.38321 10.1003 3.37575 10.093L1.97368 11.5192C2.35437 11.8935 2.83905 12.0945 3.37571 12.0945V10.0945ZM3.38182 10.099C3.37453 10.0917 3.37238 10.0883 3.37302 10.0892C3.37376 10.0903 3.37594 10.0939 3.37818 10.0993C3.38043 10.1047 3.38151 10.109 3.38187 10.1109C3.3822 10.1126 3.38139 10.1095 3.38139 10.1001H1.38139C1.38139 10.642 1.58564 11.1312 1.96761 11.5132L3.38182 10.099ZM3.38139 10.1001C3.38139 10.0924 3.38206 10.0909 3.38141 10.0943C3.38072 10.0979 3.37914 10.1038 3.37623 10.1107C3.37333 10.1175 3.37041 10.1223 3.36893 10.1245C3.36755 10.1264 3.36901 10.1239 3.37575 10.1172L1.97368 8.691C1.58882 9.06933 1.38139 9.55749 1.38139 10.1001H3.38139ZM3.38182 10.1112C3.38964 10.1034 3.39344 10.1009 3.39275 10.1014C3.3919 10.102 3.38837 10.1042 3.38264 10.1066C3.37687 10.109 3.37189 10.1104 3.36894 10.1109C3.36617 10.1115 3.36797 10.1108 3.37571 10.1108V8.1108C2.83354 8.1108 2.347 8.31762 1.96761 8.69701L3.38182 10.1112ZM3.37571 10.1108C3.38185 10.1108 3.38233 10.1113 3.37848 10.1106C3.37448 10.1098 3.36882 10.1082 3.36271 10.1056C3.35665 10.1031 3.35312 10.1008 3.35252 10.1004C3.35209 10.1001 3.35629 10.1029 3.36463 10.1112L4.77884 8.69701C4.40207 8.32024 3.91819 8.1108 3.37571 8.1108V10.1108ZM3.37671 10.1231C3.38397 10.1301 3.38561 10.1329 3.38421 10.1309C3.38268 10.1288 3.37952 10.1237 3.37631 10.1162C3.37309 10.1087 3.37122 10.102 3.37031 10.0974C3.36944 10.093 3.37003 10.0934 3.37003 10.1001H5.37003C5.37003 9.5519 5.15664 9.06202 4.76675 8.68513L3.37671 10.1231ZM3.37003 10.1001C3.37003 10.1032 3.36984 10.1039 3.37002 10.1025C3.3702 10.1011 3.37065 10.0986 3.37157 10.0952C3.3725 10.0919 3.37364 10.0887 3.37481 10.0861C3.37596 10.0834 3.37675 10.0821 3.37663 10.0823L5.08502 11.1222C5.27531 10.8096 5.37003 10.4617 5.37003 10.1001H3.37003ZM3.37333 10.0878C3.37118 10.0914 3.36961 10.0935 3.36876 10.0946C3.36792 10.0957 3.36739 10.0962 3.36711 10.0965C3.36683 10.0968 3.36628 10.0973 3.3652 10.0982C3.3641 10.099 3.36196 10.1006 3.35837 10.1027L4.38736 11.8177C4.67726 11.6438 4.91438 11.4067 5.08832 11.1168L3.37333 10.0878ZM3.35837 10.1027C3.35974 10.1019 3.36225 10.1005 3.36574 10.0991C3.36923 10.0976 3.37278 10.0964 3.37605 10.0955C3.37931 10.0946 3.38136 10.0943 3.3818 10.0942C3.3822 10.0942 3.3803 10.0945 3.37571 10.0945V12.0945C3.73015 12.0945 4.07518 12.005 4.38736 11.8177L3.35837 10.1027Z" fill="#4E76FF" mask="url(#path-1-inside-1_2338_97569)"/>
</g>
</svg>
