<svg width="29" height="23" viewBox="0 0 29 23" fill="none" xmlns="http://www.w3.org/2000/svg">
<g id="Group 1261159919">
<path id="Vector" d="M9.87109 8.38902L12.3679 3.4082L25.1124 9.79709L22.7386 14.533" stroke="#4E76FF"/>
<path id="Vector_2" d="M21.5471 1L20.4023 3.28443" stroke="#4E76FF"/>
<path id="Vector_3" d="M14.2344 4.34362L15.8976 1.02734L24.9052 5.54137L23.2432 8.85893" stroke="#4E76FF"/>
<path id="Vector_4" d="M4.5 19L6.27351 8.14453L17.6573 8.76136L25.1452 17.3342L23.5974 19.3488" stroke="#4E76FF"/>
<path id="Vector_5" d="M17.7148 8.74023L13.3867 17.3746" stroke="#4E76FF"/>
<path id="Vector_6" d="M1.28516 20.7955C1.28516 20.7955 4.03846 17.3458 7.70995 20.7955C8.43194 21.4751 10.1029 22.3125 11.6764 20.7955C12.7985 19.7144 14.8785 18.0832 17.8716 20.7955C18.5795 21.4367 20.2646 22.2125 21.6932 20.7955C22.8063 19.6926 24.9197 17.7228 28 20.7955" stroke="#4E76FF" stroke-linecap="round"/>
</g>
</svg>
