<svg width="16" height="17" viewBox="0 0 16 17" fill="none" xmlns="http://www.w3.org/2000/svg">
<path id="icon" fill-rule="evenodd" clip-rule="evenodd" d="M6.18142 0H9.82024L10.6128 2.3778C11.0062 2.55495 11.3783 2.77087 11.7244 3.02071L14.1809 2.51802L16.0003 5.66933L14.3368 7.54529C14.3579 7.75636 14.3687 7.97046 14.3687 8.18709C14.3687 8.40389 14.3579 8.61816 14.3367 8.82939L16.0003 10.7054L14.1809 13.8567L11.7237 13.3539C11.3779 13.6035 11.0061 13.8193 10.613 13.9963L9.82024 16.3747H6.18142L5.38864 13.9963C4.99541 13.8192 4.62341 13.6034 4.27748 13.3537L1.81941 13.8567L0 10.7054L1.66472 8.82803C1.64365 8.61724 1.63286 8.40342 1.63286 8.18709C1.63286 7.97092 1.64363 7.75727 1.66467 7.54665L2.86102e-05 5.66941L1.81944 2.5181L4.27684 3.02097C4.62301 2.77101 4.9953 2.55498 5.38884 2.37776L6.18142 0ZM10.4205 8.18701C10.4205 9.42021 9.42075 10.4199 8.18755 10.4199C6.95435 10.4199 5.95464 9.42021 5.95464 8.18701C5.95464 6.9538 6.95435 5.95409 8.18755 5.95409C9.42075 5.95409 10.4205 6.9538 10.4205 8.18701Z" fill="#A8AAB7"/>
</svg>
