<svg width="19" height="21" viewBox="0 0 19 21" fill="none" xmlns="http://www.w3.org/2000/svg">
<g id="Group">
<path id="Vector" d="M17.9835 10.6087C17.9518 10.5207 17.8817 10.4521 17.7931 10.4224L15.5258 9.6602V4.95106C15.5258 4.78206 15.3888 4.64504 15.2198 4.64504H13.2978V0.880252C13.2978 0.711241 13.1608 0.574219 12.9917 0.574219H5.5647C5.39569 0.574219 5.25865 0.711241 5.25865 0.880252V4.64504H3.33652C3.16751 4.64504 3.03048 4.78206 3.03048 4.95106V9.6602L0.763144 10.4224C0.67454 10.4521 0.604454 10.5207 0.572771 10.6087C0.541099 10.6967 0.55141 10.7943 0.600723 10.8736L6.43513 20.2813C6.49087 20.3714 6.58919 20.4261 6.69513 20.4261H11.8613C11.9672 20.4261 12.0656 20.3714 12.1213 20.2813L17.9556 10.8736C18.0049 10.7943 18.0152 10.6967 17.9835 10.6087ZM5.87072 1.18629H12.6857V4.64504H5.87072V1.18629ZM8.97218 19.814H6.86549L1.32442 10.8795L8.97218 8.3087L8.97218 19.814ZM9.28013 7.57727C9.27948 7.57727 9.27888 7.57688 9.27821 7.57688C9.27753 7.57688 9.27696 7.57727 9.27629 7.57727C9.244 7.57748 9.2117 7.58247 9.18063 7.59288L3.64255 9.45447V5.25711H14.9137V9.45446L9.37579 7.59288C9.34474 7.58247 9.31243 7.57748 9.28013 7.57727ZM11.6909 19.814H9.58424V8.30873L17.2319 10.8795L11.6909 19.814Z" fill="#A8AAB7" stroke="#A8AAB7" stroke-width="0.3"/>
</g>
</svg>
