<svg width="80" height="83" viewBox="0 0 80 83" fill="none" xmlns="http://www.w3.org/2000/svg">
<g id="Group 1190">
<g id="Group 1208">
<path id="Vector" d="M44.0516 1.86621H2V77.9383H60.092V18.0425L44.0516 1.86621Z" stroke="#A8AAB7" stroke-width="3"/>
<path id="Vector_2" d="M42.8242 1.86621V18.0425H58.8645" stroke="#A8AAB7" stroke-width="3"/>
<path id="Vector_3" d="M11.8828 36.1847H51.5518" stroke="#A8AAB7" stroke-width="3"/>
<path id="Vector_4" d="M11.8828 50.1752H43.6254" stroke="#A8AAB7" stroke-width="3"/>
<path id="Vector_5" d="M11.8828 64.1648H38.335" stroke="#A8AAB7" stroke-width="3"/>
</g>
<g id="Group 1207">
<g id="Vector_6">
<path d="M53.3867 54.8644V49.2589C53.3867 44.2213 57.495 40.9748 62.4915 40.9748C67.4881 40.9748 71.5963 44.2213 71.5963 49.2589V54.7525" fill="black"/>
<path d="M53.3867 54.8644V49.2589C53.3867 44.2213 57.495 40.9748 62.4915 40.9748C67.4881 40.9748 71.5963 44.2213 71.5963 49.2589V54.7525" stroke="#A8AAB7" stroke-width="3" stroke-linecap="round" stroke-linejoin="round"/>
</g>
<g id="Group">
<path id="Vector_7" d="M77.8152 75.7294C77.8152 78.8639 75.3724 81.3267 72.2635 81.3267H53.3876C50.2787 81.3267 47.8359 78.8639 47.8359 75.7294V60.6166C47.8359 57.4821 50.2787 55.0192 53.3876 55.0192H72.2635C75.3724 55.0192 77.8152 57.4821 77.8152 60.6166V75.7294Z" fill="black" stroke="#A8AAB7" stroke-width="3" stroke-linecap="round" stroke-linejoin="round"/>
<path id="Vector_8" d="M62.6406 70.6514V73.1042" stroke="#A8AAB7" stroke-width="3" stroke-linecap="round" stroke-linejoin="round"/>
<path id="Ellipse 2569" d="M64.8398 66.7071C64.8398 67.9257 63.8531 68.9114 62.6386 68.9114C61.4242 68.9114 60.4375 67.9257 60.4375 66.7071C60.4375 65.4886 61.4242 64.5029 62.6386 64.5029C63.8531 64.5029 64.8398 65.4886 64.8398 66.7071Z" stroke="#A8AAB7" stroke-width="3"/>
</g>
</g>
</g>
</svg>
