<svg width="13" height="12" viewBox="0 0 13 12" fill="none" xmlns="http://www.w3.org/2000/svg">
<g id="icon">
<path id="Vector" d="M6.73438 0C5.54769 0 4.38765 0.351894 3.40096 1.01118C2.41426 1.67047 1.64523 2.60754 1.1911 3.7039C0.736975 4.80026 0.618155 6.00666 0.849666 7.17054C1.08118 8.33443 1.65262 9.40352 2.49174 10.2426C3.33085 11.0818 4.39995 11.6532 5.56384 11.8847C6.72772 12.1162 7.93412 11.9974 9.03048 11.5433C10.1268 11.0892 11.0639 10.3201 11.7232 9.33342C12.3825 8.34673 12.7344 7.18669 12.7344 6C12.7327 4.40923 12.1 2.8841 10.9751 1.75926C9.85027 0.634414 8.32515 0.00172054 6.73438 0ZM6.73438 11C5.74547 11 4.77877 10.7068 3.95653 10.1573C3.13428 9.60794 2.49342 8.82705 2.11498 7.91342C1.73654 6.99979 1.63753 5.99445 1.83045 5.02455C2.02338 4.05464 2.49958 3.16373 3.19884 2.46447C3.89811 1.7652 4.78902 1.289 5.75893 1.09607C6.72883 0.903147 7.73416 1.00216 8.6478 1.3806C9.56143 1.75904 10.3423 2.3999 10.8917 3.22215C11.4411 4.04439 11.7344 5.01109 11.7344 6C11.7329 7.32564 11.2057 8.59656 10.2683 9.53393C9.33094 10.4713 8.06001 10.9985 6.73438 11Z" fill="#A8AAB7"/>
<path id="Vector_2" d="M6.40625 5.91989L6.40625 8.71289C6.40625 8.8455 6.45893 8.97268 6.5527 9.06644C6.64646 9.16021 6.77364 9.21289 6.90625 9.21289C7.03886 9.21289 7.16604 9.16021 7.2598 9.06644C7.35357 8.97268 7.40625 8.8455 7.40625 8.71289L7.40625 5.71289C7.40622 5.58029 7.35352 5.45314 7.25975 5.35939L5.75975 3.85939C5.66545 3.76831 5.53915 3.71791 5.40805 3.71905C5.27695 3.72019 5.15155 3.77278 5.05884 3.86548C4.96614 3.95818 4.91355 4.08359 4.91241 4.21469C4.91127 4.34579 4.96167 4.47209 5.05275 4.56639L6.40625 5.91989Z" fill="#A8AAB7"/>
</g>
</svg>
