<svg width="31" height="30" viewBox="0 0 31 30" fill="none" xmlns="http://www.w3.org/2000/svg">
<g id="&#235;&#130;&#160;&#236;&#148;&#168;_&#234;&#181;&#172;&#235;&#166;&#132;&#235;&#130;&#128; 4">
<path id="Vector" d="M5.94581 25.4277C5.94581 25.4277 1.76381 24.7147 1.75781 20.5487C1.75681 19.0997 2.56481 16.7787 5.94581 16.5327C5.94581 16.5327 6.30481 11.6637 11.7508 11.5147C13.5808 11.4637 16.8668 12.0357 17.3138 16.5327C17.3138 16.5327 22.7308 16.3317 22.8798 20.8767C22.9338 22.4807 22.4008 25.1287 18.3618 25.4277H5.94581Z" stroke="#DDDDDD"/>
<path id="Vector_2" d="M14.6562 11.8064C15.5723 10.4454 17.3862 9.40039 19.1532 9.40039C21.9722 9.40039 24.2583 11.6854 24.2583 14.5054C24.2583 16.0094 23.5193 17.5324 22.4873 18.4664" stroke="#DDDDDD"/>
<path id="Vector_3" d="M11.7617 7.67773L14.0677 9.69173" stroke="#DDDDDD"/>
<path id="Vector_4" d="M24.2578 9.4002L26.7208 7.1582" stroke="#DDDDDD"/>
<path id="Vector_5" d="M26.7225 21.9489L24.3945 19.7969" stroke="#DDDDDD"/>
<path id="Vector_6" d="M19.0586 7.91627V4.57227" stroke="#DDDDDD"/>
<path id="Vector_7" d="M26.1367 14.6445H29.2997" stroke="#DDDDDD"/>
</g>
</svg>
