<svg width="31" height="30" viewBox="0 0 31 30" fill="none" xmlns="http://www.w3.org/2000/svg">
<g id="&#235;&#130;&#160;&#236;&#148;&#168;_&#235;&#176;&#148;&#235;&#158;&#140; 1">
<path id="Vector" d="M15.7187 13.432C15.2897 12.707 15.0437 11.86 15.0437 10.955C15.0437 8.26603 17.2257 6.08203 19.9167 6.08203C22.6087 6.08203 24.7907 8.26603 24.7907 10.955C24.7907 13.646 22.6087 15.83 19.9167 15.83H3.17969" stroke="#DDDDDD"/>
<path id="Vector_2" d="M8.14369 12.2423C8.06769 12.0293 8.02569 11.7993 8.02569 11.5623C8.02569 10.4623 8.91669 9.57031 10.0167 9.57031C11.1167 9.57031 12.0077 10.4633 12.0077 11.5623C12.0077 12.6613 11.1167 13.5523 10.0167 13.5523H3.17969" stroke="#DDDDDD"/>
<path id="Vector_3" d="M21.1147 19.5526C20.9327 19.9456 20.8307 20.3806 20.8307 20.8416C20.8307 22.5406 22.2067 23.9176 23.9057 23.9176C25.6047 23.9176 26.9807 22.5406 26.9807 20.8416C26.9807 19.1446 25.6047 17.7676 23.9057 17.7676H3.17969" stroke="#DDDDDD"/>
<path id="Vector_4" d="M11.2547 19.8848H3.17969" stroke="#DDDDDD"/>
</g>
</svg>
