<svg width="17" height="19" viewBox="0 0 17 19" fill="none" xmlns="http://www.w3.org/2000/svg">
<g id="Group 1261159900">
<path id="Vector" d="M12.2573 1H2.51172V18.482H15.9756V4.71736L12.2573 1Z" stroke="#4E76FF"/>
<path id="Vector_2" d="M11.9727 1V4.71736H15.69" stroke="#4E76FF"/>
<path id="Vector_3" d="M5.08594 10.9385H13.3625" stroke="#4E76FF"/>
<path id="Vector_4" d="M5.08594 13.2441H13.3625" stroke="#4E76FF"/>
<path id="Vector_5" d="M5.08594 15.5498H13.3625" stroke="#4E76FF"/>
<path id="Vector_6" d="M10.4048 3H0V8.64669H10.4048V3Z" fill="#4E76FF"/>
<path id="XLS" d="M1.53616 7.70213H0.910362L2.09476 5.92553L0.994363 4.27493H1.62016L2.40556 5.46773L3.19516 4.27493H3.82096L2.71636 5.92553L3.90076 7.70213H3.27496L2.40556 6.38753L1.53616 7.70213ZM4.81315 4.27493V7.22333H6.37975V7.70213H4.27135V4.27493H4.81315ZM6.51867 6.87053L6.97647 6.64373C7.14447 7.04273 7.48467 7.27373 7.93407 7.27373C8.37927 7.27373 8.65647 7.10573 8.65647 6.79913C8.65647 6.51773 8.47587 6.38333 8.14827 6.29093L7.64427 6.15233C7.19067 6.02633 6.71187 5.77433 6.71187 5.17793C6.71187 4.57733 7.22427 4.21193 7.89207 4.21193C8.53887 4.21193 8.98827 4.58573 9.17307 5.03513L8.71947 5.26193C8.56827 4.94273 8.29527 4.70333 7.89207 4.70333C7.48467 4.70333 7.24527 4.87973 7.24527 5.17793C7.24527 5.47193 7.47207 5.58953 7.76607 5.66933L8.25747 5.80373C8.71527 5.92973 9.18987 6.19433 9.18987 6.79913C9.18987 7.40813 8.63547 7.76513 7.93407 7.76513C7.24527 7.76513 6.73707 7.42913 6.51867 6.87053Z" fill="#222222"/>
<path id="Vector_7" d="M0.367188 8.35645L2.51437 10.7987" stroke="#4E76FF"/>
</g>
</svg>
