<svg width="119" height="34" viewBox="0 0 119 34" fill="none" xmlns="http://www.w3.org/2000/svg">
<g id="logo">
<g id="emblem">
<path id="Vector" d="M7.52344 7.52582V19.4185C7.52344 20.1153 7.98799 21.6948 8.73129 23.2279C9.43805 24.9303 10.4276 26.5009 11.658 27.8734C12.9499 29.2132 14.4192 30.3699 16.0248 31.3111C17.1644 31.9918 18.1846 32.855 19.0445 33.8662C19.9258 32.8586 20.9605 31.9963 22.1105 31.3111C23.7078 30.3576 25.1755 29.2022 26.4774 27.8734C27.871 26.4333 28.8931 24.3428 29.4041 23.2279C29.9151 22.1129 30.6119 20.1153 30.6119 19.4185V7.52582L19.0445 0L7.52344 7.52582Z" fill="#001A60"/>
<path id="Vector_2" d="M30.0087 7.89758H30.1016L19.0452 0.604034L8.03516 7.80467V19.4186C8.03516 20.58 9.75402 25.1791 12.0303 27.5483C13.3061 28.8283 14.7428 29.937 16.3043 30.8467C17.3201 31.4732 18.2428 32.2395 19.0452 33.123C19.8768 32.2521 20.813 31.4875 21.8325 30.8467C23.394 29.937 24.8307 28.8283 26.1064 27.5483C28.3828 25.1791 30.1016 20.58 30.1016 19.4186V7.85113H30.0087V7.89758Z" fill="url(#paint0_radial_2870_86177)"/>
<path id="Vector_3" d="M8.82422 8.31548V19.5113C9.00546 20.6599 9.36602 21.7729 9.8927 22.8097C10.5633 24.3656 11.4724 25.8076 12.5871 27.0836C13.8276 28.3188 15.2164 29.3955 16.7217 30.289C17.5595 30.7888 18.3386 31.381 19.0445 32.0543C19.7768 31.3925 20.5701 30.8015 21.4137 30.289C22.9191 29.3955 24.3078 28.3188 25.5483 27.0836C26.663 25.8076 27.5721 24.3656 28.2427 22.8097C28.746 21.7634 29.1054 20.6539 29.3112 19.5113V8.31548L19.0445 1.62585L8.82422 8.31548Z" fill="url(#paint1_linear_2870_86177)"/>
<path id="Vector_4" d="M8.03516 7.80467H8.12807L19.0452 0.789858V0.604034L8.03516 7.80467Z" fill="#FEDA5D"/>
<path id="Vector_5" d="M30.0104 7.89758H30.1033L19.0469 0.604034V0.789858L30.0104 7.89758Z" fill="#DFB840"/>
<path id="Vector_6" d="M29.36 8.31568L29.5459 8.22276L19.0469 1.34732V1.62605L29.36 8.31568Z" fill="#D39428"/>
<path id="Vector_7" d="M8.59375 8.17631L8.77957 8.26922L19.0463 1.62605V1.34732L8.59375 8.17631Z" fill="#D39428"/>
<path id="Vector_8" d="M16.677 30.3354C15.1674 29.4688 13.7906 28.3892 12.5889 27.1299C10.452 24.9465 8.77957 20.5797 8.77957 19.5576V8.31535L8.59375 8.22244V19.5112C8.59375 20.0222 8.9654 21.323 9.70869 22.9489C10.3807 24.5148 11.3068 25.9589 12.4496 27.2228C13.6762 28.4868 15.0668 29.5805 16.5841 30.4747C17.4744 31.0321 18.3002 31.6865 19.0463 32.4259V32.1936C18.3334 31.482 17.538 30.8581 16.677 30.3354Z" fill="#FEDA5D"/>
<path id="Vector_9" d="M16.677 30.3354C15.1674 29.4688 13.7906 28.3892 12.5889 27.1299C10.452 24.9465 8.77957 20.5797 8.77957 19.5576V8.31535L8.59375 8.22244V19.5112C8.59375 20.0222 8.9654 21.323 9.70869 22.9489C10.3807 24.5148 11.3068 25.9589 12.4496 27.2228C13.6762 28.4868 15.0668 29.5805 16.5841 30.4747C17.4744 31.0321 18.3002 31.6865 19.0463 32.4259V32.1936C18.3334 31.482 17.538 30.8581 16.677 30.3354Z" fill="url(#paint2_linear_2870_86177)"/>
<path id="Vector_10" d="M29.36 19.5576C29.36 20.5797 27.6876 24.9465 25.5507 27.1299C24.3295 28.3675 22.9558 29.4447 21.4626 30.3354C20.5947 30.8687 19.785 31.4915 19.0469 32.1936V32.4259C19.8187 31.6967 20.6588 31.0433 21.5555 30.4747C23.0729 29.5805 24.4634 28.4868 25.69 27.2228C26.817 25.9469 27.7414 24.5054 28.4309 22.9489C29.1742 21.323 29.5459 20.0222 29.5459 19.5112V8.22244L29.36 8.31535V19.5576Z" fill="#FEDA5D"/>
<path id="Vector_11" d="M15.2812 5.38845H15.7458C15.9062 5.37651 16.0669 5.40864 16.2104 5.48136C16.2996 5.51991 16.3745 5.58547 16.4245 5.66881C16.4745 5.75214 16.4971 5.84906 16.4891 5.94592C16.4804 6.05109 16.4463 6.15257 16.3896 6.24159C16.333 6.33062 16.2555 6.40453 16.1639 6.45694H15.6529V7.10731H15.2812V5.38845ZM15.6529 5.66719V6.22466H15.8387C15.882 6.22834 15.9255 6.22185 15.9659 6.20572C16.0062 6.18959 16.0422 6.16426 16.071 6.13174V5.94592C16.071 5.7601 16.0245 5.66719 15.8387 5.66719H15.6529Z" fill="white"/>
<path id="Vector_12" d="M17.3746 5.38849C17.8391 5.38849 18.1179 5.71368 18.1179 6.27115C18.1297 6.42371 18.1017 6.57672 18.0365 6.71517C17.9713 6.85363 17.8713 6.97276 17.7462 7.06089C17.6372 7.13479 17.5056 7.16771 17.3746 7.15381C17.2695 7.16742 17.1626 7.15313 17.0647 7.11235C16.9669 7.07158 16.8815 7.00577 16.8171 6.92153C16.6864 6.73058 16.6212 6.50234 16.6313 6.27115C16.6201 6.112 16.6482 5.95255 16.713 5.80677C16.7778 5.66099 16.8773 5.53332 17.0029 5.43495L17.3746 5.38849ZM17.3746 5.62077C17.3156 5.62353 17.2585 5.64229 17.2094 5.67503C17.1603 5.70776 17.1211 5.75324 17.0958 5.80659C17.0289 5.95203 16.9971 6.11116 17.0029 6.27115C17.0029 6.54988 17.0494 6.73571 17.1888 6.82862H17.3746C17.6069 6.82862 17.6998 6.64279 17.6998 6.22469C17.7134 6.08361 17.6976 5.94123 17.6533 5.80659C17.6333 5.74959 17.5953 5.70065 17.545 5.66713C17.4947 5.63362 17.4349 5.61735 17.3746 5.62077Z" fill="white"/>
<path id="Vector_13" d="M18.3477 5.38849H18.7193V6.82862H19.3232V7.15381H18.3941L18.3477 5.38849Z" fill="white"/>
<path id="Vector_14" d="M19.5586 5.38849H19.9302V7.15381H19.5586V5.38849Z" fill="white"/>
<path id="Vector_15" d="M21.4159 5.48197L21.2301 5.71425L20.9513 5.62134L20.6726 5.7607C20.5918 5.90128 20.5591 6.06442 20.5797 6.22526C20.5636 6.38166 20.5794 6.53971 20.6261 6.68982C20.659 6.74681 20.7065 6.79404 20.7636 6.82669C20.8207 6.85934 20.8855 6.87623 20.9513 6.87564H21.2301C21.2301 6.86332 21.235 6.8515 21.2437 6.84279C21.2524 6.83408 21.2642 6.82918 21.2765 6.82918L21.4159 7.06146C21.2795 7.1555 21.117 7.20425 20.9513 7.20083C20.8462 7.21445 20.7393 7.20015 20.6415 7.15938C20.5436 7.1186 20.4582 7.05279 20.3939 6.96855C20.2428 6.8039 20.1598 6.58808 20.1616 6.36463C20.151 6.16903 20.1996 5.97478 20.3009 5.80716C20.348 5.70781 20.4165 5.62013 20.5015 5.55043C20.5865 5.48073 20.6858 5.43075 20.7925 5.40409C20.8991 5.37743 21.0103 5.37475 21.1181 5.39625C21.2259 5.41775 21.3276 5.4629 21.4159 5.52843V5.48197Z" fill="white"/>
<path id="Vector_16" d="M21.6484 5.38849H22.6705V5.66722H22.0201V6.08532H22.4846V6.36406H22.0201V6.82862H22.6705V7.15381H21.6484V5.38849Z" fill="white"/>
<path id="Vector_17" d="M20.3945 11.8001C20.4002 11.9203 20.4304 12.0381 20.4832 12.1462C20.536 12.2544 20.6104 12.3505 20.7018 12.4289C20.7932 12.5072 20.8996 12.566 21.0145 12.6017C21.1294 12.6373 21.2504 12.6491 21.3701 12.6363C21.486 12.6426 21.6021 12.6259 21.7116 12.5873C21.8211 12.5486 21.9219 12.4887 22.0082 12.411C22.0945 12.3334 22.1646 12.2394 22.2146 12.1346C22.2645 12.0298 22.2933 11.9161 22.2992 11.8001C22.2873 11.5619 22.1842 11.3373 22.0112 11.173C21.8382 11.0087 21.6087 10.9172 21.3701 10.9175C21.2481 10.9112 21.126 10.9291 21.0108 10.9701C20.8957 11.0111 20.7898 11.0744 20.6992 11.1564C20.6086 11.2384 20.535 11.3375 20.4827 11.4479C20.4305 11.5584 20.4005 11.6781 20.3945 11.8001ZM20.952 11.8001C20.9301 11.7371 20.9235 11.6698 20.933 11.6037C20.9424 11.5377 20.9674 11.4749 21.0061 11.4205C21.0447 11.3661 21.0958 11.3218 21.1551 11.2912C21.2144 11.2606 21.2802 11.2446 21.3469 11.2446C21.4136 11.2446 21.4793 11.2606 21.5386 11.2912C21.5979 11.3218 21.649 11.3661 21.6877 11.4205C21.7263 11.4749 21.7514 11.5377 21.7608 11.6037C21.7702 11.6698 21.7637 11.7371 21.7417 11.8001C21.7637 11.8631 21.7702 11.9305 21.7608 11.9965C21.7514 12.0626 21.7263 12.1254 21.6877 12.1798C21.649 12.2342 21.5979 12.2785 21.5386 12.3091C21.4793 12.3397 21.4136 12.3557 21.3469 12.3557C21.2802 12.3557 21.2144 12.3397 21.1551 12.3091C21.0958 12.2785 21.0447 12.2342 21.0061 12.1798C20.9674 12.1254 20.9424 12.0626 20.933 11.9965C20.9235 11.9305 20.9301 11.8631 20.952 11.8001Z" fill="white"/>
<path id="Vector_18" d="M21.881 8.82645V9.38392H21.1841V9.01227H19.6046V9.38392H20.6267V9.47683C20.6285 9.60999 20.6003 9.74184 20.5439 9.86252C20.4876 9.9832 20.4047 10.0896 20.3015 10.1737C20.0848 10.3789 19.808 10.5092 19.5117 10.5453L19.7905 10.8705C20.164 10.8152 20.5079 10.6351 20.766 10.3595C20.9266 10.1832 21.0527 9.97836 21.1377 9.75556H21.881V10.0343H21.1377V10.4059H21.881V10.824H22.4384V8.82645H21.881Z" fill="white"/>
<path id="Vector_19" d="M12.1691 8.7803V9.33777H11.4258V9.70942H11.7045C11.6514 9.84294 11.6201 9.98409 11.6116 10.1275C11.6116 10.3493 11.6997 10.562 11.8565 10.7188C12.0133 10.8756 12.226 10.9637 12.4478 10.9637C12.6696 10.9637 12.8823 10.8756 13.0391 10.7188C13.1959 10.562 13.284 10.3493 13.284 10.1275C13.2809 9.97727 13.2323 9.83149 13.1446 9.70942H13.4234V9.33777H12.7265V8.7803H12.1691ZM12.1691 10.174C12.1691 9.89524 12.3084 9.70942 12.4478 9.70942C12.5872 9.70942 12.7265 9.89524 12.7265 10.174C12.7265 10.4527 12.5872 10.5921 12.4478 10.5921C12.3084 10.5921 12.1691 10.4063 12.1691 10.174Z" fill="white"/>
<path id="Vector_20" d="M14.3522 8.82645V9.94138H14.0735V8.82645H13.5625V12.5429H14.0735V10.3595H14.3522V12.5429H14.8168V8.82645H14.3522Z" fill="white"/>
<path id="Vector_21" d="M17.793 8.82645V10.824H18.3504V10.4059H18.8615V9.98784H18.3504V9.66265H18.8615V9.291H18.3504V8.82645H17.793Z" fill="white"/>
<path id="Vector_22" d="M16.3052 11.7997C16.2865 11.9955 16.3274 12.1925 16.4226 12.3646C16.5178 12.5368 16.6628 12.6762 16.8386 12.7644C17.0144 12.8527 17.2128 12.8858 17.4077 12.8593C17.6026 12.8328 17.785 12.748 17.9309 12.616C18.0768 12.484 18.1793 12.311 18.2251 12.1197C18.2709 11.9284 18.2578 11.7277 18.1875 11.544C18.1172 11.3602 17.993 11.202 17.8312 11.0902C17.6694 10.9783 17.4775 10.9179 17.2808 10.917C17.1573 10.904 17.0325 10.9171 16.9144 10.9556C16.7964 10.994 16.6877 11.057 16.5957 11.1403C16.5036 11.2236 16.4301 11.3254 16.3801 11.439C16.33 11.5526 16.3045 11.6755 16.3052 11.7997ZM16.8627 11.7997C16.8627 11.7448 16.8735 11.6904 16.8945 11.6397C16.9155 11.589 16.9463 11.5429 16.9851 11.5041C17.024 11.4652 17.0701 11.4344 17.1208 11.4134C17.1715 11.3924 17.2259 11.3816 17.2808 11.3816C17.3357 11.3816 17.3901 11.3924 17.4408 11.4134C17.4915 11.4344 17.5376 11.4652 17.5764 11.5041C17.6153 11.5429 17.646 11.589 17.6671 11.6397C17.6881 11.6904 17.6989 11.7448 17.6989 11.7997C17.6989 11.8546 17.6881 11.909 17.6671 11.9597C17.646 12.0104 17.6153 12.0565 17.5764 12.0953C17.5376 12.1342 17.4915 12.165 17.4408 12.186C17.3901 12.207 17.3357 12.2178 17.2808 12.2178C17.2259 12.2178 17.1715 12.207 17.1208 12.186C17.0701 12.165 17.024 12.1342 16.9851 12.0953C16.9463 12.0565 16.9155 12.0104 16.8945 11.9597C16.8735 11.909 16.8627 11.8546 16.8627 11.7997Z" fill="white"/>
<path id="Vector_23" d="M15.5156 9.80256C15.5156 10.049 15.6135 10.2853 15.7878 10.4595C15.962 10.6338 16.1983 10.7317 16.4447 10.7317C16.6912 10.7317 16.9275 10.6338 17.1017 10.4595C17.276 10.2853 17.3739 10.049 17.3739 9.80256C17.3739 9.55614 17.276 9.31982 17.1017 9.14558C16.9275 8.97133 16.6912 8.87344 16.4447 8.87344C16.1983 8.87344 15.962 8.97133 15.7878 9.14558C15.6135 9.31982 15.5156 9.55614 15.5156 9.80256ZM16.0731 9.80256C16.0731 9.70399 16.1122 9.60946 16.1819 9.53976C16.2516 9.47007 16.3462 9.43091 16.4447 9.43091C16.5433 9.43091 16.6378 9.47007 16.7075 9.53976C16.7772 9.60946 16.8164 9.70399 16.8164 9.80256C16.8164 9.90112 16.7772 9.99565 16.7075 10.0654C16.6378 10.135 16.5433 10.1742 16.4447 10.1742C16.3462 10.1742 16.2516 10.135 16.1819 10.0654C16.1122 9.99565 16.0731 9.90112 16.0731 9.80256Z" fill="white"/>
<path id="Vector_24" d="M25.5977 8.82645V10.824H26.1551V9.98784H26.6661V9.56974H26.1551V8.82645H25.5977Z" fill="white"/>
<path id="Vector_25" d="M23.923 8.77979V9.19789H23.2726V9.616H23.923C23.9168 9.72297 23.8889 9.82755 23.8409 9.92339C23.793 10.0192 23.7261 10.1043 23.6442 10.1735C23.5869 10.242 23.5161 10.298 23.4362 10.338C23.3562 10.378 23.2689 10.401 23.1797 10.4057L23.3191 10.5916L23.4584 10.7309C23.7684 10.6471 24.0344 10.4476 24.2017 10.1735C24.2017 10.127 24.2017 10.127 24.2482 10.127H24.2946C24.4713 10.3924 24.7337 10.5891 25.0379 10.6845C25.1189 10.5664 25.2124 10.4574 25.3167 10.3593C25.131 10.3215 24.9562 10.242 24.8056 10.127C24.6594 9.97302 24.5623 9.77893 24.5269 9.56954H25.1773V9.15144H24.5269V8.73334L23.923 8.77979Z" fill="white"/>
<path id="Vector_26" d="M23.7852 11.0102V11.3354H25.5969V11.6141H23.7852V12.218C23.7852 12.4503 23.8781 12.5432 24.1103 12.5432H26.2009V12.218H24.3891V11.9858H26.1079C26.1544 11.9858 26.1544 11.9858 26.1544 11.9393V11.0566H23.7852V11.0102Z" fill="white"/>
<path id="Vector_27" d="M19.0452 32.9838L18.9058 32.798C18.1274 32.0434 17.2709 31.3738 16.3507 30.8004C14.785 29.9179 13.3601 28.8061 12.1233 27.502C10.776 26.1548 9.80047 24.1572 9.28946 23.0887C8.77845 22.0203 8.12807 20.1156 8.12807 19.4652V7.89774H8.03516V19.4188C8.03516 20.5801 9.75402 25.1793 12.0303 27.5485C13.3061 28.8284 14.7428 29.9372 16.3043 30.8469C17.3201 31.4734 18.2428 32.2397 19.0452 33.1232V32.9838Z" fill="url(#paint3_linear_2870_86177)"/>
<path id="Vector_28" d="M19.0469 32.9838L19.2327 32.798C20.0111 32.0434 20.8676 31.3738 21.7878 30.8004C23.3454 29.9058 24.7687 28.7953 26.0152 27.502C27.1727 26.179 28.1276 24.6918 28.849 23.0887C29.4994 21.5557 30.0104 20.1156 30.0104 19.4652V7.89774H30.1033V19.4188C30.1033 20.5801 28.3845 25.1793 26.1081 27.5485C24.8324 28.8284 23.3957 29.9372 21.8342 30.8469C20.8147 31.4877 19.8785 32.2523 19.0469 33.1232V32.9838Z" fill="#D39428"/>
<path id="Vector_29" d="M19.0441 1.62585L8.77734 8.31548V19.5578C8.77734 20.5798 10.4497 24.9466 12.5867 27.13C13.7884 28.3893 15.1652 29.4689 16.6748 30.3355C17.5358 30.8582 18.3312 31.4821 19.0441 32.1937C19.7822 31.4916 20.5918 30.8688 21.4598 30.3355C22.9529 29.4448 24.3267 28.3677 25.5479 27.13C27.6848 24.9466 29.3572 20.5798 29.3572 19.5578V8.31548L19.0441 1.62585ZM29.2179 19.5578C29.2179 20.5798 27.5454 24.9002 25.4549 27.0371C24.2533 28.2964 22.8764 29.376 21.3668 30.2426C20.5303 30.7443 19.7514 31.3363 19.0441 32.0079C18.3527 31.3373 17.5893 30.7452 16.7677 30.2426C15.2581 29.376 13.8813 28.2964 12.6796 27.0371C10.5427 24.9002 8.91671 20.5798 8.91671 19.5578V8.40839L19.0441 1.76522L29.2179 8.40839V19.5578Z" fill="#000044"/>
<path id="Vector_30" d="M19.0472 18.257C18.2846 18.257 17.5391 18.4831 16.9051 18.9068C16.271 19.3305 15.7768 19.9327 15.4849 20.6372C15.1931 21.3418 15.1167 22.1171 15.2655 22.865C15.4143 23.613 15.7815 24.3 16.3208 24.8393C16.86 25.3785 17.547 25.7457 18.295 25.8945C19.043 26.0433 19.8182 25.9669 20.5228 25.6751C21.2274 25.3833 21.8295 24.889 22.2532 24.255C22.6769 23.6209 22.9031 22.8754 22.9031 22.1128C22.9031 21.0902 22.4968 20.1094 21.7737 19.3863C21.0506 18.6632 20.0699 18.257 19.0472 18.257Z" fill="#FFD900"/>
<path id="Vector_31" d="M13.1445 21.9732C13.3946 22.1582 13.6837 22.2836 13.9896 22.34C14.2955 22.3963 14.6103 22.3821 14.9098 22.2984V22.1126C14.9153 21.654 14.9937 21.1993 15.1421 20.7654C14.5707 21.3067 13.8894 21.7187 13.1445 21.9732Z" fill="url(#paint4_linear_2870_86177)"/>
<path id="Vector_32" d="M12.9141 22.5312C13.0316 23.5607 13.3139 24.5646 13.7503 25.5044C13.7695 25.549 13.8023 25.5864 13.844 25.6114C13.8857 25.6364 13.9341 25.6477 13.9825 25.6438C14.682 25.5302 15.3303 25.2061 15.8408 24.7146C15.328 24.109 15.0049 23.3658 14.9117 22.5777C14.234 22.7286 13.5246 22.6296 12.9141 22.299V22.4848V22.5312Z" fill="#FFD900"/>
<path id="Vector_33" d="M16.1174 28.4776C16.8607 27.8736 17.2788 26.3406 17.4182 25.9225C16.8732 25.7079 16.393 25.3558 16.0245 24.9005C15.4775 25.4613 14.7573 25.8213 13.9805 25.9225C14.4495 26.874 15.078 27.7382 15.8387 28.4776C15.8561 28.4973 15.8776 28.5132 15.9016 28.524C15.9256 28.5349 15.9517 28.5405 15.9781 28.5405C16.0044 28.5405 16.0305 28.5349 16.0545 28.524C16.0785 28.5132 16.1 28.4973 16.1174 28.4776Z" fill="#FFD900"/>
<path id="Vector_34" d="M15.8399 19.4649C15.9636 19.3213 16.0725 19.1657 16.1651 19.0004L15.5147 18.861H15.3754C14.4927 19.6043 13.099 20.7657 11.5195 21.1373C11.7508 21.4153 12.066 21.6108 12.4177 21.6945C12.7695 21.7783 13.1389 21.7458 13.4707 21.6019C14.3032 21.1763 15.0326 20.5738 15.6076 19.8366L15.8399 19.4649Z" fill="url(#paint5_linear_2870_86177)"/>
<path id="Vector_35" d="M22.0195 28.4776C22.0322 28.4967 22.0495 28.5125 22.0697 28.5233C22.09 28.5342 22.1127 28.5399 22.1356 28.5399C22.1586 28.5399 22.1813 28.5342 22.2016 28.5233C22.2218 28.5125 22.2391 28.4967 22.2518 28.4776C23.0412 27.7528 23.6874 26.8861 24.1565 25.9225C23.3739 25.8404 22.6477 25.4772 22.1124 24.9005C21.7301 25.341 21.2539 25.6903 20.7188 25.9225C20.8117 26.3406 21.2762 27.8736 22.0195 28.4776Z" fill="#FFD900"/>
<path id="Vector_36" d="M19.418 26.2477V26.5729C19.4644 27.4556 19.4644 29.9177 19.6038 30.3358C20.4248 29.9429 21.1903 29.443 21.8801 28.8492C21.5549 28.5705 20.951 27.9201 20.3935 26.0154C20.0836 26.1467 19.7538 26.2252 19.418 26.2477Z" fill="#FFD900"/>
<path id="Vector_37" d="M24.3874 25.5041C24.8027 24.5566 25.0841 23.556 25.2236 22.5309V22.3451C24.5949 22.6713 23.8726 22.7698 23.1795 22.6238C23.0827 23.4025 22.7777 24.1407 22.2969 24.7608C22.8 25.2626 23.4518 25.5885 24.1551 25.6899L24.3874 25.5041Z" fill="#FFD900"/>
<path id="Vector_38" d="M18.5341 30.3355C18.6735 29.9174 18.6735 27.4553 18.6735 26.5726V26.2474L17.7444 26.0616C17.1869 27.9198 16.583 28.6166 16.2578 28.8489C16.9477 29.4427 17.7131 29.9426 18.5341 30.3355Z" fill="#FFD900"/>
<path id="Vector_39" d="M12.31 17.3747L12.0312 17.1888C11.0557 16.492 10.4517 15.981 10.4517 15.981C7.75446 15.2171 5.10229 14.302 2.50781 13.2401C2.50781 13.2401 2.50781 16.7243 5.62034 17.2818C7.84723 17.4254 10.08 17.4564 12.31 17.3747Z" fill="url(#paint6_linear_2870_86177)"/>
<path id="Vector_40" d="M10.5895 15.7482C10.5895 15.7482 13.1445 18.2568 16.35 18.7678L17.0468 17.7922C14.3059 17.5135 12.587 15.9804 11.4257 14.819C11.051 14.4094 10.6116 14.0641 10.1249 13.797L0.415653 7.61841C0.415653 7.61841 -0.0953602 11.6136 2.50616 12.8679L2.73844 12.9608C5.29369 14.0555 7.91599 14.9865 10.5895 15.7482Z" fill="url(#paint7_linear_2870_86177)"/>
<path id="Vector_41" d="M12.6818 17.6068C11.0559 17.6997 8.87244 17.6997 5.99219 17.6068C6.2186 18.2298 6.64982 18.7576 7.21527 19.1036C7.78072 19.4496 8.44689 19.5934 9.10472 19.5115C10.7443 19.2873 12.3509 18.8661 13.8897 18.2572C13.4643 18.0855 13.0592 17.8674 12.6818 17.6068Z" fill="url(#paint8_linear_2870_86177)"/>
<path id="Vector_42" d="M15.0987 18.7214L14.1696 18.3962C12.5515 19.0485 10.87 19.5311 9.15234 19.8363C9.29975 20.1852 9.55547 20.4775 9.88172 20.6699C10.208 20.8623 10.5875 20.9446 10.9641 20.9048C12.3113 20.8584 13.8444 19.8363 15.0987 18.7214Z" fill="url(#paint9_linear_2870_86177)"/>
<path id="Vector_43" d="M24.9937 21.9732C24.7436 22.1582 24.4546 22.2836 24.1486 22.34C23.8427 22.3963 23.528 22.3821 23.2284 22.2984V22.1126C23.2229 21.654 23.1445 21.1993 22.9961 20.7654C23.5675 21.3067 24.2488 21.7187 24.9937 21.9732Z" fill="url(#paint10_linear_2870_86177)"/>
<path id="Vector_44" d="M22.2978 19.4649C22.1742 19.3213 22.0652 19.1657 21.9727 19.0004L22.623 18.861H22.7159C23.6451 19.6043 25.0387 20.7657 26.6182 21.1373C26.3869 21.4153 26.0718 21.6108 25.72 21.6945C25.3683 21.7783 24.9988 21.7458 24.6671 21.6019C23.8266 21.1885 23.0947 20.5839 22.5301 19.8366L22.2978 19.4649Z" fill="url(#paint11_linear_2870_86177)"/>
<path id="Vector_45" d="M25.7812 17.3747L26.1064 17.1888C27.082 16.492 27.6859 15.981 27.6859 15.981C30.3832 15.2171 33.0354 14.302 35.6299 13.2401C35.6299 13.2401 35.6299 16.7243 32.4709 17.2818C30.244 17.4256 28.0113 17.4566 25.7812 17.3747Z" fill="url(#paint12_linear_2870_86177)"/>
<path id="Vector_46" d="M27.5472 15.7482C27.5472 15.7482 24.9921 18.2568 21.7867 18.7678C21.538 18.4546 21.3054 18.129 21.0898 17.7922C23.8307 17.5135 25.5496 15.9804 26.6645 14.819C27.0613 14.4145 27.5152 14.0701 28.0117 13.797L37.721 7.61841H37.6745C37.6745 7.61841 38.232 11.6136 35.6305 12.8679L35.3517 12.9608C32.8125 14.056 30.2057 14.987 27.5472 15.7482Z" fill="url(#paint13_linear_2870_86177)"/>
<path id="Vector_47" d="M25.4578 17.6068C27.0838 17.6997 29.2672 17.6997 32.1475 17.6068H32.101C31.8819 18.2348 31.4522 18.7677 30.8849 19.1149C30.3175 19.4621 29.6474 19.6022 28.9885 19.5115C27.3651 19.2815 25.7746 18.8605 24.25 18.2572C24.6753 18.0855 25.0804 17.8674 25.4578 17.6068Z" fill="url(#paint14_linear_2870_86177)"/>
<path id="Vector_48" d="M23.043 18.7214L23.9721 18.3962C25.5902 19.0485 27.2716 19.5311 28.9893 19.8363C28.8419 20.1852 28.5862 20.4775 28.2599 20.6699C27.9337 20.8623 27.5542 20.9446 27.1775 20.9048C25.8303 20.8584 24.2973 19.8363 23.043 18.7214Z" fill="url(#paint15_linear_2870_86177)"/>
<path id="Vector_49" d="M22.9031 22.1128C22.9031 22.8754 22.6769 23.6209 22.2532 24.255C21.8295 24.889 21.2274 25.3833 20.5228 25.6751C19.8182 25.9669 19.043 26.0433 18.295 25.8945C17.547 25.7457 16.86 25.3785 16.3208 24.8393C15.7815 24.3 15.4143 23.613 15.2655 22.865C15.1167 22.1171 15.1931 21.3418 15.4849 20.6372C15.7768 19.9327 16.271 19.3305 16.9051 18.9068C17.5391 18.4831 18.2846 18.257 19.0472 18.257C19.5536 18.257 20.055 18.3567 20.5228 18.5505C20.9906 18.7442 21.4157 19.0283 21.7737 19.3863C22.1318 19.7443 22.4158 20.1694 22.6095 20.6372C22.8033 21.105 22.9031 21.6064 22.9031 22.1128Z" fill="url(#paint16_linear_2870_86177)"/>
<path id="Vector_50" d="M19.0448 19.1866C18.9792 19.1755 18.9197 19.1413 18.8771 19.0902C18.8345 19.0391 18.8116 18.9744 18.8125 18.9079C18.8125 18.8463 18.837 18.7872 18.8806 18.7436C18.9241 18.7001 18.9832 18.6756 19.0448 18.6756C19.1113 18.6747 19.176 18.6976 19.2271 18.7402C19.2783 18.7828 19.3125 18.8423 19.3235 18.9079C19.3235 18.9818 19.2942 19.0527 19.2419 19.105C19.1896 19.1572 19.1187 19.1866 19.0448 19.1866Z" fill="#001A60"/>
<path id="Vector_51" d="M21.3217 20.1153C21.2478 20.1153 21.1769 20.086 21.1246 20.0337C21.0723 19.9814 21.043 19.9105 21.043 19.8366C21.0541 19.771 21.0882 19.7115 21.1394 19.6689C21.1905 19.6263 21.2552 19.6034 21.3217 19.6043C21.3833 19.6043 21.4424 19.6288 21.4859 19.6723C21.5295 19.7159 21.554 19.775 21.554 19.8366C21.5549 19.9031 21.532 19.9678 21.4894 20.0189C21.4468 20.07 21.3873 20.1042 21.3217 20.1153Z" fill="#001A60"/>
<path id="Vector_52" d="M22.2514 22.3452C22.1849 22.3461 22.1202 22.3232 22.0691 22.2806C22.0179 22.238 21.9837 22.1785 21.9727 22.1129C21.9727 22.039 22.002 21.9681 22.0543 21.9158C22.1066 21.8635 22.1775 21.8342 22.2514 21.8342C22.317 21.8453 22.3765 21.8794 22.4191 21.9306C22.4617 21.9817 22.4846 22.0464 22.4837 22.1129C22.4837 22.1745 22.4592 22.2336 22.4156 22.2771C22.3721 22.3207 22.313 22.3452 22.2514 22.3452Z" fill="#001A60"/>
<path id="Vector_53" d="M21.3217 24.6213C21.2478 24.6213 21.1769 24.5919 21.1246 24.5396C21.0723 24.4874 21.043 24.4165 21.043 24.3425C21.0541 24.2769 21.0882 24.2174 21.1394 24.1748C21.1905 24.1322 21.2552 24.1093 21.3217 24.1103C21.3833 24.1103 21.4424 24.1347 21.4859 24.1783C21.5295 24.2219 21.554 24.2809 21.554 24.3425C21.5549 24.4091 21.532 24.4737 21.4894 24.5249C21.4468 24.576 21.3873 24.6102 21.3217 24.6213Z" fill="#001A60"/>
<path id="Vector_54" d="M19.0448 25.5508C18.9792 25.5397 18.9197 25.5055 18.8771 25.4544C18.8345 25.4033 18.8116 25.3386 18.8125 25.2721C18.8125 25.2105 18.837 25.1514 18.8806 25.1078C18.9241 25.0643 18.9832 25.0398 19.0448 25.0398C19.1113 25.0389 19.176 25.0618 19.2271 25.1044C19.2783 25.147 19.3125 25.2065 19.3235 25.2721C19.3235 25.346 19.2942 25.4169 19.2419 25.4692C19.1896 25.5214 19.1187 25.5508 19.0448 25.5508Z" fill="#001A60"/>
<path id="Vector_55" d="M16.8178 24.6213C16.7439 24.6213 16.673 24.5919 16.6207 24.5396C16.5684 24.4874 16.5391 24.4165 16.5391 24.3425C16.5501 24.2769 16.5843 24.2174 16.6355 24.1748C16.6866 24.1322 16.7513 24.1093 16.8178 24.1103C16.8794 24.1103 16.9385 24.1347 16.982 24.1783C17.0256 24.2219 17.0501 24.2809 17.0501 24.3425C17.051 24.4091 17.0281 24.4737 16.9855 24.5249C16.9429 24.576 16.8834 24.6102 16.8178 24.6213Z" fill="#001A60"/>
<path id="Vector_56" d="M15.8881 22.3452C15.8216 22.3461 15.7569 22.3232 15.7058 22.2806C15.6547 22.238 15.6205 22.1785 15.6094 22.1129C15.6094 22.039 15.6387 21.9681 15.691 21.9158C15.7433 21.8635 15.8142 21.8342 15.8881 21.8342C15.9537 21.8453 16.0132 21.8794 16.0558 21.9306C16.0984 21.9817 16.1213 22.0464 16.1204 22.1129C16.1204 22.1745 16.0959 22.2336 16.0524 22.2771C16.0088 22.3207 15.9497 22.3452 15.8881 22.3452Z" fill="#001A60"/>
<path id="Vector_57" d="M16.8178 20.1153C16.7439 20.1153 16.673 20.086 16.6207 20.0337C16.5684 19.9814 16.5391 19.9105 16.5391 19.8366C16.5501 19.771 16.5843 19.7115 16.6355 19.6689C16.6866 19.6263 16.7513 19.6034 16.8178 19.6043C16.8794 19.6043 16.9385 19.6288 16.982 19.6723C17.0256 19.7159 17.0501 19.775 17.0501 19.8366C17.051 19.9031 17.0281 19.9678 16.9855 20.0189C16.9429 20.07 16.8834 20.1042 16.8178 20.1153Z" fill="#001A60"/>
<path id="Vector_58" d="M21.6027 22.1597C21.5904 22.8373 21.3094 23.4823 20.8215 23.9528C20.3336 24.4232 19.6789 24.6806 19.0012 24.6683C18.3236 24.6559 17.6786 24.3749 17.2081 23.8871C16.7377 23.3992 16.4803 22.7444 16.4926 22.0667C16.5167 21.393 16.8014 20.7549 17.2867 20.287C17.772 19.819 18.42 19.5577 19.0941 19.5581C19.4315 19.5579 19.7655 19.6257 20.0761 19.7576C20.3867 19.8894 20.6675 20.0826 20.9017 20.3254C21.1359 20.5683 21.3187 20.8559 21.4391 21.1711C21.5596 21.4863 21.6152 21.8225 21.6027 22.1597Z" fill="url(#paint17_radial_2870_86177)"/>
<path id="Vector_59" d="M21.0438 22.3919C21.0438 21.2305 20.3005 20.5801 19.6501 20.5801C19.528 20.5673 19.4046 20.5788 19.2869 20.6139C19.1693 20.6491 19.0598 20.7073 18.9647 20.785C18.8697 20.8628 18.791 20.9586 18.7332 21.067C18.6755 21.1753 18.6397 21.2941 18.6281 21.4163C18.6328 21.5584 18.6737 21.697 18.7468 21.8189C18.82 21.9409 18.923 22.0421 19.0462 22.1131C19.1677 22.0481 19.3033 22.014 19.4411 22.014C19.5789 22.014 19.7145 22.0481 19.836 22.1131C20.0275 22.2531 20.1582 22.4609 20.2014 22.6941C20.2446 22.9273 20.1969 23.1682 20.0682 23.3674C19.6966 23.9249 18.7675 24.2501 17.7455 23.6462C17.4636 23.4741 17.2276 23.2363 17.0577 22.9532C16.8878 22.67 16.7891 22.3499 16.7699 22.0202C16.7509 22.3307 16.7956 22.6417 16.9015 22.9342C17.0073 23.2267 17.172 23.4943 17.3853 23.7207C17.5986 23.9471 17.856 24.1273 18.1417 24.2503C18.4273 24.3733 18.7352 24.4365 19.0462 24.4359C19.4067 24.4441 19.7618 24.3473 20.0682 24.1572C20.3762 23.9797 20.6299 23.7215 20.8018 23.4104C20.9738 23.0992 21.0574 22.7471 21.0438 22.3919Z" fill="url(#paint18_linear_2870_86177)"/>
<path id="Vector_60" d="M17.7911 23.6921C18.8132 24.2496 19.7887 23.9244 20.1139 23.3204C20.2273 23.1131 20.2615 22.8716 20.2102 22.6409C20.159 22.4102 20.0257 22.206 19.8352 22.0661C19.7111 22.0038 19.5727 21.9752 19.4341 21.9833C19.2954 21.9915 19.1614 22.0361 19.0454 22.1126C19.0421 22.2489 19.0014 22.3817 18.9276 22.4964C18.8539 22.6111 18.75 22.7034 18.6273 22.763C18.4108 22.8611 18.1648 22.8724 17.9401 22.7946C17.7154 22.7168 17.5291 22.5559 17.4195 22.3449C17.0943 21.7409 17.2801 20.7654 18.3486 20.2079C18.6332 20.0349 18.9565 19.9357 19.2891 19.9195C19.6218 19.9033 19.9532 19.9705 20.2533 20.115C19.9868 19.9494 19.6895 19.8394 19.3793 19.7918C19.0691 19.7443 18.7526 19.76 18.4486 19.8382C18.1447 19.9163 17.8598 20.0552 17.6111 20.2465C17.3623 20.4378 17.1549 20.6775 17.0014 20.9512C16.8182 21.2606 16.7219 21.6137 16.7227 21.9732C16.7448 22.3257 16.8541 22.6672 17.0405 22.9672C17.227 23.2671 17.4849 23.5162 17.7911 23.6921Z" fill="url(#paint19_radial_2870_86177)"/>
<path id="Vector_61" d="M18.3022 20.2081C17.2801 20.812 17.0943 21.7876 17.4195 22.3451C17.5378 22.5603 17.7298 22.7257 17.9601 22.811C18.1904 22.8963 18.4438 22.8958 18.6738 22.8096C18.7856 22.7303 18.8774 22.626 18.9419 22.5051C19.0064 22.3841 19.0419 22.2498 19.0454 22.1128C18.9309 22.0362 18.837 21.9326 18.7722 21.811C18.7073 21.6894 18.6735 21.5537 18.6738 21.416C18.6795 21.2958 18.7096 21.178 18.7625 21.0699C18.8153 20.9617 18.8897 20.8656 18.9811 20.7872C19.0724 20.7089 19.1788 20.6501 19.2938 20.6144C19.4087 20.5788 19.5297 20.567 19.6494 20.5798C20.2997 20.5798 21.0895 21.2766 21.043 22.438C21.0377 22.7665 20.955 23.0891 20.8016 23.3797C20.6483 23.6703 20.4286 23.9206 20.1604 24.1104C20.7068 23.8067 21.1111 23.2994 21.2851 22.699C21.4591 22.0986 21.3888 21.4537 21.0895 20.9049C20.9031 20.6026 20.6486 20.348 20.3462 20.1617C20.0288 19.998 19.6753 19.9164 19.3183 19.9246C18.9612 19.9327 18.6118 20.0302 18.3022 20.2081Z" fill="url(#paint20_radial_2870_86177)"/>
<path id="Vector_62" d="M23.2266 22.2984C23.5262 22.3821 23.8409 22.3963 24.1468 22.34C24.4527 22.2836 24.7418 22.1582 24.9919 21.9732L24.7596 21.8803C24.5323 22.0194 24.2778 22.108 24.0133 22.14C23.7488 22.1721 23.4805 22.1469 23.2266 22.0661V22.2984Z" fill="#E49D00"/>
<path id="Vector_63" d="M35.6312 12.8684C36.0657 12.6418 36.4475 12.326 36.7517 11.9418C37.0559 11.5576 37.2756 11.1135 37.3965 10.6385C37.0697 11.3405 36.5344 11.9245 35.8635 12.311C35.8635 12.311 34.0981 13.4723 27.5479 15.4235C27.5479 15.4235 24.4818 18.3502 21.6016 18.536L21.7874 18.7683C24.9928 18.2573 27.5479 15.7487 27.5479 15.7487C30.2064 14.9875 32.8133 14.0565 35.3525 12.9613L35.6312 12.8684Z" fill="#E49D00"/>
<path id="Vector_64" d="M32.4709 17.0024C30.3804 17.1418 27.8718 17.1882 26.1993 17.1418H26.1064L25.7812 17.3276C28.0113 17.4096 30.244 17.3786 32.4709 17.2347C32.9886 17.1649 33.4836 16.978 33.9183 16.6882C34.353 16.3984 34.7159 16.0133 34.9795 15.5623C34.3651 16.3535 33.4639 16.8709 32.4709 17.0024Z" fill="#E49D00"/>
<path id="Vector_65" d="M29.1278 19.2326C27.5658 18.9927 26.0272 18.6197 24.5287 18.1177L24.25 18.257C25.7746 18.8603 27.3651 19.2814 28.9885 19.5113C29.4858 19.6049 29.9995 19.554 30.4688 19.3646C30.9381 19.1752 31.3433 18.8554 31.6365 18.4429C31.3089 18.7611 30.9115 18.9983 30.4759 19.1354C30.0403 19.2725 29.5786 19.3058 29.1278 19.2326Z" fill="#E49D00"/>
<path id="Vector_66" d="M27.2704 20.6727C25.6445 20.5333 23.9721 19.2325 23.2752 18.6286L23.043 18.7215C24.2973 19.8365 25.8303 20.8585 27.1775 20.9049C27.4887 20.9235 27.7996 20.8655 28.0831 20.7359C28.3666 20.6063 28.614 20.4091 28.8035 20.1616C28.6049 20.3596 28.3631 20.5089 28.0971 20.5975C27.8311 20.6862 27.5481 20.7119 27.2704 20.6727Z" fill="#E49D00"/>
<path id="Vector_67" d="M24.8994 21.3698C23.8309 20.9982 22.8553 19.9297 22.2049 18.9541H21.9727L22.3443 19.5116C22.3908 19.558 22.3908 19.6045 22.4372 19.6045C23.0068 20.4183 23.7742 21.0738 24.6671 21.5092C24.9303 21.6247 25.2195 21.6684 25.5051 21.6357C25.7908 21.6031 26.0626 21.4953 26.293 21.3233H26.3395C25.8841 21.5268 25.367 21.5435 24.8994 21.3698Z" fill="#E49D00"/>
<path id="Vector_68" d="M26.8039 15.0513C27.1785 14.6416 27.618 14.2964 28.1047 14.0293C32.1463 11.3349 34.6085 10.0341 37.721 7.9436C37.7285 7.83314 37.7126 7.72235 37.6745 7.61841H37.721L32.4715 10.9632L28.0117 13.797C27.5152 14.0701 27.0613 14.4145 26.6645 14.819C25.5496 15.9804 23.8307 17.5135 21.0898 17.7922L21.2292 17.978C22.1583 17.9316 24.3882 17.5135 26.8039 15.0513Z" fill="#FFF4CD"/>
<path id="Vector_69" d="M27.6885 15.981L27.3633 16.2597C30.1704 15.5582 32.9194 14.6419 35.5859 13.5188C35.6115 13.4279 35.6271 13.3344 35.6324 13.2401C33.0379 14.302 30.3858 15.2171 27.6885 15.981Z" fill="#FFF4CD"/>
<path id="Vector_70" d="M32.145 17.6068C29.2647 17.6997 27.0813 17.6997 25.4554 17.6068L25.2695 17.6997C27.5272 17.8567 29.7925 17.8722 32.0521 17.7461V17.6068H32.145Z" fill="#FFF4CD"/>
<path id="Vector_71" d="M23.971 18.3962H23.7852C25.4254 19.1418 27.1606 19.6576 28.9417 19.9292V19.7899C27.2415 19.4965 25.5759 19.0295 23.971 18.3962Z" fill="#FFF4CD"/>
<path id="Vector_72" d="M26.6198 21.0912C25.0403 20.7195 23.6466 19.5581 22.7175 18.8148H22.5781C24.1576 20.3014 25.5048 20.9518 26.4804 21.1376L26.6198 21.0912Z" fill="#FFF4CD"/>
<path id="Vector_73" d="M14.9098 22.2984C14.6103 22.3821 14.2955 22.3963 13.9896 22.34C13.6837 22.2836 13.3946 22.1582 13.1445 21.9732L13.3768 21.8803C13.6041 22.0194 13.8586 22.108 14.1231 22.14C14.3876 22.1721 14.6559 22.1469 14.9098 22.0661V22.2984Z" fill="#E49D00"/>
<path id="Vector_74" d="M2.50708 12.8684C2.07222 12.6356 1.68806 12.3185 1.377 11.9356C1.06594 11.5528 0.834209 11.1119 0.695312 10.6385C1.05508 11.3327 1.60229 11.9121 2.27481 12.311C2.27481 12.311 4.04012 13.4723 10.5904 15.4235C10.5904 15.4235 13.6565 18.3502 16.5367 18.536L16.3509 18.7683C13.1454 18.2573 10.5904 15.7487 10.5904 15.7487C7.91692 14.987 5.29462 14.056 2.73936 12.9613L2.50708 12.8684Z" fill="#E49D00"/>
<path id="Vector_75" d="M5.6184 17.0024C7.70891 17.1418 10.264 17.1882 11.9364 17.1418H12.0293L12.308 17.3276C10.078 17.4093 7.84529 17.3783 5.6184 17.2347C5.10891 17.1582 4.62312 16.9683 4.19694 16.6788C3.77077 16.3893 3.4151 16.0077 3.15625 15.5623C3.75949 16.3431 4.64215 16.8594 5.6184 17.0024Z" fill="#E49D00"/>
<path id="Vector_76" d="M9.01251 19.2326C10.5735 18.9873 12.1117 18.6144 13.6116 18.1177L13.8904 18.257C12.3516 18.866 10.745 19.2871 9.10543 19.5113C8.615 19.6013 8.10906 19.5484 7.64784 19.3589C7.18662 19.1695 6.78955 18.8515 6.50391 18.4429C6.82709 18.7674 7.22414 19.0088 7.66104 19.1464C8.09795 19.2839 8.56168 19.3135 9.01251 19.2326Z" fill="#E49D00"/>
<path id="Vector_77" d="M10.8686 20.6727C12.4945 20.5333 14.1669 19.2325 14.8637 18.6286L15.096 18.7215C13.8417 19.8365 12.3087 20.8585 10.9615 20.9049C10.6503 20.9235 10.3394 20.8655 10.0559 20.7359C9.77238 20.6063 9.52503 20.4091 9.33552 20.1616H9.28906C9.49856 20.3577 9.74874 20.5052 10.0218 20.5935C10.2948 20.6818 10.5839 20.7089 10.8686 20.6727Z" fill="#E49D00"/>
<path id="Vector_78" d="M13.2409 21.3698C14.2629 20.9982 15.285 19.9297 15.9353 18.9541H16.1676L15.796 19.5116C15.7495 19.558 15.7495 19.6045 15.7031 19.6045C15.1234 20.4091 14.3586 21.0624 13.4732 21.5092C13.2099 21.6247 12.9208 21.6684 12.6351 21.6357C12.3495 21.6031 12.0776 21.4953 11.8472 21.3233H11.8008C12.2562 21.5268 12.7733 21.5435 13.2409 21.3698Z" fill="#E49D00"/>
<path id="Vector_79" d="M11.3351 15.0513C10.95 14.653 10.5124 14.3092 10.0343 14.0293C5.99265 11.3349 3.5305 10.0341 0.417969 7.9436V7.61841L5.66746 10.9632L10.1272 13.797C10.6139 14.0641 11.0533 14.4094 11.428 14.819C12.5894 15.9804 14.3082 17.5135 17.0491 17.7922L16.9097 17.978C15.9806 17.9316 13.7508 17.5135 11.3351 15.0513Z" fill="#FFF4CD"/>
<path id="Vector_80" d="M10.4517 15.981L10.7769 16.2597C7.95649 15.5521 5.19252 14.636 2.50781 13.5188V13.2401C5.10229 14.302 7.75446 15.2171 10.4517 15.981Z" fill="#FFF4CD"/>
<path id="Vector_81" d="M5.99219 17.6068C8.87244 17.6997 11.0559 17.6997 12.6818 17.6068L12.8676 17.6997C10.61 17.8567 8.3447 17.8722 6.0851 17.7461L5.99219 17.6068Z" fill="#FFF4CD"/>
<path id="Vector_82" d="M14.17 18.3962H14.3558C12.7133 19.1358 10.979 19.6514 9.19922 19.9292V19.7899C10.8994 19.4965 12.5651 19.0295 14.17 18.3962Z" fill="#FFF4CD"/>
<path id="Vector_83" d="M11.5195 21.0912C13.099 20.7195 14.4927 19.5581 15.3754 18.8148H15.5612C13.9817 20.3014 12.6345 20.9518 11.6124 21.1376L11.5195 21.0912Z" fill="#FFF4CD"/>
<path id="Vector_84" d="M24.0627 26.1548L24.1557 25.9225C23.3731 25.8404 22.6469 25.4772 22.1116 24.9005C22.0744 24.983 22.0083 25.0491 21.9258 25.0863C22.4795 25.697 23.2419 26.0782 24.0627 26.1548Z" fill="#FFF4CD"/>
<path id="Vector_85" d="M22.1589 28.152C21.5842 27.4731 21.157 26.6821 20.9046 25.8292L20.7188 25.9221C20.8117 26.3402 21.2762 27.8732 22.0195 28.4772C22.0322 28.4963 22.0495 28.5121 22.0697 28.5229C22.09 28.5338 22.1127 28.5395 22.1356 28.5395C22.1586 28.5395 22.1813 28.5338 22.2016 28.5229C22.2218 28.5121 22.2391 28.4963 22.2518 28.4772L22.4376 28.2913L22.1589 28.152Z" fill="#E49D00"/>
<path id="Vector_86" d="M23.1328 22.7637C23.8134 22.9594 24.5427 22.8931 25.1769 22.5779H25.2233V22.3921C24.8684 22.5933 24.4697 22.7049 24.0619 22.7173H23.1793C23.1657 22.7345 23.1501 22.7501 23.1328 22.7637Z" fill="#FFF4CD"/>
<path id="Vector_87" d="M24.248 25.365C23.5668 25.2997 22.928 25.0048 22.4362 24.5288L22.2969 24.7147C22.8 25.2164 23.4518 25.5423 24.1551 25.6438L24.3874 25.5044C24.4338 25.458 24.4338 25.365 24.4803 25.3186L24.248 25.365Z" fill="#E49D00"/>
<path id="Vector_88" d="M21.879 28.8492C21.5538 28.5705 20.9499 27.9201 20.3924 26.0154L20.1602 26.1084C20.857 28.7563 21.879 28.8492 21.879 28.8492Z" fill="#FFF4CD"/>
<path id="Vector_89" d="M19.8361 29.6386C19.7432 28.8953 19.6502 27.037 19.6502 26.2008H19.418C19.418 26.4796 19.4644 29.3598 19.5573 30.1496H19.6038C20.3748 29.782 21.0935 29.3133 21.7408 28.7559C21.2556 29.2143 20.6882 29.5768 20.0683 29.8244C20.0219 29.8244 19.8361 29.8708 19.8361 29.6386Z" fill="#E49D00"/>
<path id="Vector_90" d="M14.0734 26.1548C14.0165 26.0904 13.9837 26.0083 13.9805 25.9225C14.7573 25.8213 15.4775 25.4613 16.0245 24.9005L16.1639 25.0863C15.6332 25.7017 14.883 26.0852 14.0734 26.1548Z" fill="#FFF4CD"/>
<path id="Vector_91" d="M15.9814 28.152C16.5442 27.4721 16.9559 26.6803 17.1893 25.8292L17.4216 25.9221C17.2822 26.3402 16.8641 27.8732 16.1208 28.4772C16.1081 28.4963 16.0908 28.5121 16.0706 28.5229C16.0503 28.5338 16.0277 28.5395 16.0047 28.5395C15.9817 28.5395 15.959 28.5338 15.9388 28.5229C15.9185 28.5121 15.9012 28.4963 15.8885 28.4772L15.6562 28.2913L15.9814 28.152Z" fill="#E49D00"/>
<path id="Vector_92" d="M14.9581 22.7637C14.2767 22.9505 13.5506 22.8845 12.9141 22.5779V22.3921C13.2545 22.5878 13.6367 22.6993 14.029 22.7173H14.9581V22.7637Z" fill="#FFF4CD"/>
<path id="Vector_93" d="M13.8885 25.365C14.5698 25.2997 15.2086 25.0048 15.7003 24.5288L15.8397 24.7147C15.3365 25.2164 14.6848 25.5423 13.9814 25.6438C13.933 25.6478 13.8846 25.6365 13.8429 25.6115C13.8012 25.5865 13.7684 25.549 13.7492 25.5044C13.7027 25.458 13.7027 25.365 13.6562 25.3186L13.8885 25.365Z" fill="#E49D00"/>
<path id="Vector_94" d="M16.2578 28.8492C16.583 28.5705 17.1869 27.9201 17.7444 26.0154L17.9302 26.1084C17.2798 28.7563 16.2578 28.8492 16.2578 28.8492Z" fill="#FFF4CD"/>
<path id="Vector_95" d="M18.3031 29.6386C18.396 28.8953 18.4425 27.037 18.4889 26.2008H18.6748C18.6748 26.4796 18.6748 29.3598 18.5819 30.1496C18.5695 30.1496 18.5577 30.1545 18.549 30.1632C18.5403 30.1719 18.5354 30.1837 18.5354 30.196C17.7574 29.841 17.037 29.3712 16.3984 28.8024C16.8984 29.1945 17.4649 29.4935 18.0708 29.685C18.1173 29.8244 18.3031 29.8708 18.3031 29.6386Z" fill="#E49D00"/>
<path id="Vector_96" d="M17.745 17.2351C18.0207 16.7068 18.1338 16.1087 18.0702 15.5162C18.0238 15.5162 17.0947 15.0981 17.1411 15.5627C17.1876 16.0272 16.8159 14.9587 17.234 14.7729C17.4349 14.7205 17.6475 14.7369 17.838 14.8194L18.3025 14.9123C18.5136 14.7414 18.7744 14.6435 19.0458 14.6336C18.673 14.4974 18.2669 14.4812 17.8844 14.5871C18.0702 14.0296 18.5813 14.0296 19.0458 14.1225C19.3169 14.2254 19.5968 14.3031 19.882 14.3548C20.103 14.4 20.3329 14.3671 20.5324 14.2619C20.5739 14.3337 20.5954 14.4153 20.5948 14.4982C20.5941 14.5811 20.5712 14.6624 20.5286 14.7335C20.4859 14.8046 20.425 14.863 20.3521 14.9026C20.2793 14.9422 20.1972 14.9616 20.1143 14.9587C20.1143 14.9587 20.0214 16.6312 20.4859 17.4674C20.7297 17.8931 21.0094 18.2972 21.3221 18.6752C20.6582 18.2218 19.873 17.9793 19.069 17.9793C18.2651 17.9793 17.4798 18.2218 16.8159 18.6752C17.0482 18.3036 17.6057 17.5138 17.745 17.2351ZM38.0927 7.34001C38.0927 6.829 37.7675 7.06128 37.7675 7.06128C34.1439 9.52343 29.1267 12.6824 27.6401 13.6115C27.057 14.0258 26.5128 14.4923 26.0142 15.0052C23.4591 17.5603 20.9505 17.4674 20.904 17.4674C20.8576 17.4674 20.4395 15.1446 20.4395 15.1446C21.2292 14.8658 20.7182 13.7509 20.7182 13.7509C20.5876 13.8828 20.4221 13.9748 20.241 14.0159C20.06 14.0571 19.871 14.0457 19.6962 13.9832C19.4938 13.8788 19.2728 13.8156 19.0458 13.7974C17.6986 13.6115 17.5592 14.4942 17.5592 14.4942C17.3928 14.4478 17.2151 14.4649 17.0606 14.5422C16.9061 14.6195 16.7858 14.7513 16.723 14.9123C16.5372 15.5627 17.234 15.8879 17.234 15.8879L17.7915 15.7485C17.7885 16.3654 17.5937 16.9661 17.234 17.4674C17.0947 17.4674 14.6325 17.5138 12.0775 15.0052C11.5899 14.4807 11.0444 14.0132 10.4515 13.6115C9.01138 12.6824 3.99416 9.52343 0.324159 7.06128C0.324159 7.06128 0.0454249 6.829 0.0454249 7.34001C-0.140398 9.56988 0.184792 11.8927 2.13593 13.1005C2.13593 13.1005 1.90365 16.8634 5.62011 17.6067C5.62011 17.6067 6.40986 19.9295 8.82555 19.8366C8.96138 20.1583 9.17088 20.4436 9.43715 20.6696C9.70343 20.8955 10.0191 21.0557 10.3586 21.1374C10.6504 21.1905 10.9494 21.1905 11.2413 21.1374C11.3606 21.373 11.5388 21.5738 11.7585 21.7203C11.9783 21.8668 12.2322 21.954 12.4956 21.9736C12.6309 23.9508 13.3158 25.8508 14.4732 27.4596C15.6305 29.0684 17.2142 30.3219 19.0458 31.0789C25.5961 28.1986 25.6425 21.9736 25.6425 21.9736C25.9004 21.9554 26.1486 21.8682 26.3611 21.721C26.5736 21.5739 26.7426 21.3723 26.8504 21.1374C27.1577 21.1912 27.4721 21.1912 27.7795 21.1374C28.119 21.0557 28.4346 20.8955 28.7009 20.6696C28.9672 20.4436 29.1767 20.1583 29.3125 19.8366C31.7282 19.9295 32.518 17.6067 32.518 17.6067C36.2344 16.8634 36.0021 13.1005 36.0021 13.1005C37.9533 11.8927 38.2785 9.56988 38.0927 7.34001ZM0.417071 7.61875L10.1263 13.7974C10.613 14.0644 11.0524 14.4097 11.4271 14.8194C12.5885 15.9808 14.3073 17.5138 17.0482 17.7925L16.3514 18.7681C13.1459 18.2571 10.5909 15.7485 10.5909 15.7485C7.91741 14.9868 5.29511 14.0558 2.73986 12.9612L2.50758 12.8682C-0.093942 11.6139 0.417071 7.61875 0.417071 7.61875ZM2.50758 13.2399C5.10206 14.3018 7.75422 15.2168 10.4515 15.9808C10.4515 15.9808 11.0554 16.4918 12.031 17.1886L12.3097 17.3744C10.0797 17.4562 7.847 17.4252 5.62011 17.2815C2.50758 16.7241 2.50758 13.2399 2.50758 13.2399ZM5.99176 17.6067C8.87201 17.6996 11.0554 17.6996 12.6814 17.6067C13.0588 17.8674 13.4639 18.0855 13.8892 18.2571C12.3505 18.8661 10.7439 19.2872 9.10429 19.5114C8.44645 19.5934 7.78029 19.4496 7.21484 19.1035C6.64939 18.7575 6.21817 18.2298 5.99176 17.6067ZM10.9625 20.9051C10.5859 20.9449 10.2064 20.8625 9.88012 20.6701C9.55387 20.4777 9.29815 20.1855 9.15074 19.8366C10.8684 19.5313 12.5499 19.0487 14.168 18.3965L15.0971 18.7217C13.8428 19.8366 12.3097 20.8586 10.9625 20.9051ZM11.52 21.0909C13.0995 20.7193 14.4931 19.5579 15.3758 18.8146H15.5152L16.1656 18.9539C16.073 19.1193 15.964 19.2749 15.8404 19.4185L15.6081 19.7437C15.033 20.4809 14.3037 21.0834 13.4711 21.509C13.1441 21.6582 12.7778 21.6981 12.4264 21.6228C12.0749 21.5475 11.7571 21.361 11.52 21.0909ZM14.9113 22.2987C14.6117 22.3824 14.2969 22.3967 13.991 22.3403C13.6851 22.2839 13.396 22.1585 13.1459 21.9736C13.8908 21.719 14.5721 21.3071 15.1435 20.7657C14.9951 21.1996 14.9167 21.6544 14.9113 22.1129V22.2987ZM13.7499 25.5042C13.3135 24.5644 13.0312 23.5605 12.9137 22.531V22.3452C13.5242 22.6758 14.2336 22.7748 14.9113 22.6239C15.0044 23.412 15.3276 24.1552 15.8404 24.7609C15.3299 25.2524 14.6816 25.5765 13.9821 25.69C13.9278 25.6911 13.8748 25.6731 13.8323 25.6392C13.7899 25.6052 13.7607 25.5574 13.7499 25.5042ZM16.1191 28.4774C16.1017 28.4971 16.0802 28.513 16.0562 28.5238C16.0322 28.5347 16.0061 28.5403 15.9797 28.5403C15.9534 28.5403 15.9273 28.5347 15.9033 28.5238C15.8792 28.513 15.8578 28.4971 15.8404 28.4774C15.0796 27.738 14.4511 26.8738 13.9821 25.9223C14.759 25.8211 15.4791 25.4611 16.0262 24.9003C16.3947 25.3556 16.8748 25.7077 17.4199 25.9223C17.2805 26.3404 16.8624 27.8734 16.1191 28.4774ZM18.6742 26.5727C18.6742 27.4553 18.6742 29.9175 18.5348 30.3356C17.7137 29.9427 16.9483 29.4428 16.2585 28.849C16.5837 28.6167 17.1876 27.9199 17.745 26.0617L18.6742 26.2475V26.5727ZM19.0458 25.9687C18.2832 25.9687 17.5377 25.7426 16.9036 25.3189C16.2695 24.8952 15.7753 24.293 15.4835 23.5885C15.1917 22.8839 15.1153 22.1086 15.2641 21.3607C15.4129 20.6127 15.7801 19.9257 16.3193 19.3864C16.8586 18.8472 17.5456 18.48 18.2936 18.3312C19.0415 18.1824 19.8168 18.2588 20.5214 18.5506C21.2259 18.8424 21.8281 19.3367 22.2518 19.9707C22.6755 20.6048 22.9016 21.3503 22.9016 22.1129C22.9016 23.1356 22.4954 24.1163 21.7723 24.8394C21.0492 25.5625 20.0684 25.9687 19.0458 25.9687ZM19.6033 30.3356C19.4639 29.9175 19.4639 27.4553 19.4175 26.5727V26.2475C19.7533 26.225 20.0831 26.1465 20.393 26.0152C20.9505 27.9199 21.5544 28.5703 21.8796 28.849C21.1898 29.4428 20.4243 29.9427 19.6033 30.3356ZM22.2513 28.4774C22.2385 28.4965 22.2213 28.5122 22.201 28.5231C22.1808 28.534 22.1581 28.5397 22.1351 28.5397C22.1121 28.5397 22.0895 28.534 22.0692 28.5231C22.0489 28.5122 22.0317 28.4965 22.019 28.4774C21.2757 27.8734 20.8111 26.3404 20.7182 25.9223C21.2533 25.6901 21.7296 25.3408 22.1119 24.9003C22.6471 25.477 23.3734 25.8401 24.1559 25.9223C23.6868 26.8859 23.0407 27.7526 22.2513 28.4774ZM25.2244 22.4846C25.085 23.5096 24.8035 24.5103 24.3882 25.4577L24.1559 25.5971C23.4526 25.4957 22.8009 25.1698 22.2977 24.668C22.7786 24.0479 23.0835 23.3097 23.1804 22.531C23.8735 22.677 24.5957 22.5785 25.2244 22.2523V22.4846ZM22.9945 20.7657C23.5517 21.3256 24.2376 21.7403 24.9921 21.9736C24.742 22.1585 24.453 22.2839 24.1471 22.3403C23.8412 22.3967 23.5264 22.3824 23.2268 22.2987V22.1129C23.2214 21.6544 23.143 21.1996 22.9945 20.7657ZM24.6669 21.5555C23.7741 21.1201 23.0067 20.4646 22.4371 19.6508C22.3906 19.6508 22.3906 19.6043 22.3442 19.5579L21.9725 19.0004L22.6229 18.861H22.7158C23.6449 19.6043 25.0386 20.7657 26.6181 21.1374C26.381 21.4075 26.0631 21.594 25.7117 21.6693C25.3603 21.7446 24.9939 21.7047 24.6669 21.5555ZM27.1756 20.9051C25.8283 20.8586 24.2953 19.8366 23.041 18.7217L23.9701 18.3965C25.5882 19.0487 27.2696 19.5313 28.9873 19.8366C28.8399 20.1855 28.5842 20.4777 28.258 20.6701C27.9317 20.8625 27.5522 20.9449 27.1756 20.9051ZM32.0999 17.6067C31.8808 18.2348 31.4511 18.7677 30.8837 19.1148C30.3163 19.462 29.6463 19.6022 28.9873 19.5114C27.3639 19.2814 25.7734 18.8604 24.2488 18.2571C24.6742 18.0855 25.0793 17.8674 25.4567 17.6067C27.0826 17.6996 29.2661 17.6996 32.1463 17.6067H32.0999ZM32.4715 17.2815C30.2446 17.4254 28.0119 17.4564 25.7819 17.3744L26.1071 17.1886C27.0826 16.4918 27.6866 15.9808 27.6866 15.9808C30.3838 15.2168 33.036 14.3018 35.6305 13.2399C35.6305 13.2399 35.6305 16.7241 32.4715 17.2815ZM35.6305 12.8682L35.3518 12.9612C32.8126 14.0563 30.2057 14.9873 27.5472 15.7485C27.5472 15.7485 24.9921 18.2571 21.7867 18.7681C21.538 18.4549 21.3055 18.1293 21.0899 17.7925C23.8307 17.5138 25.5496 15.9808 26.6645 14.8194C27.0613 14.4148 27.5152 14.0705 28.0118 13.7974L37.721 7.61875H37.6745C37.6745 7.61875 38.232 11.6139 35.6305 12.8682Z" fill="#001A60"/>
<path id="Vector_97" d="M19.0463 17.9322C19.8561 17.9417 20.6463 18.1835 21.3226 18.6291C21.0099 18.2511 20.7302 17.847 20.4864 17.4212C20.0219 16.585 20.1148 14.9126 20.1148 14.9126C20.1976 14.9155 20.2798 14.8961 20.3526 14.8565C20.4255 14.8169 20.4864 14.7585 20.5291 14.6874C20.5717 14.6163 20.5946 14.535 20.5952 14.4521C20.5959 14.3692 20.5744 14.2876 20.5329 14.2158C20.3333 14.321 20.1035 14.3539 19.8825 14.3087C19.5972 14.257 19.3173 14.1793 19.0463 14.0764C18.5817 13.9835 18.0707 13.9835 17.8849 14.541C18.2674 14.4351 18.6734 14.4513 19.0463 14.5874C18.7749 14.5974 18.514 14.6952 18.303 14.8662L17.8384 14.7733C17.648 14.6908 17.4354 14.6744 17.2345 14.7268C16.8164 14.9126 17.0022 15.3772 17.1416 15.5166C17.281 15.6559 18.0243 15.4701 18.0707 15.4701C18.1343 16.0626 18.0211 16.6606 17.7455 17.189C17.6062 17.4677 17.0487 18.2574 16.8164 18.5826C17.4844 18.1619 18.2568 17.9366 19.0463 17.9322Z" fill="url(#paint21_linear_2870_86177)"/>
<path id="Vector_98" d="M19.0442 14.4016L19.8804 14.6339C20.1135 14.665 20.3504 14.6492 20.5772 14.5874C20.5885 14.4617 20.5727 14.3349 20.5308 14.2158C20.3313 14.321 20.1014 14.3539 19.8804 14.3087C19.5952 14.257 19.3152 14.1793 19.0442 14.0764C18.5796 13.9835 18.0686 13.9835 17.8828 14.541H18.1615C18.2869 14.4491 18.4324 14.3885 18.586 14.3643C18.7395 14.3401 18.8966 14.3529 19.0442 14.4016Z" fill="#FFF4CD"/>
<path id="Vector_99" d="M17.2348 15.0981C17.4513 15.0485 17.6778 15.0647 17.8851 15.1446L18.3497 15.284C18.5215 15.0103 18.7617 14.7861 19.0465 14.6336C18.852 14.6326 18.6603 14.6805 18.4891 14.773L18.3032 14.9123L17.978 14.8194C17.7449 14.711 17.4795 14.6944 17.2348 14.773C17.1837 14.7881 17.1365 14.814 17.0964 14.8489C17.0563 14.8839 17.0241 14.927 17.0021 14.9755C16.98 15.0239 16.9687 15.0766 16.9688 15.1298C16.9688 15.183 16.9803 15.2356 17.0025 15.284C17.0598 15.2004 17.1406 15.1357 17.2348 15.0981Z" fill="#FFF4CD"/>
</g>
<g id="letter">
<path id="Vector_100" d="M43.3876 9.47662V11.7065H40.4609V13.3324H41.7152L41.6223 13.4718C41.3927 13.9184 41.2666 14.4109 41.2532 14.9128C41.2399 15.4148 41.3398 15.9133 41.5455 16.3713C41.7511 16.8294 42.0572 17.2353 42.4412 17.5589C42.8251 17.8826 43.277 18.1156 43.7632 18.2407C44.2495 18.3659 44.7577 18.3799 45.2502 18.2818C45.7426 18.1838 46.2067 17.9761 46.6079 17.6742C47.0092 17.3723 47.3373 16.9839 47.5679 16.5379C47.7986 16.0919 47.9258 15.5997 47.9403 15.0978C47.9294 14.5246 47.7693 13.9642 47.4757 13.4718V13.3324H48.5442V11.7065H45.8033V9.47662H43.3876ZM43.4806 15.0978C43.4806 14.0757 43.9451 13.3324 44.5955 13.3324C45.2459 13.3324 45.664 14.1222 45.664 15.0978C45.664 16.0733 45.1994 16.8631 44.5955 16.8631C43.9916 16.8631 43.4806 16.0733 43.4806 15.0978Z" fill="#DDDDDD"/>
<path id="Vector_101" d="M52.1676 9.75522V14.2614H51.0992V9.75522H49.1016V24.714H51.0992V15.9803H52.1676V24.714H54.1652V9.75522H52.1676Z" fill="#DDDDDD"/>
<path id="Vector_102" d="M66.6602 9.75522V17.6991H68.9829V16.0267H71.1199V14.4472H68.9829V13.0536H71.1199V11.5205H68.9829V9.75522H66.6602Z" fill="#DDDDDD"/>
<path id="Vector_103" d="M60.7617 21.6484C60.7617 23.5531 62.527 25.1325 64.664 25.1325C66.801 25.1325 68.6127 23.5531 68.6127 21.6484C68.6127 19.7437 66.8474 18.1177 64.664 18.1177C62.4806 18.1177 60.7617 19.6972 60.7617 21.6484ZM63.038 21.6484C63.0828 21.3294 63.2188 21.0301 63.4296 20.7865C63.6404 20.5429 63.917 20.3654 64.2263 20.2753C64.5356 20.1852 64.8643 20.1863 65.1729 20.2785C65.4816 20.3707 65.757 20.5501 65.9662 20.7951C66.1753 21.0401 66.3093 21.3403 66.3519 21.6596C66.3945 21.9789 66.344 22.3037 66.2065 22.595C66.069 22.8863 65.8502 23.1316 65.5766 23.3016C65.303 23.4716 64.9861 23.5589 64.664 23.5531C64.4319 23.5355 64.2056 23.4721 63.9981 23.3668C63.7906 23.2614 63.6059 23.116 63.4548 22.9389C63.3037 22.7619 63.1891 22.5568 63.1176 22.3353C63.046 22.1138 63.019 21.8803 63.038 21.6484Z" fill="#DDDDDD"/>
<path id="Vector_104" d="M57.5547 13.7038C57.5547 15.6085 59.2271 17.188 61.3176 17.188C62.2709 17.2131 63.1957 16.8614 63.8914 16.2092C64.5872 15.557 64.9977 14.6567 65.0341 13.7038C64.9977 12.7508 64.5872 11.8506 63.8914 11.1984C63.1957 10.5462 62.2709 10.1945 61.3176 10.2196C59.2271 10.2196 57.5547 11.7991 57.5547 13.7038ZM59.7846 13.7038C59.7846 12.6818 60.4814 11.8456 61.3176 11.8456C62.1538 11.8456 62.8506 12.6818 62.8506 13.7038C62.8506 14.7258 62.1073 15.562 61.3176 15.562C60.5279 15.562 59.7846 14.6794 59.7846 13.7038Z" fill="#DDDDDD"/>
<path id="Vector_105" d="M77.5312 21.6478C77.5312 23.5989 79.2501 25.132 81.3871 25.132C83.524 25.132 85.1964 23.5989 85.1964 21.6478C85.1964 19.6966 83.4776 18.2101 81.3871 18.2101C79.2966 18.2101 77.5312 19.7431 77.5312 21.6478ZM79.8076 21.6478C79.8076 20.6257 80.458 19.836 81.3871 19.836C81.611 19.8477 81.8303 19.9042 82.032 20.0023C82.2336 20.1005 82.4134 20.2381 82.5608 20.4072C82.7081 20.5762 82.82 20.7731 82.8897 20.9862C82.9594 21.1994 82.9856 21.4243 82.9666 21.6478C82.9666 22.7163 82.2697 23.506 81.3871 23.506C80.5044 23.506 79.8076 22.7163 79.8076 21.6478Z" fill="#DDDDDD"/>
<path id="Vector_106" d="M83.4309 9.75522V11.9386H80.783V10.4521H74.4185V12.0315H78.3673V12.3103C78.3908 12.8206 78.3033 13.33 78.1108 13.8032C77.9183 14.2764 77.6254 14.7022 77.2523 15.0512C76.3821 15.9095 75.2577 16.4636 74.0469 16.6307L75.1154 17.9314C76.3221 17.7306 77.4534 17.2114 78.3925 16.4274C79.3316 15.6434 80.0445 14.6231 80.4578 13.4717H83.4309V14.6331H80.5507V16.1661H83.4309V17.7921H85.7073V9.75522H83.4309Z" fill="#DDDDDD"/>
<path id="Vector_107" d="M109.355 21.5549C109.355 23.4596 111.074 24.9927 113.165 24.9927C115.255 24.9927 117.021 23.4596 117.021 21.5549C117.021 19.6503 115.302 18.0708 113.165 18.0708C111.028 18.0708 109.355 19.6503 109.355 21.5549ZM111.632 21.5549C111.632 20.4865 112.282 19.6967 113.165 19.6967C113.395 19.7084 113.62 19.7662 113.827 19.8666C114.035 19.9671 114.22 20.1082 114.371 20.2815C114.523 20.4548 114.638 20.6569 114.71 20.8756C114.782 21.0944 114.81 21.3254 114.791 21.5549C114.81 21.7821 114.782 22.0108 114.71 22.227C114.637 22.4431 114.521 22.6421 114.369 22.8118C114.217 22.9815 114.031 23.1183 113.824 23.2137C113.617 23.3091 113.393 23.3612 113.165 23.3667C112.282 23.3667 111.632 22.577 111.632 21.5549Z" fill="#DDDDDD"/>
<path id="Vector_108" d="M115.579 9.75522V12.8678H113.906V14.5402H115.579V17.7456H117.855V9.75522H115.579Z" fill="#DDDDDD"/>
<path id="Vector_109" d="M108.844 9.47672V11.2885H106.289V12.9144H108.798V13.0073C108.798 14.2152 107.59 16.1199 105.871 16.3057L106.8 17.4206L106.986 17.6994C108.228 17.3067 109.263 16.4381 109.866 15.2837C109.866 15.2372 109.913 15.1443 110.052 15.1443C110.089 15.1443 110.125 15.159 110.151 15.1851C110.177 15.2113 110.191 15.2467 110.191 15.2837C110.702 16.3986 112.236 17.4671 112.886 17.5135C112.886 17.4671 113.908 16.2592 113.908 16.2592C113.908 16.2592 113.072 16.027 112.282 15.2837C111.968 14.9918 111.716 14.64 111.54 14.249C111.365 13.8581 111.269 13.4358 111.26 13.0073V12.9144H113.583V11.2885H111.213V9.47672H108.844Z" fill="#DDDDDD"/>
<path id="Vector_110" d="M98.9961 9.75522V17.7456H101.272V14.4008H103.177V12.7284H101.272V9.75522H98.9961Z" fill="#DDDDDD"/>
<path id="Vector_111" d="M92.3039 9.47672V11.2885H89.6095V12.9144H92.2575V13.0073C92.2017 13.8252 91.8668 14.5991 91.3086 15.1996C90.7505 15.8 90.003 16.1905 89.1914 16.3057C89.4212 16.5418 89.6383 16.7899 89.8418 17.049L90.3063 17.56C90.939 17.4082 91.5336 17.1277 92.0531 16.7361C92.5726 16.3445 93.0059 15.8501 93.326 15.2837C93.3724 15.2372 93.4189 15.1443 93.5118 15.1443L93.6511 15.2837C94.348 16.538 95.9275 17.4671 96.6243 17.5135L97.7857 16.2592C97.0083 16.1936 96.2816 15.8468 95.7417 15.2837C95.4235 14.9953 95.1684 14.6442 94.9926 14.2524C94.8167 13.8607 94.7237 13.4368 94.7196 13.0073V12.9144H97.3676V11.2885H94.6732V9.47672H92.3039Z" fill="#DDDDDD"/>
<path id="Vector_112" d="M91.7031 18.5817V19.8825H98.9502V20.9509H91.7031V23.4131C91.7031 24.3887 91.9819 24.7138 92.911 24.7138H101.459V23.3666H94.2582C94.1966 23.3666 94.1375 23.3422 94.0939 23.2986C94.0504 23.255 94.0259 23.196 94.0259 23.1344V22.2517H101.041C101.102 22.2517 101.161 22.2272 101.205 22.1837C101.249 22.1401 101.273 22.081 101.273 22.0194V18.6746C101.273 18.5817 101.227 18.5817 101.18 18.5817H91.7031Z" fill="#DDDDDD"/>
<path id="Vector_113" d="M40.6445 27.8729H41.8524V30.4744L43.4783 27.8729H44.872L43.0602 30.5209L45.1043 33.587H43.5712L41.8524 30.6138V33.587H40.6445V27.8729Z" fill="#DDDDDD"/>
<path id="Vector_114" d="M47.5216 27.7799C49.0081 27.7799 49.9837 28.8948 49.9837 30.7066C49.9837 32.5184 49.5192 32.9365 48.683 33.401C48.3302 33.6025 47.9273 33.6991 47.5216 33.6798C47.1711 33.7074 46.8192 33.6501 46.4957 33.5126C46.1722 33.3751 45.8866 33.1615 45.6633 32.89C45.221 32.2669 44.9928 31.517 45.013 30.7531C45.013 29.4988 45.4775 28.5232 46.3137 28.0586C46.686 27.8642 47.1018 27.7683 47.5216 27.7799ZM47.4751 28.6626C47.2961 28.663 47.1204 28.7104 46.9655 28.8001C46.8106 28.8898 46.6819 29.0186 46.5924 29.1736C46.3812 29.6722 46.2859 30.2123 46.3137 30.7531C46.3137 31.7286 46.4995 32.3326 46.8247 32.6113C47.03 32.7487 47.2751 32.8141 47.5216 32.7971C48.3113 32.7971 48.6365 32.1932 48.6365 30.7531C48.6517 30.2997 48.6048 29.8465 48.4971 29.4059C48.422 29.1931 48.2841 29.0081 48.1016 28.8754C47.9191 28.7427 47.7007 28.6685 47.4751 28.6626Z" fill="#DDDDDD"/>
<path id="Vector_115" d="M50.7266 27.8734H52.8635C53.0867 27.8598 53.3102 27.8938 53.5192 27.973C53.7283 28.0523 53.9181 28.175 54.0762 28.3331C54.2343 28.4912 54.357 28.681 54.4363 28.8901C54.5155 29.0991 54.5495 29.3226 54.5359 29.5458C54.5359 30.382 53.9785 31.1253 53.2816 31.1253L53.5139 31.3575C53.8391 31.7756 54.9076 33.5874 54.9076 33.5874H53.5139L53.0029 32.6583C52.4454 31.6363 52.2596 31.3575 52.0273 31.2646H51.888V33.6339H50.7266V27.8734ZM51.888 28.8025V30.3355H52.2596C52.7706 30.3355 52.9564 30.2891 53.0958 30.1497C53.244 30.002 53.3276 29.8015 53.3281 29.5922C53.3431 29.4404 53.311 29.2876 53.2362 29.1547C53.1614 29.0217 53.0475 28.9149 52.91 28.8489H51.888V28.8025Z" fill="#DDDDDD"/>
<path id="Vector_116" d="M55.5117 27.8729H58.7636L58.6242 28.802H56.6267V30.1493H58.2991V31.0784H56.6731V32.6114H58.8101V33.587H55.5117V27.8729Z" fill="#DDDDDD"/>
<path id="Vector_117" d="M60.9945 27.8268H62.2488L64.0142 33.5873H62.8063L62.3882 32.2401H60.7158L60.2977 33.5873H59.0898L60.9945 27.8268ZM60.9945 31.2645H62.1095C62.1095 31.2645 61.9236 30.6606 61.7843 30.1031L61.552 29.1275L61.3197 30.196C61.1804 30.6141 61.1339 30.8929 60.9945 31.2645Z" fill="#DDDDDD"/>
<path id="Vector_118" d="M70.9346 28.1984L70.4236 28.9881C70.1802 28.7734 69.8654 28.6574 69.5409 28.6629C69.348 28.6564 69.1566 28.7 68.9856 28.7896C68.8146 28.8792 68.6698 29.0116 68.5653 29.174C68.3122 29.6094 68.1987 30.1121 68.2401 30.6141C68.1849 31.1366 68.2649 31.6644 68.4724 32.1471C68.5777 32.3499 68.7384 32.5186 68.9357 32.6337C69.1331 32.7489 69.359 32.8056 69.5874 32.7975C69.8879 32.7913 70.1794 32.6941 70.4236 32.5188L70.5629 32.4259L71.0739 33.1691C70.6284 33.5282 70.0659 33.7102 69.4944 33.6802C69.1444 33.704 68.7937 33.6449 68.4708 33.5077C68.1479 33.3704 67.862 33.159 67.6362 32.8904C67.1519 32.3228 66.9026 31.5916 66.9394 30.8464C66.9039 30.2353 67.0322 29.6259 67.311 29.081C67.516 28.6775 67.8282 28.3382 68.2134 28.1006C68.5986 27.8629 69.0418 27.736 69.4944 27.7338C70.0151 27.7078 70.5273 27.8731 70.9346 28.1984Z" fill="#DDDDDD"/>
<path id="Vector_119" d="M73.7681 27.7802C75.3011 27.7802 76.2302 28.8952 76.2302 30.7069C76.2302 32.5187 75.8121 32.9368 74.9759 33.4014C74.6189 33.5919 74.2191 33.6879 73.8145 33.6801C73.4637 33.7118 73.1105 33.6563 72.7863 33.5185C72.4621 33.3807 72.1769 33.165 71.9563 32.8904C71.5139 32.2672 71.2857 31.5173 71.3059 30.7534C71.3059 29.4991 71.7705 28.5235 72.6067 28.059C72.9637 27.8684 73.3635 27.7724 73.7681 27.7802ZM73.7681 28.6629C73.5891 28.6633 73.4133 28.7107 73.2584 28.8004C73.1035 28.8901 72.9749 29.0189 72.8854 29.1739C72.6518 29.6656 72.5555 30.2114 72.6067 30.7534C72.6067 31.729 72.746 32.3329 73.1177 32.6116C73.3034 32.7531 73.5356 32.8194 73.7681 32.7974C74.5578 32.7974 74.9295 32.1935 74.9295 30.7534C74.9447 30.3001 74.8978 29.8468 74.7901 29.4062C74.715 29.1934 74.577 29.0085 74.3946 28.8757C74.2121 28.743 73.9936 28.6688 73.7681 28.6629Z" fill="#DDDDDD"/>
<path id="Vector_120" d="M78.1824 27.8268H79.4367L81.2485 33.5873H79.9942L79.6226 32.2401H77.9037L77.5321 33.5873H76.3242L78.1824 27.8268ZM78.1824 31.2645H79.3438C79.3438 31.2645 79.158 30.6606 79.0186 30.1031L78.7864 29.1275C78.7864 29.1275 78.6005 29.7779 78.5076 30.196C78.4271 30.5601 78.3183 30.9173 78.1824 31.2645Z" fill="#DDDDDD"/>
<path id="Vector_121" d="M85.7079 28.2914L85.1505 29.0812C84.7447 28.8286 84.2807 28.6846 83.8033 28.6631C83.7081 28.6501 83.6112 28.657 83.5188 28.6832C83.4264 28.7095 83.3404 28.7545 83.2662 28.8156C83.192 28.8767 83.1313 28.9525 83.0878 29.0381C83.0443 29.1238 83.019 29.2175 83.0135 29.3134C83.0135 29.5922 83.1529 29.778 83.6639 29.8709L84.3143 30.1032C85.2898 30.3355 85.8009 30.9394 85.8009 31.7756C85.8009 32.6118 84.8253 33.7267 83.4316 33.7267C82.7488 33.722 82.078 33.5464 81.4805 33.2157L81.8986 32.2866C82.3738 32.5804 82.9194 32.7409 83.4781 32.7512C84.1284 32.7512 84.4536 32.4724 84.4536 31.9614C84.4536 31.4504 84.2214 31.3575 83.7103 31.2181L83.1064 31.0788C82.6449 30.973 82.2344 30.7103 81.945 30.3355C81.7916 30.0667 81.7115 29.7623 81.7127 29.4528C81.7127 28.4308 82.549 27.6875 83.7568 27.6875C84.4529 27.6894 85.1325 27.8997 85.7079 28.2914Z" fill="#DDDDDD"/>
<path id="Vector_122" d="M86.1719 27.8729H90.3064L90.1206 28.802H88.7269V33.587H87.5655V28.802H86.1719V27.8729Z" fill="#DDDDDD"/>
<path id="Vector_123" d="M97.9732 28.4307L97.3693 29.174C97.0426 28.8677 96.6092 28.7011 96.1615 28.7095C95.872 28.6962 95.5887 28.7962 95.3717 28.9882C94.9536 29.3599 94.8607 29.9638 94.8607 30.8464C94.8607 31.7291 95.0001 32.1937 95.3253 32.4724C95.5662 32.6912 95.8827 32.8078 96.2079 32.7976C96.4325 32.8008 96.6548 32.7532 96.8583 32.6582V31.3574H95.9756L95.8363 30.4283H98.0661V33.1228C97.4917 33.4682 96.8317 33.6453 96.1615 33.6338C95.7932 33.6595 95.4241 33.597 95.0848 33.4516C94.7455 33.3062 94.4457 33.082 94.2103 32.7976C93.7686 32.2272 93.5387 31.5211 93.5599 30.8C93.5599 29.5921 93.9781 28.7095 94.7678 28.1985C95.177 27.9164 95.6646 27.7701 96.1615 27.7804C96.8249 27.7667 97.47 27.9982 97.9732 28.4307Z" fill="#DDDDDD"/>
<path id="Vector_124" d="M98.9947 27.8729H100.156V31.6358C100.123 31.8722 100.155 32.1133 100.249 32.3327C100.337 32.4578 100.456 32.5578 100.595 32.6229C100.733 32.6881 100.886 32.7161 101.039 32.7043C101.55 32.7043 101.875 32.472 101.921 32.0539V27.8729H103.083V31.7287C103.12 32.0262 103.088 32.3282 102.99 32.6114C102.851 33.076 102.293 33.6799 101.039 33.6799C99.7844 33.6799 99.5522 33.4476 99.227 32.9366C99.0353 32.6152 98.9538 32.2401 98.9947 31.8681V27.8729Z" fill="#DDDDDD"/>
<path id="Vector_125" d="M105.452 27.8268H106.706L108.518 33.5873H107.264L106.846 32.2401H105.173L104.755 33.5873H103.594L105.452 27.8268ZM105.452 31.2645H106.567C106.452 30.883 106.359 30.4952 106.288 30.1031C106.192 29.7826 106.115 29.4568 106.056 29.1275C106.056 29.1275 105.87 29.7779 105.777 30.196C105.684 30.6141 105.591 30.8929 105.452 31.2645Z" fill="#DDDDDD"/>
<path id="Vector_126" d="M109.031 27.8736H111.168C111.395 27.853 111.624 27.8818 111.838 27.9579C112.053 28.0341 112.249 28.1557 112.412 28.3146C112.575 28.4735 112.702 28.6658 112.784 28.8783C112.866 29.0909 112.901 29.3186 112.887 29.546C112.887 30.3822 112.283 31.1255 111.586 31.1255C111.685 31.1778 111.766 31.2588 111.819 31.3578C112.144 31.7759 113.212 33.5877 113.212 33.5877H111.865L111.308 32.6585C110.75 31.6365 110.564 31.3578 110.378 31.2649H110.193V33.6341H109.031V27.8736ZM110.193 28.8027V30.3358H110.564C110.871 30.3811 111.184 30.3152 111.447 30.1499C111.514 30.0745 111.565 29.9862 111.597 29.8903C111.629 29.7945 111.641 29.6931 111.633 29.5925C111.646 29.4463 111.618 29.2993 111.553 29.168C111.487 29.0367 111.386 28.9263 111.261 28.8492H110.193V28.8027Z" fill="#DDDDDD"/>
<path id="Vector_127" d="M113.953 27.9199H116.09C116.329 27.9329 116.562 27.9929 116.778 28.0966C116.993 28.2002 117.185 28.3454 117.344 28.5238C117.902 29.0348 118.134 29.7317 118.134 30.8001C118.149 31.4918 117.955 32.1718 117.577 32.7513C117.41 32.97 117.2 33.1527 116.96 33.2884C116.721 33.4241 116.457 33.51 116.183 33.541H113.953V27.9199ZM115.115 28.8026V32.6584H115.765C116.508 32.6584 116.833 32.1009 116.833 30.8931C116.88 30.3362 116.784 29.7767 116.555 29.2671C116.463 29.1174 116.333 28.9953 116.177 28.9135C116.022 28.8317 115.847 28.7934 115.672 28.8026H115.115Z" fill="#DDDDDD"/>
</g>
</g>
<defs>
<radialGradient id="paint0_radial_2870_86177" cx="0" cy="0" r="1" gradientUnits="userSpaceOnUse" gradientTransform="translate(13.2586 7.12084) scale(19.8607 19.8607)">
<stop stop-color="#FEE7A9"/>
<stop offset="0.46" stop-color="#FFD900"/>
<stop offset="1" stop-color="#E49D00"/>
</radialGradient>
<linearGradient id="paint1_linear_2870_86177" x1="14.004" y1="8.99837" x2="20.3499" y2="16.9562" gradientUnits="userSpaceOnUse">
<stop stop-color="#002F82"/>
<stop offset="1" stop-color="#001A60"/>
</linearGradient>
<linearGradient id="paint2_linear_2870_86177" x1="13.2254" y1="22.1963" x2="11.4229" y2="10.9169" gradientUnits="userSpaceOnUse">
<stop stop-color="#CA8200"/>
<stop offset="0.3" stop-color="#E1A504"/>
<stop offset="1" stop-color="#CA8200"/>
</linearGradient>
<linearGradient id="paint3_linear_2870_86177" x1="15.8955" y1="32.1987" x2="-1.45575" y2="-8.51971" gradientUnits="userSpaceOnUse">
<stop stop-color="#FEDA5D"/>
<stop offset="1" stop-color="#996100"/>
</linearGradient>
<linearGradient id="paint4_linear_2870_86177" x1="13.1306" y1="21.5598" x2="15.1328" y2="21.5598" gradientUnits="userSpaceOnUse">
<stop stop-color="#FEE7A9"/>
<stop offset="0.46" stop-color="#FFD900"/>
<stop offset="1" stop-color="#E49D00"/>
</linearGradient>
<linearGradient id="paint5_linear_2870_86177" x1="11.5288" y1="20.2454" x2="16.1558" y2="20.2454" gradientUnits="userSpaceOnUse">
<stop stop-color="#FEE7A9"/>
<stop offset="0.46" stop-color="#FFD900"/>
<stop offset="1" stop-color="#E49D00"/>
</linearGradient>
<linearGradient id="paint6_linear_2870_86177" x1="2.5171" y1="15.3399" x2="12.3285" y2="15.3399" gradientUnits="userSpaceOnUse">
<stop stop-color="#FEE7A9"/>
<stop offset="0.46" stop-color="#FFD900"/>
<stop offset="1" stop-color="#E49D00"/>
</linearGradient>
<linearGradient id="paint7_linear_2870_86177" x1="0.652577" y1="9.79718" x2="18.9561" y2="19.6086" gradientUnits="userSpaceOnUse">
<stop stop-color="#FEE7A9"/>
<stop offset="0.46" stop-color="#FFD900"/>
<stop offset="1" stop-color="#E49D00"/>
</linearGradient>
<linearGradient id="paint8_linear_2870_86177" x1="6.00612" y1="18.5777" x2="13.8989" y2="18.5777" gradientUnits="userSpaceOnUse">
<stop stop-color="#FEE7A9"/>
<stop offset="0.46" stop-color="#FFD900"/>
<stop offset="1" stop-color="#E49D00"/>
</linearGradient>
<linearGradient id="paint9_linear_2870_86177" x1="9.13376" y1="19.6505" x2="15.1126" y2="19.6505" gradientUnits="userSpaceOnUse">
<stop stop-color="#FEE7A9"/>
<stop offset="0.46" stop-color="#FFD900"/>
<stop offset="1" stop-color="#E49D00"/>
</linearGradient>
<linearGradient id="paint10_linear_2870_86177" x1="24.9983" y1="21.5598" x2="22.9961" y2="21.5598" gradientUnits="userSpaceOnUse">
<stop stop-color="#FEE7A9"/>
<stop offset="0.46" stop-color="#FFD900"/>
<stop offset="1" stop-color="#E49D00"/>
</linearGradient>
<linearGradient id="paint11_linear_2870_86177" x1="26.5996" y1="20.2454" x2="21.9727" y2="20.2454" gradientUnits="userSpaceOnUse">
<stop stop-color="#FEE7A9"/>
<stop offset="0.46" stop-color="#FFD900"/>
<stop offset="1" stop-color="#E49D00"/>
</linearGradient>
<linearGradient id="paint12_linear_2870_86177" x1="35.6113" y1="15.3399" x2="25.7998" y2="15.3399" gradientUnits="userSpaceOnUse">
<stop stop-color="#FEE7A9"/>
<stop offset="0.46" stop-color="#FFD900"/>
<stop offset="1" stop-color="#E49D00"/>
</linearGradient>
<linearGradient id="paint13_linear_2870_86177" x1="37.4701" y1="9.79718" x2="19.1712" y2="19.6086" gradientUnits="userSpaceOnUse">
<stop stop-color="#FEE7A9"/>
<stop offset="0.46" stop-color="#FFD900"/>
<stop offset="1" stop-color="#E49D00"/>
</linearGradient>
<linearGradient id="paint14_linear_2870_86177" x1="32.1242" y1="18.5777" x2="24.2314" y2="18.5777" gradientUnits="userSpaceOnUse">
<stop stop-color="#FEE7A9"/>
<stop offset="0.46" stop-color="#FFD900"/>
<stop offset="1" stop-color="#E49D00"/>
</linearGradient>
<linearGradient id="paint15_linear_2870_86177" x1="28.9986" y1="19.6505" x2="23.0197" y2="19.6505" gradientUnits="userSpaceOnUse">
<stop stop-color="#FEE7A9"/>
<stop offset="0.46" stop-color="#FFD900"/>
<stop offset="1" stop-color="#E49D00"/>
</linearGradient>
<linearGradient id="paint16_linear_2870_86177" x1="19.0565" y1="18.0897" x2="19.0565" y2="25.9593" gradientUnits="userSpaceOnUse">
<stop stop-color="#FEE7A9"/>
<stop offset="0.46" stop-color="#FFD900"/>
<stop offset="1" stop-color="#E49D00"/>
</linearGradient>
<radialGradient id="paint17_radial_2870_86177" cx="0" cy="0" r="1" gradientUnits="userSpaceOnUse" gradientTransform="translate(19.0477 22.0909) scale(2.55692)">
<stop stop-color="#036EB8"/>
<stop offset="0.57" stop-color="#003894"/>
</radialGradient>
<linearGradient id="paint18_linear_2870_86177" x1="18.6188" y1="22.3361" x2="21.1553" y2="23.0237" gradientUnits="userSpaceOnUse">
<stop stop-color="#FEE7A9"/>
<stop offset="0.46" stop-color="#FFD900"/>
<stop offset="1" stop-color="#E49D00"/>
</linearGradient>
<radialGradient id="paint19_radial_2870_86177" cx="0" cy="0" r="1" gradientUnits="userSpaceOnUse" gradientTransform="translate(19.3911 22.4619) scale(3.53063 3.53063)">
<stop stop-color="#036EB8"/>
<stop offset="0.57" stop-color="#003894"/>
</radialGradient>
<radialGradient id="paint20_radial_2870_86177" cx="0" cy="0" r="1" gradientUnits="userSpaceOnUse" gradientTransform="translate(19.0046 22.202) scale(2.24474)">
<stop stop-color="#E6002D"/>
<stop offset="0.22" stop-color="#DB032B"/>
<stop offset="0.6" stop-color="#BE0C24"/>
<stop offset="1" stop-color="#99161C"/>
</radialGradient>
<linearGradient id="paint21_linear_2870_86177" x1="19.0695" y1="14.3041" x2="19.0695" y2="18.6941" gradientUnits="userSpaceOnUse">
<stop stop-color="#FEE7A9"/>
<stop offset="0.46" stop-color="#FFD900"/>
<stop offset="1" stop-color="#E49D00"/>
</linearGradient>
</defs>
</svg>
