<svg width="67" height="89" viewBox="0 0 67 89" fill="none" xmlns="http://www.w3.org/2000/svg">
<g id="Group 1207">
<path id="Vector" d="M13.6992 31.1393V19.3253C13.6992 8.7083 22.3576 1.86621 32.8881 1.86621C43.4186 1.86621 52.077 8.7083 52.077 19.3253V30.9034" stroke="#A8AAB7" stroke-width="3" stroke-linecap="round" stroke-linejoin="round"/>
<g id="Group">
<path id="Vector_2" d="M65.183 75.2033C65.183 81.8095 60.0347 87.0001 53.4824 87.0001H13.7006C7.14824 87.0001 2 81.8095 2 75.2033V43.3522C2 36.7461 7.14824 31.5555 13.7006 31.5555H53.4824C60.0347 31.5555 65.183 36.7461 65.183 43.3522V75.2033Z" stroke="#A8AAB7" stroke-width="3" stroke-linecap="round" stroke-linejoin="round"/>
<path id="Vector_3" d="M33.2031 64.4094V69.5789" stroke="#A8AAB7" stroke-width="3" stroke-linecap="round" stroke-linejoin="round"/>
<path id="Ellipse 2569" d="M39.5031 56.0968C39.5031 59.5812 36.6811 62.4037 33.2027 62.4037C29.7243 62.4037 26.9023 59.5812 26.9023 56.0968C26.9023 52.6123 29.7243 49.7898 33.2027 49.7898C36.6811 49.7898 39.5031 52.6123 39.5031 56.0968Z" stroke="#A8AAB7" stroke-width="3"/>
</g>
</g>
</svg>
